<svg id="Layer_1" data-name="Layer 1" xmlns="http://www.w3.org/2000/svg" viewBox="0 0 180 250"><defs><style>.cls-1,.cls-4,.cls-5{fill:none;}.cls-2{fill:#1b1464;}.cls-3{fill:#009245;}.cls-4{stroke:#b90086;}.cls-4,.cls-5{stroke-miterlimit:10;}.cls-5{stroke:#0aff48;}.cls-6{fill:#1b147d;}</style></defs><title>blaa_sok</title><line class="cls-1" x1="104.5" y1="110.75" x2="102" y2="112.5"/><path class="cls-2" d="M125,31.23v95.88a15.83,15.83,0,0,0,1.07,5.73l1.46,3.8-53.11-3.16V31.32"/><rect class="cls-3" x="74.43" y="31.32" width="50.58" height="9.27"/><path class="cls-2" d="M74.43,133.48l-4.58,8.7A13.68,13.68,0,0,1,68,144.82l-4.36,4.9-8.15,8.15L46,166.32l-10.87,9.51-8.25,8-6.12,6.89L17.17,198l-2,6.7v5.53L17,215.32l3.54,4.53,4.93,4.53,5.51,3.15,7.09,2h5.32l6.1-1.77,8.27-5.32,10.83-7.48,12.93-9.26L93,197.2l8-5.9L113.26,183l4.72-.19,2.2-.45a22.68,22.68,0,0,0,8-3.32l1-.67a14.34,14.34,0,0,0,2.9-2.54l1.84-2.1a18.74,18.74,0,0,0,1.84-2.48h0a22.38,22.38,0,0,0,2.95-7.35h0a18,18,0,0,0,.36-3.58V158.6a29.25,29.25,0,0,0-.37-4.68h0a22.38,22.38,0,0,0-1.41-5l-.78-1.9h0a33.81,33.81,0,0,0-3.48-5.73h0a5.91,5.91,0,0,0-.92-.95l-2.22-1.77-2.33-1.9Z"/><ellipse class="cls-2" cx="110.99" cy="156.48" rx="27.69" ry="25.01"/><path class="cls-4" d="M113.26,183C102.32,177.61,104,164.76,108,152c2-6.36,13.09-17.31,19.51-15.33"/><line class="cls-4" x1="74.43" y1="40.59" x2="125.01" y2="40.59"/><line class="cls-5" x1="134.25" y1="47.42" x2="134.25" y2="47.57"/><rect class="cls-6" x="116" y="45.5" width="6" height="81" rx="3"/></svg>
