<svg id="Layer_1" data-name="Layer 1" xmlns="http://www.w3.org/2000/svg" viewBox="0 0 210 250"><defs><style>.cls-1{fill:#ffc62a;}.cls-2{fill:#009245;}.cls-3,.cls-4,.cls-5{fill:none;stroke-miterlimit:10;}.cls-3,.cls-4{stroke:#000;}.cls-3{stroke-width:2px;}.cls-5{stroke:#0aff48;}.cls-6{fill:#f7931e;}</style></defs><title>gul_sok</title><path class="cls-1" d="M54.18,35.73v95.88a16,16,0,0,1-1.07,5.73l-1.46,3.8L104.76,138V35.82"/><rect class="cls-2" x="54.18" y="35.82" width="50.58" height="9.27" transform="translate(158.93 80.91) rotate(-180)"/><path class="cls-1" d="M104.76,138l4.58,8.7a13.25,13.25,0,0,0,1.83,2.64l4.36,4.9,8.15,8.15,9.51,8.45,10.87,9.51,8.25,8,6.12,6.89,3.59,7.28,2,6.7v5.53l-1.82,5.13-3.55,4.53-4.92,4.53L148.25,232l-7.09,2h-5.32l-6.11-1.77-8.27-5.32-10.83-7.48-12.92-9.26-11.5-8.47-8-5.9-12.27-8.28-4.73-.19L59,186.88a22.66,22.66,0,0,1-8-3.32l-1-.67a14.61,14.61,0,0,1-2.9-2.54l-1.83-2.1a17.89,17.89,0,0,1-1.84-2.48h0a22.38,22.38,0,0,1-3-7.35h0a17.27,17.27,0,0,1-.37-3.58V163.1a30.45,30.45,0,0,1,.37-4.68h0a22.4,22.4,0,0,1,1.42-5l.77-1.9h0a33.86,33.86,0,0,1,3.49-5.73h0a5.51,5.51,0,0,1,.92-.95L49.31,143l2.34-1.9Z"/><ellipse class="cls-1" cx="68.2" cy="160.98" rx="27.69" ry="25.01"/><path class="cls-3" d="M65.29,187.56c11.07-5.12,9.72-18,6-30.9-1.82-6.41-12.63-17.66-19.09-15.84"/><line class="cls-4" x1="104.76" y1="45.09" x2="54.18" y2="45.09"/><line class="cls-5" x1="44.93" y1="51.92" x2="44.93" y2="52.07"/><rect class="cls-6" x="56" y="50" width="5" height="84" rx="2.5"/></svg>
