<svg id="Layer_1" data-name="Layer 1" xmlns="http://www.w3.org/2000/svg" viewBox="0 0 210 400"><defs><style>.cls-1{fill:#009245;}.cls-2{fill:#e6e6e6;}.cls-3{fill:#006837;stroke:#006837;stroke-miterlimit:10;}</style></defs><title>pengeseddel</title><rect class="cls-1" x="48" y="82.5" width="113" height="210"/><path class="cls-2" d="M126,293.88c-.44-20.53,15.51-36,35.59-36.41l.26,35.65Z"/><path class="cls-2" d="M82.59,81.47C83,102,67.07,117.46,47,117.88l-.26-35.65Z"/><path class="cls-2" d="M126.41,81.47c-.44,20.53,15.52,36,35.59,36.41l.26-35.65Z"/><path class="cls-2" d="M82.59,293.88c.44-20.53-15.52-36-35.59-36.41l-.26,35.65Z"/><ellipse class="cls-2" cx="105" cy="187.5" rx="33.27" ry="34"/><ellipse cx="105" cy="126" rx="4.47" ry="4.5"/><ellipse cx="105" cy="249" rx="4.47" ry="4.5"/><rect class="cls-3" x="53.5" y="142" width="4" height="91" rx="2"/></svg>
