<svg id="Layer_1" data-name="Layer 1" xmlns="http://www.w3.org/2000/svg" viewBox="0 0 200 200"><defs><style>.cls-1{fill:#ffd950;}.cls-2,.cls-3,.cls-6{fill:none;}.cls-2,.cls-5{stroke:#ff931e;}.cls-2,.cls-3,.cls-5{stroke-miterlimit:10;}.cls-2,.cls-3,.cls-5,.cls-6{stroke-width:2px;}.cls-3{stroke:#fbb03b;}.cls-3,.cls-5,.cls-6{stroke-linecap:round;}.cls-4,.cls-5{fill:#f7931e;}.cls-6{stroke:#f7931e;stroke-linejoin:round;}</style></defs><title>time</title><circle class="cls-1" cx="104" cy="98.5" r="61.5"/><circle class="cls-2" cx="104.21" cy="96.86" r="52.14"/><path class="cls-3" d="M107.5,144c-28.8,0-51-22.2-51-51"/><rect class="cls-1" x="95.5" y="24" width="16" height="16"/><rect class="cls-1" x="77.5" y="32" width="15" height="8" rx="4" transform="translate(74.38 127.7) rotate(-106.35)"/><rect class="cls-1" x="114.5" y="32" width="15" height="8" rx="4" transform="translate(52.37 142.45) rotate(-73.25)"/><circle class="cls-4" cx="104.5" cy="97" r="6"/><circle class="cls-1" cx="104.5" cy="97" r="3"/><line class="cls-5" x1="104.5" y1="63" x2="104.5" y2="92"/><polygon class="cls-6" points="104.67 56.9 106.58 59.95 108.5 63 104.67 63 100.83 63 102.75 59.95 104.67 56.9"/><line class="cls-5" x1="82.01" y1="95.41" x2="99.5" y2="96.52"/><polygon class="cls-6" points="78.34 95.08 80.25 94.04 82.16 93 82.02 95.31 81.87 97.62 80.1 96.35 78.34 95.08"/></svg>
