<svg id="Layer_1" data-name="Layer 1" xmlns="http://www.w3.org/2000/svg" xmlns:xlink="http://www.w3.org/1999/xlink" viewBox="0 0 1920 1080"><defs><style>.cls-1{fill:#009245;}.cls-2{fill:#b3b3b3;}.cls-3{fill:#e6e6e6;}.cls-4{fill:#ccc;}</style></defs><title>Artboard 1 copy 2</title><rect class="cls-1" y="2" width="1920" height="1080"/><rect class="cls-2" x="208" y="128" width="1452" height="881" rx="329.04"/><rect class="cls-3" x="234" y="108" width="1452" height="881" rx="329.04"/><image width="1496" height="273" transform="translate(212 106)" xlink:href="Artboard%201%20copy%2021.png"/><path class="cls-3" d="M1765,1081.5A155.5,155.5,0,0,1,1920.5,926l-1,155.5Z"/><path class="cls-3" d="M156,1081.5A155.5,155.5,0,0,0,.5,926l1,155.5Z"/><path class="cls-3" d="M156,2.5A155.5,155.5,0,0,1,.5,158L1.5,2.5Z"/><path class="cls-3" d="M1765,2.5A155.5,155.5,0,0,0,1920.5,158l-1-155.5Z"/><path class="cls-4" d="M437.54,867.45,596,968H516c-35.84-3.28-83.37-35.19-115.16-52.06L400,916a283.65,283.65,0,0,1-84.14-68.67h0A268.4,268.4,0,0,1,261.27,739h0A467.72,467.72,0,0,1,248,628.4V539.67q0-15.17,1.08-30.31L258,384.5l36,215.07q2,11.92,5.1,23.62h0C326,750.5,347.41,799.39,404,845.5Z"/><path d="M625.31,486.23q2,.93,4.19,2.11a18.18,18.18,0,0,1,3.9,2.91,14,14,0,0,1,4.19,9.83,17.31,17.31,0,0,1-1.52,8.28,17,17,0,0,1-4.85,6.08,22.91,22.91,0,0,1-7.49,3.82,36.37,36.37,0,0,1-9.37,1.56,32.17,32.17,0,0,1-4.76-.24,37,37,0,0,1-4.81-.89,40.62,40.62,0,0,1-4.62-1.42c-1.5-.54-2.91-1.13-4.23-1.74l5-14.13q1,.41,2.37,1a31.14,31.14,0,0,0,3,1.16c1.06.35,2.16.66,3.3.92a12.24,12.24,0,0,0,3.37.33,12,12,0,0,0,4.12-.85,2.4,2.4,0,0,0,1.62-2.45,2,2,0,0,0-1.15-1.71,23.53,23.53,0,0,0-2.61-1.19l-2.61-.73a27.26,27.26,0,0,1-3.46-1.25,32.12,32.12,0,0,1-3.73-1.91,16.58,16.58,0,0,1-3.43-2.71,14.05,14.05,0,0,1-2.58-3.66,11.48,11.48,0,0,1-1.09-4.79,17.58,17.58,0,0,1,1.59-8.22,18.35,18.35,0,0,1,4.68-6.13,21,21,0,0,1,6.93-3.9,30.13,30.13,0,0,1,8.45-1.55,41.37,41.37,0,0,1,8.25.43,33.84,33.84,0,0,1,7.66,2.08l-3.9,15.25c-1.76-.75-3.36-1.38-4.82-1.89a26.39,26.39,0,0,0-5.08-1.15,15.65,15.65,0,0,0-2.31-.13,13.35,13.35,0,0,0-2.74.29,6.86,6.86,0,0,0-2.34,1,2.25,2.25,0,0,0-1,1.85.9.9,0,0,0,.49.82,4.16,4.16,0,0,0,1.19.47c.46.11.93.19,1.42.26l1.18.17c1.28.26,2.64.57,4.1.92A19.64,19.64,0,0,1,625.31,486.23Z"/><path d="M677.58,496.66a20.4,20.4,0,0,1-.43,8.48,19,19,0,0,1-3.49,6.93,19.57,19.57,0,0,1-6,4.95,23,23,0,0,1-8,2.54,24.54,24.54,0,0,1-8.45-.26,19.57,19.57,0,0,1-7.19-3.07,18.8,18.8,0,0,1-5.28-5.68,20.27,20.27,0,0,1-2.71-8,20.58,20.58,0,0,1,.43-8.48,19,19,0,0,1,9.51-11.94,22.94,22.94,0,0,1,8-2.54,24.3,24.3,0,0,1,8.41.26,19.57,19.57,0,0,1,7.16,3.07,18.57,18.57,0,0,1,5.28,5.71A21.23,21.23,0,0,1,677.58,496.66Zm-27.72,5.61a5.74,5.74,0,0,0,3.57,3.37,7.85,7.85,0,0,0,5.54-.53,8,8,0,0,0,4.19-3.6,5.6,5.6,0,0,0,.1-4.85,5.87,5.87,0,0,0-3.56-3.33,7.49,7.49,0,0,0-5.48.49,8,8,0,0,0-4.26,3.63A5.54,5.54,0,0,0,649.86,502.27Z"/><path d="M701.08,513.56H701a9.08,9.08,0,0,1-4.13,5.14,13.51,13.51,0,0,1-6.57,1.52,11.12,11.12,0,0,1-8-2.94q-3.06-2.92-3.06-8.54V481l14.71-1.19-.39,24.42a2.77,2.77,0,0,0,.69,2.28,3.41,3.41,0,0,0,2.34.69,3.34,3.34,0,0,0,2.15-.66,2.58,2.58,0,0,0,.76-2.24L699,481l15.18-1.19-1,39.27-12.14.53Z"/><path d="M731.77,485.44H732a12.24,12.24,0,0,1,4.46-4,11.7,11.7,0,0,1,5-1.05,11.37,11.37,0,0,1,4.88,1,10,10,0,0,1,3.57,2.77,12.75,12.75,0,0,1,2.21,4.16,17,17,0,0,1,.76,5.15V519l-14.26,1.19.2-24a2.3,2.3,0,0,0-.89-2,3.46,3.46,0,0,0-2.28-.79,3.72,3.72,0,0,0-2.28.76,2.45,2.45,0,0,0-1,2.08l.26,23.82-14-1L718,481.48l13.73-1.12Z"/><path d="M794.93,518.9l-12.94.86V516h-.13a9,9,0,0,1-4.32,3.07A16.81,16.81,0,0,1,772,520a16.25,16.25,0,0,1-6.5-1.35,17.1,17.1,0,0,1-5.58-3.89,18.92,18.92,0,0,1-3.9-6.24,22.93,22.93,0,0,1-1.45-8.38,25.56,25.56,0,0,1,1.22-8,20.06,20.06,0,0,1,3.53-6.53,16.51,16.51,0,0,1,5.71-4.42,17.83,17.83,0,0,1,7.76-1.62,16,16,0,0,1,4.22.56,9.07,9.07,0,0,1,3.57,1.88l-.6-15.7,15.18-1.19Zm-18.28-13.07a7.3,7.3,0,0,0,2.44-1.42,6.75,6.75,0,0,0,1.55-2,5.72,5.72,0,0,0,.63-2.27,6.05,6.05,0,0,0-.33-2.31,5.57,5.57,0,0,0-1.23-1.92,6,6,0,0,0-1.94-1.35,6.83,6.83,0,0,0-2.48-.56,7.25,7.25,0,0,0-2.8.46,7.06,7.06,0,0,0-2.51,1.45,7.33,7.33,0,0,0-1.55,2,5.75,5.75,0,0,0-.3,4.58,5.2,5.2,0,0,0,1.22,2,6.33,6.33,0,0,0,1.95,1.32,6.43,6.43,0,0,0,2.48.53A8,8,0,0,0,776.65,505.83Z"/><path d="M856.44,514.48a28.22,28.22,0,0,1-8.25,4.19,33.27,33.27,0,0,1-9.7,1.29,21.27,21.27,0,0,1-8.22-1.55,20.37,20.37,0,0,1-6.44-4.19,19,19,0,0,1-4.22-6.18,18.78,18.78,0,0,1-1.52-7.49,23.22,23.22,0,0,1,1.59-8.84,19.44,19.44,0,0,1,4.29-6.6,18.39,18.39,0,0,1,6.3-4.13,20.88,20.88,0,0,1,7.69-1.41,19.6,19.6,0,0,1,11.45,3.36,20.44,20.44,0,0,1,7.23,9L836.9,506.76a5.43,5.43,0,0,0,1.92.53c.79.08,1.51.13,2.17.13a11,11,0,0,0,5.12-1.09,19,19,0,0,0,3.79-2.61Zm-14.13-21.65a4.72,4.72,0,0,0-2-1.52,7.28,7.28,0,0,0-2.47-.39,5.22,5.22,0,0,0-2.41.56,5.76,5.76,0,0,0-1.88,1.52,7.22,7.22,0,0,0-1.65,4.58,6,6,0,0,0,.16,1.69,7.2,7.2,0,0,0,.43,1Z"/><path d="M861.92,492.7h-4.56l2.11-11.35h2.45a21.16,21.16,0,0,1,.92-6.47,12.76,12.76,0,0,1,2.81-4.92,12.63,12.63,0,0,1,4.78-3.13,19.22,19.22,0,0,1,6.93-1.12,11.07,11.07,0,0,1,2,.16c.6.11,1.22.21,1.88.3L883,477.12h-2.24a4.59,4.59,0,0,0-3.34,1.13,4.1,4.1,0,0,0-1.15,3.1h5.67V492.7h-5.67l.39,26.14L861.85,520Z"/><path d="M889.37,492.7h-4.55l2.11-11.35h2.44a21.47,21.47,0,0,1,.92-6.47A12.89,12.89,0,0,1,893.1,470a12.71,12.71,0,0,1,4.78-3.13,19.23,19.23,0,0,1,6.94-1.12,11.22,11.22,0,0,1,2,.16c.59.11,1.22.21,1.88.3l1.72,10.95h-2.25a4.58,4.58,0,0,0-3.33,1.13,4.11,4.11,0,0,0-1.16,3.1h5.68V492.7h-5.68l.4,26.14L889.3,520Z"/><path d="M949.1,514.48a28,28,0,0,1-8.25,4.19,33.27,33.27,0,0,1-9.7,1.29,21.3,21.3,0,0,1-8.22-1.55,20.32,20.32,0,0,1-6.43-4.19,19,19,0,0,1-5.75-13.67,23.22,23.22,0,0,1,1.59-8.84,19.44,19.44,0,0,1,4.29-6.6,18.39,18.39,0,0,1,6.3-4.13,20.88,20.88,0,0,1,7.69-1.41,19.6,19.6,0,0,1,11.45,3.36,20.38,20.38,0,0,1,7.23,9l-19.74,14.85a5.43,5.43,0,0,0,1.92.53c.79.08,1.52.13,2.18.13a11,11,0,0,0,5.11-1.09,19.39,19.39,0,0,0,3.8-2.61ZM935,492.83a4.81,4.81,0,0,0-2-1.52,7.28,7.28,0,0,0-2.47-.39,5.25,5.25,0,0,0-2.41.56A5.87,5.87,0,0,0,926.2,493a7.22,7.22,0,0,0-1.65,4.58,6,6,0,0,0,.16,1.69,8.6,8.6,0,0,0,.43,1Z"/><path d="M981.47,517.09a22.9,22.9,0,0,1-7.88,2.37,34.09,34.09,0,0,1-4,.23,22.15,22.15,0,0,1-8.29-1.51,20.5,20.5,0,0,1-6.6-4.2,19.35,19.35,0,0,1-4.39-6.27,19.08,19.08,0,0,1-1.58-7.75,21.88,21.88,0,0,1,1.65-8.68,18.55,18.55,0,0,1,4.59-6.53,20.07,20.07,0,0,1,7-4.1,26.17,26.17,0,0,1,8.71-1.41,20.2,20.2,0,0,1,8.15,1.51,38.44,38.44,0,0,1,5.84,3.11L976,495.27a7.87,7.87,0,0,0-2.14-1.18,12.29,12.29,0,0,0-2.48-.66,11.05,11.05,0,0,0-2.41-.14,4.47,4.47,0,0,0-1.88.47,8.65,8.65,0,0,0-2.14,1.55,6.75,6.75,0,0,0-1.39,1.94,5,5,0,0,0-.46,2.28,5.6,5.6,0,0,0,.69,2.48,5.68,5.68,0,0,0,3.76,3.23,7.47,7.47,0,0,0,5.15-.73L976,502.8l9,11.88A16.85,16.85,0,0,1,981.47,517.09Z"/><path d="M1003.78,520c-.64,0-1.33,0-2.08,0q-6.33,0-9.87-2.87t-3.53-9.34V492.17l-3.63.07.4-11.42h3.1v-4.36l14.32-6.46v10.82l5.35-.79-.73,12.14h-4.48v11.55a4.29,4.29,0,0,0,.56,2.64c.37.44,1.22.66,2.54.66a12.67,12.67,0,0,0,1.38-.06,6.66,6.66,0,0,0,1-.2l-2.31,13.07C1005.09,519.91,1004.42,520,1003.78,520Z"/><path d="M1013.09,507.15a22,22,0,0,0,3.92.33l2,0a11.15,11.15,0,0,0,1.85-.2,3.45,3.45,0,0,0,1.38-.56,1.35,1.35,0,0,0,.57-1.19,1.59,1.59,0,0,0-1-1.48,18.51,18.51,0,0,0-2.51-1c-1-.31-2.07-.67-3.26-1.09a10.42,10.42,0,0,1-3.27-1.85,9.8,9.8,0,0,1-2.51-3.26,12.06,12.06,0,0,1-1-5.35,11.36,11.36,0,0,1,.86-4.29,10.36,10.36,0,0,1,2.77-3.83,14.46,14.46,0,0,1,5-2.77,22.54,22.54,0,0,1,7.33-1.05c1.1,0,2.19,0,3.3.13s2.14.21,3.13.36l2.74.46c.84.16,1.54.3,2.11.43v11.62c-1.1-.27-2.18-.49-3.23-.66a20.48,20.48,0,0,0-3.43-.27l-1.26,0a11.07,11.07,0,0,0-1.71.2,4.44,4.44,0,0,0-1.52.56,1.18,1.18,0,0,0-.66,1.05,1.7,1.7,0,0,0,1,1.59,17.14,17.14,0,0,0,2.61,1c1,.3,2.17.68,3.4,1.12a11.93,11.93,0,0,1,3.4,1.88,9.83,9.83,0,0,1,2.61,3.27,11.69,11.69,0,0,1,1.05,5.34,10.67,10.67,0,0,1-1.55,5.94,11.49,11.49,0,0,1-4.09,3.8,19,19,0,0,1-5.84,2,38.36,38.36,0,0,1-6.87.59,44.27,44.27,0,0,1-5.44-.33,39.89,39.89,0,0,1-5.38-1.05V506.3A34.81,34.81,0,0,0,1013.09,507.15Z"/><path d="M870.23,595.23l16.17,20.39L902,599.52,918.15,644l-15.91,13-7.19-21.45-9,15.71-10.82-16.63-6.41,19.54-15.37-10Z"/><path d="M938.47,646.51h-.13a9.05,9.05,0,0,1-4.12,5.15,13.62,13.62,0,0,1-6.57,1.52,11.12,11.12,0,0,1-8-2.94q-3.07-2.94-3.07-8.55V614l14.72-1.19-.4,24.42a2.79,2.79,0,0,0,.7,2.28,3.37,3.37,0,0,0,2.34.69,3.31,3.31,0,0,0,2.14-.66,2.54,2.54,0,0,0,.76-2.24l-.39-23.3,15.18-1.19-1,39.27-12.15.53Z"/><path d="M958.11,640.11a22,22,0,0,0,3.93.33c.61,0,1.26,0,1.94,0a11.21,11.21,0,0,0,1.85-.19,3.72,3.72,0,0,0,1.39-.56,1.38,1.38,0,0,0,.56-1.19,1.59,1.59,0,0,0-1-1.49,17.18,17.18,0,0,0-2.5-1c-1-.31-2.08-.68-3.27-1.09a10.83,10.83,0,0,1-3.27-1.85,10,10,0,0,1-2.51-3.27,12,12,0,0,1-1-5.34,11.29,11.29,0,0,1,.86-4.29,10.28,10.28,0,0,1,2.77-3.83,14.32,14.32,0,0,1,5-2.77,22.25,22.25,0,0,1,7.33-1.06c1.1,0,2.2,0,3.3.13s2.14.21,3.13.36,1.9.31,2.74.47,1.54.29,2.11.43v11.61c-1.1-.26-2.17-.48-3.23-.66a21.64,21.64,0,0,0-3.43-.26l-1.26,0a11.07,11.07,0,0,0-1.71.2,4.44,4.44,0,0,0-1.52.56,1.19,1.19,0,0,0-.66,1.06,1.68,1.68,0,0,0,1.06,1.58,16.59,16.59,0,0,0,2.6,1c1,.31,2.17.68,3.4,1.12A12,12,0,0,1,980,632a10,10,0,0,1,2.61,3.27,11.73,11.73,0,0,1,1,5.35,10.63,10.63,0,0,1-1.55,5.94,11.55,11.55,0,0,1-4.09,3.79,18.39,18.39,0,0,1-5.84,2,38.35,38.35,0,0,1-6.87.6,44.39,44.39,0,0,1-5.44-.33,38.44,38.44,0,0,1-5.38-1.06V639.25A34.86,34.86,0,0,0,958.11,640.11Z"/><path d="M985.6,598.2l15.11-.66-.79,11.61-14.39,1.06Zm.06,16.7,14.72-1.19-.73,38.08-14,1.19Z"/><path d="M1035.39,650a22.4,22.4,0,0,1-3.86,1.55,23.15,23.15,0,0,1-4,.83,36.45,36.45,0,0,1-4,.23,22.15,22.15,0,0,1-8.29-1.52,20.48,20.48,0,0,1-6.6-4.19,19.35,19.35,0,0,1-4.39-6.27,19.13,19.13,0,0,1-1.58-7.76,21.91,21.91,0,0,1,1.65-8.68,18.55,18.55,0,0,1,4.59-6.53,20.05,20.05,0,0,1,7-4.09,25.92,25.92,0,0,1,8.71-1.42,20.19,20.19,0,0,1,8.15,1.52,37.59,37.59,0,0,1,5.84,3.1l-8.71,11.42a7.89,7.89,0,0,0-2.14-1.19,12.29,12.29,0,0,0-2.48-.66,11,11,0,0,0-2.41-.13,4.48,4.48,0,0,0-1.88.46,8.92,8.92,0,0,0-2.14,1.55,6.65,6.65,0,0,0-1.39,2,5,5,0,0,0-.46,2.27,5.6,5.6,0,0,0,.69,2.48,5.66,5.66,0,0,0,3.76,3.23,7.46,7.46,0,0,0,5.15-.72l3.37-1.72,9,11.88A16.85,16.85,0,0,1,1035.39,650Z"/><path d="M629.73,731.53l25.21,20.92.6-21.85,19.67,1.32-3,50.36-25.28-12.6.93,15.57-19,1.19Z"/><path d="M717.78,762.61a20.73,20.73,0,0,1-.43,8.48A18.91,18.91,0,0,1,707.84,783a23.23,23.23,0,0,1-8,2.55,24.73,24.73,0,0,1-8.44-.27,19.38,19.38,0,0,1-7.2-3.07,18.65,18.65,0,0,1-5.28-5.67,20.16,20.16,0,0,1-2.7-8,20.57,20.57,0,0,1,.42-8.48,19.65,19.65,0,0,1,3.5-7,19.38,19.38,0,0,1,6-5,23.22,23.22,0,0,1,8-2.54,24.3,24.3,0,0,1,8.41.26,19.74,19.74,0,0,1,7.16,3.07,18.68,18.68,0,0,1,5.28,5.71A21.48,21.48,0,0,1,717.78,762.61Zm-27.73,5.61a5.74,5.74,0,0,0,3.57,3.37,7.8,7.8,0,0,0,5.54-.53,8,8,0,0,0,4.19-3.6,5.56,5.56,0,0,0,.1-4.85,5.85,5.85,0,0,0-3.56-3.33,7.5,7.5,0,0,0-5.48.5,8,8,0,0,0-4.26,3.63A5.51,5.51,0,0,0,690.05,768.22Z"/><path d="M737.08,785.94c-.64,0-1.33,0-2.08,0q-6.33,0-9.87-2.87t-3.53-9.34V758.12l-3.63.07.4-11.42h3.1v-4.35L735.79,736v10.82l5.35-.79-.73,12.14h-4.49v11.56a4.36,4.36,0,0,0,.56,2.64A3.45,3.45,0,0,0,739,773a12.29,12.29,0,0,0,1.38-.07,6,6,0,0,0,1-.2l-2.31,13.07C738.39,785.87,737.72,785.92,737.08,785.94Z"/><path d="M744.44,731.2l15.11-.66-.79,11.61-14.39,1.06Zm.06,16.7,14.72-1.19-.72,38.08-14,1.19Z"/><path d="M767.34,758.65h-4.55l2.11-11.35h2.44a21.52,21.52,0,0,1,.92-6.47,12.22,12.22,0,0,1,7.59-8.05,19.22,19.22,0,0,1,6.93-1.12,11.26,11.26,0,0,1,2,.16c.59.11,1.22.21,1.88.3l1.71,11h-2.24a4.56,4.56,0,0,0-3.33,1.12,4.09,4.09,0,0,0-1.16,3.1h5.68v11.35h-5.68l.4,26.14L767.27,786Z"/><path d="M792,731.2l15.12-.66-.8,11.61L792,743.21Zm.07,16.7,14.72-1.19-.73,38.08-14,1.19Z"/><path d="M841.82,783a22.72,22.72,0,0,1-3.86,1.55,23.26,23.26,0,0,1-4,.83,36.16,36.16,0,0,1-4,.23,22.13,22.13,0,0,1-8.28-1.52,20.48,20.48,0,0,1-6.6-4.19,19.35,19.35,0,0,1-4.39-6.27,19,19,0,0,1-1.58-7.76,21.91,21.91,0,0,1,1.65-8.68,18.4,18.4,0,0,1,4.58-6.53,20.15,20.15,0,0,1,7-4.09,26,26,0,0,1,8.72-1.42,20.23,20.23,0,0,1,8.15,1.52,37.59,37.59,0,0,1,5.84,3.1l-8.71,11.42a8,8,0,0,0-2.15-1.19,12.2,12.2,0,0,0-2.47-.66,11.06,11.06,0,0,0-2.41-.13,4.44,4.44,0,0,0-1.88.46,9,9,0,0,0-2.15,1.55,6.81,6.81,0,0,0-1.38,2,5,5,0,0,0-.47,2.27,5.75,5.75,0,0,0,.7,2.48,5.64,5.64,0,0,0,3.76,3.23,7.47,7.47,0,0,0,5.15-.72l3.36-1.72,9,11.88A17.12,17.12,0,0,1,841.82,783Z"/><path d="M867.46,780.83h-.13a9.42,9.42,0,0,1-4.52,3.5,17.29,17.29,0,0,1-5.91,1,13.31,13.31,0,0,1-5-1,12.4,12.4,0,0,1-4.16-2.74,13.36,13.36,0,0,1-2.83-4.29,14.2,14.2,0,0,1-1.06-5.61,11.62,11.62,0,0,1,1.06-5,12.43,12.43,0,0,1,2.87-4,13.34,13.34,0,0,1,4.29-2.64,14.74,14.74,0,0,1,5.38-1,13,13,0,0,1,5.11.89,16.46,16.46,0,0,1,3.53,2v-2q0-3-2-4a11.5,11.5,0,0,0-5.14-1,23.88,23.88,0,0,0-5.42.59q-2.5.6-5.08,1.39L851,746.58a37.13,37.13,0,0,1,6.59-1.29,67.22,67.22,0,0,1,7-.36,26.89,26.89,0,0,1,6.34.75,15.32,15.32,0,0,1,5.44,2.48,12.36,12.36,0,0,1,3.73,4.42,14.11,14.11,0,0,1,1.32,6.67l-.73,25-13.26,1.12Zm-8.38-12.21a7.29,7.29,0,0,0-3.7,1.55,3,3,0,0,0-1.25,2.74,3,3,0,0,0,1.88,2.28,7.34,7.34,0,0,0,4.19.36A6.68,6.68,0,0,0,864,773.9a3,3,0,0,0,1-2.71,3.17,3.17,0,0,0-1.69-2.14A6.21,6.21,0,0,0,859.08,768.62Z"/><path d="M903.92,785.94c-.63,0-1.33,0-2.07,0q-6.35,0-9.87-2.87t-3.53-9.34V758.12l-3.63.07.39-11.42h3.1v-4.35L902.64,736v10.82L908,746l-.72,12.14h-4.49v11.56a4.36,4.36,0,0,0,.56,2.64c.37.44,1.22.66,2.54.66a12.63,12.63,0,0,0,1.39-.07,6,6,0,0,0,1-.2l-2.31,13.07C905.23,785.87,904.56,785.92,903.92,785.94Z"/><path d="M911.28,731.2l15.12-.66-.8,11.61-14.38,1.06Zm.07,16.7,14.72-1.19-.73,38.08-14,1.19Z"/><path d="M970,762.61a20.73,20.73,0,0,1-.43,8.48A18.91,18.91,0,0,1,960,783a23.23,23.23,0,0,1-8,2.55,24.73,24.73,0,0,1-8.44-.27,19.38,19.38,0,0,1-7.2-3.07,18.65,18.65,0,0,1-5.28-5.67,20.16,20.16,0,0,1-2.7-8,20.57,20.57,0,0,1,.42-8.48,19.65,19.65,0,0,1,3.5-7,19.38,19.38,0,0,1,6-5,23.22,23.22,0,0,1,8-2.54,24.29,24.29,0,0,1,8.41.26,19.74,19.74,0,0,1,7.16,3.07,18.44,18.44,0,0,1,5.28,5.71A21.3,21.3,0,0,1,970,762.61Zm-27.72,5.61a5.7,5.7,0,0,0,3.56,3.37,7.79,7.79,0,0,0,5.54-.53,8.05,8.05,0,0,0,4.2-3.6,5.6,5.6,0,0,0,.09-4.85,5.85,5.85,0,0,0-3.56-3.33,7.5,7.5,0,0,0-5.48.5,8,8,0,0,0-4.26,3.63A5.48,5.48,0,0,0,942.24,768.22Z"/><path d="M985.13,751.39h.27a12.17,12.17,0,0,1,4.45-4,11.63,11.63,0,0,1,5-1.06,11.37,11.37,0,0,1,4.88,1,10.13,10.13,0,0,1,3.57,2.77,12.85,12.85,0,0,1,2.21,4.16,17.05,17.05,0,0,1,.75,5.15v25.54L992,786.11l.2-24a2.29,2.29,0,0,0-.89-2,3.47,3.47,0,0,0-2.28-.8,3.77,3.77,0,0,0-2.28.76,2.46,2.46,0,0,0-1,2.08L986,786l-14-1-.53-37.56,13.72-1.12Z"/><path d="M1013.09,773.11a21.8,21.8,0,0,0,3.92.33c.62,0,1.27,0,2,0a11.21,11.21,0,0,0,1.85-.19,3.61,3.61,0,0,0,1.38-.56,1.35,1.35,0,0,0,.56-1.19,1.59,1.59,0,0,0-1-1.49,17.34,17.34,0,0,0-2.51-1c-1-.31-2.08-.68-3.26-1.09a10.83,10.83,0,0,1-3.27-1.85,9.84,9.84,0,0,1-2.51-3.27,12,12,0,0,1-1-5.34,11.1,11.1,0,0,1,.86-4.29,10.28,10.28,0,0,1,2.77-3.83,14.14,14.14,0,0,1,5-2.77,22.19,22.19,0,0,1,7.32-1.06c1.1,0,2.2,0,3.3.13s2.15.21,3.14.36,1.9.31,2.74.47,1.54.29,2.11.43v11.61c-1.1-.26-2.18-.48-3.23-.66a21.67,21.67,0,0,0-3.44-.26l-1.25,0a11.34,11.34,0,0,0-1.72.2,4.46,4.46,0,0,0-1.51.56,1.19,1.19,0,0,0-.66,1.06,1.69,1.69,0,0,0,1,1.58,17.14,17.14,0,0,0,2.61,1c1,.31,2.17.68,3.4,1.12A12.18,12.18,0,0,1,1035,765a9.88,9.88,0,0,1,2.6,3.27,11.59,11.59,0,0,1,1.06,5.35,10.71,10.71,0,0,1-1.55,5.94,11.55,11.55,0,0,1-4.09,3.79,18.48,18.48,0,0,1-5.84,2,38.35,38.35,0,0,1-6.87.6,44.27,44.27,0,0,1-5.44-.33,38.44,38.44,0,0,1-5.38-1.06V772.25A34.86,34.86,0,0,0,1013.09,773.11Z"/></svg>