<svg id="Layer_1" data-name="Layer 1" xmlns="http://www.w3.org/2000/svg" viewBox="0 0 1920 1080"><defs><style>.cls-1{opacity:0.51;}.cls-2{fill:#ff5eac;}.cls-18,.cls-19,.cls-22,.cls-3,.cls-52{fill:#fff;}.cls-14,.cls-24,.cls-34,.cls-4,.cls-40,.cls-45,.cls-46,.cls-47,.cls-49,.cls-50,.cls-53,.cls-54,.cls-56,.cls-57,.cls-6,.cls-8,.cls-9{fill:none;}.cls-10,.cls-11,.cls-14,.cls-21,.cls-22,.cls-24,.cls-4,.cls-41,.cls-45,.cls-46,.cls-52,.cls-57{stroke:#000;}.cls-10,.cls-11,.cls-14,.cls-18,.cls-19,.cls-37,.cls-4,.cls-40,.cls-41,.cls-45,.cls-46,.cls-47,.cls-50,.cls-52,.cls-53,.cls-54,.cls-55,.cls-57,.cls-6,.cls-8,.cls-9{stroke-miterlimit:10;}.cls-22,.cls-26,.cls-27,.cls-33,.cls-34,.cls-4,.cls-45,.cls-53,.cls-54,.cls-55,.cls-56{stroke-width:2px;}.cls-4{opacity:0.49;}.cls-18,.cls-42,.cls-5,.cls-8,.cls-9{opacity:0.55;}.cls-6,.cls-8,.cls-9{stroke:#0027c9;}.cls-57,.cls-6,.cls-8{stroke-width:10px;}.cls-7{fill:#b3b3b3;}.cls-10,.cls-14,.cls-9{stroke-width:7px;}.cls-10,.cls-11{fill:#749fff;}.cls-10,.cls-11,.cls-12,.cls-14{opacity:0.38;}.cls-11{stroke-width:6px;}.cls-13{fill:gray;}.cls-15,.cls-17{fill:#ff1d25;}.cls-15{opacity:0.91;}.cls-16{fill:red;}.cls-18{stroke:#fff;}.cls-19{stroke:#ccc;}.cls-20,.cls-38{fill:#ff931e;}.cls-20{opacity:0.62;}.cls-21,.cls-22,.cls-24,.cls-26,.cls-31,.cls-54,.cls-55,.cls-56{stroke-linecap:round;}.cls-21,.cls-22,.cls-24,.cls-31,.cls-33,.cls-34,.cls-56{stroke-linejoin:round;}.cls-21{stroke-width:4px;}.cls-23{fill:#1b1464;}.cls-24{stroke-width:34px;}.cls-25{fill:#f1d0a5;}.cls-26{fill:#060002;}.cls-26,.cls-27{stroke:#534741;}.cls-27,.cls-29{fill:#534741;}.cls-28{fill:#736357;}.cls-30{fill:#8c6239;}.cls-31{fill:#c1612d;stroke:#f15a24;}.cls-32{fill:#c69c6d;}.cls-33,.cls-36{fill:#e6e6e6;}.cls-33,.cls-34{stroke:#e6e6e6;}.cls-35{fill:#009245;}.cls-37{fill:#006837;stroke:#006837;}.cls-39{fill:#ffd950;}.cls-40,.cls-53,.cls-55{stroke:#ff931e;}.cls-40{stroke-width:8px;}.cls-41{stroke-width:0.5px;}.cls-42,.cls-43{fill:#0027c9;}.cls-44{fill:#ffc62a;}.cls-47{stroke:#0aff48;}.cls-48,.cls-55{fill:#f7931e;}.cls-50{stroke:#b90086;}.cls-51{fill:#1b147d;}.cls-52{stroke-width:5px;}.cls-54{stroke:#fbb03b;}.cls-56{stroke:#f7931e;}</style></defs><title>Artboard 1</title><g class="cls-1"><rect class="cls-2" x="3" y="445" width="1919" height="638"/></g><rect class="cls-3" x="1" y="651" width="1435" height="428"/><path d="M1435,652v426H2V652H1435m2-2H0v430H1437V650Z"/><polyline class="cls-4" points="1438 649.5 0 650 1 552.19"/><g class="cls-5"><line class="cls-6" x1="309" y1="650" x2="311" y2="1086"/></g><g class="cls-5"><polyline class="cls-6" points="1396 615 -1 611 -2 650 1437 650"/><polyline class="cls-7" points="1396 615 -1 611 -2 650 1437 650"/></g><line class="cls-8" x1="684" y1="650" x2="686" y2="1080"/><line class="cls-8" x1="1062" y1="650" x2="1060" y2="1080"/><line class="cls-9" x1="1391.5" y1="611.5" x2="1437" y2="650"/><line class="cls-8" x1="1437" y1="650" x2="1437" y2="1080"/><circle class="cls-10" cx="100" cy="865" r="77.5"/><circle class="cls-10" cx="493.5" cy="862.5" r="77.5"/><circle class="cls-10" cx="873.5" cy="864.5" r="77.5"/><circle class="cls-11" cx="1247.5" cy="862.5" r="77.5"/><g class="cls-12"><path d="M179.13,999.82a1.5,1.5,0,0,0,0-3,1.5,1.5,0,0,0,0,3Z"/></g><g class="cls-12"><path d="M120.8,999.82a1.5,1.5,0,0,0,0-3,1.5,1.5,0,0,0,0,3Z"/></g><g class="cls-12"><path d="M116.31,999.82a1.5,1.5,0,0,0,0-3,1.5,1.5,0,0,0,0,3Z"/></g><g class="cls-12"><path d="M116.31,999.82a1.5,1.5,0,0,0,0-3,1.5,1.5,0,0,0,0,3Z"/></g><rect class="cls-13" y="435" width="1920.5" height="14"/><circle class="cls-14" cx="99.5" cy="862.5" r="102"/><circle class="cls-14" cx="493.5" cy="865.5" r="102"/><circle class="cls-14" cx="873.5" cy="864.5" r="102"/><circle class="cls-14" cx="1247.5" cy="865.5" r="102"/><path class="cls-15" d="M1247,937a74,74,0,0,1-74-74Z"/><path class="cls-16" d="M1236.27,905.26c-3.51-8.44-12.91-12.56-19.25-19.14-2.81-2.93-5-6.36-7.71-9.41a41.33,41.33,0,0,0-35.39-13.46L1248.11,936a19.57,19.57,0,0,1-1.41-7.45,31.5,31.5,0,0,0,0-5.32,13.93,13.93,0,0,0-1-3.22,33.1,33.1,0,0,0-6.26-9.42c-1.37-1.44-3-3.15-2.56-5.09"/><path class="cls-17" d="M1237.57,904.5c-2.61-5.62-7.19-9.34-12-13.07a61.89,61.89,0,0,1-8.67-7.66c-2.64-3-4.81-6.35-7.56-9.23a43.19,43.19,0,0,0-35.43-12.79,1.53,1.53,0,0,0-1.06,2.57L1237.77,928l9.28,9.1c1,1,3,0,2.51-1.46-1.92-5.37-.4-10.93-2.56-16.17a31.65,31.65,0,0,0-3.74-6.48c-1.66-2.25-4.91-4.58-5-7.45,0-1.93-3-1.93-3,0,.07,4.94,5.28,8.29,7.57,12.36,3.33,5.91,1.56,12.31,3.78,18.54l2.51-1.46-64.9-63.64-9.28-9.1-1.07,2.56a40.46,40.46,0,0,1,35.45,14.35c4.22,5.07,8,9.71,13.23,13.79,4.86,3.79,9.72,7.39,12.38,13.13.81,1.75,3.39.22,2.59-1.52Z"/><path class="cls-18" d="M1248.5,935.9c42,0,74-34.59,74-76.4l-33,12-35,24-15,15,6,7,3,7v11.4Z"/><rect class="cls-19" x="1349.5" y="278.5" width="204" height="78"/><rect class="cls-19" x="1622.5" y="50.5" width="204" height="78"/><rect class="cls-19" x="1068.5" y="104.5" width="204" height="78"/><rect class="cls-19" x="848.5" y="317.5" width="204" height="78"/><rect class="cls-19" x="533.5" y="89.5" width="204" height="78"/><rect class="cls-19" x="120.5" y="48.5" width="204" height="78"/><rect class="cls-19" x="144.5" y="296.5" width="204" height="78"/><path class="cls-20" d="M171,865c-.06,38.86-32,70.75-70.75,70.75-38.53,0-70.42-31.58-70.75-70.25L58.38,874a27.43,27.43,0,0,0,10.43,1L94.5,872.5l18.77-2.17a12.47,12.47,0,0,1,11.51,5.06h0a8.24,8.24,0,0,0,9.62,2.84l7.1-2.73Z"/><path d="M1841.7,566.89c.46.28.9.61,1.37.89,1.61,1-1.64-.81-1.18-.93s2.66,2.32,2.93,2.57c2.52,2.34,4.9,4.83,7.24,7.34,5.57,6,10.87,12.25,16.1,18.54,8.59,10.34,19.17,21,25,33,1.82,3.76,3.95,9.45,4.42,14.24,0-.16-.56,5.47-.18,3.68-.19.91-.42,1.82-.69,2.71s-.55,1.73-.87,2.58c.44-1,.47-1,.09-.16-3.16,7.47-6.73,14.85-10.15,22.21-8,17.27-16.68,34.26-25.52,51.12-9.21,17.57-18.62,35.07-28.76,52.12-8.9,15,14.43,28.56,23.31,13.62a1156.55,1156.55,0,0,0,54.28-103.23c3.52-7.57,7-15.18,10.42-22.81,5.73-12.9,6.12-25.45,1.49-38.84-5.9-17.09-18.21-30.43-29.48-44.21-6.12-7.47-12.32-14.9-18.83-22-5.18-5.66-10.69-11.76-17.34-15.73-15-8.94-28.54,14.39-13.62,23.31Z"/><path d="M1721.85,544.15c-5,4.65-9,10.46-13.12,15.84-5.4,7.07-10.59,14.31-15.7,21.59-9.56,13.63-19.22,27.37-27.59,41.77a118.34,118.34,0,0,0-13.8,35.54c-1.75,8.8-2.12,16.34,1.2,24.73,6.48,16.4,16.85,31.16,27.06,45.41,9.08,12.68,18.63,25,28.34,37.22,4.54,5.71,14.35,4.75,19.09,0,5.64-5.64,4.56-13.37,0-19.09q-4.12-5.17-8.19-10.4c-2.3-2.94,1.36,1.8-1.05-1.35l-3.45-4.52q-3.8-5-7.51-10.08c-9.7-13.25-19.46-26.84-26.84-41.54-.77-1.52-1.46-3.07-2.17-4.61,1.86,4-.15-.53-.48-1.59s-.42-2.09-.8-3l-.11-.55q.48,4,.29,2a9.41,9.41,0,0,0,0-1.85c.81-10.73,5.69-21.92,10.87-31.19,7.22-12.93,15.91-25.16,24.31-37.32,5.67-8.21,11.43-16.35,17.41-24.33.6-.81,1.21-1.61,1.82-2.42.39-.51.78-1,1.18-1.54l-.42.54c1.13-1.41,2.23-2.83,3.38-4.22a60.15,60.15,0,0,1,5.36-5.92c5.32-5,5-14.06,0-19.1a13.74,13.74,0,0,0-19.1,0Z"/><path class="cls-21" d="M1760.88,813.66h53a53.63,53.63,0,0,0,53.48-53.47V595.25c0-15.6-4.63-38.29-15.38-48.09-9.51-8.67-24.64-5.38-38.45-5.38h-52.64c-12.79,0-26.56-3.72-35.79,3.84-12,9.83-17.69,33-17.69,49.63V760.19A53.63,53.63,0,0,0,1760.88,813.66Z"/><path class="cls-22" d="M1841.89,556.73c4.66-7.21-1.34-16.1-10.83-16.05l-44.22.26-43.56.25c-9.78.06-15.86,9.3-11,16.67L1787.42,641Z"/><polygon class="cls-23" points="1771.23 616.37 1787.38 640.98 1802.76 616.37 1786.61 578.69 1771.23 616.37"/><path class="cls-24" d="M1835.05,741.71c-18.69,129.79,10.77,279.14,22.3,314.51"/><path class="cls-24" d="M1746.62,741.71c-18.69,129.79,10.77,279.14,22.3,314.51"/><circle class="cls-3" cx="1787.38" cy="680.19" r="5.38"/><circle class="cls-3" cx="1787.38" cy="718.64" r="5.38"/><circle class="cls-3" cx="1787.38" cy="761.7" r="5.38"/><polygon class="cls-23" points="1786.57 578.93 1771.6 565.87 1779.12 552.93 1794.09 552.98 1801.54 565.96 1786.57 578.93"/><rect class="cls-25" x="1767.77" y="496.02" width="38.45" height="58.44" rx="15.32" transform="translate(3573.98 1050.49) rotate(-180)"/><path class="cls-26" d="M1841.59,754.4a13.07,13.07,0,0,0,13.07,13.07c7.22,0,13.46-.85,13.46-8.07"/><path class="cls-26" d="M1732,752.86a13.07,13.07,0,0,1-13.07,13.07c-7.22,0-13.46-.85-13.46-8.07"/><rect class="cls-27" x="1722.01" y="629.44" width="33.07" height="5.38" transform="translate(3477.09 1264.26) rotate(-180)"/><path d="M1660.37,735.81a1.5,1.5,0,0,0,0-3,1.5,1.5,0,0,0,0,3Z"/><rect class="cls-3" x="1862.48" y="749.91" width="2.83" height="12.82" transform="translate(155.88 1818.78) rotate(-53.97)"/><path d="M1859.56,751.58l10.17,7.4-1.51,2.08-10.17-7.4,1.51-2.08m0-.35-1.81,2.49,10.57,7.69,1.81-2.49-10.57-7.69Z"/><rect class="cls-3" x="1701.38" y="750.29" width="12.82" height="2.83" transform="translate(95.34 1690.64) rotate(-53.97)"/><path d="M1710.44,745.87l2.09,1.51-7.4,10.17-2.08-1.52,7.39-10.16m0-.35-7.69,10.57,2.49,1.81,7.69-10.57-2.49-1.81Z"/><path class="cls-28" d="M1861.23,749.52a14.91,14.91,0,0,1-6.43,6.62"/><path class="cls-28" d="M1717.53,748.83a14.92,14.92,0,0,1-8.16-4.31"/><path class="cls-21" d="M1850.21,1069.27a5,5,0,0,0-.93.09c-5.16,1.06-10.71,1.54-15.88,3h-39.1a31.52,31.52,0,0,1,31.53-31.53h38.28a5.55,5.55,0,0,1,5.55,5.55v26h-13.84a3.6,3.6,0,0,0-3.7-3.6A3.66,3.66,0,0,0,1850.21,1069.27Z"/><path class="cls-21" d="M1763.31,1071.58a4.28,4.28,0,0,0-.92.09c-5.17,1.06-10.72,1.54-15.88,3H1707.4a31.53,31.53,0,0,1,31.53-31.52h38.28a5.54,5.54,0,0,1,5.55,5.54v26h-13.83a3.6,3.6,0,0,0-3.7-3.59A3.72,3.72,0,0,0,1763.31,1071.58Z"/><path class="cls-29" d="M1863.37,1037.7c-2.18,3.77-7.16,3.85-11.14,4.09-4.46.27-8.58-.5-12-3.62-1.41-1.31-3.54.81-2.12,2.12,4.17,3.87,9.38,4.89,14.95,4.42,5.11-.43,10.1-.73,12.85-5.49a1.5,1.5,0,0,0-2.59-1.52Z"/><path class="cls-29" d="M1775.71,1040c-2.18,3.77-7.16,3.85-11.14,4.09-4.46.26-8.58-.5-12-3.62-1.41-1.31-3.54.8-2.12,2.12,4.17,3.86,9.38,4.89,14.94,4.42,5.12-.44,10.1-.74,12.86-5.49a1.5,1.5,0,0,0-2.59-1.52Z"/><circle class="cls-30" cx="1818.9" cy="377.99" r="34.99"/><circle class="cls-30" cx="1784.3" cy="373.37" r="29.61"/><circle class="cls-30" cx="1857.35" cy="383.37" r="29.61"/><circle class="cls-30" cx="1747.39" cy="377.99" r="29.61"/><circle class="cls-30" cx="1726.24" cy="405.29" r="28.45"/><circle class="cls-30" cx="1775.46" cy="402.98" r="36.91"/><circle class="cls-30" cx="1834.28" cy="412.59" r="34.22"/><rect class="cls-30" x="1843.13" y="428.36" width="20.76" height="36.14" rx="8.27" transform="translate(3707.02 892.85) rotate(-180)"/><circle class="cls-30" cx="1873.12" cy="420.67" r="27.68"/><path class="cls-25" d="M1767.83,513.71h-19.29l-8.9-1.37a4.72,4.72,0,0,1-2-.8h0a27.84,27.84,0,0,1-9.86-12.44h0l-1.4-9.8c-.09-.64-.16-1.29-.21-1.94l-.56-7.87a27.34,27.34,0,0,1,0-3.84l.63-8.85.77-7.69.77-11.53.77-10v-3.84l7.69-1.54,6.92-3.84,6.15-4.62,6.92-7.69,1.54,6.15,3.08,4.62,3.07,3.07,4.62,3.08,4.61,2.31,6.15.77h6.15l6.16-.77,5.38-3.08,3.84-3.84,3.85-4.62,3.84-4.61,2.31,6.15,2.31,6.15,3.07,3.85,3.08,2.3,3.84,2.31,3.85,2.31,3.84.77h9.23l3.08-1.54,2.3-2.31v20H1860V443.73l2.31,1.54,3.85,1.54,4,.81a23.06,23.06,0,0,0,7.32.27l2.47-.31v9.78a10.69,10.69,0,0,1-.56,3.41h0a16.11,16.11,0,0,1-6.36,8.34h0l-6.15,3.08-5.39,1.53-7.49.69a2.7,2.7,0,0,0-1.66.77h0a2.92,2.92,0,0,0-.84,2.05v7.34a6.21,6.21,0,0,1-.66,2.77l-1.65,3.3-2.11,4.21a3.72,3.72,0,0,1-.49.75l-3.28,3.95a4.11,4.11,0,0,1-.6.58l-7.07,5.65a3.24,3.24,0,0,1-.63.41l-5.81,2.91-5.39,1.54-2.61,1a7.22,7.22,0,0,1-2.56.52l-12.51.27"/><rect x="1776.61" y="443.35" width="26.91" height="7.69" rx="3.06" transform="translate(3580.14 894.39) rotate(180)"/><rect x="1730.47" y="443.35" width="26.91" height="7.69" rx="3.06" transform="translate(3487.86 894.39) rotate(180)"/><ellipse cx="1787.24" cy="459.11" rx="5.52" ry="5.77"/><ellipse cx="1741.11" cy="459.11" rx="5.52" ry="5.77"/><ellipse class="cls-31" cx="1763.15" cy="492.18" rx="15.38" ry="1.54"/><path class="cls-32" d="M1761.33,464.17c-1.51,4.07-6.65,7.06-5.28,12,1.21,4.35,6.13,5.15,10,4.9,1.92-.12,1.93-3.12,0-3s-4,.25-5.59-.9c-2.13-1.52-1.59-3.83-.35-5.78,1.42-2.23,3.21-3.9,4.15-6.44.67-1.81-2.23-2.59-2.89-.8Z"/><path class="cls-32" d="M1804.4,543.27l.77-2.31c.26-.75.92-3.88.66-4.75l.1-22.56a1.08,1.08,0,0,0-1.1-1.09L1778,513a.29.29,0,0,0-.12.56l7.37,3.56a9,9,0,0,0,1.6.58l13.07,3.42.54,27.43"/><path class="cls-32" d="M1847.4,478.06a17,17,0,0,1-3.7,13.64c-2.37,2.8-4.62,5.82-7.59,8-1.54,1.13,0,3.73,1.52,2.59,7.91-5.77,14.2-14.89,12.66-25-.29-1.9-3.18-1.1-2.89.8Z"/><path class="cls-32" d="M1846.63,478.06c-1.15,13.43-13.33,20.86-24,26.79-1.68.94-.17,3.53,1.52,2.59,11.76-6.54,24.21-14.73,25.47-29.38.17-1.93-2.83-1.91-3,0Z"/><path class="cls-32" d="M1844.15,488c-.37,1.54-2,3.34-2.9,4.69a25.1,25.1,0,0,1-5.72,6.39,45.29,45.29,0,0,1-13.82,6.83c-1.82.6-1,3.5.8,2.89,5.55-1.85,11-4.15,15.56-7.92a26.72,26.72,0,0,0,5.46-6.16c1.2-1.84,3-3.77,3.52-5.92.45-1.88-2.44-2.68-2.9-.8Z"/><path class="cls-32" d="M1835.81,499.32c-1.39.47-2.19,1.59-3.46,2.25-1.52.78-3.17,1.36-4.75,2-1.76.74-1,3.64.79,2.9,1.51-.63,3-1.24,4.51-1.89a9.83,9.83,0,0,0,1.87-1c.59-.42,1.14-1.16,1.83-1.4,1.82-.62,1-3.52-.79-2.89Z"/><path class="cls-32" d="M1836,499.16l-3.16,1.69c-1.7.9-.19,3.49,1.52,2.59l3.16-1.69c1.7-.9.19-3.49-1.52-2.59Z"/><path class="cls-32" d="M1835.63,502.89a1.5,1.5,0,0,0,0-3,1.5,1.5,0,0,0,0,3Z"/><path class="cls-32" d="M1835.18,499.69c-.63,1.64-3.9,2.89-5.44,3.65a65.07,65.07,0,0,1-7.6,2.78c-1.81.63-1,3.53.8,2.9a63.56,63.56,0,0,0,9.72-3.84c2.25-1.21,4.46-2.18,5.41-4.7.68-1.8-2.21-2.58-2.89-.79Z"/><path class="cls-32" d="M1837.94,497.12c-3.83,5.09-10.87,8.69-17.14,9.82-1.89.34-1.09,3.23.8,2.89,7.23-1.3,14.54-5.36,18.93-11.2,1.16-1.54-1.45-3-2.59-1.51Z"/><path class="cls-32" d="M1823.4,504.83l-7.38,3c-1.76.72-1,3.63.8,2.89l7.38-3c1.76-.73,1-3.63-.8-2.9Z"/><path class="cls-32" d="M1821.06,506.61a7.36,7.36,0,0,0-2.52.19,1.51,1.51,0,0,0,0,2.89,6.59,6.59,0,0,0,2.69.09l-.8-2.9a31.2,31.2,0,0,1-4.27,1,1.52,1.52,0,0,0-1.05,1.85,1.56,1.56,0,0,0,1.85,1.05,34.88,34.88,0,0,0,4.27-1,1.51,1.51,0,0,0-.8-2.9,2.73,2.73,0,0,1-1.1-.08v2.89a5.28,5.28,0,0,1,1.73-.08,1.5,1.5,0,0,0,0-3Z"/><path class="cls-25" d="M1869.73,449c.13,3.3.34,7.09-1.43,10-2,3.41-6.69,4.59-10.34,5.23-1.89.33-1.09,3.23.8,2.89,4.16-.73,9-2.24,11.62-5.83s2.51-8.17,2.35-12.32c-.08-1.92-3.08-1.93-3,0Z"/><path class="cls-32" d="M1864.37,452.52c.6,1.87-.41,4.65-2.77,3.73-1.8-.7-2.58,2.2-.8,2.89,4.54,1.77,7.72-3.49,6.47-7.42-.59-1.83-3.49-1.05-2.9.8Z"/><path class="cls-32" d="M1870.83,449.5c-.28,2.94,1.16,5.65-.7,8.35s-5.47,3.53-8.56,4c-1.9.31-1.1,3.2.8,2.89,3.67-.61,7.42-1.72,9.84-4.75a8.85,8.85,0,0,0,2-4.55c.21-2-.54-4-.35-6s-2.82-1.91-3,0Z"/><path class="cls-32" d="M1872.5,450.88a1.5,1.5,0,0,0,0-3,1.5,1.5,0,0,0,0,3Z"/><path class="cls-3" d="M1743,1043.75c-4.85-.18-9.76-.26-14.34,1.55-4,1.57-7.3,4.33-10.57,7-1.5,1.22.64,3.33,2.12,2.12,3.22-2.64,6.61-5.46,10.65-6.75s8.08-1.08,12.14-.93c1.93.08,1.92-2.93,0-3Z"/><path class="cls-3" d="M1824.33,1042.9a28.33,28.33,0,0,0-21.49,10c-1.25,1.46.87,3.59,2.12,2.12a25.41,25.41,0,0,1,19.37-9.11,1.5,1.5,0,0,0,0-3Z"/><line class="cls-33" x1="1801.22" y1="567.15" x2="1818.14" y2="590.99"/><line class="cls-34" x1="1772" y1="567.15" x2="1755.08" y2="590.22"/><path class="cls-32" d="M1809.71,392a35.46,35.46,0,0,0,6.42,29.52c1.16,1.52,3.77,0,2.59-1.51a32.66,32.66,0,0,1-6.12-27.22c.41-1.88-2.48-2.68-2.89-.79Z"/><path class="cls-32" d="M1720.32,379.67c-8.1,2.78-12.93,10.09-15,18.16-1.9,7.6-1.49,17.24,7.05,20.25,1.83.65,2.61-2.25.8-2.89-7.85-2.76-6.27-13.07-4.17-19.23,2-6,5.94-11.29,12.08-13.4,1.81-.62,1-3.52-.8-2.89Z"/><path class="cls-32" d="M1767.94,372.34c-6.5-3.38-14-1-18.75,4.32-6.15,6.83-6.19,16.87-6.11,25.5a1.5,1.5,0,0,0,3,0c-.06-6.81-.17-14.14,3.13-20.31,3.2-6,10.69-10.31,17.22-6.92,1.71.89,3.23-1.7,1.51-2.59Z"/><path class="cls-32" d="M1808.76,363.12c-14.23-.34-15.94,16-15.42,26.59.09,1.93,3.09,1.94,3,0-.43-8.85,0-23.89,12.42-23.59,1.93.05,1.93-2.95,0-3Z"/><path class="cls-32" d="M1864.54,388.45a33.14,33.14,0,0,1,7.55,41.49,1.5,1.5,0,0,0,2.59,1.51c8.44-14.71,5-34.24-8-45.12-1.48-1.22-3.61.89-2.12,2.12Z"/><rect class="cls-35" x="724.61" y="6.52" width="65.57" height="121.86" transform="translate(365.6 719.14) rotate(-64.07)"/><path class="cls-36" d="M818.38,83.21c-10.82-5-14.84-17.23-10-27.82l18.67,8.91Z"/><path class="cls-36" d="M696.5,52c10.83,5,14.85,17.23,10,27.82l-18.67-8.92Z"/><path class="cls-36" d="M707.62,29.11c10.6,5.44,22.72,1,28-9.33L717.11,10.6Z"/><path class="cls-36" d="M807.36,105.87c-10.6-5.43-22.72-1-28,9.34l18.54,9.18Z"/><ellipse class="cls-36" cx="757.53" cy="67.19" rx="19.3" ry="19.73" transform="translate(365.9 719.1) rotate(-64.07)"/><ellipse cx="725.43" cy="51.59" rx="2.59" ry="2.61" transform="translate(361.87 681.46) rotate(-64.07)"/><ellipse cx="789.62" cy="82.79" rx="2.59" ry="2.61" transform="translate(369.93 756.75) rotate(-64.07)"/><rect class="cls-37" x="743.81" y="66.62" width="2.32" height="52.81" rx="1.16" transform="translate(335.6 722.35) rotate(-64.07)"/><rect class="cls-38" x="790.9" y="56.17" width="320.1" height="73.26" rx="24.5"/><rect class="cls-39" x="820.77" y="69.13" width="260.36" height="46.21" rx="12"/><path d="M876.92,90.28a7.6,7.6,0,0,1,2.7,2.47,6.74,6.74,0,0,1,1,2.67,7.52,7.52,0,0,1,0,2.47,8.66,8.66,0,0,1-.51,1.79l-.31.69a8.38,8.38,0,0,1-1.59,1.76,8.59,8.59,0,0,1-2.17,1.18,8,8,0,0,1-3.24.45,14.92,14.92,0,0,1-4.43-1,26.18,26.18,0,0,1-5.7-3l4.14-5.92a14.67,14.67,0,0,0,3.3,1.93,5.21,5.21,0,0,0,2,.42,1.76,1.76,0,0,0,1.21-.58l.11-.32a1.49,1.49,0,0,0,.06-.75,1.42,1.42,0,0,0-.46-.84,2.9,2.9,0,0,0-1.43-.61,10.13,10.13,0,0,0-2.82,0l.32-4.82a7.48,7.48,0,0,0,2.71-.1,1.55,1.55,0,0,0,1-.67,1.39,1.39,0,0,0-.15-1.12,2.26,2.26,0,0,0-1.32-.63,5.56,5.56,0,0,0-1.94.28,11.49,11.49,0,0,0-3.06,1.62L863.5,82.5a17.22,17.22,0,0,1,5.13-2.6,12.53,12.53,0,0,1,4.14-.54,9.52,9.52,0,0,1,3.06.68,8.22,8.22,0,0,1,1.89,1l.66.55.42.52a6.57,6.57,0,0,1,.81,1.4,5.33,5.33,0,0,1,.45,2,4.51,4.51,0,0,1-.65,2.33A7.19,7.19,0,0,1,876.92,90.28Z"/><path d="M890.13,87.66a9,9,0,0,1,3.13.82,7,7,0,0,1,2.42,1.86,4.84,4.84,0,0,1,1.1,2.87v.62a7.92,7.92,0,0,1-.21,1.55,10.35,10.35,0,0,1-.72,2.11,8.58,8.58,0,0,1-1.51,2.24,9.14,9.14,0,0,1-2.59,2,13.28,13.28,0,0,1-4,1.27,22.82,22.82,0,0,1-5.66.17l-1.27-6.59a13.35,13.35,0,0,0,3.71.35,6.47,6.47,0,0,0,2.39-.59,4.57,4.57,0,0,0,1.38-1.06,3.74,3.74,0,0,0,.64-1c.09-.27.14-.42.14-.44a.92.92,0,0,0-.21-.86,2.15,2.15,0,0,0-.93-.48,6.48,6.48,0,0,0-1.41-.17,13.24,13.24,0,0,0-1.65.09,12.27,12.27,0,0,0-1.69.32,10.48,10.48,0,0,0-1.5.51l1-12.14,13.39-.65.14,5.6-8.57-.08-.7,2A9.2,9.2,0,0,1,890.13,87.66Z"/><path d="M912.81,100.25a8.49,8.49,0,0,1-1.89,1.84,9.53,9.53,0,0,1-5.24,1.8,7.65,7.65,0,0,1-2.8-.41,7.35,7.35,0,0,1-2.54-1.52,8.59,8.59,0,0,1-2-2.83,14.58,14.58,0,0,1-1.19-4,14.27,14.27,0,0,1,0-3.86,14.08,14.08,0,0,1,2.77-6.69,13.24,13.24,0,0,1,2.48-2.48,11.37,11.37,0,0,1,3-1.67,6.88,6.88,0,0,1,2.92-.49,7.4,7.4,0,0,1,2.52.61,6.71,6.71,0,0,1,2,1.31,5.72,5.72,0,0,1,1.27,1.65,16.44,16.44,0,0,1,1.31,3.59,15.77,15.77,0,0,1,.44,4.21,16.63,16.63,0,0,1-.76,4.48A15,15,0,0,1,912.81,100.25Zm-4-11.46a2.06,2.06,0,0,0-1.48-1.4,2.33,2.33,0,0,0-1.85.57A5.44,5.44,0,0,0,904,90.18a7.8,7.8,0,0,0-.49,3.59,5,5,0,0,0,.76,2.78,1.86,1.86,0,0,0,1.46.83,2.48,2.48,0,0,0,1.65-.68A4.34,4.34,0,0,0,908.59,95a11.63,11.63,0,0,0,.59-2,8.54,8.54,0,0,0,.15-1.67,7.11,7.11,0,0,0-.15-1.38A7.58,7.58,0,0,0,908.84,88.79Z"/><path d="M917,102.26l.2-2.4,3,.17-.57,3Z"/><path d="M938,100.25a8.94,8.94,0,0,1-1.89,1.84,9.53,9.53,0,0,1-5.24,1.8,7.62,7.62,0,0,1-2.8-.41,7.35,7.35,0,0,1-2.54-1.52,8.59,8.59,0,0,1-2-2.83,14.24,14.24,0,0,1-1.19-4,14.7,14.7,0,0,1,0-3.86,14.23,14.23,0,0,1,2.78-6.69,13.24,13.24,0,0,1,2.48-2.48,11.37,11.37,0,0,1,3-1.67,6.86,6.86,0,0,1,2.92-.49,7.4,7.4,0,0,1,2.52.61,6.71,6.71,0,0,1,2,1.31,5.9,5.9,0,0,1,1.27,1.65,16.44,16.44,0,0,1,1.31,3.59,16.19,16.19,0,0,1,.44,4.21,17,17,0,0,1-.76,4.48A15.19,15.19,0,0,1,938,100.25Zm-4-11.46a2.06,2.06,0,0,0-1.48-1.4,2.32,2.32,0,0,0-1.85.57,5.44,5.44,0,0,0-1.53,2.22,7.8,7.8,0,0,0-.49,3.59,5,5,0,0,0,.76,2.78,1.86,1.86,0,0,0,1.46.83,2.52,2.52,0,0,0,1.65-.68A4.32,4.32,0,0,0,933.8,95a11.73,11.73,0,0,0,.6-2,8.54,8.54,0,0,0,.15-1.67,7.11,7.11,0,0,0-.15-1.38A7.58,7.58,0,0,0,934.06,88.79Z"/><path d="M957.08,100.25a8.94,8.94,0,0,1-1.89,1.84,9.59,9.59,0,0,1-2.46,1.28,9.7,9.7,0,0,1-2.78.52,7.62,7.62,0,0,1-2.8-.41,7.35,7.35,0,0,1-2.54-1.52,8.76,8.76,0,0,1-2-2.83,14.55,14.55,0,0,1-1.18-4,13.88,13.88,0,0,1,0-3.86,14.47,14.47,0,0,1,1-3.58,13.69,13.69,0,0,1,1.81-3.11,13.24,13.24,0,0,1,2.48-2.48,11.37,11.37,0,0,1,3-1.67,6.84,6.84,0,0,1,2.91-.49,7.46,7.46,0,0,1,2.53.61,6.71,6.71,0,0,1,2,1.31,5.9,5.9,0,0,1,1.27,1.65,16.44,16.44,0,0,1,1.31,3.59,15.77,15.77,0,0,1,.43,4.21,16.25,16.25,0,0,1-.76,4.48A15.15,15.15,0,0,1,957.08,100.25Zm-4-11.46a2.06,2.06,0,0,0-1.48-1.4,2.32,2.32,0,0,0-1.85.57,5.44,5.44,0,0,0-1.53,2.22,7.79,7.79,0,0,0-.5,3.59,5.14,5.14,0,0,0,.76,2.78,1.87,1.87,0,0,0,1.47.83,2.52,2.52,0,0,0,1.65-.68A4.32,4.32,0,0,0,952.85,95a11.63,11.63,0,0,0,.59-2,7.89,7.89,0,0,0,.16-1.67,6.38,6.38,0,0,0-.16-1.38A6.55,6.55,0,0,0,953.11,88.79Z"/><path d="M976.13,100.25a8.94,8.94,0,0,1-1.89,1.84,9.61,9.61,0,0,1-5.24,1.8,7.7,7.7,0,0,1-2.81-.41,7.31,7.31,0,0,1-2.53-1.52,8.76,8.76,0,0,1-2-2.83,14.55,14.55,0,0,1-1.18-4,13.88,13.88,0,0,1,0-3.86,14,14,0,0,1,1-3.58,13.69,13.69,0,0,1,1.81-3.11,13.24,13.24,0,0,1,2.48-2.48,11.37,11.37,0,0,1,3-1.67,6.81,6.81,0,0,1,2.91-.49,7.4,7.4,0,0,1,2.52.61,6.76,6.76,0,0,1,2,1.31,6.09,6.09,0,0,1,1.27,1.65,16.44,16.44,0,0,1,1.31,3.59,16.19,16.19,0,0,1,.43,4.21,16.63,16.63,0,0,1-.76,4.48A15.15,15.15,0,0,1,976.13,100.25Zm-4-11.46a2,2,0,0,0-1.48-1.4,2.3,2.3,0,0,0-1.84.57,5.54,5.54,0,0,0-1.54,2.22,7.93,7.93,0,0,0-.49,3.59,5.14,5.14,0,0,0,.76,2.78,1.86,1.86,0,0,0,1.47.83,2.48,2.48,0,0,0,1.64-.68A4.24,4.24,0,0,0,971.9,95a11.63,11.63,0,0,0,.59-2,8.61,8.61,0,0,0,.16-1.67,6.38,6.38,0,0,0-.16-1.38A5.71,5.71,0,0,0,972.15,88.79Z"/><path d="M980.33,102.26l.19-2.4,3,.17-.56,3Z"/><path d="M1001.35,100.25a8.94,8.94,0,0,1-1.89,1.84,9.61,9.61,0,0,1-5.24,1.8,7.67,7.67,0,0,1-2.81-.41,7.31,7.31,0,0,1-2.53-1.52,8.76,8.76,0,0,1-2-2.83,14.21,14.21,0,0,1-1.18-4,13.88,13.88,0,0,1,0-3.86,14,14,0,0,1,1-3.58,13.69,13.69,0,0,1,1.81-3.11,13.19,13.19,0,0,1,2.47-2.48,11.27,11.27,0,0,1,3-1.67,6.81,6.81,0,0,1,2.91-.49,7.4,7.4,0,0,1,2.52.61,6.9,6.9,0,0,1,2,1.31,5.85,5.85,0,0,1,1.26,1.65,15.47,15.47,0,0,1,1.31,3.59,15.77,15.77,0,0,1,.44,4.21,16.63,16.63,0,0,1-.76,4.48A15.15,15.15,0,0,1,1001.35,100.25Zm-4-11.46a2,2,0,0,0-1.48-1.4,2.3,2.3,0,0,0-1.84.57,5.45,5.45,0,0,0-1.54,2.22,7.8,7.8,0,0,0-.49,3.59,5.05,5.05,0,0,0,.76,2.78,1.86,1.86,0,0,0,1.47.83,2.48,2.48,0,0,0,1.64-.68A4.24,4.24,0,0,0,997.12,95a11.63,11.63,0,0,0,.59-2,8.61,8.61,0,0,0,.16-1.67,7.07,7.07,0,0,0-.16-1.38A6.52,6.52,0,0,0,997.37,88.79Z"/><path d="M1020.39,100.25a8.66,8.66,0,0,1-1.88,1.84,9.82,9.82,0,0,1-2.47,1.28,9.63,9.63,0,0,1-2.78.52,7.65,7.65,0,0,1-2.8-.41,7.35,7.35,0,0,1-2.54-1.52,8.74,8.74,0,0,1-2-2.83,14.58,14.58,0,0,1-1.19-4,14.27,14.27,0,0,1,0-3.86,14.08,14.08,0,0,1,2.77-6.69,13.54,13.54,0,0,1,2.48-2.48,11.37,11.37,0,0,1,3-1.67,6.88,6.88,0,0,1,2.92-.49,7.4,7.4,0,0,1,2.52.61,6.71,6.71,0,0,1,2,1.31,5.72,5.72,0,0,1,1.27,1.65,15.94,15.94,0,0,1,1.31,3.59,15.77,15.77,0,0,1,.44,4.21,16.63,16.63,0,0,1-.76,4.48A15,15,0,0,1,1020.39,100.25Zm-4-11.46a2.06,2.06,0,0,0-1.48-1.4,2.3,2.3,0,0,0-1.84.57,5.35,5.35,0,0,0-1.54,2.22,7.8,7.8,0,0,0-.49,3.59,5.05,5.05,0,0,0,.76,2.78,1.86,1.86,0,0,0,1.46.83,2.48,2.48,0,0,0,1.65-.68,4.24,4.24,0,0,0,1.23-1.74,11.63,11.63,0,0,0,.59-2,8.54,8.54,0,0,0,.15-1.67,7.11,7.11,0,0,0-.15-1.38A6.52,6.52,0,0,0,1016.42,88.79Z"/><path d="M1039.44,100.25a8.94,8.94,0,0,1-1.89,1.84,9.53,9.53,0,0,1-5.24,1.8,7.62,7.62,0,0,1-2.8-.41A7.35,7.35,0,0,1,1027,102a8.59,8.59,0,0,1-2-2.83,14.24,14.24,0,0,1-1.19-4,14.7,14.7,0,0,1,0-3.86,14.23,14.23,0,0,1,2.78-6.69,13.24,13.24,0,0,1,2.48-2.48,11.37,11.37,0,0,1,3-1.67A6.86,6.86,0,0,1,1035,80a7.4,7.4,0,0,1,2.52.61,6.71,6.71,0,0,1,2,1.31,5.9,5.9,0,0,1,1.27,1.65,16.44,16.44,0,0,1,1.31,3.59,16.19,16.19,0,0,1,.44,4.21,16.63,16.63,0,0,1-.76,4.48A15.19,15.19,0,0,1,1039.44,100.25Zm-4-11.46a2.06,2.06,0,0,0-1.48-1.4,2.32,2.32,0,0,0-1.85.57,5.44,5.44,0,0,0-1.53,2.22,7.8,7.8,0,0,0-.49,3.59,5,5,0,0,0,.76,2.78,1.86,1.86,0,0,0,1.46.83,2.52,2.52,0,0,0,1.65-.68,4.32,4.32,0,0,0,1.22-1.74,11.73,11.73,0,0,0,.6-2,8.54,8.54,0,0,0,.15-1.67,7.11,7.11,0,0,0-.15-1.38A7.58,7.58,0,0,0,1035.47,88.79Z"/><rect class="cls-35" x="727.61" y="36.52" width="65.57" height="121.86" transform="translate(340.3 738.72) rotate(-64.07)"/><path class="cls-36" d="M821.38,113.21c-10.82-5-14.84-17.23-10-27.82l18.67,8.91Z"/><path class="cls-36" d="M699.5,82c10.83,5,14.85,17.23,10,27.82l-18.67-8.92Z"/><path class="cls-36" d="M710.62,59.11c10.6,5.44,22.72,1,28-9.33L720.11,40.6Z"/><path class="cls-36" d="M810.36,135.87c-10.6-5.43-22.72-1-28,9.34l18.54,9.18Z"/><ellipse class="cls-36" cx="760.53" cy="97.19" rx="19.3" ry="19.73" transform="translate(340.61 738.69) rotate(-64.07)"/><ellipse cx="728.43" cy="81.59" rx="2.59" ry="2.61" transform="translate(336.58 701.04) rotate(-64.07)"/><ellipse cx="792.62" cy="112.79" rx="2.59" ry="2.61" transform="translate(344.64 776.33) rotate(-64.07)"/><rect class="cls-37" x="746.81" y="96.62" width="2.32" height="52.81" rx="1.16" transform="translate(310.31 741.93) rotate(-64.07)"/><circle class="cls-39" cx="1856.48" cy="66.46" r="43.47"/><line class="cls-40" x1="1837.75" y1="44.2" x2="1874.51" y2="88.02"/><line class="cls-40" x1="1878.75" y1="46.32" x2="1831.39" y2="86.61"/><polygon class="cls-41" points="1247 508 1244 473 1255.5 471.5 1253.5 507.5 1247 508"/><polygon class="cls-41" points="1031 796 1028 761 1039.5 759.5 1037.5 795.5 1031 796"/><path class="cls-3" d="M819.54,824l-2.76,3.22a23.76,23.76,0,0,0-4.26,7.25L810.15,841A51.17,51.17,0,0,0,807,858.61l.42,12.91a29,29,0,0,0,.57,4.91l2,10.12,0,.1c2.47,6.38,4.46,12.35,9.1,17l6.82,6.82.08.07,12.09,8.64a.64.64,0,0,0,1-.78l-15-34.77a.7.7,0,0,1,0-.25V854.54a.22.22,0,0,1,0-.08l2.28-16.79a29.7,29.7,0,0,1,3.14-9.79l6.89-13.08a.64.64,0,0,0-.74-.91h0A32.33,32.33,0,0,0,819.54,824Z"/><path class="cls-3" d="M440.54,824l-2.76,3.22a23.76,23.76,0,0,0-4.26,7.25L431.15,841A51.17,51.17,0,0,0,428,858.61l.42,12.91a29,29,0,0,0,.57,4.91l2,10.12,0,.1c2.47,6.38,4.46,12.35,9.1,17l6.82,6.82.08.07,12.09,8.64a.64.64,0,0,0,1-.78l-15-34.77a.7.7,0,0,1-.05-.25V854.54a.22.22,0,0,1,0-.08l2.28-16.79a29.7,29.7,0,0,1,3.14-9.79l6.89-13.08a.64.64,0,0,0-.74-.91h0A32.33,32.33,0,0,0,440.54,824Z"/><rect class="cls-42" x="717" y="673" width="91" height="40" rx="12"/><rect class="cls-42" x="331" y="673" width="91" height="40" rx="12"/><rect class="cls-42" x="-37" y="674" width="91" height="40" rx="12"/><rect class="cls-42" x="1091" y="674" width="91" height="40" rx="12"/><g class="cls-5"><rect class="cls-43" x="1374" y="673" width="35" height="35" rx="12"/></g><g class="cls-5"><rect class="cls-43" x="999" y="673" width="35" height="35" rx="12"/></g><g class="cls-5"><rect class="cls-43" x="618" y="676" width="35" height="35" rx="12"/></g><g class="cls-5"><rect class="cls-43" x="246" y="676" width="35" height="35" rx="12"/></g><rect class="cls-35" x="255.19" y="230.77" width="100.5" height="186.77" transform="translate(680.21 564.82) rotate(166)"/><path class="cls-36" d="M309.74,420.59c-4-17.81-21.13-27.72-38.54-23.77l7.44,30.83Z"/><path class="cls-36" d="M301.54,227.94c4,17.81,21.13,27.72,38.54,23.77l-7.44-30.82Z"/><path class="cls-36" d="M263.72,237.37c4.8,17.62-5.65,34.39-22.88,39.08L233,245.73Z"/><path class="cls-36" d="M347.23,411.25c-4.79-17.62,5.65-34.4,22.88-39.08L378,402.88Z"/><ellipse class="cls-36" cx="305.01" cy="324.27" rx="29.59" ry="30.24" transform="translate(-69.37 83.39) rotate(-14)"/><ellipse cx="291.78" cy="271.19" rx="3.97" ry="4" transform="translate(-56.93 78.62) rotate(-14)"/><ellipse cx="318.24" cy="377.34" rx="3.97" ry="4" transform="translate(-81.81 88.17) rotate(-14)"/><rect class="cls-37" x="345.95" y="273.15" width="3.56" height="80.93" rx="1.78" transform="translate(760.97 533.83) rotate(166)"/><rect class="cls-35" x="590.26" y="493.77" width="100.5" height="186.77" transform="translate(161.02 -137.48) rotate(14)"/><path class="cls-36" d="M636.21,683.59c4-17.81,21.13-27.72,38.54-23.77l-7.44,30.83Z"/><path class="cls-36" d="M644.41,490.94c-4,17.81-21.13,27.72-38.54,23.77l7.44-30.82Z"/><path class="cls-36" d="M682.23,500.37c-4.79,17.62,5.65,34.39,22.88,39.08L713,508.73Z"/><path class="cls-36" d="M598.72,674.25c4.8-17.62-5.65-34.4-22.88-39.08L568,665.88Z"/><ellipse class="cls-36" cx="640.94" cy="587.27" rx="30.24" ry="29.59" transform="translate(-83.9 1067.15) rotate(-76)"/><ellipse cx="654.17" cy="534.19" rx="4" ry="3.97" transform="translate(-22.37 1039.75) rotate(-76)"/><ellipse cx="627.72" cy="640.34" rx="4" ry="3.97" transform="translate(-145.43 1094.55) rotate(-76)"/><rect class="cls-37" x="596.45" y="536.15" width="3.56" height="80.93" rx="1.78" transform="translate(157.21 -127.56) rotate(14)"/><rect class="cls-35" x="1324.19" y="786.77" width="100.5" height="186.77" transform="translate(2920.94 1401.78) rotate(166)"/><path class="cls-36" d="M1378.74,976.59c-4-17.81-21.13-27.72-38.54-23.77l7.44,30.83Z"/><path class="cls-36" d="M1370.54,783.94c4,17.81,21.13,27.72,38.54,23.77l-7.44-30.82Z"/><path class="cls-36" d="M1332.72,793.37c4.8,17.62-5.65,34.39-22.88,39.08L1302,801.73Z"/><path class="cls-36" d="M1416.23,967.25c-4.79-17.62,5.65-34.4,22.88-39.08l7.89,30.71Z"/><ellipse class="cls-36" cx="1374.01" cy="880.27" rx="29.59" ry="30.24" transform="translate(-172.1 358.44) rotate(-14)"/><ellipse cx="1360.78" cy="827.19" rx="3.97" ry="4" transform="translate(-159.66 353.66) rotate(-14)"/><ellipse cx="1387.24" cy="933.34" rx="3.97" ry="4" transform="translate(-184.55 363.21) rotate(-14)"/><rect class="cls-37" x="1414.95" y="829.15" width="3.56" height="80.93" rx="1.78" transform="translate(3001.71 1370.79) rotate(166)"/><polygon class="cls-41" points="322 239 319 204 330.5 202.5 328.5 238.5 322 239"/><rect class="cls-35" x="1472.26" y="250.77" width="100.5" height="186.77" transform="translate(128.43 -358) rotate(14)"/><path class="cls-36" d="M1518.21,440.59c4-17.81,21.13-27.72,38.54-23.77l-7.44,30.83Z"/><path class="cls-36" d="M1526.41,247.94c-4,17.81-21.13,27.72-38.54,23.77l7.44-30.82Z"/><path class="cls-36" d="M1564.23,257.37c-4.79,17.62,5.65,34.39,22.88,39.08l7.89-30.72Z"/><path class="cls-36" d="M1480.72,431.25c4.8-17.62-5.65-34.4-22.88-39.08L1450,422.88Z"/><ellipse class="cls-36" cx="1522.94" cy="344.27" rx="30.24" ry="29.59" transform="translate(820.57 1738.74) rotate(-76)"/><ellipse cx="1536.17" cy="291.19" rx="4" ry="3.97" transform="translate(882.1 1711.34) rotate(-76)"/><ellipse cx="1509.72" cy="397.34" rx="4" ry="3.97" transform="translate(759.05 1766.14) rotate(-76)"/><rect class="cls-37" x="1478.45" y="293.15" width="3.56" height="80.93" rx="1.78" transform="translate(124.63 -348.09) rotate(14)"/><polygon class="cls-41" points="1501 253 1498 218 1509.5 216.5 1507.5 252.5 1501 253"/><polygon class="cls-41" points="1383 796 1380 761 1391.5 759.5 1389.5 795.5 1383 796"/><polygon class="cls-41" points="613 499 610 464 621.5 462.5 619.5 498.5 613 499"/><path class="cls-44" d="M938.18,263.73v95.88a16,16,0,0,1-1.07,5.73l-1.46,3.8L988.76,366V263.82"/><rect class="cls-35" x="938.18" y="263.82" width="50.58" height="9.27" transform="translate(1926.93 536.91) rotate(-180)"/><path class="cls-44" d="M988.76,366l4.58,8.7a13.25,13.25,0,0,0,1.83,2.64l4.36,4.9,8.15,8.15,9.51,8.45,10.87,9.51,8.25,8,6.12,6.89,3.59,7.28,2,6.7v5.53l-1.82,5.13-3.55,4.53-4.92,4.53-5.51,3.15-7.09,2h-5.32l-6.11-1.77-8.27-5.32-10.83-7.48-12.92-9.26-11.5-8.47-8-5.9-12.27-8.28-4.73-.19-2.19-.45a22.66,22.66,0,0,1-8-3.32l-1-.67a14.61,14.61,0,0,1-2.9-2.54l-1.83-2.1a17.89,17.89,0,0,1-1.84-2.48h0a22.38,22.38,0,0,1-3-7.35h0a17.27,17.27,0,0,1-.37-3.58V391.1a30.45,30.45,0,0,1,.37-4.68h0a22.4,22.4,0,0,1,1.42-5l.77-1.9h0a33.86,33.86,0,0,1,3.49-5.73h0a5.51,5.51,0,0,1,.92-.95l2.21-1.77,2.34-1.9Z"/><ellipse class="cls-44" cx="952.2" cy="388.98" rx="27.69" ry="25.01"/><path class="cls-45" d="M949.29,415.56c11.07-5.12,9.72-18,6.05-30.9-1.82-6.41-12.63-17.66-19.09-15.84"/><line class="cls-46" x1="988.76" y1="273.09" x2="938.18" y2="273.09"/><line class="cls-47" x1="928.93" y1="279.92" x2="928.93" y2="280.07"/><rect class="cls-48" x="940" y="278" width="5" height="84" rx="2.5"/><polygon class="cls-41" points="954 271 951 236 962.5 234.5 960.5 270.5 954 271"/><line class="cls-49" x1="744.5" y1="860.25" x2="742" y2="862"/><path class="cls-23" d="M765,780.73v95.88a15.83,15.83,0,0,0,1.07,5.73l1.46,3.8L714.43,883V780.82"/><rect class="cls-35" x="714.43" y="780.82" width="50.58" height="9.27"/><path class="cls-23" d="M714.43,883l-4.58,8.7a13.68,13.68,0,0,1-1.83,2.64l-4.36,4.9-8.15,8.15L686,915.82l-10.87,9.51-8.25,8-6.12,6.89-3.59,7.28-2,6.7v5.53l1.83,5.13,3.54,4.53,4.93,4.53,5.51,3.15,7.09,2h5.32l6.1-1.77,8.27-5.32,10.83-7.48,12.93-9.26L733,946.7l8-5.9,12.27-8.28,4.72-.19,2.2-.45a22.68,22.68,0,0,0,8-3.32l1-.67a14.34,14.34,0,0,0,2.9-2.54l1.84-2.1a18.74,18.74,0,0,0,1.84-2.48h0a22.38,22.38,0,0,0,3-7.35h0a18,18,0,0,0,.36-3.58V908.1a29.25,29.25,0,0,0-.37-4.68h0a22.38,22.38,0,0,0-1.41-5l-.78-1.9h0a33.81,33.81,0,0,0-3.48-5.73h0a5.91,5.91,0,0,0-.92-1L769.87,888l-2.33-1.9Z"/><ellipse class="cls-23" cx="750.99" cy="905.98" rx="27.69" ry="25.01"/><path class="cls-50" d="M753.26,932.52c-10.94-5.41-9.24-18.26-5.23-31,2-6.36,13.09-17.31,19.51-15.33"/><line class="cls-50" x1="714.43" y1="790.09" x2="765.01" y2="790.09"/><line class="cls-47" x1="774.25" y1="796.92" x2="774.25" y2="797.07"/><rect class="cls-51" x="756" y="795" width="6" height="81" rx="3"/><polygon class="cls-41" points="738 796 735 761 746.5 759.5 744.5 795.5 738 796"/><rect class="cls-52" x="255" y="763" width="128.9" height="210" transform="translate(-364.89 245.78) rotate(-27.52)"/><line class="cls-52" x1="257.42" y1="848.46" x2="312.01" y2="820.03"/><line class="cls-52" x1="265.45" y1="863.88" x2="341.88" y2="824.06"/><line class="cls-52" x1="300.9" y1="931.14" x2="377.33" y2="891.33"/><line class="cls-52" x1="284.84" y1="900.32" x2="361.27" y2="860.5"/><line class="cls-52" x1="279.16" y1="889.4" x2="308.7" y2="874.01"/><line class="cls-52" x1="291.53" y1="913.16" x2="321.08" y2="897.77"/><line class="cls-52" x1="242.37" y1="819.56" x2="315.58" y2="781.42"/><polygon class="cls-41" points="322 759 319 724 330.5 722.5 328.5 758.5 322 759"/><path d="M1148.77,97.46a8.4,8.4,0,0,1-1.88,1.83,9.5,9.5,0,0,1-2.47,1.28,9.3,9.3,0,0,1-2.77.52,7.66,7.66,0,0,1-2.81-.4,7.1,7.1,0,0,1-2.53-1.53,8.41,8.41,0,0,1-2-2.83,14,14,0,0,1-.24-11.4,14.27,14.27,0,0,1,1.8-3.11,13.86,13.86,0,0,1,2.48-2.48,11.33,11.33,0,0,1,3-1.66,6.59,6.59,0,0,1,2.92-.49,7.06,7.06,0,0,1,4.49,1.91,6,6,0,0,1,1.27,1.65,16.43,16.43,0,0,1,1.75,7.81A16.76,16.76,0,0,1,1151,93,15.07,15.07,0,0,1,1148.77,97.46Zm-4-11.47a2,2,0,0,0-1.48-1.39,2.25,2.25,0,0,0-1.84.56,5.49,5.49,0,0,0-1.54,2.23,7.78,7.78,0,0,0-.49,3.59,5,5,0,0,0,.76,2.77,1.84,1.84,0,0,0,1.46.84,2.54,2.54,0,0,0,1.65-.68,4.21,4.21,0,0,0,1.23-1.75,11.3,11.3,0,0,0,.59-2,8.57,8.57,0,0,0,.15-1.68,6.41,6.41,0,0,0-.15-1.38A6.82,6.82,0,0,0,1144.8,86Z"/><path d="M1167.82,97.46a8.24,8.24,0,0,1-1.89,1.83,9.53,9.53,0,0,1-5.24,1.8,7.64,7.64,0,0,1-2.8-.4,7.23,7.23,0,0,1-2.54-1.53,8.39,8.39,0,0,1-2-2.83,14,14,0,0,1-1.21-7.82,14,14,0,0,1,1-3.58,14.27,14.27,0,0,1,1.8-3.11,13.54,13.54,0,0,1,2.48-2.48,11.33,11.33,0,0,1,3-1.66,6.59,6.59,0,0,1,2.92-.49,7.06,7.06,0,0,1,4.49,1.91,6,6,0,0,1,1.27,1.65,16.44,16.44,0,0,1,1.31,3.59,15.84,15.84,0,0,1,.44,4.22,16.76,16.76,0,0,1-.76,4.48A15.07,15.07,0,0,1,1167.82,97.46Zm-4-11.47a2,2,0,0,0-1.48-1.39,2.27,2.27,0,0,0-1.85.56,5.48,5.48,0,0,0-1.53,2.23,7.78,7.78,0,0,0-.49,3.59,5,5,0,0,0,.76,2.77,1.84,1.84,0,0,0,1.46.84,2.56,2.56,0,0,0,1.65-.68,4.3,4.3,0,0,0,1.23-1.75,11.3,11.3,0,0,0,.59-2,8.57,8.57,0,0,0,.15-1.68,7.11,7.11,0,0,0-.15-1.38A8,8,0,0,0,1163.85,86Z"/><path d="M1171.09,99.46l.17-2.4,3,.17-.56,3Zm1.1-9.69.2-2.65,3.27.2-.62,3.26Z"/><path d="M1191.89,97.46a8.67,8.67,0,0,1-1.89,1.83,9.61,9.61,0,0,1-5.24,1.8,7.66,7.66,0,0,1-2.81-.4,7.19,7.19,0,0,1-2.53-1.53,8.55,8.55,0,0,1-2-2.83A14,14,0,0,1,1179,81.82a13.49,13.49,0,0,1,2.47-2.48,11.23,11.23,0,0,1,3-1.66,6.52,6.52,0,0,1,2.91-.49,7.11,7.11,0,0,1,4.5,1.91,6.15,6.15,0,0,1,1.26,1.65,15.47,15.47,0,0,1,1.31,3.59,15.84,15.84,0,0,1,.44,4.22,16.76,16.76,0,0,1-.76,4.48A15.28,15.28,0,0,1,1191.89,97.46Zm-4-11.47a2,2,0,0,0-1.48-1.39,2.25,2.25,0,0,0-1.84.56,5.49,5.49,0,0,0-1.54,2.23,7.78,7.78,0,0,0-.49,3.59,5,5,0,0,0,.76,2.77,1.84,1.84,0,0,0,1.47.84,2.53,2.53,0,0,0,1.64-.68,4.21,4.21,0,0,0,1.23-1.75,11.3,11.3,0,0,0,.59-2,8.63,8.63,0,0,0,.16-1.68,7.07,7.07,0,0,0-.16-1.38A6.82,6.82,0,0,0,1187.91,86Z"/><path d="M1210.93,97.46a8.4,8.4,0,0,1-1.88,1.83,9.5,9.5,0,0,1-2.47,1.28,9.31,9.31,0,0,1-2.78.52,7.64,7.64,0,0,1-2.8-.4,7.23,7.23,0,0,1-2.54-1.53,8.53,8.53,0,0,1-2-2.83,14,14,0,0,1-1.21-7.82,14,14,0,0,1,1-3.58,14.27,14.27,0,0,1,1.8-3.11,13.86,13.86,0,0,1,2.48-2.48,11.33,11.33,0,0,1,3-1.66,6.59,6.59,0,0,1,2.92-.49,7.06,7.06,0,0,1,4.49,1.91,6,6,0,0,1,1.27,1.65,16.43,16.43,0,0,1,1.75,7.81,16.76,16.76,0,0,1-.76,4.48A15.07,15.07,0,0,1,1210.93,97.46ZM1207,86a2,2,0,0,0-1.48-1.39,2.25,2.25,0,0,0-1.84.56,5.39,5.39,0,0,0-1.54,2.23,7.78,7.78,0,0,0-.49,3.59,5,5,0,0,0,.76,2.77,1.84,1.84,0,0,0,1.46.84,2.54,2.54,0,0,0,1.65-.68,4.21,4.21,0,0,0,1.23-1.75,11.3,11.3,0,0,0,.59-2,8.57,8.57,0,0,0,.15-1.68,7.11,7.11,0,0,0-.15-1.38A6.82,6.82,0,0,0,1207,86Z"/><circle class="cls-39" cx="1263.5" cy="88.52" r="28.5"/><circle class="cls-53" cx="1263.6" cy="87.77" r="24.16"/><path class="cls-54" d="M1265.12,109.61A23.27,23.27,0,0,1,1241.49,86"/><rect class="cls-39" x="1259.56" y="54" width="7.41" height="7.41"/><rect class="cls-39" x="1251.22" y="57.71" width="6.95" height="3.71" rx="1.85" transform="translate(1550.7 1280.29) rotate(-106.35)"/><rect class="cls-39" x="1268.37" y="57.71" width="6.95" height="3.71" rx="1.85" transform="translate(848.28 1260.28) rotate(-73.25)"/><circle class="cls-48" cx="1263.73" cy="87.83" r="2.78"/><circle class="cls-39" cx="1263.73" cy="87.83" r="1.39"/><line class="cls-55" x1="1263.73" y1="72.07" x2="1263.73" y2="85.51"/><polygon class="cls-56" points="1263.81 69.25 1264.7 70.66 1265.59 72.07 1263.81 72.07 1262.03 72.07 1262.92 70.66 1263.81 69.25"/><line class="cls-55" x1="1253.31" y1="87.09" x2="1261.41" y2="87.61"/><polygon class="cls-56" points="1251.61 86.94 1252.49 86.46 1253.38 85.97 1253.31 87.05 1253.24 88.12 1252.43 87.53 1251.61 86.94"/><line class="cls-57" x1="3" y1="202" x2="1920" y2="221"/><line class="cls-57" x1="-11" y1="480" x2="1922" y2="499"/><line class="cls-57" x1="-6" y1="740" x2="1922" y2="759"/></svg>