<svg id="Layer_1" data-name="Layer 1" xmlns="http://www.w3.org/2000/svg" viewBox="0 0 1920 1080"><defs><style>.cls-1{opacity:0.51;}.cls-2{fill:#ff5eac;}.cls-18,.cls-19,.cls-3{fill:#fff;}.cls-14,.cls-4,.cls-6,.cls-8,.cls-9{fill:none;}.cls-10,.cls-11,.cls-14,.cls-4{stroke:#000;}.cls-10,.cls-11,.cls-14,.cls-18,.cls-19,.cls-4,.cls-6,.cls-8,.cls-9{stroke-miterlimit:10;}.cls-4{stroke-width:2px;opacity:0.49;}.cls-18,.cls-21,.cls-5,.cls-8,.cls-9{opacity:0.55;}.cls-6,.cls-8,.cls-9{stroke:#0027c9;}.cls-6,.cls-8{stroke-width:10px;}.cls-7{fill:#b3b3b3;}.cls-10,.cls-14,.cls-9{stroke-width:7px;}.cls-10,.cls-11{fill:#749fff;}.cls-10,.cls-11,.cls-12,.cls-14{opacity:0.38;}.cls-11{stroke-width:6px;}.cls-13{fill:gray;}.cls-15,.cls-17{fill:#ff1d25;}.cls-15{opacity:0.91;}.cls-16{fill:#ed1c24;}.cls-18{stroke:#fff;}.cls-19{stroke:#ccc;}.cls-20{fill:#ff931e;opacity:0.62;}.cls-21,.cls-22{fill:#0027c9;}</style></defs><title>baggrund</title><path d="M1778,129a1.5,1.5,0,0,0,0-3,1.5,1.5,0,0,0,0,3Z"/><path d="M1234.41,108.93a1.5,1.5,0,0,0,0-3,1.5,1.5,0,0,0,0,3Z"/><g class="cls-1"><rect class="cls-2" x="6.5" y="413.24" width="1919" height="664.13"/></g><rect class="cls-3" x="4.5" y="627.64" width="1435" height="445.61"/><path d="M1438.5,628.64v443.61H5.5V628.64h1433m2-2H3.5v447.61h1437V626.64Z"/><polyline class="cls-4" points="1441.5 626.12 3.5 626.64 4.5 524.83"/><g class="cls-5"><line class="cls-6" x1="312.5" y1="626.64" x2="314.5" y2="1080.5"/></g><g class="cls-5"><polyline class="cls-6" points="1399.5 590.21 2.5 586.04 1.5 626.64 1440.5 626.64"/><polyline class="cls-7" points="1399.5 590.21 2.5 586.04 1.5 626.64 1440.5 626.64"/></g><line class="cls-8" x1="687.5" y1="626.64" x2="689.5" y2="1074.25"/><line class="cls-8" x1="1065.5" y1="626.64" x2="1063.5" y2="1074.25"/><line class="cls-9" x1="1395" y1="586.56" x2="1440.5" y2="626.64"/><line class="cls-8" x1="1440.5" y1="626.64" x2="1440.5" y2="1074.25"/><ellipse class="cls-10" cx="103.5" cy="850.45" rx="77.5" ry="80.67"/><ellipse class="cls-10" cx="497" cy="847.84" rx="77.5" ry="80.67"/><ellipse class="cls-10" cx="877" cy="849.93" rx="77.5" ry="80.67"/><ellipse class="cls-11" cx="1251" cy="847.84" rx="77.5" ry="80.67"/><g class="cls-12"><path d="M182.63,990.73a1.5,1.5,0,0,0,0-3,1.5,1.5,0,0,0,0,3Z"/></g><g class="cls-12"><path d="M124.3,990.73a1.5,1.5,0,0,0,0-3,1.5,1.5,0,0,0,0,3Z"/></g><g class="cls-12"><path d="M119.81,990.73a1.5,1.5,0,0,0,0-3,1.5,1.5,0,0,0,0,3Z"/></g><g class="cls-12"><path d="M119.81,990.73a1.5,1.5,0,0,0,0-3,1.5,1.5,0,0,0,0,3Z"/></g><rect class="cls-13" x="3.5" y="402.83" width="1920.5" height="14.57"/><ellipse class="cls-14" cx="103" cy="847.84" rx="102" ry="106.18"/><ellipse class="cls-14" cx="497" cy="850.97" rx="102" ry="106.18"/><ellipse class="cls-14" cx="877" cy="849.93" rx="102" ry="106.18"/><ellipse class="cls-14" cx="1251" cy="850.97" rx="102" ry="106.18"/><path class="cls-15" d="M1250.5,925.4c-40.87,0-74-34.49-74-77Z"/><path class="cls-16" d="M1239.77,892.36c-3.51-8.79-12.91-13.08-19.25-19.93-2.81-3-5-6.62-7.71-9.79a40.46,40.46,0,0,0-35.39-14l74.19,75.72a21.17,21.17,0,0,1-1.41-7.76,34.15,34.15,0,0,0,0-5.54,15.13,15.13,0,0,0-1-3.35,34.6,34.6,0,0,0-6.26-9.81c-1.37-1.49-3-3.28-2.56-5.29"/><path class="cls-17" d="M1241.07,891.6c-2.59-5.84-7.22-9.74-12.09-13.68-6.23-5-10.37-11-15.62-16.92a42.25,42.25,0,0,0-35.94-13.87,1.52,1.52,0,0,0-1.06,2.56l64.85,66.19,9.34,9.53a1.51,1.51,0,0,0,2.51-1.46c-1.89-5.51-.36-11.27-2.49-16.65a32,32,0,0,0-2.88-5.54c-1.63-2.56-5.84-6.3-5.88-9.16,0-1.93-3-1.94-3,0,.07,5.08,5.28,8.59,7.57,12.83,3.34,6.17,1.56,12.83,3.78,19.32l2.51-1.46-64.85-66.19-9.33-9.53-1.07,2.56c14.85-1.58,27.95,5.07,36.84,16.78a69.94,69.94,0,0,0,12,12.69c4.84,3.9,9.6,7.69,12.18,13.51.78,1.76,3.36.24,2.59-1.51Z"/><path class="cls-18" d="M1252,924.26c42,0,74-36,74-79.54l-33,12.49-35,25-15,15.61,6,7.29,3,7.28v11.88Z"/><rect class="cls-19" x="1353" y="239.92" width="204" height="81.2"/><rect class="cls-19" x="1626" y="2.58" width="204" height="81.2"/><rect class="cls-19" x="1072" y="58.79" width="204" height="81.2"/><rect class="cls-19" x="852" y="280.52" width="204" height="81.2"/><rect class="cls-19" x="537" y="43.18" width="204" height="81.2"/><rect class="cls-19" x="124" y="0.5" width="204" height="81.2"/><rect class="cls-19" x="148" y="258.66" width="204" height="81.2"/><path class="cls-20" d="M174.5,850.45c-.06,40.45-32,73.64-70.75,73.65C65.22,924.1,33.33,891.22,33,851l28.88,8.84a26.31,26.31,0,0,0,10.43,1L98,858.25,116.77,856a12.24,12.24,0,0,1,11.51,5.26h0a8.05,8.05,0,0,0,9.62,3l7.1-2.84Z"/><path class="cls-3" d="M823,807.81l-2.76,3.35a25,25,0,0,0-4.26,7.55l-2.37,6.7a55.24,55.24,0,0,0-3.15,18.39l.42,13.43a31.47,31.47,0,0,0,.57,5.12l2,10.53,0,.11c2.47,6.64,4.46,12.85,9.1,17.68l6.82,7.1.08.07,12.09,9a.65.65,0,0,0,1-.8l-15-36.2a.75.75,0,0,1,0-.26v-30a.28.28,0,0,1,0-.09L829.79,822a31.77,31.77,0,0,1,3.14-10.19l6.89-13.62a.66.66,0,0,0-.74-1h0A32.22,32.22,0,0,0,823,807.81Z"/><path class="cls-3" d="M444,807.81l-2.76,3.35a25,25,0,0,0-4.26,7.55l-2.37,6.7a55.24,55.24,0,0,0-3.15,18.39l.42,13.43a31.47,31.47,0,0,0,.57,5.12l2,10.53,0,.11c2.47,6.64,4.46,12.85,9.1,17.68l6.82,7.1.08.07,12.09,9a.65.65,0,0,0,1-.8l-15-36.2a.75.75,0,0,1-.05-.26v-30a.28.28,0,0,1,0-.09L450.79,822a31.77,31.77,0,0,1,3.14-10.19l6.89-13.62a.66.66,0,0,0-.74-1h0A32.22,32.22,0,0,0,444,807.81Z"/><rect class="cls-21" x="720.5" y="650.58" width="91" height="41.64" rx="12"/><rect class="cls-21" x="334.5" y="650.58" width="91" height="41.64" rx="12"/><rect class="cls-21" x="-33.5" y="651.62" width="91" height="41.64" rx="12"/><rect class="cls-21" x="1094.5" y="651.62" width="91" height="41.64" rx="12"/><g class="cls-5"><rect class="cls-22" x="1377.5" y="650.58" width="35" height="36.43" rx="12"/></g><g class="cls-5"><rect class="cls-22" x="1002.5" y="650.58" width="35" height="36.43" rx="12"/></g><g class="cls-5"><rect class="cls-22" x="621.5" y="653.7" width="35" height="36.43" rx="12"/></g><g class="cls-5"><rect class="cls-22" x="249.5" y="653.7" width="35" height="36.43" rx="12"/></g></svg>
