<svg id="Layer_1" data-name="Layer 1" xmlns="http://www.w3.org/2000/svg" viewBox="0 0 1925 1148"><defs><style>.cls-1{opacity:0.51;}.cls-2{fill:#ff5eac;}.cls-18,.cls-19,.cls-3{fill:#fff;}.cls-14,.cls-4,.cls-6,.cls-8,.cls-9{fill:none;}.cls-10,.cls-11,.cls-14,.cls-4{stroke:#000;}.cls-10,.cls-11,.cls-14,.cls-18,.cls-19,.cls-4,.cls-6,.cls-8,.cls-9{stroke-miterlimit:10;}.cls-4{stroke-width:2px;opacity:0.49;}.cls-18,.cls-21,.cls-5,.cls-8,.cls-9{opacity:0.55;}.cls-6,.cls-8,.cls-9{stroke:#0027c9;}.cls-6,.cls-8{stroke-width:10px;}.cls-7{fill:#b3b3b3;}.cls-10,.cls-14,.cls-9{stroke-width:7px;}.cls-10,.cls-11{fill:#749fff;}.cls-10,.cls-11,.cls-12,.cls-14{opacity:0.38;}.cls-11{stroke-width:6px;}.cls-13{fill:gray;}.cls-15,.cls-17{fill:#ff1d25;}.cls-15{opacity:0.91;}.cls-16{fill:#ed1c24;}.cls-18{stroke:#fff;}.cls-19{stroke:#ccc;}.cls-20{fill:#ff931e;opacity:0.62;}.cls-21,.cls-22{fill:#0027c9;}</style></defs><title>baggrund</title><g class="cls-1"><rect class="cls-2" x="6" y="512" width="1919" height="638"/></g><rect class="cls-3" x="4" y="718" width="1435" height="428"/><path d="M1438,719v426H5V719H1438m2-2H3v430H1440V717Z"/><polyline class="cls-4" points="1441 716.5 3 717 4 619.19"/><g class="cls-5"><line class="cls-6" x1="312" y1="717" x2="314" y2="1153"/></g><g class="cls-5"><polyline class="cls-6" points="1399 682 2 678 1 717 1440 717"/><polyline class="cls-7" points="1399 682 2 678 1 717 1440 717"/></g><line class="cls-8" x1="687" y1="717" x2="689" y2="1147"/><line class="cls-8" x1="1065" y1="717" x2="1063" y2="1147"/><line class="cls-9" x1="1394.5" y1="678.5" x2="1440" y2="717"/><line class="cls-8" x1="1440" y1="717" x2="1440" y2="1147"/><circle class="cls-10" cx="103" cy="932" r="77.5"/><circle class="cls-10" cx="496.5" cy="929.5" r="77.5"/><circle class="cls-10" cx="876.5" cy="931.5" r="77.5"/><circle class="cls-11" cx="1250.5" cy="929.5" r="77.5"/><g class="cls-12"><path d="M182.13,1066.82a1.5,1.5,0,0,0,0-3,1.5,1.5,0,0,0,0,3Z"/></g><g class="cls-12"><path d="M123.8,1066.82a1.5,1.5,0,0,0,0-3,1.5,1.5,0,0,0,0,3Z"/></g><g class="cls-12"><path d="M119.31,1066.82a1.5,1.5,0,0,0,0-3,1.5,1.5,0,0,0,0,3Z"/></g><g class="cls-12"><path d="M119.31,1066.82a1.5,1.5,0,0,0,0-3,1.5,1.5,0,0,0,0,3Z"/></g><rect class="cls-13" x="3" y="502" width="1920.5" height="14"/><circle class="cls-14" cx="102.5" cy="929.5" r="102"/><circle class="cls-14" cx="496.5" cy="932.5" r="102"/><circle class="cls-14" cx="876.5" cy="931.5" r="102"/><circle class="cls-14" cx="1250.5" cy="932.5" r="102"/><path class="cls-15" d="M1250,1004a74,74,0,0,1-74-74Z"/><path class="cls-16" d="M1239.27,972.26c-3.51-8.44-12.91-12.56-19.25-19.14-2.81-2.93-5-6.36-7.71-9.41a41.33,41.33,0,0,0-35.39-13.46l74.19,72.74a19.57,19.57,0,0,1-1.41-7.45,31.5,31.5,0,0,0,0-5.32,13.93,13.93,0,0,0-1-3.22,33.1,33.1,0,0,0-6.26-9.42c-1.37-1.44-3-3.15-2.56-5.09"/><path class="cls-17" d="M1240.57,971.5c-2.61-5.62-7.19-9.34-12-13.07a61.89,61.89,0,0,1-8.67-7.66c-2.64-3-4.81-6.35-7.56-9.23a43.19,43.19,0,0,0-35.43-12.79,1.53,1.53,0,0,0-1.06,2.57L1240.77,995l9.28,9.1c1,1,3,0,2.51-1.46-1.92-5.37-.4-10.93-2.56-16.17a31.65,31.65,0,0,0-3.74-6.48c-1.66-2.25-4.91-4.58-5-7.45,0-1.93-3-1.93-3,0,.07,4.94,5.28,8.29,7.57,12.36,3.33,5.91,1.56,12.31,3.78,18.54l2.51-1.46-64.9-63.64-9.28-9.1-1.07,2.56a40.46,40.46,0,0,1,35.45,14.35c4.22,5.07,8,9.71,13.23,13.79,4.86,3.79,9.72,7.39,12.38,13.13.81,1.75,3.39.22,2.59-1.52Z"/><path class="cls-18" d="M1251.5,1002.9c42,0,74-34.59,74-76.4l-33,12-35,24-15,15,6,7,3,7v11.4Z"/><rect class="cls-19" x="1352.5" y="345.5" width="204" height="78"/><rect class="cls-19" x="1625.5" y="117.5" width="204" height="78"/><rect class="cls-19" x="1071.5" y="171.5" width="204" height="78"/><rect class="cls-19" x="851.5" y="384.5" width="204" height="78"/><rect class="cls-19" x="536.5" y="156.5" width="204" height="78"/><rect class="cls-19" x="123.5" y="115.5" width="204" height="78"/><rect class="cls-19" x="147.5" y="363.5" width="204" height="78"/><path class="cls-20" d="M174,932c-.06,38.86-32,70.75-70.75,70.75-38.53,0-70.42-31.58-70.75-70.25L61.38,941a27.43,27.43,0,0,0,10.43,1L97.5,939.5l18.77-2.17a12.47,12.47,0,0,1,11.51,5.06h0a8.24,8.24,0,0,0,9.62,2.84l7.1-2.73Z"/><path class="cls-3" d="M822.54,891l-2.76,3.22a23.76,23.76,0,0,0-4.26,7.25L813.15,908A51.17,51.17,0,0,0,810,925.61l.42,12.91a29,29,0,0,0,.57,4.91l2,10.12,0,.1c2.47,6.38,4.46,12.35,9.1,17l6.82,6.82.08.07,12.09,8.64a.64.64,0,0,0,1-.78l-15-34.77a.7.7,0,0,1,0-.25V921.54a.22.22,0,0,1,0-.08l2.28-16.79a29.7,29.7,0,0,1,3.14-9.79l6.89-13.08a.64.64,0,0,0-.74-.91h0A32.33,32.33,0,0,0,822.54,891Z"/><path class="cls-3" d="M443.54,891l-2.76,3.22a23.76,23.76,0,0,0-4.26,7.25L434.15,908A51.17,51.17,0,0,0,431,925.61l.42,12.91a29,29,0,0,0,.57,4.91l2,10.12,0,.1c2.47,6.38,4.46,12.35,9.1,17l6.82,6.82.08.07,12.09,8.64a.64.64,0,0,0,1-.78l-15-34.77a.7.7,0,0,1-.05-.25V921.54a.22.22,0,0,1,0-.08l2.28-16.79a29.7,29.7,0,0,1,3.14-9.79l6.89-13.08a.64.64,0,0,0-.74-.91h0A32.33,32.33,0,0,0,443.54,891Z"/><rect class="cls-21" x="720" y="740" width="91" height="40" rx="12"/><rect class="cls-21" x="334" y="740" width="91" height="40" rx="12"/><rect class="cls-21" x="-34" y="741" width="91" height="40" rx="12"/><rect class="cls-21" x="1094" y="741" width="91" height="40" rx="12"/><g class="cls-5"><rect class="cls-22" x="1377" y="740" width="35" height="35" rx="12"/></g><g class="cls-5"><rect class="cls-22" x="1002" y="740" width="35" height="35" rx="12"/></g><g class="cls-5"><rect class="cls-22" x="621" y="743" width="35" height="35" rx="12"/></g><g class="cls-5"><rect class="cls-22" x="249" y="743" width="35" height="35" rx="12"/></g></svg>
