<svg id="Layer_1" data-name="Layer 1" xmlns="http://www.w3.org/2000/svg" viewBox="0 0 1920 1080"><defs><style>.cls-1{opacity:0.51;}.cls-2{fill:#ff5eac;}.cls-18,.cls-19,.cls-3{fill:#fff;}.cls-14,.cls-4,.cls-6,.cls-8,.cls-9{fill:none;}.cls-10,.cls-11,.cls-14,.cls-4{stroke:#000;}.cls-10,.cls-11,.cls-14,.cls-18,.cls-19,.cls-4,.cls-6,.cls-8,.cls-9{stroke-miterlimit:10;}.cls-4{stroke-width:2px;opacity:0.49;}.cls-18,.cls-21,.cls-5,.cls-8,.cls-9{opacity:0.55;}.cls-6,.cls-8,.cls-9{stroke:#0027c9;}.cls-6,.cls-8{stroke-width:10px;}.cls-7{fill:#b3b3b3;}.cls-10,.cls-14,.cls-9{stroke-width:7px;}.cls-10,.cls-11{fill:#749fff;}.cls-10,.cls-11,.cls-12,.cls-14{opacity:0.38;}.cls-11{stroke-width:6px;}.cls-13{fill:gray;}.cls-15,.cls-17{fill:#ff1d25;}.cls-15{opacity:0.91;}.cls-16{fill:#ed1c24;}.cls-18{stroke:#fff;}.cls-19{stroke:#ccc;}.cls-20{fill:#ff931e;opacity:0.62;}.cls-21,.cls-22{fill:#0027c9;}.cls-23{opacity:0.94;}.cls-24{fill:#e6e6e6;}.cls-25{fill:#ccc;}</style></defs><title>beskrivelse</title><path d="M1778,129a1.5,1.5,0,0,0,0-3,1.5,1.5,0,0,0,0,3Z"/><path d="M1234.41,108.93a1.5,1.5,0,0,0,0-3,1.5,1.5,0,0,0,0,3Z"/><g class="cls-1"><rect class="cls-2" x="6.5" y="413.24" width="1919" height="664.13"/></g><rect class="cls-3" x="4.5" y="627.64" width="1435" height="445.61"/><path d="M1438.5,628.64v443.61H5.5V628.64h1433m2-2H3.5v447.61h1437V626.64Z"/><polyline class="cls-4" points="1441.5 626.12 3.5 626.64 4.5 524.83"/><g class="cls-5"><line class="cls-6" x1="312.5" y1="626.64" x2="314.5" y2="1080.5"/></g><g class="cls-5"><polyline class="cls-6" points="1399.5 590.21 2.5 586.04 1.5 626.64 1440.5 626.64"/><polyline class="cls-7" points="1399.5 590.21 2.5 586.04 1.5 626.64 1440.5 626.64"/></g><line class="cls-8" x1="687.5" y1="626.64" x2="689.5" y2="1074.25"/><line class="cls-8" x1="1065.5" y1="626.64" x2="1063.5" y2="1074.25"/><line class="cls-9" x1="1395" y1="586.56" x2="1440.5" y2="626.64"/><line class="cls-8" x1="1440.5" y1="626.64" x2="1440.5" y2="1074.25"/><ellipse class="cls-10" cx="103.5" cy="850.45" rx="77.5" ry="80.67"/><ellipse class="cls-10" cx="497" cy="847.84" rx="77.5" ry="80.67"/><ellipse class="cls-10" cx="877" cy="849.93" rx="77.5" ry="80.67"/><ellipse class="cls-11" cx="1251" cy="847.84" rx="77.5" ry="80.67"/><g class="cls-12"><path d="M182.63,990.73a1.5,1.5,0,0,0,0-3,1.5,1.5,0,0,0,0,3Z"/></g><g class="cls-12"><path d="M124.3,990.73a1.5,1.5,0,0,0,0-3,1.5,1.5,0,0,0,0,3Z"/></g><g class="cls-12"><path d="M119.81,990.73a1.5,1.5,0,0,0,0-3,1.5,1.5,0,0,0,0,3Z"/></g><g class="cls-12"><path d="M119.81,990.73a1.5,1.5,0,0,0,0-3,1.5,1.5,0,0,0,0,3Z"/></g><rect class="cls-13" x="3.5" y="402.83" width="1920.5" height="14.57"/><ellipse class="cls-14" cx="103" cy="847.84" rx="102" ry="106.18"/><ellipse class="cls-14" cx="497" cy="850.97" rx="102" ry="106.18"/><ellipse class="cls-14" cx="877" cy="849.93" rx="102" ry="106.18"/><ellipse class="cls-14" cx="1251" cy="850.97" rx="102" ry="106.18"/><path class="cls-15" d="M1250.5,925.4c-40.87,0-74-34.49-74-77Z"/><path class="cls-16" d="M1239.77,892.36c-3.51-8.79-12.91-13.08-19.25-19.93-2.81-3-5-6.62-7.71-9.79a40.46,40.46,0,0,0-35.39-14l74.19,75.72a21.17,21.17,0,0,1-1.41-7.76,34.15,34.15,0,0,0,0-5.54,15.13,15.13,0,0,0-1-3.35,34.6,34.6,0,0,0-6.26-9.81c-1.37-1.49-3-3.28-2.56-5.29"/><path class="cls-17" d="M1241.07,891.6c-2.59-5.84-7.22-9.74-12.09-13.68-6.23-5-10.37-11-15.62-16.92a42.25,42.25,0,0,0-35.94-13.87,1.52,1.52,0,0,0-1.06,2.56l64.85,66.19,9.34,9.53a1.51,1.51,0,0,0,2.51-1.46c-1.89-5.51-.36-11.27-2.49-16.65a32,32,0,0,0-2.88-5.54c-1.63-2.56-5.84-6.3-5.88-9.16,0-1.93-3-1.94-3,0,.07,5.08,5.28,8.59,7.57,12.83,3.34,6.17,1.56,12.83,3.78,19.32l2.51-1.46-64.85-66.19-9.33-9.53-1.07,2.56c14.85-1.58,27.95,5.07,36.84,16.78a69.94,69.94,0,0,0,12,12.69c4.84,3.9,9.6,7.69,12.18,13.51.78,1.76,3.36.24,2.59-1.51Z"/><path class="cls-18" d="M1252,924.26c42,0,74-36,74-79.54l-33,12.49-35,25-15,15.61,6,7.29,3,7.28v11.88Z"/><rect class="cls-19" x="1353" y="239.92" width="204" height="81.2"/><rect class="cls-19" x="1626" y="2.58" width="204" height="81.2"/><rect class="cls-19" x="1072" y="58.79" width="204" height="81.2"/><rect class="cls-19" x="852" y="280.52" width="204" height="81.2"/><rect class="cls-19" x="537" y="43.18" width="204" height="81.2"/><rect class="cls-19" x="124" y="0.5" width="204" height="81.2"/><rect class="cls-19" x="148" y="258.66" width="204" height="81.2"/><path class="cls-20" d="M174.5,850.45c-.06,40.45-32,73.64-70.75,73.65C65.22,924.1,33.33,891.22,33,851l28.88,8.84a26.31,26.31,0,0,0,10.43,1L98,858.25,116.77,856a12.24,12.24,0,0,1,11.51,5.26h0a8.05,8.05,0,0,0,9.62,3l7.1-2.84Z"/><path class="cls-3" d="M823,807.81l-2.76,3.35a25,25,0,0,0-4.26,7.55l-2.37,6.7a55.24,55.24,0,0,0-3.15,18.39l.42,13.43a31.47,31.47,0,0,0,.57,5.12l2,10.53,0,.11c2.47,6.64,4.46,12.85,9.1,17.68l6.82,7.1.08.07,12.09,9a.65.65,0,0,0,1-.8l-15-36.2a.75.75,0,0,1,0-.26v-30a.28.28,0,0,1,0-.09L829.79,822a31.77,31.77,0,0,1,3.14-10.19l6.89-13.62a.66.66,0,0,0-.74-1h0A32.22,32.22,0,0,0,823,807.81Z"/><path class="cls-3" d="M444,807.81l-2.76,3.35a25,25,0,0,0-4.26,7.55l-2.37,6.7a55.24,55.24,0,0,0-3.15,18.39l.42,13.43a31.47,31.47,0,0,0,.57,5.12l2,10.53,0,.11c2.47,6.64,4.46,12.85,9.1,17.68l6.82,7.1.08.07,12.09,9a.65.65,0,0,0,1-.8l-15-36.2a.75.75,0,0,1-.05-.26v-30a.28.28,0,0,1,0-.09L450.79,822a31.77,31.77,0,0,1,3.14-10.19l6.89-13.62a.66.66,0,0,0-.74-1h0A32.22,32.22,0,0,0,444,807.81Z"/><rect class="cls-21" x="720.5" y="650.58" width="91" height="41.64" rx="12"/><rect class="cls-21" x="334.5" y="650.58" width="91" height="41.64" rx="12"/><rect class="cls-21" x="-33.5" y="651.62" width="91" height="41.64" rx="12"/><rect class="cls-21" x="1094.5" y="651.62" width="91" height="41.64" rx="12"/><g class="cls-5"><rect class="cls-22" x="1377.5" y="650.58" width="35" height="36.43" rx="12"/></g><g class="cls-5"><rect class="cls-22" x="1002.5" y="650.58" width="35" height="36.43" rx="12"/></g><g class="cls-5"><rect class="cls-22" x="621.5" y="653.7" width="35" height="36.43" rx="12"/></g><g class="cls-5"><rect class="cls-22" x="249.5" y="653.7" width="35" height="36.43" rx="12"/></g><g class="cls-23"><rect class="cls-24" x="228.5" y="84.5" width="1452" height="881" rx="329.04"/></g><path d="M417.28,205.27,451,202.83l-1.89,15.86-15.37.61-.67,4.76,12.81-.79.85,12.81-12.87.79-.61,15.62-15.55.36Z"/><path d="M469.62,248.4h-.12a8.67,8.67,0,0,1-4.18,3.23,16,16,0,0,1-5.46.92,12.32,12.32,0,0,1-4.64-.89,11.41,11.41,0,0,1-3.84-2.53,12.27,12.27,0,0,1-2.62-4,13.3,13.3,0,0,1-1-5.19,10.78,10.78,0,0,1,1-4.6,11.39,11.39,0,0,1,2.65-3.66,12.21,12.21,0,0,1,4-2.44,13.63,13.63,0,0,1,5-.89,12.13,12.13,0,0,1,4.72.82,14.86,14.86,0,0,1,3.27,1.87v-1.83c0-1.87-.61-3.12-1.83-3.73a10.68,10.68,0,0,0-4.76-.91,21.4,21.4,0,0,0-5,.55c-1.55.36-3.11.79-4.7,1.28l2.38-9.7a35.22,35.22,0,0,1,6.1-1.19,62.39,62.39,0,0,1,6.47-.34,24.4,24.4,0,0,1,5.85.71,13.87,13.87,0,0,1,5,2.29,11.24,11.24,0,0,1,3.45,4.08,13,13,0,0,1,1.22,6.16l-.67,23.06-12.26,1Zm-7.75-11.29a6.75,6.75,0,0,0-3.41,1.44,2.72,2.72,0,0,0-1.16,2.53,2.78,2.78,0,0,0,1.74,2.1,6.7,6.7,0,0,0,3.87.34,6.19,6.19,0,0,0,3.54-1.53,2.73,2.73,0,0,0,.91-2.5,2.9,2.9,0,0,0-1.55-2A5.85,5.85,0,0,0,461.87,237.11Z"/><path d="M499.51,221.19h.24a11.27,11.27,0,0,1,4.12-3.72,10.81,10.81,0,0,1,4.6-1,10.54,10.54,0,0,1,4.52.91,9.3,9.3,0,0,1,3.29,2.56,11.56,11.56,0,0,1,2.05,3.85,15.76,15.76,0,0,1,.7,4.75v23.61l-13.18,1.1.19-22.2a2.13,2.13,0,0,0-.83-1.83,3.19,3.19,0,0,0-2.1-.74,3.5,3.5,0,0,0-2.11.7,2.27,2.27,0,0,0-.94,1.93l.24,22-13-.92-.49-34.71,12.69-1Z"/><path d="M527,251.57a39.44,39.44,0,0,0,4.3,1.22,20,20,0,0,0,4.48.49,16,16,0,0,0,2-.12,5.53,5.53,0,0,0,1.77-.52,3.26,3.26,0,0,0,1.28-1.1,3.17,3.17,0,0,0,.49-1.86,3.07,3.07,0,0,0-.58-1.92,3.93,3.93,0,0,0-1.58-1.22,7.55,7.55,0,0,0-2.29-.61,22.5,22.5,0,0,0-2.62-.15,12.28,12.28,0,0,0-3.24.45,16.53,16.53,0,0,0-3.05,1.19l1.16-3.66a15.25,15.25,0,0,1-6.25-5.33,14.59,14.59,0,0,1-2.23-8.21,15.3,15.3,0,0,1,.95-5.15,14.16,14.16,0,0,1,3-4.85,15.3,15.3,0,0,1,5.12-3.6,17.93,17.93,0,0,1,7.44-1.41,21.65,21.65,0,0,1,3.85.31,24,24,0,0,1,3.11.79l1-6.4,9.76,4.21-3.17,6.22a12.64,12.64,0,0,1,3,4.36,13.9,13.9,0,0,1,1,5.28,13,13,0,0,1-1.56,6.56,14.13,14.13,0,0,1-4.6,4.72,10.92,10.92,0,0,1,6,10.13,11.64,11.64,0,0,1-1.4,5.76,12,12,0,0,1-4,4.24,19.58,19.58,0,0,1-6.22,2.59,34.12,34.12,0,0,1-8.08.89,36.89,36.89,0,0,1-8.91-.91c-2.35-.62-4.27-1.17-5.73-1.65Zm11.77-17.14a5.13,5.13,0,0,0,3.11-1.71,3.32,3.32,0,0,0,.73-2.86,3.28,3.28,0,0,0-1.86-2.32,5.29,5.29,0,0,0-3.5-.31,5.47,5.47,0,0,0-3.11,1.77,3.33,3.33,0,0,0,1.06,5.16A5.07,5.07,0,0,0,538.79,234.43Z"/><path d="M579.75,241.26a19.72,19.72,0,0,0,3.63.31l1.8,0a9.61,9.61,0,0,0,1.71-.19,3.37,3.37,0,0,0,1.28-.51,1.28,1.28,0,0,0,.52-1.1,1.46,1.46,0,0,0-1-1.37,16.71,16.71,0,0,0-2.32-.89c-.91-.28-1.92-.62-3-1a9.71,9.71,0,0,1-3-1.7,9.13,9.13,0,0,1-2.32-3,11.1,11.1,0,0,1-1-4.95,10.41,10.41,0,0,1,.8-4,9.54,9.54,0,0,1,2.56-3.54,13.41,13.41,0,0,1,4.57-2.56,20.73,20.73,0,0,1,6.77-1c1,0,2,0,3,.13s2,.19,2.9.33l2.53.43q1.16.21,2,.39v10.74c-1-.24-2-.45-3-.61a19.77,19.77,0,0,0-3.18-.24l-1.16,0a10.77,10.77,0,0,0-1.58.18,4.24,4.24,0,0,0-1.4.52,1.09,1.09,0,0,0-.61,1,1.56,1.56,0,0,0,1,1.47,14.09,14.09,0,0,0,2.41.91c1,.29,2,.64,3.14,1a11.1,11.1,0,0,1,3.14,1.74,9,9,0,0,1,2.41,3,10.79,10.79,0,0,1,1,4.94,9.87,9.87,0,0,1-1.43,5.49,10.66,10.66,0,0,1-3.79,3.51,17.41,17.41,0,0,1-5.39,1.86,36.42,36.42,0,0,1-6.35.55,41.67,41.67,0,0,1-5-.31,36.62,36.62,0,0,1-5-1V240.47A32,32,0,0,0,579.75,241.26Z"/><path d="M624.07,248.4H624a8.63,8.63,0,0,1-4.18,3.23,16,16,0,0,1-5.46.92,12.32,12.32,0,0,1-4.64-.89,11.41,11.41,0,0,1-3.84-2.53,12.27,12.27,0,0,1-2.62-4,13.3,13.3,0,0,1-1-5.19,10.78,10.78,0,0,1,1-4.6,11.39,11.39,0,0,1,2.65-3.66,12.27,12.27,0,0,1,4-2.44,13.73,13.73,0,0,1,5-.89,12.13,12.13,0,0,1,4.72.82,14.86,14.86,0,0,1,3.27,1.87v-1.83c0-1.87-.61-3.12-1.83-3.73a10.68,10.68,0,0,0-4.76-.91,21.4,21.4,0,0,0-5,.55c-1.55.36-3.11.79-4.7,1.28l2.38-9.7a35.22,35.22,0,0,1,6.1-1.19,62.39,62.39,0,0,1,6.47-.34,24.4,24.4,0,0,1,5.85.71,13.87,13.87,0,0,1,5,2.29,11.24,11.24,0,0,1,3.45,4.08,13,13,0,0,1,1.22,6.16l-.67,23.06-12.26,1Zm-7.75-11.29a6.75,6.75,0,0,0-3.41,1.44,2.72,2.72,0,0,0-1.16,2.53,2.78,2.78,0,0,0,1.73,2.1,6.74,6.74,0,0,0,3.88.34A6.19,6.19,0,0,0,620.9,242a2.73,2.73,0,0,0,.91-2.5,2.9,2.9,0,0,0-1.55-2A5.85,5.85,0,0,0,616.32,237.11Z"/><path d="M660.85,248.4h-.12a8.63,8.63,0,0,1-4.18,3.23,16,16,0,0,1-5.46.92,12.23,12.23,0,0,1-4.63-.89,11.36,11.36,0,0,1-3.85-2.53,12.27,12.27,0,0,1-2.62-4,13.3,13.3,0,0,1-1-5.19,10.78,10.78,0,0,1,1-4.6,11.39,11.39,0,0,1,2.65-3.66,12.21,12.21,0,0,1,4-2.44,13.63,13.63,0,0,1,5-.89,12.19,12.19,0,0,1,4.73.82,14.77,14.77,0,0,1,3.26,1.87v-1.83c0-1.87-.61-3.12-1.83-3.73a10.68,10.68,0,0,0-4.76-.91,21.46,21.46,0,0,0-5,.55c-1.55.36-3.11.79-4.7,1.28l2.38-9.7a35.4,35.4,0,0,1,6.1-1.19,62.53,62.53,0,0,1,6.47-.34,24.4,24.4,0,0,1,5.85.71,13.92,13.92,0,0,1,5,2.29,11.32,11.32,0,0,1,3.44,4.08,12.87,12.87,0,0,1,1.22,6.16l-.67,23.06-12.26,1Zm-7.75-11.29a6.75,6.75,0,0,0-3.41,1.44,2.74,2.74,0,0,0-1.16,2.53,2.78,2.78,0,0,0,1.74,2.1,6.7,6.7,0,0,0,3.87.34,6.13,6.13,0,0,0,3.54-1.53,2.71,2.71,0,0,0,.91-2.5,2.9,2.9,0,0,0-1.55-2A5.85,5.85,0,0,0,653.1,237.11Z"/><path d="M734.54,230.83a2.38,2.38,0,0,0-.86-1.89,3.33,3.33,0,0,0-2.25-.73,3,3,0,0,0-2.32.91,2.77,2.77,0,0,0-.86,1.89l.37,20.87L715.38,253l.25-22a2.3,2.3,0,0,0-.86-2,3.83,3.83,0,0,0-4.54,0,2.28,2.28,0,0,0-1,2.07l.61,22-12.81-1.1-.73-34.71,12.45-1.1v5.61h.12a15.59,15.59,0,0,1,4.42-4.12,11.35,11.35,0,0,1,5.95-1.49,11.64,11.64,0,0,1,4.79.88,10.2,10.2,0,0,1,3.5,2.78,13.1,13.1,0,0,1,3.6-2.65,9.88,9.88,0,0,1,4.46-1,11.76,11.76,0,0,1,4.85,1,9.7,9.7,0,0,1,3.53,2.65,12.09,12.09,0,0,1,2.2,4,16.67,16.67,0,0,1,.82,4.91l.37,23.25L734.17,253Z"/><path d="M770.28,248.4h-.12a8.63,8.63,0,0,1-4.18,3.23,15.92,15.92,0,0,1-5.46.92,12.27,12.27,0,0,1-4.63-.89,11.36,11.36,0,0,1-3.85-2.53,12.44,12.44,0,0,1-2.62-4,13.3,13.3,0,0,1-1-5.19,10.78,10.78,0,0,1,1-4.6,11.42,11.42,0,0,1,2.66-3.66,12.16,12.16,0,0,1,4-2.44,13.63,13.63,0,0,1,5-.89,12.19,12.19,0,0,1,4.73.82,14.54,14.54,0,0,1,3.26,1.87v-1.83c0-1.87-.61-3.12-1.83-3.73a10.65,10.65,0,0,0-4.76-.91,21.46,21.46,0,0,0-5,.55c-1.54.36-3.11.79-4.69,1.28l2.37-9.7a35.52,35.52,0,0,1,6.11-1.19,62.19,62.19,0,0,1,6.46-.34,24.54,24.54,0,0,1,5.86.71,13.87,13.87,0,0,1,5,2.29,11.44,11.44,0,0,1,3.45,4.08,13,13,0,0,1,1.22,6.16l-.68,23.06-12.26,1Zm-7.74-11.29a6.75,6.75,0,0,0-3.42,1.44,2.59,2.59,0,0,0,.58,4.63,6.72,6.72,0,0,0,3.87.34,6.13,6.13,0,0,0,3.54-1.53,2.74,2.74,0,0,0,.92-2.5,2.92,2.92,0,0,0-1.56-2A5.82,5.82,0,0,0,762.54,237.11Z"/><path d="M800.17,221.19h.25a11.2,11.2,0,0,1,4.12-3.72,10.78,10.78,0,0,1,4.6-1,10.5,10.5,0,0,1,4.51.91A9.34,9.34,0,0,1,817,220a11.72,11.72,0,0,1,2,3.85,15.45,15.45,0,0,1,.7,4.75v23.61l-13.17,1.1.18-22.2a2.1,2.1,0,0,0-.82-1.83,3.19,3.19,0,0,0-2.11-.74,3.49,3.49,0,0,0-2.1.7,2.28,2.28,0,0,0-.95,1.93l.25,22-13-.92-.48-34.71,12.68-1Z"/><path d="M827.68,251.57a40.08,40.08,0,0,0,4.3,1.22,20.13,20.13,0,0,0,4.49.49,16,16,0,0,0,1.95-.12,5.53,5.53,0,0,0,1.77-.52,3.33,3.33,0,0,0,1.28-1.1,3.25,3.25,0,0,0,.49-1.86,3.13,3.13,0,0,0-.58-1.92,4,4,0,0,0-1.59-1.22,7.47,7.47,0,0,0-2.29-.61,22.37,22.37,0,0,0-2.62-.15,12.21,12.21,0,0,0-3.23.45,16.26,16.26,0,0,0-3,1.19l1.16-3.66a15.19,15.19,0,0,1-6.25-5.33,14.59,14.59,0,0,1-2.23-8.21,15.28,15.28,0,0,1,.94-5.15,14.16,14.16,0,0,1,3-4.85,15.24,15.24,0,0,1,5.13-3.6,17.89,17.89,0,0,1,7.44-1.41,21.61,21.61,0,0,1,3.84.31,23.16,23.16,0,0,1,3.11.79l1-6.4,9.76,4.21-3.17,6.22a12.64,12.64,0,0,1,3,4.36,13.9,13.9,0,0,1,1,5.28,13.07,13.07,0,0,1-1.55,6.56,14.26,14.26,0,0,1-4.61,4.72,10.91,10.91,0,0,1,6,10.13,11.75,11.75,0,0,1-1.4,5.76,12.07,12.07,0,0,1-4,4.24,19.68,19.68,0,0,1-6.22,2.59,34.12,34.12,0,0,1-8.08.89,36.89,36.89,0,0,1-8.91-.91q-3.54-.93-5.73-1.65Zm11.78-17.14a5.13,5.13,0,0,0,3.11-1.71,3.36,3.36,0,0,0,.73-2.86,3.28,3.28,0,0,0-1.86-2.32,5.33,5.33,0,0,0-3.51-.31,5.5,5.5,0,0,0-3.11,1.77,3.25,3.25,0,0,0-.73,2.81,3.19,3.19,0,0,0,1.8,2.35A5.06,5.06,0,0,0,839.46,234.43Z"/><path d="M892.71,248a26.1,26.1,0,0,1-7.63,3.88,30.86,30.86,0,0,1-9,1.19,19.53,19.53,0,0,1-7.6-1.44,18.39,18.39,0,0,1-5.94-3.87,17.72,17.72,0,0,1-3.91-5.7,17.48,17.48,0,0,1-1.4-6.93,21.64,21.64,0,0,1,1.46-8.17,18.25,18.25,0,0,1,4-6.1,16.8,16.8,0,0,1,5.82-3.81,19.12,19.12,0,0,1,7.11-1.32,18,18,0,0,1,10.58,3.12,18.7,18.7,0,0,1,6.68,8.29L874.65,240.9a4.92,4.92,0,0,0,1.77.48,16.61,16.61,0,0,0,2,.13,10.08,10.08,0,0,0,4.72-1,17.47,17.47,0,0,0,3.51-2.41Zm-13.05-20a4.36,4.36,0,0,0-1.87-1.41,6.73,6.73,0,0,0-2.28-.36,4.73,4.73,0,0,0-2.23.52,5.46,5.46,0,0,0-1.74,1.4,6.61,6.61,0,0,0-1.52,4.24,5.53,5.53,0,0,0,.15,1.55,6.24,6.24,0,0,0,.4.95Z"/><path d="M925.71,216.07v4.15a13.22,13.22,0,0,1,4.06-3.14,11.43,11.43,0,0,1,5-1,13.92,13.92,0,0,1,6.68,1.62,16.31,16.31,0,0,1,5.12,4.24,20,20,0,0,1,3.27,5.94,20.66,20.66,0,0,1-.07,13.79,19.3,19.3,0,0,1-3.44,6,17.28,17.28,0,0,1-5.34,4.21,14.89,14.89,0,0,1-6.83,1.58,16.37,16.37,0,0,1-4.06-.55,8.47,8.47,0,0,1-3.87-2.19l.36,12.14L913.75,264l-.67-46.79Zm8.3,23.61a7,7,0,0,0,3.69-3.6,5.15,5.15,0,0,0-3.36-7.11,7,7,0,0,0-5.09.58,7.32,7.32,0,0,0-3.79,3.63,5.24,5.24,0,0,0,1.41,6.1,5.31,5.31,0,0,0,2,1,7,7,0,0,0,2.44.18A8.18,8.18,0,0,0,934,239.68Z"/><path d="M984.88,248a26.1,26.1,0,0,1-7.63,3.88,30.86,30.86,0,0,1-9,1.19,19.53,19.53,0,0,1-7.6-1.44,18.39,18.39,0,0,1-5.94-3.87,17.72,17.72,0,0,1-3.91-5.7,17.48,17.48,0,0,1-1.4-6.93A21.64,21.64,0,0,1,950.9,227a18.25,18.25,0,0,1,4-6.1,16.8,16.8,0,0,1,5.82-3.81,19.12,19.12,0,0,1,7.11-1.32,18,18,0,0,1,10.58,3.12,18.7,18.7,0,0,1,6.68,8.29L966.82,240.9a4.92,4.92,0,0,0,1.77.48,16.61,16.61,0,0,0,2,.13,10.08,10.08,0,0,0,4.72-1,17.47,17.47,0,0,0,3.51-2.41Zm-13-20a4.36,4.36,0,0,0-1.87-1.41,6.73,6.73,0,0,0-2.28-.36,4.73,4.73,0,0,0-2.23.52,5.46,5.46,0,0,0-1.74,1.4,6.61,6.61,0,0,0-1.52,4.24,5.53,5.53,0,0,0,.15,1.55,6.24,6.24,0,0,0,.4.95Z"/><path d="M999.4,221.19h.24a11.27,11.27,0,0,1,4.12-3.72,10.81,10.81,0,0,1,4.6-1,10.54,10.54,0,0,1,4.52.91,9.3,9.3,0,0,1,3.29,2.56,11.56,11.56,0,0,1,2.05,3.85,15.76,15.76,0,0,1,.7,4.75v23.61l-13.18,1.1.18-22.2a2.1,2.1,0,0,0-.82-1.83,3.19,3.19,0,0,0-2.1-.74,3.5,3.5,0,0,0-2.11.7,2.27,2.27,0,0,0-.94,1.93l.24,22-13-.92-.49-34.71,12.69-1Z"/><path d="M1026.91,251.57a38.81,38.81,0,0,0,4.3,1.22,20,20,0,0,0,4.48.49,16,16,0,0,0,2-.12,5.53,5.53,0,0,0,1.77-.52,3.26,3.26,0,0,0,1.28-1.1,3.17,3.17,0,0,0,.49-1.86,3.07,3.07,0,0,0-.58-1.92,4,4,0,0,0-1.58-1.22,7.63,7.63,0,0,0-2.29-.61,22.67,22.67,0,0,0-2.63-.15,12.26,12.26,0,0,0-3.23.45,16.53,16.53,0,0,0-3,1.19l1.16-3.66a15.25,15.25,0,0,1-6.25-5.33,14.59,14.59,0,0,1-2.23-8.21,15.3,15.3,0,0,1,1-5.15,14,14,0,0,1,3-4.85,15.3,15.3,0,0,1,5.12-3.6,17.89,17.89,0,0,1,7.44-1.41,21.45,21.45,0,0,1,3.84.31,23.7,23.7,0,0,1,3.12.79l1-6.4,9.76,4.21-3.17,6.22a12.64,12.64,0,0,1,3,4.36,13.9,13.9,0,0,1,1,5.28,13,13,0,0,1-1.56,6.56,14.17,14.17,0,0,1-4.61,4.72,10.91,10.91,0,0,1,6,10.13,11.64,11.64,0,0,1-1.4,5.76,12.07,12.07,0,0,1-4,4.24,19.58,19.58,0,0,1-6.22,2.59,34.12,34.12,0,0,1-8.08.89,36.89,36.89,0,0,1-8.91-.91c-2.35-.62-4.27-1.17-5.73-1.65Zm11.77-17.14a5.13,5.13,0,0,0,3.11-1.71,3.32,3.32,0,0,0,.73-2.86,3.28,3.28,0,0,0-1.86-2.32,5.31,5.31,0,0,0-3.51-.31A5.5,5.5,0,0,0,1034,229a3.28,3.28,0,0,0-.73,2.81,3.19,3.19,0,0,0,1.8,2.35A5.07,5.07,0,0,0,1038.68,234.43Z"/><path d="M1091.93,248a26.17,26.17,0,0,1-7.62,3.88,31,31,0,0,1-9,1.19,19.44,19.44,0,0,1-7.59-1.44,18.44,18.44,0,0,1-6-3.87,17.72,17.72,0,0,1-3.91-5.7,17.48,17.48,0,0,1-1.4-6.93A21.44,21.44,0,0,1,1058,227a18.08,18.08,0,0,1,4-6.1,16.84,16.84,0,0,1,5.83-3.81,19,19,0,0,1,7.1-1.32,18.08,18.08,0,0,1,10.59,3.12,18.83,18.83,0,0,1,6.68,8.29l-18.24,13.73a4.81,4.81,0,0,0,1.77.48,16.46,16.46,0,0,0,2,.13,10.15,10.15,0,0,0,4.73-1,17.4,17.4,0,0,0,3.5-2.41Zm-13-20a4.4,4.4,0,0,0-1.86-1.41,6.79,6.79,0,0,0-2.29-.36,4.76,4.76,0,0,0-2.23.52,5.46,5.46,0,0,0-1.74,1.4,6.67,6.67,0,0,0-1.12,2,6.49,6.49,0,0,0-.4,2.26,5.53,5.53,0,0,0,.15,1.55,7.45,7.45,0,0,0,.4.95Z"/><path d="M1096.23,241.26a19.72,19.72,0,0,0,3.63.31l1.8,0a9.61,9.61,0,0,0,1.71-.19,3.37,3.37,0,0,0,1.28-.51,1.25,1.25,0,0,0,.52-1.1,1.46,1.46,0,0,0-1-1.37,17,17,0,0,0-2.31-.89c-.92-.28-1.93-.62-3-1a9.71,9.71,0,0,1-3-1.7,9.13,9.13,0,0,1-2.32-3,11.1,11.1,0,0,1-1-4.95,10.41,10.41,0,0,1,.8-4,9.54,9.54,0,0,1,2.56-3.54,13.41,13.41,0,0,1,4.57-2.56,20.73,20.73,0,0,1,6.77-1c1,0,2,0,3,.13s2,.19,2.9.33l2.53.43c.77.14,1.43.27,2,.39v10.74c-1-.24-2-.45-3-.61a19.77,19.77,0,0,0-3.18-.24l-1.15,0a10.75,10.75,0,0,0-1.59.18,4.24,4.24,0,0,0-1.4.52,1.09,1.09,0,0,0-.61,1,1.56,1.56,0,0,0,1,1.47,14.43,14.43,0,0,0,2.41.91c1,.29,2,.64,3.14,1a11.1,11.1,0,0,1,3.14,1.74,9,9,0,0,1,2.41,3,10.79,10.79,0,0,1,1,4.94,9.87,9.87,0,0,1-1.43,5.49,10.66,10.66,0,0,1-3.79,3.51,17.41,17.41,0,0,1-5.39,1.86,36.42,36.42,0,0,1-6.35.55,41.67,41.67,0,0,1-5-.31,36.93,36.93,0,0,1-5-1V240.47A32,32,0,0,0,1096.23,241.26Z"/><path d="M1154,248a26.1,26.1,0,0,1-7.63,3.88,30.86,30.86,0,0,1-9,1.19,19.53,19.53,0,0,1-7.6-1.44,18.39,18.39,0,0,1-5.94-3.87,17.72,17.72,0,0,1-3.91-5.7,17.48,17.48,0,0,1-1.4-6.93,21.64,21.64,0,0,1,1.46-8.17,18.25,18.25,0,0,1,4-6.1,16.8,16.8,0,0,1,5.82-3.81,19.12,19.12,0,0,1,7.11-1.32,18,18,0,0,1,10.58,3.12,18.7,18.7,0,0,1,6.68,8.29L1136,240.9a4.92,4.92,0,0,0,1.77.48,16.61,16.61,0,0,0,2,.13,10.08,10.08,0,0,0,4.72-1,17.47,17.47,0,0,0,3.51-2.41Zm-13-20a4.4,4.4,0,0,0-1.86-1.41,6.84,6.84,0,0,0-2.29-.36,4.73,4.73,0,0,0-2.23.52,5.46,5.46,0,0,0-1.74,1.4,6.93,6.93,0,0,0-1.13,2,6.72,6.72,0,0,0-.39,2.26,5.53,5.53,0,0,0,.15,1.55,6.24,6.24,0,0,0,.4.95Z"/><path d="M1190.87,252.12l-11.95.79v-3.47h-.13a8.19,8.19,0,0,1-4,2.83,15.38,15.38,0,0,1-5.09.89,15.06,15.06,0,0,1-6-1.25,16,16,0,0,1-5.16-3.6,17.57,17.57,0,0,1-3.6-5.77,21.11,21.11,0,0,1-1.34-7.74,23.47,23.47,0,0,1,1.13-7.35,18.41,18.41,0,0,1,3.26-6,15.34,15.34,0,0,1,5.28-4.09,16.45,16.45,0,0,1,7.17-1.49,14.9,14.9,0,0,1,3.9.51,8.44,8.44,0,0,1,3.3,1.74l-.55-14.52,14-1.09ZM1174,240a6.71,6.71,0,0,0,2.25-1.31,6.54,6.54,0,0,0,1.44-1.83,5.24,5.24,0,0,0,.58-2.1,5.35,5.35,0,0,0-.31-2.14,5.08,5.08,0,0,0-1.13-1.77,5.7,5.7,0,0,0-1.8-1.25,6.45,6.45,0,0,0-2.28-.52,6.76,6.76,0,0,0-2.6.43,6.51,6.51,0,0,0-2.31,1.34,7,7,0,0,0-1.44,1.86,5.34,5.34,0,0,0-.58,2.14,5,5,0,0,0,.31,2.1,4.7,4.7,0,0,0,1.13,1.8A5.56,5.56,0,0,0,1169,240a5.85,5.85,0,0,0,2.28.49A7.46,7.46,0,0,0,1174,240Z"/><path d="M1196.79,204.05l13.79-1.09-.55,49.1-12.81,1.1Z"/><path d="M1247.66,248a26.17,26.17,0,0,1-7.62,3.88,30.93,30.93,0,0,1-9,1.19,19.44,19.44,0,0,1-7.59-1.44,18.55,18.55,0,0,1-6-3.87,17.72,17.72,0,0,1-3.91-5.7,17.48,17.48,0,0,1-1.4-6.93,21.44,21.44,0,0,1,1.47-8.17,18.08,18.08,0,0,1,4-6.1,16.84,16.84,0,0,1,5.83-3.81,19,19,0,0,1,7.1-1.32,18.08,18.08,0,0,1,10.59,3.12,18.76,18.76,0,0,1,6.68,8.29l-18.24,13.73a4.81,4.81,0,0,0,1.77.48,16.46,16.46,0,0,0,2,.13,10.15,10.15,0,0,0,4.73-1,17.13,17.13,0,0,0,3.5-2.41Zm-13.05-20a4.4,4.4,0,0,0-1.86-1.41,6.79,6.79,0,0,0-2.29-.36,4.79,4.79,0,0,0-2.23.52,5.32,5.32,0,0,0-1.73,1.4,6.69,6.69,0,0,0-1.53,4.24,5.53,5.53,0,0,0,.15,1.55,7.45,7.45,0,0,0,.4.95Z"/><path d="M1261.81,216.07v6.77h.13q1.57-6.76,9.15-6.77a25.65,25.65,0,0,1,3.11.18l-3.17,13a6.61,6.61,0,0,0-.92-.07h-1.22a6.37,6.37,0,0,0-4.42,1.68q-1.86,1.68-1.86,5.28v15.68l-12.81,1.09-.37-35.74Z"/><path d="M1328.3,252.12l-12,.79v-3.47h-.13a8.19,8.19,0,0,1-4,2.83,15.38,15.38,0,0,1-5.09.89,15.06,15.06,0,0,1-6-1.25,16,16,0,0,1-5.16-3.6,17.57,17.57,0,0,1-3.6-5.77,21.11,21.11,0,0,1-1.34-7.74,23.47,23.47,0,0,1,1.13-7.35,18.41,18.41,0,0,1,3.26-6,15.34,15.34,0,0,1,5.28-4.09,16.42,16.42,0,0,1,7.17-1.49,14.9,14.9,0,0,1,3.9.51,8.44,8.44,0,0,1,3.3,1.74l-.55-14.52,14-1.09ZM1311.41,240a6.71,6.71,0,0,0,2.25-1.31,6.54,6.54,0,0,0,1.44-1.83,5.41,5.41,0,0,0,.58-2.1,5.35,5.35,0,0,0-.31-2.14,5.08,5.08,0,0,0-1.13-1.77,5.7,5.7,0,0,0-1.8-1.25,6.45,6.45,0,0,0-2.28-.52,6.76,6.76,0,0,0-2.6.43,6.51,6.51,0,0,0-2.31,1.34,6.76,6.76,0,0,0-1.44,1.86,5.34,5.34,0,0,0-.58,2.14,5,5,0,0,0,.31,2.1,4.7,4.7,0,0,0,1.13,1.8,5.63,5.63,0,0,0,1.79,1.22,5.94,5.94,0,0,0,2.29.49A7.46,7.46,0,0,0,1311.41,240Z"/><path d="M1354.17,247.18H1354a8.36,8.36,0,0,1-3.81,4.76,12.62,12.62,0,0,1-6.07,1.4,10.26,10.26,0,0,1-7.41-2.71c-1.89-1.81-2.84-4.45-2.84-7.9V217.11l13.61-1.1-.37,22.57a2.56,2.56,0,0,0,.64,2.1,3.13,3.13,0,0,0,2.17.64,3.06,3.06,0,0,0,2-.61,2.35,2.35,0,0,0,.7-2.07l-.36-21.53,14-1.1-.91,36.29-11.22.49Z"/><path d="M1388.2,204.05l13.85-1.09-1.22,25.74h.12l5.8-12.39,13.48,1.1-7.93,15.37,9.15,14.1-12.69,6.28-7.93-15.31h-.12l.48,14.21-12.68,1.1Z"/><path d="M1443,248.4h-.12a8.63,8.63,0,0,1-4.18,3.23,16,16,0,0,1-5.46.92,12.32,12.32,0,0,1-4.64-.89,11.41,11.41,0,0,1-3.84-2.53,12.27,12.27,0,0,1-2.62-4,13.3,13.3,0,0,1-1-5.19,10.78,10.78,0,0,1,1-4.6,11.39,11.39,0,0,1,2.65-3.66,12.21,12.21,0,0,1,4-2.44,13.63,13.63,0,0,1,5-.89,12.13,12.13,0,0,1,4.72.82,14.86,14.86,0,0,1,3.27,1.87v-1.83c0-1.87-.61-3.12-1.83-3.73a10.68,10.68,0,0,0-4.76-.91,21.4,21.4,0,0,0-5,.55c-1.55.36-3.11.79-4.7,1.28l2.38-9.7a35.22,35.22,0,0,1,6.1-1.19,62.39,62.39,0,0,1,6.47-.34,24.4,24.4,0,0,1,5.85.71,13.87,13.87,0,0,1,5,2.29,11.24,11.24,0,0,1,3.45,4.08,13,13,0,0,1,1.22,6.16l-.67,23.06-12.26,1Zm-7.75-11.29a6.75,6.75,0,0,0-3.41,1.44,2.72,2.72,0,0,0-1.16,2.53,2.78,2.78,0,0,0,1.73,2.1,6.74,6.74,0,0,0,3.88.34,6.19,6.19,0,0,0,3.54-1.53,2.73,2.73,0,0,0,.91-2.5,2.9,2.9,0,0,0-1.55-2A5.85,5.85,0,0,0,1435.23,237.11Z"/><path d="M1472.87,221.19h.24a11.35,11.35,0,0,1,4.12-3.72,10.82,10.82,0,0,1,4.61-1,10.53,10.53,0,0,1,4.51.91,9.3,9.3,0,0,1,3.29,2.56,11.56,11.56,0,0,1,2,3.85,15.76,15.76,0,0,1,.7,4.75v23.61l-13.18,1.1.19-22.2a2.1,2.1,0,0,0-.83-1.83,3.19,3.19,0,0,0-2.1-.74,3.5,3.5,0,0,0-2.11.7,2.27,2.27,0,0,0-.94,1.93l.24,22-13-.92-.49-34.71,12.69-1Z"/><path d="M1497,250.66l.43-5.19,6.4.37-1.22,6.4Z"/><path d="M435.15,368.33c1.26.56,2.56,1.21,3.88,1.95a16.53,16.53,0,0,1,3.6,2.68,13.59,13.59,0,0,1,2.68,3.81,13.42,13.42,0,0,1,1.19,5.28,16.11,16.11,0,0,1-1.4,7.66,15.79,15.79,0,0,1-4.49,5.61,21.42,21.42,0,0,1-6.92,3.54,33.59,33.59,0,0,1-8.66,1.43,29.79,29.79,0,0,1-4.39-.21,37.26,37.26,0,0,1-4.46-.83,39.88,39.88,0,0,1-4.27-1.31q-2.07-.76-3.9-1.62l4.63-13.05c.61.24,1.35.56,2.2,1a29.21,29.21,0,0,0,2.75,1.06c1,.33,2,.61,3.05.86a11.85,11.85,0,0,0,3.11.3,11.1,11.1,0,0,0,3.81-.79,2.21,2.21,0,0,0,1.49-2.26,1.84,1.84,0,0,0-1.06-1.58,19.92,19.92,0,0,0-2.41-1.1l-2.41-.67a27.61,27.61,0,0,1-3.21-1.16,30.41,30.41,0,0,1-3.44-1.77,15.59,15.59,0,0,1-3.17-2.5,13,13,0,0,1-2.38-3.39,10.46,10.46,0,0,1-1-4.42,16.26,16.26,0,0,1,1.47-7.59,17,17,0,0,1,4.33-5.68,19.56,19.56,0,0,1,6.4-3.6A27.86,27.86,0,0,1,430,348.5a38,38,0,0,1,7.62.4,30.59,30.59,0,0,1,7.08,1.92l-3.6,14.09q-2.44-1-4.45-1.74a24.6,24.6,0,0,0-4.7-1.07,14.94,14.94,0,0,0-2.13-.12,11.43,11.43,0,0,0-2.54.28,6.17,6.17,0,0,0-2.16.88,2.1,2.1,0,0,0-1,1.71.86.86,0,0,0,.46.76,4,4,0,0,0,1.1.43c.43.1.86.18,1.31.24l1.1.15c1.18.25,2.44.53,3.78.86A17.5,17.5,0,0,1,435.15,368.33Z"/><path d="M463.67,399.53q-.89,0-1.92,0c-3.9,0-6.95-.89-9.12-2.66s-3.26-4.64-3.26-8.63V373.82l-3.36.06.37-10.56h2.86v-4l13.24-6v10l4.94-.73-.67,11.23H462.6v10.67a4,4,0,0,0,.52,2.44,3.15,3.15,0,0,0,2.35.61,10.84,10.84,0,0,0,1.28-.06,6.25,6.25,0,0,0,.92-.18l-2.14,12.07A18,18,0,0,1,463.67,399.53Z"/><path d="M502.86,394.43a26.17,26.17,0,0,1-7.62,3.88,30.93,30.93,0,0,1-9,1.19,19.44,19.44,0,0,1-7.59-1.44,18.55,18.55,0,0,1-5.95-3.87,17.72,17.72,0,0,1-3.91-5.7,17.48,17.48,0,0,1-1.4-6.93,21.44,21.44,0,0,1,1.47-8.17,18.08,18.08,0,0,1,4-6.1,16.84,16.84,0,0,1,5.83-3.81,19,19,0,0,1,7.1-1.32,18.08,18.08,0,0,1,10.59,3.12,18.82,18.82,0,0,1,6.68,8.29L484.81,387.3a4.81,4.81,0,0,0,1.77.48,16.46,16.46,0,0,0,2,.13,10.12,10.12,0,0,0,4.73-1,17.13,17.13,0,0,0,3.5-2.41Zm-13.05-20A4.4,4.4,0,0,0,488,373a6.79,6.79,0,0,0-2.29-.36,4.91,4.91,0,0,0-2.23.51,5.48,5.48,0,0,0-1.73,1.41,6.69,6.69,0,0,0-1.53,4.24,5.53,5.53,0,0,0,.15,1.55,7.45,7.45,0,0,0,.4.95Z"/><path d="M517.38,367.59h.24a11.35,11.35,0,0,1,4.12-3.72,10.82,10.82,0,0,1,4.61-1,10.53,10.53,0,0,1,4.51.91,9.43,9.43,0,0,1,3.3,2.56,11.72,11.72,0,0,1,2,3.85,15.45,15.45,0,0,1,.7,4.75v23.61l-13.18,1.1.19-22.21a2.1,2.1,0,0,0-.83-1.82,3.19,3.19,0,0,0-2.1-.74,3.41,3.41,0,0,0-2.1.71,2.22,2.22,0,0,0-1,1.92l.24,22-13-.92-.49-34.71,12.69-1Z"/><path d="M558.13,350.94l17.81-1.71-2.14,22.39,9-.67.73-21.29L601,348.8,596,395.9l-14.15,1.71.79-13.42-6.41.91-.61,14-15.18.31Z"/><path d="M622.6,394.8h-.12A8.63,8.63,0,0,1,618.3,398a15.92,15.92,0,0,1-5.46.92,12.27,12.27,0,0,1-4.63-.89,11.36,11.36,0,0,1-3.85-2.53,12.44,12.44,0,0,1-2.62-4,13.3,13.3,0,0,1-1-5.19,10.78,10.78,0,0,1,1-4.6,11.54,11.54,0,0,1,2.65-3.66,12.21,12.21,0,0,1,4-2.44,13.63,13.63,0,0,1,5-.89,12,12,0,0,1,4.73.83,14.52,14.52,0,0,1,3.26,1.85v-1.82c0-1.87-.61-3.12-1.83-3.73a10.65,10.65,0,0,0-4.76-.91,21.46,21.46,0,0,0-5,.55c-1.54.36-3.11.79-4.69,1.28l2.37-9.7a34.65,34.65,0,0,1,6.1-1.19,62.7,62.7,0,0,1,6.47-.33,24.53,24.53,0,0,1,5.86.7,14.28,14.28,0,0,1,5,2.28,11.56,11.56,0,0,1,3.45,4.09,13,13,0,0,1,1.22,6.16l-.68,23.06-12.26,1Zm-7.74-11.29a6.75,6.75,0,0,0-3.42,1.44,2.74,2.74,0,0,0-1.16,2.53,2.78,2.78,0,0,0,1.74,2.1,6.72,6.72,0,0,0,3.87.34,6.13,6.13,0,0,0,3.54-1.53,2.74,2.74,0,0,0,.92-2.5,2.92,2.92,0,0,0-1.56-2A5.82,5.82,0,0,0,614.86,383.51Z"/><path d="M652.49,367.59h.25a11.25,11.25,0,0,1,4.11-3.72,10.85,10.85,0,0,1,4.61-1,10.5,10.5,0,0,1,4.51.91,9.34,9.34,0,0,1,3.3,2.56,11.72,11.72,0,0,1,2,3.85A15.45,15.45,0,0,1,672,375v23.61l-13.17,1.1.18-22.21a2.09,2.09,0,0,0-.82-1.82,3.19,3.19,0,0,0-2.11-.74,3.43,3.43,0,0,0-2.1.71,2.25,2.25,0,0,0-1,1.92l.25,22-13-.92-.49-34.71,12.69-1Z"/><path d="M678.33,387.66A19.57,19.57,0,0,0,682,388l1.79,0a9.61,9.61,0,0,0,1.71-.19,3.3,3.3,0,0,0,1.28-.51,1.27,1.27,0,0,0,.52-1.1,1.47,1.47,0,0,0-.94-1.38,18.79,18.79,0,0,0-2.32-.88c-.92-.28-1.92-.62-3-1a9.82,9.82,0,0,1-3-1.7,9.13,9.13,0,0,1-2.32-3,11.1,11.1,0,0,1-.94-4.94,10.41,10.41,0,0,1,.79-4,9.65,9.65,0,0,1,2.56-3.54,13.3,13.3,0,0,1,4.58-2.56,20.69,20.69,0,0,1,6.77-1c1,0,2,0,3.05.13s2,.19,2.89.33,1.76.29,2.54.43,1.42.27,2,.4v10.73c-1-.24-2-.45-3-.61a19.64,19.64,0,0,0-3.17-.24l-1.16,0a10.75,10.75,0,0,0-1.59.18,4.33,4.33,0,0,0-1.4.52,1.09,1.09,0,0,0-.61,1,1.56,1.56,0,0,0,1,1.46,14.77,14.77,0,0,0,2.41.91c1,.29,2,.63,3.15,1a11.38,11.38,0,0,1,3.14,1.74,9.09,9.09,0,0,1,2.41,3,10.8,10.8,0,0,1,1,4.94,9.87,9.87,0,0,1-1.43,5.49,10.8,10.8,0,0,1-3.78,3.51,17.56,17.56,0,0,1-5.4,1.86,36.3,36.3,0,0,1-6.34.55,39.89,39.89,0,0,1-5-.31,37.23,37.23,0,0,1-5-1V386.87A29.8,29.8,0,0,0,678.33,387.66Z"/><path d="M736.12,394.43a26.17,26.17,0,0,1-7.62,3.88,30.89,30.89,0,0,1-9,1.19,19.48,19.48,0,0,1-7.59-1.44,18.55,18.55,0,0,1-6-3.87,17.54,17.54,0,0,1-3.9-5.7,17.32,17.32,0,0,1-1.41-6.93,21.44,21.44,0,0,1,1.47-8.17,18.08,18.08,0,0,1,4-6.1,16.84,16.84,0,0,1,5.83-3.81,19,19,0,0,1,7.1-1.32,18.08,18.08,0,0,1,10.59,3.12,18.82,18.82,0,0,1,6.68,8.29L718.07,387.3a4.81,4.81,0,0,0,1.77.48,16.46,16.46,0,0,0,2,.13,10.12,10.12,0,0,0,4.73-1,17.13,17.13,0,0,0,3.5-2.41Zm-13-20a4.4,4.4,0,0,0-1.86-1.41,6.75,6.75,0,0,0-2.29-.36,4.83,4.83,0,0,0-2.22.51,5.41,5.41,0,0,0-1.74,1.41,6.69,6.69,0,0,0-1.53,4.24,5.53,5.53,0,0,0,.15,1.55,9.24,9.24,0,0,0,.4.95Z"/><path d="M750.64,367.59h.24a11.35,11.35,0,0,1,4.12-3.72,10.85,10.85,0,0,1,4.61-1,10.5,10.5,0,0,1,4.51.91,9.43,9.43,0,0,1,3.3,2.56,11.72,11.72,0,0,1,2,3.85,15.45,15.45,0,0,1,.7,4.75v23.61L757,399.68l.18-22.21a2.1,2.1,0,0,0-.83-1.82,3.19,3.19,0,0,0-2.1-.74,3.43,3.43,0,0,0-2.1.71,2.22,2.22,0,0,0-.95,1.92l.24,22-13-.92L738,363.93l12.69-1Z"/><path d="M796.45,398a39.44,39.44,0,0,0,4.3,1.22,20,20,0,0,0,4.48.49,16.11,16.11,0,0,0,2-.12A5.79,5.79,0,0,0,809,399a3.41,3.41,0,0,0,1.28-1.1,3.25,3.25,0,0,0,.48-1.86,3.07,3.07,0,0,0-.58-1.92,3.93,3.93,0,0,0-1.58-1.22,7.55,7.55,0,0,0-2.29-.61,22.5,22.5,0,0,0-2.62-.15,12.15,12.15,0,0,0-3.23.45,16.26,16.26,0,0,0-3,1.19l1.16-3.66a15.28,15.28,0,0,1-6.26-5.33,14.66,14.66,0,0,1-2.22-8.21,15.28,15.28,0,0,1,.94-5.15,14.16,14.16,0,0,1,3-4.85,15.3,15.3,0,0,1,5.12-3.6,18,18,0,0,1,7.45-1.4,21.69,21.69,0,0,1,3.84.3,23.55,23.55,0,0,1,3.11.79l1-6.4,9.76,4.21-3.18,6.22a12.51,12.51,0,0,1,3,4.36,13.9,13.9,0,0,1,1,5.28,12.91,12.91,0,0,1-1.56,6.55,14.07,14.07,0,0,1-4.6,4.73,10.92,10.92,0,0,1,6,10.13,11.62,11.62,0,0,1-1.41,5.76,12,12,0,0,1-4,4.24,19.68,19.68,0,0,1-6.22,2.59,34.2,34.2,0,0,1-8.09.89,36.25,36.25,0,0,1-8.9-.92c-2.36-.61-4.27-1.15-5.74-1.64Zm11.77-17.14a5.1,5.1,0,0,0,3.11-1.71,3.31,3.31,0,0,0-1.12-5.18,5.33,5.33,0,0,0-3.51-.31,5.5,5.5,0,0,0-3.11,1.77,3.25,3.25,0,0,0-.73,2.81,3.19,3.19,0,0,0,1.8,2.35A5.1,5.1,0,0,0,808.22,380.83Z"/><path d="M848,394.8h-.13A8.6,8.6,0,0,1,843.7,398a16,16,0,0,1-5.46.92,12.28,12.28,0,0,1-4.64-.89,11.32,11.32,0,0,1-3.84-2.53,12.3,12.3,0,0,1-2.63-4,13.3,13.3,0,0,1-1-5.19,10.78,10.78,0,0,1,1-4.6,11.42,11.42,0,0,1,2.66-3.66,12.27,12.27,0,0,1,4-2.44,13.67,13.67,0,0,1,5-.89,12,12,0,0,1,4.73.83,14.52,14.52,0,0,1,3.26,1.85v-1.82c0-1.87-.61-3.12-1.83-3.73a10.64,10.64,0,0,0-4.75-.91,21.55,21.55,0,0,0-5,.55c-1.54.36-3.11.79-4.69,1.28l2.38-9.7a34.3,34.3,0,0,1,6.1-1.19,62.36,62.36,0,0,1,6.46-.33,24.41,24.41,0,0,1,5.86.7,14.2,14.2,0,0,1,5,2.28,11.56,11.56,0,0,1,3.45,4.09,13,13,0,0,1,1.22,6.16l-.67,23.06L848,399Zm-7.75-11.29a6.82,6.82,0,0,0-3.42,1.44,2.77,2.77,0,0,0-1.16,2.53,2.82,2.82,0,0,0,1.74,2.1,6.74,6.74,0,0,0,3.88.34,6.13,6.13,0,0,0,3.53-1.53,2.72,2.72,0,0,0,.92-2.5,2.89,2.89,0,0,0-1.56-2A5.81,5.81,0,0,0,840.25,383.51Z"/><path d="M884.78,394.8h-.12a8.67,8.67,0,0,1-4.18,3.23A16,16,0,0,1,875,399a12.32,12.32,0,0,1-4.64-.89,11.41,11.41,0,0,1-3.84-2.53,12.27,12.27,0,0,1-2.62-4,13.3,13.3,0,0,1-1-5.19,10.78,10.78,0,0,1,1-4.6,11.39,11.39,0,0,1,2.65-3.66,12.21,12.21,0,0,1,4-2.44,13.63,13.63,0,0,1,5-.89,11.94,11.94,0,0,1,4.72.83,14.83,14.83,0,0,1,3.27,1.85v-1.82c0-1.87-.61-3.12-1.83-3.73a10.68,10.68,0,0,0-4.76-.91,21.4,21.4,0,0,0-5,.55c-1.55.36-3.11.79-4.7,1.28l2.38-9.7a34.3,34.3,0,0,1,6.1-1.19,62.41,62.41,0,0,1,6.47-.33,24.39,24.39,0,0,1,5.85.7,14.2,14.2,0,0,1,5,2.28,11.36,11.36,0,0,1,3.45,4.09,13,13,0,0,1,1.22,6.16L897,397.91l-12.26,1ZM877,383.51a6.75,6.75,0,0,0-3.41,1.44,2.72,2.72,0,0,0-1.16,2.53,2.78,2.78,0,0,0,1.74,2.1,6.7,6.7,0,0,0,3.87.34,6.19,6.19,0,0,0,3.54-1.53,2.73,2.73,0,0,0,.91-2.5,2.9,2.9,0,0,0-1.55-2A5.85,5.85,0,0,0,877,383.51Z"/><path d="M914.3,362.47v6.77h.12q1.59-6.76,9.15-6.77a25.7,25.7,0,0,1,3.12.18l-3.18,13a6.47,6.47,0,0,0-.91-.07h-1.22a6.37,6.37,0,0,0-4.42,1.68c-1.25,1.12-1.86,2.88-1.86,5.28v15.67l-12.81,1.1-.37-35.74Z"/><path d="M945.84,350.45l13.85-1.1-1.22,25.75h.12l5.79-12.39,13.48,1.1-7.93,15.37,9.15,14.09-12.68,6.29-7.93-15.31h-.13l.49,14.21-12.69,1.1Z"/><path d="M1001.41,393.58h-.12a8.41,8.41,0,0,1-3.82,4.76,12.6,12.6,0,0,1-6.07,1.4A10.26,10.26,0,0,1,984,397c-1.89-1.81-2.83-4.45-2.83-7.9V363.51l13.6-1.1L994.39,385a2.6,2.6,0,0,0,.64,2.1,3.13,3.13,0,0,0,2.17.64,3.06,3.06,0,0,0,2-.61,2.35,2.35,0,0,0,.7-2.07l-.36-21.53,14-1.1-.92,36.29-11.22.49Z"/><path d="M1029.77,367.59h.25a11.25,11.25,0,0,1,4.11-3.72,10.85,10.85,0,0,1,4.61-1,10.5,10.5,0,0,1,4.51.91,9.43,9.43,0,0,1,3.3,2.56,11.72,11.72,0,0,1,2,3.85,15.45,15.45,0,0,1,.7,4.75v23.61l-13.17,1.1.18-22.21a2.11,2.11,0,0,0-.82-1.82,3.21,3.21,0,0,0-2.11-.74,3.43,3.43,0,0,0-2.1.71,2.25,2.25,0,0,0-1,1.92l.25,22-13-.92-.49-34.71,12.69-1Z"/><path d="M1084.85,366.37h.12a9,9,0,0,1,3.54-2.89,11.12,11.12,0,0,1,4.52-.89,10.73,10.73,0,0,1,4.54.92,9.25,9.25,0,0,1,3.33,2.56,11.72,11.72,0,0,1,2,3.87,14.65,14.65,0,0,1,.64,4.79l-.37,23.61-12.87,1.1V377.17a2.41,2.41,0,0,0-.73-1.77,2.63,2.63,0,0,0-1.95-.73,2.94,2.94,0,0,0-2,.7,2.4,2.4,0,0,0-.83,1.92V399.5L1072,398.4l-.42-48.07,13.66-1.1Z"/><path d="M1126,395.53a20.37,20.37,0,0,1-1,6.62,12.57,12.57,0,0,1-2.81,4.73,11.85,11.85,0,0,1-4.42,2.86,16.27,16.27,0,0,1-5.76,1h-2.87l-3.35-11.16h1.4a6.42,6.42,0,0,0,4.15-1.16c.93-.77,1.4-2.1,1.4-4V364.54l13.24-1.09Zm-.06-36.35-13.3,1,.06-11.16,14-.61Z"/><path d="M1164.21,394.43a26.17,26.17,0,0,1-7.62,3.88,30.89,30.89,0,0,1-9,1.19,19.48,19.48,0,0,1-7.59-1.44,18.55,18.55,0,0,1-6-3.87,17.54,17.54,0,0,1-3.9-5.7,17.32,17.32,0,0,1-1.41-6.93,21.44,21.44,0,0,1,1.47-8.17,18.08,18.08,0,0,1,4-6.1,16.84,16.84,0,0,1,5.83-3.81,19,19,0,0,1,7.1-1.32,18.08,18.08,0,0,1,10.59,3.12,18.82,18.82,0,0,1,6.68,8.29l-18.24,13.73a4.81,4.81,0,0,0,1.77.48,16.46,16.46,0,0,0,2,.13,10.12,10.12,0,0,0,4.73-1,17.13,17.13,0,0,0,3.5-2.41Zm-13-20a4.4,4.4,0,0,0-1.86-1.41,6.75,6.75,0,0,0-2.29-.36,4.83,4.83,0,0,0-2.22.51,5.41,5.41,0,0,0-1.74,1.41,6.69,6.69,0,0,0-1.53,4.24,5.53,5.53,0,0,0,.15,1.55,7.45,7.45,0,0,0,.4.95Z"/><path d="M1204.23,377.23a2.41,2.41,0,0,0-.85-1.89,3.37,3.37,0,0,0-2.26-.73,3,3,0,0,0-2.32.91,2.76,2.76,0,0,0-.85,1.89l.36,20.87-13.23,1.09.24-22a2.28,2.28,0,0,0-.86-2,3.83,3.83,0,0,0-4.54,0,2.28,2.28,0,0,0-1,2.07l.61,22-12.8-1.1-.74-34.71,12.45-1.1v5.61h.12A15.41,15.41,0,0,1,1183,364a11.26,11.26,0,0,1,6-1.5,11.61,11.61,0,0,1,4.79.88,10.21,10.21,0,0,1,3.51,2.78,12.9,12.9,0,0,1,3.59-2.65,9.88,9.88,0,0,1,4.46-1,11.76,11.76,0,0,1,4.85,1,9.7,9.7,0,0,1,3.53,2.65,12.09,12.09,0,0,1,2.2,4,16.68,16.68,0,0,1,.82,4.92l.37,23.24-13.24,1.09Z"/><path d="M1230.28,395.71l-7.26,9.4-2.57-.86,5.13-12.38Z"/><path d="M1265.84,367.59h.24a11.27,11.27,0,0,1,4.12-3.72,10.81,10.81,0,0,1,4.6-1,10.54,10.54,0,0,1,4.52.91,9.3,9.3,0,0,1,3.29,2.56,11.56,11.56,0,0,1,2.05,3.85,15.76,15.76,0,0,1,.7,4.75v23.61l-13.18,1.1.18-22.21a2.09,2.09,0,0,0-.82-1.82,3.19,3.19,0,0,0-2.1-.74,3.44,3.44,0,0,0-2.11.71,2.24,2.24,0,0,0-.94,1.92l.24,22-13-.92-.49-34.71,12.69-1Z"/><path d="M1308.78,394.8h-.12a8.63,8.63,0,0,1-4.18,3.23,16,16,0,0,1-5.46.92,12.32,12.32,0,0,1-4.64-.89,11.41,11.41,0,0,1-3.84-2.53,12.27,12.27,0,0,1-2.62-4,13.3,13.3,0,0,1-1-5.19,10.78,10.78,0,0,1,1-4.6,11.39,11.39,0,0,1,2.65-3.66,12.21,12.21,0,0,1,4-2.44,13.63,13.63,0,0,1,5-.89,12,12,0,0,1,4.73.83,14.75,14.75,0,0,1,3.26,1.85v-1.82c0-1.87-.61-3.12-1.83-3.73a10.68,10.68,0,0,0-4.76-.91,21.4,21.4,0,0,0-5,.55c-1.55.36-3.11.79-4.7,1.28l2.38-9.7a34.48,34.48,0,0,1,6.1-1.19,62.55,62.55,0,0,1,6.47-.33,24.39,24.39,0,0,1,5.85.7,14.33,14.33,0,0,1,5,2.28,11.43,11.43,0,0,1,3.44,4.09,12.87,12.87,0,0,1,1.22,6.16l-.67,23.06-12.26,1ZM1301,383.51a6.75,6.75,0,0,0-3.41,1.44,2.74,2.74,0,0,0-1.16,2.53,2.78,2.78,0,0,0,1.74,2.1,6.7,6.7,0,0,0,3.87.34,6.16,6.16,0,0,0,3.54-1.53,2.71,2.71,0,0,0,.91-2.5,2.9,2.9,0,0,0-1.55-2A5.85,5.85,0,0,0,1301,383.51Z"/><path d="M1345.56,394.8h-.12a8.63,8.63,0,0,1-4.18,3.23,15.88,15.88,0,0,1-5.46.92,12.27,12.27,0,0,1-4.63-.89,11.36,11.36,0,0,1-3.85-2.53,12.44,12.44,0,0,1-2.62-4,13.3,13.3,0,0,1-1-5.19,10.78,10.78,0,0,1,1-4.6,11.54,11.54,0,0,1,2.65-3.66,12.21,12.21,0,0,1,4-2.44,13.63,13.63,0,0,1,5-.89,12,12,0,0,1,4.73.83,14.52,14.52,0,0,1,3.26,1.85v-1.82c0-1.87-.61-3.12-1.83-3.73a10.65,10.65,0,0,0-4.76-.91,21.46,21.46,0,0,0-5,.55c-1.54.36-3.11.79-4.69,1.28l2.37-9.7a34.65,34.65,0,0,1,6.1-1.19,62.55,62.55,0,0,1,6.47-.33,24.53,24.53,0,0,1,5.86.7,14.28,14.28,0,0,1,5,2.28,11.56,11.56,0,0,1,3.45,4.09,13,13,0,0,1,1.22,6.16l-.68,23.06-12.26,1Zm-7.74-11.29a6.75,6.75,0,0,0-3.42,1.44,2.59,2.59,0,0,0,.58,4.63,6.72,6.72,0,0,0,3.87.34,6.13,6.13,0,0,0,3.54-1.53,2.74,2.74,0,0,0,.92-2.5,2.92,2.92,0,0,0-1.56-2A5.82,5.82,0,0,0,1337.82,383.51Z"/><path d="M1375.09,362.47v6.77h.12q1.59-6.76,9.15-6.77a25.53,25.53,0,0,1,3.11.18l-3.17,13a6.61,6.61,0,0,0-.92-.07h-1.22a6.38,6.38,0,0,0-4.42,1.68q-1.86,1.68-1.86,5.28v15.67l-12.81,1.1-.36-35.74Z"/><path d="M1420,366.37h.12a9,9,0,0,1,3.54-2.89,11.12,11.12,0,0,1,4.52-.89,10.73,10.73,0,0,1,4.54.92,9.25,9.25,0,0,1,3.33,2.56,11.72,11.72,0,0,1,2,3.87,14.65,14.65,0,0,1,.64,4.79l-.37,23.61-12.87,1.1V377.17a2.41,2.41,0,0,0-.73-1.77,2.63,2.63,0,0,0-2-.73,2.94,2.94,0,0,0-2,.7,2.4,2.4,0,0,0-.83,1.92V399.5l-12.81-1.1-.42-48.07,13.66-1.1Z"/><path d="M1462,394.8h-.12a8.63,8.63,0,0,1-4.18,3.23,16,16,0,0,1-5.46.92,12.32,12.32,0,0,1-4.64-.89,11.41,11.41,0,0,1-3.84-2.53,12.27,12.27,0,0,1-2.62-4,13.3,13.3,0,0,1-1-5.19,10.78,10.78,0,0,1,1-4.6,11.39,11.39,0,0,1,2.65-3.66,12.21,12.21,0,0,1,4-2.44,13.63,13.63,0,0,1,5-.89,12,12,0,0,1,4.73.83,14.75,14.75,0,0,1,3.26,1.85v-1.82c0-1.87-.61-3.12-1.83-3.73a10.68,10.68,0,0,0-4.76-.91,21.4,21.4,0,0,0-5,.55c-1.55.36-3.11.79-4.7,1.28l2.38-9.7a34.48,34.48,0,0,1,6.1-1.19,62.55,62.55,0,0,1,6.47-.33,24.39,24.39,0,0,1,5.85.7,14.33,14.33,0,0,1,5,2.28,11.43,11.43,0,0,1,3.44,4.09,12.87,12.87,0,0,1,1.22,6.16l-.67,23.06L1462,399Zm-7.75-11.29a6.75,6.75,0,0,0-3.41,1.44,2.74,2.74,0,0,0-1.16,2.53,2.78,2.78,0,0,0,1.74,2.1,6.7,6.7,0,0,0,3.87.34,6.16,6.16,0,0,0,3.54-1.53,2.71,2.71,0,0,0,.91-2.5,2.9,2.9,0,0,0-1.55-2A5.85,5.85,0,0,0,1454.2,383.51Z"/><path d="M1491.84,367.59h.24a11.35,11.35,0,0,1,4.12-3.72,10.82,10.82,0,0,1,4.61-1,10.5,10.5,0,0,1,4.51.91,9.43,9.43,0,0,1,3.3,2.56,11.72,11.72,0,0,1,2,3.85,15.45,15.45,0,0,1,.7,4.75v23.61l-13.18,1.1.19-22.21a2.1,2.1,0,0,0-.83-1.82,3.19,3.19,0,0,0-2.1-.74,3.46,3.46,0,0,0-2.11.71,2.24,2.24,0,0,0-.94,1.92l.24,22-13-.92-.49-34.71,12.69-1Z"/><path d="M435.19,439.57h.12a8.88,8.88,0,0,1,3.54-2.89,11.07,11.07,0,0,1,4.51-.89,10.7,10.7,0,0,1,4.54.92,9.25,9.25,0,0,1,3.33,2.56,11.72,11.72,0,0,1,2,3.87,14.65,14.65,0,0,1,.64,4.79l-.36,23.61-12.87,1.09V450.37a2.42,2.42,0,0,0-.74-1.77,2.62,2.62,0,0,0-1.95-.73,2.94,2.94,0,0,0-2,.7,2.39,2.39,0,0,0-.82,1.92V472.7l-12.81-1.1L422,423.53l13.66-1.1Z"/><path d="M477.15,468H477a8.69,8.69,0,0,1-4.18,3.23,15.92,15.92,0,0,1-5.46.92,12.27,12.27,0,0,1-4.63-.89,11.36,11.36,0,0,1-3.85-2.53,12.44,12.44,0,0,1-2.62-4,13.3,13.3,0,0,1-1-5.19,10.78,10.78,0,0,1,1-4.6,11.42,11.42,0,0,1,2.66-3.66,12.06,12.06,0,0,1,4-2.44,13.63,13.63,0,0,1,5-.89,12.19,12.19,0,0,1,4.73.82,14.54,14.54,0,0,1,3.26,1.87v-1.83c0-1.87-.61-3.12-1.83-3.73a10.65,10.65,0,0,0-4.76-.91,21.46,21.46,0,0,0-5,.55c-1.54.36-3.11.79-4.69,1.28l2.37-9.7a35.59,35.59,0,0,1,6.1-1.19,62.55,62.55,0,0,1,6.47-.33,24.53,24.53,0,0,1,5.86.7,14.11,14.11,0,0,1,5,2.28,11.56,11.56,0,0,1,3.45,4.09,13.11,13.11,0,0,1,1.22,6.16l-.68,23.06-12.26,1Zm-7.74-11.29a6.75,6.75,0,0,0-3.42,1.44,2.59,2.59,0,0,0,.58,4.63,6.72,6.72,0,0,0,3.87.34,6.13,6.13,0,0,0,3.54-1.53,2.74,2.74,0,0,0,.92-2.5,2.92,2.92,0,0,0-1.56-2A5.82,5.82,0,0,0,469.41,456.71Z"/><path d="M506.68,435.67v6.77h.12q1.59-6.76,9.15-6.77a25.53,25.53,0,0,1,3.11.18l-3.17,13a6.67,6.67,0,0,0-.92-.06h-1.22a6.36,6.36,0,0,0-4.42,1.67q-1.86,1.68-1.86,5.28v15.68l-12.81,1.09-.37-35.74Z"/><path d="M540.62,460.86a19.72,19.72,0,0,0,3.63.31l1.8,0a9.61,9.61,0,0,0,1.71-.19,3.3,3.3,0,0,0,1.28-.51,1.25,1.25,0,0,0,.52-1.1,1.48,1.48,0,0,0-.95-1.38,18.59,18.59,0,0,0-2.31-.88c-.92-.28-1.92-.62-3-1a9.71,9.71,0,0,1-3-1.7,9.13,9.13,0,0,1-2.32-3,11.09,11.09,0,0,1-1-4.94,10.42,10.42,0,0,1,.8-4,9.54,9.54,0,0,1,2.56-3.54,13.41,13.41,0,0,1,4.57-2.56,20.73,20.73,0,0,1,6.77-1c1,0,2,.05,3,.13s2,.19,2.9.33,1.76.29,2.53.43,1.43.27,2,.4v10.73c-1-.24-2-.45-3-.61a19.77,19.77,0,0,0-3.18-.24l-1.16,0a10.77,10.77,0,0,0-1.58.18,4.24,4.24,0,0,0-1.4.52,1.09,1.09,0,0,0-.61,1,1.55,1.55,0,0,0,1,1.46,14.43,14.43,0,0,0,2.41.91c1,.29,2,.64,3.14,1a11.29,11.29,0,0,1,3.15,1.74,9.07,9.07,0,0,1,2.4,3,10.79,10.79,0,0,1,1,4.94,9.87,9.87,0,0,1-1.43,5.49,10.75,10.75,0,0,1-3.79,3.51,17.41,17.41,0,0,1-5.39,1.86,36.42,36.42,0,0,1-6.35.55,39.73,39.73,0,0,1-5-.31,36.62,36.62,0,0,1-5-1V460.07A29.64,29.64,0,0,0,540.62,460.86Z"/><path d="M578.05,440.79h.24a11.2,11.2,0,0,1,4.12-3.72,10.81,10.81,0,0,1,4.6-1,10.54,10.54,0,0,1,4.52.91,9.3,9.3,0,0,1,3.29,2.56,11.74,11.74,0,0,1,2,3.85,15.76,15.76,0,0,1,.7,4.75v23.61l-13.18,1.1.18-22.2a2.1,2.1,0,0,0-.82-1.83,3.19,3.19,0,0,0-2.1-.74,3.5,3.5,0,0,0-2.11.7,2.27,2.27,0,0,0-.94,1.93l.24,22-13-.92-.49-34.71,12.69-1Z"/><path d="M616.29,449.7l3-13.42,12.57,1.1-13.06,46L605,482.27l5.24-14.33-11.46-30,13.29-1.65,4.09,13.42Z"/><path d="M667,471.72l-11.95.79V469H655a8.27,8.27,0,0,1-4,2.83,15.33,15.33,0,0,1-5.09.89,15.06,15.06,0,0,1-6-1.25,16,16,0,0,1-5.16-3.6,17.39,17.39,0,0,1-3.59-5.77,20.87,20.87,0,0,1-1.35-7.74,23.47,23.47,0,0,1,1.13-7.35,18.24,18.24,0,0,1,3.27-6,15.21,15.21,0,0,1,5.27-4.09,16.48,16.48,0,0,1,7.17-1.49,14.9,14.9,0,0,1,3.9.51,8.44,8.44,0,0,1,3.3,1.74l-.55-14.52,14-1.09Zm-16.89-12.08a6.71,6.71,0,0,0,2.25-1.31,6.54,6.54,0,0,0,1.44-1.83,5.24,5.24,0,0,0,.58-2.1,5.35,5.35,0,0,0-.31-2.14,5.08,5.08,0,0,0-1.13-1.77,5.59,5.59,0,0,0-1.8-1.25,6.45,6.45,0,0,0-2.28-.52,6.76,6.76,0,0,0-2.6.43,6.51,6.51,0,0,0-2.31,1.34,7,7,0,0,0-1.44,1.86,5.34,5.34,0,0,0-.58,2.14,5.2,5.2,0,0,0,.31,2.1,4.63,4.63,0,0,0,1.13,1.8,5.67,5.67,0,0,0,1.8,1.22,5.85,5.85,0,0,0,2.28.49A7.46,7.46,0,0,0,650.15,459.64Z"/><path d="M689,472.73q-.88,0-1.92,0-5.85,0-9.12-2.66c-2.17-1.77-3.26-4.64-3.26-8.63V447l-3.35.06.36-10.56h2.87v-4l13.23-6v10l4.95-.73L692.12,447H688v10.67a4,4,0,0,0,.52,2.44c.34.41,1.12.61,2.34.61a11.15,11.15,0,0,0,1.29-.06,6.37,6.37,0,0,0,.91-.18l-2.14,12.07A18,18,0,0,1,689,472.73Z"/><path d="M716.7,447.5h-4.21l2-10.49h2.26a19.68,19.68,0,0,1,.85-6,11.23,11.23,0,0,1,7-7.44,17.73,17.73,0,0,1,6.4-1,10.4,10.4,0,0,1,1.86.16q.82.15,1.74.27l1.59,10.13h-2.08a4.25,4.25,0,0,0-3.08,1,3.84,3.84,0,0,0-1.07,2.87h5.25V447.5h-5.25l.37,24.16-13.67,1.1Z"/><path d="M775.13,451.16a18.89,18.89,0,0,1-.39,7.84,17.57,17.57,0,0,1-3.24,6.41A17.9,17.9,0,0,1,766,470a21.41,21.41,0,0,1-7.41,2.35,22.85,22.85,0,0,1-7.81-.24,18.19,18.19,0,0,1-6.65-2.84,17.16,17.16,0,0,1-4.87-5.25,18.59,18.59,0,0,1-2.51-7.41,19.07,19.07,0,0,1,.4-7.84,17.61,17.61,0,0,1,8.78-11,21.54,21.54,0,0,1,7.41-2.35,22.64,22.64,0,0,1,7.78.25,18,18,0,0,1,6.62,2.84,17.15,17.15,0,0,1,4.88,5.27A19.66,19.66,0,0,1,775.13,451.16Zm-25.62,5.19a5.33,5.33,0,0,0,3.3,3.11,7.17,7.17,0,0,0,5.12-.49,7.39,7.39,0,0,0,3.87-3.32,5.15,5.15,0,0,0,.1-4.49,5.42,5.42,0,0,0-3.3-3.08,6.92,6.92,0,0,0-5.06.46,7.32,7.32,0,0,0-3.93,3.36A5.07,5.07,0,0,0,749.51,456.35Z"/><path d="M788.8,435.67v6.77h.12q1.59-6.76,9.15-6.77a25.53,25.53,0,0,1,3.11.18l-3.17,13a6.67,6.67,0,0,0-.92-.06h-1.22a6.36,6.36,0,0,0-4.42,1.67q-1.86,1.68-1.86,5.28v15.68l-12.81,1.09-.37-35.74Z"/><path d="M824.36,442.38l-6-7.69,12-11.4,16.83-1.71-2.31,51.36L830,471l-.18-33.19Z"/><path d="M908.35,450.43a2.37,2.37,0,0,0-.85-1.89,3.34,3.34,0,0,0-2.26-.73,3,3,0,0,0-2.31.91,2.77,2.77,0,0,0-.86,1.89l.37,20.87-13.24,1.09.24-22a2.3,2.3,0,0,0-.85-2,3.83,3.83,0,0,0-4.54,0,2.28,2.28,0,0,0-.95,2.07l.61,22-12.81-1.09-.73-34.71,12.44-1.1v5.61h.12a15.76,15.76,0,0,1,4.43-4.12,12.9,12.9,0,0,1,10.73-.6,10.17,10.17,0,0,1,3.51,2.77,13.1,13.1,0,0,1,3.6-2.65,9.83,9.83,0,0,1,4.45-1,11.72,11.72,0,0,1,4.85.95,9.74,9.74,0,0,1,3.54,2.65,12.22,12.22,0,0,1,2.2,4,16.89,16.89,0,0,1,.82,4.91l.37,23.24L908,472.57Z"/><path d="M925.19,422.13l14-.61-.73,10.73-13.3,1Zm.06,15.43,13.6-1.1-.67,35.2-12.93,1.1Z"/><path d="M943.55,423.65l13.79-1.1-.55,49.11L944,472.76Z"/><path d="M961.79,423.65l13.79-1.1L975,471.66l-12.81,1.1Z"/><path d="M980.27,422.13l14-.61-.73,10.73-13.3,1Zm.06,15.43,13.61-1.1-.68,35.2-12.93,1.1Z"/><path d="M1017.79,468h-.13a8.66,8.66,0,0,1-4.17,3.23,16,16,0,0,1-5.46.92,12.28,12.28,0,0,1-4.64-.89,11.41,11.41,0,0,1-3.84-2.53,12.3,12.3,0,0,1-2.63-4,13.3,13.3,0,0,1-1-5.19,10.78,10.78,0,0,1,1-4.6,11.42,11.42,0,0,1,2.66-3.66,12.27,12.27,0,0,1,4-2.44,13.67,13.67,0,0,1,5-.89,12.19,12.19,0,0,1,4.73.82,14.54,14.54,0,0,1,3.26,1.87v-1.83c0-1.87-.6-3.12-1.83-3.73a10.61,10.61,0,0,0-4.75-.91,21.4,21.4,0,0,0-5,.55c-1.55.36-3.12.79-4.7,1.28l2.38-9.7a35.22,35.22,0,0,1,6.1-1.19,62.36,62.36,0,0,1,6.46-.33,24.41,24.41,0,0,1,5.86.7,14,14,0,0,1,5,2.28,11.56,11.56,0,0,1,3.45,4.09,13,13,0,0,1,1.22,6.16l-.67,23.06-12.26,1ZM1010,456.71a6.82,6.82,0,0,0-3.42,1.44,2.77,2.77,0,0,0-1.16,2.53,2.82,2.82,0,0,0,1.74,2.1,6.74,6.74,0,0,0,3.88.34,6.13,6.13,0,0,0,3.53-1.53,2.72,2.72,0,0,0,.92-2.5,2.89,2.89,0,0,0-1.56-2A5.81,5.81,0,0,0,1010,456.71Z"/><path d="M1047.31,435.67v6.77h.12q1.59-6.76,9.15-6.77a25.41,25.41,0,0,1,3.11.18l-3.17,13a6.52,6.52,0,0,0-.91-.06h-1.22a6.38,6.38,0,0,0-4.43,1.67q-1.86,1.68-1.86,5.28v15.68l-12.81,1.09-.36-35.74Z"/><path d="M1095.5,471.72l-12,.79V469h-.12a8.24,8.24,0,0,1-4,2.83,15.39,15.39,0,0,1-5.1.89,15,15,0,0,1-6-1.25,15.82,15.82,0,0,1-5.16-3.6,17.57,17.57,0,0,1-3.6-5.77,21.07,21.07,0,0,1-1.34-7.74,23.47,23.47,0,0,1,1.13-7.35,18.41,18.41,0,0,1,3.26-6,15.15,15.15,0,0,1,5.28-4.09,16.42,16.42,0,0,1,7.17-1.49,14.9,14.9,0,0,1,3.9.51,8.33,8.33,0,0,1,3.29,1.74l-.55-14.52,14-1.09Zm-16.9-12.08a6.66,6.66,0,0,0,2.26-1.31,6.32,6.32,0,0,0,1.43-1.83,5.08,5.08,0,0,0,.58-2.1,5.53,5.53,0,0,0-.3-2.14,5.23,5.23,0,0,0-1.13-1.77,5.7,5.7,0,0,0-1.8-1.25,6.46,6.46,0,0,0-2.29-.52,6.71,6.71,0,0,0-2.59.43,6.47,6.47,0,0,0-2.32,1.34,6.72,6.72,0,0,0-1.43,1.86,5.37,5.37,0,0,0-.28,4.24,4.75,4.75,0,0,0,1.13,1.8,5.79,5.79,0,0,0,1.8,1.22,5.9,5.9,0,0,0,2.29.49A7.4,7.4,0,0,0,1078.6,459.64Z"/><path d="M1101.72,470.26l.43-5.19,6.4.37-1.22,6.4Z"/><path d="M1133.5,424.45q11-2.15,21.59-3.42a20.43,20.43,0,0,1,9.09.4,16.23,16.23,0,0,1,6.71,3.81,17.34,17.34,0,0,1,4.21,6.4,25.19,25.19,0,0,1,1.65,8.12,31.59,31.59,0,0,1-1,8.93,32.88,32.88,0,0,1-3.66,8.91,35.45,35.45,0,0,1-15.76,14.18,24.72,24.72,0,0,1-4.67,1,58.72,58.72,0,0,1-6.74.21,99.45,99.45,0,0,1-10.49-.85Zm15.74,33.79a14.81,14.81,0,0,0,5.64-2.41,13,13,0,0,0,3.26-3.36,12.33,12.33,0,0,0,1.56-3.44,11.36,11.36,0,0,0,.46-2.69v-1.09c0-.08-.06-.48-.19-1.19a11.68,11.68,0,0,0-.79-2.53,6.26,6.26,0,0,0-1.71-2.41,3.84,3.84,0,0,0-3-.77,9.72,9.72,0,0,0-4.63,2.38Z"/><path d="M1196.94,466.78h-.12a8.41,8.41,0,0,1-3.82,4.76,12.58,12.58,0,0,1-6.06,1.4,10.31,10.31,0,0,1-7.42-2.71c-1.89-1.81-2.83-4.45-2.83-7.9V436.71l13.6-1.1-.37,22.57a2.6,2.6,0,0,0,.64,2.1,3.13,3.13,0,0,0,2.17.64,3.06,3.06,0,0,0,2-.61,2.36,2.36,0,0,0,.7-2.07l-.36-21.53,14-1.1-.92,36.29-11.22.49Z"/><path d="M1244.33,439.57h.13a8.93,8.93,0,0,1,3.53-2.89,11.15,11.15,0,0,1,4.52-.89,10.7,10.7,0,0,1,4.54.92,9.25,9.25,0,0,1,3.33,2.56,11.72,11.72,0,0,1,2,3.87,14.65,14.65,0,0,1,.64,4.79l-.36,23.61-12.88,1.09V450.37a2.41,2.41,0,0,0-.73-1.77,2.63,2.63,0,0,0-1.95-.73,2.94,2.94,0,0,0-2,.7,2.4,2.4,0,0,0-.83,1.92V472.7l-12.81-1.1-.42-48.07,13.66-1.1Z"/><path d="M1286.3,468h-.12a8.69,8.69,0,0,1-4.18,3.23,16,16,0,0,1-5.46.92,12.27,12.27,0,0,1-4.63-.89,11.36,11.36,0,0,1-3.85-2.53,12.27,12.27,0,0,1-2.62-4,13.3,13.3,0,0,1-1-5.19,10.78,10.78,0,0,1,1-4.6,11.39,11.39,0,0,1,2.65-3.66,12.21,12.21,0,0,1,4-2.44,13.63,13.63,0,0,1,5-.89,12.19,12.19,0,0,1,4.73.82,14.54,14.54,0,0,1,3.26,1.87v-1.83c0-1.87-.61-3.12-1.83-3.73a10.68,10.68,0,0,0-4.76-.91,21.46,21.46,0,0,0-5,.55c-1.55.36-3.11.79-4.7,1.28l2.38-9.7a35.4,35.4,0,0,1,6.1-1.19,62.55,62.55,0,0,1,6.47-.33,24.53,24.53,0,0,1,5.86.7,14.11,14.11,0,0,1,5,2.28,11.43,11.43,0,0,1,3.44,4.09,12.87,12.87,0,0,1,1.22,6.16l-.67,23.06-12.26,1Zm-7.75-11.29a6.75,6.75,0,0,0-3.41,1.44,2.74,2.74,0,0,0-1.16,2.53,2.78,2.78,0,0,0,1.74,2.1,6.71,6.71,0,0,0,3.87.34,6.13,6.13,0,0,0,3.54-1.53,2.71,2.71,0,0,0,.91-2.5,2.9,2.9,0,0,0-1.55-2A5.85,5.85,0,0,0,1278.55,456.71Z"/><path d="M1315.83,435.67v6.77h.12q1.58-6.76,9.15-6.77a25.53,25.53,0,0,1,3.11.18l-3.17,13a6.67,6.67,0,0,0-.92-.06h-1.22a6.36,6.36,0,0,0-4.42,1.67q-1.86,1.68-1.86,5.28v15.68l-12.81,1.09-.37-35.74Z"/><path d="M1347.36,423.65l13.85-1.1L1360,448.3h.12l5.8-12.39,13.48,1.1-7.93,15.37,9.15,14.09-12.69,6.29L1360,457.45h-.12l.48,14.21-12.68,1.1Z"/><path d="M1402.93,466.78h-.12a8.36,8.36,0,0,1-3.81,4.76,12.62,12.62,0,0,1-6.07,1.4,10.26,10.26,0,0,1-7.41-2.71c-1.9-1.81-2.84-4.45-2.84-7.9V436.71l13.6-1.1-.36,22.57a2.56,2.56,0,0,0,.64,2.1,3.75,3.75,0,0,0,4.15,0,2.39,2.39,0,0,0,.7-2.07l-.37-21.53,14-1.1-.91,36.29-11.23.49Z"/><path d="M1431.3,440.79h.24a11.2,11.2,0,0,1,4.12-3.72,10.78,10.78,0,0,1,4.6-1,10.57,10.57,0,0,1,4.52.91,9.3,9.3,0,0,1,3.29,2.56,11.54,11.54,0,0,1,2,3.85,15.45,15.45,0,0,1,.71,4.75v23.61l-13.18,1.1.18-22.2a2.1,2.1,0,0,0-.82-1.83,3.19,3.19,0,0,0-2.11-.74,3.49,3.49,0,0,0-2.1.7,2.28,2.28,0,0,0-1,1.93l.25,22-13-.92-.49-34.71,12.69-1Z"/><path d="M1477,442.38l-6-7.69,12-11.4,16.84-1.71-2.32,51.36L1482.66,471l-.19-33.19Z"/><path d="M566,523.63a2.38,2.38,0,0,0-.86-1.89,3.31,3.31,0,0,0-2.25-.73,3,3,0,0,0-2.32.91,2.76,2.76,0,0,0-.85,1.89l.36,20.87-13.23,1.09.24-22a2.28,2.28,0,0,0-.86-2,3.83,3.83,0,0,0-4.54,0,2.25,2.25,0,0,0-.94,2.07l.61,22-12.82-1.1L527.81,510l12.45-1.1v5.61h.12a15.41,15.41,0,0,1,4.42-4.11,11.26,11.26,0,0,1,6-1.5,11.61,11.61,0,0,1,4.79.88,10.2,10.2,0,0,1,3.5,2.78,13.1,13.1,0,0,1,3.6-2.65,9.88,9.88,0,0,1,4.46-1,11.76,11.76,0,0,1,4.85.95,9.7,9.7,0,0,1,3.53,2.65,12,12,0,0,1,2.2,4,16.56,16.56,0,0,1,.82,4.91l.37,23.24-13.24,1.09Z"/><path d="M582.83,495.33l14-.61-.73,10.73-13.3,1Zm.07,15.43,13.6-1.1-.67,35.2L582.9,546Z"/><path d="M613.46,514h.24a11.2,11.2,0,0,1,4.12-3.72,10.78,10.78,0,0,1,4.6-1,10.57,10.57,0,0,1,4.52.91,9.3,9.3,0,0,1,3.29,2.56,11.54,11.54,0,0,1,2,3.85,15.47,15.47,0,0,1,.71,4.76V545l-13.18,1.1.18-22.2a2.1,2.1,0,0,0-.82-1.83,3.19,3.19,0,0,0-2.11-.74,3.43,3.43,0,0,0-2.1.71,2.25,2.25,0,0,0-1,1.92l.25,22-13-.92-.49-34.71,12.69-1Z"/><path d="M657.19,540h-.12a8.36,8.36,0,0,1-3.81,4.76,12.62,12.62,0,0,1-6.07,1.4,10.26,10.26,0,0,1-7.41-2.71c-1.89-1.81-2.84-4.45-2.84-7.9V509.91l13.6-1.1-.36,22.57a2.56,2.56,0,0,0,.64,2.1,3.12,3.12,0,0,0,2.16.64,3.07,3.07,0,0,0,2-.61,2.38,2.38,0,0,0,.7-2.07l-.37-21.53,14-1.1-.91,36.29-11.23.49Z"/><path d="M689.37,545.93q-.89,0-1.92,0-5.87,0-9.12-2.66t-3.27-8.63V520.22l-3.35.06.37-10.56h2.86v-4l13.24-6v10l4.94-.73-.67,11.23H688.3v10.67a4,4,0,0,0,.52,2.44,3.15,3.15,0,0,0,2.35.61,11,11,0,0,0,1.28-.06,6.25,6.25,0,0,0,.92-.18l-2.14,12.07A18,18,0,0,1,689.37,545.93Z"/><path d="M705.38,542.11l-7.26,9.4-2.56-.86,5.12-12.38Z"/><path d="M728.93,495.33l14-.61-.74,10.73-13.29,1Zm.06,15.43,13.6-1.1-.67,35.2L729,546Z"/><path d="M759.55,514h.24a11.27,11.27,0,0,1,4.12-3.72,10.81,10.81,0,0,1,4.6-1,10.54,10.54,0,0,1,4.52.91,9.3,9.3,0,0,1,3.29,2.56,11.56,11.56,0,0,1,2,3.85,15.78,15.78,0,0,1,.7,4.76V545l-13.18,1.1.18-22.2a2.07,2.07,0,0,0-.82-1.83,3.19,3.19,0,0,0-2.1-.74A3.44,3.44,0,0,0,761,522a2.24,2.24,0,0,0-.94,1.92l.24,22-13-.92-.49-34.71,12.69-1Z"/><path d="M817.92,544.92l-11.95.79v-3.47h-.12a8.27,8.27,0,0,1-4,2.83,15.38,15.38,0,0,1-5.09.89,15.06,15.06,0,0,1-6-1.25,16,16,0,0,1-5.16-3.6,17.39,17.39,0,0,1-3.59-5.77,20.9,20.9,0,0,1-1.35-7.74,23.47,23.47,0,0,1,1.13-7.35,18.41,18.41,0,0,1,3.26-6,15.34,15.34,0,0,1,5.28-4.09,16.45,16.45,0,0,1,7.17-1.5,14.91,14.91,0,0,1,3.9.52,8.44,8.44,0,0,1,3.3,1.74l-.55-14.51,14-1.1ZM801,532.84a6.71,6.71,0,0,0,2.25-1.31,6.54,6.54,0,0,0,1.44-1.83,5.24,5.24,0,0,0,.58-2.1,5.35,5.35,0,0,0-.31-2.14,5.08,5.08,0,0,0-1.13-1.77,5.59,5.59,0,0,0-1.8-1.25,6.45,6.45,0,0,0-2.28-.52,6.76,6.76,0,0,0-2.6.43,6.51,6.51,0,0,0-2.31,1.34,7,7,0,0,0-1.44,1.86,5.34,5.34,0,0,0-.58,2.14,5,5,0,0,0,.31,2.1,4.7,4.7,0,0,0,1.13,1.8,5.56,5.56,0,0,0,1.8,1.22,5.85,5.85,0,0,0,2.28.49A7.46,7.46,0,0,0,801,532.84Z"/><path d="M856.47,540.83a26.17,26.17,0,0,1-7.62,3.88,30.89,30.89,0,0,1-9,1.19,19.51,19.51,0,0,1-7.59-1.44,18.55,18.55,0,0,1-5.95-3.87,17.54,17.54,0,0,1-3.9-5.7A17.32,17.32,0,0,1,821,528a21.44,21.44,0,0,1,1.47-8.17,18.08,18.08,0,0,1,4-6.1,16.84,16.84,0,0,1,5.83-3.81,19,19,0,0,1,7.1-1.32A18.08,18.08,0,0,1,850,511.68a18.82,18.82,0,0,1,6.68,8.29L838.42,533.7a4.92,4.92,0,0,0,1.77.48,16.46,16.46,0,0,0,2,.13,10.12,10.12,0,0,0,4.73-1,17.47,17.47,0,0,0,3.51-2.41Zm-13.05-20a4.4,4.4,0,0,0-1.86-1.41,6.75,6.75,0,0,0-2.29-.36,4.72,4.72,0,0,0-2.22.52,5.46,5.46,0,0,0-1.74,1.4,6.69,6.69,0,0,0-1.53,4.24,5.09,5.09,0,0,0,.16,1.55,7.34,7.34,0,0,0,.39,1Z"/><path d="M871,514h.25a11.25,11.25,0,0,1,4.11-3.72,10.85,10.85,0,0,1,4.61-1,10.5,10.5,0,0,1,4.51.91,9.34,9.34,0,0,1,3.3,2.56,11.72,11.72,0,0,1,2,3.85,15.47,15.47,0,0,1,.7,4.76V545l-13.17,1.1.18-22.2a2.1,2.1,0,0,0-.82-1.83,3.21,3.21,0,0,0-2.11-.74,3.43,3.43,0,0,0-2.1.71,2.25,2.25,0,0,0-1,1.92l.25,22-13-.92-.49-34.71,12.69-1Z"/><path d="M925.53,508.87V513a13.31,13.31,0,0,1,4.05-3.14,11.57,11.57,0,0,1,5-1,13.9,13.9,0,0,1,6.68,1.62,16.35,16.35,0,0,1,5.13,4.24,19.8,19.8,0,0,1,3.26,5.94,20.46,20.46,0,0,1,1.16,6.74,20.74,20.74,0,0,1-1.22,7.05,19.13,19.13,0,0,1-3.45,6,17.12,17.12,0,0,1-5.33,4.21,15,15,0,0,1-6.84,1.58,16.3,16.3,0,0,1-4-.55,8.45,8.45,0,0,1-3.88-2.19l.37,12.14-12.87,1.09L912.9,510Zm8.29,23.61a6.92,6.92,0,0,0,3.69-3.6,5.16,5.16,0,0,0-3.35-7.11,7.07,7.07,0,0,0-5.1.58,7.3,7.3,0,0,0-3.78,3.63,5.22,5.22,0,0,0,1.4,6.1,5.28,5.28,0,0,0,2,1,7,7,0,0,0,2.44.18A8.19,8.19,0,0,0,933.82,532.48Z"/><path d="M987.93,524.36a19.06,19.06,0,0,1-.4,7.84,17.71,17.71,0,0,1-3.23,6.41,18.13,18.13,0,0,1-5.55,4.57,21.33,21.33,0,0,1-7.41,2.35,22.84,22.84,0,0,1-7.81-.24,18.12,18.12,0,0,1-6.65-2.84A17.19,17.19,0,0,1,952,537.2a18.59,18.59,0,0,1-2.5-7.41,18.9,18.9,0,0,1,.39-7.84,18.06,18.06,0,0,1,3.24-6.43,17.74,17.74,0,0,1,5.55-4.61,21.47,21.47,0,0,1,7.41-2.35,22.65,22.65,0,0,1,7.78.25,18.18,18.18,0,0,1,6.62,2.83,17.42,17.42,0,0,1,4.88,5.28A19.84,19.84,0,0,1,987.93,524.36Zm-25.62,5.19a5.32,5.32,0,0,0,3.29,3.11,7.2,7.2,0,0,0,5.13-.49,7.39,7.39,0,0,0,3.87-3.32,5.18,5.18,0,0,0,.09-4.49,5.43,5.43,0,0,0-3.29-3.08,7,7,0,0,0-5.07.46,7.32,7.32,0,0,0-3.93,3.36A5.1,5.1,0,0,0,962.31,529.55Z"/><path d="M989.7,496.85l13.78-1.1-.55,49.11L990.12,546Z"/><path d="M1008.18,495.33l14-.61-.73,10.73-13.3,1Zm.06,15.43,13.6-1.1-.67,35.2-12.93,1.1Z"/><path d="M1042.61,545.93q-.88,0-1.92,0-5.85,0-9.12-2.66t-3.26-8.63V520.22l-3.36.06.37-10.56h2.87v-4l13.23-6v10l4.94-.73-.67,11.23h-4.15v10.67a4,4,0,0,0,.52,2.44,3.15,3.15,0,0,0,2.35.61,10.84,10.84,0,0,0,1.28-.06,6.25,6.25,0,0,0,.92-.18l-2.14,12.07A18,18,0,0,1,1042.61,545.93Z"/><path d="M1049.41,495.33l14-.61-.73,10.73-13.3,1Zm.06,15.43,13.61-1.1-.67,35.2-12.94,1.1Z"/><path d="M1100.41,540.83a26.1,26.1,0,0,1-7.63,3.88,30.86,30.86,0,0,1-9,1.19,19.53,19.53,0,0,1-7.6-1.44,18.55,18.55,0,0,1-6-3.87,17.85,17.85,0,0,1-3.9-5.7A17.48,17.48,0,0,1,1065,528a21.64,21.64,0,0,1,1.46-8.17,18.25,18.25,0,0,1,4-6.1,16.71,16.71,0,0,1,5.82-3.81,19.12,19.12,0,0,1,7.11-1.32,18.07,18.07,0,0,1,10.58,3.12,18.75,18.75,0,0,1,6.68,8.29l-18.24,13.73a4.92,4.92,0,0,0,1.77.48,16.46,16.46,0,0,0,2,.13,10.12,10.12,0,0,0,4.73-1,17.47,17.47,0,0,0,3.51-2.41Zm-13.06-20a4.28,4.28,0,0,0-1.86-1.41,6.73,6.73,0,0,0-2.28-.36,4.73,4.73,0,0,0-2.23.52,5.46,5.46,0,0,0-1.74,1.4,6.61,6.61,0,0,0-1.52,4.24,5.53,5.53,0,0,0,.15,1.55,6.24,6.24,0,0,0,.4,1Z"/><path d="M1118.74,545.93q-.88,0-1.92,0-5.86,0-9.12-2.66t-3.27-8.63V520.22l-3.35.06.37-10.56h2.86v-4l13.24-6v10l4.94-.73-.67,11.23h-4.15v10.67a4,4,0,0,0,.52,2.44,3.15,3.15,0,0,0,2.35.61,11,11,0,0,0,1.28-.06,6.11,6.11,0,0,0,.91-.18l-2.13,12.07A18,18,0,0,1,1118.74,545.93Z"/><path d="M1143.23,496.85l13.85-1.1-1.22,25.75h.12l5.79-12.39,13.48,1.1-7.93,15.37,9.15,14.09L1163.79,546l-7.93-15.31h-.13l.49,14.21-12.69,1.1Z"/><path d="M1214.72,524.36a19.06,19.06,0,0,1-.4,7.84,17.71,17.71,0,0,1-3.23,6.41,18.13,18.13,0,0,1-5.55,4.57,21.33,21.33,0,0,1-7.41,2.35,22.84,22.84,0,0,1-7.81-.24,18.12,18.12,0,0,1-6.65-2.84,17.19,17.19,0,0,1-4.88-5.25,20.94,20.94,0,0,1-2.1-15.25,17.61,17.61,0,0,1,8.78-11,21.54,21.54,0,0,1,7.41-2.35,22.65,22.65,0,0,1,7.78.25,18.11,18.11,0,0,1,6.62,2.83,17.42,17.42,0,0,1,4.88,5.28A19.84,19.84,0,0,1,1214.72,524.36Zm-25.62,5.19a5.32,5.32,0,0,0,3.29,3.11,7.2,7.2,0,0,0,5.13-.49,7.39,7.39,0,0,0,3.87-3.32,5.18,5.18,0,0,0,.09-4.49,5.43,5.43,0,0,0-3.29-3.08,7,7,0,0,0-5.07.46,7.32,7.32,0,0,0-3.93,3.36A5.1,5.1,0,0,0,1189.1,529.55Z"/><path d="M1254.25,523.63a2.38,2.38,0,0,0-.86-1.89,3.33,3.33,0,0,0-2.25-.73,3,3,0,0,0-2.32.91,2.77,2.77,0,0,0-.86,1.89l.37,20.87-13.24,1.09.25-22a2.3,2.3,0,0,0-.86-2,3.83,3.83,0,0,0-4.54,0,2.28,2.28,0,0,0-1,2.07l.61,22-12.81-1.1-.73-34.71,12.44-1.1v5.61h.13a15.41,15.41,0,0,1,4.42-4.11,11.26,11.26,0,0,1,6-1.5,11.64,11.64,0,0,1,4.79.88,10.29,10.29,0,0,1,3.5,2.78,13.1,13.1,0,0,1,3.6-2.65,9.83,9.83,0,0,1,4.45-1,11.72,11.72,0,0,1,4.85.95,9.66,9.66,0,0,1,3.54,2.65,12,12,0,0,1,2.2,4,16.56,16.56,0,0,1,.82,4.91l.37,23.24-13.24,1.09Z"/><path d="M1308.6,523.63a2.38,2.38,0,0,0-.86-1.89,3.33,3.33,0,0,0-2.25-.73,3,3,0,0,0-2.32.91,2.77,2.77,0,0,0-.86,1.89l.37,20.87-13.24,1.09.25-22a2.3,2.3,0,0,0-.86-2,3.83,3.83,0,0,0-4.54,0,2.28,2.28,0,0,0-1,2.07l.61,22-12.81-1.1-.73-34.71,12.45-1.1v5.61h.12a15.41,15.41,0,0,1,4.42-4.11,11.26,11.26,0,0,1,5.95-1.5,11.64,11.64,0,0,1,4.79.88,10.29,10.29,0,0,1,3.5,2.78,13.1,13.1,0,0,1,3.6-2.65,9.84,9.84,0,0,1,4.46-1,11.68,11.68,0,0,1,4.84.95,9.66,9.66,0,0,1,3.54,2.65,12,12,0,0,1,2.2,4,16.56,16.56,0,0,1,.82,4.91l.37,23.24-13.24,1.09Z"/><path d="M1357.82,540.83a26.17,26.17,0,0,1-7.62,3.88,30.89,30.89,0,0,1-9,1.19,19.48,19.48,0,0,1-7.59-1.44,18.55,18.55,0,0,1-6-3.87,17.54,17.54,0,0,1-3.9-5.7,17.32,17.32,0,0,1-1.41-6.93,21.44,21.44,0,0,1,1.47-8.17,18.08,18.08,0,0,1,4-6.1,16.84,16.84,0,0,1,5.83-3.81,19,19,0,0,1,7.1-1.32,18.08,18.08,0,0,1,10.59,3.12A18.82,18.82,0,0,1,1358,520l-18.24,13.73a4.81,4.81,0,0,0,1.77.48,16.46,16.46,0,0,0,2,.13,10.12,10.12,0,0,0,4.73-1,17.47,17.47,0,0,0,3.51-2.41Zm-13-20a4.4,4.4,0,0,0-1.86-1.41,6.75,6.75,0,0,0-2.29-.36,4.72,4.72,0,0,0-2.22.52,5.25,5.25,0,0,0-1.74,1.4,6.69,6.69,0,0,0-1.53,4.24,5.53,5.53,0,0,0,.15,1.55,7.45,7.45,0,0,0,.4,1Z"/><path d="M1372,508.87v6.77h.12q1.58-6.76,9.15-6.77a25.53,25.53,0,0,1,3.11.18l-3.17,13a6.61,6.61,0,0,0-.92-.07h-1.22a6.37,6.37,0,0,0-4.42,1.68q-1.86,1.68-1.86,5.28v15.68L1360,545.71l-.37-35.74Z"/><path d="M1385.88,543.46l.43-5.19,6.41.37-1.22,6.4Z"/><path d="M736.15,653.13l-17,15.8,15,12.63-8.54,12.81-11.83-11.16-.13,7.74-16,1.83-1-49,17.87-2.13-.18,11L724.2,639Z"/><path d="M735.73,643.25l13.78-1.1L749,691.26l-12.81,1.1Z"/><path d="M773.12,687.6H773a8.67,8.67,0,0,1-4.18,3.23,16,16,0,0,1-5.46.92,12.32,12.32,0,0,1-4.64-.89,11.41,11.41,0,0,1-3.84-2.53,12.27,12.27,0,0,1-2.62-4,13.3,13.3,0,0,1-1-5.19,10.78,10.78,0,0,1,1-4.6,11.39,11.39,0,0,1,2.65-3.66,12.21,12.21,0,0,1,4-2.44,13.63,13.63,0,0,1,5-.89,11.94,11.94,0,0,1,4.72.83,14.24,14.24,0,0,1,3.27,1.86v-1.83c0-1.87-.61-3.12-1.83-3.73a10.68,10.68,0,0,0-4.76-.91,21.4,21.4,0,0,0-5,.55c-1.55.36-3.11.79-4.7,1.28l2.38-9.7a34.3,34.3,0,0,1,6.1-1.19,62.41,62.41,0,0,1,6.47-.33,24.39,24.39,0,0,1,5.85.7,14,14,0,0,1,5,2.28,11.36,11.36,0,0,1,3.45,4.09,13,13,0,0,1,1.22,6.16l-.67,23.06-12.26,1Zm-7.75-11.29a6.75,6.75,0,0,0-3.41,1.44,2.72,2.72,0,0,0-1.16,2.53,2.79,2.79,0,0,0,1.74,2.1,6.7,6.7,0,0,0,3.87.34,6.26,6.26,0,0,0,3.54-1.53,2.73,2.73,0,0,0,.91-2.5,2.9,2.9,0,0,0-1.55-2A5.85,5.85,0,0,0,765.37,676.31Z"/><path d="M802.64,655.27V662h.12q1.59-6.76,9.15-6.77a25.7,25.7,0,0,1,3.12.18l-3.18,13a6.47,6.47,0,0,0-.91-.07h-1.22a6.37,6.37,0,0,0-4.42,1.68c-1.25,1.12-1.86,2.88-1.86,5.28V691l-12.82,1.1-.36-35.74Z"/><path d="M825.7,688.51l-7.26,9.4-2.56-.86L821,684.67Z"/><path d="M861.45,655.27v4.15a13.31,13.31,0,0,1,4-3.14,11.47,11.47,0,0,1,5-1,13.88,13.88,0,0,1,6.67,1.62,16.34,16.34,0,0,1,5.13,4.23,20,20,0,0,1,3.26,6,20.46,20.46,0,0,1,1.16,6.74,20.74,20.74,0,0,1-1.22,7.05,19.13,19.13,0,0,1-3.45,6,17.12,17.12,0,0,1-5.33,4.21,15,15,0,0,1-6.84,1.58,16.3,16.3,0,0,1-4-.55,8.54,8.54,0,0,1-3.88-2.19l.37,12.14-12.87,1.09-.67-46.78Zm8.29,23.61a6.92,6.92,0,0,0,3.69-3.6,5.16,5.16,0,0,0-3.35-7.11,7.07,7.07,0,0,0-5.1.58,7.26,7.26,0,0,0-3.78,3.63,5,5,0,0,0,.06,4.36,5.14,5.14,0,0,0,1.34,1.74,5.28,5.28,0,0,0,2,1,7,7,0,0,0,2.44.18A8.13,8.13,0,0,0,869.74,678.88Z"/><path d="M907.13,687.6H907a8.63,8.63,0,0,1-4.18,3.23,15.88,15.88,0,0,1-5.46.92,12.27,12.27,0,0,1-4.63-.89,11.36,11.36,0,0,1-3.85-2.53,12.44,12.44,0,0,1-2.62-4,13.3,13.3,0,0,1-1-5.19,10.78,10.78,0,0,1,1-4.6,11.42,11.42,0,0,1,2.66-3.66,12.16,12.16,0,0,1,4-2.44,13.67,13.67,0,0,1,5-.89,12,12,0,0,1,4.73.83,14.16,14.16,0,0,1,3.26,1.86v-1.83c0-1.87-.61-3.12-1.83-3.73a10.64,10.64,0,0,0-4.75-.91,21.49,21.49,0,0,0-5,.55c-1.54.36-3.11.79-4.69,1.28l2.38-9.7a34.37,34.37,0,0,1,6.09-1.19,62.7,62.7,0,0,1,6.47-.33,24.47,24.47,0,0,1,5.86.7,14,14,0,0,1,5,2.28,11.56,11.56,0,0,1,3.45,4.09,13,13,0,0,1,1.22,6.16l-.68,23.06-12.26,1Zm-7.74-11.29a6.79,6.79,0,0,0-3.42,1.44,2.59,2.59,0,0,0,.58,4.63,6.72,6.72,0,0,0,3.87.34,6.19,6.19,0,0,0,3.54-1.53,2.74,2.74,0,0,0,.92-2.5,2.89,2.89,0,0,0-1.56-2A5.81,5.81,0,0,0,899.39,676.31Z"/><path d="M936.66,655.27V662h.12q1.59-6.76,9.15-6.77a25.53,25.53,0,0,1,3.11.18l-3.17,13a6.61,6.61,0,0,0-.92-.07h-1.22a6.38,6.38,0,0,0-4.42,1.68q-1.86,1.68-1.86,5.28V691l-12.81,1.1-.36-35.74Z"/><path d="M969.42,687.6h-.13a8.58,8.58,0,0,1-4.18,3.23,15.87,15.87,0,0,1-5.45.92,12.28,12.28,0,0,1-4.64-.89,11.22,11.22,0,0,1-3.84-2.53,12.3,12.3,0,0,1-2.63-4,13.3,13.3,0,0,1-1-5.19,10.78,10.78,0,0,1,1-4.6,11.42,11.42,0,0,1,2.66-3.66,12.16,12.16,0,0,1,4-2.44,13.67,13.67,0,0,1,5-.89,12,12,0,0,1,4.73.83,14.16,14.16,0,0,1,3.26,1.86v-1.83c0-1.87-.61-3.12-1.83-3.73a10.64,10.64,0,0,0-4.75-.91,21.55,21.55,0,0,0-5,.55c-1.54.36-3.11.79-4.69,1.28l2.38-9.7a34.3,34.3,0,0,1,6.1-1.19,62.36,62.36,0,0,1,6.46-.33,24.47,24.47,0,0,1,5.86.7,14,14,0,0,1,5,2.28,11.56,11.56,0,0,1,3.45,4.09,13,13,0,0,1,1.22,6.16l-.67,23.06-12.26,1Zm-7.75-11.29a6.82,6.82,0,0,0-3.42,1.44,2.59,2.59,0,0,0,.58,4.63,6.74,6.74,0,0,0,3.88.34,6.19,6.19,0,0,0,3.53-1.53,2.74,2.74,0,0,0,.92-2.5,2.89,2.89,0,0,0-1.56-2A5.81,5.81,0,0,0,961.67,676.31Z"/><path d="M1003.12,692.33q-.89,0-1.92,0-5.87,0-9.12-2.66c-2.18-1.77-3.27-4.64-3.27-8.63V666.62l-3.35.06.36-10.56h2.87v-4l13.24-6v10l4.94-.73-.67,11.23h-4.15v10.67a4,4,0,0,0,.52,2.44c.34.41,1.13.61,2.35.61a11,11,0,0,0,1.28-.06,6.11,6.11,0,0,0,.91-.18L1005,692.17C1004.33,692.25,1003.71,692.31,1003.12,692.33Z"/><path d="M1019.13,688.51l-7.26,9.4-2.56-.86,5.12-12.38Z"/><path d="M1044.47,680.46a19.72,19.72,0,0,0,3.63.31l1.8,0a9.61,9.61,0,0,0,1.71-.19,3.3,3.3,0,0,0,1.28-.51,1.27,1.27,0,0,0,.52-1.1,1.48,1.48,0,0,0-1-1.38,17.13,17.13,0,0,0-2.31-.88c-.92-.28-1.93-.62-3-1a9.71,9.71,0,0,1-3-1.7,9.13,9.13,0,0,1-2.32-3,11.1,11.1,0,0,1-1-5,10.41,10.41,0,0,1,.8-4,9.65,9.65,0,0,1,2.56-3.54,13.41,13.41,0,0,1,4.57-2.56,20.73,20.73,0,0,1,6.77-1c1,0,2,0,3,.13s2,.19,2.9.33,1.76.29,2.53.43,1.43.27,2,.4V667c-1-.24-2-.45-3-.61a19.77,19.77,0,0,0-3.18-.24l-1.15,0a10.75,10.75,0,0,0-1.59.18,4.24,4.24,0,0,0-1.4.52,1.09,1.09,0,0,0-.61,1,1.56,1.56,0,0,0,1,1.47,15.36,15.36,0,0,0,2.41.91c1,.29,2,.63,3.14,1a11.29,11.29,0,0,1,3.15,1.74,9.07,9.07,0,0,1,2.4,3,10.66,10.66,0,0,1,1,4.94,9.87,9.87,0,0,1-1.43,5.49,10.8,10.8,0,0,1-3.78,3.51,17.56,17.56,0,0,1-5.4,1.86,36.42,36.42,0,0,1-6.35.55,41.8,41.8,0,0,1-5-.31,36.93,36.93,0,0,1-5-1V679.67A29.64,29.64,0,0,0,1044.47,680.46Z"/><path d="M1081.9,660.39h.24a11.27,11.27,0,0,1,4.12-3.72,10.81,10.81,0,0,1,4.6-1,10.54,10.54,0,0,1,4.52.91,9.3,9.3,0,0,1,3.29,2.56,11.56,11.56,0,0,1,2,3.85,15.76,15.76,0,0,1,.7,4.75v23.61l-13.18,1.1.18-22.2a2.1,2.1,0,0,0-.82-1.83,3.19,3.19,0,0,0-2.1-.74,3.44,3.44,0,0,0-2.11.71,2.24,2.24,0,0,0-.94,1.92l.24,22-13-.92-.49-34.71,12.69-1Z"/><path d="M1120.14,669.3l3-13.42,12.57,1.1-13.06,46-13.78-1.1,5.24-14.33-11.46-30,13.29-1.65L1120,669.3Z"/><path d="M1170.89,691.32l-12,.79v-3.47h-.12a8.27,8.27,0,0,1-4,2.83,15.33,15.33,0,0,1-5.09.89,15.06,15.06,0,0,1-6-1.25,16,16,0,0,1-5.16-3.6,17.39,17.39,0,0,1-3.59-5.77,20.9,20.9,0,0,1-1.35-7.74,23.47,23.47,0,0,1,1.13-7.35,18.24,18.24,0,0,1,3.27-6,15.21,15.21,0,0,1,5.27-4.09,16.48,16.48,0,0,1,7.17-1.49,14.9,14.9,0,0,1,3.9.51,8.44,8.44,0,0,1,3.3,1.74l-.55-14.52,14-1.09ZM1154,679.24a6.71,6.71,0,0,0,2.25-1.31,6.36,6.36,0,0,0,1.44-1.83,5.24,5.24,0,0,0,.58-2.1,5.35,5.35,0,0,0-.31-2.14,5.08,5.08,0,0,0-1.13-1.77,5.55,5.55,0,0,0-1.79-1.25,6.45,6.45,0,0,0-4.88-.09,6.47,6.47,0,0,0-2.32,1.34,7,7,0,0,0-1.44,1.86,5.34,5.34,0,0,0-.58,2.14,5,5,0,0,0,.31,2.1,4.7,4.7,0,0,0,1.13,1.8,5.79,5.79,0,0,0,1.8,1.22,5.85,5.85,0,0,0,2.28.49A7.46,7.46,0,0,0,1154,679.24Z"/><path d="M1177.12,689.86l.42-5.19,6.41.37-1.22,6.4Z"/><path d="M1190.47,689.86l.43-5.19,6.41.37-1.22,6.4Z"/><path d="M1203.83,689.86l.43-5.19,6.41.37-1.23,6.4Z"/><path d="M1217.19,689.86l.43-5.19,6.4.37-1.22,6.4Z"/><path class="cls-25" d="M439,836,597.5,936.5h-80c-35.84-3.28-83.37-35.19-115.16-52.06l-.84.06a283.65,283.65,0,0,1-84.14-68.67h0A268.4,268.4,0,0,1,262.77,707.5h0A467.72,467.72,0,0,1,249.5,596.9V508.17q0-15.17,1.08-30.31L259.5,353l36,215.07q2,11.92,5.1,23.62h0C327.5,719,348.91,767.89,405.5,814Z"/></svg>
