<svg id="Layer_1" data-name="Layer 1" xmlns="http://www.w3.org/2000/svg" viewBox="0 0 1590 1080"><defs><style>.cls-1{opacity:0.91;}.cls-2{fill:#e6e6e6;}.cls-3{fill:#ed1c24;}</style></defs><title>gameover_final</title><g class="cls-1"><rect class="cls-2" x="68.5" y="100" width="1452" height="881" rx="329.04"/></g><path class="cls-3" d="M455.78,333a13.61,13.61,0,0,0-6.5-7.23,21.89,21.89,0,0,0-10-2.26A30.16,30.16,0,0,0,428,325.86a36.7,36.7,0,0,0-10.66,6.57,34.66,34.66,0,0,0-8,10.36,30.06,30.06,0,0,0-3.14,13.87q-.15,7.15,2.26,11.46a14.71,14.71,0,0,0,6.14,6.21,16.14,16.14,0,0,0,8.25,1.68,24.6,24.6,0,0,0,8.9-2.19,30,30,0,0,0,8-5.26,21.12,21.12,0,0,0,5.33-7.52L424.38,365l2.34-23.51,63.66-8a48.76,48.76,0,0,1-.81,18.18,74.68,74.68,0,0,1-5.84,16.42,108.51,108.51,0,0,1-7.81,13.36,100.65,100.65,0,0,1-6.79,9q-2.7,3.06-3,3.36a52.22,52.22,0,0,1-12.77,9.2,69.24,69.24,0,0,1-16.14,6,70,70,0,0,1-17.81,1.83,55.32,55.32,0,0,1-17.52-3.22,48.29,48.29,0,0,1-15.4-9.12A45,45,0,0,1,375,382.51a63,63,0,0,1-5.7-21.83,68.73,68.73,0,0,1,1.76-21,68,68,0,0,1,7.95-19.19,76.8,76.8,0,0,1,13.14-16.28,80.54,80.54,0,0,1,17.16-12.34,73.44,73.44,0,0,1,20-7.3c.19,0,1.24-.12,3.14-.37a49.9,49.9,0,0,1,8.25-.07,59.07,59.07,0,0,1,12.12,2.12,68.7,68.7,0,0,1,14.6,6.13,71.72,71.72,0,0,1,15.62,11.9Z"/><path class="cls-3" d="M540,395.5h-.3a20.68,20.68,0,0,1-10,7.74,38.13,38.13,0,0,1-13.06,2.19,29.43,29.43,0,0,1-11.1-2.12,27.3,27.3,0,0,1-9.2-6.06,29.38,29.38,0,0,1-6.28-9.49,31.81,31.81,0,0,1-2.33-12.41,26,26,0,0,1,2.33-11,27.84,27.84,0,0,1,6.35-8.76,29.41,29.41,0,0,1,9.49-5.84,32.76,32.76,0,0,1,11.9-2.12,28.84,28.84,0,0,1,11.32,2A35.69,35.69,0,0,1,537,354v-4.38q0-6.72-4.38-8.91t-11.39-2.19a52.21,52.21,0,0,0-12,1.31q-5.55,1.32-11.24,3.07l5.69-23.21a82.19,82.19,0,0,1,14.6-2.85,145.82,145.82,0,0,1,15.48-.8,59.15,59.15,0,0,1,14,1.67,33.74,33.74,0,0,1,12,5.48,27.5,27.5,0,0,1,8.25,9.78q3.06,6,2.92,14.75L569.36,403,540,405.43Zm-18.55-27a16,16,0,0,0-8.17,3.43q-3.21,2.7-2.78,6.06a6.74,6.74,0,0,0,4.16,5c2.39,1.12,5.48,1.38,9.28.8s6.61-1.8,8.46-3.65a6.54,6.54,0,0,0,2.19-6c-.29-1.84-1.53-3.43-3.72-4.74S525.56,367.81,521.47,368.49Z"/><path class="cls-3" d="M672.58,353.45a5.67,5.67,0,0,0-2-4.52,8,8,0,0,0-5.4-1.76,7.22,7.22,0,0,0-5.55,2.19,6.6,6.6,0,0,0-2.05,4.53l.88,49.93-31.68,2.63.58-52.71a5.49,5.49,0,0,0-2-4.74,9.13,9.13,0,0,0-10.88-.07,5.43,5.43,0,0,0-2.26,5l1.46,52.71L582.94,404l-1.75-83.08L611,318.27V331.7h.29a37.51,37.51,0,0,1,10.59-9.86,27,27,0,0,1,14.23-3.57,27.38,27.38,0,0,1,11.46,2.11,24.21,24.21,0,0,1,8.4,6.65,31.42,31.42,0,0,1,8.61-6.36,23.61,23.61,0,0,1,10.66-2.4,28.07,28.07,0,0,1,11.61,2.26,23.5,23.5,0,0,1,8.47,6.35,29.15,29.15,0,0,1,5.25,9.56,39.58,39.58,0,0,1,2,11.76l.88,55.62-31.68,2.63Z"/><path class="cls-3" d="M790.4,394.62a61.75,61.75,0,0,1-18.25,9.27,73.62,73.62,0,0,1-21.46,2.85,46.84,46.84,0,0,1-18.18-3.43A44.8,44.8,0,0,1,718.28,394a42.09,42.09,0,0,1-12.7-30.22,51.72,51.72,0,0,1,3.5-19.57,43.76,43.76,0,0,1,9.49-14.6,40.52,40.52,0,0,1,13.94-9.12,46,46,0,0,1,17-3.14q14.61,0,25.33,7.45a44.88,44.88,0,0,1,16,19.85l-43.65,32.85a11.34,11.34,0,0,0,4.23,1.17,42.59,42.59,0,0,0,4.82.29,24.1,24.1,0,0,0,11.31-2.41,41.66,41.66,0,0,0,8.4-5.76Zm-31.24-47.88a10.51,10.51,0,0,0-4.45-3.36,15.83,15.83,0,0,0-5.48-.88,11.56,11.56,0,0,0-5.33,1.24,13.35,13.35,0,0,0-4.16,3.36,15.61,15.61,0,0,0-2.7,4.75,15.83,15.83,0,0,0-.95,5.4,12.87,12.87,0,0,0,.37,3.72,16.33,16.33,0,0,0,.95,2.26Z"/><path class="cls-3" d="M925.45,355.2a45.27,45.27,0,0,1-1,18.76,41.89,41.89,0,0,1-7.74,15.33,43,43,0,0,1-13.28,10.95,51.22,51.22,0,0,1-17.74,5.63,54.66,54.66,0,0,1-18.69-.59,43.09,43.09,0,0,1-15.91-6.79,41.11,41.11,0,0,1-11.68-12.55,44.81,44.81,0,0,1-6-17.74,45.27,45.27,0,0,1,.95-18.76,42.1,42.1,0,0,1,21-26.43,51.42,51.42,0,0,1,17.74-5.62,54,54,0,0,1,18.62.58,43.29,43.29,0,0,1,15.84,6.79,41.08,41.08,0,0,1,11.68,12.63A47.21,47.21,0,0,1,925.45,355.2Zm-61.32,12.41a12.66,12.66,0,0,0,7.88,7.45q5.4,1.76,12.27-1.17,6.71-2.91,9.27-8a12.39,12.39,0,0,0,.22-10.73,13,13,0,0,0-7.89-7.37q-5.4-1.83-12.11,1.1-6.87,2.91-9.42,8A12.19,12.19,0,0,0,864.13,367.61Z"/><path class="cls-3" d="M952.75,317.39l8.32,57.67h.29L971,317.39l31.68,2.48-20.15,84.24-42,2.49-19.13-86.73Z"/><path class="cls-3" d="M1082.69,394.62a61.87,61.87,0,0,1-18.25,9.27,73.67,73.67,0,0,1-21.46,2.85,46.84,46.84,0,0,1-18.18-3.43,44.85,44.85,0,0,1-14.24-9.27,42.05,42.05,0,0,1-9.34-13.65,41.49,41.49,0,0,1-3.36-16.57,51.53,51.53,0,0,1,3.51-19.57,43.45,43.45,0,0,1,9.49-14.6,40.43,40.43,0,0,1,13.94-9.12,46,46,0,0,1,17-3.14q14.6,0,25.33,7.45a45,45,0,0,1,16,19.85l-43.66,32.85a11.34,11.34,0,0,0,4.24,1.17,42.43,42.43,0,0,0,4.81.29,24.14,24.14,0,0,0,11.32-2.41,41.87,41.87,0,0,0,8.39-5.76Zm-31.25-47.88a10.39,10.39,0,0,0-4.45-3.36,15.81,15.81,0,0,0-5.47-.88,11.53,11.53,0,0,0-5.33,1.24,13.12,13.12,0,0,0-4.16,3.36,16,16,0,0,0-3.65,10.15,13.33,13.33,0,0,0,.36,3.72,16.33,16.33,0,0,0,1,2.26Z"/><path class="cls-3" d="M1116.56,318.12v16.21h.29q3.8-16.21,21.9-16.21a60.57,60.57,0,0,1,7.45.44l-7.6,31.1a15.07,15.07,0,0,0-2.19-.15h-2.92a15.31,15.31,0,0,0-10.58,4q-4.46,4-4.45,12.63v37.53l-30.66,2.62-.88-85.55Z"/><path class="cls-3" d="M1149.85,400.9l1-12.41,15.33.88-2.92,15.33Z"/><path class="cls-3" d="M1181.82,400.9l1-12.41,15.33.88-2.92,15.33Z"/><path class="cls-3" d="M1213.79,400.9l1-12.41,15.33.88-2.92,15.33Z"/></svg>