<svg id="Layer_1" data-name="Layer 1" xmlns="http://www.w3.org/2000/svg" viewBox="0 0 450 180"><defs><style>.cls-1{fill:#ffa80a;}.cls-2{fill:#ff931e;}.cls-3{fill:#ffd950;}.cls-4{fill:#fff;opacity:0.59;}</style></defs><title>got_it_beskrivelse</title><rect class="cls-1" x="40.4" y="43.39" width="368.49" height="108.54" rx="24.5"/><rect class="cls-2" x="45.01" y="34.5" width="368.49" height="108.54" rx="24.5"/><rect class="cls-3" x="68.05" y="48.55" width="327.07" height="80.4" rx="12"/><rect class="cls-4" x="76.23" y="62.4" width="10.36" height="50.37" rx="4.5"/><path d="M176.45,83.76a4.3,4.3,0,0,0-2-2.28,6.89,6.89,0,0,0-3.15-.71,9.57,9.57,0,0,0-3.54.74,11.47,11.47,0,0,0-3.36,2.07,10.92,10.92,0,0,0-2.51,3.26,9.46,9.46,0,0,0-1,4.37,6.94,6.94,0,0,0,.71,3.61,4.62,4.62,0,0,0,1.93,2,5.13,5.13,0,0,0,2.6.53,7.89,7.89,0,0,0,2.81-.69,9.47,9.47,0,0,0,2.5-1.66,6.69,6.69,0,0,0,1.68-2.37l-6.53,1.24.74-7.4,20-2.53a15.28,15.28,0,0,1-.25,5.72,24,24,0,0,1-1.84,5.18A34.38,34.38,0,0,1,182.8,99a33.09,33.09,0,0,1-2.14,2.83l-.94,1.06a16.42,16.42,0,0,1-4,2.89A21.75,21.75,0,0,1,165,108.25a17.14,17.14,0,0,1-5.52-1,15.29,15.29,0,0,1-4.86-2.87,14.12,14.12,0,0,1-3.61-5,19.77,19.77,0,0,1-1.79-6.87,21.35,21.35,0,0,1,3.06-12.68,24.39,24.39,0,0,1,4.14-5.13,25.56,25.56,0,0,1,5.4-3.88,23,23,0,0,1,6.3-2.3l1-.12a16.44,16.44,0,0,1,2.6,0,18,18,0,0,1,3.82.67,21.14,21.14,0,0,1,4.6,1.93,22,22,0,0,1,4.92,3.75Z"/><path d="M215.59,90.75a14.31,14.31,0,0,1-.29,5.91,13.28,13.28,0,0,1-2.44,4.83,13.48,13.48,0,0,1-4.19,3.45,15.87,15.87,0,0,1-5.59,1.77,17,17,0,0,1-5.89-.18,13.57,13.57,0,0,1-5-2.14,13.06,13.06,0,0,1-3.68-4,14.19,14.19,0,0,1-1.89-5.58,14.53,14.53,0,0,1,.3-5.92,13.61,13.61,0,0,1,2.44-4.85,13.4,13.4,0,0,1,4.19-3.47,15.87,15.87,0,0,1,5.59-1.77A16.83,16.83,0,0,1,205,79a13.55,13.55,0,0,1,5,2.14,12.91,12.91,0,0,1,3.68,4A14.82,14.82,0,0,1,215.59,90.75Zm-19.32,3.91A4,4,0,0,0,198.76,97a5.45,5.45,0,0,0,3.86-.37,5.55,5.55,0,0,0,2.92-2.51,3.88,3.88,0,0,0,.07-3.38,4.08,4.08,0,0,0-2.48-2.32,5.25,5.25,0,0,0-3.82.34,5.62,5.62,0,0,0-3,2.53A3.88,3.88,0,0,0,196.27,94.66Z"/><path d="M229.05,107c-.45,0-.93,0-1.45,0a10.6,10.6,0,0,1-6.88-2q-2.46-2-2.46-6.5V87.62l-2.53,0,.28-8h2.16v-3l10-4.51v7.54l3.73-.55-.51,8.46h-3.13v8a3,3,0,0,0,.39,1.84,2.41,2.41,0,0,0,1.78.46,8.39,8.39,0,0,0,1,0,4.42,4.42,0,0,0,.69-.14l-1.61,9.11C230,107,229.49,107,229.05,107Z"/><path d="M248,68.86l10.53-.46L258,76.49l-10,.74Zm0,11.63,10.26-.82-.51,26.54L248,107Z"/><path d="M273.94,107c-.44,0-.92,0-1.45,0a10.57,10.57,0,0,1-6.87-2q-2.46-2-2.46-6.5V87.62l-2.53,0,.27-8h2.16v-3l10-4.51v7.54l3.72-.55-.5,8.46h-3.13v8a3,3,0,0,0,.39,1.84c.26.31.85.46,1.77.46a8.58,8.58,0,0,0,1,0,5,5,0,0,0,.69-.14l-1.61,9.11C274.86,107,274.39,107,273.94,107Z"/><path d="M296.6,108a10.46,10.46,0,0,1-2.56-1.31,8.42,8.42,0,0,1-1.84-1.77,5.67,5.67,0,0,1-1-2,3.42,3.42,0,0,1,.11-2,3.68,3.68,0,0,1,1.15-1.65,5.41,5.41,0,0,1,2-1,8.17,8.17,0,0,1,2.56-.25,10.88,10.88,0,0,1,2.8.53,10.29,10.29,0,0,1,2.56,1.31,8.42,8.42,0,0,1,1.84,1.77,5.34,5.34,0,0,1,.94,2,3.83,3.83,0,0,1-.09,2,3.52,3.52,0,0,1-1.15,1.63,5.63,5.63,0,0,1-2,1,8.15,8.15,0,0,1-2.56.3A9.15,9.15,0,0,1,296.6,108Zm8.83-10.76a11.13,11.13,0,0,0-2.74-1.36,13.71,13.71,0,0,0-3.29-.67,13.34,13.34,0,0,0-3.24.12,10.86,10.86,0,0,0-2.83.85l2.44-31.83,13.62-.55Z"/></svg>