<svg id="Layer_1" data-name="Layer 1" xmlns="http://www.w3.org/2000/svg" viewBox="0 0 1920 1080"><defs><style>.cls-1{opacity:0.51;}.cls-2{fill:#ff5eac;}.cls-18,.cls-19,.cls-3{fill:#fff;}.cls-14,.cls-4,.cls-6,.cls-8,.cls-9{fill:none;}.cls-10,.cls-11,.cls-14,.cls-4{stroke:#000;}.cls-10,.cls-11,.cls-14,.cls-18,.cls-19,.cls-4,.cls-6,.cls-8,.cls-9{stroke-miterlimit:10;}.cls-4{stroke-width:2px;opacity:0.49;}.cls-18,.cls-21,.cls-5,.cls-8,.cls-9{opacity:0.55;}.cls-6,.cls-8,.cls-9{stroke:#0027c9;}.cls-6,.cls-8{stroke-width:10px;}.cls-7{fill:#b3b3b3;}.cls-10,.cls-14,.cls-9{stroke-width:7px;}.cls-10,.cls-11{fill:#749fff;}.cls-10,.cls-11,.cls-12,.cls-14{opacity:0.38;}.cls-11{stroke-width:6px;}.cls-13{fill:gray;}.cls-15,.cls-17{fill:#ff1d25;}.cls-15,.cls-23{opacity:0.91;}.cls-16{fill:#ed1c24;}.cls-18{stroke:#fff;}.cls-19{stroke:#ccc;}.cls-20,.cls-27{fill:#ff931e;}.cls-20{opacity:0.62;}.cls-21,.cls-22{fill:#0027c9;}.cls-24{fill:#e6e6e6;}.cls-25{fill:#009245;}.cls-26{fill:#ccc;}</style></defs><title>levelcomplete_baggrund</title><path d="M1778,129a1.5,1.5,0,0,0,0-3,1.5,1.5,0,0,0,0,3Z"/><path d="M1234.41,108.93a1.5,1.5,0,0,0,0-3,1.5,1.5,0,0,0,0,3Z"/><g class="cls-1"><rect class="cls-2" x="6.5" y="413.24" width="1919" height="664.13"/></g><rect class="cls-3" x="4.5" y="627.64" width="1435" height="445.61"/><path d="M1438.5,628.64v443.61H5.5V628.64h1433m2-2H3.5v447.61h1437V626.64Z"/><polyline class="cls-4" points="1441.5 626.12 3.5 626.64 4.5 524.83"/><g class="cls-5"><line class="cls-6" x1="312.5" y1="626.64" x2="314.5" y2="1080.5"/></g><g class="cls-5"><polyline class="cls-6" points="1399.5 590.21 2.5 586.04 1.5 626.64 1440.5 626.64"/><polyline class="cls-7" points="1399.5 590.21 2.5 586.04 1.5 626.64 1440.5 626.64"/></g><line class="cls-8" x1="687.5" y1="626.64" x2="689.5" y2="1074.25"/><line class="cls-8" x1="1065.5" y1="626.64" x2="1063.5" y2="1074.25"/><line class="cls-9" x1="1395" y1="586.56" x2="1440.5" y2="626.64"/><line class="cls-8" x1="1440.5" y1="626.64" x2="1440.5" y2="1074.25"/><ellipse class="cls-10" cx="103.5" cy="850.45" rx="77.5" ry="80.67"/><ellipse class="cls-10" cx="497" cy="847.84" rx="77.5" ry="80.67"/><ellipse class="cls-10" cx="877" cy="849.93" rx="77.5" ry="80.67"/><ellipse class="cls-11" cx="1251" cy="847.84" rx="77.5" ry="80.67"/><g class="cls-12"><path d="M182.63,990.73a1.5,1.5,0,0,0,0-3,1.5,1.5,0,0,0,0,3Z"/></g><g class="cls-12"><path d="M124.3,990.73a1.5,1.5,0,0,0,0-3,1.5,1.5,0,0,0,0,3Z"/></g><g class="cls-12"><path d="M119.81,990.73a1.5,1.5,0,0,0,0-3,1.5,1.5,0,0,0,0,3Z"/></g><g class="cls-12"><path d="M119.81,990.73a1.5,1.5,0,0,0,0-3,1.5,1.5,0,0,0,0,3Z"/></g><rect class="cls-13" x="3.5" y="402.83" width="1920.5" height="14.57"/><ellipse class="cls-14" cx="103" cy="847.84" rx="102" ry="106.18"/><ellipse class="cls-14" cx="497" cy="850.97" rx="102" ry="106.18"/><ellipse class="cls-14" cx="877" cy="849.93" rx="102" ry="106.18"/><ellipse class="cls-14" cx="1251" cy="850.97" rx="102" ry="106.18"/><path class="cls-15" d="M1250.5,925.4c-40.87,0-74-34.49-74-77Z"/><path class="cls-16" d="M1239.77,892.36c-3.51-8.79-12.91-13.08-19.25-19.93-2.81-3-5-6.62-7.71-9.79a40.46,40.46,0,0,0-35.39-14l74.19,75.72a21.17,21.17,0,0,1-1.41-7.76,34.15,34.15,0,0,0,0-5.54,15.13,15.13,0,0,0-1-3.35,34.6,34.6,0,0,0-6.26-9.81c-1.37-1.49-3-3.28-2.56-5.29"/><path class="cls-17" d="M1241.07,891.6c-2.59-5.84-7.22-9.74-12.09-13.68-6.23-5-10.37-11-15.62-16.92a42.25,42.25,0,0,0-35.94-13.87,1.52,1.52,0,0,0-1.06,2.56l64.85,66.19,9.34,9.53a1.51,1.51,0,0,0,2.51-1.46c-1.89-5.51-.36-11.27-2.49-16.65a32,32,0,0,0-2.88-5.54c-1.63-2.56-5.84-6.3-5.88-9.16,0-1.93-3-1.94-3,0,.07,5.08,5.28,8.59,7.57,12.83,3.34,6.17,1.56,12.83,3.78,19.32l2.51-1.46-64.85-66.19-9.33-9.53-1.07,2.56c14.85-1.58,27.95,5.07,36.84,16.78a69.94,69.94,0,0,0,12,12.69c4.84,3.9,9.6,7.69,12.18,13.51.78,1.76,3.36.24,2.59-1.51Z"/><path class="cls-18" d="M1252,924.26c42,0,74-36,74-79.54l-33,12.49-35,25-15,15.61,6,7.29,3,7.28v11.88Z"/><rect class="cls-19" x="1353" y="239.92" width="204" height="81.2"/><rect class="cls-19" x="1626" y="2.58" width="204" height="81.2"/><rect class="cls-19" x="1072" y="58.79" width="204" height="81.2"/><rect class="cls-19" x="852" y="280.52" width="204" height="81.2"/><rect class="cls-19" x="537" y="43.18" width="204" height="81.2"/><rect class="cls-19" x="124" y="0.5" width="204" height="81.2"/><rect class="cls-19" x="148" y="258.66" width="204" height="81.2"/><path class="cls-20" d="M174.5,850.45c-.06,40.45-32,73.64-70.75,73.65C65.22,924.1,33.33,891.22,33,851l28.88,8.84a26.31,26.31,0,0,0,10.43,1L98,858.25,116.77,856a12.24,12.24,0,0,1,11.51,5.26h0a8.05,8.05,0,0,0,9.62,3l7.1-2.84Z"/><path class="cls-3" d="M823,807.81l-2.76,3.35a25,25,0,0,0-4.26,7.55l-2.37,6.7a55.24,55.24,0,0,0-3.15,18.39l.42,13.43a31.47,31.47,0,0,0,.57,5.12l2,10.53,0,.11c2.47,6.64,4.46,12.85,9.1,17.68l6.82,7.1.08.07,12.09,9a.65.65,0,0,0,1-.8l-15-36.2a.75.75,0,0,1,0-.26v-30a.28.28,0,0,1,0-.09L829.79,822a31.77,31.77,0,0,1,3.14-10.19l6.89-13.62a.66.66,0,0,0-.74-1h0A32.22,32.22,0,0,0,823,807.81Z"/><path class="cls-3" d="M444,807.81l-2.76,3.35a25,25,0,0,0-4.26,7.55l-2.37,6.7a55.24,55.24,0,0,0-3.15,18.39l.42,13.43a31.47,31.47,0,0,0,.57,5.12l2,10.53,0,.11c2.47,6.64,4.46,12.85,9.1,17.68l6.82,7.1.08.07,12.09,9a.65.65,0,0,0,1-.8l-15-36.2a.75.75,0,0,1-.05-.26v-30a.28.28,0,0,1,0-.09L450.79,822a31.77,31.77,0,0,1,3.14-10.19l6.89-13.62a.66.66,0,0,0-.74-1h0A32.22,32.22,0,0,0,444,807.81Z"/><rect class="cls-21" x="720.5" y="650.58" width="91" height="41.64" rx="12"/><rect class="cls-21" x="334.5" y="650.58" width="91" height="41.64" rx="12"/><rect class="cls-21" x="-33.5" y="651.62" width="91" height="41.64" rx="12"/><rect class="cls-21" x="1094.5" y="651.62" width="91" height="41.64" rx="12"/><g class="cls-5"><rect class="cls-22" x="1377.5" y="650.58" width="35" height="36.43" rx="12"/></g><g class="cls-5"><rect class="cls-22" x="1002.5" y="650.58" width="35" height="36.43" rx="12"/></g><g class="cls-5"><rect class="cls-22" x="621.5" y="653.7" width="35" height="36.43" rx="12"/></g><g class="cls-5"><rect class="cls-22" x="249.5" y="653.7" width="35" height="36.43" rx="12"/></g><g class="cls-23"><rect class="cls-24" x="235.5" y="97.5" width="1452" height="881" rx="329.04"/></g><path class="cls-25" d="M732.39,253.06l-17.52,2v82.2l-41.47,5.11L675.59,259l-19.27,1.9,1-35.91,78.84-6.72Z"/><path class="cls-25" d="M738.52,220.21,772,218.75l-1.75,25.69-31.83,2.34Zm.15,36.93,32.55-2.62-1.6,84.24-31,2.63Z"/><path class="cls-25" d="M782.46,223.86l33-2.63-1.31,117.53-30.66,2.63Z"/><path class="cls-25" d="M826.12,223.86l33-2.63L857.8,338.76l-30.66,2.63Z"/><path class="cls-25" d="M904.37,286.2l7.16-32.12,30.07,2.63L910.36,366.79l-33-2.63,12.56-34.31L862.47,258l31.83-3.94,9.78,32.12Z"/><path class="cls-25" d="M942.19,223.86l33.14-2.63-2.92,61.61h.29l13.87-29.64,32.27,2.63-19,36.79,21.9,33.73-30.37,15-19-36.65h-.29l1.17,34-30.37,2.63Z"/><path class="cls-25" d="M1026.57,223.86l33.14-2.63-2.92,61.61h.3L1071,253.2l32.26,2.63-19,36.79,21.9,33.73-30.37,15-19-36.65h-.29l1.17,34-30.37,2.63Z"/><path class="cls-25" d="M1189.94,329.12a61.75,61.75,0,0,1-18.25,9.27,73.62,73.62,0,0,1-21.46,2.85,46.76,46.76,0,0,1-18.17-3.43,44.85,44.85,0,0,1-14.24-9.27,42.09,42.09,0,0,1-12.7-30.22,51.72,51.72,0,0,1,3.5-19.57,43.76,43.76,0,0,1,9.49-14.6,40.47,40.47,0,0,1,14-9.12,45.93,45.93,0,0,1,17-3.14q14.61,0,25.34,7.45a44.93,44.93,0,0,1,16,19.85L1146.73,312a11.53,11.53,0,0,0,4.23,1.17,42.59,42.59,0,0,0,4.82.29,24.14,24.14,0,0,0,11.32-2.41,41.87,41.87,0,0,0,8.39-5.76Zm-31.24-47.88a10.45,10.45,0,0,0-4.45-3.36,15.83,15.83,0,0,0-5.48-.88,11.56,11.56,0,0,0-5.33,1.24,13.35,13.35,0,0,0-4.16,3.36,15.61,15.61,0,0,0-2.7,4.75,15.83,15.83,0,0,0-.95,5.4,12.87,12.87,0,0,0,.37,3.72,16.33,16.33,0,0,0,1,2.26Z"/><path class="cls-25" d="M1251.56,344.45a32.8,32.8,0,0,1-8.11-4.16,25.94,25.94,0,0,1-5.84-5.62,17.54,17.54,0,0,1-3.06-6.42,10.65,10.65,0,0,1,.36-6.43,11.49,11.49,0,0,1,3.65-5.25,16.63,16.63,0,0,1,6.35-3.21,25.89,25.89,0,0,1,8.11-.81,34.87,34.87,0,0,1,8.9,1.68,32.55,32.55,0,0,1,8.1,4.16,26,26,0,0,1,5.84,5.62,16.88,16.88,0,0,1,3,6.43,12,12,0,0,1-.29,6.42,11.07,11.07,0,0,1-3.65,5.18,18.24,18.24,0,0,1-6.36,3.22,25.75,25.75,0,0,1-8.1.95A29.53,29.53,0,0,1,1251.56,344.45Zm28-34.16a35.61,35.61,0,0,0-8.69-4.31,44.79,44.79,0,0,0-20.73-1.75,34.82,34.82,0,0,0-9,2.7l7.74-101,43.21-1.75Z"/><path class="cls-26" d="M447,860,605.5,960.5h-80c-35.84-3.28-83.37-35.19-115.16-52.06l-.84.06a283.65,283.65,0,0,1-84.14-68.67h0A268.4,268.4,0,0,1,270.77,731.5h0A467.72,467.72,0,0,1,257.5,620.9V532.17q0-15.17,1.08-30.31L267.5,377l36,215.07q2,11.92,5.1,23.62h0C335.5,743,356.91,791.89,413.5,838Z"/><path class="cls-27" d="M419,431.93q16.1-3.1,31.5-5a30,30,0,0,1,13.26.58,23.85,23.85,0,0,1,9.79,5.56,25.35,25.35,0,0,1,6.14,9.35,36.75,36.75,0,0,1,2.41,11.83,46.6,46.6,0,0,1-1.38,13,48.37,48.37,0,0,1-5.34,13A52.5,52.5,0,0,1,465.93,492a50.94,50.94,0,0,1-13.57,9,36,36,0,0,1-6.81,1.38,85.6,85.6,0,0,1-9.83.31,143.2,143.2,0,0,1-15.31-1.25Zm23,49.31a21.59,21.59,0,0,0,8.23-3.52,18.79,18.79,0,0,0,4.76-4.89,18.14,18.14,0,0,0,2.27-5,15.92,15.92,0,0,0,.67-3.91v-1.61c0-.11-.09-.69-.27-1.73a18,18,0,0,0-1.15-3.7,9.32,9.32,0,0,0-2.5-3.51,5.58,5.58,0,0,0-4.36-1.11q-2.76.25-6.76,3.47Z"/><path class="cls-27" d="M511.54,493.7h-.17a12.2,12.2,0,0,1-5.57,6.94,18.25,18.25,0,0,1-8.85,2.05,15,15,0,0,1-10.82-4q-4.12-4-4.13-11.53V449.82l19.84-1.6-.53,32.93a3.76,3.76,0,0,0,.93,3.07,5.47,5.47,0,0,0,6.06,0,3.49,3.49,0,0,0,1-3l-.53-31.42,20.47-1.6-1.34,53-16.38.71Z"/><path class="cls-27" d="M580.7,454h.17a13.14,13.14,0,0,1,5.17-4.23,16.16,16.16,0,0,1,6.58-1.29,15.67,15.67,0,0,1,6.63,1.33,13.38,13.38,0,0,1,4.85,3.74,16.76,16.76,0,0,1,3,5.65,21.23,21.23,0,0,1,.94,7l-.54,34.44-18.77,1.6V469.76a3.52,3.52,0,0,0-1.07-2.58,3.85,3.85,0,0,0-2.85-1.07,4.31,4.31,0,0,0-2.89,1,3.51,3.51,0,0,0-1.2,2.81v32.39L562,500.73l-.63-70.13,19.94-1.6Z"/><path class="cls-27" d="M641.93,495.48h-.18a12.62,12.62,0,0,1-6.1,4.72,23.21,23.21,0,0,1-8,1.33,18,18,0,0,1-6.77-1.29,16.65,16.65,0,0,1-5.6-3.69,17.73,17.73,0,0,1-3.83-5.79,19.26,19.26,0,0,1-1.43-7.56,15.79,15.79,0,0,1,1.43-6.72,16.87,16.87,0,0,1,3.87-5.34,18,18,0,0,1,5.78-3.56,20,20,0,0,1,7.26-1.29,17.55,17.55,0,0,1,6.9,1.2,21.8,21.8,0,0,1,4.76,2.72v-2.67q0-4.1-2.67-5.43a15.57,15.57,0,0,0-6.94-1.34,31.77,31.77,0,0,0-7.3.8c-2.26.54-4.54,1.16-6.86,1.87l3.48-14.15a51,51,0,0,1,8.9-1.74,91.28,91.28,0,0,1,9.43-.49,35.9,35.9,0,0,1,8.54,1,20.43,20.43,0,0,1,7.35,3.34,16.67,16.67,0,0,1,5,6,18.8,18.8,0,0,1,1.78,9l-1,33.64-17.89,1.51ZM630.62,479a9.69,9.69,0,0,0-5,2.09A4,4,0,0,0,624,484.8a4.09,4.09,0,0,0,2.54,3.07,9.76,9.76,0,0,0,5.65.49,9.16,9.16,0,0,0,5.16-2.22,4,4,0,0,0,1.33-3.65,4.2,4.2,0,0,0-2.27-2.9Q634.37,478.39,630.62,479Z"/><path class="cls-27" d="M685,448.31v9.88h.18q2.31-9.88,13.35-9.88a36.34,36.34,0,0,1,4.54.27l-4.63,19a9.27,9.27,0,0,0-1.33-.09h-1.78a9.32,9.32,0,0,0-6.46,2.44c-1.81,1.64-2.71,4.2-2.71,7.7v22.87l-18.69,1.61-.53-52.16Z"/><path class="cls-27" d="M734.53,485.07a29.37,29.37,0,0,0,5.3.44c.83,0,1.7,0,2.62,0a15.06,15.06,0,0,0,2.49-.27,5,5,0,0,0,1.87-.75,1.87,1.87,0,0,0,.76-1.61,2.14,2.14,0,0,0-1.38-2,23.66,23.66,0,0,0-3.38-1.29c-1.34-.42-2.81-.9-4.41-1.47a14.24,14.24,0,0,1-4.4-2.49,13.28,13.28,0,0,1-3.39-4.41,16.13,16.13,0,0,1-1.38-7.21,15.29,15.29,0,0,1,1.16-5.78,14,14,0,0,1,3.74-5.16,19.45,19.45,0,0,1,6.67-3.74,30.25,30.25,0,0,1,9.88-1.42c1.49,0,3,.06,4.45.17s2.9.29,4.23.49,2.57.42,3.69.63,2.08.4,2.85.57V465.4c-1.48-.36-2.94-.65-4.36-.89a27.89,27.89,0,0,0-4.63-.36c-.35,0-.92,0-1.69.05a16.5,16.5,0,0,0-2.31.26,6.41,6.41,0,0,0-2,.76,1.62,1.62,0,0,0-.89,1.42,2.29,2.29,0,0,0,1.42,2.14,22.15,22.15,0,0,0,3.52,1.34c1.39.41,2.92.92,4.58,1.51a16.14,16.14,0,0,1,4.59,2.54,13.14,13.14,0,0,1,3.51,4.4,15.72,15.72,0,0,1,1.43,7.21,14.42,14.42,0,0,1-2.09,8,15.6,15.6,0,0,1-5.52,5.12,25.27,25.27,0,0,1-7.88,2.71,51.61,51.61,0,0,1-9.25.8,61.34,61.34,0,0,1-7.35-.44,52.46,52.46,0,0,1-7.25-1.43V483.91A45.57,45.57,0,0,0,734.53,485.07Z"/><path class="cls-27" d="M789.13,455.79h.36a16.51,16.51,0,0,1,6-5.43,15.79,15.79,0,0,1,6.72-1.43,15.36,15.36,0,0,1,6.59,1.34,13.47,13.47,0,0,1,4.81,3.74,17.17,17.17,0,0,1,3,5.6,22.8,22.8,0,0,1,1,6.95V501l-19.22,1.6.26-32.39a3.08,3.08,0,0,0-1.2-2.67,4.61,4.61,0,0,0-3.07-1.07,5,5,0,0,0-3.07,1,3.3,3.3,0,0,0-1.38,2.8l.36,32.13-19-1.33-.71-50.64,18.51-1.52Z"/><path class="cls-27" d="M844.93,468.78l4.36-19.58,18.34,1.6-19,67.11-20.11-1.6,7.65-20.92L819.39,451.6l19.4-2.4,6,19.58Z"/><path class="cls-27" d="M919,500.91l-17.44,1.16V497h-.18a12,12,0,0,1-5.83,4.14,22.39,22.39,0,0,1-7.43,1.29,22,22,0,0,1-8.77-1.82,23.13,23.13,0,0,1-7.52-5.25,25.42,25.42,0,0,1-5.25-8.41,30.83,30.83,0,0,1-2-11.31,34.18,34.18,0,0,1,1.65-10.72A26.82,26.82,0,0,1,871,456.1a22.27,22.27,0,0,1,7.7-6A24.09,24.09,0,0,1,889.17,448a21.62,21.62,0,0,1,5.69.75,12.17,12.17,0,0,1,4.81,2.54l-.8-21.18,20.47-1.61Zm-24.65-17.62a9.92,9.92,0,0,0,3.29-1.92,9.24,9.24,0,0,0,2.09-2.67,7.48,7.48,0,0,0,.85-3.07,7.86,7.86,0,0,0-.45-3.11,7.4,7.4,0,0,0-1.64-2.58,8.4,8.4,0,0,0-2.63-1.83,9.44,9.44,0,0,0-3.34-.75,9.73,9.73,0,0,0-3.78.62,9.53,9.53,0,0,0-3.38,2,9.82,9.82,0,0,0-2.09,2.71,7.57,7.57,0,0,0-.85,3.12,7.42,7.42,0,0,0,.45,3.07,6.81,6.81,0,0,0,1.64,2.62,8.43,8.43,0,0,0,2.63,1.78,8.64,8.64,0,0,0,3.34.72A11.11,11.11,0,0,0,894.33,483.29Z"/><path class="cls-27" d="M951.06,502.38c-.86,0-1.79,0-2.8,0q-8.53,0-13.3-3.87T930.19,486V464.87l-4.89.08.53-15.39H930v-5.88L949.33,435v14.6l7.21-1.07-1,16.38h-6v15.57c0,1.78.25,3,.75,3.56s1.65.89,3.43.89a15.62,15.62,0,0,0,1.87-.09,8.69,8.69,0,0,0,1.33-.27l-3.11,17.63C952.83,502.27,951.92,502.35,951.06,502.38Z"/><path class="cls-27" d="M991.42,465.58h-6.14l2.85-15.31h3.29a28.65,28.65,0,0,1,1.25-8.72,16.39,16.39,0,0,1,10.24-10.86,25.83,25.83,0,0,1,9.34-1.51,14.79,14.79,0,0,1,2.71.22c.81.15,1.65.28,2.54.4l2.31,14.77h-3a6.2,6.2,0,0,0-4.5,1.52,5.58,5.58,0,0,0-1.55,4.18h7.65v15.31h-7.65l.53,35.24-19.94,1.6Z"/><path class="cls-27" d="M1076.68,470.92a27.63,27.63,0,0,1-.57,11.43,25.88,25.88,0,0,1-4.72,9.35,26.34,26.34,0,0,1-8.1,6.67,31.16,31.16,0,0,1-10.81,3.43,33.32,33.32,0,0,1-11.4-.36,26.29,26.29,0,0,1-9.7-4.14,25.12,25.12,0,0,1-7.12-7.65,27.36,27.36,0,0,1-3.65-10.81,27.66,27.66,0,0,1,.58-11.44A25.68,25.68,0,0,1,1034,451.29a31.15,31.15,0,0,1,10.81-3.42,32.76,32.76,0,0,1,11.35.35,26.32,26.32,0,0,1,9.66,4.14,25.08,25.08,0,0,1,7.12,7.7A28.78,28.78,0,0,1,1076.68,470.92Zm-37.38,7.56a7.7,7.7,0,0,0,4.81,4.54,10.54,10.54,0,0,0,7.48-.71,10.86,10.86,0,0,0,5.65-4.85,7.52,7.52,0,0,0,.13-6.54,7.92,7.92,0,0,0-4.8-4.5,10.1,10.1,0,0,0-7.39.67,10.78,10.78,0,0,0-5.74,4.89A7.44,7.44,0,0,0,1039.3,478.48Z"/><path class="cls-27" d="M1096.62,448.31v9.88h.18q2.31-9.88,13.35-9.88a36.34,36.34,0,0,1,4.54.27l-4.63,19a9.41,9.41,0,0,0-1.34-.09h-1.78a9.31,9.31,0,0,0-6.45,2.44c-1.81,1.64-2.71,4.2-2.71,7.7v22.87l-18.69,1.61-.54-52.16Z"/><path class="cls-27" d="M1148.51,458.1l-8.73-11.21,17.54-16.65,24.56-2.49-3.38,74.94-21.81-2.85-.26-48.41Z"/><path class="cls-27" d="M1271.06,469.85a3.47,3.47,0,0,0-1.25-2.76,4.9,4.9,0,0,0-3.29-1.07,4.39,4.39,0,0,0-3.38,1.34,4,4,0,0,0-1.25,2.76l.53,30.43-19.31,1.61.36-32.13a3.37,3.37,0,0,0-1.25-2.9,5.58,5.58,0,0,0-6.63,0,3.31,3.31,0,0,0-1.38,3l.89,32.12-18.69-1.6L1215.34,450l18.16-1.6v8.19h.18a23,23,0,0,1,6.45-6,16.5,16.5,0,0,1,8.68-2.18,16.67,16.67,0,0,1,7,1.29,14.75,14.75,0,0,1,5.12,4.05,19.09,19.09,0,0,1,5.25-3.87,14.34,14.34,0,0,1,6.5-1.47,17.13,17.13,0,0,1,7.08,1.38,14.39,14.39,0,0,1,5.16,3.87,17.72,17.72,0,0,1,3.2,5.83,24.41,24.41,0,0,1,1.2,7.16l.54,33.91-19.32,1.61Z"/><path class="cls-27" d="M1295.62,428.55l20.38-.89-1.07,15.67-19.4,1.42Zm.09,22.52,19.85-1.6-1,51.35-18.87,1.6Z"/><path class="cls-27" d="M1322.41,430.78l20.11-1.6-.8,71.64-18.69,1.6Z"/><path class="cls-27" d="M1349,430.78l20.11-1.6-.8,71.64-18.69,1.6Z"/><path class="cls-27" d="M1376,428.55l20.38-.89-1.07,15.67-19.4,1.42Zm.08,22.52,19.85-1.6-1,51.35-18.87,1.6Z"/><path class="cls-27" d="M1430.72,495.48h-.18a12.59,12.59,0,0,1-6.09,4.72,23.31,23.31,0,0,1-8,1.33,17.91,17.91,0,0,1-6.76-1.29,16.6,16.6,0,0,1-5.61-3.69,17.89,17.89,0,0,1-3.83-5.79,19.26,19.26,0,0,1-1.42-7.56,15.78,15.78,0,0,1,1.42-6.72,16.87,16.87,0,0,1,3.87-5.34,18,18,0,0,1,5.79-3.56,19.91,19.91,0,0,1,7.25-1.29,17.55,17.55,0,0,1,6.9,1.2,21.8,21.8,0,0,1,4.76,2.72v-2.67q0-4.1-2.67-5.43a15.54,15.54,0,0,0-6.94-1.34,31.9,31.9,0,0,0-7.3.8c-2.25.54-4.54,1.16-6.85,1.87l3.47-14.15a51.16,51.16,0,0,1,8.9-1.74,91.28,91.28,0,0,1,9.43-.49,36,36,0,0,1,8.55,1,20.38,20.38,0,0,1,7.34,3.34,16.8,16.8,0,0,1,5,6,18.92,18.92,0,0,1,1.78,9l-1,33.64-17.89,1.51ZM1419.42,479a9.72,9.72,0,0,0-5,2.09,4,4,0,0,0-1.69,3.69,4.09,4.09,0,0,0,2.54,3.07,9.77,9.77,0,0,0,5.65.49,9.16,9.16,0,0,0,5.16-2.22,4,4,0,0,0,1.34-3.65,4.25,4.25,0,0,0-2.27-2.9Q1423.15,478.39,1419.42,479Z"/><path class="cls-27" d="M1473.8,448.31v9.88h.17q2.33-9.88,13.35-9.88a36.11,36.11,0,0,1,4.54.27l-4.62,19a9.52,9.52,0,0,0-1.34-.09h-1.78a9.31,9.31,0,0,0-6.45,2.44c-1.81,1.64-2.72,4.2-2.72,7.7v22.87l-18.69,1.61-.53-52.16Z"/><path class="cls-27" d="M1544.11,500.91l-17.45,1.16V497h-.18a12,12,0,0,1-5.82,4.14,22.5,22.5,0,0,1-7.44,1.29,22,22,0,0,1-8.76-1.82,23,23,0,0,1-7.52-5.25,25.25,25.25,0,0,1-5.25-8.41,30.62,30.62,0,0,1-2-11.31,34.47,34.47,0,0,1,1.64-10.72,26.84,26.84,0,0,1,4.77-8.81,22.23,22.23,0,0,1,7.69-6,24.15,24.15,0,0,1,10.46-2.17,21.64,21.64,0,0,1,5.7.75,12.06,12.06,0,0,1,4.8,2.54l-.8-21.18,20.47-1.61Zm-24.66-17.62a9.87,9.87,0,0,0,3.3-1.92,9.42,9.42,0,0,0,2.09-2.67,7.62,7.62,0,0,0,.84-3.07,8,8,0,0,0-.44-3.11,7.57,7.57,0,0,0-1.65-2.58,8.36,8.36,0,0,0-2.62-1.83,9.49,9.49,0,0,0-3.34-.75,9.67,9.67,0,0,0-3.78.62,9.49,9.49,0,0,0-3.39,2,10,10,0,0,0-2.09,2.71,7.72,7.72,0,0,0-.84,3.12,7.58,7.58,0,0,0,.44,3.07,7,7,0,0,0,1.65,2.62,8.27,8.27,0,0,0,2.62,1.78,8.68,8.68,0,0,0,3.34.72A11,11,0,0,0,1519.45,483.29Z"/></svg>
