<svg id="Layer_1" data-name="Layer 1" xmlns="http://www.w3.org/2000/svg" viewBox="0 0 1590 1080"><defs><style>.cls-1{opacity:0.91;}.cls-2{fill:#e6e6e6;}.cls-3{fill:#009245;}.cls-4{fill:#ff931e;}</style></defs><title>levelcomplete_final</title><g class="cls-1"><rect class="cls-2" x="68.5" y="100" width="1452" height="881" rx="329.04"/></g><path class="cls-3" d="M566.39,249.56l-17.52,2v82.2l-41.47,5.11,2.19-83.37-19.27,1.9,1-35.91,78.84-6.72Z"/><path class="cls-3" d="M572.52,216.71,606,215.25l-1.75,25.69-31.83,2.34Zm.15,36.94L605.22,251l-1.6,84.24-31,2.63Z"/><path class="cls-3" d="M616.46,220.36l33-2.63-1.31,117.53-30.66,2.63Z"/><path class="cls-3" d="M660.12,220.36l33-2.63L691.8,335.26l-30.66,2.63Z"/><path class="cls-3" d="M738.37,282.7l7.16-32.12,30.07,2.63L744.36,363.29l-33-2.63,12.56-34.31-27.45-71.83,31.83-3.94,9.78,32.12Z"/><path class="cls-3" d="M776.19,220.36l33.14-2.63-2.92,61.61h.29l13.87-29.64,32.27,2.63-19,36.79,21.9,33.73-30.37,15-19-36.65h-.29l1.17,34-30.37,2.63Z"/><path class="cls-3" d="M860.57,220.36l33.14-2.63-2.92,61.61h.3L905,249.7l32.26,2.63-19,36.79,21.9,33.73-30.37,15-19-36.65h-.29l1.17,34-30.37,2.63Z"/><path class="cls-3" d="M1023.94,325.62a61.75,61.75,0,0,1-18.25,9.27,73.62,73.62,0,0,1-21.46,2.85,46.76,46.76,0,0,1-18.17-3.43A44.85,44.85,0,0,1,951.82,325a42.09,42.09,0,0,1-12.7-30.22,51.72,51.72,0,0,1,3.5-19.57,43.76,43.76,0,0,1,9.49-14.6,40.47,40.47,0,0,1,13.95-9.12,45.93,45.93,0,0,1,17-3.14q14.61,0,25.34,7.45a44.93,44.93,0,0,1,16,19.85l-43.65,32.85a11.34,11.34,0,0,0,4.23,1.17,42.59,42.59,0,0,0,4.82.29,24.14,24.14,0,0,0,11.32-2.41,41.87,41.87,0,0,0,8.39-5.76ZM992.7,277.74a10.45,10.45,0,0,0-4.45-3.36,15.83,15.83,0,0,0-5.48-.88,11.56,11.56,0,0,0-5.33,1.24,13.35,13.35,0,0,0-4.16,3.36,15.61,15.61,0,0,0-2.7,4.75,15.83,15.83,0,0,0-1,5.4A12.87,12.87,0,0,0,970,292a16.33,16.33,0,0,0,1,2.26Z"/><path class="cls-3" d="M1085.56,341a32.8,32.8,0,0,1-8.11-4.16,25.72,25.72,0,0,1-5.84-5.62,17.54,17.54,0,0,1-3.06-6.42,10.65,10.65,0,0,1,.36-6.43,11.49,11.49,0,0,1,3.65-5.25,16.63,16.63,0,0,1,6.35-3.21,25.89,25.89,0,0,1,8.11-.81,34.87,34.87,0,0,1,8.9,1.68,32.55,32.55,0,0,1,8.1,4.16,26,26,0,0,1,5.84,5.62,16.88,16.88,0,0,1,3,6.43,12,12,0,0,1-.29,6.42,11.07,11.07,0,0,1-3.65,5.18,18.24,18.24,0,0,1-6.36,3.22,25.75,25.75,0,0,1-8.1.95A29.53,29.53,0,0,1,1085.56,341Zm28-34.16a35.61,35.61,0,0,0-8.69-4.31,44.79,44.79,0,0,0-20.73-1.75,34.82,34.82,0,0,0-9,2.7l7.74-101,43.21-1.75Z"/><path class="cls-4" d="M231,407.43q16.09-3.1,31.5-5a30,30,0,0,1,13.26.58,23.85,23.85,0,0,1,9.79,5.56,25.35,25.35,0,0,1,6.14,9.35,36.75,36.75,0,0,1,2.41,11.83,46.6,46.6,0,0,1-1.38,13,48.37,48.37,0,0,1-5.34,13,52.77,52.77,0,0,1-9.44,11.66,51.16,51.16,0,0,1-13.57,9,36,36,0,0,1-6.81,1.38,83.36,83.36,0,0,1-9.83.31,143.2,143.2,0,0,1-15.31-1.25Zm23,49.31a21.75,21.75,0,0,0,8.23-3.51,19,19,0,0,0,4.76-4.9,18.14,18.14,0,0,0,2.27-5,15.92,15.92,0,0,0,.67-3.91v-1.61c0-.11-.09-.69-.27-1.73a18,18,0,0,0-1.15-3.7,9.32,9.32,0,0,0-2.5-3.51,5.58,5.58,0,0,0-4.36-1.11q-2.76.25-6.76,3.47Z"/><path class="cls-4" d="M323.54,469.2h-.17a12.2,12.2,0,0,1-5.57,6.94,18.25,18.25,0,0,1-8.85,2.05,15,15,0,0,1-10.82-4q-4.12-4-4.13-11.53V425.32l19.84-1.6-.53,32.93a3.76,3.76,0,0,0,.93,3.07,5.47,5.47,0,0,0,6.06,0,3.49,3.49,0,0,0,1-3l-.53-31.42,20.47-1.6-1.34,53-16.38.71Z"/><path class="cls-4" d="M392.7,429.51h.17a13.14,13.14,0,0,1,5.17-4.23,16.16,16.16,0,0,1,6.58-1.29,15.67,15.67,0,0,1,6.63,1.33,13.38,13.38,0,0,1,4.85,3.74,16.76,16.76,0,0,1,3,5.65,21.23,21.23,0,0,1,.94,7l-.54,34.44-18.77,1.6V445.26a3.52,3.52,0,0,0-1.07-2.58,3.85,3.85,0,0,0-2.85-1.07,4.31,4.31,0,0,0-2.89,1,3.51,3.51,0,0,0-1.2,2.81v32.39L374,476.23l-.63-70.13,19.94-1.6Z"/><path class="cls-4" d="M453.93,471h-.18a12.62,12.62,0,0,1-6.1,4.72,23.21,23.21,0,0,1-8,1.33,18,18,0,0,1-6.77-1.29,16.65,16.65,0,0,1-5.6-3.69,17.73,17.73,0,0,1-3.83-5.79,19.26,19.26,0,0,1-1.43-7.56,15.79,15.79,0,0,1,1.43-6.72,16.87,16.87,0,0,1,3.87-5.34,18,18,0,0,1,5.78-3.56,20,20,0,0,1,7.26-1.29,17.55,17.55,0,0,1,6.9,1.2,22.2,22.2,0,0,1,4.76,2.71V443q0-4.08-2.67-5.42a15.57,15.57,0,0,0-6.94-1.34,31.77,31.77,0,0,0-7.3.8c-2.26.54-4.54,1.16-6.86,1.87l3.48-14.15a51,51,0,0,1,8.9-1.74,91.28,91.28,0,0,1,9.43-.49,35.9,35.9,0,0,1,8.54,1,20.43,20.43,0,0,1,7.35,3.34,16.67,16.67,0,0,1,5,6,18.8,18.8,0,0,1,1.78,9l-1,33.64L453.93,477Zm-11.31-16.46a9.69,9.69,0,0,0-5,2.09A4,4,0,0,0,436,460.3a4.09,4.09,0,0,0,2.54,3.07,9.76,9.76,0,0,0,5.65.49,9.16,9.16,0,0,0,5.16-2.22,4,4,0,0,0,1.33-3.65,4.22,4.22,0,0,0-2.27-2.9Q446.36,453.89,442.62,454.52Z"/><path class="cls-4" d="M497,423.81v9.88h.18q2.31-9.88,13.35-9.88a36.34,36.34,0,0,1,4.54.27L510.44,443a11.06,11.06,0,0,0-1.33-.08h-1.78a9.32,9.32,0,0,0-6.46,2.44c-1.81,1.64-2.71,4.2-2.71,7.7V476l-18.69,1.61-.53-52.16Z"/><path class="cls-4" d="M546.53,460.57a29.37,29.37,0,0,0,5.3.44c.83,0,1.7,0,2.62,0a15.06,15.06,0,0,0,2.49-.27,4.81,4.81,0,0,0,1.87-.76,1.84,1.84,0,0,0,.76-1.6,2.14,2.14,0,0,0-1.38-2,26.33,26.33,0,0,0-3.38-1.29q-2-.62-4.41-1.47a14.24,14.24,0,0,1-4.4-2.49,13.28,13.28,0,0,1-3.39-4.41,16.13,16.13,0,0,1-1.38-7.21,15.29,15.29,0,0,1,1.16-5.78,14,14,0,0,1,3.74-5.16,19.45,19.45,0,0,1,6.67-3.74,30.25,30.25,0,0,1,9.88-1.42c1.49,0,3,.06,4.45.17s2.9.29,4.23.49,2.57.42,3.69.63,2.08.4,2.85.57V440.9c-1.48-.36-2.94-.65-4.36-.89a27.89,27.89,0,0,0-4.63-.36c-.35,0-.92,0-1.69.05a16.5,16.5,0,0,0-2.31.26,6.18,6.18,0,0,0-2,.76,1.62,1.62,0,0,0-.89,1.42,2.29,2.29,0,0,0,1.42,2.14,22.15,22.15,0,0,0,3.52,1.34c1.39.41,2.92.92,4.58,1.51a16.14,16.14,0,0,1,4.59,2.54,13.14,13.14,0,0,1,3.51,4.4,15.72,15.72,0,0,1,1.43,7.21,14.42,14.42,0,0,1-2.09,8,15.6,15.6,0,0,1-5.52,5.12,25.27,25.27,0,0,1-7.88,2.71,51.61,51.61,0,0,1-9.25.8,61.34,61.34,0,0,1-7.35-.44,52.46,52.46,0,0,1-7.25-1.43V459.41A45.57,45.57,0,0,0,546.53,460.57Z"/><path class="cls-4" d="M601.13,431.29h.36a16.51,16.51,0,0,1,6-5.43,15.79,15.79,0,0,1,6.72-1.43,15.36,15.36,0,0,1,6.59,1.34,13.47,13.47,0,0,1,4.81,3.74,17.17,17.17,0,0,1,3,5.6,22.8,22.8,0,0,1,1,6.95V476.5l-19.22,1.6.26-32.4a3.1,3.1,0,0,0-1.2-2.67,4.66,4.66,0,0,0-3.07-1.06,5,5,0,0,0-3.07,1,3.3,3.3,0,0,0-1.38,2.8l.36,32.13-19-1.33L582.62,426l18.51-1.52Z"/><path class="cls-4" d="M656.93,444.28l4.36-19.58,18.34,1.6-19,67.11-20.11-1.6,7.65-20.92L631.39,427.1l19.4-2.4,6,19.58Z"/><path class="cls-4" d="M731,476.41l-17.44,1.16v-5.08h-.18a12,12,0,0,1-5.83,4.14,22.39,22.39,0,0,1-7.43,1.29,22,22,0,0,1-8.77-1.82,23.13,23.13,0,0,1-7.52-5.25,25.42,25.42,0,0,1-5.25-8.41,30.86,30.86,0,0,1-2-11.31,34.18,34.18,0,0,1,1.65-10.72A26.82,26.82,0,0,1,683,431.6a22.13,22.13,0,0,1,7.7-6,24,24,0,0,1,10.46-2.19,21.63,21.63,0,0,1,5.69.76,12.17,12.17,0,0,1,4.81,2.54l-.8-21.18L731.34,404Zm-24.65-17.62a9.92,9.92,0,0,0,3.29-1.92,9.24,9.24,0,0,0,2.09-2.67,7.43,7.43,0,0,0,.85-3.07,7.86,7.86,0,0,0-.45-3.11,7.4,7.4,0,0,0-1.64-2.58,8.4,8.4,0,0,0-2.63-1.83,9.44,9.44,0,0,0-3.34-.75,9.73,9.73,0,0,0-3.78.62,9.53,9.53,0,0,0-3.38,2,9.82,9.82,0,0,0-2.09,2.71,7.57,7.57,0,0,0-.85,3.12,7.42,7.42,0,0,0,.45,3.07,6.81,6.81,0,0,0,1.64,2.62,8.43,8.43,0,0,0,2.63,1.78,8.64,8.64,0,0,0,3.34.72A11.11,11.11,0,0,0,706.33,458.79Z"/><path class="cls-4" d="M763.06,477.88c-.86,0-1.79,0-2.8,0q-8.53,0-13.3-3.87t-4.77-12.59v-21.1l-4.89.09.53-15.39H742v-5.88l19.31-8.72v14.6l7.21-1.07-1,16.37h-6v15.58c0,1.78.25,3,.75,3.56s1.65.89,3.43.89a15.62,15.62,0,0,0,1.87-.09,8.69,8.69,0,0,0,1.33-.27l-3.11,17.63C764.83,477.77,763.92,477.85,763.06,477.88Z"/><path class="cls-4" d="M803.42,441.08h-6.14l2.85-15.31h3.29a28.65,28.65,0,0,1,1.25-8.72,16.39,16.39,0,0,1,10.24-10.86,25.83,25.83,0,0,1,9.34-1.51,14.79,14.79,0,0,1,2.71.22c.81.15,1.65.28,2.54.4l2.31,14.77h-3a6.2,6.2,0,0,0-4.5,1.52,5.58,5.58,0,0,0-1.55,4.18h7.65v15.31h-7.65l.53,35.24-19.94,1.6Z"/><path class="cls-4" d="M888.68,446.42a27.63,27.63,0,0,1-.57,11.43,25.88,25.88,0,0,1-4.72,9.35,26.34,26.34,0,0,1-8.1,6.67,31.16,31.16,0,0,1-10.81,3.43,33.32,33.32,0,0,1-11.4-.36,26.44,26.44,0,0,1-9.7-4.13,25.28,25.28,0,0,1-7.12-7.66,27.36,27.36,0,0,1-3.65-10.81,27.66,27.66,0,0,1,.58-11.44A25.68,25.68,0,0,1,846,426.79a31.15,31.15,0,0,1,10.81-3.42,32.76,32.76,0,0,1,11.35.35,26.32,26.32,0,0,1,9.66,4.14,25.08,25.08,0,0,1,7.12,7.7A28.78,28.78,0,0,1,888.68,446.42ZM851.3,454a7.7,7.7,0,0,0,4.81,4.54,10.54,10.54,0,0,0,7.48-.71,10.86,10.86,0,0,0,5.65-4.85,7.52,7.52,0,0,0,.13-6.54,7.92,7.92,0,0,0-4.8-4.5,10.1,10.1,0,0,0-7.39.67,10.78,10.78,0,0,0-5.74,4.89A7.44,7.44,0,0,0,851.3,454Z"/><path class="cls-4" d="M908.62,423.81v9.88h.18q2.31-9.88,13.35-9.88a36.34,36.34,0,0,1,4.54.27L922.06,443a11.23,11.23,0,0,0-1.34-.08h-1.78a9.31,9.31,0,0,0-6.45,2.44c-1.81,1.64-2.71,4.2-2.71,7.7V476l-18.69,1.61-.54-52.16Z"/><path class="cls-4" d="M960.51,433.6l-8.73-11.21,17.54-16.65,24.56-2.49-3.38,74.94-21.81-2.85-.26-48.41Z"/><path class="cls-4" d="M1083.06,445.35a3.47,3.47,0,0,0-1.25-2.76,4.9,4.9,0,0,0-3.29-1.07,4.39,4.39,0,0,0-3.38,1.34,4,4,0,0,0-1.25,2.76l.53,30.43-19.31,1.61.36-32.13a3.37,3.37,0,0,0-1.25-2.9,5.58,5.58,0,0,0-6.63,0,3.31,3.31,0,0,0-1.38,3l.89,32.12-18.69-1.6-1.07-50.64,18.16-1.6v8.19h.18a22.81,22.81,0,0,1,6.45-6,16.5,16.5,0,0,1,8.68-2.18,16.67,16.67,0,0,1,7,1.29,14.75,14.75,0,0,1,5.12,4.05,19.09,19.09,0,0,1,5.25-3.87,14.34,14.34,0,0,1,6.5-1.47,17.13,17.13,0,0,1,7.08,1.38,14.39,14.39,0,0,1,5.16,3.87,17.72,17.72,0,0,1,3.2,5.83,24.41,24.41,0,0,1,1.2,7.16l.54,33.91-19.32,1.61Z"/><path class="cls-4" d="M1107.62,404.05l20.38-.89-1.07,15.67-19.4,1.42Zm.09,22.52,19.85-1.6-1,51.35-18.87,1.6Z"/><path class="cls-4" d="M1134.41,406.28l20.11-1.6-.8,71.64-18.69,1.6Z"/><path class="cls-4" d="M1161,406.28l20.11-1.6-.8,71.64-18.69,1.6Z"/><path class="cls-4" d="M1188,404.05l20.38-.89-1.07,15.67-19.4,1.42Zm.08,22.52,19.85-1.6-1,51.35-18.87,1.6Z"/><path class="cls-4" d="M1242.72,471h-.18a12.59,12.59,0,0,1-6.09,4.72,23.31,23.31,0,0,1-8,1.33,17.91,17.91,0,0,1-6.76-1.29,16.6,16.6,0,0,1-5.61-3.69,17.89,17.89,0,0,1-3.83-5.79,19.26,19.26,0,0,1-1.42-7.56,15.78,15.78,0,0,1,1.42-6.72,16.87,16.87,0,0,1,3.87-5.34,18,18,0,0,1,5.79-3.56,19.91,19.91,0,0,1,7.25-1.29,17.55,17.55,0,0,1,6.9,1.2,22.2,22.2,0,0,1,4.76,2.71V443q0-4.08-2.67-5.42a15.54,15.54,0,0,0-6.94-1.34,31.9,31.9,0,0,0-7.3.8c-2.25.54-4.54,1.16-6.85,1.87l3.47-14.15a51.16,51.16,0,0,1,8.9-1.74,91.28,91.28,0,0,1,9.43-.49,36,36,0,0,1,8.55,1,20.38,20.38,0,0,1,7.34,3.34,16.8,16.8,0,0,1,5,6,18.92,18.92,0,0,1,1.78,9l-1,33.64L1242.72,477Zm-11.3-16.46a9.72,9.72,0,0,0-5,2.09,4,4,0,0,0-1.69,3.69,4.09,4.09,0,0,0,2.54,3.07,9.77,9.77,0,0,0,5.65.49,9.16,9.16,0,0,0,5.16-2.22,4,4,0,0,0,1.34-3.65,4.27,4.27,0,0,0-2.27-2.9Q1235.15,453.89,1231.42,454.52Z"/><path class="cls-4" d="M1285.8,423.81v9.88h.17q2.33-9.88,13.35-9.88a36.11,36.11,0,0,1,4.54.27L1299.24,443a11.36,11.36,0,0,0-1.34-.08h-1.78a9.31,9.31,0,0,0-6.45,2.44c-1.81,1.64-2.72,4.2-2.72,7.7V476l-18.69,1.61-.53-52.16Z"/><path class="cls-4" d="M1356.11,476.41l-17.45,1.16v-5.08h-.18a12,12,0,0,1-5.82,4.14,22.5,22.5,0,0,1-7.44,1.29,22,22,0,0,1-8.76-1.82,23,23,0,0,1-7.52-5.25,25.25,25.25,0,0,1-5.25-8.41,30.66,30.66,0,0,1-2-11.31,34.47,34.47,0,0,1,1.64-10.72,26.84,26.84,0,0,1,4.77-8.81,22.09,22.09,0,0,1,7.69-6,24,24,0,0,1,10.46-2.19,21.65,21.65,0,0,1,5.7.76,12.06,12.06,0,0,1,4.8,2.54l-.8-21.18,20.47-1.61Zm-24.66-17.62a9.87,9.87,0,0,0,3.3-1.92,9.42,9.42,0,0,0,2.09-2.67,7.58,7.58,0,0,0,.84-3.07,8,8,0,0,0-.44-3.11,7.57,7.57,0,0,0-1.65-2.58,8.36,8.36,0,0,0-2.62-1.83,9.49,9.49,0,0,0-3.34-.75,9.67,9.67,0,0,0-3.78.62,9.49,9.49,0,0,0-3.39,2,10,10,0,0,0-2.09,2.71,7.72,7.72,0,0,0-.84,3.12,7.58,7.58,0,0,0,.44,3.07,7,7,0,0,0,1.65,2.62,8.27,8.27,0,0,0,2.62,1.78,8.68,8.68,0,0,0,3.34.72A11,11,0,0,0,1331.45,458.79Z"/></svg>