<svg id="Layer_1" data-name="Layer 1" xmlns="http://www.w3.org/2000/svg" viewBox="0 0 210 460"><defs><style>.cls-1,.cls-2,.cls-4{stroke:#000;}.cls-1,.cls-12,.cls-2,.cls-4,.cls-7{stroke-linecap:round;}.cls-1,.cls-12,.cls-14,.cls-15,.cls-2,.cls-4{stroke-linejoin:round;}.cls-1{stroke-width:4px;}.cls-2,.cls-5{fill:#fff;}.cls-14,.cls-15,.cls-2,.cls-7,.cls-8{stroke-width:2px;}.cls-3{fill:#1b1464;}.cls-15,.cls-4{fill:none;}.cls-4{stroke-width:34px;}.cls-6{fill:#f1d0a5;}.cls-7{fill:#060002;stroke:#ccc;}.cls-14,.cls-8{fill:#e6e6e6;}.cls-14,.cls-15,.cls-8{stroke:#e6e6e6;}.cls-9{fill:#736357;}.cls-10{fill:#534741;}.cls-11{fill:#8c6239;}.cls-12,.cls-13{fill:#c69c6d;}.cls-12{stroke:#f15a24;}</style></defs><title>mand</title><path d="M128.42,166.43c2.61,1.61-1.81-2.1-.18-.16.54.65,1.29,1.2,1.89,1.8,1.77,1.75,3.44,3.61,5.09,5.47,3.41,3.85,6.68,7.82,9.91,11.82,1.43,1.76,2.84,3.52,4.26,5.29a35.44,35.44,0,0,1,2.22,3,19.18,19.18,0,0,1,3,7.66c-.16-.84-.2-.46-.13,1.13.1-1.06,0-1.14-.18-.22s-.24.85.22-.21c-.34.75-.7,1.49-1.06,2.22-10.14,21.54-20.5,42.94-32.67,63.44-8.89,15,14.44,28.57,23.31,13.63,6.79-11.44,13-23.22,19.09-35.06,3.19-6.24,6.32-12.52,9.28-18.87,2.77-5.95,6.35-12.3,8.06-18.61,4.39-16.19-6.08-29.89-15.59-41.67-6.7-8.29-13.64-18.29-22.86-24-6.2-3.84-14.86-1.33-18.47,4.85a13.72,13.72,0,0,0,4.84,18.47Z"/><path d="M64.3,144.42C57.93,150.47,53,158.5,48,165.67S37.82,180,33.53,187.56c-5.74,10.14-11.57,24.3-7.2,35.91,3.43,9.08,8.94,17.2,14.54,25.06,5.2,7.3,10.7,14.39,16.29,21.41,4.54,5.71,14.34,4.75,19.09,0,5.64-5.64,4.56-13.37,0-19.09-.75-.94-1.5-1.88-2.24-2.83-.59-.74-1.17-1.5-1.76-2.25-1.31-1.65,1.79,2.38-.54-.7-3.23-4.26-6.43-8.55-9.49-12.95a146.31,146.31,0,0,1-8.62-13.64c-.57-1.06-1.05-2.18-1.64-3.22-1.19-2.09.72,3-.07-.31s-.86.31-.14.72c-.26-.15.22-1.56.24-1.62,1.8-5.73,3.24-10.31,6.43-15.49,2.69-4.36,5.54-8.62,8.42-12.85,3.3-4.86,6.67-9.68,10.15-14.41.82-1.12,1.66-2.22,2.49-3.33,1.56-2.09-1.75,2.06.64-.8a45.42,45.42,0,0,1,3.27-3.66c5.28-5,5.06-14,0-19.09a13.71,13.71,0,0,0-19.09,0Z"/><path class="cls-1" d="M89.3,290.25h27.78a28.12,28.12,0,0,0,28-28V175.75c0-8.18-2.43-20.08-8.07-25.21-5-4.55-12.92-2.83-20.15-2.83H89.3c-6.71,0-13.93-1.94-18.77,2-6.28,5.15-9.27,17.3-9.27,26v86.47A28.12,28.12,0,0,0,89.3,290.25Z"/><path class="cls-2" d="M131.77,155.55c2.44-3.78-.71-8.44-5.68-8.41l-23.18.13-22.84.14c-5.13,0-8.31,4.87-5.75,8.74l28.89,43.57Z"/><polygon class="cls-3" points="94.72 186.82 103.19 199.72 111.25 186.82 102.78 167.06 94.72 186.82"/><path class="cls-4" d="M128.18,252.53c-9.8,68,5.65,146.34,11.69,164.89"/><path class="cls-4" d="M81.82,252.53c-9.8,68,5.65,146.34,11.69,164.89"/><circle class="cls-5" cx="103.19" cy="220.28" r="2.82"/><circle class="cls-5" cx="103.19" cy="240.44" r="2.82"/><circle class="cls-5" cx="103.19" cy="263.01" r="2.82"/><polygon class="cls-3" points="102.76 167.19 94.92 160.34 98.86 153.56 106.71 153.58 110.61 160.39 102.76 167.19"/><rect class="cls-6" x="92.91" y="123.73" width="20.16" height="30.64" rx="10.08" transform="translate(205.97 278.09) rotate(180)"/><path class="cls-7" d="M131.61,259.18a6.86,6.86,0,0,0,6.85,6.86c3.79,0,7.06-.45,7.06-4.24"/><path class="cls-7" d="M74.16,258.38a6.85,6.85,0,0,1-6.85,6.85c-3.79,0-7.06-.45-7.06-4.23"/><rect class="cls-8" x="68.92" y="193.67" width="17.34" height="2.82" transform="translate(155.18 390.17) rotate(-180)"/><rect class="cls-5" x="142.62" y="256.89" width="1.36" height="6.6" transform="translate(-151.41 223.02) rotate(-53.97)"/><path d="M141.06,257.87l5.14,3.74-.66.9-5.14-3.74.66-.9m-.06-.35-.94,1.31,5.54,4,1-1.3-5.55-4Z"/><rect class="cls-5" x="58.16" y="257.09" width="6.6" height="1.36" transform="translate(-183.16 155.87) rotate(-53.97)"/><path d="M62.88,254.88l.9.65L60,260.67l-.9-.66,3.74-5.13m-.05-.35-4,5.54,1.31.95,4-5.54-1.3-.95Z"/><path class="cls-9" d="M141.91,256.62a7.87,7.87,0,0,1-3.37,3.48"/><path class="cls-9" d="M66.57,256.27A7.85,7.85,0,0,1,62.29,254"/><path class="cls-1" d="M136.13,424.26a2.81,2.81,0,0,0-.49.05c-2.7.56-5.61.81-8.32,1.58h-20.5a16.53,16.53,0,0,1,16.53-16.53h20.07a2.9,2.9,0,0,1,2.9,2.91v13.62h-7.25a1.89,1.89,0,0,0-1.94-1.89A1.93,1.93,0,0,0,136.13,424.26Z"/><path class="cls-1" d="M90.57,425.47a2.8,2.8,0,0,0-.48,0c-2.71.56-5.62.81-8.33,1.57H61.26a16.53,16.53,0,0,1,16.53-16.52H97.86a2.9,2.9,0,0,1,2.91,2.9v13.62H93.52a1.89,1.89,0,0,0-1.94-1.88A2,2,0,0,0,90.57,425.47Z"/><path class="cls-10" d="M142.41,407.35c-1,1.72-3.41,1.68-5.22,1.79a7.34,7.34,0,0,1-5.76-1.69c-1.41-1.31-3.54.81-2.12,2.12a10.46,10.46,0,0,0,8.34,2.53c2.94-.25,5.77-.5,7.35-3.23a1.5,1.5,0,0,0-2.59-1.52Z"/><path class="cls-10" d="M96.46,408.56c-1,1.71-3.42,1.68-5.23,1.79a7.34,7.34,0,0,1-5.76-1.69c-1.41-1.31-3.54.81-2.12,2.12a10.46,10.46,0,0,0,8.34,2.53c2.94-.25,5.77-.5,7.36-3.23a1.5,1.5,0,0,0-2.59-1.52Z"/><circle class="cls-11" cx="119.72" cy="61.84" r="18.34"/><circle class="cls-11" cx="101.58" cy="59.42" r="15.52"/><circle class="cls-11" cx="139.87" cy="64.67" r="15.52"/><circle class="cls-11" cx="82.22" cy="61.84" r="15.52"/><circle class="cls-11" cx="71.14" cy="76.15" r="14.92"/><circle class="cls-11" cx="96.94" cy="74.95" r="19.35"/><circle class="cls-11" cx="127.78" cy="79.98" r="17.94"/><rect class="cls-11" x="132.42" y="88.25" width="10.88" height="18.95" rx="5.44" transform="translate(275.72 195.45) rotate(-180)"/><circle class="cls-11" cx="148.14" cy="84.22" r="14.51"/><path class="cls-6" d="M92.94,133H82.83l-4.67-.72a2.53,2.53,0,0,1-1-.42h0a14.6,14.6,0,0,1-5.17-6.52h0l-.73-5.14c0-.34-.08-.68-.11-1l-.29-4.12a13.62,13.62,0,0,1,0-2l.33-4.63.4-4,.4-6,.41-5.24v-2l4-.8,3.63-2,3.22-2.42,3.63-4L87.67,85l1.61,2.42,1.61,1.62,2.42,1.61,2.42,1.21,3.23.4h3.22l3.23-.4,2.82-1.61,2-2,2-2.42,2-2.42,1.21,3.23,1.21,3.22,1.62,2,1.61,1.21,2,1.21,2,1.21,2,.4h4.83l1.62-.81,1.21-1.21v10.49h7.66V96.31l1.2.81,2,.8,2.13.43a12,12,0,0,0,3.83.14l1.3-.16v5.13a5.73,5.73,0,0,1-.29,1.79h0a8.53,8.53,0,0,1-3.34,4.37h0l-3.23,1.61-2.82.81-3.92.35a1.42,1.42,0,0,0-.87.41h0a1.49,1.49,0,0,0-.45,1.07v3.85a3.32,3.32,0,0,1-.34,1.45l-.87,1.73-1.1,2.21a2.48,2.48,0,0,1-.26.4l-1.72,2.06a1.87,1.87,0,0,1-.32.31l-3.7,3a1.46,1.46,0,0,1-.33.22l-3.05,1.52-2.82.81-1.37.54a3.87,3.87,0,0,1-1.34.28l-6.56.14"/><rect x="97.54" y="96.11" width="14.11" height="4.03" rx="2.02" transform="translate(209.2 196.25) rotate(-180)"/><rect x="73.36" y="96.11" width="14.11" height="4.03" rx="2.02" transform="translate(160.82 196.25) rotate(180)"/><ellipse cx="103.12" cy="104.38" rx="2.89" ry="3.02"/><ellipse cx="78.93" cy="104.38" rx="2.89" ry="3.02"/><ellipse class="cls-12" cx="90.49" cy="121.71" rx="8.06" ry="0.81"/><path class="cls-13" d="M88.84,106.84c-.86,2.35-3.56,3.78-2.76,6.68.72,2.6,3.56,3.24,5.91,3.09,1.91-.12,1.93-3.12,0-3s-3.86-.31-2.5-2.43a18.94,18.94,0,0,0,2.25-3.54c.67-1.82-2.23-2.6-2.9-.8Z"/><path class="cls-13" d="M112.11,148.49l.41-1.21a7.63,7.63,0,0,0,.34-2.48l0-11.83a.57.57,0,0,0-.57-.58l-14.07.22a.16.16,0,0,0-.07.3l3.87,1.86a5,5,0,0,0,.84.31l6.85,1.79.28,14.38"/><path class="cls-13" d="M134,114.5a8.17,8.17,0,0,1-1.76,6.46,23.5,23.5,0,0,1-3.83,4.07c-1.54,1.12,0,3.73,1.51,2.59,4.44-3.24,7.83-8.27,7-13.92-.29-1.9-3.18-1.1-2.89.8Z"/><path class="cls-13" d="M133.54,114.31c-.63,6.75-6.87,10.45-12.22,13.43-1.69.94-.18,3.53,1.51,2.59,6.46-3.6,13-8.05,13.71-16,.18-1.92-2.82-1.91-3,0Z"/><path class="cls-13" d="M132.27,119.33a10.14,10.14,0,0,1-1.45,2.29,12.65,12.65,0,0,1-2.82,3.15,22.75,22.75,0,0,1-7,3.45c-1.82.6-1,3.5.8,2.89a25.67,25.67,0,0,0,8.47-4.33,15,15,0,0,0,3-3.38,11.66,11.66,0,0,0,1.92-3.27c.46-1.88-2.44-2.68-2.89-.8Z"/><path class="cls-13" d="M128.39,124.76a14.44,14.44,0,0,0-2,1.26c-.75.38-1.55.66-2.33,1a1.54,1.54,0,0,0-1,1.84,1.5,1.5,0,0,0,1.84,1.05l2.54-1.06a5.64,5.64,0,0,0,1-.52c.23-.16.58-.59.8-.66,1.81-.62,1-3.52-.8-2.9Z"/><path class="cls-13" d="M128.32,124.76l-1.66.88a1.5,1.5,0,0,0,1.52,2.59l1.66-.88a1.5,1.5,0,0,0-1.52-2.59Z"/><path class="cls-13" d="M128.48,128a1.5,1.5,0,0,0,0-3,1.5,1.5,0,0,0,0,3Z"/><path class="cls-13" d="M127.56,125.46c-.21.56-2,1.21-2.52,1.48a30.45,30.45,0,0,1-3.81,1.39c-1.82.63-1,3.52.79,2.9,2.71-.93,7.3-2,8.43-5,.69-1.8-2.21-2.58-2.89-.79Z"/><path class="cls-13" d="M129.08,123.94c-1.89,2.51-5.47,4.27-8.56,4.82-1.89.34-1.09,3.23.8,2.89a24.74,24.74,0,0,0,6.05-2.38,11.38,11.38,0,0,0,4.3-3.82c1.16-1.54-1.44-3-2.59-1.51Z"/><path class="cls-13" d="M121.89,127.66,118,129.24a1.55,1.55,0,0,0-1,1.85,1.51,1.51,0,0,0,1.84,1l3.87-1.59a1.56,1.56,0,0,0,1-1.85,1.5,1.5,0,0,0-1.84-1Z"/><path class="cls-13" d="M120.85,128.56a4.59,4.59,0,0,0-1.52.13,1.51,1.51,0,0,0,0,2.89,4.16,4.16,0,0,0,1.79,0l-.79-2.89a17.39,17.39,0,0,1-2.24.54,1.51,1.51,0,0,0-1,1.84,1.54,1.54,0,0,0,1.85,1,17.24,17.24,0,0,0,2.23-.54,1.5,1.5,0,1,0-.79-2.89c.12,0,.09,0-.1,0,.12,0,.09,0-.1,0v2.89a2.11,2.11,0,0,1,.72,0,1.5,1.5,0,0,0,1.5-1.5,1.55,1.55,0,0,0-1.5-1.5Z"/><path class="cls-6" d="M145.65,99.09c.06,1.59.21,3.49-.65,4.9-1,1.61-3.29,2.11-5,2.42-1.89.33-1.09,3.22.8,2.89,2.38-.42,5.06-1.33,6.52-3.39s1.42-4.5,1.33-6.82c-.08-1.92-3.08-1.93-3,0Z"/><path class="cls-13" d="M142.87,101.11a1,1,0,0,1-.09,1c-.08.13,0,0,0,0-.13.14-.06,0-.15.1s-.1,0,0,0h-.15c.24,0-.19-.08-.22-.09a1.52,1.52,0,0,0-1.85,1,1.54,1.54,0,0,0,1.05,1.85,3.23,3.23,0,0,0,3.62-1.07,4,4,0,0,0,.65-3.7,1.53,1.53,0,0,0-1.84-1,1.52,1.52,0,0,0-1,1.85Z"/><path class="cls-13" d="M146.23,99.34c-.13,1.37.62,2.78-.27,4s-2.64,1.56-4.07,1.8c-1.9.31-1.09,3.2.8,2.89a8.42,8.42,0,0,0,5.59-2.82,5.24,5.24,0,0,0,1.13-2.75c.09-1.06-.29-2.07-.18-3.13.18-1.93-2.82-1.91-3,0Z"/><path class="cls-13" d="M147.82,100.77a1.5,1.5,0,0,0,0-3,1.5,1.5,0,0,0,0,3Z"/><path class="cls-5" d="M79.89,410.17a18.91,18.91,0,0,0-7.7.84,22.51,22.51,0,0,0-5.86,3.85c-1.49,1.23.64,3.34,2.12,2.13a17.14,17.14,0,0,1,5.27-3.36,17.56,17.56,0,0,1,6.17-.46c1.93.07,1.93-2.93,0-3Z"/><path class="cls-5" d="M122.56,409.72a15.58,15.58,0,0,0-11.77,5.45c-1.25,1.46.87,3.59,2.12,2.12a12.62,12.62,0,0,1,9.65-4.57,1.5,1.5,0,0,0,0-3Z"/><line class="cls-14" x1="110.44" y1="161.02" x2="119.31" y2="173.52"/><line class="cls-15" x1="95.13" y1="161.02" x2="86.26" y2="173.11"/><path class="cls-13" d="M114.21,69a19.35,19.35,0,0,0,3.44,16c1.15,1.52,3.76,0,2.59-1.51a16.45,16.45,0,0,1-3.14-13.72c.41-1.88-2.48-2.69-2.89-.8Z"/><path class="cls-13" d="M67.84,62C60.41,64.75,54,79.72,63.7,83.55c1.79.71,2.57-2.19.79-2.89-3.74-1.47-2.61-6.69-1.59-9.47a9.85,9.85,0,0,1,5.74-6.26c1.8-.66,1-3.56-.8-2.89Z"/><path class="cls-13" d="M93.36,58.27c-3.64-1.86-7.78-.72-10.54,2.2-3.51,3.72-3.61,9.24-3.57,14a1.5,1.5,0,0,0,3,0c0-3.41-.13-7.14,1.51-10.23,1.49-2.81,5-5,8.09-3.43,1.71.87,3.23-1.72,1.51-2.59Z"/><path class="cls-13" d="M114.4,53.34c-7.89-.2-9.09,8.68-8.8,14.65.09,1.92,3.09,1.93,3,0-.2-4.16-.22-11.8,5.8-11.65,1.93,0,1.93-3,0-3Z"/><path class="cls-13" d="M143.14,67.84A16.72,16.72,0,0,1,147,88.72c-.93,1.69,1.66,3.2,2.59,1.51a19.75,19.75,0,0,0-4.31-24.52c-1.46-1.25-3.59.86-2.12,2.13Z"/><path class="cls-6" d="M109.53,129.08a1.5,1.5,0,0,0,0-3,1.5,1.5,0,0,0,0,3Z"/></svg>
