<svg id="Layer_1" data-name="Layer 1" xmlns="http://www.w3.org/2000/svg" viewBox="0 0 410 650"><defs><style>.cls-1,.cls-2,.cls-4{stroke:#000;}.cls-1,.cls-13,.cls-18,.cls-2,.cls-4,.cls-7,.cls-8{stroke-linecap:round;}.cls-1,.cls-13,.cls-15,.cls-16,.cls-2,.cls-4{stroke-linejoin:round;}.cls-1{stroke-width:4px;}.cls-2,.cls-5{fill:#fff;}.cls-15,.cls-16,.cls-2,.cls-7,.cls-8,.cls-9{stroke-width:2px;}.cls-3{fill:#1b1464;}.cls-16,.cls-18,.cls-4,.cls-8{fill:none;}.cls-4{stroke-width:34px;}.cls-6{fill:#f1d0a5;}.cls-7{fill:#060002;}.cls-7,.cls-8,.cls-9{stroke:#ccc;}.cls-9{fill:#ccc;}.cls-10{fill:#736357;}.cls-11{fill:#534741;}.cls-12{fill:#8c6239;}.cls-13{fill:#c1612d;stroke:#f15a24;}.cls-14{fill:#c69c6d;}.cls-15{fill:#e6e6e6;}.cls-15,.cls-16{stroke:#e6e6e6;}.cls-17{fill:#cb9d80;}.cls-18{stroke:#c69c6d;stroke-miterlimit:10;stroke-width:0.5px;}</style></defs><title>mand_start</title><path d="M75.86,195.6c-11,6.5-19.66,18.21-27.79,27.81-8.83,10.42-19.88,21.44-25.8,33.81-4.94,10.34-8.14,21.7-5.7,33.16,1,4.55,3,8.84,5,13,.34.74.68,1.49,1,2.22,1.86,3.76-1.5-3.63.69,1.52.88,2.07,1.75,4.14,2.64,6.2,6.75,15.43,14.21,30.55,21.83,45.56,8.26,16.26,16.71,32.46,25.87,48.23,8.73,15,32.07,1.45,23.32-13.62-15.64-26.91-29.8-54.86-42.87-83.09q-2.1-4.55-4.13-9.11c-.69-1.56-1.36-3.13-2-4.69-1-2.31,1.86,4.36-.35-.85-.54-1.26-1.07-2.53-1.64-3.78-.43-.93-.88-1.85-1.31-2.78-.15-.3-1.18-2.69-.62-1.3s-.39-1.13-.48-1.44c-.27-.86-.51-1.73-.73-2.61.1.41-.31-2.15-.28-2.56a32.35,32.35,0,0,1,1.86-7.09c1.81-5.52,4.89-10,8.75-14.73,3.64-4.45,7.28-8.91,11-13.32,4.88-5.83,9.82-11.62,15-17.2,2.32-2.51,4.68-5,7.17-7.34,1-.93,2.05-1.78,3-2.71,1.39-1.29-2.89,1.84.24,0,15-8.81,1.39-32.16-13.63-23.32Z"/><path d="M173.93,221.86c.91,13.56,5.36,27.17,9,40.17,3.81,13.55,7.57,27.31,12.61,40.47,6.59,17.21,16.85,36.83,35.46,42.8,14.14,4.54,29.82,5.35,44.54,6.33,12.42.83,24.87,1.2,37.32,1.38,17.38.24,17.39-26.76,0-27-9.9-.14-19.8-.41-29.68-.93-7.2-.37-14.39-.87-21.56-1.6-1.63-.16-3.26-.34-4.9-.53l-3.18-.39c.42.05,3,.44.49.05-3.18-.5-6.35-1-9.5-1.68-2.62-.58-5.16-1.33-7.72-2.12-3.22-1,2.33,1.18,0,0a7.31,7.31,0,0,0-1.22-.67c-1.41-.39,1.9,2,1.18,1-2.66-3.75-6-6.77-8.43-10.75q-2-3.29-3.81-6.74c-.78-1.5-1.47-3-2.21-4.56l-.68-1.53c.59,1.43.71,1.7.35.82-4.44-11.65-7.9-23.71-11.35-35.69-2.34-8.13-4.59-16.3-6.62-24.51-.85-3.44-1.67-6.88-2.37-10.35-.27-1.29-.49-2.58-.73-3.88-.62-3.36.28,3.6,0,0-.49-7.28-5.85-13.5-13.5-13.5-6.93,0-14,6.19-13.5,13.5Z"/><path class="cls-1" d="M154.53,426.43,109.74,426A45.33,45.33,0,0,1,65,380.32l1.41-139.4c.13-13.19,4.24-32.33,13.41-40.52,8.12-7.24,20.87-4.33,32.54-4.22l44.5.46c10.8.11,22.48-2.92,30.21,3.55,10.05,8.41,14.67,28.05,14.52,42.1l-1.41,139.4A45.33,45.33,0,0,1,154.53,426.43Z"/><path class="cls-2" d="M88.26,208.58c-3.88-6.13,1.27-13.6,9.29-13.47l37.37.59,36.82.59c8.26.13,13.32,8,9.12,14.18l-47.29,69.77Z"/><polygon class="cls-3" points="147.47 259.59 133.61 280.25 120.82 259.32 134.79 227.61 147.47 259.59"/><path class="cls-4" d="M92.45,365C107.14,474.83,81,600.81,70.91,630.6"/><path class="cls-4" d="M167.19,365.74c14.69,109.85-11.49,235.83-21.54,265.62"/><circle class="cls-5" cx="133.27" cy="313.39" r="4.55"/><circle class="cls-5" cx="132.94" cy="345.89" r="4.55"/><circle class="cls-5" cx="132.58" cy="382.29" r="4.55"/><polygon class="cls-3" points="134.83 227.81 147.59 216.9 141.34 205.9 128.69 205.81 122.29 216.73 134.83 227.81"/><rect class="cls-6" x="118.68" y="157.74" width="32.5" height="49.4" rx="14.52" transform="translate(1.86 -1.36) rotate(0.58)"/><path class="cls-7" d="M84,378.5a11.05,11.05,0,0,1-11.16,10.94c-6.11-.07-11.37-.84-11.31-6.94"/><path class="cls-8" d="M179.45,375.29a11,11,0,0,0,10.93,11.16c6.1.06,11.38-.61,11.44-6.71"/><rect class="cls-9" x="160.98" y="270.92" width="27.95" height="4.55" transform="translate(2.78 -1.76) rotate(0.58)"/><rect class="cls-5" x="59.32" y="376.94" width="14.37" height="2.35" transform="translate(-206.98 108.66) rotate(-35.45)"/><path d="M71.64,373.17l1.22,1.71-11.5,8.19-1.22-1.71,11.5-8.19m.06-.35L59.79,381.3l1.51,2.11,11.91-8.47-1.51-2.12Z"/><path class="cls-10" d="M70.26,371.35A12.69,12.69,0,0,0,75.64,377"/><path class="cls-1" d="M76.84,641.7a3.56,3.56,0,0,1,.78.08c4.35.94,9,1.39,13.39,2.68l33.05.33a26.65,26.65,0,0,0-26.37-26.91l-32.36-.33a4.68,4.68,0,0,0-4.73,4.64l-.23,22,11.69.12a3.17,3.17,0,0,1,4.78-2.57Z"/><path class="cls-1" d="M150.26,644.39a3.59,3.59,0,0,1,.78.09c4.35.94,9,1.39,13.4,2.67l33.05.34a26.66,26.66,0,0,0-26.38-26.92l-32.36-.33a4.68,4.68,0,0,0-4.73,4.65l-.23,22,11.69.12a3.06,3.06,0,0,1,3.17-3A3.2,3.2,0,0,1,150.26,644.39Z"/><path class="cls-11" d="M63.58,616.29c2.33,4.11,6.62,4.45,11,4.86,4.77.44,9.22-.4,12.83-3.69,1.43-1.3-.7-3.41-2.12-2.12-2.8,2.54-6.31,3.13-10,2.88-3.26-.22-7.42-.35-9.18-3.44a1.5,1.5,0,0,0-2.59,1.51Z"/><path class="cls-11" d="M137.66,619c2.32,4.12,6.61,4.45,11,4.86,4.77.44,9.22-.4,12.83-3.69,1.43-1.3-.7-3.41-2.12-2.12-2.79,2.54-6.31,3.13-10,2.88-3.25-.22-7.42-.35-9.17-3.44a1.5,1.5,0,0,0-2.59,1.51Z"/><circle class="cls-12" cx="109.22" cy="57.71" r="29.57"/><circle class="cls-12" cx="138.5" cy="54.1" r="25.02"/><circle class="cls-12" cx="76.67" cy="61.93" r="25.02"/><circle class="cls-12" cx="169.66" cy="58.32" r="25.02"/><circle class="cls-12" cx="187.3" cy="81.57" r="24.05"/><circle class="cls-12" cx="145.72" cy="79.2" r="31.2"/><circle class="cls-12" cx="95.92" cy="86.82" r="28.92"/><rect class="cls-12" x="70.61" y="99.98" width="17.55" height="30.55" rx="7.84" transform="matrix(1, 0.01, -0.01, 1, 1.17, -0.8)"/><circle class="cls-12" cx="63.03" cy="93.31" r="23.4"/><path class="cls-6" d="M151.22,172.85l5.9.06,10.4.11,7.54-1.08a4.07,4.07,0,0,0,1.69-.66h0a23.42,23.42,0,0,0,8.44-10.43h0l1.27-8.27c.08-.54.15-1.09.19-1.64l.55-6.65a23.36,23.36,0,0,0,0-3.24l-.46-7.48-.58-6.51-.55-9.76-.57-8.45,0-3.25-6.48-1.37-5.82-3.31-5.16-4-5.78-6.56-1.35,5.19-2.64,3.87-2.63,2.58-3.92,2.56-3.92,1.91-5.21.59-5.2,0-5.19-.7-4.53-2.65-3.21-3.28-3.21-3.93-3.21-3.93-2,5.18-2,5.17L111,106.15l-2.62,1.92L105.11,110l-3.27,1.92-3.25.61-3.9,0-3.9,0-2.59-1.32-1.93-2-.07,7.15-.1,9.75-12.35-.13.13-13-2,1.28-3.26,1.27-3.43.65a19.2,19.2,0,0,1-6.19.16L57,116l-.08,8.27a9.17,9.17,0,0,0,.44,2.89h0a13.66,13.66,0,0,0,5.31,7.1h0l5.17,2.65,4.54,1.35,6.32.63a2.35,2.35,0,0,1,1.4.68h0a2.44,2.44,0,0,1,.69,1.74l0,4.18,0,2a5.15,5.15,0,0,0,.53,2.35l1.37,2.81,1.74,3.57a3.39,3.39,0,0,0,.41.65l2.74,3.35a3.08,3.08,0,0,0,.51.51l5.92,4.83a2.32,2.32,0,0,0,.53.35l4.89,2.51,4.54,1.34,2.19.91a6.19,6.19,0,0,0,2.16.46l10.58.33"/><rect x="125.41" y="115.95" width="19.81" height="6.97" rx="3.11" transform="translate(29.48 -26.76) rotate(12.66)"/><rect x="160.62" y="113.59" width="22.75" height="6.5" rx="2.9" transform="matrix(1, 0.01, -0.01, 1, 1.19, -1.74)"/><ellipse cx="135.28" cy="126.54" rx="4.87" ry="4.66" transform="translate(7.37 260.54) rotate(-89.42)"/><ellipse cx="174.28" cy="126.94" rx="4.87" ry="4.66" transform="translate(45.58 299.92) rotate(-89.42)"/><ellipse class="cls-13" cx="155.36" cy="154.7" rx="1.3" ry="13" transform="translate(-0.91 308.48) rotate(-89.42)"/><path class="cls-14" d="M154.47,131.77c.78,2.17,2.29,3.61,3.48,5.53,2.51,4.06-1.34,5.5-4.9,5.23-1.93-.14-1.92,2.86,0,3,3.35.25,7.6-.46,8.67-4.24,1.22-4.27-3.09-6.79-4.36-10.32-.65-1.81-3.55-1-2.89.8Z"/><path class="cls-14" d="M120.06,197.52l-.63-2a12.25,12.25,0,0,1-.52-4l.11-19.07a.92.92,0,0,1,.94-.92l22.68.58a.25.25,0,0,1,.1.48l-6.26,2.94a8.13,8.13,0,0,1-1.36.48L124,178.82,123.35,202"/><path class="cls-14" d="M81.61,141.29c-1.4,8.65,3.89,16.5,10.61,21.51,1.55,1.15,3-1.45,1.51-2.59-2.42-1.81-4.35-4.44-6.29-6.78a14.09,14.09,0,0,1-2.93-11.34c.3-1.89-2.59-2.7-2.9-.8Z"/><path class="cls-14" d="M82.16,142c1,12.51,11.39,19.54,21.4,25.25a1.5,1.5,0,0,0,1.52-2.59c-8.93-5.09-19-11.37-19.92-22.66-.16-1.91-3.16-1.92-3,0Z"/><path class="cls-14" d="M84.26,151.19c.44,1.88,1.92,3.48,2.95,5.09A23,23,0,0,0,92,161.72a40.48,40.48,0,0,0,13,6.74c1.83.63,2.62-2.27.8-2.89-4.14-1.42-8.31-3.16-11.72-6a19.8,19.8,0,0,1-4-4.35c-.81-1.23-2.62-3.43-3-4.85-.43-1.88-3.33-1.09-2.89.79Z"/><path class="cls-14" d="M93.14,162.77c.5.18.9.73,1.31,1a7.62,7.62,0,0,0,1.54.89c1.22.57,2.47,1.07,3.7,1.6,1.75.75,3.28-1.83,1.51-2.59-1.36-.59-2.78-1.12-4.1-1.79-1.16-.58-1.91-1.61-3.16-2.05-1.82-.64-2.61,2.26-.8,2.89Z"/><path class="cls-14" d="M92.32,162.36,95,163.81a1.54,1.54,0,0,0,2-.54,1.51,1.51,0,0,0-.54-2.05l-2.66-1.45a1.5,1.5,0,0,0-1.51,2.59Z"/><path class="cls-14" d="M94,163.36a1.5,1.5,0,0,0,0-3,1.5,1.5,0,0,0,0,3Z"/><path class="cls-14" d="M91.75,161.15c.84,2.29,2.91,3.19,4.94,4.31a52.83,52.83,0,0,0,7.94,3.18c1.83.65,2.61-2.25.8-2.89a58.33,58.33,0,0,1-6-2.25c-1.26-.61-4.24-1.76-4.75-3.15-.66-1.8-3.56-1-2.89.8Z"/><path class="cls-14" d="M89.71,159.62a26.48,26.48,0,0,0,16.05,9.72c1.89.36,2.69-2.53.8-2.89-5.22-1-11.11-4.08-14.26-8.35-1.13-1.54-3.73,0-2.59,1.52Z"/><path class="cls-14" d="M103.58,167.54l6.21,2.62a1.51,1.51,0,0,0,1.85-1,1.53,1.53,0,0,0-1-1.84l-6.21-2.62a1.52,1.52,0,0,0-1.85,1,1.55,1.55,0,0,0,1,1.85Z"/><path class="cls-14" d="M106.28,169.17a4.1,4.1,0,0,1,1.4.07v-2.89a1.85,1.85,0,0,1-.81.05,1.5,1.5,0,0,0-.79,2.9,27.72,27.72,0,0,0,3.59.9,1.55,1.55,0,0,0,1.85-1,1.52,1.52,0,0,0-1-1.85,27.86,27.86,0,0,1-3.6-.9l-.79,2.9a5.67,5.67,0,0,0,2.39-.06,1.51,1.51,0,0,0,0-2.89,6.46,6.46,0,0,0-2.19-.18,1.54,1.54,0,0,0-1.5,1.5,1.52,1.52,0,0,0,1.5,1.5Z"/><path class="cls-6" d="M62.89,117.31c-.18,3.55-.23,7.51,1.91,10.55s6.35,4.46,9.92,5.13c1.88.35,2.69-2.54.79-2.9-3-.56-6.87-1.56-8.54-4.4-1.44-2.46-1.22-5.64-1.08-8.38.09-1.93-2.91-1.92-3,0Z"/><path class="cls-14" d="M67.48,119.56c-1.15,3.48,1.7,8.11,5.71,6.6a1.55,1.55,0,0,0,1-1.85,1.51,1.51,0,0,0-1.84-1c-1.84.7-2.48-1.5-2-2.9.61-1.84-2.28-2.63-2.89-.8Z"/><path class="cls-14" d="M62,117.69c.15,1.71-.5,3.35-.34,5.06a7.62,7.62,0,0,0,1.66,4c2,2.63,5.26,3.64,8.42,4.19,1.89.34,2.7-2.55.8-2.89-2.55-.45-5.51-1.09-7.06-3.39s-.27-4.52-.48-7c-.16-1.91-3.16-1.93-3,0Z"/><path class="cls-14" d="M63.31,119.09a1.5,1.5,0,0,0,0-3,1.5,1.5,0,0,0,0,3Z"/><path class="cls-5" d="M167.7,623.82c3.39-.09,6.93-.24,10.19.88s6.14,3.5,8.83,5.74c1.47,1.23,3.61-.88,2.12-2.12-2.77-2.31-5.6-4.7-9-6.07-3.88-1.57-8-1.54-12.16-1.43-1.93,0-1.94,3,0,3Z"/><path class="cls-5" d="M98.92,622.4A21.23,21.23,0,0,1,115,630.2c1.24,1.49,3.36-.64,2.13-2.12a24.2,24.2,0,0,0-18.25-8.68c-1.93,0-1.93,3,0,3Z"/><line class="cls-15" x1="122.54" y1="217.74" x2="108.04" y2="237.74"/><line class="cls-16" x1="147.24" y1="217.99" x2="161.34" y2="237.63"/><path class="cls-14" d="M114.2,70.31A27.27,27.27,0,0,1,109,92.77c-1.17,1.51.94,3.65,2.12,2.12a30.51,30.51,0,0,0,5.93-25.38c-.39-1.89-3.28-1.09-2.89.8Z"/><path class="cls-14" d="M191.78,62.64c5,1.83,8.17,6.15,9.85,11.1,1.74,5.11,3,13.77-3.47,16.1-1.81.64-1,3.54.79,2.89,7.27-2.6,7.85-10.48,6.33-17.11-1.62-7.06-5.72-13.34-12.71-15.88-1.81-.66-2.6,2.24-.79,2.9Z"/><path class="cls-14" d="M153.72,55.77c5.77-2.87,12,1.29,14.44,6.57,2.39,5.11,2.27,10.91,2.17,16.43,0,1.93,3,1.93,3,0,.14-7.46.16-16.21-5.28-22-4.13-4.43-10.29-6.31-15.84-3.55-1.73.85-.21,3.44,1.51,2.59Z"/><path class="cls-14" d="M117.91,48c10.35-.15,10.47,12.56,10,19.82-.11,1.93,2.89,1.92,3,0,.54-9.09-.88-23-13-22.82a1.5,1.5,0,0,0,0,3Z"/><path class="cls-14" d="M68.61,64.19a30.81,30.81,0,0,0-7.18,38.35c.93,1.69,3.53.18,2.59-1.51a27.8,27.8,0,0,1,6.71-34.71c1.5-1.23-.64-3.34-2.12-2.13Z"/><circle class="cls-6" cx="339.39" cy="339.82" r="18.54"/><rect class="cls-6" x="336.06" y="302.27" width="9.51" height="24.72" rx="4.25" transform="translate(44.62 -42.32) rotate(7.6)"/><ellipse class="cls-17" cx="337.96" cy="306.54" rx="3.33" ry="0.95" transform="translate(-46.08 552.91) rotate(-74.89)"/><rect class="cls-6" x="349.37" y="326.98" width="45.63" height="7.61" rx="3.4"/><rect class="cls-6" x="347.47" y="333.64" width="25.67" height="8.56" rx="3.82"/><rect class="cls-6" x="344.62" y="341.24" width="25.67" height="8.56" rx="3.82"/><rect class="cls-6" x="339.86" y="348.85" width="22.82" height="8.56" rx="3.82"/><ellipse class="cls-17" cx="358.88" cy="338.39" rx="3.8" ry="2.85"/><ellipse class="cls-17" cx="356.97" cy="345.04" rx="3.8" ry="2.85"/><ellipse class="cls-17" cx="351.59" cy="352.17" rx="3.17" ry="2.38"/><line class="cls-18" x1="358.4" y1="334.11" x2="371.71" y2="334.11"/><line class="cls-18" x1="354.6" y1="341.72" x2="367.91" y2="341.72"/><line class="cls-18" x1="347.94" y1="349.32" x2="361.25" y2="349.32"/><rect class="cls-5" x="318.21" y="327.27" width="6.49" height="24.3"/><path d="M324.57,327.39v24.06h-6.24V327.39h6.24m.25-.25h-6.74V351.7h6.74V327.14Z"/></svg>
