<svg id="Layer_1" data-name="Layer 1" xmlns="http://www.w3.org/2000/svg" xmlns:xlink="http://www.w3.org/1999/xlink" viewBox="0 0 1920 1080"><defs><style>.cls-1{fill:#009245;}.cls-2{fill:#b3b3b3;}.cls-3{fill:#e6e6e6;}.cls-4{fill:#ccc;}</style></defs><title>menu_baggrund</title><rect class="cls-1" x="-0.5" y="-1" width="1920" height="1080"/><rect class="cls-2" x="207.5" y="121" width="1452" height="881" rx="329.04"/><rect class="cls-3" x="233.5" y="101" width="1452" height="881" rx="329.04"/><image width="1496" height="238" transform="translate(211 103)" xlink:href="menu_baggrund1.png"/><path class="cls-3" d="M1764.5,1078.5A155.5,155.5,0,0,1,1920,923l-1,155.5Z"/><path class="cls-3" d="M155.5,1078.5A155.5,155.5,0,0,0,0,923l1,155.5Z"/><path class="cls-3" d="M155.5-.5A155.5,155.5,0,0,1,0,155L1-.5Z"/><path class="cls-3" d="M1764,0a155.5,155.5,0,0,0,155.5,155.5L1918.5,0Z"/><path class="cls-4" d="M437,861.45,595.5,962h-80c-35.84-3.28-83.37-35.19-115.16-52.06l-.84.06a283.65,283.65,0,0,1-84.14-68.67h0A268.4,268.4,0,0,1,260.77,733h0A467.72,467.72,0,0,1,247.5,622.4V533.67q0-15.17,1.08-30.31L257.5,378.5l36,215.07q2,11.92,5.1,23.62h0c26.9,127.31,48.31,176.2,104.9,222.31Z"/></svg>
