<svg id="Layer_1" data-name="Layer 1" xmlns="http://www.w3.org/2000/svg" viewBox="0 0 1920 1080"><defs><style>.cls-1{fill:#009245;}.cls-2{fill:#b3b3b3;}.cls-19,.cls-3{fill:#e6e6e6;}.cls-13,.cls-4{fill:#ccc;}.cls-5,.cls-6,.cls-8{stroke:#000;}.cls-11,.cls-12,.cls-17,.cls-22,.cls-5,.cls-6,.cls-8{stroke-linecap:round;}.cls-17,.cls-19,.cls-20,.cls-5,.cls-6,.cls-8{stroke-linejoin:round;}.cls-5{stroke-width:4px;}.cls-6,.cls-9{fill:#fff;}.cls-11,.cls-12,.cls-13,.cls-19,.cls-20,.cls-6{stroke-width:2px;}.cls-7{fill:#1b1464;}.cls-12,.cls-20,.cls-22,.cls-8{fill:none;}.cls-8{stroke-width:34px;}.cls-10{fill:#f1d0a5;}.cls-11{fill:#060002;}.cls-11,.cls-12,.cls-13{stroke:#ccc;}.cls-14{fill:#736357;}.cls-15{fill:#534741;}.cls-16{fill:#8c6239;}.cls-17{fill:#c1612d;stroke:#f15a24;}.cls-18{fill:#c69c6d;}.cls-19,.cls-20{stroke:#e6e6e6;}.cls-21{fill:#cb9d80;}.cls-22{stroke:#c69c6d;stroke-miterlimit:10;stroke-width:0.5px;}</style></defs><title>menu_baggrund</title><rect class="cls-1" x="-0.5" y="-1" width="1920" height="1080"/><rect class="cls-2" x="207.5" y="121" width="1452" height="881" rx="329.04"/><rect class="cls-3" x="233.5" y="101" width="1452" height="881" rx="329.04"/><path class="cls-3" d="M1764.5,1078.5A155.5,155.5,0,0,1,1920,923l-1,155.5Z"/><path class="cls-3" d="M155.5,1078.5A155.5,155.5,0,0,0,0,923l1,155.5Z"/><path class="cls-3" d="M155.5-.5A155.5,155.5,0,0,1,0,155L1-.5Z"/><path class="cls-3" d="M1764,0a155.5,155.5,0,0,0,155.5,155.5L1918.5,0Z"/><path class="cls-4" d="M437,861.45,595.5,962h-80c-35.84-3.28-83.37-35.19-115.16-52.06l-.84.06a283.65,283.65,0,0,1-84.14-68.67h0A268.4,268.4,0,0,1,260.77,733h0A467.72,467.72,0,0,1,247.5,622.4V533.67q0-15.17,1.08-30.31L257.5,378.5l36,215.07q2,11.92,5.1,23.62h0c26.9,127.31,48.31,176.2,104.9,222.31Z"/><path d="M460.05,176l35.77,45.11,34.46-35.62,35.77,98.4-35.19,28.76L515,265.17l-19.86,34.75-23.94-36.79L457,306.34l-34-22Z"/><path d="M649.12,252a45.27,45.27,0,0,1-1,18.76,42,42,0,0,1-7.74,15.33,43,43,0,0,1-13.28,10.95,51.21,51.21,0,0,1-17.74,5.62,54.42,54.42,0,0,1-18.69-.58,43.09,43.09,0,0,1-15.91-6.79,41.14,41.14,0,0,1-11.68-12.56,44.77,44.77,0,0,1-6-17.73,45.33,45.33,0,0,1,1-18.77,42.12,42.12,0,0,1,21-26.42,51.21,51.21,0,0,1,17.74-5.62,54,54,0,0,1,18.62.58,43.29,43.29,0,0,1,15.84,6.79A41.08,41.08,0,0,1,643,234.22,47.21,47.21,0,0,1,649.12,252ZM587.8,264.44a12.66,12.66,0,0,0,7.88,7.45q5.4,1.75,12.27-1.17,6.7-2.93,9.27-8a12.39,12.39,0,0,0,.22-10.73,13,13,0,0,0-7.89-7.37q-5.4-1.83-12.11,1.09-6.87,2.92-9.42,8A12.21,12.21,0,0,0,587.8,264.44Z"/><path d="M682.7,227.21h.58q4.82-6.57,9.86-8.9a25.84,25.84,0,0,1,11-2.34,25.15,25.15,0,0,1,10.8,2.19,22.1,22.1,0,0,1,7.89,6.13,27.88,27.88,0,0,1,4.89,9.2,37.2,37.2,0,0,1,1.68,11.39v56.5L697.88,304l.44-53.15a5.06,5.06,0,0,0-2-4.38,7.69,7.69,0,0,0-5-1.75,8.21,8.21,0,0,0-5,1.68A5.39,5.39,0,0,0,684,251l.59,52.71-31.1-2.19-1.17-83.08L682.7,216Z"/><path d="M817.75,291.45a62.23,62.23,0,0,1-18.25,9.27A73.7,73.7,0,0,1,778,303.57a47,47,0,0,1-18.17-3.43,44.85,44.85,0,0,1-14.24-9.27,42.16,42.16,0,0,1-9.34-13.65,41.49,41.49,0,0,1-3.36-16.57,51.72,51.72,0,0,1,3.5-19.57,43.66,43.66,0,0,1,9.49-14.6,40.47,40.47,0,0,1,14-9.12,45.75,45.75,0,0,1,17-3.14q14.6,0,25.33,7.44a45,45,0,0,1,16,19.86l-43.65,32.85a11.73,11.73,0,0,0,4.23,1.17,45.21,45.21,0,0,0,4.82.29,24.14,24.14,0,0,0,11.32-2.41,42.33,42.33,0,0,0,8.39-5.77ZM786.5,243.56a10.44,10.44,0,0,0-4.45-3.35,15.83,15.83,0,0,0-5.48-.88,11.39,11.39,0,0,0-5.32,1.24,13.27,13.27,0,0,0-4.17,3.36,16.11,16.11,0,0,0-2.7,4.74,15.93,15.93,0,0,0-1,5.41,13.24,13.24,0,0,0,.37,3.72,16.85,16.85,0,0,0,1,2.26Z"/><path d="M857.75,248.53l7.15-32.12L895,219,863.74,329.12l-33-2.63,12.55-34.31-27.44-71.83,31.82-3.94,9.79,32.12Z"/><path d="M941,188.08,984.91,182l-3.79,82.2,35.77-7.45,1.75,41L942,305.47Z"/><path d="M1067.84,292.33h-.29a20.72,20.72,0,0,1-10,7.74,38.19,38.19,0,0,1-13.07,2.19,29.5,29.5,0,0,1-11.1-2.12,27.16,27.16,0,0,1-9.19-6.06,29.22,29.22,0,0,1-6.28-9.49,31.63,31.63,0,0,1-2.34-12.41,25.8,25.8,0,0,1,2.34-11,27.53,27.53,0,0,1,6.35-8.76,29.24,29.24,0,0,1,9.49-5.84,32.72,32.72,0,0,1,11.9-2.12,28.79,28.79,0,0,1,11.31,2,35.68,35.68,0,0,1,7.81,4.45v-4.38q0-6.71-4.38-8.9T1049,235.39a52.09,52.09,0,0,0-12,1.31c-3.71.88-7.45,1.9-11.25,3.07l5.7-23.22a82.91,82.91,0,0,1,14.6-2.84,145.75,145.75,0,0,1,15.47-.81,58.79,58.79,0,0,1,14,1.68,33.69,33.69,0,0,1,12,5.48,27.3,27.3,0,0,1,8.25,9.78q3.08,6,2.92,14.75l-1.6,55.18-29.35,2.49Zm-18.54-27a16.07,16.07,0,0,0-8.18,3.43q-3.21,2.7-2.77,6.06a6.69,6.69,0,0,0,4.16,5q3.57,1.68,9.27.81t8.47-3.65a6.55,6.55,0,0,0,2.19-6q-.43-2.77-3.72-4.74T1049.3,265.32Z"/><path d="M1157.78,289.41h-.3q-2.91,8-9.12,11.39a30.18,30.18,0,0,1-14.53,3.35q-10.95,0-17.74-6.49t-6.79-18.91V217.43l32.56-2.63-.87,54q-.15,3.51,1.53,5t5.18,1.53a7.34,7.34,0,0,0,4.75-1.46c1.21-1,1.77-2.63,1.68-5l-.88-51.54,33.58-2.63-2.19,86.87-26.86,1.17Z"/><path d="M1225.66,227.21h.59q4.82-6.57,9.85-8.9a25.85,25.85,0,0,1,11-2.34,25.22,25.22,0,0,1,10.8,2.19,22.16,22.16,0,0,1,7.88,6.13,28.08,28.08,0,0,1,4.9,9.2,37.51,37.51,0,0,1,1.67,11.39v56.5L1240.85,304l.44-53.15a5.11,5.11,0,0,0-2-4.38,7.73,7.73,0,0,0-5-1.75,8.26,8.26,0,0,0-5,1.68A5.41,5.41,0,0,0,1227,251l.58,52.71-31.1-2.19-1.16-83.08,30.36-2.48Z"/><path d="M1365.38,301.23l-28.61,1.9v-8.32h-.29a19.73,19.73,0,0,1-9.57,6.79,36.77,36.77,0,0,1-12.19,2.12,35.86,35.86,0,0,1-14.38-3,37.61,37.61,0,0,1-12.34-8.61,41.6,41.6,0,0,1-8.61-13.8,50.41,50.41,0,0,1-3.21-18.54,56.19,56.19,0,0,1,2.7-17.59,44,44,0,0,1,7.81-14.46,36.46,36.46,0,0,1,12.63-9.78,39.52,39.52,0,0,1,17.15-3.58,35.49,35.49,0,0,1,9.35,1.24,19.87,19.87,0,0,1,7.88,4.17L1332.39,185l33.58-2.63Zm-40.44-28.9a16.38,16.38,0,0,0,5.4-3.14,15.59,15.59,0,0,0,3.44-4.38,12.58,12.58,0,0,0,1.38-5,12.9,12.9,0,0,0-.73-5.11,12.11,12.11,0,0,0-2.7-4.23,13.36,13.36,0,0,0-4.31-3,15.33,15.33,0,0,0-5.47-1.24,16.12,16.12,0,0,0-6.21,1,15.31,15.31,0,0,0-5.54,3.22,16.07,16.07,0,0,0-3.43,4.45,12.34,12.34,0,0,0-1.39,5.11,12.18,12.18,0,0,0,.73,5,11.22,11.22,0,0,0,2.7,4.3,14,14,0,0,0,4.31,2.92,14.26,14.26,0,0,0,5.47,1.17A18,18,0,0,0,1324.94,272.33Z"/><path d="M1408,215v16.2h.3q3.8-16.2,21.9-16.2a58.5,58.5,0,0,1,7.44.44l-7.59,31.09a16.69,16.69,0,0,0-2.19-.14H1425a15.27,15.27,0,0,0-10.58,4q-4.45,4-4.46,12.63V300.5l-30.66,2.63-.87-85.55Z"/><path d="M1475.17,248.53l7.16-32.12,30.08,2.63-31.25,110.08-33-2.63,12.55-34.31-27.45-71.83,31.83-3.94,9.78,32.12Z"/><path d="M592.86,513.1c-11,6.5-19.66,18.21-27.79,27.81-8.83,10.42-19.88,21.44-25.8,33.81-4.94,10.34-8.14,21.7-5.7,33.16,1,4.55,3,8.84,5,13,.34.74.68,1.49,1,2.22,1.86,3.76-1.5-3.63.69,1.52.88,2.07,1.75,4.14,2.64,6.2,6.75,15.43,14.21,30.55,21.83,45.56,8.26,16.26,16.71,32.46,25.87,48.23,8.73,15,32.07,1.45,23.32-13.62-15.64-26.91-29.8-54.86-42.87-83.09q-2.1-4.54-4.13-9.11c-.69-1.56-1.36-3.13-2-4.69-1-2.31,1.86,4.36-.35-.85-.54-1.26-1.07-2.53-1.64-3.78-.43-.93-.88-1.85-1.31-2.78-.15-.3-1.18-2.69-.62-1.3s-.39-1.13-.48-1.44c-.27-.86-.51-1.73-.73-2.61.1.41-.31-2.15-.28-2.56a32.35,32.35,0,0,1,1.86-7.09c1.81-5.52,4.89-10,8.75-14.73,3.64-4.45,7.28-8.91,11-13.32,4.88-5.83,9.82-11.62,15-17.2,2.32-2.51,4.68-5,7.17-7.34,1-.93,2-1.78,3-2.71,1.39-1.29-2.89,1.84.24,0,15-8.81,1.39-32.16-13.63-23.32Z"/><path d="M690.93,539.36c.91,13.56,5.36,27.17,9,40.17,3.81,13.55,7.57,27.31,12.61,40.47,6.59,17.21,16.85,36.83,35.46,42.8,14.14,4.54,29.82,5.35,44.54,6.33,12.42.83,24.87,1.2,37.32,1.38,17.38.24,17.39-26.76,0-27-9.9-.14-19.8-.41-29.68-.93-7.2-.37-14.39-.87-21.56-1.6-1.63-.16-3.26-.34-4.9-.53l-3.18-.39c.42.05,3,.44.49.05-3.18-.5-6.35-1-9.5-1.68-2.62-.58-5.16-1.33-7.72-2.12-3.22-1,2.33,1.18,0,0a7.31,7.31,0,0,0-1.22-.67c-1.41-.39,1.9,2,1.18,1-2.66-3.75-6-6.77-8.43-10.75q-2-3.29-3.81-6.74c-.78-1.5-1.47-3-2.21-4.56l-.68-1.53c.59,1.43.71,1.7.35.82-4.44-11.65-7.9-23.71-11.35-35.69-2.34-8.13-4.59-16.3-6.62-24.51-.85-3.44-1.67-6.88-2.37-10.35-.27-1.29-.49-2.58-.73-3.88-.62-3.36.28,3.6,0,0-.49-7.28-5.85-13.5-13.5-13.5-6.93,0-14,6.19-13.5,13.5Z"/><path class="cls-5" d="M671.53,743.93l-44.79-.46A45.33,45.33,0,0,1,582,697.82l1.41-139.4c.13-13.19,4.24-32.33,13.41-40.52,8.12-7.24,20.87-4.33,32.54-4.22l44.5.46c10.8.11,22.48-2.92,30.21,3.55,10,8.41,14.67,28,14.52,42.1l-1.41,139.4A45.33,45.33,0,0,1,671.53,743.93Z"/><path class="cls-6" d="M605.26,526.08c-3.88-6.13,1.27-13.6,9.29-13.47l37.37.59,36.82.59c8.26.13,13.32,8,9.12,14.18l-47.29,69.77Z"/><polygon class="cls-7" points="664.47 577.09 650.61 597.75 637.82 576.82 651.79 545.11 664.47 577.09"/><path class="cls-8" d="M609.45,682.48C624.14,792.33,598,918.31,587.91,948.1"/><path class="cls-8" d="M684.19,683.24c14.69,109.85-11.49,235.83-21.54,265.62"/><circle class="cls-9" cx="650.27" cy="630.89" r="4.55"/><circle class="cls-9" cx="649.94" cy="663.39" r="4.55"/><circle class="cls-9" cx="649.58" cy="699.79" r="4.55"/><polygon class="cls-7" points="651.83 545.31 664.59 534.4 658.34 523.4 645.69 523.32 639.29 534.23 651.83 545.31"/><rect class="cls-10" x="635.68" y="475.24" width="32.5" height="49.4" rx="14.52" transform="translate(5.1 -6.58) rotate(0.58)"/><path class="cls-11" d="M601,696a11.05,11.05,0,0,1-11.16,10.94c-6.11-.07-11.37-.84-11.31-6.94"/><path class="cls-12" d="M696.45,692.79A11,11,0,0,0,707.38,704c6.1.06,11.38-.61,11.44-6.71"/><rect class="cls-13" x="677.98" y="588.42" width="27.95" height="4.55" transform="translate(6.02 -6.98) rotate(0.58)"/><rect class="cls-9" x="576.32" y="694.44" width="14.37" height="2.35" transform="translate(-295.28 467.38) rotate(-35.45)"/><path d="M588.64,690.67l1.22,1.71-11.5,8.19-1.22-1.71,11.5-8.19m.06-.35-11.91,8.48,1.51,2.11,11.91-8.47-1.51-2.12Z"/><path class="cls-14" d="M587.26,688.85a12.69,12.69,0,0,0,5.38,5.66"/><path class="cls-5" d="M593.84,959.2a3.56,3.56,0,0,1,.78.08c4.35.94,9,1.39,13.39,2.68l33,.33a26.65,26.65,0,0,0-26.37-26.91l-32.36-.33a4.68,4.68,0,0,0-4.73,4.64l-.23,22,11.69.12a3.17,3.17,0,0,1,4.78-2.57Z"/><path class="cls-5" d="M667.26,961.89a3.59,3.59,0,0,1,.78.09c4.35.94,9,1.39,13.4,2.67l33,.34a26.66,26.66,0,0,0-26.38-26.92l-32.36-.33a4.68,4.68,0,0,0-4.73,4.65l-.23,22,11.69.12a3.06,3.06,0,0,1,3.17-3A3.2,3.2,0,0,1,667.26,961.89Z"/><path class="cls-15" d="M580.58,933.79c2.33,4.11,6.62,4.45,11,4.86,4.77.44,9.22-.4,12.83-3.69,1.43-1.3-.7-3.41-2.12-2.12-2.8,2.54-6.31,3.13-10,2.88-3.26-.22-7.42-.35-9.18-3.44a1.5,1.5,0,0,0-2.59,1.51Z"/><path class="cls-15" d="M654.66,936.49c2.32,4.12,6.61,4.45,11,4.86,4.77.44,9.22-.4,12.83-3.69,1.43-1.3-.7-3.41-2.12-2.12-2.79,2.54-6.31,3.13-10,2.88-3.25-.22-7.42-.35-9.17-3.44a1.5,1.5,0,0,0-2.59,1.51Z"/><circle class="cls-16" cx="626.22" cy="375.21" r="29.57"/><circle class="cls-16" cx="655.5" cy="371.6" r="25.02"/><circle class="cls-16" cx="593.67" cy="379.43" r="25.02"/><circle class="cls-16" cx="686.66" cy="375.82" r="25.02"/><circle class="cls-16" cx="704.3" cy="399.07" r="24.05"/><circle class="cls-16" cx="662.72" cy="396.7" r="31.2"/><circle class="cls-16" cx="612.92" cy="404.32" r="28.92"/><rect class="cls-16" x="587.61" y="417.48" width="17.55" height="30.55" rx="7.84" transform="translate(4.42 -6.02) rotate(0.58)"/><circle class="cls-16" cx="580.03" cy="410.81" r="23.4"/><path class="cls-10" d="M668.22,490.35l5.9.06,10.4.11,7.54-1.08a4.07,4.07,0,0,0,1.69-.66h0a23.42,23.42,0,0,0,8.44-10.43h0l1.27-8.27c.08-.54.15-1.09.19-1.64l.55-6.65a23.36,23.36,0,0,0,0-3.24l-.46-7.48-.58-6.51-.55-9.76-.57-8.45,0-3.25-6.48-1.37-5.82-3.31-5.16-3.95-5.78-6.56-1.35,5.19L674.87,417l-2.63,2.58-3.92,2.56L664.4,424l-5.21.59-5.2-.05-5.19-.7-4.53-2.65-3.21-3.28L637.85,414l-3.21-3.93-2,5.18-2,5.17L628,423.65l-2.62,1.92-3.27,1.92-3.27,1.92-3.25.61-3.9,0-3.9,0-2.59-1.32-1.93-2-.07,7.15-.1,9.75-12.35-.13.13-13-2,1.28L585.66,433l-3.43.65a19.2,19.2,0,0,1-6.19.16L574,433.5l-.08,8.27a9.17,9.17,0,0,0,.44,2.89h0a13.66,13.66,0,0,0,5.31,7.1h0l5.17,2.65,4.54,1.35,6.32.63a2.35,2.35,0,0,1,1.4.68h0a2.44,2.44,0,0,1,.69,1.74l0,4.18,0,2a5.15,5.15,0,0,0,.53,2.35l1.37,2.81,1.74,3.57a3.39,3.39,0,0,0,.41.65l2.74,3.35a3.08,3.08,0,0,0,.51.51l5.92,4.83a2.32,2.32,0,0,0,.53.35l4.89,2.51,4.54,1.34,2.19.91a6.19,6.19,0,0,0,2.16.46l10.58.33"/><rect x="642.41" y="433.45" width="19.81" height="6.97" rx="3.11" transform="translate(111.65 -132.37) rotate(12.66)"/><rect x="677.62" y="431.09" width="22.75" height="6.5" rx="2.9" transform="translate(4.44 -6.96) rotate(0.58)"/><ellipse cx="652.28" cy="444.04" rx="4.87" ry="4.66" transform="translate(201.65 1091.79) rotate(-89.42)"/><ellipse cx="691.28" cy="444.44" rx="4.87" ry="4.66" transform="translate(239.85 1131.17) rotate(-89.42)"/><ellipse class="cls-17" cx="672.36" cy="472.2" rx="1.3" ry="13" transform="translate(193.37 1139.73) rotate(-89.42)"/><path class="cls-18" d="M671.47,449.27c.78,2.17,2.29,3.61,3.48,5.53,2.51,4.06-1.34,5.5-4.9,5.23-1.93-.14-1.92,2.86,0,3,3.35.25,7.6-.46,8.67-4.24,1.22-4.27-3.09-6.79-4.36-10.32-.65-1.81-3.55-1-2.89.8Z"/><path class="cls-18" d="M637.06,515l-.63-2a12.25,12.25,0,0,1-.52-4L636,490a.92.92,0,0,1,.94-.92l22.68.58a.25.25,0,0,1,.1.48l-6.26,2.94a8.13,8.13,0,0,1-1.36.48L641,496.32l-.69,23.17"/><path class="cls-18" d="M598.61,458.79c-1.4,8.65,3.89,16.5,10.61,21.51,1.55,1.15,3-1.45,1.51-2.59-2.42-1.81-4.35-4.44-6.29-6.78a14.09,14.09,0,0,1-2.93-11.34c.3-1.89-2.59-2.7-2.9-.8Z"/><path class="cls-18" d="M599.16,459.53c1,12.51,11.39,19.54,21.4,25.25a1.5,1.5,0,0,0,1.52-2.59c-8.93-5.09-19-11.37-19.92-22.66-.16-1.91-3.16-1.92-3,0Z"/><path class="cls-18" d="M601.26,468.69c.44,1.88,1.92,3.48,3,5.09a23,23,0,0,0,4.75,5.44A40.48,40.48,0,0,0,622,486c1.83.63,2.62-2.27.8-2.89-4.14-1.42-8.31-3.16-11.72-6a19.8,19.8,0,0,1-4-4.35c-.81-1.23-2.62-3.43-3-4.85-.43-1.88-3.33-1.09-2.89.79Z"/><path class="cls-18" d="M610.14,480.27c.5.18.9.73,1.31,1.05a7.62,7.62,0,0,0,1.54.89c1.22.57,2.47,1.07,3.7,1.6,1.75.75,3.28-1.83,1.51-2.59-1.36-.59-2.78-1.12-4.1-1.79-1.16-.58-1.91-1.61-3.16-2.05-1.82-.64-2.61,2.26-.8,2.89Z"/><path class="cls-18" d="M609.32,479.86l2.66,1.45a1.54,1.54,0,0,0,2-.54,1.51,1.51,0,0,0-.54-2l-2.66-1.45a1.5,1.5,0,0,0-1.51,2.59Z"/><path class="cls-18" d="M611,480.86a1.5,1.5,0,0,0,0-3,1.5,1.5,0,0,0,0,3Z"/><path class="cls-18" d="M608.75,478.65c.84,2.29,2.91,3.19,4.94,4.31a52.83,52.83,0,0,0,7.94,3.18c1.83.65,2.61-2.25.8-2.89a58.33,58.33,0,0,1-6-2.25c-1.26-.61-4.24-1.76-4.75-3.15-.66-1.8-3.56-1-2.89.8Z"/><path class="cls-18" d="M606.71,477.12a26.48,26.48,0,0,0,16,9.72c1.89.36,2.69-2.53.8-2.89-5.22-1-11.11-4.08-14.26-8.35-1.13-1.54-3.73,0-2.59,1.52Z"/><path class="cls-18" d="M620.58,485l6.21,2.62a1.51,1.51,0,0,0,1.85-1.05,1.53,1.53,0,0,0-1-1.84l-6.21-2.62a1.52,1.52,0,0,0-1.85,1,1.55,1.55,0,0,0,1.05,1.85Z"/><path class="cls-18" d="M623.28,486.67a4.1,4.1,0,0,1,1.4.07v-2.89a1.85,1.85,0,0,1-.81,0,1.5,1.5,0,0,0-.79,2.9,27.72,27.72,0,0,0,3.59.9,1.55,1.55,0,0,0,1.85-1.05,1.52,1.52,0,0,0-1-1.85,27.86,27.86,0,0,1-3.6-.9l-.79,2.9a5.67,5.67,0,0,0,2.39-.06,1.51,1.51,0,0,0,0-2.89,6.46,6.46,0,0,0-2.19-.18,1.54,1.54,0,0,0-1.5,1.5,1.52,1.52,0,0,0,1.5,1.5Z"/><path class="cls-10" d="M579.89,434.81c-.18,3.55-.23,7.51,1.91,10.55s6.35,4.46,9.92,5.13c1.88.35,2.69-2.54.79-2.9-3-.56-6.87-1.56-8.54-4.4-1.44-2.46-1.22-5.64-1.08-8.38.09-1.93-2.91-1.92-3,0Z"/><path class="cls-18" d="M584.48,437.06c-1.15,3.48,1.7,8.11,5.71,6.6a1.55,1.55,0,0,0,1-1.85,1.51,1.51,0,0,0-1.84-1.05c-1.84.7-2.48-1.5-2-2.9.61-1.84-2.28-2.63-2.89-.8Z"/><path class="cls-18" d="M579,435.19c.15,1.71-.5,3.35-.34,5.06a7.62,7.62,0,0,0,1.66,4c2.05,2.63,5.26,3.64,8.42,4.19,1.89.34,2.7-2.55.8-2.89-2.55-.45-5.51-1.09-7.06-3.39s-.27-4.52-.48-6.95c-.16-1.91-3.16-1.93-3,0Z"/><path class="cls-18" d="M580.31,436.59a1.5,1.5,0,0,0,0-3,1.5,1.5,0,0,0,0,3Z"/><path class="cls-9" d="M684.7,941.32c3.39-.09,6.93-.24,10.19.88s6.14,3.5,8.83,5.74c1.47,1.23,3.61-.88,2.12-2.12-2.77-2.31-5.6-4.7-9-6.07-3.88-1.57-8-1.54-12.16-1.43-1.93,0-1.94,3,0,3Z"/><path class="cls-9" d="M615.92,939.9A21.23,21.23,0,0,1,632,947.7c1.24,1.49,3.36-.64,2.13-2.12a24.2,24.2,0,0,0-18.25-8.68c-1.93,0-1.93,3,0,3Z"/><line class="cls-19" x1="639.54" y1="535.24" x2="625.04" y2="555.24"/><line class="cls-20" x1="664.24" y1="535.49" x2="678.34" y2="555.13"/><path class="cls-18" d="M631.2,387.81A27.27,27.27,0,0,1,626,410.27c-1.17,1.51.94,3.65,2.12,2.12A30.51,30.51,0,0,0,634.09,387c-.39-1.89-3.28-1.09-2.89.8Z"/><path class="cls-18" d="M708.78,380.14c5,1.83,8.17,6.15,9.85,11.1,1.74,5.11,3,13.77-3.47,16.1-1.81.64-1,3.54.79,2.89,7.27-2.6,7.85-10.48,6.33-17.11-1.62-7.06-5.72-13.34-12.71-15.88-1.81-.66-2.6,2.24-.79,2.9Z"/><path class="cls-18" d="M670.72,373.27c5.77-2.87,12,1.29,14.44,6.57,2.39,5.11,2.27,10.91,2.17,16.43,0,1.93,3,1.93,3,0,.14-7.46.16-16.21-5.28-22-4.13-4.43-10.29-6.31-15.84-3.55-1.73.85-.21,3.44,1.51,2.59Z"/><path class="cls-18" d="M634.91,365.5c10.35-.15,10.47,12.56,10,19.82-.11,1.93,2.89,1.92,3,0,.54-9.09-.88-23-13-22.82a1.5,1.5,0,0,0,0,3Z"/><path class="cls-18" d="M585.61,381.69A30.81,30.81,0,0,0,578.43,420c.93,1.69,3.53.18,2.59-1.51a27.8,27.8,0,0,1,6.71-34.71c1.5-1.23-.64-3.34-2.12-2.13Z"/><circle class="cls-10" cx="856.39" cy="657.32" r="18.54"/><rect class="cls-10" x="853.06" y="619.77" width="9.51" height="24.72" rx="4.25" transform="translate(91.16 -107.92) rotate(7.6)"/><ellipse class="cls-21" cx="854.96" cy="624.04" rx="3.33" ry="0.95" transform="translate(29.63 1286.78) rotate(-74.89)"/><rect class="cls-10" x="866.37" y="644.48" width="45.63" height="7.61" rx="3.4"/><rect class="cls-10" x="864.47" y="651.14" width="25.67" height="8.56" rx="3.82"/><rect class="cls-10" x="861.62" y="658.74" width="25.67" height="8.56" rx="3.82"/><rect class="cls-10" x="856.86" y="666.35" width="22.82" height="8.56" rx="3.82"/><ellipse class="cls-21" cx="875.88" cy="655.89" rx="3.8" ry="2.85"/><ellipse class="cls-21" cx="873.97" cy="662.54" rx="3.8" ry="2.85"/><ellipse class="cls-21" cx="868.59" cy="669.67" rx="3.17" ry="2.38"/><line class="cls-22" x1="875.4" y1="651.61" x2="888.71" y2="651.61"/><line class="cls-22" x1="871.6" y1="659.22" x2="884.91" y2="659.22"/><line class="cls-22" x1="864.94" y1="666.82" x2="878.25" y2="666.82"/><rect class="cls-9" x="835.21" y="644.77" width="6.49" height="24.3"/><path d="M841.57,644.89V669h-6.24V644.89h6.24m.25-.25h-6.74V669.2h6.74V644.64Z"/></svg>
