<svg id="Layer_1" data-name="Layer 1" xmlns="http://www.w3.org/2000/svg" viewBox="0 0 120 60"><title>nedtælling</title><path d="M35.77,35.46a8.4,8.4,0,0,1-1.88,1.83,9.5,9.5,0,0,1-2.47,1.28,9.3,9.3,0,0,1-2.77.52,7.66,7.66,0,0,1-2.81-.4,7.1,7.1,0,0,1-2.53-1.53,8.41,8.41,0,0,1-2-2.83,14,14,0,0,1-.24-11.4,14.27,14.27,0,0,1,1.8-3.11,13.86,13.86,0,0,1,2.48-2.48,11.33,11.33,0,0,1,3-1.66,6.59,6.59,0,0,1,2.92-.49,7.06,7.06,0,0,1,4.49,1.91A6,6,0,0,1,37,18.75a16.43,16.43,0,0,1,1.75,7.81A16.76,16.76,0,0,1,38,31,15.07,15.07,0,0,1,35.77,35.46ZM31.8,24a2,2,0,0,0-1.48-1.39,2.25,2.25,0,0,0-1.84.56,5.49,5.49,0,0,0-1.54,2.23A7.78,7.78,0,0,0,26.45,29a5,5,0,0,0,.76,2.77,1.84,1.84,0,0,0,1.46.84,2.54,2.54,0,0,0,1.65-.68,4.21,4.21,0,0,0,1.23-1.75,11.3,11.3,0,0,0,.59-2,8.57,8.57,0,0,0,.15-1.68,6.41,6.41,0,0,0-.15-1.38A6.82,6.82,0,0,0,31.8,24Z"/><path d="M54.82,35.46a8.24,8.24,0,0,1-1.89,1.83,9.53,9.53,0,0,1-5.24,1.8,7.64,7.64,0,0,1-2.8-.4,7.23,7.23,0,0,1-2.54-1.53,8.39,8.39,0,0,1-2-2.83,14,14,0,0,1-1.21-7.82,14,14,0,0,1,1-3.58,14.27,14.27,0,0,1,1.8-3.11,13.54,13.54,0,0,1,2.48-2.48,11.33,11.33,0,0,1,3-1.66,6.59,6.59,0,0,1,2.92-.49,7.06,7.06,0,0,1,4.49,1.91,6,6,0,0,1,1.27,1.65,16.44,16.44,0,0,1,1.31,3.59,15.84,15.84,0,0,1,.44,4.22A16.76,16.76,0,0,1,57.08,31,15.07,15.07,0,0,1,54.82,35.46ZM50.85,24a2,2,0,0,0-1.48-1.39,2.27,2.27,0,0,0-1.85.56A5.48,5.48,0,0,0,46,25.39,7.78,7.78,0,0,0,45.5,29a5,5,0,0,0,.76,2.77,1.84,1.84,0,0,0,1.46.84,2.56,2.56,0,0,0,1.65-.68,4.3,4.3,0,0,0,1.23-1.75,11.3,11.3,0,0,0,.59-2,8.57,8.57,0,0,0,.15-1.68,7.11,7.11,0,0,0-.15-1.38A8,8,0,0,0,50.85,24Z"/><path d="M58.09,37.46l.17-2.4,3,.17-.56,3Zm1.1-9.69.2-2.65,3.27.2L62,28.58Z"/><path d="M78.89,35.46A8.67,8.67,0,0,1,77,37.29a9.61,9.61,0,0,1-5.24,1.8,7.66,7.66,0,0,1-2.81-.4,7.19,7.19,0,0,1-2.53-1.53,8.55,8.55,0,0,1-2-2.83A14,14,0,0,1,66,19.82a13.49,13.49,0,0,1,2.47-2.48,11.23,11.23,0,0,1,3-1.66,6.52,6.52,0,0,1,2.91-.49,7.11,7.11,0,0,1,4.5,1.91,6.15,6.15,0,0,1,1.26,1.65,15.47,15.47,0,0,1,1.31,3.59,15.84,15.84,0,0,1,.44,4.22A16.76,16.76,0,0,1,81.14,31,15.28,15.28,0,0,1,78.89,35.46ZM74.91,24a2,2,0,0,0-1.48-1.39,2.25,2.25,0,0,0-1.84.56,5.49,5.49,0,0,0-1.54,2.23A7.78,7.78,0,0,0,69.56,29a5,5,0,0,0,.76,2.77,1.84,1.84,0,0,0,1.47.84,2.53,2.53,0,0,0,1.64-.68,4.21,4.21,0,0,0,1.23-1.75,11.3,11.3,0,0,0,.59-2,8.63,8.63,0,0,0,.16-1.68,7.07,7.07,0,0,0-.16-1.38A6.82,6.82,0,0,0,74.91,24Z"/><path d="M97.93,35.46a8.4,8.4,0,0,1-1.88,1.83,9.5,9.5,0,0,1-2.47,1.28,9.31,9.31,0,0,1-2.78.52,7.64,7.64,0,0,1-2.8-.4,7.23,7.23,0,0,1-2.54-1.53,8.53,8.53,0,0,1-2-2.83,14,14,0,0,1-1.21-7.82,14,14,0,0,1,1-3.58A14.27,14.27,0,0,1,85,19.82a13.86,13.86,0,0,1,2.48-2.48,11.33,11.33,0,0,1,3-1.66,6.59,6.59,0,0,1,2.92-.49,7.06,7.06,0,0,1,4.49,1.91,6,6,0,0,1,1.27,1.65A16.43,16.43,0,0,1,101,26.56a16.76,16.76,0,0,1-.76,4.48A15.07,15.07,0,0,1,97.93,35.46ZM94,24a2,2,0,0,0-1.48-1.39,2.25,2.25,0,0,0-1.84.56,5.39,5.39,0,0,0-1.54,2.23A7.78,7.78,0,0,0,88.61,29a5,5,0,0,0,.76,2.77,1.84,1.84,0,0,0,1.46.84,2.54,2.54,0,0,0,1.65-.68,4.21,4.21,0,0,0,1.23-1.75,11.3,11.3,0,0,0,.59-2,8.57,8.57,0,0,0,.15-1.68,7.11,7.11,0,0,0-.15-1.38A6.82,6.82,0,0,0,94,24Z"/></svg>
