<svg id="Layer_1" data-name="Layer 1" xmlns="http://www.w3.org/2000/svg" viewBox="0 0 446 180"><defs><style>.cls-1{fill:#009245;}.cls-2{fill:#e6e6e6;}.cls-3{fill:#006837;stroke:#006837;stroke-miterlimit:10;}.cls-4{fill:#ffa80a;}.cls-5{fill:#ff931e;}.cls-6{fill:#ffd950;}.cls-7{fill:#fff;opacity:0.59;}</style></defs><title>penge_optælling</title><rect class="cls-1" x="48.61" y="10.02" width="65.57" height="121.86" transform="translate(-18 113.14) rotate(-64.07)"/><path class="cls-2" d="M142.38,86.71c-10.82-5-14.84-17.23-10-27.82l18.67,8.91Z"/><path class="cls-2" d="M20.5,55.48c10.83,5,14.85,17.23,10,27.82L11.81,74.38Z"/><path class="cls-2" d="M31.62,32.61c10.6,5.44,22.72,1,28-9.33L41.11,14.1Z"/><path class="cls-2" d="M131.36,109.37c-10.6-5.43-22.72-1-28,9.34l18.54,9.18Z"/><ellipse class="cls-2" cx="81.53" cy="70.69" rx="19.3" ry="19.73" transform="translate(-17.69 113.11) rotate(-64.07)"/><ellipse cx="49.43" cy="55.09" rx="2.59" ry="2.61" transform="translate(-21.72 75.46) rotate(-64.07)"/><ellipse cx="113.62" cy="86.29" rx="2.59" ry="2.61" transform="translate(-13.66 150.75) rotate(-64.07)"/><rect class="cls-3" x="67.81" y="70.12" width="2.32" height="52.81" rx="1.16" transform="translate(-47.99 116.35) rotate(-64.07)"/><rect class="cls-4" x="110.9" y="65.67" width="320.1" height="73.26" rx="24.5"/><rect class="cls-5" x="114.9" y="59.67" width="320.1" height="73.26" rx="24.5"/><rect class="cls-1" x="51.61" y="40.02" width="65.57" height="121.86" transform="translate(-43.29 132.72) rotate(-64.07)"/><path class="cls-2" d="M145.38,116.71c-10.82-5-14.84-17.23-10-27.82l18.67,8.91Z"/><path class="cls-2" d="M23.5,85.48c10.83,5,14.85,17.23,10,27.82l-18.67-8.92Z"/><path class="cls-2" d="M34.62,62.61c10.6,5.44,22.72,1,28-9.33L44.11,44.1Z"/><path class="cls-2" d="M134.36,139.37c-10.6-5.43-22.72-1-28,9.34l18.54,9.18Z"/><ellipse class="cls-2" cx="84.53" cy="100.69" rx="19.3" ry="19.73" transform="translate(-42.98 132.69) rotate(-64.07)"/><ellipse cx="52.43" cy="85.09" rx="2.59" ry="2.61" transform="translate(-47.02 95.04) rotate(-64.07)"/><ellipse cx="116.62" cy="116.29" rx="2.59" ry="2.61" transform="translate(-38.95 170.33) rotate(-64.07)"/><rect class="cls-3" x="70.81" y="100.12" width="2.32" height="52.81" rx="1.16" transform="translate(-73.29 135.93) rotate(-64.07)"/><rect class="cls-6" x="144.77" y="72.63" width="260.36" height="46.21" rx="12"/><path d="M200.92,93.78a7.6,7.6,0,0,1,2.7,2.47,6.74,6.74,0,0,1,1,2.67,7.52,7.52,0,0,1,0,2.47,8.66,8.66,0,0,1-.51,1.79l-.31.69a8.38,8.38,0,0,1-1.59,1.76,8.59,8.59,0,0,1-2.17,1.18,8,8,0,0,1-3.24.45,14.92,14.92,0,0,1-4.43-1,26.18,26.18,0,0,1-5.7-3l4.14-5.92a14.67,14.67,0,0,0,3.3,1.93,5.21,5.21,0,0,0,2,.42,1.76,1.76,0,0,0,1.21-.58l.11-.32a1.49,1.49,0,0,0,.06-.75,1.42,1.42,0,0,0-.46-.84,2.9,2.9,0,0,0-1.43-.61,10.13,10.13,0,0,0-2.82,0l.32-4.82a7.48,7.48,0,0,0,2.71-.1,1.55,1.55,0,0,0,1-.67,1.39,1.39,0,0,0-.15-1.12,2.26,2.26,0,0,0-1.32-.63,5.56,5.56,0,0,0-1.94.28,11.49,11.49,0,0,0-3.06,1.62L187.5,86a17.22,17.22,0,0,1,5.13-2.6,12.53,12.53,0,0,1,4.14-.54,9.52,9.52,0,0,1,3.06.68,8.22,8.22,0,0,1,1.89,1l.66.55.42.52a6.57,6.57,0,0,1,.81,1.4,5.33,5.33,0,0,1,.45,2,4.51,4.51,0,0,1-.65,2.33A7.19,7.19,0,0,1,200.92,93.78Z"/><path d="M214.13,91.16a9,9,0,0,1,3.13.82,7,7,0,0,1,2.42,1.86,4.84,4.84,0,0,1,1.1,2.87v.62a7.92,7.92,0,0,1-.21,1.55,10.35,10.35,0,0,1-.72,2.11,8.58,8.58,0,0,1-1.51,2.24,9.14,9.14,0,0,1-2.59,2,13.28,13.28,0,0,1-4,1.27,22.82,22.82,0,0,1-5.66.17L204.83,100a13.35,13.35,0,0,0,3.71.35,6.47,6.47,0,0,0,2.39-.59,4.57,4.57,0,0,0,1.38-1.06,3.74,3.74,0,0,0,.64-1c.09-.27.14-.42.14-.44a.92.92,0,0,0-.21-.86A2.15,2.15,0,0,0,212,96a6.48,6.48,0,0,0-1.41-.17,13.24,13.24,0,0,0-1.65.09,12.27,12.27,0,0,0-1.69.32,10.48,10.48,0,0,0-1.5.51l1-12.14,13.39-.65.14,5.6-8.57-.08-.7,2A9.2,9.2,0,0,1,214.13,91.16Z"/><path d="M236.81,103.75a8.49,8.49,0,0,1-1.89,1.84,9.53,9.53,0,0,1-5.24,1.8,7.65,7.65,0,0,1-2.8-.41,7.35,7.35,0,0,1-2.54-1.52,8.59,8.59,0,0,1-2-2.83,14.58,14.58,0,0,1-1.19-4,14.27,14.27,0,0,1,0-3.86,14.08,14.08,0,0,1,2.77-6.69,13.24,13.24,0,0,1,2.48-2.48,11.37,11.37,0,0,1,3-1.67,6.88,6.88,0,0,1,2.92-.49,7.4,7.4,0,0,1,2.52.61,6.71,6.71,0,0,1,2,1.31,5.72,5.72,0,0,1,1.27,1.65,16.44,16.44,0,0,1,1.31,3.59,15.77,15.77,0,0,1,.44,4.21,16.63,16.63,0,0,1-.76,4.48A15,15,0,0,1,236.81,103.75Zm-4-11.46a2.06,2.06,0,0,0-1.48-1.4,2.33,2.33,0,0,0-1.85.57A5.44,5.44,0,0,0,228,93.68a7.8,7.8,0,0,0-.49,3.59,5,5,0,0,0,.76,2.78,1.86,1.86,0,0,0,1.46.83,2.48,2.48,0,0,0,1.65-.68,4.34,4.34,0,0,0,1.23-1.74,11.63,11.63,0,0,0,.59-2,8.54,8.54,0,0,0,.15-1.67,7.11,7.11,0,0,0-.15-1.38A7.58,7.58,0,0,0,232.84,92.29Z"/><path d="M241,105.76l.2-2.4,3,.17-.57,3Z"/><path d="M262,103.75a8.94,8.94,0,0,1-1.89,1.84,9.53,9.53,0,0,1-5.24,1.8,7.62,7.62,0,0,1-2.8-.41,7.35,7.35,0,0,1-2.54-1.52,8.59,8.59,0,0,1-2-2.83,14.24,14.24,0,0,1-1.19-4,14.7,14.7,0,0,1,0-3.86,14.23,14.23,0,0,1,2.78-6.69,13.24,13.24,0,0,1,2.48-2.48,11.37,11.37,0,0,1,3-1.67,6.86,6.86,0,0,1,2.92-.49,7.4,7.4,0,0,1,2.52.61,6.71,6.71,0,0,1,2,1.31,5.9,5.9,0,0,1,1.27,1.65,16.44,16.44,0,0,1,1.31,3.59,16.19,16.19,0,0,1,.44,4.21,17,17,0,0,1-.76,4.48A15.19,15.19,0,0,1,262,103.75Zm-4-11.46a2.06,2.06,0,0,0-1.48-1.4,2.32,2.32,0,0,0-1.85.57,5.44,5.44,0,0,0-1.53,2.22,7.8,7.8,0,0,0-.49,3.59,5,5,0,0,0,.76,2.78,1.86,1.86,0,0,0,1.46.83,2.52,2.52,0,0,0,1.65-.68,4.32,4.32,0,0,0,1.22-1.74,11.73,11.73,0,0,0,.6-2,8.54,8.54,0,0,0,.15-1.67,7.11,7.11,0,0,0-.15-1.38A7.58,7.58,0,0,0,258.06,92.29Z"/><path d="M281.08,103.75a8.94,8.94,0,0,1-1.89,1.84,9.59,9.59,0,0,1-2.46,1.28,9.7,9.7,0,0,1-2.78.52,7.62,7.62,0,0,1-2.8-.41,7.35,7.35,0,0,1-2.54-1.52,8.76,8.76,0,0,1-2-2.83,14.55,14.55,0,0,1-1.18-4,13.88,13.88,0,0,1,0-3.86,14.47,14.47,0,0,1,1-3.58,13.69,13.69,0,0,1,1.81-3.11,13.24,13.24,0,0,1,2.48-2.48,11.37,11.37,0,0,1,3-1.67,6.84,6.84,0,0,1,2.91-.49,7.46,7.46,0,0,1,2.53.61,6.71,6.71,0,0,1,2,1.31,5.9,5.9,0,0,1,1.27,1.65,16.44,16.44,0,0,1,1.31,3.59,15.77,15.77,0,0,1,.43,4.21,16.25,16.25,0,0,1-.76,4.48A15.15,15.15,0,0,1,281.08,103.75Zm-4-11.46a2.06,2.06,0,0,0-1.48-1.4,2.32,2.32,0,0,0-1.85.57,5.44,5.44,0,0,0-1.53,2.22,7.79,7.79,0,0,0-.5,3.59,5.14,5.14,0,0,0,.76,2.78,1.87,1.87,0,0,0,1.47.83,2.52,2.52,0,0,0,1.65-.68,4.32,4.32,0,0,0,1.22-1.74,11.63,11.63,0,0,0,.59-2,7.89,7.89,0,0,0,.16-1.67,6.38,6.38,0,0,0-.16-1.38A6.55,6.55,0,0,0,277.11,92.29Z"/><path d="M300.13,103.75a8.94,8.94,0,0,1-1.89,1.84,9.61,9.61,0,0,1-5.24,1.8,7.7,7.7,0,0,1-2.81-.41,7.31,7.31,0,0,1-2.53-1.52,8.76,8.76,0,0,1-2-2.83,14.55,14.55,0,0,1-1.18-4,13.88,13.88,0,0,1,0-3.86,14,14,0,0,1,1-3.58,13.69,13.69,0,0,1,1.81-3.11,13.24,13.24,0,0,1,2.48-2.48,11.37,11.37,0,0,1,3-1.67,6.81,6.81,0,0,1,2.91-.49,7.4,7.4,0,0,1,2.52.61,6.76,6.76,0,0,1,2,1.31,6.09,6.09,0,0,1,1.27,1.65,16.44,16.44,0,0,1,1.31,3.59,16.19,16.19,0,0,1,.43,4.21,16.63,16.63,0,0,1-.76,4.48A15.15,15.15,0,0,1,300.13,103.75Zm-4-11.46a2,2,0,0,0-1.48-1.4,2.3,2.3,0,0,0-1.84.57,5.54,5.54,0,0,0-1.54,2.22,7.93,7.93,0,0,0-.49,3.59,5.14,5.14,0,0,0,.76,2.78,1.86,1.86,0,0,0,1.47.83,2.48,2.48,0,0,0,1.64-.68,4.24,4.24,0,0,0,1.23-1.74,11.63,11.63,0,0,0,.59-2,8.61,8.61,0,0,0,.16-1.67,6.38,6.38,0,0,0-.16-1.38A5.71,5.71,0,0,0,296.15,92.29Z"/><path d="M304.33,105.76l.19-2.4,3,.17-.56,3Z"/><path d="M325.35,103.75a8.94,8.94,0,0,1-1.89,1.84,9.61,9.61,0,0,1-5.24,1.8,7.67,7.67,0,0,1-2.81-.41,7.31,7.31,0,0,1-2.53-1.52,8.76,8.76,0,0,1-2-2.83,14.21,14.21,0,0,1-1.18-4,13.88,13.88,0,0,1,0-3.86,14,14,0,0,1,1-3.58,13.69,13.69,0,0,1,1.81-3.11,13.19,13.19,0,0,1,2.47-2.48,11.27,11.27,0,0,1,3-1.67,6.81,6.81,0,0,1,2.91-.49,7.4,7.4,0,0,1,2.52.61,6.9,6.9,0,0,1,2,1.31,5.85,5.85,0,0,1,1.26,1.65,15.47,15.47,0,0,1,1.31,3.59,15.77,15.77,0,0,1,.44,4.21,16.63,16.63,0,0,1-.76,4.48A15.15,15.15,0,0,1,325.35,103.75Zm-4-11.46a2,2,0,0,0-1.48-1.4,2.3,2.3,0,0,0-1.84.57,5.45,5.45,0,0,0-1.54,2.22,7.8,7.8,0,0,0-.49,3.59,5.05,5.05,0,0,0,.76,2.78,1.86,1.86,0,0,0,1.47.83,2.48,2.48,0,0,0,1.64-.68,4.24,4.24,0,0,0,1.23-1.74,11.63,11.63,0,0,0,.59-2,8.61,8.61,0,0,0,.16-1.67,7.07,7.07,0,0,0-.16-1.38A6.52,6.52,0,0,0,321.37,92.29Z"/><path d="M344.39,103.75a8.66,8.66,0,0,1-1.88,1.84,9.82,9.82,0,0,1-2.47,1.28,9.63,9.63,0,0,1-2.78.52,7.65,7.65,0,0,1-2.8-.41,7.35,7.35,0,0,1-2.54-1.52,8.74,8.74,0,0,1-2-2.83,14.58,14.58,0,0,1-1.19-4,14.27,14.27,0,0,1,0-3.86,14.08,14.08,0,0,1,2.77-6.69A13.54,13.54,0,0,1,334,85.64,11.37,11.37,0,0,1,337,84a6.88,6.88,0,0,1,2.92-.49,7.4,7.4,0,0,1,2.52.61,6.71,6.71,0,0,1,2,1.31,5.72,5.72,0,0,1,1.27,1.65A15.94,15.94,0,0,1,347,90.64a15.77,15.77,0,0,1,.44,4.21,16.63,16.63,0,0,1-.76,4.48A15,15,0,0,1,344.39,103.75Zm-4-11.46a2.06,2.06,0,0,0-1.48-1.4,2.3,2.3,0,0,0-1.84.57,5.35,5.35,0,0,0-1.54,2.22,7.8,7.8,0,0,0-.49,3.59,5.05,5.05,0,0,0,.76,2.78,1.86,1.86,0,0,0,1.46.83,2.48,2.48,0,0,0,1.65-.68,4.24,4.24,0,0,0,1.23-1.74,11.63,11.63,0,0,0,.59-2,8.54,8.54,0,0,0,.15-1.67,7.11,7.11,0,0,0-.15-1.38A6.52,6.52,0,0,0,340.42,92.29Z"/><path d="M363.44,103.75a8.94,8.94,0,0,1-1.89,1.84,9.53,9.53,0,0,1-5.24,1.8,7.62,7.62,0,0,1-2.8-.41,7.35,7.35,0,0,1-2.54-1.52,8.59,8.59,0,0,1-2-2.83,14.24,14.24,0,0,1-1.19-4,14.7,14.7,0,0,1,0-3.86,14.23,14.23,0,0,1,2.78-6.69A13.24,13.24,0,0,1,353,85.64,11.37,11.37,0,0,1,356,84a6.86,6.86,0,0,1,2.92-.49,7.4,7.4,0,0,1,2.52.61,6.71,6.71,0,0,1,2,1.31,5.9,5.9,0,0,1,1.27,1.65A16.44,16.44,0,0,1,366,90.64a16.19,16.19,0,0,1,.44,4.21,16.63,16.63,0,0,1-.76,4.48A15.19,15.19,0,0,1,363.44,103.75Zm-4-11.46a2.06,2.06,0,0,0-1.48-1.4,2.32,2.32,0,0,0-1.85.57,5.44,5.44,0,0,0-1.53,2.22,7.8,7.8,0,0,0-.49,3.59,5,5,0,0,0,.76,2.78,1.86,1.86,0,0,0,1.46.83,2.52,2.52,0,0,0,1.65-.68,4.32,4.32,0,0,0,1.22-1.74,11.73,11.73,0,0,0,.6-2,8.54,8.54,0,0,0,.15-1.67,7.11,7.11,0,0,0-.15-1.38A7.58,7.58,0,0,0,359.47,92.29Z"/><rect class="cls-7" x="154" y="79.5" width="9" height="34" rx="4.5"/></svg>
