<svg id="Layer_1" data-name="Layer 1" xmlns="http://www.w3.org/2000/svg" viewBox="0 0 450 180"><defs><style>.cls-1{fill:#009245;}.cls-2{fill:#e6e6e6;}.cls-3{fill:#006837;stroke:#006837;stroke-miterlimit:10;}.cls-4{fill:#ffa80a;}.cls-5{fill:#ff931e;}.cls-6{fill:#ffd950;}.cls-7{fill:#fff;opacity:0.59;}</style></defs><title>penge_optaelling_final</title><rect class="cls-1" x="50.61" y="10.02" width="65.57" height="121.86" transform="translate(-16.87 114.94) rotate(-64.07)"/><path class="cls-2" d="M144.38,86.71c-10.82-5-14.84-17.23-10-27.82l18.67,8.91Z"/><path class="cls-2" d="M22.5,55.48c10.83,5,14.85,17.23,10,27.82L13.81,74.38Z"/><path class="cls-2" d="M33.62,32.61c10.6,5.44,22.72,1,28-9.33L43.11,14.1Z"/><path class="cls-2" d="M133.36,109.37c-10.6-5.43-22.72-1-28,9.34l18.54,9.18Z"/><ellipse class="cls-2" cx="83.53" cy="70.69" rx="19.3" ry="19.73" transform="translate(-16.57 114.9) rotate(-64.07)"/><ellipse cx="51.43" cy="55.09" rx="2.59" ry="2.61" transform="translate(-20.6 77.26) rotate(-64.07)"/><ellipse cx="115.62" cy="86.29" rx="2.59" ry="2.61" transform="translate(-12.54 152.55) rotate(-64.07)"/><rect class="cls-3" x="69.81" y="70.12" width="2.32" height="52.81" rx="1.16" transform="translate(-46.87 118.15) rotate(-64.07)"/><rect class="cls-4" x="112.9" y="65.67" width="320.1" height="73.26" rx="24.5"/><rect class="cls-5" x="116.9" y="59.67" width="320.1" height="73.26" rx="24.5"/><rect class="cls-1" x="53.61" y="40.02" width="65.57" height="121.86" transform="translate(-42.17 134.52) rotate(-64.07)"/><path class="cls-2" d="M147.38,116.71c-10.82-5-14.84-17.23-10-27.82l18.67,8.91Z"/><path class="cls-2" d="M25.5,85.48c10.83,5,14.85,17.23,10,27.82l-18.67-8.92Z"/><path class="cls-2" d="M36.62,62.61c10.6,5.44,22.72,1,28-9.33L46.11,44.1Z"/><path class="cls-2" d="M136.36,139.37c-10.6-5.43-22.72-1-28,9.34l18.54,9.18Z"/><ellipse class="cls-2" cx="86.53" cy="100.69" rx="19.3" ry="19.73" transform="translate(-41.86 134.49) rotate(-64.07)"/><ellipse cx="54.43" cy="85.09" rx="2.59" ry="2.61" transform="translate(-45.89 96.84) rotate(-64.07)"/><ellipse cx="118.62" cy="116.29" rx="2.59" ry="2.61" transform="translate(-37.83 172.13) rotate(-64.07)"/><rect class="cls-3" x="72.81" y="100.12" width="2.32" height="52.81" rx="1.16" transform="translate(-72.16 137.73) rotate(-64.07)"/><rect class="cls-6" x="146.77" y="72.63" width="260.36" height="46.21" rx="12"/><rect class="cls-7" x="156" y="79.5" width="9" height="34" rx="4.5"/></svg>