<svg id="Layer_1" data-name="Layer 1" xmlns="http://www.w3.org/2000/svg" viewBox="0 0 200 170"><defs><style>.cls-1{fill:#e6e6e6;}.cls-2{fill:#ffd950;}.cls-2,.cls-5,.cls-6{stroke:#ff931e;}.cls-2,.cls-3,.cls-5{stroke-miterlimit:10;}.cls-2,.cls-5{stroke-width:2px;}.cls-3,.cls-5{fill:none;}.cls-3{stroke:#fff;stroke-width:3px;}.cls-4,.cls-6{fill:#ff931e;}.cls-6{stroke-linecap:round;stroke-linejoin:round;stroke-width:17px;}.cls-7{fill:#fbb03b;}</style></defs><title>play</title><ellipse class="cls-1" cx="81.84" cy="139.29" rx="39.34" ry="5.59"/><circle class="cls-2" cx="103.29" cy="86.41" r="55.91"/><circle class="cls-2" cx="107.59" cy="84.41" r="55.91"/><circle class="cls-2" cx="107.4" cy="84.27" r="50.83"/><path class="cls-3" d="M91.72,130.31A50.82,50.82,0,0,1,62,64.86"/><path class="cls-4" d="M57.64,57.76a1.5,1.5,0,0,0,0-3,1.5,1.5,0,0,0,0,3Z"/><path class="cls-4" d="M58.46,57.93a1.5,1.5,0,0,0,0-3,1.5,1.5,0,0,0,0,3Z"/><path class="cls-4" d="M57,57.85a15.61,15.61,0,0,0,1.67-.11,1.54,1.54,0,0,0,1.5-1.5c0-.73-.67-1.6-1.5-1.5a15.61,15.61,0,0,1-1.67.11,1.5,1.5,0,0,0-1.5,1.5,1.52,1.52,0,0,0,1.5,1.5Z"/><path class="cls-4" d="M53.66,63.1h2.5a1.5,1.5,0,0,0,0-3h-2.5a1.51,1.51,0,0,0-1.5,1.5,1.53,1.53,0,0,0,1.5,1.5Z"/><path class="cls-4" d="M51,69.22l2.59-.11a1.5,1.5,0,0,0,0-3L51,66.22a1.5,1.5,0,0,0,0,3Z"/><path class="cls-4" d="M49.49,74.37h2.75a1.5,1.5,0,0,0,0-3H49.49a1.5,1.5,0,0,0,0,3Z"/><path class="cls-4" d="M48.57,79.49l2.91-.34a1.54,1.54,0,0,0,1.5-1.5,1.51,1.51,0,0,0-1.5-1.5l-2.91.34a1.54,1.54,0,0,0-1.5,1.5,1.51,1.51,0,0,0,1.5,1.5Z"/><path class="cls-4" d="M48.28,85.1H51a1.5,1.5,0,1,0,0-3H48.28a1.5,1.5,0,0,0,0,3Z"/><path class="cls-4" d="M48.26,90.28a17.89,17.89,0,0,0,3.09-.39,1.5,1.5,0,0,0-.8-2.89,13.52,13.52,0,0,1-2.29.28,1.5,1.5,0,1,0,0,3Z"/><path class="cls-4" d="M48.87,94.93l3.41-.85c1.87-.47,1.07-3.37-.8-2.9L48.07,92c-1.87.47-1.08,3.37.8,2.89Z"/><path class="cls-4" d="M49.4,99.57a10,10,0,0,0,1.64,0c.53-.06,1.08-.31,1.61-.34a1.5,1.5,0,1,0,0-3c-.63,0-1.17.28-1.78.35a6.57,6.57,0,0,1-1.47,0,1.5,1.5,0,0,0,0,3Z"/><path class="cls-4" d="M50.53,104.42a13.13,13.13,0,0,0,4.17-1.1,1.5,1.5,0,1,0-1.51-2.59,8.78,8.78,0,0,1-2.66.69,1.53,1.53,0,0,0-1.5,1.5,1.51,1.51,0,0,0,1.5,1.5Z"/><path class="cls-4" d="M52.45,109.13a11.06,11.06,0,0,0,3.77-.72,1.5,1.5,0,1,0-.8-2.89,8.7,8.7,0,0,1-3,.61c-1.93.05-1.94,3.05,0,3Z"/><path class="cls-4" d="M53.63,113.24a3.88,3.88,0,0,0,2.28-.25,5.5,5.5,0,0,1,1.51-.63,1.54,1.54,0,0,0,1.5-1.5,1.51,1.51,0,0,0-1.5-1.5,5.06,5.06,0,0,0-1.93.53c-.24.11-.76.51-1.06.46a1.53,1.53,0,0,0-1.84,1.05,1.5,1.5,0,0,0,1,1.84Z"/><path class="cls-4" d="M56.88,118.17c1.31-.1,2.51-1.1,3.61-1.75A1.5,1.5,0,0,0,59,113.83l-1.3.77-.56.34-.37.22c-.24.12-.19.12.14,0a1.54,1.54,0,0,0-1.5,1.5,1.51,1.51,0,0,0,1.5,1.5Z"/><path class="cls-4" d="M59.6,122.15c1.48-.13,2.62-1.23,3.78-2.05a1.55,1.55,0,0,0,.54-2.06,1.51,1.51,0,0,0-2.06-.53l-1.35,1c-.19.14-.38.28-.58.41a4,4,0,0,1-.34.23c-.23.12-.23.13,0,0a1.54,1.54,0,0,0-1.5,1.5,1.51,1.51,0,0,0,1.5,1.5Z"/><path class="cls-4" d="M63.51,125.77a14.14,14.14,0,0,0,3.26-1.67,1.53,1.53,0,0,0,.54-2,1.51,1.51,0,0,0-2-.54,11.41,11.41,0,0,1-2.55,1.37,1.55,1.55,0,0,0-1,1.85,1.51,1.51,0,0,0,1.84,1Z"/><path class="cls-4" d="M66.33,128.72a4.4,4.4,0,0,0,1.87-1,10.64,10.64,0,0,1,1.49-1,1.5,1.5,0,0,0-1.51-2.59,11.74,11.74,0,0,0-1.59,1,3,3,0,0,1-1.06.66,1.5,1.5,0,0,0-1,1.84,1.52,1.52,0,0,0,1.84,1Z"/><path class="cls-4" d="M72.09,128.44a22,22,0,0,1-1.85,2,1.51,1.51,0,0,0,0,2.12,1.53,1.53,0,0,0,2.12,0,22,22,0,0,0,1.85-2,1.53,1.53,0,0,0,0-2.12,1.51,1.51,0,0,0-2.12,0Z"/><path class="cls-4" d="M75.93,131.41c-.42.71-.82,1.42-1.21,2.14a1.53,1.53,0,0,0,.54,2,1.51,1.51,0,0,0,2-.54c.39-.72.79-1.43,1.21-2.13a1.5,1.5,0,0,0-2.59-1.52Z"/><path class="cls-4" d="M80.23,134.6c-.22.57-.46,1.11-.74,1.69a1.54,1.54,0,0,0,.54,2.05,1.51,1.51,0,0,0,2-.53c.38-.79.72-1.6,1-2.41a1.52,1.52,0,0,0-1-1.85,1.56,1.56,0,0,0-1.85,1Z"/><path class="cls-4" d="M85.08,136.44c-.18.52-.41,1.1-.6,1.56a1.53,1.53,0,0,0,.54,2.05,1.5,1.5,0,0,0,2-.53c.32-.76.63-1.51.91-2.28a1.51,1.51,0,0,0-1-1.84,1.53,1.53,0,0,0-1.85,1Z"/><path class="cls-4" d="M89.74,138.54c0-.12,0-.09,0,.1a1.67,1.67,0,0,1-.08.32,3,3,0,0,1-.1.32c0-.1,0-.07-.06.1a1.53,1.53,0,0,0,.54,2.05,1.51,1.51,0,0,0,2-.54,6.23,6.23,0,0,0,.67-2.35,1.51,1.51,0,0,0-1.5-1.5,1.54,1.54,0,0,0-1.5,1.5Z"/><path class="cls-4" d="M94.76,140c0-.18,0,.16-.05.2s-.07.28-.11.42a1.52,1.52,0,0,0,1.05,1.85,1.54,1.54,0,0,0,1.85-1,9.84,9.84,0,0,0,.26-1.42,1.5,1.5,0,0,0-1.5-1.5,1.54,1.54,0,0,0-1.5,1.5Z"/><path class="cls-4" d="M96,142.87a1.5,1.5,0,0,0,0-3,1.5,1.5,0,0,0,0,3Z"/><path class="cls-4" d="M102.8,142.73a1.5,1.5,0,0,0,0-3,1.5,1.5,0,0,0,0,3Z"/><path class="cls-4" d="M102.89,142.25a1.5,1.5,0,0,0,0-3,1.5,1.5,0,0,0,0,3Z"/><path class="cls-4" d="M102.82,143.55a1.5,1.5,0,0,0,0-3,1.5,1.5,0,0,0,0,3Z"/><circle class="cls-5" cx="107.21" cy="84.36" r="29.33"/><polygon class="cls-6" points="124.43 87.35 98.59 101.34 98.59 71.56 124.43 87.35"/><rect class="cls-7" x="96.5" y="89.02" width="4.19" height="13.5" rx="2.09"/></svg>
