<svg id="Layer_1" data-name="Layer 1" xmlns="http://www.w3.org/2000/svg" viewBox="0 0 1920 1080"><defs><style>.cls-1{fill:#009245;}.cls-2{fill:#b3b3b3;}.cls-3{fill:#e6e6e6;}.cls-4{fill:#ccc;}</style></defs><title>settings_baggrund_v2</title><rect class="cls-1" y="2" width="1920" height="1080"/><rect class="cls-2" x="208.02" y="128.02" width="1452" height="881" rx="329.04"/><rect class="cls-3" x="234.01" y="108" width="1452" height="881" rx="329.04"/><path class="cls-3" d="M1765.46,1080.81a155.5,155.5,0,0,1,155.37-155.63l-.87,155.5Z"/><path class="cls-3" d="M156.46,1082.19A155.5,155.5,0,0,0,.83,926.82L2,1082.32Z"/><path class="cls-3" d="M155.54,3.19A155.5,155.5,0,0,1,.17,158.82L1,3.32Z"/><path class="cls-3" d="M1764.54,1.81a155.5,155.5,0,0,0,155.63,155.37L1919,1.68Z"/><path class="cls-4" d="M437.82,867.9,596.37,968.31l-80,.07c-35.85-3.25-83.41-35.11-115.21-52l-.84.06a283.88,283.88,0,0,1-84.2-68.59h0A268.36,268.36,0,0,1,261.44,739.6h0A467.66,467.66,0,0,1,248.07,629L248,540.29q0-15.18,1.05-30.32l8.82-124.87,36.18,215q2,11.93,5.12,23.62h0C326.18,751,347.63,799.92,404.26,846Z"/><path d="M625.26,417.52c1.37.61,2.77,1.32,4.2,2.11a17.84,17.84,0,0,1,3.89,2.9,14,14,0,0,1,4.2,9.83,17.24,17.24,0,0,1-1.51,8.28,17,17,0,0,1-4.84,6.08,22.93,22.93,0,0,1-7.49,3.83,35.94,35.94,0,0,1-9.37,1.56,32.16,32.16,0,0,1-4.76-.22,41.13,41.13,0,0,1-4.81-.89,46.07,46.07,0,0,1-4.63-1.42c-1.49-.54-2.9-1.13-4.22-1.74l5-14.13c.66.26,1.46.6,2.38,1a29.19,29.19,0,0,0,3,1.15,33.23,33.23,0,0,0,3.3.92,12.24,12.24,0,0,0,3.37.33,11.94,11.94,0,0,0,4.12-.86,2.4,2.4,0,0,0,1.62-2.44,2,2,0,0,0-1.16-1.72,23.63,23.63,0,0,0-2.61-1.18l-2.61-.73a27.83,27.83,0,0,1-3.46-1.25,31.37,31.37,0,0,1-3.73-1.91,17.21,17.21,0,0,1-3.44-2.7,14.26,14.26,0,0,1-2.57-3.66,11.33,11.33,0,0,1-1.1-4.79,17.7,17.7,0,0,1,1.58-8.22,18.49,18.49,0,0,1,4.68-6.14,21.19,21.19,0,0,1,6.93-3.9,30.42,30.42,0,0,1,8.44-1.56,41.29,41.29,0,0,1,8.25.43,33.18,33.18,0,0,1,7.66,2.07l-3.88,15.25c-1.76-.75-3.37-1.37-4.82-1.88a26.39,26.39,0,0,0-5.08-1.15,15.65,15.65,0,0,0-2.31-.13,12.64,12.64,0,0,0-2.74.3,6.86,6.86,0,0,0-2.34,1,2.29,2.29,0,0,0-1.06,1.85.92.92,0,0,0,.5.82,4.16,4.16,0,0,0,1.19.46c.46.11.93.2,1.42.27l1.19.16c1.27.26,2.64.57,4.09.92A19.64,19.64,0,0,1,625.26,417.52Z"/><path d="M677.54,427.9a20.23,20.23,0,0,1-.42,8.48,19.17,19.17,0,0,1-3.49,6.94,19.53,19.53,0,0,1-6,4.95,23.23,23.23,0,0,1-8,2.55,24.54,24.54,0,0,1-8.45-.26A19.55,19.55,0,0,1,644,447.5a18.55,18.55,0,0,1-5.29-5.67,20.27,20.27,0,0,1-2.71-8,20.58,20.58,0,0,1,.42-8.48,19,19,0,0,1,9.49-11.95,23.23,23.23,0,0,1,8-2.55,24.35,24.35,0,0,1,8.42.26,19.55,19.55,0,0,1,7.16,3.06,18.53,18.53,0,0,1,5.28,5.7A21.3,21.3,0,0,1,677.54,427.9Zm-27.71,5.64a5.76,5.76,0,0,0,3.56,3.36,7.82,7.82,0,0,0,5.55-.53,8.12,8.12,0,0,0,4.19-3.6,5.62,5.62,0,0,0,.09-4.86,5.86,5.86,0,0,0-3.57-3.33,7.52,7.52,0,0,0-5.47.5,8,8,0,0,0-4.26,3.64A5.5,5.5,0,0,0,649.83,433.54Z"/><path d="M701.05,444.78h-.13a9.05,9.05,0,0,1-4.12,5.15,13.62,13.62,0,0,1-6.57,1.52,11.09,11.09,0,0,1-8-2.93c-2-1.95-3.07-4.8-3.07-8.54l0-27.72,14.72-1.2-.37,24.42a2.78,2.78,0,0,0,.69,2.28,3.41,3.41,0,0,0,2.34.69,3.29,3.29,0,0,0,2.15-.67,2.57,2.57,0,0,0,.76-2.24l-.42-23.3,15.18-1.2-1,39.27-12.14.54Z"/><path d="M731.72,416.64H732a12.12,12.12,0,0,1,4.45-4,11.63,11.63,0,0,1,5-1.06,11.25,11.25,0,0,1,4.88,1,10,10,0,0,1,3.57,2.77,12.56,12.56,0,0,1,2.21,4.16,17,17,0,0,1,.77,5.14l0,25.55-14.26,1.2.18-24a2.3,2.3,0,0,0-.89-2,3.46,3.46,0,0,0-2.28-.79,3.77,3.77,0,0,0-2.28.76,2.46,2.46,0,0,0-1,2.08l.29,23.83-14.06-1L718,412.69l13.72-1.14Z"/><path d="M794.91,450l-12.94.87v-3.76h-.13a9,9,0,0,1-4.32,3.07,16.84,16.84,0,0,1-5.51,1,16.25,16.25,0,0,1-6.5-1.35,17,17,0,0,1-5.59-3.89,18.69,18.69,0,0,1-3.89-6.24,22.69,22.69,0,0,1-1.46-8.38,25.25,25.25,0,0,1,1.21-7.95,19.92,19.92,0,0,1,3.53-6.54,16.38,16.38,0,0,1,5.7-4.42,18,18,0,0,1,7.76-1.63,16.08,16.08,0,0,1,4.22.56,8.91,8.91,0,0,1,3.56,1.88l-.6-15.71,15.18-1.2ZM776.62,437a7.07,7.07,0,0,0,4-3.4,5.63,5.63,0,0,0,.62-2.28,6.05,6.05,0,0,0-.33-2.31,5.65,5.65,0,0,0-1.22-1.91,6.2,6.2,0,0,0-1.95-1.35,6.88,6.88,0,0,0-2.48-.56,7.22,7.22,0,0,0-2.8.46,7.08,7.08,0,0,0-2.51,1.46,7.29,7.29,0,0,0-1.55,2,5.68,5.68,0,0,0-.62,2.31,5.36,5.36,0,0,0,.33,2.28,5.08,5.08,0,0,0,1.22,1.95,6.45,6.45,0,0,0,4.43,1.84A8,8,0,0,0,776.62,437Z"/><path d="M856.42,445.57a28.26,28.26,0,0,1-8.25,4.2,33.27,33.27,0,0,1-9.7,1.29,21.3,21.3,0,0,1-8.22-1.54,20.2,20.2,0,0,1-6.44-4.19,18.95,18.95,0,0,1-5.75-13.65,23.27,23.27,0,0,1,1.57-8.85,19.74,19.74,0,0,1,4.29-6.6,18.24,18.24,0,0,1,6.3-4.13,20.65,20.65,0,0,1,7.69-1.43A19.64,19.64,0,0,1,849.36,414a20.22,20.22,0,0,1,7.23,9l-19.72,14.86a5.23,5.23,0,0,0,1.92.53,19.3,19.3,0,0,0,2.17.13,11,11,0,0,0,5.12-1.09,19.32,19.32,0,0,0,3.79-2.61Zm-14.15-21.64a4.75,4.75,0,0,0-2-1.51,7.09,7.09,0,0,0-2.48-.4,5.06,5.06,0,0,0-2.4.57,5.9,5.9,0,0,0-1.89,1.52,7.29,7.29,0,0,0-1.64,4.58,5.58,5.58,0,0,0,.17,1.69,6.2,6.2,0,0,0,.43,1Z"/><path d="M861.88,423.78h-4.56l2.1-11.36h2.45a21.21,21.21,0,0,1,.91-6.47,12.15,12.15,0,0,1,7.59-8.06,19.34,19.34,0,0,1,6.92-1.12,11.26,11.26,0,0,1,2,.16c.59.11,1.22.21,1.88.3l1.72,10.95h-2.24a4.58,4.58,0,0,0-3.33,1.13,4.12,4.12,0,0,0-1.15,3.1h5.67v11.35H876.2l.42,26.14-14.79,1.2Z"/><path d="M889.33,423.76h-4.55l2.1-11.35h2.44a21.16,21.16,0,0,1,.92-6.47,12.16,12.16,0,0,1,7.58-8.06,19.42,19.42,0,0,1,6.93-1.13,11,11,0,0,1,2,.17c.6.11,1.22.2,1.88.29l1.73,11h-2.25a4.58,4.58,0,0,0-3.33,1.12,4.14,4.14,0,0,0-1.15,3.11h5.68v11.35h-5.68l.42,26.13-14.78,1.2Z"/><path d="M949.08,445.49a28.13,28.13,0,0,1-8.25,4.2,33.22,33.22,0,0,1-9.7,1.29,21.12,21.12,0,0,1-8.22-1.54,20.2,20.2,0,0,1-6.44-4.19,19.13,19.13,0,0,1-4.23-6.16,18.82,18.82,0,0,1-1.52-7.49,23.47,23.47,0,0,1,1.57-8.85,19.74,19.74,0,0,1,4.29-6.6,18.24,18.24,0,0,1,6.3-4.13,20.69,20.69,0,0,1,7.69-1.43A19.6,19.6,0,0,1,942,414a20.31,20.31,0,0,1,7.24,9l-19.73,14.86a5.23,5.23,0,0,0,1.92.53,19.34,19.34,0,0,0,2.18.13,11,11,0,0,0,5.11-1.09,19,19,0,0,0,3.79-2.61Zm-14.15-21.64a4.69,4.69,0,0,0-2-1.51,7.07,7.07,0,0,0-2.47-.4,5.07,5.07,0,0,0-2.41.57,5.76,5.76,0,0,0-1.88,1.52,7.22,7.22,0,0,0-1.65,4.58,5.93,5.93,0,0,0,.17,1.69,7.2,7.2,0,0,0,.43,1Z"/><path d="M981.45,448.07a23.21,23.21,0,0,1-7.88,2.38,36.53,36.53,0,0,1-4,.24,22,22,0,0,1-8.29-1.52,20.29,20.29,0,0,1-6.6-4.18,19.14,19.14,0,0,1-6-14,21.88,21.88,0,0,1,1.65-8.68,18.44,18.44,0,0,1,4.58-6.54,20.14,20.14,0,0,1,7-4.1,26.13,26.13,0,0,1,8.71-1.42,20.06,20.06,0,0,1,8.15,1.51,38.5,38.5,0,0,1,5.84,3.09l-8.7,11.43a8.34,8.34,0,0,0-2.14-1.19,13,13,0,0,0-2.48-.65,11.06,11.06,0,0,0-2.41-.13,4.44,4.44,0,0,0-1.88.46,8.72,8.72,0,0,0-2.14,1.55,6.93,6.93,0,0,0-1.39,1.95,5,5,0,0,0-.46,2.28,5.58,5.58,0,0,0,.7,2.47,5.64,5.64,0,0,0,3.76,3.23,7.41,7.41,0,0,0,5.15-.73l3.36-1.72,9,11.88A16.85,16.85,0,0,1,981.45,448.07Z"/><path d="M1003.76,451c-.64,0-1.33,0-2.08,0q-6.33,0-9.87-2.86t-3.53-9.34l0-15.64-3.63.07L985,411.8h3.1v-4.36l14.31-6.48v10.82l5.35-.79-.72,12.14h-4.49v11.55a4.22,4.22,0,0,0,.57,2.63c.37.45,1.22.66,2.54.66a12.67,12.67,0,0,0,1.38-.06,6.66,6.66,0,0,0,1-.2l-2.29,13.07C1005.07,450.88,1004.4,450.93,1003.76,451Z"/><path d="M1013.06,438.11a22,22,0,0,0,3.92.33l1.95,0a11.15,11.15,0,0,0,1.85-.2,3.61,3.61,0,0,0,1.38-.56,1.35,1.35,0,0,0,.56-1.19,1.58,1.58,0,0,0-1-1.48,18.51,18.51,0,0,0-2.51-1c-1-.31-2.08-.67-3.27-1.09a10.71,10.71,0,0,1-3.27-1.84,9.87,9.87,0,0,1-2.51-3.27,12,12,0,0,1-1-5.34,11.35,11.35,0,0,1,.85-4.29,10.28,10.28,0,0,1,2.77-3.83,14.31,14.31,0,0,1,5-2.78,22.46,22.46,0,0,1,7.32-1.06c1.1,0,2.2,0,3.3.13s2.15.21,3.14.36,1.9.31,2.74.46,1.54.29,2.11.43V423.5c-1.1-.26-2.18-.48-3.24-.65a20.39,20.39,0,0,0-3.43-.27l-1.25,0a11.2,11.2,0,0,0-1.72.2,4.6,4.6,0,0,0-1.51.56,1.18,1.18,0,0,0-.66,1.06,1.69,1.69,0,0,0,1,1.58,17.14,17.14,0,0,0,2.61,1c1,.3,2.17.68,3.4,1.12A12,12,0,0,1,1035,430a9.78,9.78,0,0,1,2.61,3.27,11.55,11.55,0,0,1,1.06,5.34,10.72,10.72,0,0,1-1.54,5.95,11.54,11.54,0,0,1-4.09,3.79,18.74,18.74,0,0,1-5.84,2,38.35,38.35,0,0,1-6.87.6,44.4,44.4,0,0,1-5.44-.32,39.89,39.89,0,0,1-5.38-1V437.25A34.86,34.86,0,0,0,1013.06,438.11Z"/><path d="M870.28,595.3l16.18,20.38L902,599.57,918.23,644l-15.89,13-7.21-21.44-9,15.72L875.33,634.7l-6.39,19.54-15.39-10Z"/><path d="M938.56,646.53h-.13a9.05,9.05,0,0,1-4.12,5.15,13.62,13.62,0,0,1-6.57,1.52,11.09,11.09,0,0,1-8-2.93c-2-1.95-3.07-4.8-3.07-8.54l0-27.72,14.72-1.2L931,637.23a2.77,2.77,0,0,0,.7,2.27,4,4,0,0,0,4.49,0,2.58,2.58,0,0,0,.76-2.24l-.42-23.3,15.18-1.2-1,39.27-12.14.54Z"/><path d="M958.19,640.11a22,22,0,0,0,3.93.33c.61,0,1.26,0,2,0a11,11,0,0,0,1.84-.2,3.65,3.65,0,0,0,1.39-.56,1.36,1.36,0,0,0,.56-1.19,1.58,1.58,0,0,0-1-1.48,19,19,0,0,0-2.51-1c-1-.3-2.08-.67-3.27-1.08a10.83,10.83,0,0,1-3.27-1.85,9.8,9.8,0,0,1-2.51-3.26,12,12,0,0,1-1-5.35,11.36,11.36,0,0,1,.86-4.29,10.36,10.36,0,0,1,2.77-3.83,14.51,14.51,0,0,1,4.94-2.78,22.56,22.56,0,0,1,7.33-1.06c1.1,0,2.2,0,3.3.13s2.14.21,3.13.36,1.91.31,2.74.46,1.54.3,2.11.43l0,11.61c-1.11-.26-2.18-.48-3.24-.65a20.48,20.48,0,0,0-3.43-.27l-1.26,0a11.07,11.07,0,0,0-1.71.2,4.74,4.74,0,0,0-1.52.56,1.19,1.19,0,0,0-.66,1.06,1.68,1.68,0,0,0,1.06,1.58,16.36,16.36,0,0,0,2.61,1c1,.31,2.16.68,3.4,1.12a12.15,12.15,0,0,1,3.4,1.87,10,10,0,0,1,2.61,3.27,11.72,11.72,0,0,1,1.06,5.35,10.71,10.71,0,0,1-1.55,5.94,11.38,11.38,0,0,1-4.09,3.79,18.65,18.65,0,0,1-5.84,2,38.23,38.23,0,0,1-6.86.6,44.56,44.56,0,0,1-5.45-.32,39.75,39.75,0,0,1-5.37-1l0-12.35A32.46,32.46,0,0,0,958.19,640.11Z"/><path d="M985.65,598.17l15.11-.67-.78,11.62-14.39,1.07Zm.08,16.7,14.71-1.2-.69,38.08-14,1.21Z"/><path d="M1035.49,650a23.58,23.58,0,0,1-3.86,1.55,23.26,23.26,0,0,1-4,.83,36.16,36.16,0,0,1-4,.23,21.93,21.93,0,0,1-8.28-1.51,20.5,20.5,0,0,1-6.61-4.18,19.35,19.35,0,0,1-4.39-6.27,19,19,0,0,1-1.59-7.75,21.88,21.88,0,0,1,1.64-8.68,18.61,18.61,0,0,1,4.58-6.54,20.17,20.17,0,0,1,7-4.1,26.17,26.17,0,0,1,8.71-1.43,20.2,20.2,0,0,1,8.15,1.51,39.54,39.54,0,0,1,5.85,3.1l-8.7,11.43a8.11,8.11,0,0,0-2.15-1.19,12.8,12.8,0,0,0-2.48-.66,11.59,11.59,0,0,0-2.4-.13,4.52,4.52,0,0,0-1.89.47,9.12,9.12,0,0,0-2.14,1.55,6.81,6.81,0,0,0-1.38,1.95,4.86,4.86,0,0,0-.46,2.28,5.56,5.56,0,0,0,.69,2.47,5.65,5.65,0,0,0,3.77,3.23,7.45,7.45,0,0,0,5.14-.73l3.37-1.72,9,11.87A17.17,17.17,0,0,1,1035.49,650Z"/><path d="M629.89,806.81l25.23,20.9.58-21.84,19.67,1.3-3,50.36-25.29-12.59.93,15.58-18.94,1.2Z"/><path d="M718,837.82a20.23,20.23,0,0,1-.42,8.48,19.17,19.17,0,0,1-3.49,6.94,19.42,19.42,0,0,1-6,5,23.23,23.23,0,0,1-8,2.55,24.54,24.54,0,0,1-8.45-.26,19.55,19.55,0,0,1-7.19-3.06,18.55,18.55,0,0,1-5.29-5.67,20.27,20.27,0,0,1-2.71-8,20.58,20.58,0,0,1,.42-8.48,19,19,0,0,1,9.49-12,23.23,23.23,0,0,1,8-2.55,24.61,24.61,0,0,1,8.42.25,19.57,19.57,0,0,1,7.16,3.07,18.56,18.56,0,0,1,5.29,5.7A21.47,21.47,0,0,1,718,837.82Zm-27.71,5.64a5.75,5.75,0,0,0,3.57,3.36,7.85,7.85,0,0,0,5.54-.53,8.09,8.09,0,0,0,4.19-3.61,5.56,5.56,0,0,0,.09-4.85,5.87,5.87,0,0,0-3.56-3.33,7.55,7.55,0,0,0-5.48.5,8,8,0,0,0-4.26,3.64A5.5,5.5,0,0,0,690.25,843.46Z"/><path d="M737.29,861.14c-.64,0-1.33,0-2.08,0q-6.33,0-9.87-2.86T721.8,849V833.33l-3.63.07.38-11.42h3.11v-4.36L736,811.14V822l5.34-.8-.71,12.14h-4.49v11.55a4.36,4.36,0,0,0,.56,2.64,3.42,3.42,0,0,0,2.54.66,12.49,12.49,0,0,0,1.39-.07,7.22,7.22,0,0,0,1-.2L739.3,861C738.6,861.06,737.93,861.11,737.29,861.14Z"/><path d="M744.6,806.38l15.11-.67-.78,11.62-14.39,1.06Zm.08,16.7,14.72-1.2L758.7,860l-14,1.2Z"/><path d="M767.53,833.82H763l2.1-11.35h2.45a21.17,21.17,0,0,1,.91-6.47,12.15,12.15,0,0,1,7.59-8.06,19.13,19.13,0,0,1,6.93-1.13,12.13,12.13,0,0,1,2,.16c.59.11,1.22.21,1.88.3l1.73,11h-2.25a4.58,4.58,0,0,0-3.33,1.12,4.13,4.13,0,0,0-1.15,3.11h5.67V833.8h-5.67l.42,26.13-14.79,1.2Z"/><path d="M792.18,806.34l15.12-.67-.78,11.62-14.39,1.06Zm.08,16.7,14.72-1.2-.69,38.08-14,1.2Z"/><path d="M842,858.14a23.63,23.63,0,0,1-3.86,1.56,23.23,23.23,0,0,1-4,.82,33.9,33.9,0,0,1-4,.24,22.13,22.13,0,0,1-8.28-1.51,20.42,20.42,0,0,1-6.61-4.19,19.42,19.42,0,0,1-4.39-6.26,19,19,0,0,1-1.59-7.76,21.74,21.74,0,0,1,1.64-8.68,18.66,18.66,0,0,1,4.58-6.54,20.15,20.15,0,0,1,7-4.09,25.92,25.92,0,0,1,8.71-1.43,20.2,20.2,0,0,1,8.15,1.51,37.74,37.74,0,0,1,5.85,3.1l-8.7,11.42a8.38,8.38,0,0,0-2.15-1.18,12.12,12.12,0,0,0-2.48-.66,11.69,11.69,0,0,0-2.41-.13,4.48,4.48,0,0,0-1.88.46,8.68,8.68,0,0,0-2.14,1.56,6.9,6.9,0,0,0-1.38,1.94,4.91,4.91,0,0,0-.46,2.28,5.6,5.6,0,0,0,.69,2.48,5.68,5.68,0,0,0,3.77,3.23,7.5,7.5,0,0,0,5.14-.73l3.37-1.72,9,11.87A16.79,16.79,0,0,1,842,858.14Z"/><path d="M867.66,855.91h-.13a9.33,9.33,0,0,1-4.52,3.5,17.44,17.44,0,0,1-5.9,1,13.31,13.31,0,0,1-5-1,12.23,12.23,0,0,1-4.16-2.73,13.22,13.22,0,0,1-2.84-4.29,14.2,14.2,0,0,1-1.06-5.61,11.76,11.76,0,0,1,1.05-5,12.43,12.43,0,0,1,2.87-4,13.19,13.19,0,0,1,4.29-2.65,14.68,14.68,0,0,1,5.37-1,12.9,12.9,0,0,1,5.12.89,15.88,15.88,0,0,1,3.53,2v-2q0-3-2-4a11.42,11.42,0,0,0-5.15-1,23.73,23.73,0,0,0-5.41.59c-1.68.4-3.37.86-5.08,1.4l2.56-10.5a37.07,37.07,0,0,1,6.6-1.29,64.38,64.38,0,0,1,7-.37,26.89,26.89,0,0,1,6.34.75,15.18,15.18,0,0,1,5.45,2.47,12.36,12.36,0,0,1,3.73,4.42,13.92,13.92,0,0,1,1.33,6.66l-.71,25-13.26,1.14Zm-8.39-12.2a7.25,7.25,0,0,0-3.69,1.55,3,3,0,0,0-1.25,2.74,3,3,0,0,0,1.88,2.28,7.34,7.34,0,0,0,4.19.36,6.75,6.75,0,0,0,3.83-1.66,3,3,0,0,0,1-2.71,3.12,3.12,0,0,0-1.68-2.14A6.31,6.31,0,0,0,859.27,843.71Z"/><path d="M904.13,861c-.63,0-1.33,0-2.08,0q-6.33,0-9.86-2.86t-3.54-9.34l0-15.64-3.63.07.39-11.42h3.1v-4.35L902.8,811v10.82l5.35-.79-.72,12.14H903v11.55a4.35,4.35,0,0,0,.57,2.64c.37.44,1.22.66,2.54.66a10.55,10.55,0,0,0,1.39-.07,6,6,0,0,0,1-.2l-2.3,13.08C905.44,860.91,904.77,861,904.13,861Z"/><path d="M911.45,806.24l15.11-.67-.78,11.61-14.39,1.07Zm.08,16.7,14.71-1.2-.69,38.08-14,1.2Z"/><path d="M970.15,837.6a20.45,20.45,0,0,1-.43,8.49,18.89,18.89,0,0,1-3.49,6.93,19.42,19.42,0,0,1-6,5,23.23,23.23,0,0,1-8,2.55,24.55,24.55,0,0,1-8.45-.26,19.22,19.22,0,0,1-7.19-3.06,18.68,18.68,0,0,1-5.29-5.67,20.27,20.27,0,0,1-2.71-8A20.58,20.58,0,0,1,929,835a19.58,19.58,0,0,1,3.49-7,19.27,19.27,0,0,1,6-5,23.1,23.1,0,0,1,8-2.55,24.35,24.35,0,0,1,8.42.26,19.55,19.55,0,0,1,7.16,3.06,18.36,18.36,0,0,1,5.29,5.71A21.43,21.43,0,0,1,970.15,837.6Zm-27.72,5.64A5.72,5.72,0,0,0,946,846.6a7.8,7.8,0,0,0,5.54-.53,8,8,0,0,0,4.19-3.6,5.56,5.56,0,0,0,.09-4.85,5.87,5.87,0,0,0-3.56-3.33,7.5,7.5,0,0,0-5.48.5,7.91,7.91,0,0,0-4.25,3.63A5.5,5.5,0,0,0,942.43,843.24Z"/><path d="M985.31,826.37h.27a12.22,12.22,0,0,1,4.45-4,11.77,11.77,0,0,1,5-1.06,11.42,11.42,0,0,1,4.89,1,10,10,0,0,1,3.56,2.77,12.53,12.53,0,0,1,2.22,4.15,16.74,16.74,0,0,1,.76,5.15l0,25.54-14.25,1.2.18-24a2.31,2.31,0,0,0-.9-2,3.41,3.41,0,0,0-2.27-.79,3.7,3.7,0,0,0-2.28.76,2.46,2.46,0,0,0-1,2.08L986.2,861l-14.06-1-.56-37.56,13.73-1.13Z"/><path d="M1013.28,848.06a22,22,0,0,0,3.93.33c.62,0,1.27,0,1.95,0a11.15,11.15,0,0,0,1.85-.2,3.52,3.52,0,0,0,1.38-.56,1.36,1.36,0,0,0,.56-1.19,1.58,1.58,0,0,0-1-1.48,19,19,0,0,0-2.51-1q-1.49-.45-3.27-1.08a10.62,10.62,0,0,1-3.27-1.85,9.8,9.8,0,0,1-2.51-3.26,12.16,12.16,0,0,1-1-5.35,11.36,11.36,0,0,1,.86-4.29,10.36,10.36,0,0,1,2.77-3.83,14.34,14.34,0,0,1,4.94-2.77,22.55,22.55,0,0,1,7.33-1.07c1.1,0,2.2,0,3.3.13s2.14.21,3.13.36,1.91.31,2.74.46,1.54.3,2.12.43v11.62q-1.65-.4-3.24-.66a20.44,20.44,0,0,0-3.43-.26l-1.25,0a11.05,11.05,0,0,0-1.72.2,4.74,4.74,0,0,0-1.52.56,1.21,1.21,0,0,0-.66,1.06,1.7,1.7,0,0,0,1.06,1.58,15.45,15.45,0,0,0,2.61,1c1,.31,2.17.68,3.4,1.12a12.18,12.18,0,0,1,3.4,1.88,9.89,9.89,0,0,1,2.61,3.26,11.75,11.75,0,0,1,1.06,5.35,10.63,10.63,0,0,1-1.55,5.94,11.49,11.49,0,0,1-4.09,3.8,18.65,18.65,0,0,1-5.84,2,40.07,40.07,0,0,1-6.86.6,44.27,44.27,0,0,1-5.44-.33,39.59,39.59,0,0,1-5.38-1.05V847.21A34.63,34.63,0,0,0,1013.28,848.06Z"/><path d="M746.79,211.66q4.53,2.06,9.28,4.67a40.08,40.08,0,0,1,8.62,6.41A31,31,0,0,1,774,244.49a38.31,38.31,0,0,1-3.34,18.33,37.58,37.58,0,0,1-10.72,13.44,50.83,50.83,0,0,1-16.57,8.48,80.4,80.4,0,0,1-20.73,3.45,71,71,0,0,1-10.51-.5,87.32,87.32,0,0,1-10.66-2,97.64,97.64,0,0,1-10.22-3.13q-5-1.81-9.35-3.86L693,247.48c1.46.58,3.21,1.34,5.26,2.26a69.26,69.26,0,0,0,6.57,2.55c2.34.78,4.77,1.45,7.3,2a28.07,28.07,0,0,0,7.45.72,26.59,26.59,0,0,0,9.12-1.91,5.28,5.28,0,0,0,3.57-5.4,4.47,4.47,0,0,0-2.55-3.8,53.05,53.05,0,0,0-5.77-2.62c-1.46-.39-3.39-.92-5.77-1.6a64.12,64.12,0,0,1-7.67-2.77,68.52,68.52,0,0,1-8.25-4.22,37.73,37.73,0,0,1-7.6-6,31.27,31.27,0,0,1-5.7-8.1,25.11,25.11,0,0,1-2.42-10.58A39,39,0,0,1,690,189.89a40.83,40.83,0,0,1,10.35-13.59,46.44,46.44,0,0,1,15.33-8.63,66.65,66.65,0,0,1,18.68-3.45,92,92,0,0,1,18.25.94,74.92,74.92,0,0,1,16.94,4.58L761,203.48q-5.85-2.49-10.66-4.16A58.84,58.84,0,0,0,739,196.78a35.91,35.91,0,0,0-5.11-.29,28.12,28.12,0,0,0-6.06.66,15.21,15.21,0,0,0-5.18,2.12,5,5,0,0,0-2.33,4.09,2,2,0,0,0,1.1,1.83,9,9,0,0,0,2.63,1c1,.24,2.06.43,3.14.58l2.62.36c2.83.58,5.84,1.26,9.06,2A44.25,44.25,0,0,1,746.79,211.66Z"/><path d="M854.74,274.06a62.38,62.38,0,0,1-18.24,9.29A74,74,0,0,1,815,286.21a46.84,46.84,0,0,1-18.18-3.41,44.83,44.83,0,0,1-14.24-9.26,42,42,0,0,1-9.36-13.65,41.42,41.42,0,0,1-3.37-16.56,51.3,51.3,0,0,1,3.49-19.57,43.51,43.51,0,0,1,9.47-14.61A40.63,40.63,0,0,1,796.79,200a46.14,46.14,0,0,1,17-3.15q14.61,0,25.34,7.42a45,45,0,0,1,16,19.85L811.51,257a11.34,11.34,0,0,0,4.23,1.17,45.21,45.21,0,0,0,4.82.29,24.26,24.26,0,0,0,11.32-2.42,41.89,41.89,0,0,0,8.38-5.78ZM823.45,226.2a10.55,10.55,0,0,0-4.45-3.36,16.08,16.08,0,0,0-5.48-.87,11.44,11.44,0,0,0-5.33,1.25,13.2,13.2,0,0,0-4.15,3.36,16,16,0,0,0-3.64,10.15,13.33,13.33,0,0,0,.36,3.72,17.65,17.65,0,0,0,1,2.26Z"/><path d="M898.62,286.21c-1.41.05-2.94.08-4.6.08q-14,0-21.83-6.33t-7.83-20.66l0-34.6-8,.16.86-25.26H864V190l31.67-14.34,0,23.94,11.82-1.76-1.58,26.87H896l0,25.55q0,4.38,1.24,5.83c.83,1,2.7,1.46,5.62,1.46a25.11,25.11,0,0,0,3.07-.15,14.14,14.14,0,0,0,2.19-.44l-5.09,28.91C901.52,286,900,286.16,898.62,286.21Z"/><path d="M952.79,286.17c-1.42,0-2.95.07-4.6.07q-14,0-21.84-6.33t-7.83-20.65l0-34.6-8,.15.85-25.26h6.86v-9.63l31.67-14.34,0,24,11.83-1.77-1.58,26.87h-9.93l0,25.55c0,2.92.42,4.87,1.24,5.84s2.71,1.46,5.63,1.45a25,25,0,0,0,3.06-.15,13.06,13.06,0,0,0,2.19-.44l-5.08,28.92C955.68,286,954.2,286.11,952.79,286.17Z"/><path d="M969,165l33.43-1.48-1.73,25.69-31.83,2.37Zm.18,36.94,32.55-2.65-1.53,84.24-30.95,2.65Z"/><path d="M1042.29,209.66h.58q4.82-6.58,9.85-8.92a25.84,25.84,0,0,1,11-2.34,25.08,25.08,0,0,1,10.81,2.18,22.37,22.37,0,0,1,7.89,6.12,27.78,27.78,0,0,1,4.89,9.2,36.88,36.88,0,0,1,1.69,11.38l0,56.51-31.53,2.65.39-53.14a5.07,5.07,0,0,0-2-4.38,7.67,7.67,0,0,0-5-1.75,8.26,8.26,0,0,0-5,1.68,5.43,5.43,0,0,0-2.26,4.6l.63,52.71-31.1-2.16-1.24-83.08,30.37-2.5Z"/><path d="M1108.19,282.31a98.26,98.26,0,0,0,10.3,2.91,48.53,48.53,0,0,0,10.73,1.16,36.49,36.49,0,0,0,4.67-.3,13,13,0,0,0,4.24-1.24,8.06,8.06,0,0,0,3.06-2.63,7.59,7.59,0,0,0,1.16-4.46,7.33,7.33,0,0,0-1.39-4.59,9.64,9.64,0,0,0-3.79-2.92,18.74,18.74,0,0,0-5.48-1.46,53.93,53.93,0,0,0-6.28-.36,28.89,28.89,0,0,0-7.74,1.11,37.1,37.1,0,0,0-7.29,2.85l2.76-8.76a36.39,36.39,0,0,1-15-12.77q-5.34-8.08-5.35-19.63a36.89,36.89,0,0,1,2.25-12.34,34.21,34.21,0,0,1,7.07-11.61,36.94,36.94,0,0,1,12.26-8.62,43,43,0,0,1,17.81-3.38,51.82,51.82,0,0,1,9.2.72,55.91,55.91,0,0,1,7.45,1.9l2.47-15.34,23.36,10.06-7.58,14.9a30.26,30.26,0,0,1,7.09,10.43,33.07,33.07,0,0,1,2.42,12.63,31,31,0,0,1-3.71,15.69,33.76,33.76,0,0,1-11,11.33q14.31,8,14.33,24.22a28,28,0,0,1-3.35,13.8,28.82,28.82,0,0,1-9.55,10.16,47.29,47.29,0,0,1-14.89,6.22,82.34,82.34,0,0,1-19.34,2.13,87.09,87.09,0,0,1-21.32-2.17q-8.47-2.19-13.73-3.93Zm28.15-41.05a12.4,12.4,0,0,0,7.44-4.1,8.06,8.06,0,0,0,1.75-6.86,7.9,7.9,0,0,0-4.46-5.54,12.7,12.7,0,0,0-8.4-.73,13.11,13.11,0,0,0-7.44,4.24,7.82,7.82,0,0,0-1.75,6.72,7.68,7.68,0,0,0,4.32,5.62A12.18,12.18,0,0,0,1136.34,241.26Z"/><path d="M1190.59,257.56a48.32,48.32,0,0,0,8.69.73c1.36,0,2.79,0,4.3-.08a25.63,25.63,0,0,0,4.09-.44,7.84,7.84,0,0,0,3.07-1.25,3,3,0,0,0,1.24-2.62,3.53,3.53,0,0,0-2.27-3.29,40.56,40.56,0,0,0-5.55-2.11q-3.29-1-7.23-2.4a23.56,23.56,0,0,1-7.23-4.08,21.79,21.79,0,0,1-5.55-7.23c-1.52-3-2.27-6.95-2.28-11.82a25.13,25.13,0,0,1,1.89-9.49,22.92,22.92,0,0,1,6.13-8.47,32,32,0,0,1,10.94-6.15,49.77,49.77,0,0,1,16.21-2.35q3.64,0,7.3.29t6.93.8q3.29.51,6.06,1c1.85.34,3.41.66,4.67.95l0,25.69c-2.44-.58-4.82-1.06-7.16-1.45a46.16,46.16,0,0,0-7.59-.58c-.58,0-1.51,0-2.77.08a25.72,25.72,0,0,0-3.8.44,10.18,10.18,0,0,0-3.36,1.24,2.66,2.66,0,0,0-1.46,2.34,3.76,3.76,0,0,0,2.34,3.5A35.86,35.86,0,0,0,1224,233q3.43,1,7.52,2.47a26.69,26.69,0,0,1,7.53,4.16,21.82,21.82,0,0,1,5.77,7.22q2.34,4.53,2.35,11.82,0,7.89-3.42,13.15a25.54,25.54,0,0,1-9,8.4,41.15,41.15,0,0,1-12.92,4.46A85.06,85.06,0,0,1,1206.6,286a99.44,99.44,0,0,1-12-.72,87.77,87.77,0,0,1-11.91-2.32l0-27.31A73.59,73.59,0,0,0,1190.59,257.56Z"/></svg>