<svg id="Layer_1" data-name="Layer 1" xmlns="http://www.w3.org/2000/svg" viewBox="0 0 240 230"><defs><style>.cls-1{fill:#e6e6e6;}</style></defs><title>settings_sort</title><circle cx="113.23" cy="115.1" r="68.65"/><rect x="100.4" y="22.51" width="29.81" height="35.31" transform="translate(-0.14 0.42) rotate(-0.21)"/><rect x="155.42" y="49.78" width="29.81" height="35.31" transform="translate(107.3 -104.58) rotate(48.28)"/><rect x="178.75" y="99.51" width="29.81" height="35.31" transform="translate(310.12 -76.91) rotate(89.79)"/><rect x="20.27" y="101.66" width="29.81" height="35.31" transform="translate(154.35 83.71) rotate(89.79)"/><rect x="156.19" y="153.73" width="29.81" height="35.31" transform="translate(413.27 170.72) rotate(134.79)"/><rect x="41.25" y="45.87" width="29.81" height="35.31" transform="translate(140.8 68.43) rotate(134.79)"/><rect x="41.64" y="154.15" width="29.81" height="35.31" transform="translate(137.46 10.04) rotate(44.79)"/><rect x="103.32" y="178.64" width="29.81" height="35.31" transform="translate(237.16 392.16) rotate(179.79)"/><circle class="cls-1" cx="113.75" cy="114.32" r="30.99"/></svg>
