<svg id="Layer_1" data-name="Layer 1" xmlns="http://www.w3.org/2000/svg" viewBox="0 0 200 200"><defs><style>.cls-1{fill:#ff931e;}.cls-2{fill:#e6e6e6;}.cls-3,.cls-4{fill:none;stroke-linecap:round;stroke-miterlimit:10;}.cls-3{stroke:#ff6a1e;stroke-width:4px;}.cls-4{stroke:#fff;stroke-width:6px;}</style></defs><title>settings_orange</title><circle class="cls-1" cx="104.24" cy="99.04" r="58.98"/><rect class="cls-1" x="93.45" y="19.5" width="25.62" height="30.33"/><rect class="cls-1" x="140.64" y="43.09" width="25.62" height="30.33" transform="translate(95.36 -95.25) rotate(48.48)"/><rect class="cls-1" x="160.53" y="85.9" width="25.62" height="30.33" transform="translate(274.4 -72.27) rotate(90)"/><rect class="cls-1" x="24.36" y="87.25" width="25.62" height="30.33" transform="translate(139.58 65.25) rotate(90)"/><rect class="cls-1" x="140.98" y="132.41" width="25.62" height="30.33" transform="translate(366.88 143.19) rotate(135)"/><rect class="cls-1" x="42.56" y="39.39" width="25.62" height="30.33" transform="translate(133.09 53.98) rotate(135)"/><rect class="cls-1" x="42.56" y="132.41" width="25.62" height="30.33" transform="translate(120.57 4.07) rotate(45)"/><rect class="cls-1" x="95.48" y="153.64" width="25.62" height="30.33" transform="translate(216.57 337.62) rotate(180)"/><circle class="cls-2" cx="105.59" cy="99.04" r="26.63"/><path class="cls-3" d="M100.69,121.9A22.43,22.43,0,0,1,82.44,96"/><path class="cls-4" d="M78.5,144c-18.91-9-28-25.67-26-49"/></svg>