<svg id="Layer_1" data-name="Layer 1" xmlns="http://www.w3.org/2000/svg" viewBox="0 0 320 410"><defs><style>.cls-1{fill:#ff931e;}.cls-2{fill:#ffd950;}</style></defs><title>settings_2</title><rect class="cls-1" x="84.18" y="290.8" width="141.32" height="47.93" rx="12"/><rect class="cls-2" x="94.93" y="298.48" width="52.23" height="33.03" rx="12"/><rect class="cls-2" x="84.18" y="188.65" width="141.32" height="47.93" rx="12"/><rect class="cls-1" x="160.98" y="196.33" width="52.23" height="33.03" rx="12"/><rect class="cls-1" x="76.5" y="86.5" width="141.32" height="47.93" rx="12"/><rect class="cls-2" x="87.25" y="94.18" width="52.23" height="33.03" rx="12"/><path d="M117.8,212a9.37,9.37,0,0,1-.2,3.94,8.88,8.88,0,0,1-1.63,3.23,9,9,0,0,1-2.79,2.3,10.82,10.82,0,0,1-3.73,1.19,11.49,11.49,0,0,1-3.94-.13,9,9,0,0,1-3.34-1.42,8.57,8.57,0,0,1-2.46-2.65,9.26,9.26,0,0,1-1.26-3.73,9.43,9.43,0,0,1,.2-3.95,8.89,8.89,0,0,1,4.42-5.56A10.81,10.81,0,0,1,106.8,204a11.62,11.62,0,0,1,3.92.12,9.22,9.22,0,0,1,3.33,1.43,8.49,8.49,0,0,1,2.46,2.66A9.7,9.7,0,0,1,117.8,212Zm-12.9,2.61a2.64,2.64,0,0,0,1.66,1.56,3.61,3.61,0,0,0,2.58-.24,3.74,3.74,0,0,0,2-1.68,2.6,2.6,0,0,0,0-2.25,2.73,2.73,0,0,0-1.66-1.55,3.46,3.46,0,0,0-2.55.23,3.66,3.66,0,0,0-2,1.68A2.57,2.57,0,0,0,104.9,214.6Z"/><path d="M124.87,206.76H125a5.71,5.71,0,0,1,2.08-1.87,5.35,5.35,0,0,1,2.31-.49,5.27,5.27,0,0,1,2.28.46,4.78,4.78,0,0,1,1.66,1.29,6,6,0,0,1,1,1.93,8,8,0,0,1,.35,2.4v11.89l-6.64.55.1-11.18a1.05,1.05,0,0,0-.42-.92,1.59,1.59,0,0,0-1.06-.37,1.77,1.77,0,0,0-1.06.35,1.15,1.15,0,0,0-.48,1l.13,11.09-6.55-.46-.24-17.48,6.39-.52Z"/><path d="M176.45,109.84a9.37,9.37,0,0,1-.2,3.94,8.88,8.88,0,0,1-1.63,3.23,9,9,0,0,1-2.79,2.3,10.8,10.8,0,0,1-3.74,1.19,11.44,11.44,0,0,1-3.93-.13,9.13,9.13,0,0,1-3.35-1.42,8.66,8.66,0,0,1-2.45-2.65,9.26,9.26,0,0,1-1.26-3.73,9.43,9.43,0,0,1,.2-3.95,8.8,8.8,0,0,1,4.42-5.56,10.81,10.81,0,0,1,3.73-1.18,11.63,11.63,0,0,1,3.92.12,9.22,9.22,0,0,1,3.33,1.43,8.61,8.61,0,0,1,2.46,2.66A9.7,9.7,0,0,1,176.45,109.84Zm-12.9,2.61a2.68,2.68,0,0,0,1.66,1.57,3.67,3.67,0,0,0,2.58-.25,3.77,3.77,0,0,0,2-1.67,2.59,2.59,0,0,0,0-2.26,2.69,2.69,0,0,0-1.65-1.55,3.46,3.46,0,0,0-2.55.23,3.7,3.7,0,0,0-2,1.69A2.58,2.58,0,0,0,163.55,112.45Z"/><path d="M178.75,108h-2.11l1-5.28h1.13a9.76,9.76,0,0,1,.44-3A5.63,5.63,0,0,1,182.72,96a8.87,8.87,0,0,1,3.22-.52,4.51,4.51,0,0,1,.94.08l.88.13.8,5.1h-1.05a2.12,2.12,0,0,0-1.55.53,1.9,1.9,0,0,0-.54,1.44h2.64V108h-2.64l.19,12.17-6.89.55Z"/><path d="M191.53,108h-2.11l1-5.28h1.13a10.08,10.08,0,0,1,.43-3,6.08,6.08,0,0,1,1.31-2.29A6,6,0,0,1,195.5,96a8.87,8.87,0,0,1,3.22-.52,4.51,4.51,0,0,1,.94.08l.88.13.79,5.1h-1a2.12,2.12,0,0,0-1.55.53,1.9,1.9,0,0,0-.54,1.44h2.64V108H198.2l.19,12.17-6.89.55Z"/><path d="M176.45,314.14a9.37,9.37,0,0,1-.2,3.94,8.88,8.88,0,0,1-1.63,3.23,9,9,0,0,1-2.79,2.3,10.8,10.8,0,0,1-3.74,1.19,11.44,11.44,0,0,1-3.93-.13,9,9,0,0,1-3.35-1.43,8.51,8.51,0,0,1-2.45-2.64,9.26,9.26,0,0,1-1.26-3.73,9.43,9.43,0,0,1,.2-3.95,9,9,0,0,1,1.62-3.24,9.08,9.08,0,0,1,2.8-2.32,10.81,10.81,0,0,1,3.73-1.18,11.38,11.38,0,0,1,3.92.12,9.05,9.05,0,0,1,3.33,1.43,8.61,8.61,0,0,1,2.46,2.66A9.7,9.7,0,0,1,176.45,314.14Zm-12.9,2.61a2.64,2.64,0,0,0,1.66,1.56,3.61,3.61,0,0,0,2.58-.24,3.74,3.74,0,0,0,2-1.68,2.57,2.57,0,0,0,0-2.25,2.73,2.73,0,0,0-1.65-1.56,3.56,3.56,0,0,0-2.55.23,3.74,3.74,0,0,0-2,1.69A2.61,2.61,0,0,0,163.55,316.75Z"/><path d="M178.75,312.29h-2.11l1-5.28h1.13a9.76,9.76,0,0,1,.44-3,5.63,5.63,0,0,1,3.53-3.75,8.87,8.87,0,0,1,3.22-.52,5.37,5.37,0,0,1,.94.07c.28.06.57.1.88.14l.8,5.1h-1.05a2.16,2.16,0,0,0-1.55.52,1.92,1.92,0,0,0-.54,1.45h2.64v5.28h-2.64l.19,12.17-6.89.55Z"/><path d="M191.53,312.29h-2.11l1-5.28h1.13a10.08,10.08,0,0,1,.43-3,6,6,0,0,1,1.31-2.29,5.85,5.85,0,0,1,2.23-1.46,8.87,8.87,0,0,1,3.22-.52,5.37,5.37,0,0,1,.94.07c.28.06.57.1.88.14l.79,5.1h-1a2.16,2.16,0,0,0-1.55.52,1.92,1.92,0,0,0-.54,1.45h2.64v5.28H198.2l.19,12.17-6.89.55Z"/></svg>
