<svg id="Layer_1" data-name="Layer 1" xmlns="http://www.w3.org/2000/svg" width="2000" height="600" viewBox="0 0 2000 600"><defs><style>.cls-1{fill:#fff;}.cls-2{fill:#1b1464;}.cls-3{fill:#f1d0a5;}.cls-4{fill:#060002;}.cls-5{fill:#ccc;}.cls-6{fill:#736357;}.cls-7{fill:#534741;}.cls-8{fill:#8c6239;}.cls-9{fill:#c1612d;}.cls-10{fill:#f15a24;}.cls-11{fill:#c69c6d;}.cls-12{fill:#e6e6e6;}.cls-13{fill:#cb9d80;}.cls-14{fill:none;}</style></defs><title>sprite_mand_final</title><path d="M1656.38,171.1c-10,5.91-17.73,16.39-25.07,25.09-8,9.45-18,19.45-23.32,30.66-4.68,9.78-7.47,20.32-5.16,31.12.83,3.91,2.61,7.62,4.28,11.23.31.68,2.3,4.95,1.06,2.16,1.07,2.42,2,4.89,3.11,7.32,6.11,14,12.89,27.78,19.8,41.43,7.27,14.35,14.72,28.65,22.78,42.58,8.69,15,32,1.46,23.31-13.63-13.83-23.9-26.37-48.71-38-73.77q-2-4.29-3.9-8.62c-.55-1.24-1.08-2.47-1.62-3.71,1.12,2.57.34.79.11.25-.68-1.62-1.35-3.25-2.08-4.86-.59-1.31-1.25-2.6-1.83-3.92.89,2,0,0-.11-.38-.25-.86-.53-1.71-.77-2.58,0,0-.33-2.19-.22-1,.13,1.46.06-1.68.09-1.94a31.59,31.59,0,0,1,1.42-5.28c2.82-8.69,10.54-16.53,17-24.29,4.5-5.4,9-10.77,13.82-15.93,2-2.15,4-4.28,6.12-6.29.8-.76,1.7-1.45,2.47-2.24,1.06-1.08-2.7,1.68.3-.1,14.92-8.87,1.36-32.22-13.63-23.31Z"/><path d="M1743.28,195.84c.85,12.39,4.85,24.79,8.18,36.67s6.69,24.13,11.1,35.79c6,15.89,15.42,33.85,32.49,39.49,12.61,4.17,26.71,4.88,39.87,5.77,11.29.77,22.61,1.12,33.92,1.28,17.38.24,17.39-26.76,0-27-8.76-.13-17.52-.36-26.27-.82-6.46-.34-12.91-.78-19.34-1.43-1.46-.14-2.91-.3-4.36-.47-.12,0-3.64-.45-1.38-.16,1.9.25-.33,0-.8-.12-2.86-.43-5.71-.9-8.54-1.52-2.25-.49-4.41-1.14-6.61-1.8-3.14-.94,1.63,1.2.21.12a7.73,7.73,0,0,0-1.22-.67c-.22-.13-.43-.27-.64-.42l2,1.53c.06-.28-3.56-3.89-3.89-4.3a59.78,59.78,0,0,1-3.9-5.83c-1.19-2-2.29-4-3.32-6-.51-1-1-2-1.46-3.06-2.2-4.66.35,1.09-.33-.72-4-10.5-7.09-21.39-10.18-32.18-2.11-7.37-4.14-14.77-6-22.22-.69-2.83-1.36-5.67-1.95-8.53-.24-1.18-.42-2.38-.67-3.56-.6-2.84.31,3.83.06.18-.5-7.27-5.84-13.5-13.5-13.5-6.92,0-14,6.19-13.5,13.5Z"/><path d="M1727.39,379.28l-40-.41a40.58,40.58,0,0,1-40-40.94l1.26-125c.12-11.83,3.79-29,12-36.33,7.26-6.5,18.65-3.89,29.08-3.79l39.75.41c9.66.1,20.08-2.62,27,3.19,9,7.54,13.11,25.15,13,37.75l-1.26,125A40.58,40.58,0,0,1,1727.39,379.28Z"/><path d="M1727.8,381.28h-.43l-40-.41a42.51,42.51,0,0,1-41.95-43l1.26-125c.13-12.87,4.15-30.18,12.65-37.8,6.31-5.66,15.14-5.12,23.68-4.6,2.23.14,4.54.28,6.75.3l39.75.41c2.33,0,4.79-.13,7.17-.27,7.52-.46,15.29-.94,21.09,3.92,9.17,7.7,13.83,25.6,13.69,39.31l-1.26,125a42.58,42.58,0,0,1-42.38,42.1Zm-.39-4h.39a38.58,38.58,0,0,0,38.38-38.14l1.26-125c.13-12.76-4-29.29-12.26-36.19-4.58-3.84-11.23-3.43-18.28-3-2.44.15-5,.3-7.45.28l-39.75-.41c-2.31,0-4.67-.16-7-.3-8.08-.49-15.71-1-20.77,3.58-7.26,6.51-11.19,22.46-11.32,34.86l-1.26,125a38.5,38.5,0,0,0,38,38.91Z"/><path class="cls-1" d="M1668.19,183.93c-3.47-5.49,1.13-12.19,8.29-12.07l33.39.53,32.89.53c7.39.12,11.91,7.17,8.16,12.72l-42.25,62.56Z"/><path d="M1708.67,249.2h0a1,1,0,0,1-.83-.47l-40.48-64.26a8.13,8.13,0,0,1-.24-8.56,10.4,10.4,0,0,1,9.4-5l66.28,1.06a10.72,10.72,0,0,1,9.49,5.5,8.36,8.36,0,0,1-.52,8.78l-42.25,62.56A1,1,0,0,1,1708.67,249.2Zm-32.36-76.34a8.43,8.43,0,0,0-7.47,4,6.21,6.21,0,0,0,.19,6.51h0l39.67,63,41.39-61.29a6.46,6.46,0,0,0,.41-6.74,8.74,8.74,0,0,0-7.75-4.42l-66.28-1.06Z"/><polygon class="cls-2" points="1721.08 229.68 1708.7 248.2 1697.28 229.44 1709.76 201 1721.08 229.68"/><path d="M1652.69,579.37A17,17,0,0,1,1636.57,557c4-11.93,11.88-45.41,17.15-88.81,4.4-36.26,8.21-90.28,1.36-141.72a17,17,0,0,1,33.7-4.49c13.4,100.63-10.3,217.05-20,245.85A17,17,0,0,1,1652.69,579.37Z"/><path d="M1719.46,580.05a17,17,0,0,1-16.12-22.43c4-11.92,11.88-45.4,17.15-88.8,4.4-36.26,8.21-90.28,1.36-141.72a17,17,0,0,1,33.71-4.49c13.4,100.63-10.31,217-20,245.85A17,17,0,0,1,1719.46,580.05Z"/><ellipse class="cls-1" cx="1708.4" cy="277.92" rx="4.06" ry="4.08"/><ellipse class="cls-1" cx="1708.11" cy="307.06" rx="4.06" ry="4.08"/><ellipse class="cls-1" cx="1707.78" cy="339.7" rx="4.06" ry="4.08"/><polygon class="cls-2" points="1709.79 201.18 1721.19 191.4 1715.61 181.54 1704.3 181.46 1698.59 191.24 1709.79 201.18"/><rect class="cls-3" x="1695.36" y="138.35" width="29.03" height="44.29" rx="14.52" transform="translate(1.72 -17.39) rotate(0.58)"/><path class="cls-4" d="M1664.35,336.3a9.9,9.9,0,0,1-10,9.81c-5.45-.06-10.16-.75-10.1-6.22"/><path class="cls-5" d="M1654.48,347.11h-.11c-3.9,0-11.16-.12-11.09-7.23a1,1,0,0,1,1-1h0a1,1,0,0,1,1,1c0,4.3,3.17,5.15,9.11,5.21h.09a8.9,8.9,0,0,0,8.87-8.82,1,1,0,0,1,1-1h0a1,1,0,0,1,1,1A10.9,10.9,0,0,1,1654.48,347.11Z"/><path class="cls-5" d="M1760.08,344.43h-.67a10.91,10.91,0,0,1-10.76-11,1,1,0,0,1,1-1h0a1,1,0,0,1,1,1,8.9,8.9,0,0,0,8.78,9c2.33,0,4.94-.06,6.72-.85s2.47-2,2.5-4.18a1,1,0,0,1,1-1h0a1,1,0,0,1,1,1,6.07,6.07,0,0,1-3.69,6A17.6,17.6,0,0,1,1760.08,344.43Z"/><rect class="cls-5" x="1733.16" y="239.84" width="24.97" height="4.08" transform="translate(2.55 -17.75) rotate(0.58)"/><path class="cls-5" d="M1759.09,245.05l-27-.27.06-6.08,27,.27Zm-24.94-2.25,23,.23,0-2.08-23-.23Z"/><polygon class="cls-1" points="1642.92 338.84 1653.36 331.38 1654.56 333.08 1644.13 340.54 1642.92 338.84"/><path d="M1653.33,331.56l1.06,1.49-10.23,7.31-1.06-1.49,10.23-7.31m.06-.35-10.64,7.6,1.35,1.9,10.64-7.6-1.35-1.9Z"/><path class="cls-6" d="M1652.11,329.89a11.22,11.22,0,0,0,4.8,5.07"/><path d="M1658,572.31a3.46,3.46,0,0,1,.7.07c3.89.85,8.08,1.25,12,2.4l29.52.3A23.84,23.84,0,0,0,1676.61,551l-28.91-.3a4.2,4.2,0,0,0-4.23,4.17l-.2,19.69,10.44.1a2.74,2.74,0,0,1,2.83-2.7A2.8,2.8,0,0,1,1658,572.31Z"/><path d="M1700.17,577.08h0l-29.53-.3a2,2,0,0,1-.54-.08,63,63,0,0,0-7.2-1.51c-1.52-.25-3.1-.52-4.63-.85a1.15,1.15,0,0,0-.26,0h0a2,2,0,0,1-1-.29.82.82,0,0,0-.42-.11c-.19,0-.75,0-.81.83a2,2,0,0,1-2,1.87h0l-10.44-.11a2,2,0,0,1-2-2l.2-19.68a6.18,6.18,0,0,1,1.85-4.37,6.38,6.38,0,0,1,4.4-1.78l28.91.3a25.87,25.87,0,0,1,25.54,26.15,2,2,0,0,1-2,2Zm-29.23-4.29,27.16.27A21.86,21.86,0,0,0,1676.59,553l-28.91-.3a2.2,2.2,0,0,0-2.21,2.19l-.18,17.69,6.91.07a4.83,4.83,0,0,1,6.32-2.26,5.81,5.81,0,0,1,.58.09c1.44.31,2.9.56,4.45.82A67,67,0,0,1,1670.94,572.79Z"/><path d="M1723.57,574.73a3.39,3.39,0,0,1,.7.07c3.89.84,8.08,1.25,12,2.4l29.53.3a23.86,23.86,0,0,0-23.57-24.14l-28.9-.29a4.21,4.21,0,0,0-4.24,4.16l-.2,19.69,10.45.11a2.73,2.73,0,0,1,2.82-2.7A2.77,2.77,0,0,1,1723.57,574.73Z"/><path d="M1765.77,579.5h0l-29.53-.3a2,2,0,0,1-.55-.08,62.33,62.33,0,0,0-7.19-1.51c-1.53-.26-3.1-.52-4.63-.86l-.26,0h0a2,2,0,0,1-1-.29.75.75,0,0,0-.43-.11c-.18,0-.75,0-.8.83a2,2,0,0,1-2,1.87h0l-10.45-.11a2,2,0,0,1-2-2l.19-19.69a6.21,6.21,0,0,1,6.26-6.14l28.9.29a25.9,25.9,0,0,1,25.55,26.16,2,2,0,0,1-.6,1.41A2,2,0,0,1,1765.77,579.5Zm-29.23-4.3,27.16.28a21.88,21.88,0,0,0-21.52-20.12l-28.9-.29a2.13,2.13,0,0,0-1.56.63,2.2,2.2,0,0,0-.66,1.55l-.17,17.69,6.9.07a4.66,4.66,0,0,1,4.36-2.68,4.92,4.92,0,0,1,2,.42,4,4,0,0,1,.59.1c1.43.31,2.9.55,4.44.82A67.07,67.07,0,0,1,1736.54,575.2Z"/><path class="cls-7" d="M1646,549.61c2.11,3.73,6,4,10,4.43,4.31.4,8.32-.38,11.57-3.35,1.43-1.31-.69-3.42-2.12-2.12-2.46,2.24-5.56,2.75-8.79,2.53-2.85-.19-6.53-.3-8.06-3a1.5,1.5,0,0,0-2.59,1.52Z"/><path class="cls-7" d="M1712.18,552c2.1,3.73,6,4.06,10,4.43,4.32.4,8.32-.38,11.58-3.35,1.43-1.3-.7-3.42-2.12-2.12-2.46,2.24-5.56,2.75-8.79,2.53-2.86-.19-6.53-.29-8.06-3a1.5,1.5,0,0,0-2.59,1.52Z"/><ellipse class="cls-8" cx="1686.91" cy="48.65" rx="26.42" ry="26.52"/><ellipse class="cls-8" cx="1713.07" cy="45.42" rx="22.36" ry="22.44"/><ellipse class="cls-8" cx="1657.83" cy="52.43" rx="22.36" ry="22.44"/><ellipse class="cls-8" cx="1740.91" cy="49.2" rx="22.36" ry="22.44"/><ellipse class="cls-8" cx="1756.67" cy="70.05" rx="21.49" ry="21.56"/><ellipse class="cls-8" cx="1719.52" cy="67.92" rx="27.87" ry="27.97"/><ellipse class="cls-8" cx="1675.03" cy="74.76" rx="25.84" ry="25.93"/><rect class="cls-8" x="1652.42" y="86.56" width="15.68" height="27.39" rx="7.84" transform="translate(1.11 -16.89) rotate(0.58)"/><ellipse class="cls-8" cx="1645.65" cy="80.58" rx="20.9" ry="20.98"/><path class="cls-3" d="M1724.43,151.9l5.28.06,9.29.09,6.73-1a3.63,3.63,0,0,0,1.52-.59h0a21.18,21.18,0,0,0,7.54-9.35h0l1.13-7.42c.07-.48.13-1,.17-1.47l.49-6a21.74,21.74,0,0,0,0-2.91l-.4-6.71-.53-5.83-.49-8.75-.5-7.58,0-2.91-5.8-1.23-5.19-3-4.61-3.54L1733.94,78l-1.21,4.65-2.36,3.47L1728,88.41l-3.51,2.3-3.5,1.71-4.65.53-4.65,0-4.64-.63-4-2.38L1700.17,87l-2.87-3.52-2.87-3.53-1.79,4.64-1.79,4.65-2.35,2.89-2.34,1.72-2.92,1.72-2.92,1.72-2.91.55-3.48,0-3.49,0-2.31-1.19-1.72-1.76-.07,6.41-.09,8.74-11-.11.12-11.66-1.75,1.15-2.92,1.14-3.06.58a17.4,17.4,0,0,1-5.53.15l-1.87-.26-.07,7.42a8.14,8.14,0,0,0,.39,2.59h0a12.22,12.22,0,0,0,4.74,6.36h0l4.63,2.38,4,1.21,5.65.57a2.08,2.08,0,0,1,1.25.6h0a2.22,2.22,0,0,1,.62,1.56l0,3.76,0,1.8a4.83,4.83,0,0,0,.48,2.11l1.22,2.51,1.56,3.21a3,3,0,0,0,.36.57l2.45,3a4.78,4.78,0,0,0,.45.45l5.29,4.33a3.08,3.08,0,0,0,.48.32l4.37,2.24,4,1.21,2,.81a5.4,5.4,0,0,0,1.93.42l9.45.3"/><path d="M1715.24,108.34l-11.39-2.57a3,3,0,0,1-2.28-3.61l0-.2a3,3,0,0,1,3.6-2.29l11.4,2.57a3,3,0,0,1,2.27,3.61l0,.21A3,3,0,0,1,1715.24,108.34Z"/><rect x="1732.83" y="98.76" width="20.32" height="5.83" rx="2.9" transform="translate(1.12 -17.73) rotate(0.58)"/><ellipse cx="1710.19" cy="110.38" rx="4.37" ry="4.17" transform="translate(1583.8 1819.46) rotate(-89.46)"/><ellipse cx="1745.03" cy="110.73" rx="4.37" ry="4.17" transform="translate(1617.96 1854.65) rotate(-89.46)"/><ellipse class="cls-9" cx="1728.13" cy="135.62" rx="1.17" ry="11.61" transform="translate(1574.93 1862.28) rotate(-89.42)"/><path class="cls-10" d="M1732.16,137.31l-4.05,0c-3.14,0-6.12-.07-8.24-.23-2.32-.19-3.86-.52-3.85-1.56a1,1,0,0,1,.32-.73c.94-.91,4-.92,9.77-.84l2,0c9,.09,12.11.25,12.09,1.78h0c0,1-1.56,1.35-3.88,1.48C1735.18,137.29,1733.75,137.31,1732.16,137.31Zm-9.37-2.41c-2.91,0-5.53.11-5.77.61.5.67,6.38.73,11.1.78s10.28.1,11.08-.56c-.79-.67-6.47-.73-11.06-.77l-2.05,0Zm17,.84h0Z"/><path class="cls-11" d="M1727.18,115.1c.7,2,2,3.26,3.12,5,.7,1.12,1.28,2.6.15,3.66s-3,.9-4.38.8c-1.93-.15-1.92,2.85,0,3,3.07.23,6.92-.47,7.9-3.92,1.1-3.89-2.75-6.12-3.9-9.34-.64-1.8-3.54-1-2.89.8Z"/><path class="cls-11" d="M1696.59,174l-.56-1.75a11.13,11.13,0,0,1-.46-3.6l.1-17.1a.82.82,0,0,1,.83-.83l20.27.52a.23.23,0,0,1,.09.43l-5.6,2.64a6.45,6.45,0,0,1-1.21.43l-9.9,2.49-.61,20.78"/><path class="cls-11" d="M1662.09,123.56c-1.24,7.82,3.47,14.91,9.55,19.46,1.55,1.15,3-1.45,1.52-2.59-2.18-1.63-3.76-3.92-5.5-6a12.45,12.45,0,0,1-2.67-10.07c.29-1.89-2.6-2.71-2.9-.8Z"/><path class="cls-11" d="M1662.57,124.27c.93,11.25,10.19,17.61,19.2,22.77a1.5,1.5,0,0,0,1.52-2.59c-7.94-4.55-16.89-10.14-17.72-20.18-.15-1.91-3.16-1.93-3,0Z"/><path class="cls-11" d="M1664.46,132.52c.39,1.69,1.72,3.14,2.65,4.6a20.84,20.84,0,0,0,4.26,4.91,36.54,36.54,0,0,0,11.73,6.08c1.83.63,2.61-2.26.8-2.89a32.83,32.83,0,0,1-10.4-5.31A17.48,17.48,0,0,1,1670,136c-.73-1.1-2.33-3-2.63-4.32-.43-1.88-3.33-1.08-2.89.8Z"/><path class="cls-11" d="M1672.51,143c.41.15.77.66,1.12.92a7.67,7.67,0,0,0,1.38.81c1.09.5,2.2.95,3.3,1.42,1.76.76,3.29-1.82,1.52-2.59-1.22-.52-2.48-1-3.67-1.59s-1.72-1.46-2.86-1.86c-1.82-.64-2.61,2.25-.79,2.89Z"/><path class="cls-11" d="M1671.73,142.63l2.38,1.29a1.5,1.5,0,1,0,1.51-2.59l-2.38-1.29a1.5,1.5,0,1,0-1.51,2.59Z"/><path class="cls-11" d="M1673.34,143.55a1.5,1.5,0,0,0,0-3,1.5,1.5,0,0,0,0,3Z"/><path class="cls-11" d="M1671.15,141.45c.77,2.1,2.63,2.93,4.49,4a48.49,48.49,0,0,0,7.13,2.87c1.82.64,2.61-2.25.8-2.9a50.7,50.7,0,0,1-5.36-2c-1.07-.52-3.73-1.54-4.17-2.73-.66-1.8-3.56-1-2.89.8Z"/><path class="cls-11" d="M1669.35,140.11a23.78,23.78,0,0,0,14.43,8.79c1.88.36,2.69-2.53.79-2.89-4.62-.88-9.86-3.62-12.63-7.41-1.13-1.54-3.74,0-2.59,1.51Z"/><path class="cls-11" d="M1681.47,147.14l5.55,2.35a1.57,1.57,0,0,0,2.06-.54,1.51,1.51,0,0,0-.54-2l-5.55-2.36a1.58,1.58,0,0,0-2.06.54,1.53,1.53,0,0,0,.54,2.06Z"/><path class="cls-11" d="M1684.29,148.75a3.47,3.47,0,0,1,1.2.06v-2.89a1.5,1.5,0,0,1-.63.05,1.5,1.5,0,0,0-.8,2.89,25.13,25.13,0,0,0,3.21.81,1.55,1.55,0,0,0,1.85-1,1.51,1.51,0,0,0-1-1.84,25.13,25.13,0,0,1-3.21-.81l-.8,2.89a5.09,5.09,0,0,0,2.23-.05,1.51,1.51,0,0,0,0-2.89,6.14,6.14,0,0,0-2-.17,1.54,1.54,0,0,0-1.5,1.5,1.51,1.51,0,0,0,1.5,1.5Z"/><path class="cls-3" d="M1645.36,102.1c-.16,3.21-.2,6.78,1.73,9.53s5.71,4.07,9,4.67c1.89.36,2.7-2.53.8-2.89-2.66-.5-6.07-1.37-7.54-3.88-1.27-2.18-1.06-5-.94-7.43.09-1.93-2.91-1.93-3,0Z"/><path class="cls-11" d="M1649.47,104.07a5.17,5.17,0,0,0,.78,4.78,4,4,0,0,0,4.51,1.33,1.54,1.54,0,0,0,1-1.85,1.52,1.52,0,0,0-1.85-1c-1.52.57-2-1.27-1.6-2.42.61-1.84-2.29-2.62-2.89-.8Z"/><path class="cls-11" d="M1644.52,102.44c.13,1.53-.44,3-.31,4.53a7,7,0,0,0,1.51,3.65c1.85,2.4,4.75,3.33,7.62,3.83,1.89.34,2.7-2.55.8-2.89-2.24-.4-4.85-1-6.21-3s-.23-4-.41-6.15c-.16-1.91-3.16-1.93-3,0Z"/><path class="cls-11" d="M1645.89,103.85a1.5,1.5,0,0,0,0-3,1.5,1.5,0,0,0,0,3Z"/><path class="cls-1" d="M1739.16,556.43c3-.08,6.16-.21,9.06.78s5.44,3.12,7.82,5.11c1.47,1.24,3.6-.88,2.12-2.12-2.49-2.09-5.05-4.24-8.09-5.48-3.49-1.41-7.22-1.39-10.91-1.29-1.93.05-1.94,3.05,0,3Z"/><path class="cls-1" d="M1677.71,555.16a18.82,18.82,0,0,1,14.29,7c1.24,1.49,3.35-.65,2.12-2.12a21.7,21.7,0,0,0-16.41-7.83c-1.93,0-1.93,3,0,3Z"/><line class="cls-12" x1="1698.81" y1="192.15" x2="1685.86" y2="210.08"/><rect class="cls-12" x="1681.27" y="200.12" width="22.13" height="2" transform="translate(537.9 1454.8) rotate(-54.14)"/><rect class="cls-12" x="1726.18" y="190.35" width="2" height="21.65" transform="translate(205.31 1042.33) rotate(-35.57)"/><path class="cls-11" d="M1691.2,60a24.47,24.47,0,0,1-4.8,20.3c-1.18,1.52,1.43,3,2.59,1.51a27.42,27.42,0,0,0,5.11-22.61c-.39-1.89-3.28-1.09-2.9.8Z"/><path class="cls-11" d="M1760.62,53.22c7,2.6,16.14,20.1,5.71,24.09-1.79.68-1,3.59.79,2.89,13.38-5.11,4.4-26.1-5.7-29.87-1.81-.68-2.59,2.22-.8,2.89Z"/><path class="cls-11" d="M1726.75,47.05c5.07-2.53,10.52,1.19,12.68,5.81s2,9.75,1.91,14.68c0,1.93,3,1.93,3,0,.13-6.73.14-14.62-4.75-19.88-3.74-4-9.33-5.71-14.35-3.2-1.73.86-.21,3.44,1.51,2.59Z"/><path class="cls-11" d="M1694.67,40.1c9.15-.13,9.19,11.24,8.82,17.62-.11,1.93,2.89,1.92,3,0,.48-8.22-.83-20.78-11.82-20.62-1.93,0-1.93,3,0,3Z"/><path class="cls-11" d="M1650.52,54.36a27.85,27.85,0,0,0-6.45,34.57c.93,1.7,3.52.19,2.59-1.51a24.87,24.87,0,0,1,6-30.94c1.49-1.23-.65-3.35-2.12-2.12Z"/><ellipse class="cls-3" cx="1892.55" cy="301.61" rx="16.56" ry="16.62"/><rect class="cls-3" x="1889.57" y="267.94" width="8.49" height="22.16" rx="4.25" transform="translate(53.81 -248.96) rotate(7.63)"/><ellipse class="cls-13" cx="1891.27" cy="271.78" rx="2.98" ry="0.85" transform="translate(1137.79 2027.64) rotate(-74.95)"/><rect class="cls-3" x="1901.46" y="290.11" width="40.77" height="6.82" rx="3.4"/><rect class="cls-3" x="1899.76" y="296.07" width="22.93" height="7.67" rx="3.82"/><rect class="cls-3" x="1897.22" y="302.89" width="22.93" height="7.67" rx="3.82"/><rect class="cls-3" x="1892.97" y="309.71" width="20.38" height="7.67" rx="3.82"/><ellipse class="cls-13" cx="1909.96" cy="300.34" rx="3.4" ry="2.56"/><ellipse class="cls-13" cx="1908.26" cy="306.3" rx="3.4" ry="2.56"/><ellipse class="cls-13" cx="1903.45" cy="312.7" rx="2.83" ry="2.13"/><path class="cls-11" d="M1921.42,296.75h-11.89a.25.25,0,1,1,0-.5h11.89a.25.25,0,0,1,0,.5Z"/><path class="cls-11" d="M1918,303.57h-11.9a.25.25,0,0,1,0-.5H1918a.25.25,0,0,1,0,.5Z"/><path class="cls-11" d="M1912.08,310.39h-11.89a.25.25,0,0,1,0-.5h11.89a.25.25,0,0,1,0,.5Z"/><rect class="cls-1" x="1873.64" y="290.38" width="5.77" height="21.77"/><path d="M1879.28,290.5V312h-5.52V290.5h5.52m.25-.25h-6v22h6v-22Z"/><path d="M143.58,195.65c1.06,1,2,2.21,2.94,3.34,2.2,2.6-1.1-1.58.28.35.89,1.25,1.83,2.47,2.72,3.71,3.46,4.79,6.78,9.68,10.06,14.6,6.37,9.56,12.71,19.22,18.39,29.22A65.16,65.16,0,0,1,185,264.82c.4,1.73.43,3.59.93,5.15.08.27-.09.66,0,.9.66,1.68-4.39-1.86.29-2.05,0,0-.59,2.15-.65,2.34-.87,3.17,1.15-2.14-.16.51-5.08,10.23-11.82,19.55-18.69,28.65-.47.62-3.43,4.47-1.57,2.08q-1.6,2.07-3.24,4.13c-1.74,2.21-3.51,4.4-5.29,6.59q-3.45,4.23-7,8.42c-4.68,5.58-5.48,13.62,0,19.09,4.8,4.81,14.38,5.62,19.09,0q9.54-11.38,18.6-23.16c7.54-9.81,15.37-19.92,20.85-31.08,2.53-5.15,4.81-10.56,4.72-16.42-.18-11.12-4.56-22.63-9.4-32.47s-11.33-19.25-17.38-28.5c-7.12-10.87-14.22-23.24-23.51-32.44-12.36-12.24-31.46,6.84-19.09,19.09Z"/><path d="M55.88,173.1c-10,5.91-17.73,16.39-25.07,25.09-8,9.45-18,19.45-23.32,30.66C2.81,238.63,0,249.17,2.33,260c.83,3.91,2.61,7.62,4.28,11.23.31.68,2.3,4.95,1.06,2.16,1.07,2.42,2.05,4.89,3.11,7.32,6.11,14,12.89,27.78,19.8,41.43,7.27,14.35,14.72,28.65,22.78,42.58,8.69,15,32,1.46,23.31-13.63-13.83-23.9-26.37-48.71-38-73.77q-2-4.29-3.9-8.62c-.55-1.24-1.08-2.47-1.62-3.71,1.12,2.57.34.79.11.25-.68-1.62-1.35-3.25-2.08-4.86-.59-1.31-1.25-2.6-1.83-3.92.89,2,0,0-.11-.38-.25-.86-.53-1.71-.77-2.58,0,0-.33-2.19-.22-1,.13,1.46.06-1.68.09-1.94a31.59,31.59,0,0,1,1.42-5.28c2.82-8.69,10.54-16.53,17-24.29,4.5-5.4,9.05-10.77,13.82-15.93,2-2.15,4-4.28,6.12-6.29.8-.76,1.7-1.45,2.47-2.24,1.06-1.08-2.7,1.68.3-.1,14.92-8.87,1.36-32.22-13.63-23.31Z"/><path d="M126.89,381.28l-40-.41a40.58,40.58,0,0,1-40-40.94l1.26-125c.12-11.83,3.79-29,12-36.33,7.26-6.5,18.65-3.89,29.08-3.79l39.75.41c9.66.1,20.08-2.62,27,3.19,9,7.54,13.11,25.15,13,37.75l-1.26,125A40.58,40.58,0,0,1,126.89,381.28Z"/><path d="M127.3,383.28h-.43l-40-.41a42.51,42.51,0,0,1-41.95-43l1.26-125c.13-12.87,4.15-30.18,12.65-37.8,6.3-5.65,15.14-5.12,23.68-4.6,2.23.14,4.54.28,6.75.3l39.75.41c2.33,0,4.79-.13,7.17-.27,7.52-.46,15.29-.94,21.09,3.92,9.17,7.7,13.83,25.6,13.69,39.31l-1.26,125a42.58,42.58,0,0,1-42.38,42.1Zm-.39-4h.39a38.58,38.58,0,0,0,38.38-38.14l1.26-125c.13-12.76-4-29.29-12.26-36.19-4.58-3.84-11.23-3.43-18.28-3-2.44.15-5,.31-7.45.28l-39.75-.41c-2.31,0-4.67-.16-7-.3-8.08-.49-15.71-1-20.77,3.58-7.26,6.51-11.19,22.46-11.32,34.86L48.9,340a38.5,38.5,0,0,0,38,38.91Z"/><path class="cls-1" d="M67.69,185.93c-3.47-5.49,1.13-12.19,8.29-12.07l33.39.53,32.89.53c7.39.12,11.91,7.17,8.16,12.72L108.17,250.2Z"/><path d="M108.17,251.2h0a1,1,0,0,1-.83-.47L66.84,186.47a8.15,8.15,0,0,1-.24-8.56,10.45,10.45,0,0,1,9.4-5l66.28,1.06a10.72,10.72,0,0,1,9.49,5.5,8.36,8.36,0,0,1-.52,8.78L109,250.76A1,1,0,0,1,108.17,251.2ZM75.8,174.86a8.42,8.42,0,0,0-7.46,4,6.21,6.21,0,0,0,.19,6.51l39.67,63,41.39-61.29a6.46,6.46,0,0,0,.41-6.74,8.74,8.74,0,0,0-7.75-4.42L76,174.86Z"/><polygon class="cls-2" points="120.58 231.68 108.2 250.2 96.78 231.44 109.26 203 120.58 231.68"/><path d="M52.19,581.37A17,17,0,0,1,36.07,559c4-11.93,11.88-45.41,17.15-88.81,4.4-36.26,8.21-90.28,1.36-141.72a17,17,0,0,1,33.7-4.49C101.68,424.56,78,541,68.3,569.78A17,17,0,0,1,52.19,581.37Z"/><path d="M119,582.05a17,17,0,0,1-16.12-22.43c4-11.92,11.88-45.4,17.15-88.8,4.4-36.26,8.21-90.28,1.36-141.72a17,17,0,0,1,33.71-4.49c13.4,100.63-10.31,217-20,245.85A17,17,0,0,1,119,582.05Z"/><ellipse class="cls-1" cx="107.9" cy="279.92" rx="4.06" ry="4.08"/><ellipse class="cls-1" cx="107.61" cy="309.06" rx="4.06" ry="4.08"/><ellipse class="cls-1" cx="107.28" cy="341.7" rx="4.06" ry="4.08"/><polygon class="cls-2" points="109.29 203.18 120.69 193.4 115.11 183.54 103.8 183.46 98.08 193.24 109.29 203.18"/><rect class="cls-3" x="94.86" y="140.35" width="29.03" height="44.29" rx="14.52" transform="translate(1.66 -1.1) rotate(0.58)"/><path class="cls-4" d="M63.85,338.3a9.9,9.9,0,0,1-10,9.81c-5.45-.06-10.16-.75-10.1-6.22"/><path class="cls-5" d="M54,349.11h-.11c-3.9,0-11.16-.12-11.09-7.23a1,1,0,0,1,1-1h0a1,1,0,0,1,1,1c0,4.3,3.17,5.15,9.11,5.21H54a8.9,8.9,0,0,0,8.87-8.82,1,1,0,0,1,1-1h0a1,1,0,0,1,1,1A10.9,10.9,0,0,1,54,349.11Z"/><path class="cls-5" d="M159.58,346.43h-.67a10.91,10.91,0,0,1-10.76-11,1,1,0,0,1,1-1h0a1,1,0,0,1,1,1,8.9,8.9,0,0,0,8.78,9c2.31,0,4.94-.06,6.72-.85s2.47-2,2.49-4.18a1,1,0,0,1,1-1h0a1,1,0,0,1,1,1,6,6,0,0,1-3.68,6A17.6,17.6,0,0,1,159.58,346.43Z"/><rect class="cls-5" x="132.66" y="241.84" width="24.97" height="4.08" transform="translate(2.49 -1.46) rotate(0.58)"/><path class="cls-5" d="M158.59,247.05l-27-.27.07-6.08,27,.27Zm-24.94-2.25,23,.23,0-2.08-23-.23Z"/><polygon class="cls-1" points="42.42 340.84 52.86 333.38 54.06 335.08 43.63 342.54 42.42 340.84"/><path d="M52.83,333.56l1.06,1.49-10.23,7.31-1.06-1.49,10.23-7.31m.06-.35-10.64,7.6,1.35,1.9,10.64-7.6-1.35-1.9Z"/><polygon class="cls-1" points="158.46 332 159.69 330.33 170.03 337.92 168.8 339.59 158.46 332"/><path d="M159.72,330.5,169.86,338l-1.09,1.47L158.63,332l1.09-1.47m-.06-.35L158.28,332l10.54,7.74,1.39-1.87-10.55-7.74Z"/><path class="cls-6" d="M51.61,331.89a11.22,11.22,0,0,0,4.8,5.07"/><path class="cls-6" d="M156.85,333.17a11.23,11.23,0,0,0,4.31-5.49"/><path d="M57.48,574.31a3.46,3.46,0,0,1,.7.07c3.89.85,8.08,1.25,12,2.4l29.52.3A23.84,23.84,0,0,0,76.11,553l-28.91-.3A4.2,4.2,0,0,0,43,556.82l-.2,19.69,10.44.1a2.74,2.74,0,0,1,2.83-2.7A2.8,2.8,0,0,1,57.48,574.31Z"/><path d="M99.67,579.08h0l-29.53-.3a2,2,0,0,1-.54-.08,63,63,0,0,0-7.2-1.51c-1.52-.25-3.1-.52-4.63-.85l-.26,0h0a2,2,0,0,1-1-.29.9.9,0,0,0-.42-.11c-.19,0-.75,0-.81.83a2,2,0,0,1-2,1.87h0l-10.44-.11a2,2,0,0,1-2-2L41,556.8a6.2,6.2,0,0,1,6.19-6.15h.06l28.91.3a25.87,25.87,0,0,1,25.54,26.15,2,2,0,0,1-2,2Zm-29.23-4.29,27.16.27A21.86,21.86,0,0,0,76.09,555l-28.91-.3a2.42,2.42,0,0,0-1.55.63,2.18,2.18,0,0,0-.66,1.56l-.18,17.69,6.91.07a4.67,4.67,0,0,1,4.3-2.69h.06a4.79,4.79,0,0,1,2,.43,5.81,5.81,0,0,1,.58.09c1.44.31,2.9.56,4.45.82A67.44,67.44,0,0,1,70.44,574.79Z"/><path d="M123.07,576.73a3.39,3.39,0,0,1,.7.07c3.89.84,8.08,1.25,12,2.4l29.53.3a23.86,23.86,0,0,0-23.57-24.14l-28.9-.29a4.21,4.21,0,0,0-4.24,4.16l-.2,19.69,10.45.11a2.73,2.73,0,0,1,2.82-2.7A2.77,2.77,0,0,1,123.07,576.73Z"/><path d="M165.27,581.5h0l-29.53-.3a2,2,0,0,1-.55-.08,62.33,62.33,0,0,0-7.19-1.51c-1.53-.26-3.1-.52-4.63-.86l-.27,0a1.93,1.93,0,0,1-1-.29.75.75,0,0,0-.43-.11c-.18,0-.75,0-.8.83a2,2,0,0,1-2,1.87h0l-10.45-.11a2,2,0,0,1-2-2l.2-19.69a6.18,6.18,0,0,1,1.86-4.36,6.11,6.11,0,0,1,4.33-1.78h.07l28.9.29a25.9,25.9,0,0,1,25.55,26.16,2,2,0,0,1-.6,1.41A2,2,0,0,1,165.27,581.5ZM136,577.2l27.16.28a21.88,21.88,0,0,0-21.52-20.12l-28.9-.29a2.38,2.38,0,0,0-1.56.63,2.2,2.2,0,0,0-.66,1.55l-.18,17.69,6.91.07a4.67,4.67,0,0,1,4.31-2.68h.06a4.91,4.91,0,0,1,2,.42,3.83,3.83,0,0,1,.59.1c1.43.31,2.9.55,4.44.82A67.07,67.07,0,0,1,136,577.2Z"/><path class="cls-7" d="M45.5,551.61c2.11,3.73,6,4,10,4.43,4.31.4,8.32-.38,11.57-3.35,1.43-1.31-.69-3.42-2.12-2.12-2.46,2.24-5.56,2.75-8.79,2.53-2.85-.19-6.53-.3-8.06-3a1.5,1.5,0,0,0-2.59,1.52Z"/><path class="cls-7" d="M111.68,554c2.1,3.73,6,4.06,10,4.43,4.32.4,8.32-.38,11.58-3.35,1.43-1.3-.7-3.42-2.12-2.12-2.46,2.24-5.56,2.75-8.79,2.53-2.86-.19-6.53-.29-8.06-3a1.5,1.5,0,0,0-2.59,1.52Z"/><ellipse class="cls-8" cx="86.41" cy="50.65" rx="26.42" ry="26.52"/><ellipse class="cls-8" cx="112.57" cy="47.42" rx="22.36" ry="22.44"/><ellipse class="cls-8" cx="57.33" cy="54.43" rx="22.36" ry="22.44"/><ellipse class="cls-8" cx="140.41" cy="51.2" rx="22.36" ry="22.44"/><ellipse class="cls-8" cx="156.17" cy="72.05" rx="21.49" ry="21.56"/><ellipse class="cls-8" cx="119.02" cy="69.92" rx="27.87" ry="27.97"/><ellipse class="cls-8" cx="74.53" cy="76.76" rx="25.84" ry="25.93"/><rect class="cls-8" x="51.92" y="88.56" width="15.68" height="27.39" rx="7.84" transform="translate(1.04 -0.6) rotate(0.58)"/><ellipse class="cls-8" cx="45.15" cy="82.58" rx="20.9" ry="20.98"/><path class="cls-3" d="M123.93,153.9l5.28.06,9.29.09,6.73-1a3.63,3.63,0,0,0,1.52-.59h0a21.18,21.18,0,0,0,7.54-9.35h0l1.13-7.42c.07-.48.13-1,.17-1.47l.49-6a21.74,21.74,0,0,0,0-2.91l-.4-6.71-.53-5.83-.49-8.75-.5-7.58,0-2.91-5.8-1.23-5.19-3-4.61-3.54L133.44,80l-1.21,4.65-2.36,3.47-2.34,2.31L124,92.71l-3.5,1.71-4.65.53-4.65,0-4.64-.63-4-2.38L99.67,89,96.8,85.44l-2.87-3.53-1.79,4.64L90.35,91.2,88,94.09l-2.34,1.72-2.92,1.72-2.92,1.72-2.91.55-3.48,0-3.49,0-2.31-1.19-1.72-1.76-.07,6.41-.09,8.74-11-.11.12-11.66-1.75,1.15-2.92,1.14-3.06.58a17.4,17.4,0,0,1-5.53.15l-1.87-.26-.07,7.42a8.14,8.14,0,0,0,.39,2.59h0a12.22,12.22,0,0,0,4.74,6.36h0l4.63,2.38,4.05,1.21,5.65.57a2.08,2.08,0,0,1,1.25.6h0a2.22,2.22,0,0,1,.62,1.56l0,3.76,0,1.8a4.83,4.83,0,0,0,.48,2.11l1.22,2.51L64.17,139a3,3,0,0,0,.36.57l2.45,3a4.78,4.78,0,0,0,.45.45l5.29,4.33a3.08,3.08,0,0,0,.48.32l4.37,2.24,4.05,1.21,2,.81a5.4,5.4,0,0,0,1.93.42l9.45.3"/><path d="M115.11,107.24l-13.77.23a3.33,3.33,0,0,1-3.6-3v-.21a3.31,3.31,0,0,1,3.49-3.08L115,101a3.34,3.34,0,0,1,3.61,3v.21A3.32,3.32,0,0,1,115.11,107.24Z"/><rect x="132.33" y="100.76" width="20.32" height="5.83" rx="2.9" transform="translate(1.06 -1.44) rotate(0.58)"/><ellipse cx="109.69" cy="112.38" rx="4.37" ry="4.17" transform="translate(-3.71 221.01) rotate(-89.46)"/><ellipse cx="144.53" cy="112.73" rx="4.37" ry="4.17" transform="translate(30.45 256.2) rotate(-89.46)"/><ellipse class="cls-9" cx="127.63" cy="137.62" rx="1.17" ry="11.61" transform="translate(-11.28 263.84) rotate(-89.42)"/><path class="cls-10" d="M131.41,139.31l-3.8,0c-3.14,0-6.12-.07-8.24-.23-2.32-.19-3.86-.52-3.85-1.56a1,1,0,0,1,.32-.73c.94-.91,4-.92,9.77-.84l2,0c9,.09,12.11.25,12.09,1.78h0C139.73,139,137.49,139.31,131.41,139.31Zm-9.12-2.41c-2.91,0-5.53.11-5.77.61.5.67,6.38.73,11.1.78s10.28.1,11.08-.56c-.79-.67-6.47-.73-11.06-.77l-2,0Zm17,.84h0Z"/><path class="cls-11" d="M126.68,117.1c.7,2,2,3.26,3.12,5,.7,1.12,1.28,2.6.15,3.66s-3,.9-4.38.8c-1.93-.15-1.92,2.85,0,3,3.07.23,6.92-.47,7.9-3.92,1.1-3.89-2.75-6.12-3.9-9.34-.64-1.8-3.54-1-2.89.8Z"/><path class="cls-11" d="M96.09,176l-.56-1.75a11.13,11.13,0,0,1-.46-3.6l.1-17.1a.82.82,0,0,1,.83-.83l20.27.52a.23.23,0,0,1,.09.43l-5.6,2.64a6.45,6.45,0,0,1-1.21.43l-9.9,2.49L99,180"/><path class="cls-11" d="M61.59,125.56c-1.24,7.82,3.47,14.91,9.55,19.46,1.55,1.15,3-1.45,1.52-2.59-2.18-1.63-3.76-3.92-5.5-6a12.45,12.45,0,0,1-2.67-10.07c.29-1.89-2.6-2.71-2.9-.8Z"/><path class="cls-11" d="M62.07,126.27C63,137.52,72.26,143.88,81.27,149a1.5,1.5,0,0,0,1.52-2.59c-7.94-4.55-16.89-10.14-17.72-20.18-.15-1.91-3.16-1.93-3,0Z"/><path class="cls-11" d="M64,134.52c.39,1.69,1.72,3.14,2.65,4.6A20.84,20.84,0,0,0,70.87,144a36.54,36.54,0,0,0,11.73,6.08c1.83.63,2.61-2.26.8-2.89A32.83,32.83,0,0,1,73,141.91,17.48,17.48,0,0,1,69.48,138c-.73-1.1-2.33-3-2.63-4.32-.43-1.88-3.33-1.08-2.89.8Z"/><path class="cls-11" d="M72,145c.41.15.77.66,1.12.92a7.67,7.67,0,0,0,1.38.81c1.09.5,2.2.95,3.3,1.42,1.76.76,3.29-1.82,1.52-2.59-1.22-.52-2.48-1-3.67-1.59s-1.72-1.46-2.86-1.86c-1.82-.64-2.61,2.25-.79,2.89Z"/><path class="cls-11" d="M71.23,144.63l2.38,1.29a1.5,1.5,0,1,0,1.51-2.59L72.74,142a1.5,1.5,0,1,0-1.51,2.59Z"/><path class="cls-11" d="M72.84,145.55a1.5,1.5,0,0,0,0-3,1.5,1.5,0,0,0,0,3Z"/><path class="cls-11" d="M70.65,143.45c.77,2.1,2.63,2.93,4.49,4a48.49,48.49,0,0,0,7.13,2.87c1.82.64,2.61-2.25.8-2.9a50.7,50.7,0,0,1-5.36-2c-1.07-.52-3.73-1.54-4.17-2.73-.66-1.8-3.56-1-2.89.8Z"/><path class="cls-11" d="M68.85,142.11a23.78,23.78,0,0,0,14.43,8.79c1.88.36,2.69-2.53.79-2.89-4.62-.88-9.86-3.62-12.63-7.41-1.13-1.54-3.74,0-2.59,1.51Z"/><path class="cls-11" d="M81,149.14l5.55,2.35a1.57,1.57,0,0,0,2.06-.54,1.51,1.51,0,0,0-.54-2l-5.55-2.36a1.58,1.58,0,0,0-2.06.54,1.53,1.53,0,0,0,.54,2.06Z"/><path class="cls-11" d="M83.79,150.75a3.47,3.47,0,0,1,1.2.06v-2.89a1.5,1.5,0,0,1-.63.05,1.5,1.5,0,0,0-.8,2.89,25.13,25.13,0,0,0,3.21.81,1.55,1.55,0,0,0,1.85-1,1.51,1.51,0,0,0-1.05-1.84,25.13,25.13,0,0,1-3.21-.81l-.8,2.89a5.09,5.09,0,0,0,2.23-.05,1.51,1.51,0,0,0,0-2.89,6.14,6.14,0,0,0-2-.17,1.54,1.54,0,0,0-1.5,1.5,1.51,1.51,0,0,0,1.5,1.5Z"/><path class="cls-3" d="M44.86,104.1c-.16,3.21-.2,6.78,1.73,9.53s5.71,4.07,8.95,4.67c1.89.36,2.7-2.53.8-2.89-2.66-.5-6.07-1.37-7.54-3.88-1.27-2.18-1.06-5-.94-7.43.09-1.93-2.91-1.93-3,0Z"/><path class="cls-11" d="M49,106.07a5.17,5.17,0,0,0,.78,4.78,4,4,0,0,0,4.51,1.33,1.54,1.54,0,0,0,1.05-1.85,1.52,1.52,0,0,0-1.85-1c-1.52.57-2-1.27-1.6-2.42.61-1.84-2.29-2.62-2.89-.8Z"/><path class="cls-11" d="M44,104.44c.13,1.53-.44,3-.31,4.53a7,7,0,0,0,1.51,3.65c1.85,2.4,4.75,3.33,7.62,3.83,1.89.34,2.7-2.55.8-2.89-2.24-.4-4.85-1-6.21-3s-.23-4-.41-6.15c-.16-1.91-3.16-1.93-3,0Z"/><path class="cls-11" d="M45.39,105.85a1.5,1.5,0,0,0,0-3,1.5,1.5,0,0,0,0,3Z"/><path class="cls-1" d="M138.66,558.43c3-.08,6.16-.21,9.06.78s5.44,3.12,7.82,5.11c1.47,1.24,3.6-.88,2.12-2.12-2.49-2.09-5-4.24-8.09-5.48-3.49-1.41-7.22-1.39-10.91-1.29-1.93.05-1.94,3.05,0,3Z"/><path class="cls-1" d="M77.21,557.16a18.82,18.82,0,0,1,14.29,7c1.24,1.49,3.35-.65,2.12-2.12a21.7,21.7,0,0,0-16.41-7.83c-1.93,0-1.93,3,0,3Z"/><line class="cls-12" x1="98.31" y1="194.15" x2="85.36" y2="212.08"/><rect class="cls-12" x="80.77" y="202.12" width="22.13" height="2" transform="translate(-126.58 158.55) rotate(-54.14)"/><rect class="cls-12" x="125.68" y="192.35" width="2" height="21.65" transform="translate(-94.56 111.61) rotate(-35.57)"/><path class="cls-11" d="M90.7,62a24.47,24.47,0,0,1-4.8,20.3c-1.18,1.52,1.43,3,2.59,1.51A27.42,27.42,0,0,0,93.6,61.19c-.39-1.89-3.28-1.09-2.9.8Z"/><path class="cls-11" d="M160.12,55.22c7,2.6,16.14,20.1,5.71,24.09-1.79.68-1,3.59.79,2.89,13.38-5.11,4.4-26.1-5.7-29.87-1.81-.68-2.59,2.22-.8,2.89Z"/><path class="cls-11" d="M126.25,49.05c5.07-2.53,10.52,1.19,12.68,5.81s2,9.75,1.91,14.68c0,1.93,3,1.93,3,0,.13-6.73.14-14.62-4.75-19.88-3.74-4-9.33-5.71-14.35-3.2-1.73.86-.21,3.44,1.51,2.59Z"/><path class="cls-11" d="M94.17,42.1c9.15-.13,9.19,11.24,8.82,17.62-.11,1.93,2.89,1.92,3,0,.48-8.22-.83-20.78-11.82-20.62-1.93,0-1.93,3,0,3Z"/><path class="cls-11" d="M50,56.36a27.85,27.85,0,0,0-6.45,34.57c.93,1.7,3.52.19,2.59-1.51a24.87,24.87,0,0,1,6-30.94c1.49-1.23-.65-3.35-2.12-2.12Z"/><path d="M938.28,195.84c.77,11.22,4.26,22.43,7.22,33.21,3.32,12.11,6.8,24.22,10.92,36.08,5.24,15.08,13.39,30.55,26.5,40.16,9.64,7.06,21,12.11,31.84,16.95,7.24,3.23,14.57,6.35,22,9.06,4.83,1.76,9.76,3.46,14.94,3.7,7.29.34,13.5-6.44,13.5-13.5,0-7.59-6.19-13.16-13.5-13.5-.92,0,4.18,1,1.7.22-.7-.21-1.43-.34-2.14-.53-2-.57-4.07-1.26-6.07-2q-3.62-1.29-7.19-2.72c-1.15-.46-2.3-.92-3.45-1.4l-2-.84c2.94,1.22-.62-.28-1-.43-10.76-4.67-21.64-9.63-31.54-16-.89-.57-1.74-1.18-2.63-1.76-2.51-1.64,1.88,2,.15.1a71.45,71.45,0,0,1-6.6-7.82,92.33,92.33,0,0,1-6.64-12c-1.38-2.91.09.54-.43-1-.3-.87-.65-1.73-.95-2.59-3.86-10.77-7-21.82-10.12-32.83-1.84-6.55-3.62-13.12-5.22-19.73-.67-2.76-1.31-5.53-1.86-8.31-.21-1-.36-2.08-.57-3.11-.42-2,.35,4,.11.5-.5-7.27-5.84-13.5-13.5-13.5-6.92,0-14,6.19-13.5,13.5Z"/><path d="M856.38,173.1c-10,5.91-17.73,16.39-25.07,25.09-8,9.45-18,19.45-23.32,30.66-4.68,9.78-7.47,20.32-5.16,31.12.83,3.91,2.61,7.62,4.28,11.23.31.68,2.3,4.95,1.06,2.16,1.07,2.42,2.05,4.89,3.11,7.32,6.11,14,12.89,27.78,19.8,41.43,7.27,14.35,14.72,28.65,22.78,42.58,8.69,15,32,1.46,23.31-13.63-13.83-23.9-26.37-48.71-38-73.77q-2-4.29-3.9-8.62c-.55-1.24-1.08-2.47-1.62-3.71,1.12,2.57.34.79.11.25-.68-1.62-1.35-3.25-2.08-4.86-.59-1.31-1.25-2.6-1.83-3.92.89,2,0,0-.11-.38-.25-.86-.53-1.71-.77-2.58,0,0-.33-2.19-.22-1,.13,1.46.06-1.68.09-1.94a31.59,31.59,0,0,1,1.42-5.28c2.82-8.69,10.54-16.53,17-24.29,4.5-5.4,9.05-10.77,13.82-15.93,2-2.15,4-4.28,6.12-6.29.8-.76,1.7-1.45,2.47-2.24,1.06-1.08-2.7,1.68.3-.1,14.92-8.87,1.36-32.22-13.63-23.31Z"/><path d="M927.39,381.28l-40-.41a40.58,40.58,0,0,1-40-40.94l1.26-125c.12-11.83,3.79-29,12-36.33,7.26-6.5,18.65-3.89,29.08-3.79l39.75.41c9.66.1,20.08-2.62,27,3.19,9,7.54,13.11,25.15,13,37.75l-1.26,125A40.58,40.58,0,0,1,927.39,381.28Z"/><path d="M927.8,383.28h-.43l-40-.41a42.51,42.51,0,0,1-42-43l1.26-125c.13-12.87,4.15-30.18,12.65-37.8,6.31-5.66,15.14-5.12,23.68-4.6,2.23.14,4.54.28,6.75.3l39.75.41c2.34,0,4.79-.13,7.17-.27,7.52-.46,15.29-.94,21.09,3.92,9.17,7.7,13.83,25.6,13.69,39.31l-1.26,125a42.58,42.58,0,0,1-42.38,42.1Zm-.39-4h.39a38.58,38.58,0,0,0,38.38-38.14l1.26-125c.13-12.76-4-29.29-12.26-36.19-4.58-3.84-11.23-3.43-18.28-3-2.44.15-5,.3-7.45.28l-39.75-.41c-2.31,0-4.67-.16-7-.3-8.08-.49-15.71-1-20.77,3.58-7.26,6.51-11.19,22.46-11.32,34.86L849.4,340a38.5,38.5,0,0,0,38,38.91Z"/><path class="cls-1" d="M868.19,185.93c-3.47-5.49,1.13-12.19,8.29-12.07l33.39.53,32.89.53c7.39.12,11.91,7.17,8.16,12.72L908.67,250.2Z"/><path d="M908.67,251.2h0a1,1,0,0,1-.83-.47l-40.48-64.26a8.15,8.15,0,0,1-.24-8.56,10.42,10.42,0,0,1,9.4-5l66.28,1.06a10.72,10.72,0,0,1,9.49,5.5,8.36,8.36,0,0,1-.52,8.78L909.5,250.76A1,1,0,0,1,908.67,251.2Zm-32.36-76.34a8.43,8.43,0,0,0-7.47,4,6.21,6.21,0,0,0,.19,6.51h0l39.67,63,41.39-61.29a6.46,6.46,0,0,0,.41-6.74,8.74,8.74,0,0,0-7.75-4.42l-66.28-1.06Z"/><polygon class="cls-2" points="921.08 231.68 908.7 250.2 897.28 231.44 909.76 203 921.08 231.68"/><path d="M852.69,581.37A17,17,0,0,1,836.57,559c4-11.93,11.88-45.41,17.15-88.81,4.4-36.26,8.21-90.28,1.36-141.72a17,17,0,0,1,33.7-4.49c13.4,100.63-10.3,217.05-20,245.85A17,17,0,0,1,852.69,581.37Z"/><path d="M919.46,582.05a17,17,0,0,1-16.12-22.43c4-11.92,11.88-45.4,17.15-88.8,4.4-36.26,8.21-90.28,1.36-141.72a17,17,0,0,1,33.71-4.49c13.4,100.63-10.31,217-20,245.85A17,17,0,0,1,919.46,582.05Z"/><ellipse class="cls-1" cx="908.4" cy="279.92" rx="4.06" ry="4.08"/><ellipse class="cls-1" cx="908.11" cy="309.06" rx="4.06" ry="4.08"/><ellipse class="cls-1" cx="907.78" cy="341.7" rx="4.06" ry="4.08"/><polygon class="cls-2" points="909.79 203.18 921.19 193.4 915.61 183.54 904.3 183.46 898.59 193.24 909.79 203.18"/><rect class="cls-3" x="895.36" y="140.35" width="29.03" height="44.29" rx="14.52" transform="translate(1.7 -9.25) rotate(0.58)"/><path class="cls-4" d="M864.35,338.3a9.9,9.9,0,0,1-10,9.81c-5.45-.06-10.16-.75-10.1-6.22"/><path class="cls-5" d="M854.48,349.11h-.11c-3.9,0-11.16-.12-11.09-7.23a1,1,0,0,1,1-1h0a1,1,0,0,1,1,1c0,4.3,3.17,5.15,9.11,5.21h.09a8.9,8.9,0,0,0,8.87-8.82,1,1,0,0,1,1-1h0a1,1,0,0,1,1,1A10.9,10.9,0,0,1,854.48,349.11Z"/><path class="cls-5" d="M960.08,346.43h-.67a10.91,10.91,0,0,1-10.76-11,1,1,0,0,1,1-1h0a1,1,0,0,1,1,1,8.9,8.9,0,0,0,8.78,9c2.33,0,4.94-.06,6.72-.85s2.47-2,2.5-4.18a1,1,0,0,1,1-1h0a1,1,0,0,1,1,1,6.07,6.07,0,0,1-3.69,6A17.6,17.6,0,0,1,960.08,346.43Z"/><rect class="cls-5" x="933.16" y="241.84" width="24.97" height="4.08" transform="translate(2.53 -9.61) rotate(0.58)"/><path class="cls-5" d="M959.09,247.05l-27-.27.06-6.08,27,.27Zm-24.94-2.25,23,.23,0-2.08-23-.23Z"/><polygon class="cls-1" points="842.92 340.84 853.36 333.38 854.56 335.08 844.13 342.54 842.92 340.84"/><path d="M853.33,333.56l1.06,1.49-10.23,7.31-1.06-1.49,10.23-7.31m.06-.35-10.64,7.6,1.35,1.9,10.64-7.6-1.35-1.9Z"/><path class="cls-6" d="M852.11,331.89a11.22,11.22,0,0,0,4.8,5.07"/><path d="M858,574.31a3.46,3.46,0,0,1,.7.07c3.89.85,8.08,1.25,12,2.4l29.52.3A23.84,23.84,0,0,0,876.61,553l-28.91-.3a4.2,4.2,0,0,0-4.23,4.17l-.2,19.69,10.44.1a2.74,2.74,0,0,1,2.83-2.7A2.8,2.8,0,0,1,858,574.31Z"/><path d="M900.17,579.08h0l-29.53-.3a2,2,0,0,1-.54-.08,63,63,0,0,0-7.2-1.51c-1.52-.25-3.1-.52-4.63-.85l-.26,0a2.37,2.37,0,0,1-1-.29.9.9,0,0,0-.42-.11c-.19,0-.75,0-.81.83a2,2,0,0,1-2,1.87h0l-10.44-.11a2,2,0,0,1-2-2l.2-19.68a6.2,6.2,0,0,1,6.19-6.15h.06l28.91.3a25.87,25.87,0,0,1,25.54,26.15,2,2,0,0,1-2,2Zm-29.23-4.29,27.16.27A21.86,21.86,0,0,0,876.59,555l-28.91-.3a2.44,2.44,0,0,0-1.55.63,2.18,2.18,0,0,0-.66,1.56l-.18,17.69,6.91.07a4.67,4.67,0,0,1,4.3-2.69h.06a4.79,4.79,0,0,1,2,.43,5.81,5.81,0,0,1,.58.09c1.44.31,2.9.56,4.45.82A67.44,67.44,0,0,1,870.94,574.79Z"/><path d="M923.57,576.73a3.39,3.39,0,0,1,.7.07c3.89.84,8.08,1.25,12,2.4l29.53.3a23.86,23.86,0,0,0-23.57-24.14l-28.9-.29a4.21,4.21,0,0,0-4.24,4.16l-.2,19.69,10.45.11a2.73,2.73,0,0,1,2.82-2.7A2.77,2.77,0,0,1,923.57,576.73Z"/><path d="M965.77,581.5h0l-29.53-.3a2,2,0,0,1-.55-.08,62.33,62.33,0,0,0-7.19-1.51c-1.53-.26-3.1-.52-4.63-.86l-.26,0h0a2,2,0,0,1-1-.29.75.75,0,0,0-.43-.11c-.18,0-.75,0-.8.83a2,2,0,0,1-2,1.87h0l-10.45-.11a2,2,0,0,1-2-2l.19-19.69a6.18,6.18,0,0,1,1.86-4.36,6.11,6.11,0,0,1,4.33-1.78h.07l28.9.29a25.9,25.9,0,0,1,25.55,26.16,2,2,0,0,1-.6,1.41A2,2,0,0,1,965.77,581.5Zm-29.23-4.3,27.16.28a21.88,21.88,0,0,0-21.52-20.12l-28.9-.29a2.26,2.26,0,0,0-1.56.63,2.2,2.2,0,0,0-.66,1.55l-.17,17.69,6.9.07a4.79,4.79,0,0,1,4.36-2.68,4.92,4.92,0,0,1,2,.42,4,4,0,0,1,.59.1c1.43.31,2.9.55,4.44.82A67.07,67.07,0,0,1,936.54,577.2Z"/><path class="cls-7" d="M846,551.61c2.11,3.73,6,4,10,4.43,4.31.4,8.32-.38,11.57-3.35,1.43-1.31-.69-3.42-2.12-2.12-2.46,2.24-5.56,2.75-8.79,2.53-2.85-.19-6.53-.3-8.06-3a1.5,1.5,0,0,0-2.59,1.52Z"/><path class="cls-7" d="M912.18,554c2.1,3.73,6,4.06,10,4.43,4.32.4,8.32-.38,11.58-3.35,1.43-1.3-.7-3.42-2.12-2.12-2.46,2.24-5.56,2.75-8.79,2.53-2.86-.19-6.53-.29-8.06-3a1.5,1.5,0,0,0-2.59,1.52Z"/><ellipse class="cls-8" cx="886.91" cy="50.65" rx="26.42" ry="26.52"/><ellipse class="cls-8" cx="913.07" cy="47.42" rx="22.36" ry="22.44"/><ellipse class="cls-8" cx="857.83" cy="54.43" rx="22.36" ry="22.44"/><ellipse class="cls-8" cx="940.91" cy="51.2" rx="22.36" ry="22.44"/><ellipse class="cls-8" cx="956.67" cy="72.05" rx="21.49" ry="21.56"/><ellipse class="cls-8" cx="919.52" cy="69.92" rx="27.87" ry="27.97"/><ellipse class="cls-8" cx="875.03" cy="76.76" rx="25.84" ry="25.93"/><rect class="cls-8" x="852.42" y="88.56" width="15.68" height="27.39" rx="7.84" transform="translate(1.08 -8.75) rotate(0.58)"/><ellipse class="cls-8" cx="845.65" cy="82.58" rx="20.9" ry="20.98"/><path class="cls-3" d="M924.43,153.9l5.28.06,9.29.09,6.73-1a3.63,3.63,0,0,0,1.52-.59h0a21.18,21.18,0,0,0,7.54-9.35h0l1.13-7.42c.07-.48.13-1,.17-1.47l.49-6a21.74,21.74,0,0,0,0-2.91l-.4-6.71-.53-5.83-.49-8.75-.5-7.58,0-2.91-5.8-1.23-5.19-3-4.61-3.54L933.94,80l-1.21,4.65-2.36,3.47L928,90.41l-3.51,2.3L921,94.42l-4.65.53-4.65,0-4.64-.63-4-2.38L900.17,89l-2.87-3.52-2.87-3.53-1.79,4.64-1.79,4.65-2.35,2.89-2.34,1.72-2.92,1.72-2.92,1.72-2.91.55-3.48,0-3.49,0-2.31-1.19-1.72-1.76-.07,6.41-.09,8.74-11-.11.12-11.66-1.75,1.15-2.92,1.14-3.06.58a17.4,17.4,0,0,1-5.53.15l-1.87-.26-.07,7.42a8.14,8.14,0,0,0,.39,2.59h0a12.22,12.22,0,0,0,4.74,6.36h0l4.63,2.38,4.05,1.21,5.65.57a2.08,2.08,0,0,1,1.25.6h0a2.22,2.22,0,0,1,.62,1.56l0,3.76,0,1.8a4.83,4.83,0,0,0,.48,2.11l1.22,2.51,1.56,3.21a3,3,0,0,0,.36.57l2.45,3a4.78,4.78,0,0,0,.45.45l5.29,4.33a3.08,3.08,0,0,0,.48.32l4.37,2.24,4,1.21,2,.81a5.4,5.4,0,0,0,1.93.42l9.45.3"/><path d="M915.67,109.78l-11.6-1.34a3,3,0,0,1-2.65-3.34l0-.21a3,3,0,0,1,3.33-2.66l11.6,1.34a3,3,0,0,1,2.65,3.35l0,.21A3,3,0,0,1,915.67,109.78Z"/><rect x="932.83" y="100.76" width="20.32" height="5.83" rx="2.9" transform="translate(1.1 -9.59) rotate(0.58)"/><ellipse cx="910.19" cy="112.38" rx="4.37" ry="4.17" transform="translate(789.3 1021.48) rotate(-89.46)"/><ellipse cx="945.03" cy="112.73" rx="4.37" ry="4.17" transform="translate(823.45 1056.67) rotate(-89.46)"/><ellipse class="cls-9" cx="928.13" cy="137.62" rx="1.17" ry="11.61" transform="translate(781.07 1064.3) rotate(-89.42)"/><path class="cls-10" d="M932.16,139.31l-4,0c-3.14,0-6.12-.07-8.24-.23-2.32-.19-3.86-.52-3.85-1.56a1,1,0,0,1,.32-.73c.94-.91,4-.92,9.77-.84l2,0c9,.09,12.11.25,12.09,1.78h0c0,1-1.56,1.35-3.88,1.48C935.18,139.29,933.75,139.31,932.16,139.31Zm-9.37-2.41c-2.91,0-5.53.11-5.77.61.5.67,6.38.73,11.1.78s10.28.1,11.08-.56c-.79-.67-6.47-.73-11.06-.77l-2,0Zm17,.84h0Z"/><path class="cls-11" d="M927.18,117.1c.7,2,2.05,3.26,3.12,5,.7,1.12,1.28,2.6.15,3.66s-3,.9-4.38.8c-1.93-.15-1.92,2.85,0,3,3.07.23,6.92-.47,7.9-3.92,1.1-3.89-2.75-6.12-3.9-9.34-.64-1.8-3.54-1-2.89.8Z"/><path class="cls-11" d="M896.59,176l-.56-1.75a11.13,11.13,0,0,1-.46-3.6l.1-17.1a.82.82,0,0,1,.83-.83l20.27.52a.23.23,0,0,1,.09.43l-5.6,2.64a6.45,6.45,0,0,1-1.21.43l-9.9,2.49L899.54,180"/><path class="cls-11" d="M862.09,125.56c-1.24,7.82,3.47,14.91,9.55,19.46,1.55,1.15,3.05-1.45,1.52-2.59-2.18-1.63-3.76-3.92-5.5-6A12.45,12.45,0,0,1,865,126.36c.29-1.89-2.6-2.71-2.9-.8Z"/><path class="cls-11" d="M862.57,126.27c.93,11.25,10.19,17.61,19.2,22.77a1.5,1.5,0,0,0,1.52-2.59c-7.94-4.55-16.89-10.14-17.72-20.18-.15-1.91-3.16-1.93-3,0Z"/><path class="cls-11" d="M864.46,134.52c.39,1.69,1.72,3.14,2.65,4.6a20.84,20.84,0,0,0,4.26,4.91,36.54,36.54,0,0,0,11.73,6.08c1.83.63,2.61-2.26.8-2.89a32.83,32.83,0,0,1-10.4-5.31A17.48,17.48,0,0,1,870,138c-.73-1.1-2.33-3-2.63-4.32-.43-1.88-3.33-1.08-2.89.8Z"/><path class="cls-11" d="M872.51,145c.41.15.77.66,1.12.92a7.67,7.67,0,0,0,1.38.81c1.09.5,2.2.95,3.3,1.42,1.76.76,3.29-1.82,1.52-2.59-1.22-.52-2.48-1-3.67-1.59s-1.72-1.46-2.86-1.86c-1.82-.64-2.61,2.25-.79,2.89Z"/><path class="cls-11" d="M871.73,144.63l2.38,1.29a1.5,1.5,0,1,0,1.51-2.59L873.24,142a1.5,1.5,0,1,0-1.51,2.59Z"/><path class="cls-11" d="M873.34,145.55a1.5,1.5,0,0,0,0-3,1.5,1.5,0,0,0,0,3Z"/><path class="cls-11" d="M871.15,143.45c.77,2.1,2.63,2.93,4.49,4a48.49,48.49,0,0,0,7.13,2.87c1.82.64,2.61-2.25.8-2.9a50.7,50.7,0,0,1-5.36-2c-1.07-.52-3.73-1.54-4.17-2.73-.66-1.8-3.56-1-2.89.8Z"/><path class="cls-11" d="M869.35,142.11a23.78,23.78,0,0,0,14.43,8.79c1.88.36,2.69-2.53.79-2.89-4.62-.88-9.86-3.62-12.63-7.41-1.13-1.54-3.74,0-2.59,1.51Z"/><path class="cls-11" d="M881.47,149.14l5.55,2.35a1.57,1.57,0,0,0,2.06-.54,1.51,1.51,0,0,0-.54-2L883,146.54a1.58,1.58,0,0,0-2.06.54,1.53,1.53,0,0,0,.54,2.06Z"/><path class="cls-11" d="M884.29,150.75a3.47,3.47,0,0,1,1.2.06v-2.89a1.5,1.5,0,0,1-.63.05,1.5,1.5,0,0,0-.8,2.89,25.13,25.13,0,0,0,3.21.81,1.55,1.55,0,0,0,1.85-1,1.51,1.51,0,0,0-1-1.84,25.13,25.13,0,0,1-3.21-.81l-.8,2.89a5.09,5.09,0,0,0,2.23-.05,1.51,1.51,0,0,0,0-2.89,6.14,6.14,0,0,0-2-.17,1.54,1.54,0,0,0-1.5,1.5,1.51,1.51,0,0,0,1.5,1.5Z"/><path class="cls-3" d="M845.36,104.1c-.16,3.21-.2,6.78,1.73,9.53s5.71,4.07,8.95,4.67c1.89.36,2.7-2.53.8-2.89-2.66-.5-6.07-1.37-7.54-3.88-1.27-2.18-1.06-5-.94-7.43.09-1.93-2.91-1.93-3,0Z"/><path class="cls-11" d="M849.47,106.07a5.17,5.17,0,0,0,.78,4.78,4,4,0,0,0,4.51,1.33,1.54,1.54,0,0,0,1-1.85,1.52,1.52,0,0,0-1.85-1c-1.52.57-2-1.27-1.6-2.42.61-1.84-2.29-2.62-2.89-.8Z"/><path class="cls-11" d="M844.52,104.44c.13,1.53-.44,3-.31,4.53a7,7,0,0,0,1.51,3.65c1.85,2.4,4.75,3.33,7.62,3.83,1.89.34,2.7-2.55.8-2.89-2.24-.4-4.85-1-6.21-3s-.23-4-.41-6.15c-.16-1.91-3.16-1.93-3,0Z"/><path class="cls-11" d="M845.89,105.85a1.5,1.5,0,0,0,0-3,1.5,1.5,0,0,0,0,3Z"/><path class="cls-1" d="M939.16,558.43c3-.08,6.16-.21,9.06.78s5.44,3.12,7.82,5.11c1.47,1.24,3.6-.88,2.12-2.12-2.49-2.09-5-4.24-8.09-5.48-3.49-1.41-7.22-1.39-10.91-1.29-1.93.05-1.94,3.05,0,3Z"/><path class="cls-1" d="M877.71,557.16a18.82,18.82,0,0,1,14.29,7c1.24,1.49,3.35-.65,2.12-2.12a21.7,21.7,0,0,0-16.41-7.83c-1.93,0-1.93,3,0,3Z"/><line class="cls-12" x1="898.81" y1="194.15" x2="885.86" y2="212.08"/><rect class="cls-12" x="881.27" y="202.12" width="22.13" height="2" transform="translate(204.95 807.29) rotate(-54.14)"/><rect class="cls-12" x="926.18" y="192.35" width="2" height="21.65" transform="translate(54.84 577.31) rotate(-35.57)"/><path class="cls-11" d="M891.2,62a24.47,24.47,0,0,1-4.8,20.3c-1.18,1.52,1.43,3,2.59,1.51a27.42,27.42,0,0,0,5.11-22.61c-.39-1.89-3.28-1.09-2.9.8Z"/><path class="cls-11" d="M960.62,55.22c7,2.6,16.14,20.1,5.71,24.09-1.79.68-1,3.59.79,2.89,13.38-5.11,4.4-26.1-5.7-29.87-1.81-.68-2.59,2.22-.8,2.89Z"/><path class="cls-11" d="M926.75,49.05c5.07-2.53,10.52,1.19,12.68,5.81s2,9.75,1.91,14.68c0,1.93,3,1.93,3,0,.13-6.73.14-14.62-4.75-19.88-3.74-4-9.33-5.71-14.35-3.2-1.73.86-.21,3.44,1.51,2.59Z"/><path class="cls-11" d="M894.67,42.1c9.15-.13,9.19,11.24,8.82,17.62-.11,1.93,2.89,1.92,3,0,.48-8.22-.83-20.78-11.82-20.62-1.93,0-1.93,3,0,3Z"/><path class="cls-11" d="M850.52,56.36a27.85,27.85,0,0,0-6.45,34.57c.93,1.7,3.52.19,2.59-1.51a24.87,24.87,0,0,1,6-30.94c1.49-1.23-.65-3.35-2.12-2.12Z"/><ellipse class="cls-3" cx="1068.95" cy="334.03" rx="16.62" ry="16.56" transform="translate(127.47 940.53) rotate(-50.14)"/><rect class="cls-3" x="1080.16" y="306.42" width="8.49" height="22.16" rx="4.25" transform="translate(585.63 -696.39) rotate(47.49)"/><ellipse class="cls-13" cx="1087.09" cy="310.31" rx="2.98" ry="0.85" transform="translate(19.23 681.42) rotate(-35.1)"/><rect class="cls-3" x="1077.28" y="340.32" width="31.86" height="6.82" rx="3.4" transform="translate(474.3 -620.74) rotate(39.86)"/><rect class="cls-3" x="1072.92" y="340.86" width="22.93" height="7.67" rx="3.82" transform="translate(472.87 -614.86) rotate(39.86)"/><rect class="cls-3" x="1066.59" y="344.46" width="22.93" height="7.67" rx="3.82" transform="matrix(0.77, 0.64, -0.64, 0.77, 473.7, -609.97)"/><rect class="cls-3" x="1059.26" y="346.16" width="20.38" height="7.67" rx="3.82" transform="translate(472.79 -604.06) rotate(39.86)"/><ellipse class="cls-13" cx="1083.13" cy="344.2" rx="2.56" ry="3.4" transform="translate(124.76 955.08) rotate(-50.14)"/><ellipse class="cls-13" cx="1078.01" cy="347.7" rx="2.56" ry="3.4" transform="translate(120.23 952.39) rotate(-50.14)"/><ellipse class="cls-13" cx="1070.22" cy="349.52" rx="2.13" ry="2.83" transform="translate(116.04 947.07) rotate(-50.14)"/><line class="cls-14" x1="1097.25" y1="360.43" x2="1096.7" y2="361.08"/><path class="cls-11" d="M1094.39,348.86a.27.27,0,0,1-.16-.06l-9.12-7.62a.24.24,0,0,1,0-.35.25.25,0,0,1,.35,0l9.12,7.63a.25.25,0,0,1-.16.44Z"/><path class="cls-11" d="M1087.42,351.92a.23.23,0,0,1-.16-.06l-9.13-7.62a.25.25,0,0,1,0-.36.26.26,0,0,1,.35,0l9.13,7.62a.26.26,0,0,1,0,.36A.28.28,0,0,1,1087.42,351.92Z"/><path class="cls-11" d="M1078.48,353.34a.27.27,0,0,1-.16-.06l-9.12-7.62a.25.25,0,1,1,.32-.38l9.12,7.62a.24.24,0,0,1,0,.35A.25.25,0,0,1,1078.48,353.34Z"/><rect class="cls-1" x="1047.17" y="321.05" width="23.55" height="5.77" transform="translate(121.64 913.65) rotate(-49.19)"/><path d="M1064.46,313.31l4.18,3.61-15.22,17.64-4.18-3.61,15.22-17.64m0-.35-15.56,18,4.56,3.94,15.56-18-4.56-3.94Z"/><path d="M1342.28,187.84c.77,11.22,4.26,22.43,7.22,33.21,3.32,12.11,6.8,24.22,10.92,36.08,5.24,15.08,13.39,30.55,26.5,40.16,9.64,7.06,21,12.11,31.84,16.95,7.24,3.23,14.57,6.35,22,9.06,4.83,1.76,9.76,3.46,14.94,3.7,7.29.34,13.5-6.44,13.5-13.5,0-7.59-6.19-13.16-13.5-13.5-.92,0,4.18,1,1.7.22-.7-.21-1.43-.34-2.14-.53-2-.57-4.07-1.26-6.07-2q-3.62-1.29-7.19-2.72c-1.15-.46-2.3-.92-3.45-1.4l-2-.84c2.94,1.22-.62-.28-1-.43-10.76-4.67-21.64-9.63-31.54-16-.89-.57-1.74-1.18-2.63-1.76-2.51-1.64,1.88,2,.15.1a71.45,71.45,0,0,1-6.6-7.82,92.33,92.33,0,0,1-6.64-12c-1.38-2.91.09.54-.43-1-.3-.87-.65-1.73-1-2.59-3.86-10.77-7-21.82-10.12-32.83-1.84-6.55-3.62-13.12-5.22-19.73-.67-2.76-1.31-5.53-1.86-8.31-.21-1-.36-2.08-.57-3.11-.42-2,.35,4,.11.5-.5-7.27-5.84-13.5-13.5-13.5-6.92,0-14,6.19-13.5,13.5Z"/><ellipse class="cls-3" cx="1472.55" cy="314.61" rx="16.56" ry="16.62"/><rect class="cls-3" x="1469.57" y="280.94" width="8.49" height="22.16" rx="4.25" transform="translate(51.82 -193.08) rotate(7.63)"/><ellipse class="cls-13" cx="1471.27" cy="284.78" rx="2.98" ry="0.85" transform="translate(814.28 1631.66) rotate(-74.95)"/><rect class="cls-3" x="1481.46" y="303.11" width="40.77" height="6.82" rx="3.4"/><rect class="cls-3" x="1479.76" y="309.07" width="22.93" height="7.67" rx="3.82"/><rect class="cls-3" x="1477.22" y="315.89" width="22.93" height="7.67" rx="3.82"/><rect class="cls-3" x="1472.97" y="322.71" width="20.38" height="7.67" rx="3.82"/><ellipse class="cls-13" cx="1489.96" cy="313.34" rx="3.4" ry="2.56"/><ellipse class="cls-13" cx="1488.26" cy="319.3" rx="3.4" ry="2.56"/><ellipse class="cls-13" cx="1483.45" cy="325.7" rx="2.83" ry="2.13"/><path class="cls-11" d="M1501.42,309.75h-11.89a.25.25,0,0,1,0-.5h11.89a.25.25,0,0,1,0,.5Z"/><path class="cls-11" d="M1498,316.57h-11.9a.25.25,0,0,1,0-.5H1498a.25.25,0,0,1,0,.5Z"/><path class="cls-11" d="M1492.08,323.39h-11.89a.25.25,0,0,1,0-.5h11.89a.25.25,0,0,1,0,.5Z"/><rect class="cls-1" x="1455.64" y="303.38" width="5.77" height="21.77"/><path d="M1461.28,303.5V325h-5.52V303.5h5.52m.25-.25h-6v22h6v-22Z"/><path d="M1256.38,173.1c-10,5.91-17.73,16.39-25.07,25.09-8,9.45-18,19.45-23.32,30.66-4.68,9.78-7.47,20.32-5.16,31.12.83,3.91,2.61,7.62,4.28,11.23.31.68,2.3,4.95,1.06,2.16,1.07,2.42,2,4.89,3.11,7.32,6.11,14,12.89,27.78,19.8,41.43,7.27,14.35,14.72,28.65,22.78,42.58,8.69,15,32,1.46,23.31-13.63-13.83-23.9-26.37-48.71-38-73.77q-2-4.29-3.9-8.62c-.55-1.24-1.08-2.47-1.62-3.71,1.12,2.57.34.79.11.25-.68-1.62-1.35-3.25-2.08-4.86-.59-1.31-1.25-2.6-1.83-3.92.89,2,0,0-.11-.38-.25-.86-.53-1.71-.77-2.58,0,0-.33-2.19-.22-1,.13,1.46.06-1.68.09-1.94a31.59,31.59,0,0,1,1.42-5.28c2.82-8.69,10.54-16.53,17-24.29,4.5-5.4,9-10.77,13.82-15.93,2-2.15,4-4.28,6.12-6.29.8-.76,1.7-1.45,2.47-2.24,1.06-1.08-2.7,1.68.3-.1,14.92-8.87,1.36-32.22-13.63-23.31Z"/><path d="M1327.39,381.28l-40-.41a40.58,40.58,0,0,1-40-40.94l1.26-125c.12-11.83,3.79-29,12-36.33,7.26-6.5,18.65-3.89,29.08-3.79l39.75.41c9.66.1,20.08-2.62,27,3.19,9,7.54,13.11,25.15,13,37.75l-1.26,125A40.58,40.58,0,0,1,1327.39,381.28Z"/><path d="M1327.8,383.28h-.43l-40-.41a42.51,42.51,0,0,1-41.95-43l1.26-125c.13-12.87,4.15-30.18,12.65-37.8,6.31-5.66,15.14-5.12,23.68-4.6,2.23.14,4.54.28,6.75.3l39.75.41c2.34,0,4.79-.13,7.17-.27,7.52-.46,15.29-.94,21.09,3.92,9.17,7.7,13.83,25.6,13.69,39.31l-1.26,125a42.58,42.58,0,0,1-42.38,42.1Zm-.39-4h.39a38.58,38.58,0,0,0,38.38-38.14l1.26-125c.13-12.76-4-29.29-12.26-36.19-4.58-3.84-11.23-3.43-18.28-3-2.44.15-5,.3-7.45.28l-39.75-.41c-2.31,0-4.67-.16-7-.3-8.08-.49-15.71-1-20.77,3.58-7.26,6.51-11.19,22.46-11.32,34.86l-1.26,125a38.5,38.5,0,0,0,38,38.91Z"/><path class="cls-1" d="M1268.19,185.93c-3.47-5.49,1.13-12.19,8.29-12.07l33.39.53,32.89.53c7.39.12,11.91,7.17,8.16,12.72l-42.25,62.56Z"/><path d="M1308.67,251.2h0a1,1,0,0,1-.83-.47l-40.48-64.26a8.13,8.13,0,0,1-.24-8.56,10.4,10.4,0,0,1,9.4-5l66.28,1.06a10.72,10.72,0,0,1,9.49,5.5,8.36,8.36,0,0,1-.52,8.78l-42.25,62.56A1,1,0,0,1,1308.67,251.2Zm-32.36-76.34a8.43,8.43,0,0,0-7.47,4,6.21,6.21,0,0,0,.19,6.51h0l39.67,63,41.39-61.29a6.46,6.46,0,0,0,.41-6.74,8.74,8.74,0,0,0-7.75-4.42l-66.28-1.06Z"/><polygon class="cls-2" points="1321.08 231.68 1308.7 250.2 1297.28 231.44 1309.76 203 1321.08 231.68"/><path d="M1252.69,581.37A17,17,0,0,1,1236.57,559c4-11.93,11.88-45.41,17.15-88.81,4.4-36.26,8.21-90.28,1.36-141.72a17,17,0,0,1,33.7-4.49c13.4,100.63-10.3,217.05-20,245.85A17,17,0,0,1,1252.69,581.37Z"/><path d="M1319.46,582.05a17,17,0,0,1-16.12-22.43c4-11.92,11.88-45.4,17.15-88.8,4.4-36.26,8.21-90.28,1.36-141.72a17,17,0,0,1,33.71-4.49c13.4,100.63-10.31,217-20,245.85A17,17,0,0,1,1319.46,582.05Z"/><ellipse class="cls-1" cx="1308.4" cy="279.92" rx="4.06" ry="4.08"/><ellipse class="cls-1" cx="1308.11" cy="309.06" rx="4.06" ry="4.08"/><ellipse class="cls-1" cx="1307.78" cy="341.7" rx="4.06" ry="4.08"/><polygon class="cls-2" points="1309.79 203.18 1321.19 193.4 1315.61 183.54 1304.3 183.46 1298.59 193.24 1309.79 203.18"/><rect class="cls-3" x="1295.36" y="140.35" width="29.03" height="44.29" rx="14.52" transform="translate(1.72 -13.32) rotate(0.58)"/><path class="cls-4" d="M1264.35,338.3a9.9,9.9,0,0,1-10,9.81c-5.45-.06-10.16-.75-10.1-6.22"/><path class="cls-5" d="M1254.48,349.11h-.11c-3.9,0-11.16-.12-11.09-7.23a1,1,0,0,1,1-1,1,1,0,0,1,1,1c0,4.3,3.17,5.15,9.11,5.21h.09a8.9,8.9,0,0,0,8.87-8.82,1,1,0,0,1,1-1h0a1,1,0,0,1,1,1A10.9,10.9,0,0,1,1254.48,349.11Z"/><path class="cls-5" d="M1360.08,346.43h-.67a10.91,10.91,0,0,1-10.76-11,1,1,0,0,1,1-1,1,1,0,0,1,1,1,8.9,8.9,0,0,0,8.78,9c2.33,0,4.94-.06,6.72-.85s2.47-2,2.5-4.18a1,1,0,0,1,1-1h0a1,1,0,0,1,1,1,6.07,6.07,0,0,1-3.69,6A17.6,17.6,0,0,1,1360.08,346.43Z"/><rect class="cls-5" x="1333.16" y="241.84" width="24.97" height="4.08" transform="translate(2.55 -13.68) rotate(0.58)"/><path class="cls-5" d="M1359.09,247.05l-27-.27.06-6.08,27,.27Zm-24.94-2.25,23,.23,0-2.08-23-.23Z"/><polygon class="cls-1" points="1242.92 340.84 1253.36 333.38 1254.56 335.08 1244.13 342.54 1242.92 340.84"/><path d="M1253.33,333.56l1.06,1.49-10.23,7.31-1.06-1.49,10.23-7.31m.06-.35-10.64,7.6,1.35,1.9,10.64-7.6-1.35-1.9Z"/><path class="cls-6" d="M1252.11,331.89a11.22,11.22,0,0,0,4.8,5.07"/><path d="M1258,574.31a3.46,3.46,0,0,1,.7.07c3.89.85,8.08,1.25,12,2.4l29.52.3A23.84,23.84,0,0,0,1276.61,553l-28.91-.3a4.2,4.2,0,0,0-4.23,4.17l-.2,19.69,10.44.1a2.74,2.74,0,0,1,2.83-2.7A2.8,2.8,0,0,1,1258,574.31Z"/><path d="M1300.17,579.08h0l-29.53-.3a2,2,0,0,1-.54-.08,63,63,0,0,0-7.2-1.51c-1.52-.25-3.1-.52-4.63-.85a1.15,1.15,0,0,0-.26,0h0a2,2,0,0,1-1-.29.82.82,0,0,0-.42-.11c-.19,0-.75,0-.81.83a2,2,0,0,1-2,1.87h0l-10.44-.11a2,2,0,0,1-2-2l.2-19.68a6.2,6.2,0,0,1,6.19-6.15h.06l28.91.3a25.87,25.87,0,0,1,25.54,26.15,2,2,0,0,1-2,2Zm-29.23-4.29,27.16.27A21.86,21.86,0,0,0,1276.59,555l-28.91-.3a2.06,2.06,0,0,0-1.55.63,2.18,2.18,0,0,0-.66,1.56l-.18,17.69,6.91.07a4.67,4.67,0,0,1,4.3-2.69h.06a4.79,4.79,0,0,1,2,.43,5.81,5.81,0,0,1,.58.09c1.44.31,2.9.56,4.45.82A67,67,0,0,1,1270.94,574.79Z"/><path d="M1323.57,576.73a3.39,3.39,0,0,1,.7.07c3.89.84,8.08,1.25,12,2.4l29.53.3a23.86,23.86,0,0,0-23.57-24.14l-28.9-.29a4.21,4.21,0,0,0-4.24,4.16l-.2,19.69,10.45.11a2.73,2.73,0,0,1,2.82-2.7A2.77,2.77,0,0,1,1323.57,576.73Z"/><path d="M1365.77,581.5h0l-29.53-.3a2,2,0,0,1-.55-.08,62.33,62.33,0,0,0-7.19-1.51c-1.53-.26-3.1-.52-4.63-.86l-.26,0h0a2,2,0,0,1-1-.29.75.75,0,0,0-.43-.11c-.18,0-.75,0-.8.83a2,2,0,0,1-2,1.87h0l-10.45-.11a2,2,0,0,1-2-2l.19-19.69a6.18,6.18,0,0,1,1.86-4.36,6.11,6.11,0,0,1,4.33-1.78h.07l28.9.29a25.9,25.9,0,0,1,25.55,26.16,2,2,0,0,1-.6,1.41A2,2,0,0,1,1365.77,581.5Zm-29.23-4.3,27.16.28a21.88,21.88,0,0,0-21.52-20.12l-28.9-.29a2.32,2.32,0,0,0-1.56.63,2.2,2.2,0,0,0-.66,1.55l-.17,17.69,6.9.07a4.67,4.67,0,0,1,4.31-2.68h.05a4.92,4.92,0,0,1,2,.42,4,4,0,0,1,.59.1c1.43.31,2.9.55,4.44.82A67.07,67.07,0,0,1,1336.54,577.2Z"/><path class="cls-7" d="M1246,551.61c2.11,3.73,6,4,10,4.43,4.31.4,8.32-.38,11.57-3.35,1.43-1.31-.69-3.42-2.12-2.12-2.46,2.24-5.56,2.75-8.79,2.53-2.85-.19-6.53-.3-8.06-3a1.5,1.5,0,0,0-2.59,1.52Z"/><path class="cls-7" d="M1312.18,554c2.1,3.73,6,4.06,10,4.43,4.32.4,8.32-.38,11.58-3.35,1.43-1.3-.7-3.42-2.12-2.12-2.46,2.24-5.56,2.75-8.79,2.53-2.86-.19-6.53-.29-8.06-3a1.5,1.5,0,0,0-2.59,1.52Z"/><ellipse class="cls-8" cx="1286.91" cy="50.65" rx="26.42" ry="26.52"/><ellipse class="cls-8" cx="1313.07" cy="47.42" rx="22.36" ry="22.44"/><ellipse class="cls-8" cx="1257.83" cy="54.43" rx="22.36" ry="22.44"/><ellipse class="cls-8" cx="1340.91" cy="51.2" rx="22.36" ry="22.44"/><ellipse class="cls-8" cx="1356.67" cy="72.05" rx="21.49" ry="21.56"/><ellipse class="cls-8" cx="1319.52" cy="69.92" rx="27.87" ry="27.97"/><ellipse class="cls-8" cx="1275.03" cy="76.76" rx="25.84" ry="25.93"/><rect class="cls-8" x="1252.42" y="88.56" width="15.68" height="27.39" rx="7.84" transform="translate(1.11 -12.82) rotate(0.58)"/><ellipse class="cls-8" cx="1245.65" cy="82.58" rx="20.9" ry="20.98"/><path class="cls-3" d="M1324.43,153.9l5.28.06,9.29.09,6.73-1a3.63,3.63,0,0,0,1.52-.59h0a21.18,21.18,0,0,0,7.54-9.35h0l1.13-7.42c.07-.48.13-1,.17-1.47l.49-6a21.74,21.74,0,0,0,0-2.91l-.4-6.71-.53-5.83-.49-8.75-.5-7.58,0-2.91-5.8-1.23-5.19-3-4.61-3.54L1333.94,80l-1.21,4.65-2.36,3.47L1328,90.41l-3.51,2.3-3.5,1.71-4.65.53-4.65,0-4.64-.63-4-2.38L1300.17,89l-2.87-3.52-2.87-3.53-1.79,4.64-1.79,4.65-2.35,2.89-2.34,1.72-2.92,1.72-2.92,1.72-2.91.55-3.48,0-3.49,0-2.31-1.19-1.72-1.76-.07,6.41-.09,8.74-11-.11.12-11.66-1.75,1.15-2.92,1.14-3.06.58a17.4,17.4,0,0,1-5.53.15l-1.87-.26-.07,7.42a8.14,8.14,0,0,0,.39,2.59h0a12.22,12.22,0,0,0,4.74,6.36h0l4.63,2.38,4,1.21,5.65.57a2.08,2.08,0,0,1,1.25.6h0a2.22,2.22,0,0,1,.62,1.56l0,3.76,0,1.8a4.83,4.83,0,0,0,.48,2.11l1.22,2.51,1.56,3.21a3,3,0,0,0,.36.57l2.45,3a4.78,4.78,0,0,0,.45.45l5.29,4.33a3.08,3.08,0,0,0,.48.32l4.37,2.24,4,1.21,2,.81a5.4,5.4,0,0,0,1.93.42l9.45.3"/><path d="M1315.24,110.34l-11.39-2.57a3,3,0,0,1-2.28-3.61l0-.2a3,3,0,0,1,3.6-2.29l11.4,2.57a3,3,0,0,1,2.27,3.61l0,.21A3,3,0,0,1,1315.24,110.34Z"/><rect x="1332.83" y="100.76" width="20.32" height="5.83" rx="2.9" transform="translate(1.12 -13.66) rotate(0.58)"/><ellipse cx="1310.19" cy="112.38" rx="4.37" ry="4.17" transform="translate(1185.55 1421.46) rotate(-89.46)"/><ellipse cx="1345.03" cy="112.73" rx="4.37" ry="4.17" transform="translate(1219.71 1456.65) rotate(-89.46)"/><ellipse class="cls-9" cx="1328.13" cy="137.62" rx="1.17" ry="11.61" transform="translate(1177 1464.28) rotate(-89.42)"/><path class="cls-10" d="M1332.16,139.31l-4.05,0c-3.14,0-6.12-.07-8.24-.23-2.32-.19-3.86-.52-3.85-1.56a1,1,0,0,1,.32-.73c.93-.91,4-.92,9.77-.84l2,0c9,.09,12.11.25,12.09,1.78h0c0,1-1.56,1.35-3.88,1.48C1335.18,139.29,1333.75,139.31,1332.16,139.31Zm-9.37-2.41c-2.91,0-5.53.11-5.77.61.5.67,6.38.73,11.1.78s10.28.1,11.08-.56c-.79-.67-6.47-.73-11.06-.77l-2.05,0Zm17,.84h0Z"/><path class="cls-11" d="M1327.18,117.1c.7,2,2,3.26,3.12,5,.7,1.12,1.28,2.6.15,3.66s-3,.9-4.38.8c-1.93-.15-1.92,2.85,0,3,3.07.23,6.92-.47,7.9-3.92,1.1-3.89-2.75-6.12-3.9-9.34-.64-1.8-3.54-1-2.89.8Z"/><path class="cls-11" d="M1296.59,176l-.56-1.75a11.13,11.13,0,0,1-.46-3.6l.1-17.1a.82.82,0,0,1,.83-.83l20.27.52a.23.23,0,0,1,.09.43l-5.6,2.64a6.45,6.45,0,0,1-1.21.43l-9.9,2.49-.61,20.78"/><path class="cls-11" d="M1262.09,125.56c-1.24,7.82,3.47,14.91,9.55,19.46,1.55,1.15,3-1.45,1.52-2.59-2.18-1.63-3.76-3.92-5.5-6a12.45,12.45,0,0,1-2.67-10.07c.29-1.89-2.6-2.71-2.9-.8Z"/><path class="cls-11" d="M1262.57,126.27c.93,11.25,10.19,17.61,19.2,22.77a1.5,1.5,0,0,0,1.52-2.59c-7.94-4.55-16.89-10.14-17.72-20.18-.15-1.91-3.16-1.93-3,0Z"/><path class="cls-11" d="M1264.46,134.52c.39,1.69,1.72,3.14,2.65,4.6a20.84,20.84,0,0,0,4.26,4.91,36.54,36.54,0,0,0,11.73,6.08c1.83.63,2.61-2.26.8-2.89a32.83,32.83,0,0,1-10.4-5.31A17.48,17.48,0,0,1,1270,138c-.73-1.1-2.33-3-2.63-4.32-.43-1.88-3.33-1.08-2.89.8Z"/><path class="cls-11" d="M1272.51,145c.41.15.77.66,1.12.92a7.67,7.67,0,0,0,1.38.81c1.09.5,2.2.95,3.3,1.42,1.76.76,3.29-1.82,1.52-2.59-1.22-.52-2.48-1-3.67-1.59s-1.72-1.46-2.86-1.86c-1.82-.64-2.61,2.25-.79,2.89Z"/><path class="cls-11" d="M1271.73,144.63l2.38,1.29a1.5,1.5,0,1,0,1.51-2.59l-2.38-1.29a1.5,1.5,0,1,0-1.51,2.59Z"/><path class="cls-11" d="M1273.34,145.55a1.5,1.5,0,0,0,0-3,1.5,1.5,0,0,0,0,3Z"/><path class="cls-11" d="M1271.15,143.45c.77,2.1,2.63,2.93,4.49,4a48.49,48.49,0,0,0,7.13,2.87c1.82.64,2.61-2.25.8-2.9a50.7,50.7,0,0,1-5.36-2c-1.07-.52-3.73-1.54-4.17-2.73-.66-1.8-3.56-1-2.89.8Z"/><path class="cls-11" d="M1269.35,142.11a23.78,23.78,0,0,0,14.43,8.79c1.88.36,2.69-2.53.79-2.89-4.62-.88-9.86-3.62-12.63-7.41-1.13-1.54-3.74,0-2.59,1.51Z"/><path class="cls-11" d="M1281.47,149.14l5.55,2.35a1.57,1.57,0,0,0,2.06-.54,1.51,1.51,0,0,0-.54-2l-5.55-2.36a1.58,1.58,0,0,0-2.06.54,1.53,1.53,0,0,0,.54,2.06Z"/><path class="cls-11" d="M1284.29,150.75a3.47,3.47,0,0,1,1.2.06v-2.89a1.5,1.5,0,0,1-.63.05,1.5,1.5,0,0,0-.8,2.89,25.13,25.13,0,0,0,3.21.81,1.55,1.55,0,0,0,1.85-1,1.51,1.51,0,0,0-1-1.84,25.13,25.13,0,0,1-3.21-.81l-.8,2.89a5.09,5.09,0,0,0,2.23-.05,1.51,1.51,0,0,0,0-2.89,6.14,6.14,0,0,0-2-.17,1.54,1.54,0,0,0-1.5,1.5,1.51,1.51,0,0,0,1.5,1.5Z"/><path class="cls-3" d="M1245.36,104.1c-.16,3.21-.2,6.78,1.73,9.53s5.71,4.07,9,4.67c1.89.36,2.7-2.53.8-2.89-2.66-.5-6.07-1.37-7.54-3.88-1.27-2.18-1.06-5-.94-7.43.09-1.93-2.91-1.93-3,0Z"/><path class="cls-11" d="M1249.47,106.07a5.17,5.17,0,0,0,.78,4.78,4,4,0,0,0,4.51,1.33,1.54,1.54,0,0,0,1-1.85,1.52,1.52,0,0,0-1.85-1c-1.52.57-2-1.27-1.6-2.42.61-1.84-2.29-2.62-2.89-.8Z"/><path class="cls-11" d="M1244.52,104.44c.13,1.53-.44,3-.31,4.53a7,7,0,0,0,1.51,3.65c1.85,2.4,4.75,3.33,7.62,3.83,1.89.34,2.7-2.55.8-2.89-2.24-.4-4.85-1-6.21-3s-.23-4-.41-6.15c-.16-1.91-3.16-1.93-3,0Z"/><path class="cls-11" d="M1245.89,105.85a1.5,1.5,0,0,0,0-3,1.5,1.5,0,0,0,0,3Z"/><path class="cls-1" d="M1339.16,558.43c3-.08,6.16-.21,9.06.78s5.44,3.12,7.82,5.11c1.47,1.24,3.6-.88,2.12-2.12-2.49-2.09-5.05-4.24-8.09-5.48-3.49-1.41-7.22-1.39-10.91-1.29-1.93.05-1.94,3.05,0,3Z"/><path class="cls-1" d="M1277.71,557.16a18.82,18.82,0,0,1,14.29,7c1.24,1.49,3.35-.65,2.12-2.12a21.7,21.7,0,0,0-16.41-7.83c-1.93,0-1.93,3,0,3Z"/><line class="cls-12" x1="1298.81" y1="194.15" x2="1285.86" y2="212.08"/><rect class="cls-12" x="1281.27" y="202.12" width="22.13" height="2" transform="translate(370.61 1131.46) rotate(-54.14)"/><rect class="cls-12" x="1326.18" y="192.35" width="2" height="21.65" transform="translate(129.49 810.01) rotate(-35.57)"/><path class="cls-11" d="M1291.2,62a24.47,24.47,0,0,1-4.8,20.3c-1.18,1.52,1.43,3,2.59,1.51a27.42,27.42,0,0,0,5.11-22.61c-.39-1.89-3.28-1.09-2.9.8Z"/><path class="cls-11" d="M1360.62,55.22c7,2.6,16.14,20.1,5.71,24.09-1.79.68-1,3.59.79,2.89,13.38-5.11,4.4-26.1-5.7-29.87-1.81-.68-2.59,2.22-.8,2.89Z"/><path class="cls-11" d="M1326.75,49.05c5.07-2.53,10.52,1.19,12.68,5.81s2,9.75,1.91,14.68c0,1.93,3,1.93,3,0,.13-6.73.14-14.62-4.75-19.88-3.74-4-9.33-5.71-14.35-3.2-1.73.86-.21,3.44,1.51,2.59Z"/><path class="cls-11" d="M1294.67,42.1c9.15-.13,9.19,11.24,8.82,17.62-.11,1.93,2.89,1.92,3,0,.48-8.22-.83-20.78-11.82-20.62-1.93,0-1.93,3,0,3Z"/><path class="cls-11" d="M1250.52,56.36a27.85,27.85,0,0,0-6.45,34.57c.93,1.7,3.52.19,2.59-1.51a24.87,24.87,0,0,1,6-30.94c1.49-1.23-.65-3.35-2.12-2.12Z"/><path d="M542.16,189.68c.4,10.1,2.37,20.27,3.86,30.25,1.68,11.26,3.44,22.52,5.47,33.72,2.44,13.49,5.57,28.06,12.11,40.2,5.68,10.54,13.71,20.06,21.14,29.37,6.3,7.89,12.8,15.63,19.39,23.29,4.76,5.53,14.21,4.88,19.09,0,5.48-5.49,4.77-13.55,0-19.1q-7.8-9.06-15.38-18.32-2.76-3.39-5.48-6.81L599.8,299c-1.28-1.64,1.2,1.58,0-.07L598,296.62c-3.13-4.17-6.22-8.41-9-12.84-1-1.68-1.94-3.41-2.9-5.13-1.17-2.12,1.26,3.64-.16-.56-.92-2.72-1.88-5.42-2.73-8.17A198.11,198.11,0,0,1,578,249c-1.91-10.06-3.47-20.19-5-30.31q-.81-5.25-1.57-10.5c-.22-1.47-.43-2.94-.64-4.41-.09-.7-.19-1.4-.29-2.11-.38-2.65.22,1.76,0,.1-.5-4-1.14-8-1.3-12-.28-7.29-6-13.5-13.5-13.5-7.09,0-13.79,6.18-13.5,13.5Z"/><path d="M456.38,173.1c-9.95,5.91-17.73,16.39-25.07,25.09-8,9.45-18,19.45-23.32,30.66-4.68,9.78-7.47,20.32-5.16,31.12.83,3.91,2.61,7.62,4.28,11.23.31.68,2.3,4.95,1.06,2.16,1.07,2.42,2.05,4.89,3.11,7.32,6.11,14,12.89,27.78,19.8,41.43,7.27,14.35,14.72,28.65,22.78,42.58,8.69,15,32,1.46,23.31-13.63-13.83-23.9-26.37-48.71-38-73.77q-2-4.29-3.9-8.62c-.55-1.24-1.08-2.47-1.62-3.71,1.12,2.57.34.79.11.25-.68-1.62-1.35-3.25-2.08-4.86-.59-1.31-1.25-2.6-1.83-3.92.89,2,0,0-.11-.38-.25-.86-.53-1.71-.77-2.58,0,0-.33-2.19-.22-1,.13,1.46.06-1.68.09-1.94a31.59,31.59,0,0,1,1.42-5.28c2.82-8.69,10.54-16.53,17-24.29,4.5-5.4,9.05-10.77,13.82-15.93,2-2.15,4-4.28,6.12-6.29.8-.76,1.7-1.45,2.47-2.24,1.06-1.08-2.7,1.68.3-.1,14.92-8.87,1.36-32.22-13.63-23.31Z"/><path d="M527.39,381.28l-40-.41a40.58,40.58,0,0,1-40-40.94l1.26-125c.12-11.83,3.79-29,12-36.33,7.26-6.5,18.65-3.89,29.08-3.79l39.75.41c9.66.1,20.08-2.62,27,3.19,9,7.54,13.11,25.15,13,37.75l-1.26,125A40.58,40.58,0,0,1,527.39,381.28Z"/><path d="M527.8,383.28h-.43l-40-.41a42.51,42.51,0,0,1-42-43l1.26-125c.13-12.87,4.15-30.18,12.65-37.8,6.3-5.65,15.14-5.12,23.68-4.6,2.23.14,4.54.28,6.75.3l39.75.41c2.33,0,4.79-.13,7.17-.27,7.52-.46,15.29-.94,21.09,3.92,9.17,7.7,13.83,25.6,13.69,39.31l-1.26,125a42.58,42.58,0,0,1-42.38,42.1Zm-.39-4h.39a38.58,38.58,0,0,0,38.38-38.14l1.26-125c.13-12.76-4-29.29-12.26-36.19-4.58-3.84-11.23-3.43-18.28-3-2.44.15-5,.31-7.45.28l-39.75-.41c-2.31,0-4.67-.16-6.95-.3-8.08-.49-15.71-1-20.77,3.58-7.26,6.51-11.19,22.46-11.32,34.86L449.4,340a38.5,38.5,0,0,0,38,38.91Z"/><path class="cls-1" d="M468.19,185.93c-3.47-5.49,1.13-12.19,8.29-12.07l33.39.53,32.89.53c7.39.12,11.91,7.17,8.16,12.72L508.67,250.2Z"/><path d="M508.67,251.2h0a1,1,0,0,1-.83-.47l-40.48-64.26a8.15,8.15,0,0,1-.24-8.56,10.45,10.45,0,0,1,9.4-5l66.28,1.06a10.72,10.72,0,0,1,9.49,5.5,8.36,8.36,0,0,1-.52,8.78L509.5,250.76A1,1,0,0,1,508.67,251.2ZM476.3,174.86a8.42,8.42,0,0,0-7.46,4,6.21,6.21,0,0,0,.19,6.51l39.67,63,41.39-61.29a6.46,6.46,0,0,0,.41-6.74,8.74,8.74,0,0,0-7.75-4.42l-66.28-1.06Z"/><polygon class="cls-2" points="521.08 231.68 508.7 250.2 497.28 231.44 509.76 203 521.08 231.68"/><path d="M452.69,581.37A17,17,0,0,1,436.57,559c4-11.93,11.88-45.41,17.15-88.81,4.4-36.26,8.21-90.28,1.36-141.72a17,17,0,0,1,33.7-4.49c13.4,100.63-10.3,217.05-20,245.85A17,17,0,0,1,452.69,581.37Z"/><path d="M519.46,582.05a17,17,0,0,1-16.12-22.43c4-11.92,11.88-45.4,17.15-88.8,4.4-36.26,8.21-90.28,1.36-141.72a17,17,0,0,1,33.71-4.49c13.4,100.63-10.31,217-20,245.85A17,17,0,0,1,519.46,582.05Z"/><ellipse class="cls-1" cx="508.4" cy="279.92" rx="4.06" ry="4.08"/><ellipse class="cls-1" cx="508.11" cy="309.06" rx="4.06" ry="4.08"/><ellipse class="cls-1" cx="507.78" cy="341.7" rx="4.06" ry="4.08"/><polygon class="cls-2" points="509.79 203.18 521.19 193.4 515.61 183.54 504.3 183.46 498.58 193.24 509.79 203.18"/><rect class="cls-3" x="495.36" y="140.35" width="29.03" height="44.29" rx="14.52" transform="translate(1.68 -5.18) rotate(0.58)"/><path class="cls-4" d="M464.35,338.3a9.9,9.9,0,0,1-10,9.81c-5.45-.06-10.16-.75-10.1-6.22"/><path class="cls-5" d="M454.48,349.11h-.11c-3.9,0-11.16-.12-11.09-7.23a1,1,0,0,1,1-1h0a1,1,0,0,1,1,1c0,4.3,3.17,5.15,9.11,5.21h.09a8.9,8.9,0,0,0,8.87-8.82,1,1,0,0,1,1-1,1,1,0,0,1,1,1A10.9,10.9,0,0,1,454.48,349.11Z"/><path class="cls-5" d="M560.08,346.43h-.67a10.91,10.91,0,0,1-10.76-11,1,1,0,0,1,1-1h0a1,1,0,0,1,1,1,8.9,8.9,0,0,0,8.78,9c2.32,0,4.94-.06,6.72-.85s2.47-2,2.49-4.18a1,1,0,0,1,1-1,1,1,0,0,1,1,1,6,6,0,0,1-3.68,6A17.6,17.6,0,0,1,560.08,346.43Z"/><rect class="cls-5" x="533.16" y="241.84" width="24.97" height="4.08" transform="translate(2.51 -5.54) rotate(0.58)"/><path class="cls-5" d="M559.09,247.05l-27-.27.07-6.08,27,.27Zm-24.94-2.25,23,.23,0-2.08-23-.23Z"/><polygon class="cls-1" points="442.92 340.84 453.36 333.38 454.56 335.08 444.13 342.54 442.92 340.84"/><path d="M453.33,333.56l1.06,1.49-10.23,7.31-1.06-1.49,10.23-7.31m.06-.35-10.64,7.6,1.35,1.9,10.64-7.6-1.35-1.9Z"/><path class="cls-6" d="M452.11,331.89a11.22,11.22,0,0,0,4.8,5.07"/><path d="M458,574.31a3.46,3.46,0,0,1,.7.07c3.89.85,8.08,1.25,12,2.4l29.52.3A23.84,23.84,0,0,0,476.61,553l-28.91-.3a4.2,4.2,0,0,0-4.23,4.17l-.2,19.69,10.44.1a2.74,2.74,0,0,1,2.83-2.7A2.8,2.8,0,0,1,458,574.31Z"/><path d="M500.17,579.08h0l-29.53-.3a2,2,0,0,1-.54-.08,63,63,0,0,0-7.2-1.51c-1.52-.25-3.1-.52-4.63-.85l-.26,0a2.33,2.33,0,0,1-1.05-.29.9.9,0,0,0-.42-.11c-.19,0-.75,0-.81.83a2,2,0,0,1-2,1.87h0l-10.44-.11a2,2,0,0,1-2-2l.2-19.68a6.2,6.2,0,0,1,6.19-6.15h.06l28.91.3a25.87,25.87,0,0,1,25.54,26.15,2,2,0,0,1-2,2Zm-29.23-4.29,27.16.27A21.86,21.86,0,0,0,476.59,555l-28.91-.3a2.42,2.42,0,0,0-1.55.63,2.18,2.18,0,0,0-.66,1.56l-.18,17.69,6.91.07a4.67,4.67,0,0,1,4.3-2.69h.06a4.79,4.79,0,0,1,2,.43,5.81,5.81,0,0,1,.58.09c1.44.31,2.9.56,4.45.82A67.44,67.44,0,0,1,470.94,574.79Z"/><path d="M523.57,576.73a3.39,3.39,0,0,1,.7.07c3.89.84,8.08,1.25,12,2.4l29.53.3a23.86,23.86,0,0,0-23.57-24.14l-28.9-.29a4.21,4.21,0,0,0-4.24,4.16l-.2,19.69,10.45.11a2.73,2.73,0,0,1,2.82-2.7A2.77,2.77,0,0,1,523.57,576.73Z"/><path d="M565.77,581.5h0l-29.53-.3a2,2,0,0,1-.55-.08,62.33,62.33,0,0,0-7.19-1.51c-1.53-.26-3.1-.52-4.63-.86l-.27,0a1.84,1.84,0,0,1-1-.29.75.75,0,0,0-.43-.11c-.18,0-.75,0-.8.83a2,2,0,0,1-2,1.87h0l-10.45-.11a2,2,0,0,1-2-2l.2-19.69a6.18,6.18,0,0,1,1.86-4.36,6.11,6.11,0,0,1,4.33-1.78h.07l28.9.29a25.9,25.9,0,0,1,25.55,26.16,2,2,0,0,1-.6,1.41A2,2,0,0,1,565.77,581.5Zm-29.23-4.3,27.16.28a21.88,21.88,0,0,0-21.52-20.12l-28.9-.29h0a2.17,2.17,0,0,0-1.53.63,2.2,2.2,0,0,0-.66,1.55l-.18,17.69,6.91.07a4.67,4.67,0,0,1,4.31-2.68h.06a4.91,4.91,0,0,1,2,.42,3.83,3.83,0,0,1,.59.1c1.43.31,2.9.55,4.44.82A67.07,67.07,0,0,1,536.54,577.2Z"/><path class="cls-7" d="M446,551.61c2.11,3.73,6,4,10,4.43,4.31.4,8.32-.38,11.57-3.35,1.43-1.31-.69-3.42-2.12-2.12-2.46,2.24-5.56,2.75-8.79,2.53-2.85-.19-6.53-.3-8.06-3a1.5,1.5,0,0,0-2.59,1.52Z"/><path class="cls-7" d="M512.18,554c2.1,3.73,6,4.06,10,4.43,4.32.4,8.32-.38,11.58-3.35,1.43-1.3-.7-3.42-2.12-2.12-2.46,2.24-5.56,2.75-8.79,2.53-2.86-.19-6.53-.29-8.06-3a1.5,1.5,0,0,0-2.59,1.52Z"/><ellipse class="cls-8" cx="486.91" cy="50.65" rx="26.42" ry="26.52"/><ellipse class="cls-8" cx="513.07" cy="47.42" rx="22.36" ry="22.44"/><ellipse class="cls-8" cx="457.83" cy="54.43" rx="22.36" ry="22.44"/><ellipse class="cls-8" cx="540.91" cy="51.2" rx="22.36" ry="22.44"/><ellipse class="cls-8" cx="556.67" cy="72.05" rx="21.49" ry="21.56"/><ellipse class="cls-8" cx="519.52" cy="69.92" rx="27.87" ry="27.97"/><ellipse class="cls-8" cx="475.03" cy="76.76" rx="25.84" ry="25.93"/><rect class="cls-8" x="452.42" y="88.56" width="15.68" height="27.39" rx="7.84" transform="translate(1.06 -4.68) rotate(0.58)"/><ellipse class="cls-8" cx="445.65" cy="82.58" rx="20.9" ry="20.98"/><path class="cls-3" d="M524.43,153.9l5.28.06,9.29.09,6.73-1a3.63,3.63,0,0,0,1.52-.59h0a21.18,21.18,0,0,0,7.54-9.35h0l1.13-7.42c.07-.48.13-1,.17-1.47l.49-6a21.74,21.74,0,0,0,0-2.91l-.4-6.71-.53-5.83-.49-8.75-.5-7.58,0-2.91-5.8-1.23-5.19-3-4.61-3.54L533.94,80l-1.21,4.65-2.36,3.47L528,90.41l-3.51,2.3L521,94.42l-4.65.53-4.65,0-4.64-.63-4-2.38L500.17,89l-2.87-3.52-2.87-3.53-1.79,4.64-1.79,4.65-2.35,2.89-2.34,1.72-2.92,1.72-2.92,1.72-2.91.55-3.48,0-3.49,0-2.31-1.19-1.72-1.76-.07,6.41-.09,8.74-11-.11.12-11.66-1.75,1.15-2.92,1.14-3.06.58a17.4,17.4,0,0,1-5.53.15l-1.87-.26-.07,7.42a8.14,8.14,0,0,0,.39,2.59h0a12.22,12.22,0,0,0,4.74,6.36h0l4.63,2.38,4.05,1.21,5.65.57a2.08,2.08,0,0,1,1.25.6h0a2.22,2.22,0,0,1,.62,1.56l0,3.76,0,1.8a4.83,4.83,0,0,0,.48,2.11l1.22,2.51,1.56,3.21a3,3,0,0,0,.36.57l2.45,3a4.78,4.78,0,0,0,.45.45l5.29,4.33a3.08,3.08,0,0,0,.48.32l4.37,2.24,4.05,1.21,2,.81a5.4,5.4,0,0,0,1.93.42l9.45.3"/><path d="M515.45,108.38l-13.17-1a3.24,3.24,0,0,1-3.17-3.27v-.21a3.25,3.25,0,0,1,3.63-2.75l13.16,1a3.25,3.25,0,0,1,3.17,3.28v.2A3.25,3.25,0,0,1,515.45,108.38Z"/><rect x="532.83" y="100.76" width="20.32" height="5.83" rx="2.9" transform="translate(1.08 -5.52) rotate(0.58)"/><ellipse cx="510.19" cy="112.38" rx="4.37" ry="4.17" transform="translate(393.04 621.5) rotate(-89.46)"/><ellipse cx="545.03" cy="112.73" rx="4.37" ry="4.17" transform="translate(427.2 656.68) rotate(-89.46)"/><ellipse class="cls-9" cx="528.13" cy="137.62" rx="1.17" ry="11.61" transform="translate(385.14 664.32) rotate(-89.42)"/><path class="cls-10" d="M531.91,139.31l-3.8,0c-3.14,0-6.12-.07-8.24-.23-2.32-.19-3.86-.52-3.85-1.56a1,1,0,0,1,.32-.73c.94-.91,4-.92,9.77-.84l2,0c9,.09,12.11.25,12.09,1.78h0C540.23,139,538,139.31,531.91,139.31Zm-9.12-2.41c-2.91,0-5.53.11-5.77.61.5.67,6.38.73,11.1.78s10.28.1,11.08-.56c-.79-.67-6.47-.73-11.06-.77l-2,0Zm17,.84h0Z"/><path class="cls-11" d="M527.18,117.1c.7,2,2.05,3.26,3.12,5,.7,1.12,1.28,2.6.15,3.66s-3,.9-4.38.8c-1.93-.15-1.92,2.85,0,3,3.07.23,6.92-.47,7.9-3.92,1.1-3.89-2.75-6.12-3.9-9.34-.64-1.8-3.54-1-2.89.8Z"/><path class="cls-11" d="M496.59,176l-.56-1.75a11.13,11.13,0,0,1-.46-3.6l.1-17.1a.82.82,0,0,1,.83-.83l20.27.52a.23.23,0,0,1,.09.43l-5.6,2.64a6.45,6.45,0,0,1-1.21.43l-9.9,2.49L499.54,180"/><path class="cls-11" d="M462.09,125.56c-1.24,7.82,3.47,14.91,9.55,19.46,1.55,1.15,3.05-1.45,1.52-2.59-2.18-1.63-3.76-3.92-5.5-6A12.45,12.45,0,0,1,465,126.36c.29-1.89-2.6-2.71-2.9-.8Z"/><path class="cls-11" d="M462.57,126.27c.93,11.25,10.19,17.61,19.2,22.77a1.5,1.5,0,0,0,1.52-2.59c-7.94-4.55-16.89-10.14-17.72-20.18-.15-1.91-3.16-1.93-3,0Z"/><path class="cls-11" d="M464.46,134.52c.39,1.69,1.72,3.14,2.65,4.6a20.84,20.84,0,0,0,4.26,4.91,36.54,36.54,0,0,0,11.73,6.08c1.83.63,2.61-2.26.8-2.89a32.83,32.83,0,0,1-10.4-5.31A17.48,17.48,0,0,1,470,138c-.73-1.1-2.33-3-2.63-4.32-.43-1.88-3.33-1.08-2.89.8Z"/><path class="cls-11" d="M472.51,145c.41.15.77.66,1.12.92a7.67,7.67,0,0,0,1.38.81c1.09.5,2.2.95,3.3,1.42,1.76.76,3.29-1.82,1.52-2.59-1.22-.52-2.48-1-3.67-1.59s-1.72-1.46-2.86-1.86c-1.82-.64-2.61,2.25-.79,2.89Z"/><path class="cls-11" d="M471.73,144.63l2.38,1.29a1.5,1.5,0,1,0,1.51-2.59L473.24,142a1.5,1.5,0,1,0-1.51,2.59Z"/><path class="cls-11" d="M473.34,145.55a1.5,1.5,0,0,0,0-3,1.5,1.5,0,0,0,0,3Z"/><path class="cls-11" d="M471.15,143.45c.77,2.1,2.63,2.93,4.49,4a48.49,48.49,0,0,0,7.13,2.87c1.82.64,2.61-2.25.8-2.9a50.7,50.7,0,0,1-5.36-2c-1.07-.52-3.73-1.54-4.17-2.73-.66-1.8-3.56-1-2.89.8Z"/><path class="cls-11" d="M469.35,142.11a23.78,23.78,0,0,0,14.43,8.79c1.88.36,2.69-2.53.79-2.89-4.62-.88-9.86-3.62-12.63-7.41-1.13-1.54-3.74,0-2.59,1.51Z"/><path class="cls-11" d="M481.47,149.14l5.55,2.35a1.57,1.57,0,0,0,2.06-.54,1.51,1.51,0,0,0-.54-2L483,146.54a1.58,1.58,0,0,0-2.06.54,1.53,1.53,0,0,0,.54,2.06Z"/><path class="cls-11" d="M484.29,150.75a3.47,3.47,0,0,1,1.2.06v-2.89a1.5,1.5,0,0,1-.63.05,1.5,1.5,0,0,0-.8,2.89,25.13,25.13,0,0,0,3.21.81,1.55,1.55,0,0,0,1.85-1,1.51,1.51,0,0,0-1.05-1.84,25.13,25.13,0,0,1-3.21-.81l-.8,2.89a5.09,5.09,0,0,0,2.23-.05,1.51,1.51,0,0,0,0-2.89,6.14,6.14,0,0,0-2-.17,1.54,1.54,0,0,0-1.5,1.5,1.51,1.51,0,0,0,1.5,1.5Z"/><path class="cls-3" d="M445.36,104.1c-.16,3.21-.2,6.78,1.73,9.53s5.71,4.07,9,4.67c1.89.36,2.7-2.53.8-2.89-2.66-.5-6.07-1.37-7.54-3.88-1.27-2.18-1.06-5-.94-7.43.09-1.93-2.91-1.93-3,0Z"/><path class="cls-11" d="M449.47,106.07a5.17,5.17,0,0,0,.78,4.78,4,4,0,0,0,4.51,1.33,1.54,1.54,0,0,0,1.05-1.85,1.52,1.52,0,0,0-1.85-1c-1.52.57-2-1.27-1.6-2.42.61-1.84-2.29-2.62-2.89-.8Z"/><path class="cls-11" d="M444.52,104.44c.13,1.53-.44,3-.31,4.53a7,7,0,0,0,1.51,3.65c1.85,2.4,4.75,3.33,7.62,3.83,1.89.34,2.7-2.55.8-2.89-2.24-.4-4.85-1-6.21-3s-.23-4-.41-6.15c-.16-1.91-3.16-1.93-3,0Z"/><path class="cls-11" d="M445.89,105.85a1.5,1.5,0,0,0,0-3,1.5,1.5,0,0,0,0,3Z"/><path class="cls-1" d="M539.16,558.43c3-.08,6.16-.21,9.06.78s5.44,3.12,7.82,5.11c1.47,1.24,3.6-.88,2.12-2.12-2.49-2.09-5-4.24-8.09-5.48-3.49-1.41-7.22-1.39-10.91-1.29-1.93.05-1.94,3.05,0,3Z"/><path class="cls-1" d="M477.71,557.16a18.82,18.82,0,0,1,14.29,7c1.24,1.49,3.35-.65,2.12-2.12a21.7,21.7,0,0,0-16.41-7.83c-1.93,0-1.93,3,0,3Z"/><line class="cls-12" x1="498.81" y1="194.15" x2="485.86" y2="212.08"/><rect class="cls-12" x="481.27" y="202.12" width="22.13" height="2" transform="translate(39.29 483.12) rotate(-54.14)"/><rect class="cls-12" x="526.18" y="192.35" width="2" height="21.65" transform="translate(-19.81 344.61) rotate(-35.57)"/><path class="cls-11" d="M491.2,62a24.47,24.47,0,0,1-4.8,20.3c-1.18,1.52,1.43,3,2.59,1.51a27.42,27.42,0,0,0,5.11-22.61c-.39-1.89-3.28-1.09-2.9.8Z"/><path class="cls-11" d="M560.62,55.22c7,2.6,16.14,20.1,5.71,24.09-1.79.68-1,3.59.79,2.89,13.38-5.11,4.4-26.1-5.7-29.87-1.81-.68-2.59,2.22-.8,2.89Z"/><path class="cls-11" d="M526.75,49.05c5.07-2.53,10.52,1.19,12.68,5.81s2,9.75,1.91,14.68c0,1.93,3,1.93,3,0,.13-6.73.14-14.62-4.75-19.88-3.74-4-9.33-5.71-14.35-3.2-1.73.86-.21,3.44,1.51,2.59Z"/><path class="cls-11" d="M494.67,42.1c9.15-.13,9.19,11.24,8.82,17.62-.11,1.93,2.89,1.92,3,0,.48-8.22-.83-20.78-11.82-20.62-1.93,0-1.93,3,0,3Z"/><path class="cls-11" d="M450.52,56.36a27.85,27.85,0,0,0-6.45,34.57c.93,1.7,3.52.19,2.59-1.51a24.87,24.87,0,0,1,6-30.94c1.49-1.23-.65-3.35-2.12-2.12Z"/><ellipse class="cls-3" cx="620.5" cy="344.42" rx="16.62" ry="16.56" transform="translate(-80.01 230.73) rotate(-19.81)"/><rect class="cls-3" x="632.94" y="331.88" width="8.49" height="22.16" rx="4.25" transform="translate(1330.25 134.91) rotate(135)"/><ellipse class="cls-13" cx="644.14" cy="345.11" rx="0.85" ry="2.98" transform="translate(-63.15 528.84) rotate(-42.74)"/><rect class="cls-3" x="616.97" y="357.58" width="22.93" height="7.67" rx="3.82" transform="translate(755.43 -352.33) rotate(70.19)"/><rect class="cls-3" x="623.97" y="354.58" width="22.93" height="7.67" rx="3.82" transform="translate(757.24 -360.9) rotate(70.19)"/><rect class="cls-3" x="609.69" y="357.5" width="22.93" height="7.67" rx="3.82" transform="translate(750.54 -345.53) rotate(70.19)"/><rect class="cls-3" x="602.68" y="354.62" width="20.38" height="7.67" rx="3.82" transform="translate(742.35 -339.64) rotate(70.19)"/><ellipse class="cls-13" cx="627.61" cy="360.37" rx="2.56" ry="3.4" transform="translate(-85 234.08) rotate(-19.81)"/><ellipse class="cls-13" cx="634.61" cy="357.37" rx="2.56" ry="3.4" transform="translate(-83.57 236.28) rotate(-19.81)"/><ellipse class="cls-13" cx="621.42" cy="360.79" rx="2.56" ry="3.4" transform="translate(-85.51 232.01) rotate(-19.81)"/><ellipse class="cls-13" cx="613.77" cy="358.43" rx="2.13" ry="2.83" transform="translate(-85.16 229.28) rotate(-19.81)"/><line class="cls-14" x1="631.6" y1="381.5" x2="630.79" y2="381.79"/><path class="cls-11" d="M635.1,370.1a.24.24,0,0,1-.23-.16l-4-11.19a.25.25,0,0,1,.15-.32.26.26,0,0,1,.32.15l4,11.19a.26.26,0,0,1-.15.32Z"/><path class="cls-11" d="M627.54,369.22a.26.26,0,0,1-.24-.17l-4-11.18a.24.24,0,0,1,.15-.32.25.25,0,0,1,.32.15l4,11.18a.24.24,0,0,1-.15.32Z"/><path class="cls-11" d="M619.1,365.94a.26.26,0,0,1-.23-.17l-4-11.19a.25.25,0,0,1,.15-.32.26.26,0,0,1,.32.15l4,11.19a.25.25,0,0,1-.15.32Z"/><rect class="cls-1" x="597.36" y="330.37" width="27.75" height="5.77" transform="translate(-84.74 350.27) rotate(-30)"/><path d="M621.76,324l2.76,4.79L600.7,342.53l-2.76-4.79L621.76,324m.09-.34-24.25,14,3,5.22,24.25-14-3-5.22Z"/><rect class="cls-14" width="400" height="600"/><rect class="cls-14" x="400" width="400" height="600"/><rect class="cls-14" x="1600" width="400" height="600"/><rect class="cls-14" x="1200" width="400" height="600"/></svg>