<svg id="Layer_1" data-name="Layer 1" xmlns="http://www.w3.org/2000/svg" width="2333" height="700" viewBox="0 0 2333 700"><defs><style>.cls-1{fill:#fff;}.cls-2{fill:#1b1464;}.cls-3{fill:#f1d0a5;}.cls-4{fill:#060002;}.cls-5{fill:#ccc;}.cls-6{fill:#736357;}.cls-7{fill:#534741;}.cls-8{fill:#8c6239;}.cls-9{fill:#c1612d;}.cls-10{fill:#f15a24;}.cls-11{fill:#c69c6d;}.cls-12{fill:#e6e6e6;}.cls-13{fill:#cb9d80;}.cls-14{fill:none;}</style></defs><title>sprite_mand_final_v2</title><path d="M1932.17,199.61c-11.61,6.9-20.68,19.13-29.25,29.27-9.32,11-21,22.7-27.2,35.78-5.46,11.41-8.72,23.7-6,36.31,1,4.56,3,8.89,5,13.1.36.79,2.68,5.77,1.24,2.51,1.25,2.83,2.4,5.71,3.63,8.54,7.13,16.37,15,32.42,23.1,48.34,8.48,16.75,17.16,33.43,26.56,49.68,10.15,17.54,37.38,1.7,27.2-15.9-16.14-27.89-30.76-56.84-44.28-86.07q-2.33-5-4.56-10.06l-1.88-4.32c1.3,3,.4.92.13.29-.8-1.9-1.58-3.8-2.43-5.67-.69-1.53-1.46-3-2.13-4.57,1,2.37,0,0-.13-.45-.3-1-.62-2-.9-3,0,0-.39-2.55-.26-1.15.16,1.7.07-2,.1-2.27a38,38,0,0,1,1.66-6.16c3.3-10.13,12.3-19.28,19.84-28.33,5.24-6.31,10.56-12.56,16.12-18.59,2.31-2.51,4.66-5,7.13-7.34.94-.88,2-1.69,2.89-2.61,1.24-1.26-3.16,2,.35-.12,17.4-10.35,1.58-37.59-15.9-27.2Z"/><path d="M2033.54,228.48c1,14.45,5.66,28.93,9.54,42.78s7.8,28.16,12.94,41.76c7,18.53,18,39.49,37.91,46.07,14.7,4.86,31.16,5.69,46.51,6.73,13.17.9,26.37,1.3,39.57,1.49,20.27.29,20.28-31.21,0-31.5-10.23-.14-20.44-.42-30.65-.95-7.53-.4-15.06-.91-22.56-1.67-1.7-.17-3.39-.35-5.09-.55-.14,0-4.24-.53-1.61-.19,2.22.29-.38-.05-.93-.13-3.33-.51-6.67-1.05-10-1.78-2.61-.57-5.14-1.33-7.7-2.1-3.66-1.09,1.9,1.4.25.14a8.74,8.74,0,0,0-1.43-.78c-.26-.15-.51-.32-.75-.49l2.34,1.78c.06-.33-4.16-4.54-4.54-5a69.5,69.5,0,0,1-4.56-6.8c-1.38-2.28-2.67-4.63-3.87-7-.59-1.18-1.14-2.37-1.7-3.56-2.57-5.44.42,1.26-.39-.84-4.67-12.25-8.27-25-11.87-37.55-2.47-8.6-4.83-17.23-7-25.92-.81-3.31-1.59-6.62-2.27-10-.28-1.38-.49-2.77-.78-4.15-.71-3.31.36,4.46.07.21-.59-8.48-6.83-15.75-15.75-15.75-8.07,0-16.34,7.22-15.75,15.75Z"/><path d="M2015,442.49l-46.68-.47a47.35,47.35,0,0,1-46.63-47.76l1.48-145.83c.14-13.8,4.42-33.82,14-42.39,8.46-7.58,21.75-4.54,33.92-4.41l46.37.47c11.26.11,23.42-3,31.48,3.72,10.48,8.8,15.29,29.34,15.14,44l-1.47,145.83A47.33,47.33,0,0,1,2015,442.49Z"/><path d="M2015.48,444.83H2015l-46.68-.48a49.59,49.59,0,0,1-48.93-50.12l1.47-145.83c.15-15,4.84-35.2,14.75-44.1,7.36-6.59,17.66-6,27.63-5.35,2.6.15,5.3.32,7.87.34l46.37.48c2.72,0,5.59-.15,8.36-.32,8.77-.54,17.84-1.1,24.61,4.58,10.69,9,16.12,29.87,16,45.85l-1.47,145.83a49.66,49.66,0,0,1-49.43,49.12Zm-.46-4.67h.46a45,45,0,0,0,44.76-44.49l1.48-145.83c.15-14.9-4.72-34.18-14.31-42.23-5.33-4.48-13.09-4-21.31-3.5-2.85.17-5.8.35-8.7.32L1971,204c-2.69,0-5.44-.19-8.1-.36-9.42-.57-18.33-1.11-24.23,4.18-8.47,7.6-13,26.21-13.2,40.67L1924,394.28a44.91,44.91,0,0,0,44.31,45.4Z"/><path class="cls-1" d="M1945.94,214.59c-4-6.41,1.32-14.22,9.68-14.09l38.94.62,38.37.62c8.61.14,13.89,8.36,9.51,14.83l-49.28,73Z"/><path d="M1993.16,290.73h0a1.19,1.19,0,0,1-1-.54l-47.22-75a9.5,9.5,0,0,1-.28-10,12.16,12.16,0,0,1,11-5.9l77.31,1.24A12.54,12.54,0,0,1,2044,207a9.76,9.76,0,0,1-.62,10.24l-49.28,73A1.17,1.17,0,0,1,1993.16,290.73Zm-37.75-89.06a9.83,9.83,0,0,0-8.71,4.7,7.27,7.27,0,0,0,.22,7.6h0l46.27,73.46,48.29-71.51a7.49,7.49,0,0,0,.48-7.85,10.19,10.19,0,0,0-9-5.16l-77.31-1.24Z"/><polygon class="cls-2" points="2007.64 267.96 1993.2 289.57 1979.87 267.67 1994.43 234.5 2007.64 267.96"/><path d="M1927.86,675.93a19.85,19.85,0,0,1-18.8-26.16c4.67-13.91,13.86-53,20-103.61,5.14-42.3,9.58-105.32,1.59-165.33a19.83,19.83,0,1,1,39.31-5.24c15.64,117.4-12,253.22-23.31,286.82A19.84,19.84,0,0,1,1927.86,675.93Z"/><path d="M2005.75,676.72a19.6,19.6,0,0,1-6.32-1A19.83,19.83,0,0,1,1987,650.56c4.67-13.91,13.86-53,20-103.6,5.14-42.3,9.58-105.33,1.59-165.34a19.83,19.83,0,0,1,39.32-5.24c15.63,117.4-12,253.22-23.32,286.82A19.83,19.83,0,0,1,2005.75,676.72Z"/><ellipse class="cls-1" cx="1992.85" cy="324.24" rx="4.74" ry="4.76"/><ellipse class="cls-1" cx="1992.51" cy="358.24" rx="4.74" ry="4.76"/><ellipse class="cls-1" cx="1992.12" cy="396.31" rx="4.74" ry="4.76"/><polygon class="cls-2" points="1994.47 234.72 2007.77 223.3 2001.26 211.79 1988.07 211.7 1981.4 223.12 1994.47 234.72"/><rect class="cls-3" x="1977.64" y="161.41" width="33.87" height="51.68" rx="14.52" transform="translate(2.01 -20.29) rotate(0.58)"/><path class="cls-4" d="M1941.46,392.35a11.52,11.52,0,0,1-11.63,11.44c-6.36-.06-11.84-.87-11.78-7.26"/><path class="cls-5" d="M1930,405h-.13c-4.55,0-13-.13-12.94-8.44a1.17,1.17,0,0,1,1.17-1.15h0a1.16,1.16,0,0,1,1.16,1.17c0,5,3.69,6,10.62,6.09h.11a10.39,10.39,0,0,0,10.35-10.29,1.15,1.15,0,0,1,1.16-1.15h0a1.15,1.15,0,0,1,1.15,1.17A12.72,12.72,0,0,1,1930,405Z"/><path class="cls-5" d="M2053.14,401.84h-.79A12.72,12.72,0,0,1,2039.8,389a1.18,1.18,0,0,1,1.17-1.16h0a1.17,1.17,0,0,1,1.15,1.18,10.4,10.4,0,0,0,10.25,10.5c2.71,0,5.75-.07,7.84-1s2.88-2.38,2.9-4.87a1.18,1.18,0,0,1,1.17-1.16h0a1.18,1.18,0,0,1,1.16,1.18c0,3.38-1.48,5.73-4.3,7A20.35,20.35,0,0,1,2053.14,401.84Z"/><rect class="cls-5" x="2021.73" y="279.81" width="29.13" height="4.76" transform="translate(2.98 -20.71) rotate(0.58)"/><path class="cls-5" d="M2052,285.89l-31.46-.32.08-7.09,31.45.32Zm-29.1-2.63,26.79.28,0-2.43-26.79-.27Z"/><polygon class="cls-1" points="1916.47 395.31 1928.65 386.61 1930.05 388.59 1917.87 397.29 1916.47 395.31"/><path d="M1928.61,386.82l1.24,1.74-11.94,8.53-1.24-1.74,11.94-8.53m.07-.41-12.41,8.87,1.57,2.21,12.41-8.87-1.57-2.21Z"/><path class="cls-6" d="M1927.18,384.88a13.2,13.2,0,0,0,5.61,5.91"/><path d="M1934,667.7a3.35,3.35,0,0,1,.82.08c4.54,1,9.42,1.46,14,2.8l34.44.35a27.83,27.83,0,0,0-27.49-28.16l-33.72-.34a4.89,4.89,0,0,0-4.93,4.86l-.24,23,12.19.12a3.19,3.19,0,0,1,3.29-3.15A3.23,3.23,0,0,1,1934,667.7Z"/><path d="M1983.25,673.26h0l-34.45-.35a2.35,2.35,0,0,1-.64-.09,71.7,71.7,0,0,0-8.39-1.76c-1.78-.3-3.62-.61-5.4-1l-.3,0h0a2.38,2.38,0,0,1-1.21-.34.84.84,0,0,0-.49-.12c-.22,0-.88,0-.94,1a2.34,2.34,0,0,1-2.33,2.18h0l-12.18-.12a2.33,2.33,0,0,1-2.31-2.36l.23-23a7.18,7.18,0,0,1,2.17-5.09,7.33,7.33,0,0,1,5.13-2.07l33.72.34A30.19,30.19,0,0,1,1985.58,671a2.32,2.32,0,0,1-2.33,2.3Zm-34.1-5,31.69.32a25.52,25.52,0,0,0-25.1-23.46l-33.72-.35a2.54,2.54,0,0,0-1.81.73,2.6,2.6,0,0,0-.77,1.82l-.21,20.64,8.06.08a5.55,5.55,0,0,1,5.09-3.13,5.62,5.62,0,0,1,2.28.49c.23,0,.46.06.69.11,1.67.36,3.37.65,5.18,1A77.67,77.67,0,0,1,1949.15,668.25Z"/><path d="M2010.55,670.51a4,4,0,0,1,.82.09c4.53,1,9.42,1.45,14,2.8l34.45.35a27.83,27.83,0,0,0-27.49-28.16l-33.72-.34a4.9,4.9,0,0,0-4.94,4.85l-.23,23,12.18.13a3.19,3.19,0,0,1,3.3-3.15A3.35,3.35,0,0,1,2010.55,670.51Z"/><path d="M2059.77,676.08h0l-34.44-.35a2.3,2.3,0,0,1-.64-.09,69.71,69.71,0,0,0-8.39-1.76c-1.78-.3-3.62-.61-5.4-1l-.3,0h0a2.35,2.35,0,0,1-1.21-.34.94.94,0,0,0-.5-.12c-.21,0-.87,0-.94,1a2.33,2.33,0,0,1-2.33,2.18h0l-12.18-.12a2.34,2.34,0,0,1-2.31-2.36l.23-23a7.22,7.22,0,0,1,7.29-7.16l33.72.34a30.2,30.2,0,0,1,29.8,30.51,2.32,2.32,0,0,1-2.33,2.31Zm-34.1-5,31.68.32a25.52,25.52,0,0,0-25.09-23.47l-33.72-.34a2.44,2.44,0,0,0-1.81.73,2.56,2.56,0,0,0-.77,1.82l-.21,20.63,8.06.09a5.43,5.43,0,0,1,5.08-3.13,5.67,5.67,0,0,1,2.29.49c.23,0,.45.06.68.11,1.67.36,3.38.65,5.19,1A78.15,78.15,0,0,1,2025.67,671.07Z"/><path class="cls-7" d="M1920.06,641.21c2.46,4.35,7,4.73,11.65,5.17,5,.46,9.71-.45,13.5-3.91,1.67-1.52-.81-4-2.47-2.48-2.87,2.62-6.49,3.22-10.26,3-3.33-.22-7.61-.35-9.4-3.51-1.1-2-4.13-.2-3,1.77Z"/><path class="cls-7" d="M1997.25,644c2.46,4.36,7,4.74,11.66,5.17,5,.47,9.7-.44,13.5-3.91,1.66-1.52-.82-4-2.48-2.47-2.87,2.62-6.48,3.21-10.25,3-3.33-.23-7.62-.35-9.4-3.52-1.11-2-4.13-.2-3,1.77Z"/><ellipse class="cls-8" cx="1967.78" cy="56.76" rx="30.82" ry="30.94"/><ellipse class="cls-8" cx="1998.3" cy="52.99" rx="26.08" ry="26.18"/><ellipse class="cls-8" cx="1933.86" cy="61.17" rx="26.08" ry="26.18"/><ellipse class="cls-8" cx="2030.77" cy="57.4" rx="26.08" ry="26.18"/><ellipse class="cls-8" cx="2049.15" cy="81.73" rx="25.06" ry="25.16"/><ellipse class="cls-8" cx="2005.82" cy="79.25" rx="32.51" ry="32.64"/><ellipse class="cls-8" cx="1953.92" cy="87.22" rx="30.14" ry="30.26"/><rect class="cls-8" x="1927.54" y="100.98" width="18.29" height="31.96" rx="7.84" transform="translate(1.29 -19.7) rotate(0.58)"/><ellipse class="cls-8" cx="1919.65" cy="94.01" rx="24.38" ry="24.48"/><path class="cls-3" d="M2011.55,177.22l6.15.06,10.84.11,7.86-1.13a4.19,4.19,0,0,0,1.76-.69h0a24.5,24.5,0,0,0,8.8-10.91h0l1.32-8.65c.09-.57.15-1.14.2-1.72l.57-6.95a24.1,24.1,0,0,0,0-3.4l-.48-7.82-.61-6.81-.57-10.2-.59-8.85,0-3.4-6.76-1.43L2034,102l-5.37-4.13-6-6.86-1.41,5.42-2.75,4-2.74,2.7-4.09,2.67-4.08,2-5.43.63-5.42-.06-5.41-.73-4.71-2.77-3.35-3.44-3.35-4.11-3.35-4.11-2.08,5.42-2.09,5.41-2.74,3.38-2.73,2-3.41,2-3.41,2-3.39.64-4.06,0-4.07,0-2.69-1.39-2-2.06-.07,7.48-.1,10.2-12.87-.13.13-13.6-2,1.34-3.4,1.33-3.58.68a20.23,20.23,0,0,1-6.45.17l-2.17-.3-.09,8.65a9.62,9.62,0,0,0,.46,3h0a14.29,14.29,0,0,0,5.53,7.43h0l5.39,2.78,4.73,1.4,6.59.67a2.41,2.41,0,0,1,1.46.71h0a2.61,2.61,0,0,1,.73,1.82l0,4.37,0,2.11a5.46,5.46,0,0,0,.55,2.45l1.43,2.94,1.81,3.74a3.33,3.33,0,0,0,.43.67l2.86,3.52a3.65,3.65,0,0,0,.52.52l6.17,5.06a3.39,3.39,0,0,0,.56.37l5.09,2.62,4.73,1.41,2.29.94a6.49,6.49,0,0,0,2.25.49l11,.35"/><path d="M2000.83,126.4l-13.29-3a3.53,3.53,0,0,1-2.66-4.21l0-.24a3.52,3.52,0,0,1,4.2-2.66l13.29,3a3.54,3.54,0,0,1,2.66,4.22l-.06.23A3.52,3.52,0,0,1,2000.83,126.4Z"/><rect x="2021.35" y="115.22" width="23.71" height="6.8" rx="2.9" transform="translate(1.31 -20.68) rotate(0.58)"/><ellipse cx="1994.94" cy="128.77" rx="5.1" ry="4.86" transform="translate(1847.54 2122.42) rotate(-89.46)"/><ellipse cx="2035.58" cy="129.19" rx="5.1" ry="4.86" transform="translate(1887.39 2163.47) rotate(-89.46)"/><ellipse class="cls-9" cx="2015.86" cy="158.22" rx="1.36" ry="13.55" transform="translate(1837.13 2172.37) rotate(-89.42)"/><path class="cls-10" d="M2020.56,160.2l-4.71,0c-3.68,0-7.15-.07-9.62-.27-2.71-.22-4.51-.61-4.5-1.82a1.24,1.24,0,0,1,.38-.85c1.09-1.06,4.65-1.07,11.39-1l2.38,0c10.47.11,14.13.3,14.11,2.09h0c0,1.21-1.82,1.56-4.52,1.72C2024.09,160.18,2022.41,160.2,2020.56,160.2Zm-10.93-2.82c-3.39,0-6.45.13-6.73.72.59.78,7.45.84,13,.9s12,.12,12.92-.64c-.92-.79-7.55-.86-12.9-.91l-2.39,0C2012.24,157.4,2010.91,157.38,2009.63,157.38Zm19.78,1h0Z"/><path class="cls-11" d="M2014.76,134.28c.81,2.3,2.39,3.81,3.64,5.83.81,1.31,1.49,3,.17,4.28s-3.46,1.05-5.11.93c-2.25-.17-2.24,3.33,0,3.5,3.58.27,8.08-.55,9.22-4.57,1.28-4.54-3.21-7.15-4.55-10.9-.75-2.1-4.13-1.19-3.37.93Z"/><path class="cls-11" d="M1979.07,203l-.65-2a13.11,13.11,0,0,1-.54-4.2l.12-19.95a.94.94,0,0,1,1-1l23.64.6a.26.26,0,0,1,.1.5l-6.52,3.08a8,8,0,0,1-1.42.5l-11.54,2.91-.72,24.24"/><path class="cls-11" d="M1938.83,144.15c-1.44,9.13,4,17.4,11.14,22.7,1.81,1.35,3.55-1.68,1.77-3-2.54-1.9-4.39-4.56-6.41-7a14.51,14.51,0,0,1-3.12-11.76c.34-2.2-3-3.15-3.38-.93Z"/><path class="cls-11" d="M1939.39,145c1.08,13.13,11.89,20.55,22.4,26.56,2,1.12,3.72-1.9,1.77-3-9.26-5.3-19.71-11.83-20.67-23.54-.18-2.23-3.68-2.25-3.5,0Z"/><path class="cls-11" d="M1941.59,154.61c.46,2,2,3.66,3.09,5.36a24.34,24.34,0,0,0,5,5.73c4,3.34,8.8,5.42,13.67,7.1,2.14.73,3.06-2.65.94-3.38-4.29-1.47-8.6-3.28-12.14-6.19a20.51,20.51,0,0,1-4.1-4.52c-.85-1.28-2.72-3.55-3.07-5-.5-2.2-3.88-1.27-3.37.93Z"/><path class="cls-11" d="M1951,166.85c.48.17.91.76,1.31,1.07a8.37,8.37,0,0,0,1.61.94c1.27.59,2.57,1.11,3.85,1.67,2,.88,3.83-2.14,1.77-3-1.42-.61-2.9-1.16-4.28-1.86-1.22-.62-2-1.7-3.33-2.17-2.13-.75-3.05,2.63-.93,3.38Z"/><path class="cls-11" d="M1950.07,166.4l2.77,1.51a1.79,1.79,0,0,0,2.4-.63,1.76,1.76,0,0,0-.63-2.39l-2.77-1.52a1.75,1.75,0,0,0-1.77,3Z"/><path class="cls-11" d="M1952,167.47a1.75,1.75,0,0,0,0-3.5,1.75,1.75,0,0,0,0,3.5Z"/><path class="cls-11" d="M1949.39,165c.9,2.45,3.07,3.42,5.24,4.62A56.06,56.06,0,0,0,1963,173c2.13.75,3-2.63.93-3.38a60.16,60.16,0,0,1-6.25-2.34c-1.25-.6-4.35-1.79-4.86-3.18-.77-2.1-4.15-1.19-3.38.93Z"/><path class="cls-11" d="M1947.29,163.46a27.81,27.81,0,0,0,16.84,10.26c2.2.42,3.14-3,.93-3.38-5.4-1-11.51-4.22-14.75-8.64-1.32-1.8-4.35-.06-3,1.76Z"/><path class="cls-11" d="M1961.44,171.66l6.47,2.74a1.81,1.81,0,0,0,2.4-.63,1.76,1.76,0,0,0-.63-2.39l-6.48-2.74a1.8,1.8,0,0,0-2.39.62,1.77,1.77,0,0,0,.63,2.4Z"/><path class="cls-11" d="M1964.72,173.54a4.1,4.1,0,0,1,1.4.08v-3.38a1.83,1.83,0,0,1-.74.06,1.75,1.75,0,0,0-.93,3.37,28.31,28.31,0,0,0,3.76.94,1.8,1.8,0,0,0,2.15-1.22,1.77,1.77,0,0,0-1.22-2.15,30.39,30.39,0,0,1-3.76-.94l-.93,3.37a6.16,6.16,0,0,0,2.6,0,1.77,1.77,0,0,0,0-3.38,7,7,0,0,0-2.33-.2,1.8,1.8,0,0,0-1.75,1.75,1.76,1.76,0,0,0,1.75,1.75Z"/><path class="cls-3" d="M1919.31,119.11c-.19,3.75-.23,7.92,2,11.13s6.67,4.74,10.44,5.45c2.21.41,3.15-3,.93-3.38-3.1-.58-7.08-1.6-8.79-4.52-1.49-2.55-1.24-5.85-1.1-8.68.11-2.25-3.39-2.24-3.5,0Z"/><path class="cls-11" d="M1924.1,121.42A6,6,0,0,0,1925,127a4.69,4.69,0,0,0,5.26,1.55,1.79,1.79,0,0,0,1.22-2.15,1.75,1.75,0,0,0-2.15-1.22c-1.78.67-2.31-1.49-1.87-2.82.71-2.14-2.67-3.06-3.38-.93Z"/><path class="cls-11" d="M1918.33,119.51c.15,1.79-.51,3.5-.36,5.29a8.26,8.26,0,0,0,1.76,4.26c2.16,2.79,5.54,3.88,8.89,4.47,2.2.39,3.15-3,.93-3.37-2.61-.47-5.65-1.12-7.25-3.47s-.26-4.68-.47-7.18c-.18-2.23-3.69-2.25-3.5,0Z"/><path class="cls-11" d="M1919.93,121.16a1.75,1.75,0,0,0,0-3.5,1.75,1.75,0,0,0,0,3.5Z"/><path class="cls-1" d="M2028.73,649.17c3.51-.1,7.19-.25,10.56.91s6.35,3.64,9.13,6c1.71,1.44,4.2-1,2.47-2.47-2.91-2.44-5.88-5-9.44-6.39-4.06-1.65-8.41-1.63-12.72-1.51-2.25.06-2.26,3.56,0,3.5Z"/><path class="cls-1" d="M1957.05,647.69a21.9,21.9,0,0,1,16.67,8.11c1.44,1.73,3.91-.76,2.47-2.48a25.31,25.31,0,0,0-19.14-9.13c-2.25-.05-2.25,3.45,0,3.5Z"/><line class="cls-12" x1="1981.67" y1="224.17" x2="1966.55" y2="245.1"/><rect class="cls-12" x="1961.2" y="233.47" width="25.81" height="2.33" transform="translate(627.33 1696.95) rotate(-54.13)"/><rect class="cls-12" x="2013.59" y="222.08" width="2.33" height="25.26" transform="translate(239.41 1215.77) rotate(-35.57)"/><path class="cls-11" d="M1972.79,70a28.61,28.61,0,0,1-5.6,23.68c-1.38,1.78,1.66,3.52,3,1.76a32,32,0,0,0,6-26.37c-.45-2.21-3.82-1.27-3.37.93Z"/><path class="cls-11" d="M2053.77,62.09c8.12,3,18.82,23.45,6.65,28.11-2.08.79-1.18,4.18.93,3.37,15.61-6,5.12-30.45-6.65-34.85-2.11-.79-3,2.59-.93,3.37Z"/><path class="cls-11" d="M2014.25,54.89c5.92-3,12.28,1.38,14.79,6.78s2.35,11.37,2.24,17.13c0,2.25,3.45,2.25,3.5,0,.15-7.85.16-17.06-5.55-23.19-4.36-4.69-10.88-6.67-16.74-3.75-2,1-.25,4,1.76,3Z"/><path class="cls-11" d="M1976.83,46.78c10.68-.15,10.72,13.11,10.29,20.56-.13,2.25,3.37,2.25,3.5,0,.56-9.59-1-24.24-13.79-24.06-2.25,0-2.25,3.53,0,3.5Z"/><path class="cls-11" d="M1925.33,63.42a32.5,32.5,0,0,0-7.52,40.34c1.09,2,4.11.21,3-1.77a29,29,0,0,1,7-36.1c1.74-1.44-.75-3.9-2.47-2.47Z"/><ellipse class="cls-3" cx="2207.65" cy="351.88" rx="19.32" ry="19.39"/><rect class="cls-3" x="2204.19" y="312.6" width="9.91" height="25.86" rx="4.25" transform="translate(62.78 -290.45) rotate(7.63)"/><ellipse class="cls-13" cx="2206.17" cy="317.08" rx="3.48" ry="0.99" transform="translate(1327.27 2365.31) rotate(-74.95)"/><rect class="cls-3" x="2218.06" y="338.46" width="47.55" height="7.96" rx="3.4"/><rect class="cls-3" x="2216.08" y="345.42" width="26.75" height="8.95" rx="3.82"/><rect class="cls-3" x="2213.1" y="353.38" width="26.75" height="8.95" rx="3.82"/><rect class="cls-3" x="2208.15" y="361.33" width="23.78" height="8.95" rx="3.82"/><ellipse class="cls-13" cx="2227.96" cy="350.39" rx="3.96" ry="2.98"/><ellipse class="cls-13" cx="2225.98" cy="357.35" rx="3.96" ry="2.98"/><ellipse class="cls-13" cx="2220.37" cy="364.81" rx="3.3" ry="2.49"/><path class="cls-11" d="M2241.34,346.21h-13.87a.29.29,0,0,1-.29-.29.3.3,0,0,1,.29-.3h13.87a.3.3,0,0,1,.29.3A.29.29,0,0,1,2241.34,346.21Z"/><path class="cls-11" d="M2237.38,354.16h-13.87a.29.29,0,1,1,0-.58h13.87a.29.29,0,0,1,0,.58Z"/><path class="cls-11" d="M2230.44,362.12h-13.87a.29.29,0,1,1,0-.58h13.87a.29.29,0,1,1,0,.58Z"/><rect class="cls-1" x="2185.6" y="338.77" width="6.73" height="25.4"/><path d="M2192.18,338.92V364h-6.44v-25.1h6.44m.3-.29h-7v25.68h7V338.63Z"/><path d="M167.48,228.26c1.24,1.22,2.32,2.57,3.44,3.9,2.56,3-1.29-1.85.32.41,1,1.45,2.13,2.87,3.18,4.32,4,5.59,7.91,11.3,11.73,17,7.43,11.16,14.83,22.43,21.46,34.1A76.23,76.23,0,0,1,215.84,309c.47,2,.5,4.18,1.08,6,.1.31-.1.76,0,1,.76,2-5.13-2.18.33-2.4,0,0-.69,2.51-.75,2.73-1,3.7,1.34-2.5-.19.59-5.93,11.94-13.79,22.82-21.8,33.43-.55.73-4,5.22-1.84,2.43-1.25,1.61-2.5,3.22-3.77,4.82q-3.06,3.86-6.17,7.68c-2.68,3.3-5.4,6.57-8.13,9.83-5.46,6.52-6.39,15.88,0,22.27,5.61,5.61,16.78,6.55,22.27,0q11.13-13.29,21.7-27c8.79-11.44,17.93-23.24,24.32-36.25,3-6,5.62-12.33,5.51-19.16-.21-13-5.32-26.41-11-37.89s-13.21-22.46-20.27-33.24c-8.3-12.69-16.59-27.12-27.42-37.86-14.42-14.28-36.7,8-22.28,22.28Z"/><path d="M65.19,202c-11.61,6.9-20.69,19.12-29.26,29.27C26.62,242.25,15,253.92,8.74,267c-5.46,11.41-8.72,23.7-6,36.31,1,4.56,3.06,8.89,5,13.1.36.79,2.68,5.77,1.24,2.52,1.25,2.82,2.39,5.7,3.63,8.54,7.13,16.37,15,32.41,23.1,48.34,8.48,16.74,17.16,33.42,26.56,49.67,10.15,17.54,37.37,1.7,27.19-15.9C73.3,381.69,58.68,352.74,45.15,323.5c-1.54-3.34-3.07-6.69-4.55-10.06-.63-1.43-1.25-2.88-1.88-4.32,1.3,3,.39.93.12.29-.79-1.89-1.57-3.79-2.42-5.67-.69-1.53-1.46-3-2.13-4.57,1,2.37,0,0-.13-.44-.3-1-.62-2-.91-3,0,0-.38-2.56-.25-1.16.16,1.7.07-2,.1-2.26a37.46,37.46,0,0,1,1.66-6.16c3.29-10.14,12.3-19.29,19.83-28.34,5.25-6.3,10.56-12.56,16.13-18.59,2.31-2.51,4.66-5,7.13-7.33.93-.89,2-1.7,2.88-2.62,1.24-1.26-3.15,2,.35-.12C98.49,218.8,82.67,191.55,65.19,202Z"/><path d="M148,444.83l-46.68-.48a47.34,47.34,0,0,1-46.62-47.76l1.47-145.83c.14-13.8,4.42-33.82,14-42.39,8.46-7.58,21.75-4.53,33.91-4.41l46.37.47c11.27.12,23.43-3.05,31.49,3.72,10.48,8.8,15.28,29.35,15.14,44L195.59,398A47.33,47.33,0,0,1,148,444.83Z"/><path d="M148.5,447.16H148l-46.68-.48a49.58,49.58,0,0,1-48.93-50.11l1.47-145.83c.15-15,4.83-35.21,14.75-44.1,7.36-6.6,17.66-6,27.63-5.36,2.6.16,5.3.32,7.87.35l46.37.47c2.72,0,5.59-.15,8.36-.32,8.77-.53,17.84-1.09,24.6,4.58,10.7,9,16.13,29.87,16,45.86l-1.47,145.83a49.66,49.66,0,0,1-49.43,49.11Zm-.46-4.67h.46A45,45,0,0,0,193.26,398l1.47-145.83c.15-14.89-4.71-34.18-14.3-42.23-5.33-4.48-13.1-4-21.32-3.5-2.85.17-5.8.36-8.69.33l-46.37-.48c-2.69,0-5.44-.19-8.11-.35-9.42-.58-18.32-1.12-24.22,4.17-8.48,7.6-13.06,26.21-13.2,40.67L57,396.61A44.92,44.92,0,0,0,101.36,442Z"/><path class="cls-1" d="M79,216.92c-4-6.41,1.33-14.22,9.68-14.09l39,.63,38.37.61c8.61.14,13.88,8.36,9.51,14.84l-49.28,73Z"/><path d="M126.18,293.06h0a1.15,1.15,0,0,1-1-.54L78,217.54a9.5,9.5,0,0,1-.28-10,12.19,12.19,0,0,1,11-5.89L166,202.91A12.49,12.49,0,0,1,177,209.32a9.76,9.76,0,0,1-.61,10.24l-49.29,73A1.16,1.16,0,0,1,126.18,293.06ZM88.43,204a9.81,9.81,0,0,0-8.71,4.71,7.21,7.21,0,0,0,.22,7.59l46.27,73.46,48.29-71.5a7.49,7.49,0,0,0,.47-7.86,10.18,10.18,0,0,0-9-5.16L88.62,204Z"/><polygon class="cls-2" points="140.66 270.29 126.22 291.9 112.89 270.01 127.45 236.84 140.66 270.29"/><path d="M60.87,678.26a19.85,19.85,0,0,1-18.8-26.16c4.68-13.9,13.86-53,20-103.6,5.13-42.3,9.58-105.33,1.59-165.34A19.83,19.83,0,1,1,103,377.92c15.63,117.4-12,253.23-23.31,286.82A19.84,19.84,0,0,1,60.87,678.26Z"/><path d="M138.77,679.05a19.6,19.6,0,0,1-6.32-1A19.82,19.82,0,0,1,120,652.9c4.67-13.91,13.85-53,20-103.61C145.11,507,149.55,444,141.56,384a19.83,19.83,0,1,1,39.31-5.23c15.64,117.4-12,253.22-23.31,286.81A19.83,19.83,0,0,1,138.77,679.05Z"/><ellipse class="cls-1" cx="125.87" cy="326.58" rx="4.74" ry="4.76"/><ellipse class="cls-1" cx="125.52" cy="360.57" rx="4.74" ry="4.76"/><ellipse class="cls-1" cx="125.14" cy="398.65" rx="4.74" ry="4.76"/><polygon class="cls-2" points="127.48 237.05 140.78 225.63 134.27 214.13 121.09 214.03 114.42 225.45 127.48 237.05"/><rect class="cls-3" x="110.65" y="163.74" width="33.87" height="51.68" rx="14.52" transform="matrix(1, 0.01, -0.01, 1, 1.94, -1.29)"/><path class="cls-4" d="M74.48,394.68a11.54,11.54,0,0,1-11.63,11.45c-6.36-.07-11.85-.88-11.78-7.26"/><path class="cls-5" d="M63,407.29h-.13c-4.55,0-13-.13-12.94-8.43a1.18,1.18,0,0,1,1.17-1.16h0a1.16,1.16,0,0,1,1.15,1.18c0,5,3.7,6,10.63,6.08H63a10.38,10.38,0,0,0,10.34-10.29,1.17,1.17,0,0,1,1.17-1.15h0a1.17,1.17,0,0,1,1.16,1.18A12.72,12.72,0,0,1,63,407.29Z"/><path class="cls-5" d="M186.16,404.17h-.79a12.73,12.73,0,0,1-12.55-12.86,1.17,1.17,0,0,1,1.16-1.15h0a1.15,1.15,0,0,1,1.15,1.17,10.38,10.38,0,0,0,10.24,10.5c2.7,0,5.76-.07,7.84-1s2.89-2.38,2.91-4.87a1.18,1.18,0,0,1,1.17-1.16h0a1.17,1.17,0,0,1,1.15,1.18c0,3.39-1.48,5.74-4.29,7A20.6,20.6,0,0,1,186.16,404.17Z"/><rect class="cls-5" x="154.74" y="282.14" width="29.13" height="4.76" transform="translate(2.9 -1.71) rotate(0.58)"/><path class="cls-5" d="M185,288.23l-31.46-.32.07-7.1,31.46.32Zm-29.1-2.63,26.79.27,0-2.43-26.79-.27Z"/><polygon class="cls-1" points="49.49 397.65 61.66 388.94 63.07 390.92 50.89 399.62 49.49 397.65"/><path d="M61.63,389.15l1.23,1.74-11.94,8.53-1.23-1.74,11.94-8.53m.07-.41-12.42,8.87,1.58,2.22L63.27,391l-1.57-2.22Z"/><polygon class="cls-1" points="184.84 387.33 186.28 385.38 198.34 394.24 196.9 396.19 184.84 387.33"/><path d="M186.31,385.59l11.83,8.68L196.87,396,185,387.3l1.27-1.71m-.06-.41-1.62,2.18,12.3,9,1.62-2.18-12.3-9Z"/><path class="cls-6" d="M60.2,387.21a13.18,13.18,0,0,0,5.6,5.91"/><path class="cls-6" d="M183,388.7a13.25,13.25,0,0,0,5-6.4"/><path d="M67.05,670a3.43,3.43,0,0,1,.82.09c4.53,1,9.42,1.45,13.95,2.79l34.45.35a27.82,27.82,0,0,0-27.49-28.15l-33.72-.35a4.91,4.91,0,0,0-4.94,4.86l-.23,23,12.18.12a3.3,3.3,0,0,1,5-2.68Z"/><path d="M116.27,675.6h0l-34.44-.35a2.76,2.76,0,0,1-.64-.1,73.81,73.81,0,0,0-8.39-1.76c-1.78-.3-3.62-.61-5.4-1a1.76,1.76,0,0,0-.31,0h0a2.33,2.33,0,0,1-1.21-.34.92.92,0,0,0-.49-.12c-.22,0-.88,0-.95,1a2.33,2.33,0,0,1-2.33,2.18h0l-12.18-.13a2.33,2.33,0,0,1-2.31-2.35l.23-23A7.22,7.22,0,0,1,55,642.43h.07l33.72.34a30.2,30.2,0,0,1,29.8,30.52,2.34,2.34,0,0,1-2.33,2.31Zm-34.1-5,31.68.33a25.5,25.5,0,0,0-25.09-23.47L55,647.1a2.8,2.8,0,0,0-1.82.73,2.55,2.55,0,0,0-.76,1.81l-.21,20.64,8.06.08a5.45,5.45,0,0,1,5-3.13h.06a5.67,5.67,0,0,1,2.29.5,5.07,5.07,0,0,1,.68.11c1.67.36,3.38.65,5.19.95A80.52,80.52,0,0,1,82.17,670.58Z"/><path d="M143.57,672.85a3.83,3.83,0,0,1,.81.08c4.54,1,9.42,1.46,14,2.8l34.45.35a27.84,27.84,0,0,0-27.49-28.16l-33.72-.34a4.9,4.9,0,0,0-4.94,4.86l-.23,23,12.18.12a3.3,3.3,0,0,1,5-2.68Z"/><path d="M192.79,678.42h0l-34.44-.35a2.76,2.76,0,0,1-.64-.1,74.27,74.27,0,0,0-8.39-1.76c-1.78-.3-3.62-.61-5.4-1-.11,0-.23,0-.31,0a2.19,2.19,0,0,1-1.23-.34.87.87,0,0,0-.49-.12c-.21,0-.88,0-.94,1a2.34,2.34,0,0,1-2.33,2.18h0l-12.19-.13a2.34,2.34,0,0,1-2.31-2.36l.24-23a7.22,7.22,0,0,1,7.22-7.16h.07l33.72.34a30.2,30.2,0,0,1,29.8,30.52,2.34,2.34,0,0,1-2.33,2.31Zm-34.1-5,31.68.32a25.51,25.51,0,0,0-25.1-23.46l-33.72-.34a2.72,2.72,0,0,0-1.81.73,2.56,2.56,0,0,0-.77,1.81l-.21,20.64,8.06.08a5.45,5.45,0,0,1,5-3.13h.06a5.71,5.71,0,0,1,2.29.5c.22,0,.45.06.68.1,1.67.37,3.38.66,5.18,1A80.19,80.19,0,0,1,158.69,673.4Z"/><path class="cls-7" d="M53.08,643.54c2.45,4.36,7,4.74,11.65,5.17,5,.47,9.7-.44,13.5-3.91,1.67-1.52-.81-4-2.48-2.47-2.87,2.62-6.48,3.21-10.25,3-3.33-.23-7.62-.35-9.4-3.52-1.11-2-4.13-.2-3,1.77Z"/><path class="cls-7" d="M130.27,646.36c2.46,4.36,7,4.74,11.65,5.17,5,.47,9.71-.44,13.5-3.9,1.67-1.52-.81-4-2.47-2.48-2.87,2.62-6.49,3.22-10.26,3-3.33-.22-7.61-.35-9.4-3.51-1.1-2-4.13-.2-3,1.76Z"/><ellipse class="cls-8" cx="100.79" cy="59.09" rx="30.82" ry="30.94"/><ellipse class="cls-8" cx="131.32" cy="55.32" rx="26.08" ry="26.18"/><ellipse class="cls-8" cx="66.88" cy="63.51" rx="26.08" ry="26.18"/><ellipse class="cls-8" cx="163.79" cy="59.73" rx="26.08" ry="26.18"/><ellipse class="cls-8" cx="182.17" cy="84.06" rx="25.06" ry="25.16"/><ellipse class="cls-8" cx="138.84" cy="81.58" rx="32.51" ry="32.64"/><ellipse class="cls-8" cx="86.94" cy="89.55" rx="30.14" ry="30.26"/><rect class="cls-8" x="60.56" y="103.32" width="18.29" height="31.96" rx="7.84" transform="translate(1.22 -0.7) rotate(0.58)"/><ellipse class="cls-8" cx="52.66" cy="96.34" rx="24.38" ry="24.48"/><path class="cls-3" d="M144.57,179.55l6.15.07,10.84.11,7.85-1.14a4.06,4.06,0,0,0,1.77-.69h0A24.57,24.57,0,0,0,180,167h0l1.32-8.65c.08-.57.15-1.14.2-1.71l.56-6.95a24.14,24.14,0,0,0,0-3.4l-.48-7.83-.61-6.8-.57-10.21-.59-8.84,0-3.4-6.76-1.43-6.06-3.46-5.38-4.14-6-6.86-1.41,5.43-2.75,4.05-2.74,2.69-4.09,2.68-4.09,2-5.42.62-5.42,0-5.41-.74-4.72-2.77-3.35-3.43-3.34-4.12-3.35-4.11L107.48,101l-2.08,5.42-2.75,3.37-2.73,2-3.4,2-3.41,2-3.39.65-4.07,0-4.06-.05L78.89,115l-2-2.06-.07,7.48-.11,10.19-12.87-.13L64,116.86l-2,1.33-3.4,1.33L55,120.2a20.24,20.24,0,0,1-6.45.17l-2.17-.29-.09,8.65a9.42,9.42,0,0,0,.46,3h0a14.28,14.28,0,0,0,5.53,7.43h0L57.62,142l4.73,1.41,6.59.67a2.32,2.32,0,0,1,1.45.7h0a2.52,2.52,0,0,1,.73,1.82l0,4.38,0,2.1a5.53,5.53,0,0,0,.55,2.46L73,158.43l1.82,3.74a3.64,3.64,0,0,0,.43.67l2.86,3.51a3.72,3.72,0,0,0,.52.53l6.17,5.06a3,3,0,0,0,.56.36l5.09,2.62,4.73,1.41,2.29.95a6.43,6.43,0,0,0,2.25.48l11,.35"/><path d="M134.27,125.11l-16.05.27c-2.28,0-4.17-1.52-4.21-3.45v-.25c0-1.94,1.8-3.55,4.07-3.59l16.06-.27c2.27,0,4.17,1.51,4.2,3.45v.24C138.38,123.45,136.55,125.07,134.27,125.11Z"/><rect x="154.36" y="117.56" width="23.71" height="6.8" rx="2.9" transform="translate(1.24 -1.69) rotate(0.58)"/><ellipse cx="127.96" cy="131.11" rx="5.1" ry="4.86" transform="translate(-4.34 257.83) rotate(-89.46)"/><ellipse cx="168.6" cy="131.52" rx="5.1" ry="4.86" transform="translate(35.51 298.88) rotate(-89.46)"/><ellipse class="cls-9" cx="148.88" cy="160.56" rx="1.36" ry="13.55" transform="translate(-13.18 307.8) rotate(-89.42)"/><path class="cls-10" d="M153.29,162.53l-4.43,0c-3.67,0-7.14-.07-9.62-.27-2.7-.21-4.5-.61-4.49-1.82a1.13,1.13,0,0,1,.38-.84c1.09-1.07,4.65-1.08,11.39-1l2.38,0c10.47.11,14.13.31,14.11,2.09h0C163,162.21,160.39,162.53,153.29,162.53Zm-10.64-2.81c-3.39,0-6.45.12-6.73.71.59.78,7.44.85,13,.9,5.36.06,12,.13,12.93-.64-.93-.79-7.55-.85-12.91-.91l-2.39,0Zm19.78,1h0Z"/><path class="cls-11" d="M147.77,136.62c.82,2.29,2.4,3.8,3.65,5.82.8,1.31,1.49,3,.17,4.28s-3.46,1.05-5.11.93c-2.25-.17-2.24,3.33,0,3.5,3.58.27,8.08-.54,9.21-4.57,1.29-4.54-3.2-7.14-4.54-10.89-.75-2.11-4.14-1.2-3.38.93Z"/><path class="cls-11" d="M112.09,205.36l-.66-2.05a12.83,12.83,0,0,1-.53-4.2l.11-20a1,1,0,0,1,1-1l23.63.6a.27.27,0,0,1,.11.51l-6.53,3.07a7.65,7.65,0,0,1-1.41.51l-11.54,2.9L115.53,210"/><path class="cls-11" d="M71.85,146.48c-1.45,9.13,4,17.4,11.14,22.71,1.8,1.35,3.55-1.69,1.76-3-2.53-1.89-4.38-4.56-6.4-7a14.55,14.55,0,0,1-3.13-11.76c.35-2.2-3-3.15-3.37-.93Z"/><path class="cls-11" d="M72.41,147.31c1.08,13.13,11.88,20.55,22.4,26.57,2,1.12,3.72-1.91,1.76-3-9.25-5.29-19.7-11.83-20.66-23.54-.19-2.23-3.69-2.25-3.5,0Z"/><path class="cls-11" d="M74.61,156.94c.45,2,2,3.66,3.09,5.37a24.27,24.27,0,0,0,5,5.72c4,3.34,8.79,5.42,13.67,7.1,2.14.74,3.05-2.64.93-3.37-4.28-1.48-8.6-3.29-12.13-6.2a20.43,20.43,0,0,1-4.1-4.51c-.85-1.29-2.73-3.56-3.07-5-.51-2.19-3.88-1.26-3.37.93Z"/><path class="cls-11" d="M84,169.18c.49.17.91.77,1.32,1.08a8.55,8.55,0,0,0,1.6.93c1.27.59,2.58,1.11,3.86,1.67,2,.88,3.83-2.13,1.77-3-1.43-.62-2.9-1.17-4.28-1.87s-2-1.7-3.34-2.16c-2.12-.75-3,2.63-.93,3.37Z"/><path class="cls-11" d="M83.09,168.73l2.77,1.51a1.75,1.75,0,0,0,1.77-3l-2.77-1.51a1.75,1.75,0,1,0-1.77,3Z"/><path class="cls-11" d="M85,169.8a1.75,1.75,0,0,0,0-3.5,1.75,1.75,0,0,0,0,3.5Z"/><path class="cls-11" d="M82.41,167.35c.9,2.46,3.07,3.43,5.24,4.62A55,55,0,0,0,96,175.32c2.12.76,3-2.62.93-3.37a60.16,60.16,0,0,1-6.25-2.34c-1.25-.61-4.36-1.8-4.87-3.19-.76-2.09-4.15-1.19-3.37.93Z"/><path class="cls-11" d="M80.31,165.8a27.8,27.8,0,0,0,16.83,10.25c2.2.42,3.15-3,.93-3.37-5.39-1-11.5-4.23-14.74-8.65-1.32-1.8-4.36-.05-3,1.77Z"/><path class="cls-11" d="M94.45,174l6.48,2.74a1.81,1.81,0,0,0,2.39-.62,1.77,1.77,0,0,0-.62-2.4L96.22,171a1.8,1.8,0,0,0-2.39.63,1.75,1.75,0,0,0,.62,2.39Z"/><path class="cls-11" d="M97.74,175.87a4.12,4.12,0,0,1,1.4.08v-3.38a1.55,1.55,0,0,1-.74.06,1.75,1.75,0,0,0-.93,3.38,30.24,30.24,0,0,0,3.75.94,1.79,1.79,0,0,0,2.15-1.23,1.76,1.76,0,0,0-1.22-2.15,28.56,28.56,0,0,1-3.75-.94L97.47,176a6.16,6.16,0,0,0,2.6-.06,1.77,1.77,0,0,0,0-3.38,7.34,7.34,0,0,0-2.33-.2A1.81,1.81,0,0,0,96,174.12a1.76,1.76,0,0,0,1.75,1.75Z"/><path class="cls-3" d="M52.32,121.45c-.18,3.75-.22,7.91,2,11.12S61,137.31,64.79,138c2.2.41,3.15-3,.93-3.38-3.1-.58-7.09-1.59-8.79-4.52-1.49-2.54-1.25-5.85-1.11-8.67.11-2.26-3.39-2.25-3.5,0Z"/><path class="cls-11" d="M57.12,123.75a6.06,6.06,0,0,0,.92,5.58,4.7,4.7,0,0,0,5.26,1.55,1.82,1.82,0,0,0,1.22-2.16,1.78,1.78,0,0,0-2.16-1.22c-1.77.67-2.31-1.48-1.87-2.82.71-2.14-2.67-3.06-3.37-.93Z"/><path class="cls-11" d="M51.35,121.84c.15,1.79-.52,3.5-.36,5.29a8.23,8.23,0,0,0,1.76,4.26c2.15,2.8,5.54,3.88,8.89,4.47,2.2.39,3.14-3,.93-3.37C60,132,56.92,131.38,55.32,129s-.26-4.68-.47-7.18c-.19-2.22-3.69-2.24-3.5,0Z"/><path class="cls-11" d="M53,123.49a1.75,1.75,0,0,0,0-3.5,1.75,1.75,0,0,0,0,3.5Z"/><path class="cls-1" d="M161.74,651.5c3.52-.09,7.19-.25,10.57.92s6.35,3.63,9.13,6c1.71,1.43,4.2-1,2.47-2.48-2.91-2.44-5.89-4.95-9.44-6.39-4.06-1.65-8.42-1.62-12.73-1.51-2.24.06-2.25,3.56,0,3.5Z"/><path class="cls-1" d="M90.07,650a22,22,0,0,1,16.67,8.11c1.44,1.73,3.9-.75,2.47-2.47a25.3,25.3,0,0,0-19.14-9.14c-2.26,0-2.26,3.45,0,3.5Z"/><line class="cls-12" x1="114.68" y1="226.51" x2="99.57" y2="247.43"/><rect class="cls-12" x="94.22" y="235.8" width="25.81" height="2.33" transform="translate(-147.68 184.94) rotate(-54.13)"/><rect class="cls-12" x="146.6" y="224.41" width="2.33" height="25.26" transform="translate(-110.31 130.19) rotate(-35.57)"/><path class="cls-11" d="M105.81,72.32A28.61,28.61,0,0,1,100.2,96c-1.37,1.78,1.67,3.53,3,1.77a32,32,0,0,0,6-26.38c-.45-2.2-3.83-1.27-3.37.93Z"/><path class="cls-11" d="M186.79,64.42c8.11,3,18.82,23.45,6.64,28.11-2.08.8-1.17,4.18.94,3.37,15.6-6,5.12-30.45-6.65-34.85-2.12-.79-3,2.59-.93,3.37Z"/><path class="cls-11" d="M147.27,57.22c5.92-2.95,12.27,1.39,14.79,6.79s2.34,11.37,2.23,17.12c0,2.25,3.46,2.25,3.5,0,.15-7.85.16-17-5.55-23.19-4.36-4.69-10.87-6.66-16.74-3.74-2,1-.24,4,1.77,3Z"/><path class="cls-11" d="M109.85,49.12c10.67-.15,10.72,13.11,10.29,20.56-.13,2.25,3.37,2.24,3.5,0,.56-9.59-1-24.25-13.79-24.06-2.25,0-2.26,3.53,0,3.5Z"/><path class="cls-11" d="M58.35,65.75a32.5,32.5,0,0,0-7.52,40.34c1.08,2,4.11.21,3-1.77a29,29,0,0,1,7-36.09c1.74-1.44-.75-3.91-2.47-2.48Z"/><path d="M1094.51,228.48c.9,13.09,5,26.17,8.42,38.75,3.87,14.12,7.93,28.25,12.74,42.09,6.1,17.59,15.61,35.64,30.91,46.85,11.25,8.24,24.45,14.13,37.13,19.78,8.46,3.76,17,7.4,25.71,10.57,5.62,2.05,11.38,4,17.42,4.31,8.51.39,15.75-7.52,15.75-15.75,0-8.85-7.22-15.35-15.75-15.75-1.07-.05,4.88,1.15,2,.26-.81-.25-1.66-.39-2.49-.62-2.39-.66-4.74-1.47-7.08-2.3-2.82-1-5.61-2.07-8.38-3.17-1.35-.53-2.7-1.08-4-1.63l-2.38-1c3.42,1.43-.72-.32-1.12-.49-12.55-5.45-25.24-11.24-36.79-18.63-1-.67-2-1.39-3.06-2.06-2.93-1.91,2.19,2.37.17.11a83.63,83.63,0,0,1-7.69-9.11,107.43,107.43,0,0,1-7.75-14c-1.61-3.41.1.62-.5-1.13-.35-1-.76-2-1.12-3-4.49-12.57-8.18-25.46-11.8-38.3-2.15-7.64-4.22-15.3-6.08-23-.78-3.22-1.53-6.45-2.18-9.7-.23-1.2-.41-2.42-.66-3.62-.49-2.38.41,4.69.13.58-.58-8.48-6.82-15.75-15.75-15.75-8.07,0-16.33,7.22-15.74,15.75Z"/><path d="M999,202c-11.61,6.9-20.68,19.12-29.25,29.27-9.32,11-21,22.7-27.2,35.77-5.46,11.41-8.72,23.7-6,36.31,1,4.56,3,8.89,5,13.1.36.79,2.68,5.77,1.24,2.52,1.25,2.82,2.4,5.7,3.63,8.54,7.13,16.37,15,32.41,23.1,48.34,8.48,16.74,17.16,33.42,26.56,49.67,10.15,17.54,37.38,1.7,27.2-15.9-16.14-27.88-30.76-56.83-44.28-86.07q-2.33-5-4.56-10.06c-.63-1.43-1.25-2.88-1.88-4.32,1.3,3,.4.93.13.29-.8-1.89-1.58-3.79-2.43-5.67-.69-1.53-1.46-3-2.13-4.57,1,2.37,0,0-.13-.44-.3-1-.62-2-.9-3,0,0-.39-2.56-.26-1.16.16,1.7.07-2,.1-2.26a37.46,37.46,0,0,1,1.66-6.16c3.3-10.14,12.3-19.29,19.84-28.34,5.24-6.3,10.56-12.56,16.12-18.59,2.31-2.51,4.66-5,7.13-7.33.94-.89,2-1.7,2.89-2.62,1.24-1.26-3.16,2,.35-.12,17.4-10.34,1.58-37.59-15.9-27.19Z"/><path d="M1081.8,444.83l-46.68-.48a47.34,47.34,0,0,1-46.63-47.76L990,250.76c.14-13.8,4.42-33.82,14-42.39,8.46-7.58,21.75-4.53,33.92-4.41l46.37.47c11.26.12,23.42-3.05,31.48,3.72,10.48,8.8,15.29,29.35,15.14,44L1129.38,398A47.34,47.34,0,0,1,1081.8,444.83Z"/><path d="M1082.28,447.16h-.51l-46.68-.48a49.58,49.58,0,0,1-48.93-50.11l1.47-145.83c.15-15,4.84-35.21,14.76-44.1,7.35-6.6,17.65-6,27.62-5.36,2.6.16,5.3.32,7.87.35l46.37.47c2.73,0,5.59-.15,8.36-.32,8.78-.53,17.84-1.09,24.61,4.58,10.69,9,16.12,29.87,16,45.86l-1.47,145.83a49.66,49.66,0,0,1-49.43,49.11Zm-.46-4.67h.46A45,45,0,0,0,1127,398l1.48-145.83c.15-14.89-4.72-34.18-14.31-42.23-5.33-4.48-13.09-4-21.31-3.5-2.85.17-5.8.36-8.7.33l-46.37-.48c-2.69,0-5.44-.19-8.1-.35-9.42-.57-18.33-1.12-24.23,4.17-8.47,7.6-13,26.21-13.2,40.67l-1.47,145.83A44.92,44.92,0,0,0,1035.14,442Z"/><path class="cls-1" d="M1012.74,216.92c-4-6.41,1.32-14.22,9.68-14.09l38.94.63,38.37.61c8.61.14,13.89,8.36,9.51,14.84l-49.28,73Z"/><path d="M1060,293.06h0a1.16,1.16,0,0,1-1-.54l-47.22-75a9.5,9.5,0,0,1-.28-10,12.15,12.15,0,0,1,11-5.89l77.31,1.24a12.52,12.52,0,0,1,11.08,6.41,9.76,9.76,0,0,1-.62,10.24l-49.28,73A1.17,1.17,0,0,1,1060,293.06ZM1022.21,204a9.82,9.82,0,0,0-8.71,4.71,7.24,7.24,0,0,0,.23,7.59h0L1060,289.76l48.29-71.5a7.51,7.51,0,0,0,.48-7.86,10.19,10.19,0,0,0-9-5.16L1022.4,204Z"/><polygon class="cls-2" points="1074.44 270.29 1060 291.9 1046.67 270.01 1061.23 236.84 1074.44 270.29"/><path d="M994.66,678.26a19.6,19.6,0,0,1-6.32-1,19.83,19.83,0,0,1-12.48-25.12c4.67-13.9,13.86-53,20-103.6,5.14-42.3,9.58-105.33,1.59-165.34a19.83,19.83,0,1,1,39.31-5.24c15.64,117.4-12,253.23-23.31,286.82A19.83,19.83,0,0,1,994.66,678.26Z"/><path d="M1072.55,679.05a19.6,19.6,0,0,1-6.32-1,19.83,19.83,0,0,1-12.48-25.11c4.67-13.91,13.86-53,20-103.61,5.14-42.3,9.58-105.32,1.59-165.34a19.83,19.83,0,1,1,39.32-5.23c15.63,117.4-12,253.22-23.32,286.81A19.83,19.83,0,0,1,1072.55,679.05Z"/><ellipse class="cls-1" cx="1059.65" cy="326.58" rx="4.74" ry="4.76"/><ellipse class="cls-1" cx="1059.31" cy="360.57" rx="4.74" ry="4.76"/><ellipse class="cls-1" cx="1058.92" cy="398.65" rx="4.74" ry="4.76"/><polygon class="cls-2" points="1061.27 237.05 1074.57 225.63 1068.06 214.13 1054.87 214.03 1048.2 225.45 1061.27 237.05"/><rect class="cls-3" x="1044.44" y="163.74" width="33.87" height="51.68" rx="14.52" transform="translate(1.98 -10.79) rotate(0.58)"/><path class="cls-4" d="M1008.26,394.68a11.54,11.54,0,0,1-11.63,11.45c-6.36-.07-11.84-.88-11.78-7.26"/><path class="cls-5" d="M996.75,407.29h-.13c-4.55,0-13-.13-12.94-8.43a1.18,1.18,0,0,1,1.17-1.16h0a1.17,1.17,0,0,1,1.16,1.18c0,5,3.69,6,10.62,6.08h.11a10.38,10.38,0,0,0,10.35-10.29,1.15,1.15,0,0,1,1.16-1.15h0a1.16,1.16,0,0,1,1.15,1.18A12.72,12.72,0,0,1,996.75,407.29Z"/><path class="cls-5" d="M1119.94,404.17h-.79a12.73,12.73,0,0,1-12.55-12.86,1.17,1.17,0,0,1,1.17-1.15h0a1.15,1.15,0,0,1,1.15,1.17,10.39,10.39,0,0,0,10.25,10.5c2.71,0,5.75-.07,7.84-1s2.88-2.38,2.9-4.87a1.18,1.18,0,0,1,1.17-1.16h0a1.18,1.18,0,0,1,1.16,1.18c0,3.39-1.48,5.74-4.3,7A20.54,20.54,0,0,1,1119.94,404.17Z"/><rect class="cls-5" x="1088.53" y="282.14" width="29.13" height="4.76" transform="translate(2.95 -11.21) rotate(0.58)"/><path class="cls-5" d="M1118.78,288.23l-31.46-.32.08-7.1,31.45.32Zm-29.1-2.63,26.79.27,0-2.43-26.79-.27Z"/><polygon class="cls-1" points="983.27 397.65 995.45 388.94 996.85 390.92 984.67 399.62 983.27 397.65"/><path d="M995.41,389.15l1.24,1.74-11.94,8.53-1.24-1.74,11.94-8.53m.07-.41-12.41,8.87,1.57,2.22L997.05,391l-1.57-2.22Z"/><path class="cls-6" d="M994,387.21a13.15,13.15,0,0,0,5.61,5.91"/><path d="M1000.83,670a3.38,3.38,0,0,1,.82.09c4.54,1,9.42,1.45,14,2.79l34.44.35a27.82,27.82,0,0,0-27.49-28.15l-33.72-.35a4.89,4.89,0,0,0-4.93,4.86l-.24,23,12.19.12a3.18,3.18,0,0,1,3.29-3.14A3.13,3.13,0,0,1,1000.83,670Z"/><path d="M1050.05,675.6h0l-34.45-.35a2.67,2.67,0,0,1-.63-.1,74.45,74.45,0,0,0-8.4-1.76c-1.78-.3-3.62-.61-5.4-1a1.65,1.65,0,0,0-.31,0,2.61,2.61,0,0,1-1.22-.34.89.89,0,0,0-.49-.12c-.22,0-.88,0-.94,1a2.34,2.34,0,0,1-2.33,2.18h0l-12.18-.13a2.33,2.33,0,0,1-2.31-2.35l.23-23a7.24,7.24,0,0,1,7.22-7.17h.08l33.72.34a30.19,30.19,0,0,1,29.79,30.52,2.26,2.26,0,0,1-.7,1.64A2.31,2.31,0,0,1,1050.05,675.6Zm-34.1-5,31.69.33a25.52,25.52,0,0,0-25.1-23.47l-33.72-.34a2.79,2.79,0,0,0-1.81.73,2.56,2.56,0,0,0-.77,1.81L986,670.28l8.06.08a5.45,5.45,0,0,1,5-3.13h.07a5.62,5.62,0,0,1,2.28.5,5.07,5.07,0,0,1,.68.11c1.68.36,3.38.65,5.19.95A80,80,0,0,1,1016,670.58Z"/><path d="M1077.35,672.85a4,4,0,0,1,.82.08c4.53,1,9.42,1.46,13.95,2.8l34.45.35a27.84,27.84,0,0,0-27.49-28.16l-33.72-.34a4.9,4.9,0,0,0-4.94,4.86l-.23,23,12.18.12a3.3,3.3,0,0,1,5-2.68Z"/><path d="M1126.57,678.42h0l-34.44-.35a2.76,2.76,0,0,1-.64-.1,73.81,73.81,0,0,0-8.39-1.76c-1.78-.3-3.62-.61-5.4-1l-.3,0h0a2.35,2.35,0,0,1-1.21-.34.94.94,0,0,0-.5-.12c-.21,0-.87,0-.94,1a2.34,2.34,0,0,1-2.33,2.18h0l-12.18-.13a2.33,2.33,0,0,1-2.31-2.36l.23-23a7.22,7.22,0,0,1,7.22-7.16h.07l33.72.34a30.2,30.2,0,0,1,29.8,30.52,2.3,2.3,0,0,1-.7,1.64A2.33,2.33,0,0,1,1126.57,678.42Zm-34.1-5,31.68.32a25.5,25.5,0,0,0-25.09-23.46l-33.72-.34a2.57,2.57,0,0,0-1.81.73,2.52,2.52,0,0,0-.77,1.81l-.21,20.64,8.06.08a5.54,5.54,0,0,1,5.08-3.13,5.67,5.67,0,0,1,2.29.5c.23,0,.45.06.68.1,1.67.37,3.38.66,5.19,1A80.52,80.52,0,0,1,1092.47,673.4Z"/><path class="cls-7" d="M986.86,643.54c2.46,4.36,7,4.74,11.65,5.17,5,.47,9.71-.44,13.5-3.91,1.67-1.52-.81-4-2.47-2.47-2.87,2.62-6.49,3.21-10.26,3-3.33-.23-7.61-.35-9.4-3.52-1.1-2-4.13-.2-3,1.77Z"/><path class="cls-7" d="M1064.05,646.36c2.46,4.36,7,4.74,11.66,5.17,5,.47,9.7-.44,13.5-3.9,1.66-1.52-.82-4-2.48-2.48-2.87,2.62-6.48,3.22-10.25,3-3.33-.22-7.62-.35-9.4-3.51-1.11-2-4.13-.2-3,1.76Z"/><ellipse class="cls-8" cx="1034.58" cy="59.09" rx="30.82" ry="30.94"/><ellipse class="cls-8" cx="1065.1" cy="55.32" rx="26.08" ry="26.18"/><ellipse class="cls-8" cx="1000.66" cy="63.51" rx="26.08" ry="26.18"/><ellipse class="cls-8" cx="1097.57" cy="59.73" rx="26.08" ry="26.18"/><ellipse class="cls-8" cx="1115.95" cy="84.06" rx="25.06" ry="25.16"/><ellipse class="cls-8" cx="1072.62" cy="81.58" rx="32.51" ry="32.64"/><ellipse class="cls-8" cx="1020.72" cy="89.55" rx="30.14" ry="30.26"/><rect class="cls-8" x="994.34" y="103.32" width="18.29" height="31.96" rx="7.84" transform="translate(1.27 -10.21) rotate(0.58)"/><ellipse class="cls-8" cx="986.45" cy="96.34" rx="24.38" ry="24.48"/><path class="cls-3" d="M1078.35,179.55l6.15.07,10.84.11,7.86-1.14a4.06,4.06,0,0,0,1.76-.69h0a24.5,24.5,0,0,0,8.8-10.91h0l1.32-8.65c.09-.57.15-1.14.2-1.71l.57-6.95a24.13,24.13,0,0,0,0-3.4l-.48-7.83-.61-6.8-.57-10.21-.59-8.84,0-3.4-6.76-1.43-6.07-3.46-5.37-4.14-6-6.86L1088,98.74l-2.75,4.05-2.74,2.69-4.09,2.68-4.08,2-5.43.62-5.42,0-5.41-.74-4.71-2.77-3.35-3.43-3.35-4.12-3.35-4.11-2.08,5.42-2.09,5.42-2.74,3.37-2.73,2-3.41,2-3.41,2-3.39.65-4.06,0-4.07-.05-2.69-1.38-2-2.06-.07,7.48-.1,10.19-12.87-.13.13-13.59-2,1.33-3.4,1.33-3.58.68a20.23,20.23,0,0,1-6.45.17l-2.17-.29-.09,8.65a9.71,9.71,0,0,0,.46,3h0a14.33,14.33,0,0,0,5.53,7.43h0L991.4,142l4.73,1.41,6.59.67a2.34,2.34,0,0,1,1.46.7h0a2.61,2.61,0,0,1,.73,1.82l0,4.38,0,2.1a5.53,5.53,0,0,0,.55,2.46l1.43,2.94,1.81,3.74a3.64,3.64,0,0,0,.43.67l2.86,3.51a4.34,4.34,0,0,0,.52.53l6.17,5.06a3.33,3.33,0,0,0,.56.36l5.09,2.62,4.73,1.41,2.29.95a6.48,6.48,0,0,0,2.25.48l11,.35"/><path d="M1068.13,128.08l-13.53-1.56a3.54,3.54,0,0,1-3.09-3.91l0-.24a3.52,3.52,0,0,1,3.88-3.1l13.54,1.56a3.54,3.54,0,0,1,3.09,3.91l0,.24A3.52,3.52,0,0,1,1068.13,128.08Z"/><rect x="1088.15" y="117.56" width="23.71" height="6.8" rx="2.9" transform="translate(1.29 -11.19) rotate(0.58)"/><ellipse cx="1061.74" cy="131.11" rx="5.1" ry="4.86" transform="translate(920.73 1191.58) rotate(-89.46)"/><ellipse cx="1102.38" cy="131.52" rx="5.1" ry="4.86" transform="translate(960.57 1232.62) rotate(-89.46)"/><ellipse class="cls-9" cx="1082.66" cy="160.56" rx="1.36" ry="13.55" transform="translate(911.1 1241.53) rotate(-89.42)"/><path class="cls-10" d="M1087.36,162.53l-4.71,0c-3.68,0-7.15-.07-9.62-.27-2.71-.21-4.51-.61-4.5-1.82a1.21,1.21,0,0,1,.38-.84c1.09-1.07,4.65-1.08,11.39-1l2.38,0c10.47.11,14.13.31,14.11,2.09h0c0,1.21-1.82,1.57-4.52,1.73C1090.89,162.51,1089.21,162.53,1087.36,162.53Zm-10.93-2.81c-3.39,0-6.45.12-6.73.71.59.78,7.45.85,13,.9,5.36.06,12,.13,12.92-.64-.92-.79-7.55-.85-12.9-.91l-2.39,0Zm19.78,1h0Z"/><path class="cls-11" d="M1081.56,136.62c.81,2.29,2.39,3.8,3.64,5.82.81,1.31,1.49,3,.17,4.28s-3.46,1.05-5.11.93c-2.25-.17-2.24,3.33,0,3.5,3.58.27,8.08-.54,9.22-4.57,1.28-4.54-3.21-7.14-4.55-10.89-.75-2.11-4.13-1.2-3.37.93Z"/><path class="cls-11" d="M1045.87,205.36l-.65-2.05a13.11,13.11,0,0,1-.54-4.2l.12-20a.94.94,0,0,1,1-1l23.64.6a.27.27,0,0,1,.1.51l-6.52,3.07a8,8,0,0,1-1.42.51l-11.54,2.9-.72,24.25"/><path class="cls-11" d="M1005.63,146.48c-1.44,9.13,4,17.4,11.14,22.71,1.81,1.35,3.55-1.69,1.77-3-2.54-1.89-4.39-4.56-6.41-7a14.51,14.51,0,0,1-3.12-11.76c.34-2.2-3-3.15-3.38-.93Z"/><path class="cls-11" d="M1006.19,147.31c1.08,13.13,11.89,20.55,22.4,26.57,2,1.12,3.72-1.91,1.77-3-9.26-5.29-19.71-11.83-20.67-23.54-.18-2.23-3.68-2.25-3.5,0Z"/><path class="cls-11" d="M1008.39,156.94c.46,2,2,3.66,3.09,5.37a24.5,24.5,0,0,0,5,5.72c4,3.34,8.8,5.42,13.67,7.1,2.14.74,3.06-2.64.94-3.37-4.29-1.48-8.6-3.29-12.14-6.2a20.68,20.68,0,0,1-4.1-4.51c-.85-1.29-2.72-3.56-3.07-5-.5-2.19-3.88-1.26-3.37.93Z"/><path class="cls-11" d="M1017.78,169.18c.48.17.91.77,1.31,1.08a8.32,8.32,0,0,0,1.61.93c1.27.59,2.57,1.11,3.85,1.67,2,.88,3.83-2.13,1.77-3-1.42-.62-2.9-1.17-4.28-1.87-1.22-.61-2-1.7-3.33-2.16-2.13-.75-3.05,2.63-.93,3.37Z"/><path class="cls-11" d="M1016.87,168.73l2.77,1.51a1.75,1.75,0,1,0,1.77-3l-2.77-1.51a1.75,1.75,0,0,0-1.77,3Z"/><path class="cls-11" d="M1018.75,169.8a1.75,1.75,0,0,0,0-3.5,1.75,1.75,0,0,0,0,3.5Z"/><path class="cls-11" d="M1016.19,167.35c.9,2.46,3.07,3.43,5.24,4.62a55,55,0,0,0,8.32,3.35c2.13.76,3-2.62.93-3.37a60.16,60.16,0,0,1-6.25-2.34c-1.25-.61-4.35-1.8-4.86-3.19-.77-2.09-4.15-1.19-3.38.93Z"/><path class="cls-11" d="M1014.09,165.8a27.8,27.8,0,0,0,16.84,10.25c2.2.42,3.14-3,.93-3.37-5.4-1-11.51-4.23-14.75-8.65-1.32-1.8-4.35-.05-3,1.77Z"/><path class="cls-11" d="M1028.24,174l6.47,2.74a1.82,1.82,0,0,0,2.4-.62,1.77,1.77,0,0,0-.63-2.4L1030,171a1.81,1.81,0,0,0-2.39.63,1.75,1.75,0,0,0,.63,2.39Z"/><path class="cls-11" d="M1031.52,175.87a4.1,4.1,0,0,1,1.4.08v-3.38a1.54,1.54,0,0,1-.74.06,1.75,1.75,0,0,0-.93,3.38,30,30,0,0,0,3.76.94,1.8,1.8,0,0,0,2.15-1.23,1.77,1.77,0,0,0-1.22-2.15,28.71,28.71,0,0,1-3.76-.94l-.93,3.38a6.16,6.16,0,0,0,2.6-.06,1.77,1.77,0,0,0,0-3.38,7.29,7.29,0,0,0-2.33-.2,1.81,1.81,0,0,0-1.75,1.75,1.76,1.76,0,0,0,1.75,1.75Z"/><path class="cls-3" d="M986.11,121.45c-.19,3.75-.23,7.91,2,11.12s6.67,4.74,10.44,5.45c2.21.41,3.15-3,.93-3.38-3.1-.58-7.08-1.59-8.79-4.52-1.49-2.54-1.24-5.85-1.1-8.67.11-2.26-3.39-2.25-3.5,0Z"/><path class="cls-11" d="M990.9,123.75a6.06,6.06,0,0,0,.92,5.58,4.7,4.7,0,0,0,5.26,1.55,1.81,1.81,0,0,0,1.22-2.16,1.76,1.76,0,0,0-2.15-1.22c-1.78.67-2.31-1.48-1.87-2.82.71-2.14-2.67-3.06-3.38-.93Z"/><path class="cls-11" d="M985.13,121.84c.15,1.79-.51,3.5-.36,5.29a8.23,8.23,0,0,0,1.76,4.26c2.16,2.8,5.54,3.88,8.89,4.47,2.2.39,3.15-3,.93-3.37-2.61-.46-5.65-1.11-7.25-3.47s-.26-4.68-.47-7.18c-.18-2.22-3.69-2.24-3.5,0Z"/><path class="cls-11" d="M986.73,123.49a1.75,1.75,0,0,0,0-3.5,1.75,1.75,0,0,0,0,3.5Z"/><path class="cls-1" d="M1095.53,651.5c3.51-.09,7.19-.25,10.56.92s6.35,3.63,9.13,6c1.71,1.43,4.2-1,2.47-2.48-2.91-2.44-5.88-4.95-9.44-6.39-4.06-1.65-8.41-1.62-12.72-1.51-2.25.06-2.26,3.56,0,3.5Z"/><path class="cls-1" d="M1023.85,650a21.94,21.94,0,0,1,16.67,8.11c1.44,1.73,3.91-.75,2.47-2.47a25.29,25.29,0,0,0-19.14-9.14c-2.25,0-2.25,3.45,0,3.5Z"/><line class="cls-12" x1="1048.47" y1="226.51" x2="1033.35" y2="247.43"/><rect class="cls-12" x="1028" y="235.8" width="25.81" height="2.33" transform="translate(239 941.66) rotate(-54.13)"/><rect class="cls-12" x="1080.39" y="224.41" width="2.33" height="25.26" transform="translate(63.92 673.36) rotate(-35.57)"/><path class="cls-11" d="M1039.59,72.32A28.61,28.61,0,0,1,1034,96c-1.38,1.78,1.66,3.53,3,1.77a32,32,0,0,0,6-26.38c-.45-2.2-3.82-1.27-3.37.93Z"/><path class="cls-11" d="M1120.57,64.42c8.12,3,18.82,23.45,6.65,28.11-2.08.8-1.18,4.18.93,3.37,15.61-6,5.12-30.45-6.65-34.85-2.11-.79-3,2.59-.93,3.37Z"/><path class="cls-11" d="M1081.05,57.22c5.92-2.95,12.28,1.39,14.79,6.79s2.35,11.37,2.24,17.12c0,2.25,3.45,2.25,3.5,0,.15-7.85.16-17-5.55-23.19-4.36-4.69-10.88-6.66-16.74-3.74-2,1-.25,4,1.76,3Z"/><path class="cls-11" d="M1043.63,49.12c10.68-.15,10.72,13.11,10.29,20.56-.13,2.25,3.37,2.24,3.5,0,.56-9.59-1-24.25-13.79-24.06-2.25,0-2.25,3.53,0,3.5Z"/><path class="cls-11" d="M992.13,65.75a32.5,32.5,0,0,0-7.52,40.34c1.09,2,4.11.21,3-1.77a29,29,0,0,1,7-36.09c1.74-1.44-.75-3.91-2.47-2.48Z"/><ellipse class="cls-3" cx="1246.93" cy="389.7" rx="19.39" ry="19.32" transform="translate(162.35 1117.98) rotate(-51.24)"/><path class="cls-3" d="M1255,378.64l1,1a4.26,4.26,0,0,0,6,.26l12.78-11.74a4.26,4.26,0,0,0,.26-6l-1-1a4.25,4.25,0,0,0-6-.26l-12.78,11.74A4.26,4.26,0,0,0,1255,378.64Z"/><ellipse class="cls-13" cx="1268.09" cy="362.03" rx="3.48" ry="0.99" transform="translate(22.43 794.99) rotate(-35.1)"/><rect class="cls-3" x="1256.65" y="397.05" width="37.17" height="7.96" rx="3.4" transform="translate(553.39 -724.14) rotate(39.86)"/><rect class="cls-3" x="1251.56" y="397.67" width="26.75" height="8.95" rx="3.82" transform="translate(551.71 -717.28) rotate(39.86)"/><rect class="cls-3" x="1244.18" y="401.87" width="26.75" height="8.95" rx="3.82" transform="translate(552.69 -711.57) rotate(39.86)"/><rect class="cls-3" x="1235.63" y="403.85" width="23.78" height="8.95" rx="3.82" transform="translate(551.63 -704.67) rotate(39.86)"/><ellipse class="cls-13" cx="1263.48" cy="401.57" rx="2.98" ry="3.96" transform="translate(145.3 1113.83) rotate(-50.13)"/><ellipse class="cls-13" cx="1257.5" cy="405.64" rx="2.98" ry="3.96" transform="translate(140.03 1110.71) rotate(-50.13)"/><ellipse class="cls-13" cx="1248.41" cy="407.77" rx="2.49" ry="3.3" transform="translate(135.13 1104.49) rotate(-50.13)"/><line class="cls-14" x1="1279.94" y1="420.5" x2="1279.3" y2="421.26"/><path class="cls-11" d="M1276.61,407a.28.28,0,0,1-.19-.07L1265.78,398a.29.29,0,0,1,0-.41.3.3,0,0,1,.41,0l10.65,8.89a.3.3,0,0,1,0,.42A.27.27,0,0,1,1276.61,407Z"/><path class="cls-11" d="M1268.47,410.57a.37.37,0,0,1-.19-.07l-10.64-8.89a.29.29,0,0,1,.37-.45l10.65,8.89a.3.3,0,0,1,0,.41A.31.31,0,0,1,1268.47,410.57Z"/><path class="cls-11" d="M1258.05,412.23a.28.28,0,0,1-.19-.07l-10.64-8.89a.29.29,0,0,1,0-.41.3.3,0,0,1,.41,0l10.65,8.89a.29.29,0,0,1,0,.41A.28.28,0,0,1,1258.05,412.23Z"/><rect class="cls-1" x="1221.52" y="374.56" width="27.47" height="6.73" transform="translate(141.9 1065.86) rotate(-49.19)"/><path d="M1241.7,365.53l4.87,4.21-17.76,20.58-4.88-4.21,17.77-20.58m0-.41-18.15,21,5.32,4.59,18.14-21-5.31-4.59Z"/><path d="M1565.77,219.15c.9,13.09,5,26.17,8.42,38.75,3.88,14.12,7.94,28.25,12.74,42.09,6.11,17.58,15.62,35.64,30.91,46.84,11.25,8.24,24.46,14.13,37.14,19.78,8.45,3.77,17,7.41,25.7,10.58,5.63,2.05,11.39,4,17.43,4.31,8.5.39,15.75-7.52,15.75-15.75,0-8.86-7.22-15.36-15.75-15.75-1.07-.05,4.88,1.15,2,.26-.81-.25-1.67-.4-2.49-.62-2.39-.66-4.75-1.47-7.09-2.3-2.81-1-5.6-2.07-8.38-3.17l-4-1.63-2.38-1c3.42,1.43-.73-.33-1.12-.5-12.55-5.45-25.24-11.24-36.79-18.63-1-.66-2-1.38-3.06-2.05-2.94-1.92,2.18,2.37.16.11a87,87,0,0,1-7.69-9.11,108.74,108.74,0,0,1-7.75-14c-1.6-3.4.11.62-.5-1.13-.34-1-.75-2-1.11-3-4.49-12.57-8.19-25.46-11.8-38.3-2.15-7.64-4.22-15.31-6.09-23-.78-3.22-1.53-6.45-2.17-9.7-.24-1.2-.41-2.42-.66-3.62-.49-2.38.41,4.68.13.58-.58-8.49-6.82-15.75-15.75-15.75-8.07,0-16.33,7.22-15.75,15.75Z"/><ellipse class="cls-3" cx="1717.72" cy="367.05" rx="19.32" ry="19.39"/><rect class="cls-3" x="1714.26" y="327.77" width="9.91" height="25.86" rx="4.25" transform="translate(60.46 -225.26) rotate(7.63)"/><ellipse class="cls-13" cx="1716.24" cy="332.24" rx="3.48" ry="0.99" transform="translate(949.87 1903.4) rotate(-74.95)"/><rect class="cls-3" x="1728.13" y="353.62" width="47.55" height="7.96" rx="3.4"/><rect class="cls-3" x="1726.15" y="360.59" width="26.75" height="8.95" rx="3.82"/><rect class="cls-3" x="1723.17" y="368.54" width="26.75" height="8.95" rx="3.82"/><rect class="cls-3" x="1718.22" y="376.5" width="23.78" height="8.95" rx="3.82"/><ellipse class="cls-13" cx="1738.03" cy="365.56" rx="3.96" ry="2.98"/><ellipse class="cls-13" cx="1736.05" cy="372.52" rx="3.96" ry="2.98"/><ellipse class="cls-13" cx="1730.44" cy="379.98" rx="3.3" ry="2.49"/><path class="cls-11" d="M1751.41,361.38h-13.87a.3.3,0,0,1-.29-.3.29.29,0,0,1,.29-.29h13.87a.29.29,0,0,1,.29.29A.3.3,0,0,1,1751.41,361.38Z"/><path class="cls-11" d="M1747.45,369.33h-13.87a.29.29,0,1,1,0-.58h13.87a.29.29,0,0,1,0,.58Z"/><path class="cls-11" d="M1740.51,377.29h-13.87a.3.3,0,0,1,0-.59h13.87a.3.3,0,0,1,0,.59Z"/><rect class="cls-1" x="1698" y="353.94" width="6.73" height="25.4"/><path d="M1704.59,354.09v25.1h-6.44v-25.1h6.44m.29-.3h-7v25.69h7V353.79Z"/><path d="M1465.57,202c-11.61,6.9-20.68,19.12-29.25,29.27-9.32,11-21,22.7-27.2,35.77-5.46,11.41-8.72,23.7-6,36.31,1,4.56,3.05,8.89,5,13.1.36.79,2.68,5.77,1.24,2.52,1.25,2.82,2.4,5.7,3.63,8.54,7.13,16.37,15,32.41,23.1,48.34,8.48,16.74,17.16,33.42,26.56,49.67,10.15,17.54,37.38,1.7,27.2-15.9-16.14-27.88-30.76-56.83-44.28-86.07q-2.32-5-4.56-10.06c-.63-1.43-1.25-2.88-1.88-4.32,1.3,3,.4.93.13.29-.8-1.89-1.58-3.79-2.43-5.67-.69-1.53-1.46-3-2.13-4.57,1,2.37,0,0-.13-.44-.3-1-.62-2-.9-3,0,0-.39-2.56-.26-1.16.16,1.7.07-2,.1-2.26a37.46,37.46,0,0,1,1.66-6.16c3.3-10.14,12.3-19.29,19.84-28.34,5.24-6.3,10.56-12.56,16.12-18.59,2.31-2.51,4.66-5,7.13-7.33.94-.89,2-1.7,2.89-2.62,1.24-1.26-3.16,2,.35-.12,17.4-10.34,1.58-37.59-15.9-27.19Z"/><path d="M1548.4,444.83l-46.68-.48a47.34,47.34,0,0,1-46.63-47.76l1.48-145.83c.14-13.8,4.42-33.82,14-42.39,8.46-7.58,21.75-4.53,33.92-4.41l46.37.47c11.26.12,23.42-3.05,31.48,3.72,10.48,8.8,15.29,29.35,15.14,44L1596,398A47.34,47.34,0,0,1,1548.4,444.83Z"/><path d="M1548.88,447.16h-.51l-46.68-.48a49.58,49.58,0,0,1-48.93-50.11l1.47-145.83c.15-15,4.84-35.21,14.75-44.1,7.36-6.6,17.66-6,27.63-5.36,2.6.16,5.3.32,7.87.35l46.37.47c2.73,0,5.59-.15,8.36-.32,8.78-.53,17.84-1.09,24.61,4.58,10.69,9,16.12,29.87,16,45.86l-1.47,145.83a49.66,49.66,0,0,1-49.43,49.11Zm-.46-4.67h.46A45,45,0,0,0,1593.64,398l1.48-145.83c.15-14.89-4.72-34.18-14.31-42.23-5.33-4.48-13.09-4-21.31-3.5-2.85.17-5.8.36-8.7.33l-46.37-.48c-2.69,0-5.44-.19-8.1-.35-9.42-.57-18.33-1.12-24.23,4.17-8.47,7.6-13,26.21-13.2,40.67l-1.47,145.83A44.92,44.92,0,0,0,1501.74,442Z"/><path class="cls-1" d="M1479.34,216.92c-4-6.41,1.32-14.22,9.68-14.09l38.94.63,38.37.61c8.61.14,13.89,8.36,9.51,14.84l-49.28,73Z"/><path d="M1526.56,293.06h0a1.16,1.16,0,0,1-1-.54l-47.22-75a9.5,9.5,0,0,1-.28-10,12.12,12.12,0,0,1,11-5.89l77.31,1.24a12.52,12.52,0,0,1,11.08,6.41,9.76,9.76,0,0,1-.62,10.24l-49.28,73A1.17,1.17,0,0,1,1526.56,293.06ZM1488.81,204a9.82,9.82,0,0,0-8.71,4.71,7.26,7.26,0,0,0,.22,7.59h0l46.27,73.46,48.29-71.5a7.51,7.51,0,0,0,.48-7.86,10.19,10.19,0,0,0-9-5.16L1489,204Z"/><polygon class="cls-2" points="1541.04 270.29 1526.6 291.9 1513.27 270.01 1527.83 236.84 1541.04 270.29"/><path d="M1461.26,678.26a19.6,19.6,0,0,1-6.32-1,19.83,19.83,0,0,1-12.48-25.12c4.67-13.9,13.86-53,20-103.6,5.14-42.3,9.58-105.33,1.59-165.34a19.83,19.83,0,1,1,39.31-5.24c15.64,117.4-12,253.23-23.31,286.82A19.83,19.83,0,0,1,1461.26,678.26Z"/><path d="M1539.15,679.05a19.6,19.6,0,0,1-6.32-1,19.83,19.83,0,0,1-12.48-25.11c4.67-13.91,13.86-53,20-103.61,5.14-42.3,9.58-105.32,1.59-165.34a19.83,19.83,0,1,1,39.32-5.23c15.63,117.4-12,253.22-23.32,286.81A19.83,19.83,0,0,1,1539.15,679.05Z"/><ellipse class="cls-1" cx="1526.25" cy="326.58" rx="4.74" ry="4.76"/><ellipse class="cls-1" cx="1525.91" cy="360.57" rx="4.74" ry="4.76"/><ellipse class="cls-1" cx="1525.52" cy="398.65" rx="4.74" ry="4.76"/><polygon class="cls-2" points="1527.87 237.05 1541.17 225.63 1534.65 214.13 1521.47 214.03 1514.8 225.45 1527.87 237.05"/><rect class="cls-3" x="1511.04" y="163.74" width="33.87" height="51.68" rx="14.52" transform="translate(2.01 -15.54) rotate(0.58)"/><path class="cls-4" d="M1474.86,394.68a11.54,11.54,0,0,1-11.63,11.45c-6.36-.07-11.84-.88-11.78-7.26"/><path class="cls-5" d="M1463.35,407.29h-.13c-4.55,0-13-.13-12.94-8.43a1.16,1.16,0,0,1,1.18-1.16,1.17,1.17,0,0,1,1.16,1.18c0,5,3.69,6,10.62,6.08h.11a10.38,10.38,0,0,0,10.35-10.29,1.15,1.15,0,0,1,1.16-1.15h0a1.16,1.16,0,0,1,1.15,1.18A12.72,12.72,0,0,1,1463.35,407.29Z"/><path class="cls-5" d="M1586.54,404.17h-.79a12.73,12.73,0,0,1-12.55-12.86,1.19,1.19,0,0,1,1.18-1.15,1.15,1.15,0,0,1,1.15,1.17,10.39,10.39,0,0,0,10.25,10.5c2.72,0,5.75-.07,7.84-1s2.88-2.38,2.9-4.87a1.18,1.18,0,0,1,1.17-1.16h0a1.18,1.18,0,0,1,1.16,1.18c0,3.39-1.48,5.74-4.3,7A20.54,20.54,0,0,1,1586.54,404.17Z"/><rect class="cls-5" x="1555.13" y="282.14" width="29.13" height="4.76" transform="translate(2.98 -15.96) rotate(0.58)"/><path class="cls-5" d="M1585.38,288.23l-31.46-.32.08-7.1,31.45.32Zm-29.1-2.63,26.79.27,0-2.43-26.79-.27Z"/><polygon class="cls-1" points="1449.87 397.65 1462.05 388.94 1463.45 390.92 1451.27 399.62 1449.87 397.65"/><path d="M1462,389.15l1.24,1.74-11.94,8.53-1.24-1.74,11.94-8.53m.07-.41-12.41,8.87,1.57,2.22,12.41-8.87-1.57-2.22Z"/><path class="cls-6" d="M1460.58,387.21a13.15,13.15,0,0,0,5.61,5.91"/><path d="M1467.43,670a3.38,3.38,0,0,1,.82.09c4.54,1,9.42,1.45,14,2.79l34.44.35a27.82,27.82,0,0,0-27.49-28.15l-33.72-.35a4.89,4.89,0,0,0-4.93,4.86l-.24,23,12.19.12a3.18,3.18,0,0,1,3.29-3.14A3.13,3.13,0,0,1,1467.43,670Z"/><path d="M1516.65,675.6h0l-34.45-.35a2.84,2.84,0,0,1-.64-.1,73.81,73.81,0,0,0-8.39-1.76c-1.78-.3-3.62-.61-5.4-1a1,1,0,0,0-.3,0h0a2.38,2.38,0,0,1-1.21-.34.92.92,0,0,0-.49-.12c-.22,0-.88,0-.94,1a2.35,2.35,0,0,1-2.33,2.18h0l-12.18-.13a2.33,2.33,0,0,1-2.31-2.35l.23-23a7.24,7.24,0,0,1,7.22-7.17h.08l33.72.34A30.19,30.19,0,0,1,1519,673.29a2.26,2.26,0,0,1-.7,1.64A2.31,2.31,0,0,1,1516.65,675.6Zm-34.1-5,31.69.33a25.52,25.52,0,0,0-25.1-23.47l-33.72-.34a2.39,2.39,0,0,0-1.81.73,2.56,2.56,0,0,0-.77,1.81l-.21,20.64,8.06.08a5.45,5.45,0,0,1,5-3.13h.07a5.62,5.62,0,0,1,2.28.5,5.5,5.5,0,0,1,.69.11c1.67.36,3.37.65,5.18.95A80,80,0,0,1,1482.55,670.58Z"/><path d="M1544,672.85a4,4,0,0,1,.82.08c4.53,1,9.42,1.46,14,2.8l34.45.35a27.84,27.84,0,0,0-27.49-28.16l-33.72-.34a4.9,4.9,0,0,0-4.94,4.86l-.23,23,12.18.12a3.3,3.3,0,0,1,5-2.68Z"/><path d="M1593.17,678.42h0l-34.44-.35a2.76,2.76,0,0,1-.64-.1,73.81,73.81,0,0,0-8.39-1.76c-1.78-.3-3.62-.61-5.4-1l-.3,0h0a2.35,2.35,0,0,1-1.21-.34.94.94,0,0,0-.5-.12c-.21,0-.87,0-.94,1a2.34,2.34,0,0,1-2.33,2.18h0l-12.18-.13a2.33,2.33,0,0,1-2.31-2.36l.23-23a7.22,7.22,0,0,1,7.22-7.16h.07l33.72.34a30.2,30.2,0,0,1,29.8,30.52,2.3,2.3,0,0,1-.7,1.64A2.33,2.33,0,0,1,1593.17,678.42Zm-34.1-5,31.68.32a25.5,25.5,0,0,0-25.09-23.46l-33.72-.34a2.64,2.64,0,0,0-1.81.73,2.52,2.52,0,0,0-.77,1.81l-.21,20.64,8.06.08a5.44,5.44,0,0,1,5-3.13h.06a5.67,5.67,0,0,1,2.29.5c.23,0,.45.06.68.1,1.67.37,3.38.66,5.19,1A80.52,80.52,0,0,1,1559.07,673.4Z"/><path class="cls-7" d="M1453.46,643.54c2.46,4.36,7,4.74,11.65,5.17,5,.47,9.71-.44,13.5-3.91,1.67-1.52-.81-4-2.47-2.47-2.87,2.62-6.49,3.21-10.26,3-3.33-.23-7.61-.35-9.4-3.52-1.1-2-4.13-.2-3,1.77Z"/><path class="cls-7" d="M1530.65,646.36c2.46,4.36,7,4.74,11.66,5.17,5,.47,9.7-.44,13.5-3.9,1.66-1.52-.82-4-2.48-2.48-2.87,2.62-6.48,3.22-10.25,3-3.33-.22-7.62-.35-9.4-3.51-1.11-2-4.13-.2-3,1.76Z"/><ellipse class="cls-8" cx="1501.18" cy="59.09" rx="30.82" ry="30.94"/><ellipse class="cls-8" cx="1531.7" cy="55.32" rx="26.08" ry="26.18"/><ellipse class="cls-8" cx="1467.26" cy="63.51" rx="26.08" ry="26.18"/><ellipse class="cls-8" cx="1564.17" cy="59.73" rx="26.08" ry="26.18"/><ellipse class="cls-8" cx="1582.55" cy="84.06" rx="25.06" ry="25.16"/><ellipse class="cls-8" cx="1539.22" cy="81.58" rx="32.51" ry="32.64"/><ellipse class="cls-8" cx="1487.32" cy="89.55" rx="30.14" ry="30.26"/><rect class="cls-8" x="1460.94" y="103.32" width="18.29" height="31.96" rx="7.84" transform="translate(1.29 -14.95) rotate(0.58)"/><ellipse class="cls-8" cx="1453.05" cy="96.34" rx="24.38" ry="24.48"/><path class="cls-3" d="M1545,179.55l6.15.07,10.84.11,7.86-1.14a4.06,4.06,0,0,0,1.76-.69h0a24.5,24.5,0,0,0,8.8-10.91h0l1.32-8.65c.09-.57.15-1.14.2-1.71l.57-6.95a24.13,24.13,0,0,0,0-3.4l-.48-7.83-.61-6.8-.57-10.21-.59-8.84,0-3.4-6.76-1.43-6.07-3.46-5.37-4.14-6-6.86-1.41,5.43-2.75,4.05-2.74,2.69-4.09,2.68-4.08,2-5.43.62-5.42,0-5.41-.74-4.71-2.77-3.35-3.43-3.35-4.12L1510,95.56l-2.08,5.42-2.09,5.42-2.74,3.37-2.73,2-3.41,2-3.41,2-3.39.65-4.06,0-4.07-.05-2.69-1.38-2-2.06-.07,7.48-.1,10.19-12.87-.13.13-13.59-2,1.33-3.4,1.33-3.58.68a20.23,20.23,0,0,1-6.45.17l-2.17-.29-.09,8.65a9.71,9.71,0,0,0,.46,3h0a14.33,14.33,0,0,0,5.53,7.43h0L1458,142l4.73,1.41,6.59.67a2.34,2.34,0,0,1,1.46.7h0a2.61,2.61,0,0,1,.73,1.82l0,4.38,0,2.1a5.53,5.53,0,0,0,.55,2.46l1.43,2.94,1.81,3.74a3.64,3.64,0,0,0,.43.67l2.86,3.51a4.34,4.34,0,0,0,.52.53l6.17,5.06a3.33,3.33,0,0,0,.56.36l5.09,2.62,4.73,1.41,2.29.95a6.48,6.48,0,0,0,2.25.48l11,.35"/><path d="M1534.23,128.73l-13.29-3a3.53,3.53,0,0,1-2.66-4.21l0-.23a3.52,3.52,0,0,1,4.2-2.67l13.29,3a3.53,3.53,0,0,1,2.66,4.21l-.06.24A3.51,3.51,0,0,1,1534.23,128.73Z"/><rect x="1554.75" y="117.56" width="23.71" height="6.8" rx="2.9" transform="translate(1.31 -15.94) rotate(0.58)"/><ellipse cx="1528.34" cy="131.11" rx="5.1" ry="4.86" transform="translate(1382.97 1658.16) rotate(-89.46)"/><ellipse cx="1568.98" cy="131.52" rx="5.1" ry="4.86" transform="translate(1422.81 1699.2) rotate(-89.46)"/><ellipse class="cls-9" cx="1549.26" cy="160.56" rx="1.36" ry="13.55" transform="translate(1372.95 1708.11) rotate(-89.42)"/><path class="cls-10" d="M1554,162.53l-4.71,0c-3.68,0-7.15-.07-9.62-.27-2.71-.21-4.51-.61-4.5-1.82a1.21,1.21,0,0,1,.38-.84c1.09-1.07,4.65-1.08,11.39-1l2.38,0c10.47.11,14.13.31,14.11,2.09h0c0,1.21-1.82,1.57-4.52,1.73C1557.49,162.51,1555.81,162.53,1554,162.53ZM1543,159.72c-3.39,0-6.45.12-6.73.71.59.78,7.45.85,13,.9,5.36.06,12,.13,12.92-.64-.92-.79-7.55-.85-12.9-.91l-2.39,0Zm19.78,1h0Z"/><path class="cls-11" d="M1548.16,136.62c.81,2.29,2.39,3.8,3.64,5.82.81,1.31,1.49,3,.17,4.28s-3.46,1.05-5.11.93c-2.25-.17-2.24,3.33,0,3.5,3.58.27,8.08-.54,9.22-4.57,1.28-4.54-3.21-7.14-4.55-10.89-.75-2.11-4.13-1.2-3.37.93Z"/><path class="cls-11" d="M1512.47,205.36l-.65-2.05a13.11,13.11,0,0,1-.54-4.2l.12-20a.94.94,0,0,1,1-1l23.64.6a.27.27,0,0,1,.1.51l-6.52,3.07a8,8,0,0,1-1.42.51l-11.54,2.9-.72,24.25"/><path class="cls-11" d="M1472.23,146.48c-1.44,9.13,4,17.4,11.14,22.71,1.81,1.35,3.55-1.69,1.77-3-2.54-1.89-4.39-4.56-6.41-7a14.51,14.51,0,0,1-3.12-11.76c.34-2.2-3-3.15-3.38-.93Z"/><path class="cls-11" d="M1472.79,147.31c1.08,13.13,11.89,20.55,22.4,26.57,2,1.12,3.72-1.91,1.77-3-9.26-5.29-19.71-11.83-20.67-23.54-.18-2.23-3.68-2.25-3.5,0Z"/><path class="cls-11" d="M1475,156.94c.46,2,2,3.66,3.09,5.37a24.5,24.5,0,0,0,5,5.72c4,3.34,8.8,5.42,13.67,7.1,2.14.74,3.06-2.64.94-3.37-4.29-1.48-8.6-3.29-12.14-6.2a20.68,20.68,0,0,1-4.1-4.51c-.85-1.29-2.72-3.56-3.07-5-.5-2.19-3.88-1.26-3.37.93Z"/><path class="cls-11" d="M1484.38,169.18c.48.17.91.77,1.31,1.08a8.32,8.32,0,0,0,1.61.93c1.27.59,2.57,1.11,3.85,1.67,2,.88,3.83-2.13,1.77-3-1.42-.62-2.9-1.17-4.28-1.87-1.22-.61-2-1.7-3.33-2.16-2.13-.75-3,2.63-.93,3.37Z"/><path class="cls-11" d="M1483.47,168.73l2.77,1.51a1.75,1.75,0,1,0,1.77-3l-2.77-1.51a1.75,1.75,0,0,0-1.77,3Z"/><path class="cls-11" d="M1485.35,169.8a1.75,1.75,0,0,0,0-3.5,1.75,1.75,0,0,0,0,3.5Z"/><path class="cls-11" d="M1482.79,167.35c.9,2.46,3.07,3.43,5.24,4.62a55,55,0,0,0,8.32,3.35c2.13.76,3-2.62.93-3.37a60.16,60.16,0,0,1-6.25-2.34c-1.25-.61-4.35-1.8-4.86-3.19-.77-2.09-4.15-1.19-3.38.93Z"/><path class="cls-11" d="M1480.69,165.8a27.8,27.8,0,0,0,16.84,10.25c2.2.42,3.14-3,.93-3.37-5.4-1-11.51-4.23-14.75-8.65-1.32-1.8-4.35-.05-3,1.77Z"/><path class="cls-11" d="M1494.84,174l6.47,2.74a1.82,1.82,0,0,0,2.4-.62,1.77,1.77,0,0,0-.63-2.4L1496.6,171a1.81,1.81,0,0,0-2.39.63,1.75,1.75,0,0,0,.63,2.39Z"/><path class="cls-11" d="M1498.12,175.87a4.1,4.1,0,0,1,1.4.08v-3.38a1.54,1.54,0,0,1-.74.06,1.75,1.75,0,0,0-.93,3.38,30,30,0,0,0,3.76.94,1.8,1.8,0,0,0,2.15-1.23,1.77,1.77,0,0,0-1.22-2.15,28.71,28.71,0,0,1-3.76-.94l-.93,3.38a6.16,6.16,0,0,0,2.6-.06,1.77,1.77,0,0,0,0-3.38,7.29,7.29,0,0,0-2.33-.2,1.81,1.81,0,0,0-1.75,1.75,1.76,1.76,0,0,0,1.75,1.75Z"/><path class="cls-3" d="M1452.71,121.45c-.19,3.75-.23,7.91,2,11.12s6.67,4.74,10.44,5.45c2.21.41,3.15-3,.93-3.38-3.1-.58-7.08-1.59-8.79-4.52-1.49-2.54-1.24-5.85-1.1-8.67.11-2.26-3.39-2.25-3.5,0Z"/><path class="cls-11" d="M1457.5,123.75a6.06,6.06,0,0,0,.92,5.58,4.7,4.7,0,0,0,5.26,1.55,1.81,1.81,0,0,0,1.22-2.16,1.76,1.76,0,0,0-2.15-1.22c-1.78.67-2.31-1.48-1.87-2.82.71-2.14-2.67-3.06-3.38-.93Z"/><path class="cls-11" d="M1451.73,121.84c.15,1.79-.51,3.5-.36,5.29a8.23,8.23,0,0,0,1.76,4.26c2.16,2.8,5.54,3.88,8.89,4.47,2.2.39,3.15-3,.93-3.37-2.61-.46-5.65-1.11-7.25-3.47s-.26-4.68-.47-7.18c-.18-2.22-3.69-2.24-3.5,0Z"/><path class="cls-11" d="M1453.33,123.49a1.75,1.75,0,0,0,0-3.5,1.75,1.75,0,0,0,0,3.5Z"/><path class="cls-1" d="M1562.13,651.5c3.51-.09,7.19-.25,10.56.92s6.35,3.63,9.13,6c1.71,1.43,4.2-1,2.47-2.48-2.91-2.44-5.88-4.95-9.44-6.39-4.06-1.65-8.41-1.62-12.72-1.51-2.25.06-2.26,3.56,0,3.5Z"/><path class="cls-1" d="M1490.45,650a21.94,21.94,0,0,1,16.67,8.11c1.44,1.73,3.91-.75,2.47-2.47a25.29,25.29,0,0,0-19.14-9.14c-2.25,0-2.25,3.45,0,3.5Z"/><line class="cls-12" x1="1515.07" y1="226.51" x2="1499.95" y2="247.43"/><rect class="cls-12" x="1494.6" y="235.8" width="25.81" height="2.33" transform="translate(432.22 1319.79) rotate(-54.13)"/><rect class="cls-12" x="1546.99" y="224.41" width="2.33" height="25.26" transform="translate(150.99 944.78) rotate(-35.57)"/><path class="cls-11" d="M1506.19,72.32a28.61,28.61,0,0,1-5.6,23.68c-1.38,1.78,1.66,3.53,3,1.77a32,32,0,0,0,6-26.38c-.45-2.2-3.82-1.27-3.37.93Z"/><path class="cls-11" d="M1587.17,64.42c8.12,3,18.82,23.45,6.65,28.11-2.08.8-1.18,4.18.93,3.37,15.61-6,5.12-30.45-6.65-34.85-2.11-.79-3,2.59-.93,3.37Z"/><path class="cls-11" d="M1547.65,57.22c5.92-2.95,12.28,1.39,14.79,6.79s2.35,11.37,2.24,17.12c0,2.25,3.45,2.25,3.5,0,.15-7.85.16-17-5.55-23.19-4.36-4.69-10.88-6.66-16.74-3.74-2,1-.25,4,1.76,3Z"/><path class="cls-11" d="M1510.23,49.12c10.68-.15,10.72,13.11,10.29,20.56-.13,2.25,3.37,2.24,3.5,0,.56-9.59-1-24.25-13.79-24.06-2.25,0-2.25,3.53,0,3.5Z"/><path class="cls-11" d="M1458.73,65.75a32.5,32.5,0,0,0-7.52,40.34c1.09,2,4.11.21,3-1.77a29,29,0,0,1,7-36.09c1.74-1.44-.75-3.91-2.47-2.48Z"/><path d="M632.43,221.29c.46,11.79,2.76,23.65,4.5,35.29,2,13.14,4,26.28,6.38,39.35,2.85,15.73,6.5,32.74,14.13,46.9,6.62,12.3,16,23.39,24.66,34.26,7.35,9.21,14.93,18.23,22.62,27.17,5.55,6.45,16.57,5.69,22.27,0,6.39-6.4,5.56-15.81,0-22.28q-9.11-10.58-18-21.37-3.21-4-6.38-7.95c-1-1.27-2-2.54-3-3.81-1.49-1.92,1.4,1.84-.06-.08-.68-.91-1.37-1.81-2.05-2.71-3.66-4.87-7.27-9.81-10.49-15-1.21-1.95-2.27-4-3.38-6-1.37-2.47,1.47,4.25-.19-.65-1.08-3.18-2.19-6.32-3.18-9.53a228.64,228.64,0,0,1-6.1-24.45c-2.23-11.74-4.06-23.56-5.87-35.37q-.95-6.12-1.84-12.25c-.25-1.71-.49-3.43-.74-5.14-.11-.82-.22-1.64-.34-2.46-.44-3.1.25,2,0,.11-.59-4.67-1.33-9.35-1.51-14.06-.34-8.5-7-15.75-15.75-15.75-8.27,0-16.08,7.21-15.75,15.75Z"/><path d="M532.37,202c-11.61,6.9-20.68,19.12-29.25,29.27-9.32,11-20.95,22.7-27.2,35.77-5.46,11.41-8.72,23.7-6,36.31,1,4.56,3.05,8.89,5,13.1.36.79,2.68,5.77,1.24,2.52,1.25,2.82,2.4,5.7,3.63,8.54,7.13,16.37,15,32.41,23.1,48.34,8.48,16.74,17.16,33.42,26.56,49.67,10.15,17.54,37.38,1.7,27.2-15.9-16.14-27.88-30.76-56.83-44.28-86.07q-2.33-5-4.56-10.06c-.63-1.43-1.25-2.88-1.88-4.32,1.3,3,.4.93.13.29-.8-1.89-1.58-3.79-2.43-5.67-.69-1.53-1.46-3-2.13-4.57,1,2.37,0,0-.13-.44-.3-1-.62-2-.9-3,0,0-.39-2.56-.26-1.16.16,1.7.07-2,.1-2.26a37.46,37.46,0,0,1,1.66-6.16c3.3-10.14,12.3-19.29,19.84-28.34,5.24-6.3,10.56-12.56,16.12-18.59,2.31-2.51,4.66-5,7.13-7.33.94-.89,2-1.7,2.89-2.62,1.24-1.26-3.16,2,.35-.12,17.4-10.34,1.58-37.59-15.9-27.19Z"/><path d="M615.2,444.83l-46.68-.48a47.34,47.34,0,0,1-46.63-47.76l1.48-145.83c.14-13.8,4.42-33.82,14-42.39,8.46-7.58,21.75-4.53,33.92-4.41l46.37.47c11.26.12,23.42-3.05,31.48,3.72,10.48,8.8,15.29,29.35,15.14,44L662.78,398A47.34,47.34,0,0,1,615.2,444.83Z"/><path d="M615.68,447.16h-.51l-46.68-.48a49.58,49.58,0,0,1-48.93-50.11L521,250.74c.15-15,4.84-35.21,14.76-44.1,7.35-6.6,17.65-6,27.62-5.36,2.6.16,5.3.32,7.87.35l46.37.47c2.72,0,5.59-.15,8.36-.32,8.77-.53,17.84-1.09,24.6,4.58,10.7,9,16.13,29.87,16,45.86l-1.47,145.83a49.66,49.66,0,0,1-49.43,49.11Zm-.46-4.67h.46A45,45,0,0,0,660.44,398l1.48-145.83c.15-14.89-4.72-34.18-14.31-42.23-5.33-4.48-13.09-4-21.31-3.5-2.85.17-5.81.36-8.7.33l-46.37-.48c-2.69,0-5.44-.19-8.1-.35-9.43-.58-18.33-1.12-24.23,4.17-8.47,7.6-13,26.21-13.2,40.67l-1.47,145.83A44.92,44.92,0,0,0,568.54,442Z"/><path class="cls-1" d="M546.14,216.92c-4-6.41,1.32-14.22,9.68-14.09l38.94.63,38.37.61c8.61.14,13.89,8.36,9.51,14.84l-49.28,73Z"/><path d="M593.36,293.06h0a1.16,1.16,0,0,1-1-.54l-47.22-75a9.5,9.5,0,0,1-.28-10,12.22,12.22,0,0,1,11-5.89l77.31,1.24a12.52,12.52,0,0,1,11.08,6.41,9.76,9.76,0,0,1-.62,10.24l-49.28,73A1.17,1.17,0,0,1,593.36,293.06ZM555.61,204a9.82,9.82,0,0,0-8.71,4.71,7.24,7.24,0,0,0,.23,7.59l46.26,73.46,48.29-71.5a7.51,7.51,0,0,0,.48-7.86,10.19,10.19,0,0,0-9-5.16L555.8,204Z"/><polygon class="cls-2" points="607.84 270.29 593.4 291.9 580.07 270.01 594.63 236.84 607.84 270.29"/><path d="M528.06,678.26a19.6,19.6,0,0,1-6.32-1,19.83,19.83,0,0,1-12.48-25.12c4.67-13.9,13.86-53,20-103.6,5.14-42.3,9.58-105.33,1.59-165.34a19.83,19.83,0,1,1,39.31-5.24c15.64,117.4-12,253.23-23.31,286.82A19.83,19.83,0,0,1,528.06,678.26Z"/><path d="M606,679.05a19.85,19.85,0,0,1-18.8-26.15c4.67-13.91,13.86-53,20-103.61C612.29,507,616.73,444,608.74,384a19.83,19.83,0,1,1,39.31-5.23c15.64,117.4-12,253.22-23.31,286.81A19.83,19.83,0,0,1,606,679.05Z"/><ellipse class="cls-1" cx="593.05" cy="326.58" rx="4.74" ry="4.76"/><ellipse class="cls-1" cx="592.71" cy="360.57" rx="4.74" ry="4.76"/><ellipse class="cls-1" cx="592.32" cy="398.65" rx="4.74" ry="4.76"/><polygon class="cls-2" points="594.67 237.05 607.97 225.63 601.46 214.13 588.27 214.03 581.6 225.45 594.67 237.05"/><rect class="cls-3" x="577.84" y="163.74" width="33.87" height="51.68" rx="14.52" transform="translate(1.96 -6.04) rotate(0.58)"/><path class="cls-4" d="M541.66,394.68A11.54,11.54,0,0,1,530,406.13c-6.36-.07-11.84-.88-11.78-7.26"/><path class="cls-5" d="M530.15,407.29H530c-4.55,0-13-.13-12.94-8.43a1.18,1.18,0,0,1,1.17-1.16h0a1.17,1.17,0,0,1,1.16,1.18c0,5,3.69,6,10.62,6.08h.11a10.38,10.38,0,0,0,10.35-10.29,1.17,1.17,0,0,1,2.33,0A12.72,12.72,0,0,1,530.15,407.29Z"/><path class="cls-5" d="M653.34,404.17h-.79A12.73,12.73,0,0,1,640,391.31a1.17,1.17,0,0,1,1.17-1.15h0a1.15,1.15,0,0,1,1.15,1.17,10.39,10.39,0,0,0,10.25,10.5c2.7,0,5.75-.07,7.84-1s2.88-2.38,2.9-4.87a1.17,1.17,0,1,1,2.34,0c0,3.39-1.48,5.74-4.3,7A20.54,20.54,0,0,1,653.34,404.17Z"/><rect class="cls-5" x="621.93" y="282.14" width="29.13" height="4.76" transform="translate(2.93 -6.46) rotate(0.58)"/><path class="cls-5" d="M652.18,288.23l-31.46-.32.08-7.1,31.45.32Zm-29.1-2.63,26.79.27,0-2.43-26.79-.27Z"/><polygon class="cls-1" points="516.67 397.65 528.85 388.94 530.25 390.92 518.07 399.62 516.67 397.65"/><path d="M528.81,389.15l1.24,1.74-11.94,8.53-1.24-1.74,11.94-8.53m.07-.41-12.41,8.87,1.57,2.22L530.45,391l-1.57-2.22Z"/><path class="cls-6" d="M527.38,387.21a13.15,13.15,0,0,0,5.61,5.91"/><path d="M534.23,670a3.38,3.38,0,0,1,.82.09c4.54,1,9.42,1.45,14,2.79l34.44.35A27.82,27.82,0,0,0,556,645.11l-33.72-.35a4.89,4.89,0,0,0-4.93,4.86l-.24,23,12.19.12a3.18,3.18,0,0,1,3.29-3.14A3.13,3.13,0,0,1,534.23,670Z"/><path d="M583.45,675.6h0L549,675.25a2.84,2.84,0,0,1-.64-.1,73.81,73.81,0,0,0-8.39-1.76c-1.78-.3-3.62-.61-5.4-1a1.65,1.65,0,0,0-.31,0A2.55,2.55,0,0,1,533,672a.89.89,0,0,0-.49-.12c-.22,0-.88,0-.94,1a2.34,2.34,0,0,1-2.33,2.18h0l-12.18-.13a2.33,2.33,0,0,1-2.31-2.35l.23-23a7.24,7.24,0,0,1,7.22-7.17h.08l33.72.34a30.19,30.19,0,0,1,29.79,30.52,2.26,2.26,0,0,1-.7,1.64A2.31,2.31,0,0,1,583.45,675.6Zm-34.1-5,31.69.33a25.52,25.52,0,0,0-25.1-23.47l-33.72-.34a2.77,2.77,0,0,0-1.81.73,2.56,2.56,0,0,0-.77,1.81l-.21,20.64,8.06.08a5.45,5.45,0,0,1,5-3.13h.07a5.62,5.62,0,0,1,2.28.5,5.07,5.07,0,0,1,.68.11c1.68.36,3.38.65,5.19.95A80,80,0,0,1,549.35,670.58Z"/><path d="M610.75,672.85a4,4,0,0,1,.82.08c4.53,1,9.42,1.46,13.95,2.8l34.45.35a27.84,27.84,0,0,0-27.49-28.16l-33.72-.34a4.9,4.9,0,0,0-4.94,4.86l-.23,23,12.18.12a3.3,3.3,0,0,1,5-2.68Z"/><path d="M660,678.42h0l-34.44-.35a2.76,2.76,0,0,1-.64-.1,73.81,73.81,0,0,0-8.39-1.76c-1.78-.3-3.62-.61-5.4-1-.1,0-.23,0-.31,0a2.08,2.08,0,0,1-1.22-.34.92.92,0,0,0-.49-.12c-.22,0-.88,0-.95,1a2.34,2.34,0,0,1-2.32,2.18h0l-12.18-.13a2.33,2.33,0,0,1-2.31-2.36l.23-23a7.22,7.22,0,0,1,7.22-7.16h.07l33.72.34a30.2,30.2,0,0,1,29.8,30.52,2.3,2.3,0,0,1-.7,1.64A2.33,2.33,0,0,1,660,678.42Zm-34.1-5,31.68.32a25.5,25.5,0,0,0-25.09-23.46l-33.72-.34h0a2.49,2.49,0,0,0-1.78.73,2.52,2.52,0,0,0-.77,1.81L596,673.1l8.06.08a5.44,5.44,0,0,1,5-3.13h.06a5.67,5.67,0,0,1,2.29.5c.23,0,.46.06.68.1,1.67.37,3.38.66,5.19,1A80.52,80.52,0,0,1,625.87,673.4Z"/><path class="cls-7" d="M520.26,643.54c2.46,4.36,7,4.74,11.65,5.17,5,.47,9.71-.44,13.5-3.91,1.67-1.52-.81-4-2.47-2.47-2.87,2.62-6.49,3.21-10.26,3-3.33-.23-7.61-.35-9.4-3.52-1.1-2-4.13-.2-3,1.77Z"/><path class="cls-7" d="M597.45,646.36c2.46,4.36,7,4.74,11.66,5.17,5,.47,9.7-.44,13.5-3.9,1.66-1.52-.82-4-2.48-2.48-2.87,2.62-6.48,3.22-10.25,3-3.33-.22-7.62-.35-9.4-3.51-1.11-2-4.13-.2-3,1.76Z"/><ellipse class="cls-8" cx="567.98" cy="59.09" rx="30.82" ry="30.94"/><ellipse class="cls-8" cx="598.5" cy="55.32" rx="26.08" ry="26.18"/><ellipse class="cls-8" cx="534.06" cy="63.51" rx="26.08" ry="26.18"/><ellipse class="cls-8" cx="630.97" cy="59.73" rx="26.08" ry="26.18"/><ellipse class="cls-8" cx="649.35" cy="84.06" rx="25.06" ry="25.16"/><ellipse class="cls-8" cx="606.02" cy="81.58" rx="32.51" ry="32.64"/><ellipse class="cls-8" cx="554.12" cy="89.55" rx="30.14" ry="30.26"/><rect class="cls-8" x="527.74" y="103.32" width="18.29" height="31.96" rx="7.84" transform="translate(1.24 -5.46) rotate(0.58)"/><ellipse class="cls-8" cx="519.85" cy="96.34" rx="24.38" ry="24.48"/><path class="cls-3" d="M611.75,179.55l6.15.07,10.84.11,7.86-1.14a4.06,4.06,0,0,0,1.76-.69h0a24.5,24.5,0,0,0,8.8-10.91h0l1.32-8.65c.09-.57.15-1.14.2-1.71l.57-6.95a24.13,24.13,0,0,0,0-3.4l-.48-7.83-.61-6.8-.57-10.21L647,112.6l0-3.4-6.76-1.43-6.07-3.46-5.37-4.14-6-6.86-1.41,5.43-2.75,4.05-2.74,2.69-4.09,2.68-4.08,2-5.43.62-5.42,0-5.41-.74-4.71-2.77-3.35-3.43-3.35-4.12-3.35-4.11L574.67,101l-2.09,5.42-2.74,3.37-2.73,2-3.41,2-3.41,2-3.39.65-4.06,0-4.07-.05L546.08,115l-2-2.06-.07,7.48-.1,10.19L531,130.45l.13-13.59-2,1.33-3.4,1.33-3.58.68a20.23,20.23,0,0,1-6.45.17l-2.17-.29-.09,8.65a9.71,9.71,0,0,0,.46,3h0a14.33,14.33,0,0,0,5.53,7.43h0L524.8,142l4.73,1.41,6.59.67a2.34,2.34,0,0,1,1.46.7h0a2.61,2.61,0,0,1,.73,1.82l0,4.38,0,2.1a5.53,5.53,0,0,0,.55,2.46l1.43,2.94,1.81,3.74a3.64,3.64,0,0,0,.43.67l2.86,3.51a4.34,4.34,0,0,0,.52.53l6.17,5.06a3.33,3.33,0,0,0,.56.36l5.09,2.62,4.73,1.41,2.29.95a6.48,6.48,0,0,0,2.25.48l11,.35"/><path d="M601.27,126.44l-15.36-1.18a3.79,3.79,0,0,1-3.7-3.82l0-.24a3.76,3.76,0,0,1,4.22-3.21l15.36,1.18a3.78,3.78,0,0,1,3.7,3.82l0,.24A3.76,3.76,0,0,1,601.27,126.44Z"/><rect x="621.55" y="117.56" width="23.71" height="6.8" rx="2.9" transform="translate(1.26 -6.44) rotate(0.58)"/><ellipse cx="595.14" cy="131.11" rx="5.1" ry="4.86" transform="translate(458.48 725) rotate(-89.46)"/><ellipse cx="635.78" cy="131.52" rx="5.1" ry="4.86" transform="translate(498.33 766.04) rotate(-89.46)"/><ellipse class="cls-9" cx="616.06" cy="160.56" rx="1.36" ry="13.55" transform="translate(449.24 774.96) rotate(-89.42)"/><path class="cls-10" d="M620.47,162.53l-4.43,0c-3.67,0-7.14-.07-9.61-.27-2.71-.21-4.51-.61-4.5-1.82a1.21,1.21,0,0,1,.38-.84c1.09-1.07,4.66-1.08,11.39-1l2.38,0c10.47.11,14.13.31,14.11,2.09h0C630.18,162.21,627.57,162.53,620.47,162.53Zm-10.64-2.81c-3.39,0-6.45.12-6.73.71.59.78,7.45.85,13,.9,5.35.06,12,.13,12.92-.64-.92-.79-7.55-.85-12.9-.91l-2.39,0Zm19.78,1h0Z"/><path class="cls-11" d="M615,136.62c.81,2.29,2.39,3.8,3.64,5.82.81,1.31,1.49,3,.17,4.28s-3.46,1.05-5.11.93c-2.25-.17-2.24,3.33,0,3.5,3.58.27,8.08-.54,9.22-4.57,1.28-4.54-3.21-7.14-4.55-10.89-.75-2.11-4.13-1.2-3.37.93Z"/><path class="cls-11" d="M579.27,205.36l-.65-2.05a13.11,13.11,0,0,1-.54-4.2l.12-20a.94.94,0,0,1,1-1l23.64.6a.27.27,0,0,1,.1.51l-6.52,3.07a8,8,0,0,1-1.42.51l-11.54,2.9L582.71,210"/><path class="cls-11" d="M539,146.48c-1.44,9.13,4,17.4,11.14,22.71,1.81,1.35,3.55-1.69,1.77-3-2.54-1.89-4.39-4.56-6.41-7a14.51,14.51,0,0,1-3.12-11.76c.34-2.2-3-3.15-3.38-.93Z"/><path class="cls-11" d="M539.59,147.31c1.08,13.13,11.89,20.55,22.4,26.57,2,1.12,3.72-1.91,1.77-3-9.26-5.29-19.71-11.83-20.67-23.54-.18-2.23-3.68-2.25-3.5,0Z"/><path class="cls-11" d="M541.79,156.94c.46,2,2,3.66,3.09,5.37a24.5,24.5,0,0,0,5,5.72c4,3.34,8.8,5.42,13.67,7.1,2.14.74,3.06-2.64.94-3.37-4.29-1.48-8.6-3.29-12.14-6.2a20.68,20.68,0,0,1-4.1-4.51c-.85-1.29-2.72-3.56-3.07-5-.5-2.19-3.88-1.26-3.37.93Z"/><path class="cls-11" d="M551.18,169.18c.48.17.91.77,1.31,1.08a8.32,8.32,0,0,0,1.61.93c1.27.59,2.57,1.11,3.85,1.67,2,.88,3.83-2.13,1.77-3-1.42-.62-2.9-1.17-4.28-1.87-1.22-.61-2-1.7-3.33-2.16-2.13-.75-3.05,2.63-.93,3.37Z"/><path class="cls-11" d="M550.27,168.73l2.77,1.51a1.75,1.75,0,1,0,1.77-3L552,165.71a1.75,1.75,0,0,0-1.77,3Z"/><path class="cls-11" d="M552.15,169.8a1.75,1.75,0,0,0,0-3.5,1.75,1.75,0,0,0,0,3.5Z"/><path class="cls-11" d="M549.59,167.35c.9,2.46,3.07,3.43,5.24,4.62a55,55,0,0,0,8.32,3.35c2.13.76,3-2.62.93-3.37a60.16,60.16,0,0,1-6.25-2.34c-1.25-.61-4.35-1.8-4.86-3.19-.77-2.09-4.15-1.19-3.38.93Z"/><path class="cls-11" d="M547.49,165.8a27.8,27.8,0,0,0,16.84,10.25c2.2.42,3.14-3,.93-3.37-5.4-1-11.51-4.23-14.75-8.65-1.32-1.8-4.35-.05-3,1.77Z"/><path class="cls-11" d="M561.64,174l6.47,2.74a1.82,1.82,0,0,0,2.4-.62,1.77,1.77,0,0,0-.63-2.4L563.4,171a1.81,1.81,0,0,0-2.39.63,1.75,1.75,0,0,0,.63,2.39Z"/><path class="cls-11" d="M564.92,175.87a4.1,4.1,0,0,1,1.4.08v-3.38a1.54,1.54,0,0,1-.74.06,1.75,1.75,0,0,0-.93,3.38,30,30,0,0,0,3.76.94,1.8,1.8,0,0,0,2.15-1.23,1.77,1.77,0,0,0-1.22-2.15,28.71,28.71,0,0,1-3.76-.94l-.93,3.38a6.16,6.16,0,0,0,2.6-.06,1.77,1.77,0,0,0,0-3.38,7.29,7.29,0,0,0-2.33-.2,1.81,1.81,0,0,0-1.75,1.75,1.76,1.76,0,0,0,1.75,1.75Z"/><path class="cls-3" d="M519.51,121.45c-.19,3.75-.23,7.91,2,11.12S528.2,137.31,532,138c2.21.41,3.15-3,.93-3.38-3.1-.58-7.08-1.59-8.79-4.52-1.49-2.54-1.24-5.85-1.1-8.67.11-2.26-3.39-2.25-3.5,0Z"/><path class="cls-11" d="M524.3,123.75a6.06,6.06,0,0,0,.92,5.58,4.7,4.7,0,0,0,5.26,1.55,1.81,1.81,0,0,0,1.22-2.16,1.76,1.76,0,0,0-2.15-1.22c-1.78.67-2.31-1.48-1.87-2.82.71-2.14-2.67-3.06-3.38-.93Z"/><path class="cls-11" d="M518.53,121.84c.15,1.79-.51,3.5-.36,5.29a8.23,8.23,0,0,0,1.76,4.26c2.16,2.8,5.54,3.88,8.89,4.47,2.2.39,3.15-3,.93-3.37-2.61-.46-5.65-1.11-7.25-3.47s-.26-4.68-.47-7.18c-.18-2.22-3.69-2.24-3.5,0Z"/><path class="cls-11" d="M520.13,123.49a1.75,1.75,0,0,0,0-3.5,1.75,1.75,0,0,0,0,3.5Z"/><path class="cls-1" d="M628.93,651.5c3.51-.09,7.19-.25,10.56.92s6.35,3.63,9.13,6c1.71,1.43,4.2-1,2.47-2.48-2.91-2.44-5.88-4.95-9.44-6.39-4.06-1.65-8.41-1.62-12.72-1.51-2.25.06-2.26,3.56,0,3.5Z"/><path class="cls-1" d="M557.25,650a21.94,21.94,0,0,1,16.67,8.11c1.44,1.73,3.91-.75,2.47-2.47a25.29,25.29,0,0,0-19.14-9.14c-2.25,0-2.25,3.45,0,3.5Z"/><line class="cls-12" x1="581.87" y1="226.51" x2="566.75" y2="247.43"/><rect class="cls-12" x="561.4" y="235.8" width="25.81" height="2.33" transform="translate(45.78 563.54) rotate(-54.13)"/><rect class="cls-12" x="613.79" y="224.41" width="2.33" height="25.26" transform="translate(-23.14 401.95) rotate(-35.57)"/><path class="cls-11" d="M573,72.32A28.61,28.61,0,0,1,567.39,96c-1.38,1.78,1.66,3.53,3,1.77a32,32,0,0,0,6-26.38c-.45-2.2-3.82-1.27-3.37.93Z"/><path class="cls-11" d="M654,64.42c8.12,3,18.82,23.45,6.65,28.11-2.08.8-1.18,4.18.93,3.37,15.61-6,5.12-30.45-6.65-34.85-2.11-.79-3,2.59-.93,3.37Z"/><path class="cls-11" d="M614.45,57.22c5.92-2.95,12.28,1.39,14.79,6.79s2.35,11.37,2.24,17.12c-.05,2.25,3.45,2.25,3.5,0,.15-7.85.16-17-5.55-23.19-4.36-4.69-10.88-6.66-16.74-3.74-2,1-.25,4,1.76,3Z"/><path class="cls-11" d="M577,49.12c10.68-.15,10.72,13.11,10.29,20.56-.13,2.25,3.37,2.24,3.5,0,.56-9.59-1-24.25-13.79-24.06-2.25,0-2.25,3.53,0,3.5Z"/><path class="cls-11" d="M525.53,65.75A32.5,32.5,0,0,0,518,106.09c1.09,2,4.11.21,3-1.77a29,29,0,0,1,7-36.09c1.74-1.44-.75-3.91-2.47-2.48Z"/><ellipse class="cls-3" cx="723.82" cy="401.82" rx="19.39" ry="19.32" transform="translate(-94.99 279.66) rotate(-20.55)"/><rect class="cls-3" x="738.32" y="387.19" width="9.91" height="25.85" rx="4.25" transform="translate(1551.76 157.41) rotate(135)"/><ellipse class="cls-13" cx="751.39" cy="402.62" rx="0.99" ry="3.48" transform="translate(-73.72 616.84) rotate(-42.74)"/><rect class="cls-3" x="719.7" y="417.18" width="26.75" height="8.95" rx="3.82" transform="matrix(0.34, 0.94, -0.94, 0.34, 881.31, -410.94)"/><rect class="cls-3" x="727.86" y="413.68" width="26.75" height="8.95" rx="3.82" transform="translate(883.41 -420.94) rotate(70.19)"/><rect class="cls-3" x="711.21" y="417.08" width="26.75" height="8.95" rx="3.82" transform="matrix(0.34, 0.94, -0.94, 0.34, 875.6, -403.02)"/><rect class="cls-3" x="703.03" y="413.72" width="23.78" height="8.95" rx="3.82" transform="translate(866.05 -396.15) rotate(70.19)"/><ellipse class="cls-13" cx="732.1" cy="420.43" rx="2.98" ry="3.96" transform="matrix(0.94, -0.34, 0.34, 0.94, -99.15, 272.92)"/><ellipse class="cls-13" cx="740.27" cy="416.93" rx="2.98" ry="3.96" transform="translate(-97.48 275.48) rotate(-19.81)"/><ellipse class="cls-13" cx="724.88" cy="420.92" rx="2.98" ry="3.96" transform="translate(-99.74 270.51) rotate(-19.81)"/><ellipse class="cls-13" cx="715.96" cy="418.17" rx="2.49" ry="3.3" transform="translate(-99.34 267.32) rotate(-19.81)"/><line class="cls-14" x1="736.76" y1="445.08" x2="735.82" y2="445.42"/><path class="cls-11" d="M740.85,431.79a.31.31,0,0,1-.28-.2l-4.7-13a.29.29,0,0,1,.18-.37.29.29,0,0,1,.37.17l4.7,13.05a.29.29,0,0,1-.17.38Z"/><path class="cls-11" d="M732,430.75a.28.28,0,0,1-.27-.19L727,417.51a.29.29,0,0,1,.18-.37.28.28,0,0,1,.37.17l4.7,13.05a.3.3,0,0,1-.17.38Z"/><path class="cls-11" d="M722.18,426.92a.29.29,0,0,1-.27-.19l-4.7-13.05a.28.28,0,0,1,.17-.37.3.3,0,0,1,.38.17l4.7,13a.3.3,0,0,1-.18.38Z"/><rect class="cls-1" x="696.81" y="385.44" width="32.37" height="6.73" transform="translate(-98.88 408.65) rotate(-30)"/><path d="M725.28,378l3.22,5.58-27.78,16L697.5,394,725.28,378m.11-.39L697.1,393.93l3.51,6.08,28.29-16.33-3.51-6.08Z"/><rect class="cls-14" width="466.6" height="700"/><rect class="cls-14" x="466.6" width="466.6" height="700"/><rect class="cls-14" x="933.2" width="466.6" height="700"/><rect class="cls-14" x="1866.4" width="466.6" height="700"/><rect class="cls-14" x="1399.8" width="466.6" height="700"/></svg>