<svg id="Layer_1" data-name="Layer 1" xmlns="http://www.w3.org/2000/svg" width="2000" height="600" viewBox="0 0 2000 600"><defs><style>.cls-1,.cls-2,.cls-4{stroke:#000;}.cls-1,.cls-13,.cls-18,.cls-2,.cls-4,.cls-7,.cls-8{stroke-linecap:round;}.cls-1,.cls-13,.cls-15,.cls-16,.cls-2,.cls-4{stroke-linejoin:round;}.cls-1{stroke-width:4px;}.cls-2,.cls-5{fill:#fff;}.cls-15,.cls-16,.cls-2,.cls-7,.cls-8,.cls-9{stroke-width:2px;}.cls-3{fill:#1b1464;}.cls-16,.cls-18,.cls-19,.cls-4,.cls-8{fill:none;}.cls-4{stroke-width:34px;}.cls-6{fill:#f1d0a5;}.cls-7{fill:#060002;}.cls-7,.cls-8,.cls-9{stroke:#ccc;}.cls-9{fill:#ccc;}.cls-10{fill:#736357;}.cls-11{fill:#534741;}.cls-12{fill:#8c6239;}.cls-13{fill:#c1612d;stroke:#f15a24;}.cls-14{fill:#c69c6d;}.cls-15{fill:#e6e6e6;}.cls-15,.cls-16{stroke:#e6e6e6;}.cls-17{fill:#cb9d80;}.cls-18{stroke:#c69c6d;stroke-miterlimit:10;stroke-width:0.5px;}</style></defs><title>sprite_mand</title><path d="M969.05,195.84c.77,11.22,4.26,22.43,7.22,33.21,3.32,12.11,6.8,24.22,10.92,36.08,5.23,15.08,13.39,30.55,26.5,40.16,9.64,7.06,21,12.11,31.84,16.95,7.24,3.23,14.57,6.35,22,9.06,4.83,1.76,9.76,3.46,14.94,3.7,7.29.34,13.5-6.44,13.5-13.5,0-7.59-6.19-13.16-13.5-13.5-.92,0,4.18,1,1.7.22-.7-.21-1.43-.34-2.14-.53-2-.57-4.07-1.26-6.07-2q-3.62-1.29-7.19-2.72c-1.15-.46-2.3-.92-3.46-1.4l-2-.84c2.94,1.22-.62-.28-1-.43-10.76-4.67-21.64-9.63-31.54-16-.89-.57-1.74-1.18-2.63-1.76-2.52-1.64,1.87,2,.15.1a71.45,71.45,0,0,1-6.6-7.82,92.33,92.33,0,0,1-6.64-12c-1.38-2.91.09.54-.43-1-.3-.87-.65-1.73-1-2.59-3.85-10.77-7-21.82-10.11-32.83-1.84-6.55-3.62-13.12-5.22-19.73-.67-2.76-1.31-5.53-1.86-8.31-.21-1-.36-2.08-.57-3.11-.42-2,.35,4,.11.5-.5-7.27-5.84-13.5-13.5-13.5-6.92,0-14,6.19-13.5,13.5Z"/><path d="M1372.05,187.84c.77,11.22,4.26,22.43,7.22,33.21,3.32,12.11,6.8,24.22,10.92,36.08,5.23,15.08,13.39,30.55,26.5,40.16,9.64,7.06,21,12.11,31.84,16.95,7.24,3.23,14.57,6.35,22,9.06,4.83,1.76,9.76,3.46,14.94,3.7,7.29.34,13.5-6.44,13.5-13.5,0-7.59-6.19-13.16-13.5-13.5-.92,0,4.18,1,1.7.22-.7-.21-1.43-.34-2.14-.53-2-.57-4.07-1.26-6.07-2q-3.62-1.29-7.19-2.72c-1.15-.46-2.3-.92-3.46-1.4l-2-.84c2.94,1.22-.62-.28-1-.43-10.76-4.67-21.64-9.63-31.54-16-.89-.57-1.74-1.18-2.63-1.76-2.52-1.64,1.87,2,.15.1a71.45,71.45,0,0,1-6.6-7.82,92.33,92.33,0,0,1-6.64-12c-1.38-2.91.09.54-.43-1-.3-.87-.65-1.73-1-2.59-3.85-10.77-7-21.82-10.11-32.83-1.84-6.55-3.62-13.12-5.22-19.73-.67-2.76-1.31-5.53-1.86-8.31-.21-1-.36-2.08-.57-3.11-.42-2,.35,4,.11.5-.5-7.27-5.84-13.5-13.5-13.5-6.92,0-14,6.19-13.5,13.5Z"/><path d="M1681.15,171.1c-10,5.91-17.73,16.39-25.07,25.09-8,9.45-18,19.45-23.32,30.66-4.68,9.78-7.47,20.32-5.16,31.12.83,3.91,2.61,7.62,4.28,11.23.31.68,2.3,4.95,1.06,2.16,1.07,2.42,2,4.89,3.11,7.32,6.11,14,12.89,27.78,19.8,41.43,7.27,14.35,14.72,28.65,22.77,42.58,8.7,15,32.05,1.46,23.32-13.63-13.83-23.9-26.37-48.71-38-73.77q-2-4.29-3.91-8.62l-1.61-3.71c1.12,2.57.34.79.11.25-.68-1.62-1.35-3.25-2.08-4.86-.59-1.31-1.25-2.6-1.83-3.92.89,2,0,0-.11-.38-.26-.86-.53-1.71-.77-2.58,0,0-.33-2.19-.22-1,.13,1.46.06-1.68.09-1.94a31.59,31.59,0,0,1,1.42-5.28c2.82-8.69,10.54-16.53,17-24.29,4.5-5.4,9-10.77,13.82-15.93,2-2.15,4-4.28,6.12-6.29.8-.76,1.7-1.45,2.47-2.24,1.06-1.08-2.7,1.68.3-.1,14.92-8.87,1.36-32.22-13.63-23.31Z"/><path d="M1768.05,195.84c.85,12.39,4.85,24.79,8.18,36.67s6.69,24.13,11.1,35.79c6,15.89,15.42,33.85,32.49,39.49,12.61,4.17,26.71,4.88,39.87,5.77,11.29.77,22.61,1.12,33.92,1.28,17.38.24,17.39-26.76,0-27-8.76-.13-17.52-.36-26.27-.82-6.46-.34-12.91-.78-19.34-1.43-1.46-.14-2.91-.3-4.36-.47-.12,0-3.64-.45-1.38-.16,1.9.25-.33,0-.8-.12-2.86-.43-5.71-.9-8.54-1.52-2.25-.49-4.41-1.14-6.61-1.8-3.14-.94,1.63,1.2.21.12a7.73,7.73,0,0,0-1.22-.67c-.22-.13-.43-.27-.64-.42l2,1.53c.06-.28-3.56-3.89-3.89-4.3a59.78,59.78,0,0,1-3.9-5.83c-1.19-2-2.29-4-3.32-6-.51-1-1-2-1.46-3.06-2.2-4.66.35,1.09-.33-.72-4-10.5-7.09-21.39-10.18-32.18-2.12-7.37-4.14-14.77-6-22.22-.69-2.83-1.36-5.67-1.95-8.53-.24-1.18-.42-2.38-.67-3.56-.6-2.84.31,3.83.06.18-.5-7.27-5.84-13.5-13.5-13.5-6.92,0-14,6.19-13.5,13.5Z"/><path class="cls-1" d="M1752.16,379.28l-40-.41a40.58,40.58,0,0,1-40-40.94l1.26-125c.12-11.83,3.79-29,12-36.33,7.26-6.5,18.65-3.89,29.08-3.79l39.75.41c9.66.1,20.08-2.62,27,3.19,9,7.54,13.11,25.15,13,37.75l-1.26,125A40.58,40.58,0,0,1,1752.16,379.28Z"/><path class="cls-2" d="M1693,183.93c-3.46-5.49,1.14-12.19,8.3-12.07l33.39.53,32.89.53c7.39.12,11.91,7.17,8.16,12.72l-42.25,62.56Z"/><polygon class="cls-3" points="1745.85 229.68 1733.47 248.2 1722.05 229.44 1734.53 201 1745.85 229.68"/><path class="cls-4" d="M1696.7,324.18c13.12,98.5-10.27,211.46-19.25,238.18"/><path class="cls-4" d="M1763.47,324.86c13.12,98.5-10.26,211.46-19.24,238.18"/><ellipse class="cls-5" cx="1733.17" cy="277.92" rx="4.06" ry="4.08"/><ellipse class="cls-5" cx="1732.88" cy="307.06" rx="4.06" ry="4.08"/><ellipse class="cls-5" cx="1732.55" cy="339.7" rx="4.06" ry="4.08"/><polygon class="cls-3" points="1734.56 201.18 1745.96 191.4 1740.38 181.54 1729.07 181.46 1723.35 191.24 1734.56 201.18"/><rect class="cls-6" x="1720.13" y="138.35" width="29.03" height="44.29" rx="14.52" transform="translate(1.72 -17.64) rotate(0.58)"/><path class="cls-7" d="M1689.12,336.3a9.9,9.9,0,0,1-10,9.81c-5.45-.06-10.16-.75-10.1-6.22"/><path class="cls-8" d="M1774.42,333.42a9.9,9.9,0,0,0,9.77,10c5.45.05,10.17-.55,10.22-6"/><rect class="cls-9" x="1757.92" y="239.84" width="24.97" height="4.08" transform="translate(2.55 -18) rotate(0.58)"/><polygon class="cls-5" points="1667.69 338.84 1678.13 331.38 1679.33 333.08 1668.9 340.54 1667.69 338.84"/><path d="M1678.1,331.56l1.06,1.49-10.23,7.31-1.06-1.49,10.23-7.31m.06-.35-10.64,7.6,1.35,1.9,10.64-7.6-1.35-1.9Z"/><path class="cls-10" d="M1676.88,329.89a11.22,11.22,0,0,0,4.8,5.07"/><path class="cls-1" d="M1682.75,572.31a3.46,3.46,0,0,1,.7.07c3.89.85,8.08,1.25,12,2.4l29.53.3A23.84,23.84,0,0,0,1701.38,551l-28.91-.3a4.2,4.2,0,0,0-4.23,4.17l-.2,19.69,10.44.1a2.74,2.74,0,0,1,2.83-2.7A2.8,2.8,0,0,1,1682.75,572.31Z"/><path class="cls-1" d="M1748.34,574.73a3.39,3.39,0,0,1,.7.07c3.89.84,8.08,1.25,12,2.4l29.53.3A23.86,23.86,0,0,0,1767,553.36l-28.9-.29a4.21,4.21,0,0,0-4.24,4.16l-.2,19.69,10.45.11a2.73,2.73,0,0,1,2.82-2.7A2.77,2.77,0,0,1,1748.34,574.73Z"/><path class="cls-11" d="M1670.77,549.61c2.11,3.73,6,4,10,4.43,4.31.4,8.32-.38,11.57-3.35,1.43-1.31-.69-3.42-2.12-2.12-2.46,2.24-5.56,2.75-8.79,2.53-2.85-.19-6.53-.3-8.06-3a1.5,1.5,0,0,0-2.59,1.52Z"/><path class="cls-11" d="M1737,552c2.1,3.73,6,4.06,10,4.43,4.32.4,8.32-.38,11.58-3.35,1.43-1.3-.7-3.42-2.12-2.12-2.46,2.24-5.56,2.75-8.79,2.53-2.86-.19-6.53-.29-8.06-3A1.5,1.5,0,0,0,1737,552Z"/><ellipse class="cls-12" cx="1711.68" cy="48.65" rx="26.42" ry="26.52"/><ellipse class="cls-12" cx="1737.84" cy="45.42" rx="22.36" ry="22.44"/><ellipse class="cls-12" cx="1682.6" cy="52.43" rx="22.36" ry="22.44"/><ellipse class="cls-12" cx="1765.68" cy="49.2" rx="22.36" ry="22.44"/><ellipse class="cls-12" cx="1781.44" cy="70.05" rx="21.49" ry="21.56"/><ellipse class="cls-12" cx="1744.29" cy="67.92" rx="27.87" ry="27.97"/><ellipse class="cls-12" cx="1699.8" cy="74.76" rx="25.84" ry="25.93"/><rect class="cls-12" x="1677.19" y="86.56" width="15.68" height="27.39" rx="7.84" transform="translate(1.11 -17.14) rotate(0.58)"/><ellipse class="cls-12" cx="1670.42" cy="80.58" rx="20.9" ry="20.98"/><path class="cls-6" d="M1749.2,151.9l5.28.06,9.29.09,6.73-1a3.63,3.63,0,0,0,1.52-.59h0a21.18,21.18,0,0,0,7.54-9.35h0l1.13-7.42c.07-.48.13-1,.17-1.47l.49-6a21.74,21.74,0,0,0,0-2.91l-.4-6.71-.53-5.83-.49-8.75-.5-7.58,0-2.91-5.8-1.23-5.19-3-4.61-3.54L1758.71,78l-1.21,4.65-2.36,3.47-2.34,2.31-3.51,2.3-3.5,1.71-4.65.53-4.65,0-4.64-.63-4-2.38L1724.94,87l-2.87-3.52-2.87-3.53-1.79,4.64-1.79,4.65-2.35,2.89-2.34,1.72L1708,95.53l-2.92,1.72-2.91.55-3.48,0-3.49,0-2.31-1.19-1.72-1.76-.07,6.41-.09,8.74-11-.11.12-11.66-1.75,1.15-2.92,1.14-3.07.58a17.33,17.33,0,0,1-5.52.15l-1.87-.26-.07,7.42a8.14,8.14,0,0,0,.39,2.59h0a12.22,12.22,0,0,0,4.74,6.36h0l4.63,2.38,4,1.21,5.65.57a2,2,0,0,1,1.24.6h0a2.18,2.18,0,0,1,.63,1.56l0,3.76,0,1.8a4.83,4.83,0,0,0,.48,2.11l1.22,2.51,1.56,3.21a3,3,0,0,0,.36.57l2.45,3a4.78,4.78,0,0,0,.45.45l5.29,4.33a3.08,3.08,0,0,0,.48.32l4.36,2.24,4.06,1.21,2,.81a5.4,5.4,0,0,0,1.93.42l9.45.3"/><path d="M1740,108.34l-11.39-2.57a3,3,0,0,1-2.28-3.61l0-.2a3,3,0,0,1,3.6-2.29l11.4,2.57a3,3,0,0,1,2.27,3.61l0,.21A3,3,0,0,1,1740,108.34Z"/><rect x="1757.6" y="98.76" width="20.32" height="5.83" rx="2.9" transform="translate(1.13 -17.98) rotate(0.58)"/><ellipse cx="1734.96" cy="110.38" rx="4.37" ry="4.17" transform="translate(1608.34 1844.23) rotate(-89.46)"/><ellipse cx="1769.8" cy="110.73" rx="4.37" ry="4.17" transform="translate(1642.5 1879.42) rotate(-89.46)"/><ellipse class="cls-13" cx="1752.9" cy="135.62" rx="1.17" ry="11.61" transform="translate(1599.45 1887.05) rotate(-89.42)"/><path class="cls-14" d="M1752,115.1c.7,2,2,3.26,3.12,5,.7,1.12,1.28,2.6.15,3.66s-3,.9-4.38.8c-1.93-.15-1.92,2.85,0,3,3.07.23,6.92-.47,7.9-3.92,1.1-3.89-2.75-6.12-3.9-9.34-.64-1.8-3.54-1-2.89.8Z"/><path class="cls-14" d="M1721.36,174l-.56-1.75a11.13,11.13,0,0,1-.46-3.6l.1-17.1a.81.81,0,0,1,.83-.83l20.27.52a.23.23,0,0,1,.09.43l-5.6,2.64a6.45,6.45,0,0,1-1.21.43l-9.9,2.49-.61,20.78"/><path class="cls-14" d="M1686.86,123.56c-1.24,7.82,3.47,14.91,9.55,19.46,1.55,1.15,3-1.45,1.52-2.59-2.18-1.63-3.76-3.92-5.5-6a12.45,12.45,0,0,1-2.67-10.07c.29-1.89-2.6-2.71-2.9-.8Z"/><path class="cls-14" d="M1687.34,124.27c.93,11.25,10.19,17.61,19.2,22.77a1.5,1.5,0,0,0,1.52-2.59c-7.94-4.55-16.89-10.14-17.72-20.18-.15-1.91-3.16-1.93-3,0Z"/><path class="cls-14" d="M1689.23,132.52c.39,1.69,1.72,3.14,2.65,4.6a20.84,20.84,0,0,0,4.26,4.91,36.54,36.54,0,0,0,11.73,6.08c1.83.63,2.61-2.26.8-2.89a32.83,32.83,0,0,1-10.4-5.31,17.48,17.48,0,0,1-3.52-3.87c-.73-1.1-2.34-3-2.63-4.32-.44-1.88-3.33-1.08-2.89.8Z"/><path class="cls-14" d="M1697.28,143c.41.15.77.66,1.12.92a7.67,7.67,0,0,0,1.38.81c1.09.5,2.2.95,3.3,1.42,1.76.76,3.29-1.82,1.52-2.59-1.22-.52-2.49-1-3.67-1.59s-1.72-1.46-2.86-1.86c-1.82-.64-2.61,2.25-.79,2.89Z"/><path class="cls-14" d="M1696.5,142.63l2.37,1.29a1.5,1.5,0,1,0,1.52-2.59L1698,140a1.5,1.5,0,1,0-1.51,2.59Z"/><path class="cls-14" d="M1698.11,143.55a1.5,1.5,0,0,0,0-3,1.5,1.5,0,0,0,0,3Z"/><path class="cls-14" d="M1695.92,141.45c.77,2.1,2.63,2.93,4.49,4a48.49,48.49,0,0,0,7.13,2.87c1.82.64,2.61-2.25.8-2.9a50.7,50.7,0,0,1-5.36-2c-1.07-.52-3.74-1.54-4.17-2.73-.66-1.8-3.56-1-2.89.8Z"/><path class="cls-14" d="M1694.11,140.11a23.83,23.83,0,0,0,14.44,8.79c1.88.36,2.69-2.53.79-2.89-4.62-.88-9.86-3.62-12.63-7.41-1.13-1.54-3.74,0-2.6,1.51Z"/><path class="cls-14" d="M1706.24,147.14l5.55,2.35a1.56,1.56,0,0,0,2-.54,1.5,1.5,0,0,0-.53-2l-5.55-2.36a1.58,1.58,0,0,0-2.06.54,1.53,1.53,0,0,0,.54,2.06Z"/><path class="cls-14" d="M1709.06,148.75a3.47,3.47,0,0,1,1.2.06v-2.89a1.5,1.5,0,0,1-.63.05,1.5,1.5,0,0,0-.8,2.89,25.13,25.13,0,0,0,3.21.81,1.55,1.55,0,0,0,1.85-1,1.51,1.51,0,0,0-1.05-1.84,25.13,25.13,0,0,1-3.21-.81l-.8,2.89a5.09,5.09,0,0,0,2.23-.05,1.51,1.51,0,0,0,0-2.89,6.14,6.14,0,0,0-2-.17,1.54,1.54,0,0,0-1.5,1.5,1.5,1.5,0,0,0,1.5,1.5Z"/><path class="cls-6" d="M1670.13,102.1c-.16,3.21-.2,6.78,1.73,9.53s5.71,4.07,9,4.67c1.89.36,2.7-2.53.8-2.89-2.66-.5-6.07-1.37-7.54-3.88-1.27-2.18-1.06-5-.94-7.43.09-1.93-2.91-1.93-3,0Z"/><path class="cls-14" d="M1674.24,104.07a5.17,5.17,0,0,0,.78,4.78,4,4,0,0,0,4.51,1.33,1.54,1.54,0,0,0,1-1.85,1.52,1.52,0,0,0-1.85-1c-1.52.57-2-1.27-1.6-2.42.61-1.84-2.29-2.62-2.89-.8Z"/><path class="cls-14" d="M1669.29,102.44c.13,1.53-.44,3-.31,4.53a7,7,0,0,0,1.51,3.65c1.85,2.4,4.75,3.33,7.62,3.83,1.89.34,2.7-2.55.8-2.89-2.24-.4-4.85-1-6.22-3s-.22-4-.4-6.15c-.16-1.91-3.16-1.93-3,0Z"/><path class="cls-14" d="M1670.66,103.85a1.5,1.5,0,0,0,0-3,1.5,1.5,0,0,0,0,3Z"/><path class="cls-5" d="M1763.93,556.43c3-.08,6.16-.21,9.06.78s5.44,3.12,7.82,5.11c1.47,1.24,3.6-.88,2.12-2.12-2.49-2.09-5-4.24-8.1-5.48-3.48-1.41-7.21-1.39-10.9-1.29-1.93.05-1.94,3.05,0,3Z"/><path class="cls-5" d="M1702.48,555.16a18.82,18.82,0,0,1,14.29,7c1.24,1.49,3.35-.65,2.12-2.12a21.7,21.7,0,0,0-16.41-7.83c-1.93,0-1.93,3,0,3Z"/><line class="cls-15" x1="1723.58" y1="192.15" x2="1710.63" y2="210.08"/><line class="cls-16" x1="1745.65" y1="192.37" x2="1758.25" y2="209.99"/><path class="cls-14" d="M1716,60a24.51,24.51,0,0,1-4.8,20.3c-1.18,1.52,1.43,3,2.59,1.51a27.42,27.42,0,0,0,5.11-22.61c-.39-1.89-3.28-1.09-2.9.8Z"/><path class="cls-14" d="M1785.39,53.22c7,2.6,16.14,20.1,5.7,24.09-1.78.68-1,3.59.8,2.89,13.38-5.11,4.4-26.1-5.7-29.87-1.81-.68-2.59,2.22-.8,2.89Z"/><path class="cls-14" d="M1751.52,47.05c5.07-2.53,10.52,1.19,12.68,5.81s2,9.75,1.91,14.68c0,1.93,3,1.93,3,0,.13-6.73.14-14.62-4.75-19.88-3.74-4-9.33-5.71-14.35-3.2-1.73.86-.22,3.44,1.51,2.59Z"/><path class="cls-14" d="M1719.44,40.1c9.15-.13,9.19,11.24,8.82,17.62-.11,1.93,2.89,1.92,3,0,.48-8.22-.83-20.78-11.82-20.62-1.93,0-1.93,3,0,3Z"/><path class="cls-14" d="M1675.29,54.36a27.85,27.85,0,0,0-6.45,34.57c.93,1.7,3.52.19,2.59-1.51a24.87,24.87,0,0,1,6-30.94c1.49-1.23-.65-3.35-2.12-2.12Z"/><ellipse class="cls-6" cx="1917.32" cy="301.61" rx="16.56" ry="16.62"/><rect class="cls-6" x="1914.34" y="267.94" width="8.49" height="22.16" rx="4.25" transform="translate(54.03 -252.24) rotate(7.63)"/><ellipse class="cls-17" cx="1916.04" cy="271.78" rx="2.98" ry="0.85" transform="translate(1156.12 2051.56) rotate(-74.95)"/><rect class="cls-6" x="1926.23" y="290.11" width="40.77" height="6.82" rx="3.4"/><rect class="cls-6" x="1924.53" y="296.07" width="22.93" height="7.67" rx="3.82"/><rect class="cls-6" x="1921.99" y="302.89" width="22.93" height="7.67" rx="3.82"/><rect class="cls-6" x="1917.74" y="309.71" width="20.38" height="7.67" rx="3.82"/><ellipse class="cls-17" cx="1934.73" cy="300.34" rx="3.4" ry="2.56"/><ellipse class="cls-17" cx="1933.03" cy="306.3" rx="3.4" ry="2.56"/><ellipse class="cls-17" cx="1928.21" cy="312.7" rx="2.83" ry="2.13"/><line class="cls-18" x1="1934.3" y1="296.5" x2="1946.19" y2="296.5"/><line class="cls-18" x1="1930.9" y1="303.32" x2="1942.79" y2="303.32"/><line class="cls-18" x1="1924.96" y1="310.14" x2="1936.85" y2="310.14"/><ellipse class="cls-6" cx="1502.32" cy="314.61" rx="16.56" ry="16.62"/><rect class="cls-6" x="1499.34" y="280.94" width="8.49" height="22.16" rx="4.25" transform="translate(52.08 -197.03) rotate(7.63)"/><ellipse class="cls-17" cx="1501.04" cy="284.78" rx="2.98" ry="0.85" transform="translate(836.32 1660.41) rotate(-74.95)"/><rect class="cls-6" x="1511.23" y="303.11" width="40.77" height="6.82" rx="3.4"/><rect class="cls-6" x="1509.53" y="309.07" width="22.93" height="7.67" rx="3.82"/><rect class="cls-6" x="1506.99" y="315.89" width="22.93" height="7.67" rx="3.82"/><rect class="cls-6" x="1502.74" y="322.71" width="20.38" height="7.67" rx="3.82"/><ellipse class="cls-17" cx="1519.73" cy="313.34" rx="3.4" ry="2.56"/><ellipse class="cls-17" cx="1518.03" cy="319.3" rx="3.4" ry="2.56"/><ellipse class="cls-17" cx="1513.21" cy="325.7" rx="2.83" ry="2.13"/><line class="cls-18" x1="1519.3" y1="309.5" x2="1531.19" y2="309.5"/><line class="cls-18" x1="1515.9" y1="316.32" x2="1527.79" y2="316.32"/><line class="cls-18" x1="1509.96" y1="323.14" x2="1521.85" y2="323.14"/><rect class="cls-5" x="1898.41" y="290.38" width="5.77" height="21.77"/><path d="M1904.05,290.5V312h-5.52V290.5h5.52m.25-.25h-6v22h6v-22Z"/><rect class="cls-5" x="1485.41" y="303.38" width="5.77" height="21.77"/><path d="M1491.05,303.5V325h-5.52V303.5h5.52m.25-.25h-6v22h6v-22Z"/><path d="M571.93,189.68c.4,10.1,2.37,20.27,3.86,30.25,1.68,11.26,3.44,22.52,5.47,33.72,2.44,13.49,5.57,28.06,12.11,40.2,5.68,10.54,13.71,20.06,21.14,29.37,6.3,7.89,12.8,15.63,19.39,23.29,4.76,5.53,14.21,4.88,19.09,0,5.48-5.49,4.77-13.55,0-19.1q-7.8-9.06-15.38-18.32-2.76-3.39-5.48-6.81L629.57,299c-1.28-1.64,1.2,1.58-.05-.07l-1.76-2.32c-3.13-4.17-6.23-8.41-9-12.84-1-1.68-1.94-3.41-2.9-5.13-1.17-2.12,1.26,3.64-.16-.56-.92-2.72-1.88-5.42-2.73-8.17a195.69,195.69,0,0,1-5.23-21c-1.91-10.06-3.47-20.19-5-30.31q-.81-5.25-1.57-10.5c-.22-1.47-.43-2.94-.64-4.41-.09-.7-.19-1.4-.29-2.11-.38-2.65.22,1.76,0,.1-.5-4-1.14-8-1.3-12-.28-7.29-6-13.5-13.5-13.5-7.09,0-13.79,6.18-13.5,13.5Z"/><path d="M173.85,195.65c1.06,1,2,2.21,2.94,3.34,2.2,2.6-1.1-1.58.28.35.89,1.25,1.83,2.47,2.72,3.71,3.46,4.79,6.78,9.68,10.06,14.6,6.37,9.56,12.71,19.22,18.39,29.22a65.16,65.16,0,0,1,7.06,17.95c.4,1.73.43,3.59.93,5.15.08.27-.09.66,0,.9.66,1.68-4.39-1.86.29-2.05,0,0-.59,2.15-.65,2.34-.87,3.17,1.15-2.14-.16.51-5.08,10.23-11.82,19.55-18.69,28.65-.47.62-3.43,4.47-1.57,2.08q-1.61,2.07-3.24,4.13c-1.74,2.21-3.51,4.4-5.29,6.59-2.3,2.82-4.63,5.63-7,8.42-4.68,5.58-5.48,13.62,0,19.09,4.8,4.81,14.38,5.62,19.09,0q9.54-11.38,18.6-23.16c7.54-9.81,15.37-19.92,20.84-31.08,2.54-5.15,4.82-10.56,4.73-16.42-.18-11.12-4.56-22.63-9.4-32.47S222.5,218.25,216.45,209c-7.12-10.87-14.22-23.24-23.51-32.44-12.36-12.24-31.46,6.84-19.09,19.09Z"/><path d="M86.15,173.1c-10,5.91-17.73,16.39-25.07,25.09-8,9.45-18,19.45-23.32,30.66-4.68,9.78-7.47,20.32-5.16,31.12.83,3.91,2.61,7.62,4.28,11.23.31.68,2.3,4.95,1.06,2.16,1.07,2.42,2.05,4.89,3.11,7.32,6.11,14,12.89,27.78,19.8,41.43,7.27,14.35,14.72,28.65,22.77,42.58,8.7,15,32.05,1.46,23.32-13.63-13.83-23.9-26.37-48.71-38-73.77q-2-4.29-3.91-8.62L63.46,265c1.12,2.57.34.79.11.25-.68-1.62-1.35-3.25-2.08-4.86-.59-1.31-1.25-2.6-1.83-3.92.89,2,0,0-.11-.38-.26-.86-.53-1.71-.77-2.58,0,0-.33-2.19-.22-1,.13,1.46.06-1.68.09-1.94a31.59,31.59,0,0,1,1.42-5.28c2.82-8.69,10.54-16.53,17-24.29,4.5-5.4,9.05-10.77,13.82-15.93,2-2.15,4-4.28,6.12-6.29.8-.76,1.7-1.45,2.47-2.24,1.06-1.08-2.7,1.68.3-.1,14.92-8.87,1.36-32.22-13.63-23.31Z"/><path class="cls-1" d="M157.16,381.28l-40-.41a40.58,40.58,0,0,1-40-40.94l1.26-125c.12-11.83,3.79-29,12-36.33,7.26-6.5,18.65-3.89,29.08-3.79l39.75.41c9.66.1,20.08-2.62,27,3.19,9,7.54,13.11,25.15,13,37.75l-1.26,125A40.58,40.58,0,0,1,157.16,381.28Z"/><path class="cls-2" d="M98,185.93c-3.46-5.49,1.14-12.19,8.3-12.07l33.39.53,32.89.53c7.39.12,11.91,7.17,8.16,12.72L138.44,250.2Z"/><polygon class="cls-3" points="150.85 231.68 138.47 250.2 127.05 231.44 139.53 203 150.85 231.68"/><path class="cls-4" d="M101.7,326.18c13.12,98.5-10.27,211.46-19.25,238.18"/><path class="cls-4" d="M168.47,326.86c13.12,98.5-10.26,211.46-19.24,238.18"/><ellipse class="cls-5" cx="138.17" cy="279.92" rx="4.06" ry="4.08"/><ellipse class="cls-5" cx="137.88" cy="309.06" rx="4.06" ry="4.08"/><ellipse class="cls-5" cx="137.55" cy="341.7" rx="4.06" ry="4.08"/><polygon class="cls-3" points="139.56 203.18 150.96 193.4 145.38 183.54 134.07 183.46 128.35 193.24 139.56 203.18"/><rect class="cls-6" x="125.13" y="140.35" width="29.03" height="44.29" rx="14.52" transform="translate(1.66 -1.41) rotate(0.58)"/><path class="cls-7" d="M94.12,338.3a9.9,9.9,0,0,1-10,9.81c-5.45-.06-10.16-.75-10.1-6.22"/><path class="cls-8" d="M179.42,335.42a9.9,9.9,0,0,0,9.77,10c5.45.05,10.17-.55,10.22-6"/><rect class="cls-9" x="162.92" y="241.84" width="24.97" height="4.08" transform="translate(2.49 -1.77) rotate(0.58)"/><polygon class="cls-5" points="72.69 340.84 83.13 333.38 84.33 335.08 73.9 342.54 72.69 340.84"/><path d="M83.1,333.56l1.06,1.49-10.23,7.31-1.06-1.49,10.23-7.31m.06-.35-10.64,7.6,1.35,1.9,10.64-7.6-1.35-1.9Z"/><polygon class="cls-5" points="188.73 332 189.96 330.33 200.3 337.92 199.07 339.59 188.73 332"/><path d="M190,330.5,200.13,338,199,339.42,188.9,332,190,330.5m-.06-.35L188.55,332l10.54,7.74,1.39-1.87-10.55-7.74Z"/><path class="cls-10" d="M81.88,331.89a11.22,11.22,0,0,0,4.8,5.07"/><path class="cls-10" d="M187.12,333.17a11.23,11.23,0,0,0,4.31-5.49"/><path class="cls-1" d="M87.75,574.31a3.46,3.46,0,0,1,.7.07c3.89.85,8.08,1.25,12,2.4l29.53.3A23.84,23.84,0,0,0,106.38,553l-28.91-.3a4.2,4.2,0,0,0-4.23,4.17L73,576.51l10.44.1a2.74,2.74,0,0,1,2.83-2.7A2.8,2.8,0,0,1,87.75,574.31Z"/><path class="cls-1" d="M153.34,576.73a3.39,3.39,0,0,1,.7.07c3.89.84,8.08,1.25,12,2.4l29.53.3A23.86,23.86,0,0,0,172,555.36l-28.9-.29a4.21,4.21,0,0,0-4.24,4.16l-.2,19.69,10.45.11a2.73,2.73,0,0,1,2.82-2.7A2.77,2.77,0,0,1,153.34,576.73Z"/><path class="cls-11" d="M75.77,551.61c2.11,3.73,6,4,10,4.43,4.31.4,8.32-.38,11.57-3.35,1.43-1.31-.69-3.42-2.12-2.12-2.46,2.24-5.56,2.75-8.79,2.53-2.85-.19-6.53-.3-8.06-3a1.5,1.5,0,0,0-2.59,1.52Z"/><path class="cls-11" d="M142,554c2.1,3.73,6,4.06,10,4.43,4.32.4,8.32-.38,11.58-3.35,1.43-1.3-.7-3.42-2.12-2.12-2.46,2.24-5.56,2.75-8.79,2.53-2.86-.19-6.53-.29-8.06-3A1.5,1.5,0,0,0,142,554Z"/><ellipse class="cls-12" cx="116.68" cy="50.65" rx="26.42" ry="26.52"/><ellipse class="cls-12" cx="142.84" cy="47.42" rx="22.36" ry="22.44"/><ellipse class="cls-12" cx="87.6" cy="54.43" rx="22.36" ry="22.44"/><ellipse class="cls-12" cx="170.68" cy="51.2" rx="22.36" ry="22.44"/><ellipse class="cls-12" cx="186.44" cy="72.05" rx="21.49" ry="21.56"/><ellipse class="cls-12" cx="149.29" cy="69.92" rx="27.87" ry="27.97"/><ellipse class="cls-12" cx="104.8" cy="76.76" rx="25.84" ry="25.93"/><rect class="cls-12" x="82.19" y="88.56" width="15.68" height="27.39" rx="7.84" transform="translate(1.05 -0.91) rotate(0.58)"/><ellipse class="cls-12" cx="75.42" cy="82.58" rx="20.9" ry="20.98"/><path class="cls-6" d="M154.2,153.9l5.28.06,9.29.09,6.73-1a3.63,3.63,0,0,0,1.52-.59h0a21.18,21.18,0,0,0,7.54-9.35h0l1.13-7.42c.07-.48.13-1,.17-1.47l.49-6a21.74,21.74,0,0,0,0-2.91l-.4-6.71-.53-5.83-.49-8.75-.5-7.58,0-2.91-5.8-1.23-5.19-3-4.61-3.54L163.71,80l-1.21,4.65-2.36,3.47-2.34,2.31-3.51,2.3-3.5,1.71-4.65.53-4.65,0-4.64-.63-4-2.38L129.94,89l-2.87-3.52-2.87-3.53-1.79,4.64-1.79,4.65-2.35,2.89-2.34,1.72L113,97.53l-2.92,1.72-2.91.55-3.48,0-3.49,0L97.9,98.54l-1.72-1.76-.07,6.41L96,111.93l-11-.11.12-11.66-1.75,1.15-2.92,1.14-3.07.58a17.33,17.33,0,0,1-5.52.15L70,102.92l-.07,7.42a8.14,8.14,0,0,0,.39,2.59h0A12.22,12.22,0,0,0,75,119.29h0l4.63,2.38,4,1.21,5.65.57a2,2,0,0,1,1.24.6h0a2.18,2.18,0,0,1,.63,1.56l0,3.76,0,1.8a4.83,4.83,0,0,0,.48,2.11l1.22,2.51L94.44,139a3,3,0,0,0,.36.57l2.45,3a4.78,4.78,0,0,0,.45.45l5.29,4.33a3.08,3.08,0,0,0,.48.32l4.36,2.24,4.06,1.21,2,.81a5.4,5.4,0,0,0,1.93.42l9.45.3"/><path d="M145.38,107.24l-13.77.23a3.33,3.33,0,0,1-3.6-3v-.21a3.31,3.31,0,0,1,3.49-3.08l13.76-.23a3.33,3.33,0,0,1,3.6,3v.21A3.32,3.32,0,0,1,145.38,107.24Z"/><rect x="162.6" y="100.76" width="20.32" height="5.83" rx="2.9" transform="translate(1.06 -1.75) rotate(0.58)"/><ellipse cx="139.96" cy="112.38" rx="4.37" ry="4.17" transform="translate(26.28 251.28) rotate(-89.46)"/><ellipse cx="174.8" cy="112.73" rx="4.37" ry="4.17" transform="translate(60.44 286.47) rotate(-89.46)"/><ellipse class="cls-13" cx="157.9" cy="137.62" rx="1.17" ry="11.61" transform="translate(18.68 294.11) rotate(-89.42)"/><path class="cls-14" d="M157,117.1c.7,2,2.05,3.26,3.12,5,.7,1.12,1.28,2.6.15,3.66s-3,.9-4.38.8c-1.93-.15-1.92,2.85,0,3,3.07.23,6.92-.47,7.9-3.92,1.1-3.89-2.75-6.12-3.9-9.34-.64-1.8-3.54-1-2.89.8Z"/><path class="cls-14" d="M126.36,176l-.56-1.75a11.13,11.13,0,0,1-.46-3.6l.1-17.1a.81.81,0,0,1,.83-.83l20.27.52a.23.23,0,0,1,.09.43l-5.6,2.64a6.45,6.45,0,0,1-1.21.43l-9.9,2.49L129.31,180"/><path class="cls-14" d="M91.86,125.56c-1.24,7.82,3.47,14.91,9.55,19.46,1.55,1.15,3-1.45,1.52-2.59-2.18-1.63-3.76-3.92-5.5-6a12.45,12.45,0,0,1-2.67-10.07c.29-1.89-2.6-2.71-2.9-.8Z"/><path class="cls-14" d="M92.34,126.27c.93,11.25,10.19,17.61,19.2,22.77a1.5,1.5,0,0,0,1.52-2.59c-7.94-4.55-16.89-10.14-17.72-20.18-.15-1.91-3.16-1.93-3,0Z"/><path class="cls-14" d="M94.23,134.52c.39,1.69,1.72,3.14,2.65,4.6a20.84,20.84,0,0,0,4.26,4.91,36.54,36.54,0,0,0,11.73,6.08c1.83.63,2.61-2.26.8-2.89a32.83,32.83,0,0,1-10.4-5.31A17.48,17.48,0,0,1,99.75,138c-.73-1.1-2.34-3-2.63-4.32-.44-1.88-3.33-1.08-2.89.8Z"/><path class="cls-14" d="M102.28,145c.41.15.77.66,1.12.92a7.67,7.67,0,0,0,1.38.81c1.09.5,2.2.95,3.3,1.42,1.76.76,3.29-1.82,1.52-2.59-1.22-.52-2.49-1-3.67-1.59s-1.72-1.46-2.86-1.86c-1.82-.64-2.61,2.25-.79,2.89Z"/><path class="cls-14" d="M101.5,144.63l2.37,1.29a1.5,1.5,0,1,0,1.52-2.59L103,142a1.5,1.5,0,1,0-1.51,2.59Z"/><path class="cls-14" d="M103.11,145.55a1.5,1.5,0,0,0,0-3,1.5,1.5,0,0,0,0,3Z"/><path class="cls-14" d="M100.92,143.45c.77,2.1,2.63,2.93,4.49,4a48.49,48.49,0,0,0,7.13,2.87c1.82.64,2.61-2.25.8-2.9a50.7,50.7,0,0,1-5.36-2c-1.07-.52-3.74-1.54-4.17-2.73-.66-1.8-3.56-1-2.89.8Z"/><path class="cls-14" d="M99.11,142.11a23.83,23.83,0,0,0,14.44,8.79c1.88.36,2.69-2.53.79-2.89-4.62-.88-9.86-3.62-12.63-7.41-1.13-1.54-3.74,0-2.6,1.51Z"/><path class="cls-14" d="M111.24,149.14l5.55,2.35a1.56,1.56,0,0,0,2-.54,1.5,1.5,0,0,0-.53-2l-5.55-2.36a1.58,1.58,0,0,0-2.06.54,1.53,1.53,0,0,0,.54,2.06Z"/><path class="cls-14" d="M114.06,150.75a3.47,3.47,0,0,1,1.2.06v-2.89a1.5,1.5,0,0,1-.63.05,1.5,1.5,0,0,0-.8,2.89,25.13,25.13,0,0,0,3.21.81,1.55,1.55,0,0,0,1.85-1,1.51,1.51,0,0,0-1-1.84,25.13,25.13,0,0,1-3.21-.81l-.8,2.89a5.09,5.09,0,0,0,2.23-.05,1.51,1.51,0,0,0,0-2.89,6.14,6.14,0,0,0-2-.17,1.54,1.54,0,0,0-1.5,1.5,1.5,1.5,0,0,0,1.5,1.5Z"/><path class="cls-6" d="M75.13,104.1c-.16,3.21-.2,6.78,1.73,9.53s5.71,4.07,9,4.67c1.89.36,2.7-2.53.8-2.89-2.66-.5-6.07-1.37-7.54-3.88-1.27-2.18-1.06-5-.94-7.43.09-1.93-2.91-1.93-3,0Z"/><path class="cls-14" d="M79.24,106.07a5.17,5.17,0,0,0,.78,4.78,4,4,0,0,0,4.51,1.33,1.54,1.54,0,0,0,1-1.85,1.52,1.52,0,0,0-1.85-1c-1.52.57-2-1.27-1.6-2.42.61-1.84-2.29-2.62-2.89-.8Z"/><path class="cls-14" d="M74.29,104.44c.13,1.53-.44,3-.31,4.53a7,7,0,0,0,1.51,3.65c1.85,2.4,4.75,3.33,7.62,3.83,1.89.34,2.7-2.55.8-2.89-2.24-.4-4.85-1-6.22-3s-.22-4-.4-6.15c-.16-1.91-3.16-1.93-3,0Z"/><path class="cls-14" d="M75.66,105.85a1.5,1.5,0,0,0,0-3,1.5,1.5,0,0,0,0,3Z"/><path class="cls-5" d="M168.93,558.43c3-.08,6.16-.21,9.06.78s5.44,3.12,7.82,5.11c1.47,1.24,3.6-.88,2.12-2.12-2.49-2.09-5.05-4.24-8.1-5.48-3.48-1.41-7.21-1.39-10.9-1.29-1.93.05-1.94,3.05,0,3Z"/><path class="cls-5" d="M107.48,557.16a18.82,18.82,0,0,1,14.29,7c1.24,1.49,3.35-.65,2.12-2.12a21.7,21.7,0,0,0-16.41-7.83c-1.93,0-1.93,3,0,3Z"/><line class="cls-15" x1="128.58" y1="194.15" x2="115.63" y2="212.08"/><line class="cls-16" x1="150.65" y1="194.37" x2="163.25" y2="211.99"/><path class="cls-14" d="M121,62a24.51,24.51,0,0,1-4.8,20.3c-1.18,1.52,1.43,3,2.59,1.51a27.42,27.42,0,0,0,5.11-22.61c-.39-1.89-3.28-1.09-2.9.8Z"/><path class="cls-14" d="M190.39,55.22c7,2.6,16.14,20.1,5.7,24.09-1.78.68-1,3.59.8,2.89,13.38-5.11,4.4-26.1-5.7-29.87-1.81-.68-2.59,2.22-.8,2.89Z"/><path class="cls-14" d="M156.52,49.05c5.07-2.53,10.52,1.19,12.68,5.81s2,9.75,1.91,14.68c0,1.93,3,1.93,3,0,.13-6.73.14-14.62-4.75-19.88-3.74-4-9.33-5.71-14.35-3.2-1.73.86-.22,3.44,1.51,2.59Z"/><path class="cls-14" d="M124.44,42.1c9.15-.13,9.19,11.24,8.82,17.62-.11,1.93,2.89,1.92,3,0,.48-8.22-.83-20.78-11.82-20.62-1.93,0-1.93,3,0,3Z"/><path class="cls-14" d="M80.29,56.36a27.85,27.85,0,0,0-6.45,34.57c.93,1.7,3.52.19,2.59-1.51a24.87,24.87,0,0,1,6-30.94c1.49-1.23-.65-3.35-2.12-2.12Z"/><path d="M486.15,173.1c-9.95,5.91-17.73,16.39-25.07,25.09-8,9.45-18,19.45-23.32,30.66-4.68,9.78-7.47,20.32-5.16,31.12.83,3.91,2.61,7.62,4.28,11.23.31.68,2.3,4.95,1.06,2.16,1.07,2.42,2.05,4.89,3.11,7.32,6.11,14,12.89,27.78,19.8,41.43,7.27,14.35,14.72,28.65,22.77,42.58,8.7,15,32,1.46,23.32-13.63-13.83-23.9-26.37-48.71-38-73.77q-2-4.29-3.91-8.62L463.46,265c1.12,2.57.34.79.11.25-.68-1.62-1.35-3.25-2.08-4.86-.59-1.31-1.25-2.6-1.83-3.92.89,2,0,0-.11-.38-.26-.86-.53-1.71-.77-2.58,0,0-.33-2.19-.22-1,.13,1.46.06-1.68.09-1.94a31.59,31.59,0,0,1,1.42-5.28c2.82-8.69,10.54-16.53,17-24.29,4.5-5.4,9.05-10.77,13.82-15.93,2-2.15,4-4.28,6.12-6.29.8-.76,1.7-1.45,2.47-2.24,1.06-1.08-2.7,1.68.3-.1,14.92-8.87,1.36-32.22-13.63-23.31Z"/><path class="cls-1" d="M557.16,381.28l-40-.41a40.58,40.58,0,0,1-40-40.94l1.26-125c.12-11.83,3.79-29,12-36.33,7.26-6.5,18.65-3.89,29.08-3.79l39.75.41c9.66.1,20.08-2.62,27,3.19,9,7.54,13.11,25.15,13,37.75l-1.26,125A40.58,40.58,0,0,1,557.16,381.28Z"/><path class="cls-2" d="M498,185.93c-3.46-5.49,1.14-12.19,8.3-12.07l33.39.53,32.89.53c7.39.12,11.91,7.17,8.16,12.72L538.44,250.2Z"/><polygon class="cls-3" points="550.85 231.68 538.47 250.2 527.05 231.44 539.53 203 550.85 231.68"/><path class="cls-4" d="M501.7,326.18c13.12,98.5-10.27,211.46-19.25,238.18"/><path class="cls-4" d="M568.47,326.86c13.12,98.5-10.26,211.46-19.24,238.18"/><ellipse class="cls-5" cx="538.17" cy="279.92" rx="4.06" ry="4.08"/><ellipse class="cls-5" cx="537.88" cy="309.06" rx="4.06" ry="4.08"/><ellipse class="cls-5" cx="537.55" cy="341.7" rx="4.06" ry="4.08"/><polygon class="cls-3" points="539.56 203.18 550.96 193.4 545.38 183.54 534.07 183.46 528.35 193.24 539.56 203.18"/><rect class="cls-6" x="525.13" y="140.35" width="29.03" height="44.29" rx="14.52" transform="matrix(1, 0.01, -0.01, 1, 1.68, -5.48)"/><path class="cls-7" d="M494.12,338.3a9.9,9.9,0,0,1-10,9.81c-5.45-.06-10.16-.75-10.1-6.22"/><path class="cls-8" d="M579.42,335.42a9.9,9.9,0,0,0,9.77,10c5.45.05,10.17-.55,10.22-6"/><rect class="cls-9" x="562.92" y="241.84" width="24.97" height="4.08" transform="translate(2.51 -5.84) rotate(0.58)"/><polygon class="cls-5" points="472.69 340.84 483.13 333.38 484.33 335.08 473.9 342.54 472.69 340.84"/><path d="M483.1,333.56l1.06,1.49-10.23,7.31-1.06-1.49,10.23-7.31m.06-.35-10.64,7.6,1.35,1.9,10.64-7.6-1.35-1.9Z"/><path class="cls-10" d="M481.88,331.89a11.22,11.22,0,0,0,4.8,5.07"/><path class="cls-1" d="M487.75,574.31a3.46,3.46,0,0,1,.7.07c3.89.85,8.08,1.25,12,2.4l29.53.3A23.84,23.84,0,0,0,506.38,553l-28.91-.3a4.2,4.2,0,0,0-4.23,4.17l-.2,19.69,10.44.1a2.74,2.74,0,0,1,2.83-2.7A2.8,2.8,0,0,1,487.75,574.31Z"/><path class="cls-1" d="M553.34,576.73a3.39,3.39,0,0,1,.7.07c3.89.84,8.08,1.25,12,2.4l29.53.3A23.86,23.86,0,0,0,572,555.36l-28.9-.29a4.21,4.21,0,0,0-4.24,4.16l-.2,19.69,10.45.11a2.73,2.73,0,0,1,2.82-2.7A2.77,2.77,0,0,1,553.34,576.73Z"/><path class="cls-11" d="M475.77,551.61c2.11,3.73,6,4,10,4.43,4.31.4,8.32-.38,11.57-3.35,1.43-1.31-.69-3.42-2.12-2.12-2.46,2.24-5.56,2.75-8.79,2.53-2.85-.19-6.53-.3-8.06-3a1.5,1.5,0,0,0-2.59,1.52Z"/><path class="cls-11" d="M542,554c2.1,3.73,6,4.06,10,4.43,4.32.4,8.32-.38,11.58-3.35,1.43-1.3-.7-3.42-2.12-2.12-2.46,2.24-5.56,2.75-8.79,2.53-2.86-.19-6.53-.29-8.06-3A1.5,1.5,0,0,0,542,554Z"/><ellipse class="cls-12" cx="516.68" cy="50.65" rx="26.42" ry="26.52"/><ellipse class="cls-12" cx="542.84" cy="47.42" rx="22.36" ry="22.44"/><ellipse class="cls-12" cx="487.6" cy="54.43" rx="22.36" ry="22.44"/><ellipse class="cls-12" cx="570.68" cy="51.2" rx="22.36" ry="22.44"/><ellipse class="cls-12" cx="586.44" cy="72.05" rx="21.49" ry="21.56"/><ellipse class="cls-12" cx="549.29" cy="69.92" rx="27.87" ry="27.97"/><ellipse class="cls-12" cx="504.8" cy="76.76" rx="25.84" ry="25.93"/><rect class="cls-12" x="482.19" y="88.56" width="15.68" height="27.39" rx="7.84" transform="translate(1.07 -4.98) rotate(0.58)"/><ellipse class="cls-12" cx="475.42" cy="82.58" rx="20.9" ry="20.98"/><path class="cls-6" d="M554.2,153.9l5.28.06,9.29.09,6.73-1a3.63,3.63,0,0,0,1.52-.59h0a21.18,21.18,0,0,0,7.54-9.35h0l1.13-7.42c.07-.48.13-1,.17-1.47l.49-6a21.74,21.74,0,0,0,0-2.91l-.4-6.71-.53-5.83-.49-8.75-.5-7.58,0-2.91-5.8-1.23-5.19-3-4.61-3.54L563.71,80l-1.21,4.65-2.36,3.47-2.34,2.31-3.51,2.3-3.5,1.71-4.65.53-4.65,0-4.64-.63-4-2.38L529.94,89l-2.87-3.52-2.87-3.53-1.79,4.64-1.79,4.65-2.35,2.89-2.34,1.72L513,97.53l-2.92,1.72-2.91.55-3.48,0-3.49,0-2.31-1.19-1.72-1.76-.07,6.41-.09,8.74-11-.11.12-11.66-1.75,1.15-2.92,1.14-3.07.58a17.33,17.33,0,0,1-5.52.15l-1.87-.26-.07,7.42a8.14,8.14,0,0,0,.39,2.59h0a12.22,12.22,0,0,0,4.74,6.36h0l4.63,2.38,4.05,1.21,5.65.57a2,2,0,0,1,1.24.6h0a2.18,2.18,0,0,1,.63,1.56l0,3.76,0,1.8a4.83,4.83,0,0,0,.48,2.11l1.22,2.51,1.56,3.21a3,3,0,0,0,.36.57l2.45,3a4.78,4.78,0,0,0,.45.45l5.29,4.33a3.08,3.08,0,0,0,.48.32l4.36,2.24,4.06,1.21,2,.81a5.4,5.4,0,0,0,1.93.42l9.45.3"/><path d="M545.22,108.38l-13.17-1a3.24,3.24,0,0,1-3.17-3.27v-.21a3.25,3.25,0,0,1,3.63-2.75l13.16,1a3.25,3.25,0,0,1,3.17,3.28v.2A3.25,3.25,0,0,1,545.22,108.38Z"/><rect x="562.6" y="100.76" width="20.32" height="5.83" rx="2.9" transform="translate(1.08 -5.82) rotate(0.58)"/><ellipse cx="539.96" cy="112.38" rx="4.37" ry="4.17" transform="translate(422.53 651.26) rotate(-89.46)"/><ellipse cx="574.8" cy="112.73" rx="4.37" ry="4.17" transform="translate(456.69 686.45) rotate(-89.46)"/><ellipse class="cls-13" cx="557.9" cy="137.62" rx="1.17" ry="11.61" transform="translate(414.61 694.09) rotate(-89.42)"/><path class="cls-14" d="M557,117.1c.7,2,2,3.26,3.12,5,.7,1.12,1.28,2.6.15,3.66s-3,.9-4.38.8c-1.93-.15-1.92,2.85,0,3,3.07.23,6.92-.47,7.9-3.92,1.1-3.89-2.75-6.12-3.9-9.34-.64-1.8-3.54-1-2.89.8Z"/><path class="cls-14" d="M526.36,176l-.56-1.75a11.13,11.13,0,0,1-.46-3.6l.1-17.1a.81.81,0,0,1,.83-.83l20.27.52a.23.23,0,0,1,.09.43l-5.6,2.64a6.45,6.45,0,0,1-1.21.43l-9.9,2.49L529.31,180"/><path class="cls-14" d="M491.86,125.56c-1.24,7.82,3.47,14.91,9.55,19.46,1.55,1.15,3-1.45,1.52-2.59-2.18-1.63-3.76-3.92-5.5-6a12.45,12.45,0,0,1-2.67-10.07c.29-1.89-2.6-2.71-2.9-.8Z"/><path class="cls-14" d="M492.34,126.27c.93,11.25,10.19,17.61,19.2,22.77a1.5,1.5,0,0,0,1.52-2.59c-7.94-4.55-16.89-10.14-17.72-20.18-.15-1.91-3.16-1.93-3,0Z"/><path class="cls-14" d="M494.23,134.52c.39,1.69,1.72,3.14,2.65,4.6a20.84,20.84,0,0,0,4.26,4.91,36.54,36.54,0,0,0,11.73,6.08c1.83.63,2.61-2.26.8-2.89a32.83,32.83,0,0,1-10.4-5.31,17.48,17.48,0,0,1-3.52-3.87c-.73-1.1-2.34-3-2.63-4.32-.44-1.88-3.33-1.08-2.89.8Z"/><path class="cls-14" d="M502.28,145c.41.15.77.66,1.12.92a7.67,7.67,0,0,0,1.38.81c1.09.5,2.2.95,3.3,1.42,1.76.76,3.29-1.82,1.52-2.59-1.22-.52-2.49-1-3.67-1.59s-1.72-1.46-2.86-1.86c-1.82-.64-2.61,2.25-.79,2.89Z"/><path class="cls-14" d="M501.5,144.63l2.37,1.29a1.5,1.5,0,1,0,1.52-2.59L503,142a1.5,1.5,0,1,0-1.51,2.59Z"/><path class="cls-14" d="M503.11,145.55a1.5,1.5,0,0,0,0-3,1.5,1.5,0,0,0,0,3Z"/><path class="cls-14" d="M500.92,143.45c.77,2.1,2.63,2.93,4.49,4a48.49,48.49,0,0,0,7.13,2.87c1.82.64,2.61-2.25.8-2.9a50.7,50.7,0,0,1-5.36-2c-1.07-.52-3.74-1.54-4.17-2.73-.66-1.8-3.56-1-2.89.8Z"/><path class="cls-14" d="M499.11,142.11a23.83,23.83,0,0,0,14.44,8.79c1.88.36,2.69-2.53.79-2.89-4.62-.88-9.86-3.62-12.63-7.41-1.13-1.54-3.74,0-2.6,1.51Z"/><path class="cls-14" d="M511.24,149.14l5.55,2.35a1.56,1.56,0,0,0,2.05-.54,1.5,1.5,0,0,0-.53-2l-5.55-2.36a1.58,1.58,0,0,0-2.06.54,1.53,1.53,0,0,0,.54,2.06Z"/><path class="cls-14" d="M514.06,150.75a3.47,3.47,0,0,1,1.2.06v-2.89a1.5,1.5,0,0,1-.63.05,1.5,1.5,0,0,0-.8,2.89,25.13,25.13,0,0,0,3.21.81,1.55,1.55,0,0,0,1.85-1,1.51,1.51,0,0,0-1-1.84,25.13,25.13,0,0,1-3.21-.81l-.8,2.89a5.09,5.09,0,0,0,2.23-.05,1.51,1.51,0,0,0,0-2.89,6.14,6.14,0,0,0-2-.17,1.54,1.54,0,0,0-1.5,1.5,1.5,1.5,0,0,0,1.5,1.5Z"/><path class="cls-6" d="M475.13,104.1c-.16,3.21-.2,6.78,1.73,9.53s5.71,4.07,8.95,4.67c1.89.36,2.7-2.53.8-2.89-2.66-.5-6.07-1.37-7.54-3.88-1.27-2.18-1.06-5-.94-7.43.09-1.93-2.91-1.93-3,0Z"/><path class="cls-14" d="M479.24,106.07a5.17,5.17,0,0,0,.78,4.78,4,4,0,0,0,4.51,1.33,1.54,1.54,0,0,0,1.05-1.85,1.52,1.52,0,0,0-1.85-1c-1.52.57-2-1.27-1.6-2.42.61-1.84-2.29-2.62-2.89-.8Z"/><path class="cls-14" d="M474.29,104.44c.13,1.53-.44,3-.31,4.53a7,7,0,0,0,1.51,3.65c1.85,2.4,4.75,3.33,7.62,3.83,1.89.34,2.7-2.55.8-2.89-2.24-.4-4.85-1-6.22-3s-.22-4-.4-6.15c-.16-1.91-3.16-1.93-3,0Z"/><path class="cls-14" d="M475.66,105.85a1.5,1.5,0,0,0,0-3,1.5,1.5,0,0,0,0,3Z"/><path class="cls-5" d="M568.93,558.43c3-.08,6.16-.21,9.06.78s5.44,3.12,7.82,5.11c1.47,1.24,3.6-.88,2.12-2.12-2.49-2.09-5-4.24-8.1-5.48-3.48-1.41-7.21-1.39-10.9-1.29-1.93.05-1.94,3.05,0,3Z"/><path class="cls-5" d="M507.48,557.16a18.82,18.82,0,0,1,14.29,7c1.24,1.49,3.35-.65,2.12-2.12a21.7,21.7,0,0,0-16.41-7.83c-1.93,0-1.93,3,0,3Z"/><line class="cls-15" x1="528.58" y1="194.15" x2="515.63" y2="212.08"/><line class="cls-16" x1="550.65" y1="194.37" x2="563.25" y2="211.99"/><path class="cls-14" d="M521,62a24.51,24.51,0,0,1-4.8,20.3c-1.18,1.52,1.43,3,2.59,1.51a27.42,27.42,0,0,0,5.11-22.61c-.39-1.89-3.28-1.09-2.9.8Z"/><path class="cls-14" d="M590.39,55.22c7,2.6,16.14,20.1,5.7,24.09-1.78.68-1,3.59.8,2.89,13.38-5.11,4.4-26.1-5.7-29.87-1.81-.68-2.59,2.22-.8,2.89Z"/><path class="cls-14" d="M556.52,49.05c5.07-2.53,10.52,1.19,12.68,5.81s2,9.75,1.91,14.68c0,1.93,3,1.93,3,0,.13-6.73.14-14.62-4.75-19.88-3.74-4-9.33-5.71-14.35-3.2-1.73.86-.22,3.44,1.51,2.59Z"/><path class="cls-14" d="M524.44,42.1c9.15-.13,9.19,11.24,8.82,17.62-.11,1.93,2.89,1.92,3,0,.48-8.22-.83-20.78-11.82-20.62-1.93,0-1.93,3,0,3Z"/><path class="cls-14" d="M480.29,56.36a27.85,27.85,0,0,0-6.45,34.57c.93,1.7,3.52.19,2.59-1.51a24.87,24.87,0,0,1,6-30.94c1.49-1.23-.65-3.35-2.12-2.12Z"/><path d="M887.15,173.1c-9.95,5.91-17.73,16.39-25.07,25.09-8,9.45-18,19.45-23.32,30.66-4.68,9.78-7.47,20.32-5.16,31.12.83,3.91,2.61,7.62,4.28,11.23.31.68,2.3,4.95,1.06,2.16,1.07,2.42,2,4.89,3.11,7.32,6.11,14,12.89,27.78,19.8,41.43,7.27,14.35,14.72,28.65,22.77,42.58,8.7,15,32,1.46,23.32-13.63-13.83-23.9-26.37-48.71-38-73.77q-2-4.29-3.91-8.62L864.46,265c1.12,2.57.34.79.11.25-.68-1.62-1.35-3.25-2.08-4.86-.59-1.31-1.25-2.6-1.83-3.92.89,2,0,0-.11-.38-.26-.86-.53-1.71-.77-2.58,0,0-.33-2.19-.22-1,.13,1.46.06-1.68.09-1.94a31.59,31.59,0,0,1,1.42-5.28c2.82-8.69,10.54-16.53,17-24.29,4.5-5.4,9-10.77,13.82-15.93,2-2.15,4-4.28,6.12-6.29.8-.76,1.7-1.45,2.47-2.24,1.06-1.08-2.7,1.68.3-.1,14.92-8.87,1.36-32.22-13.63-23.31Z"/><path class="cls-1" d="M958.16,381.28l-40-.41a40.58,40.58,0,0,1-40-40.94l1.26-125c.12-11.83,3.79-29,12-36.33,7.26-6.5,18.65-3.89,29.08-3.79l39.75.41c9.66.1,20.08-2.62,27,3.19,9,7.54,13.11,25.15,13,37.75l-1.26,125A40.58,40.58,0,0,1,958.16,381.28Z"/><path class="cls-2" d="M899,185.93c-3.46-5.49,1.14-12.19,8.3-12.07l33.39.53,32.89.53c7.39.12,11.91,7.17,8.16,12.72L939.44,250.2Z"/><polygon class="cls-3" points="951.85 231.68 939.47 250.2 928.05 231.44 940.53 203 951.85 231.68"/><path class="cls-4" d="M902.7,326.18c13.12,98.5-10.27,211.46-19.25,238.18"/><path class="cls-4" d="M969.47,326.86c13.12,98.5-10.26,211.46-19.24,238.18"/><ellipse class="cls-5" cx="939.17" cy="279.92" rx="4.06" ry="4.08"/><ellipse class="cls-5" cx="938.88" cy="309.06" rx="4.06" ry="4.08"/><ellipse class="cls-5" cx="938.55" cy="341.7" rx="4.06" ry="4.08"/><polygon class="cls-3" points="940.56 203.18 951.96 193.4 946.38 183.54 935.07 183.46 929.35 193.24 940.56 203.18"/><rect class="cls-6" x="926.13" y="140.35" width="29.03" height="44.29" rx="14.52" transform="translate(1.7 -9.56) rotate(0.58)"/><path class="cls-7" d="M895.12,338.3a9.9,9.9,0,0,1-10,9.81c-5.45-.06-10.16-.75-10.1-6.22"/><path class="cls-8" d="M980.42,335.42a9.9,9.9,0,0,0,9.77,10c5.45.05,10.17-.55,10.22-6"/><rect class="cls-9" x="963.92" y="241.84" width="24.97" height="4.08" transform="translate(2.53 -9.92) rotate(0.58)"/><polygon class="cls-5" points="873.69 340.84 884.13 333.38 885.33 335.08 874.9 342.54 873.69 340.84"/><path d="M884.1,333.56l1.06,1.49-10.23,7.31-1.06-1.49,10.23-7.31m.06-.35-10.64,7.6,1.35,1.9,10.64-7.6-1.35-1.9Z"/><path class="cls-10" d="M882.88,331.89a11.22,11.22,0,0,0,4.8,5.07"/><path class="cls-1" d="M888.75,574.31a3.46,3.46,0,0,1,.7.07c3.89.85,8.08,1.25,12,2.4l29.53.3A23.84,23.84,0,0,0,907.38,553l-28.91-.3a4.2,4.2,0,0,0-4.23,4.17l-.2,19.69,10.44.1a2.74,2.74,0,0,1,2.83-2.7A2.8,2.8,0,0,1,888.75,574.31Z"/><path class="cls-1" d="M954.34,576.73a3.39,3.39,0,0,1,.7.07c3.89.84,8.08,1.25,12,2.4l29.53.3A23.86,23.86,0,0,0,973,555.36l-28.9-.29a4.21,4.21,0,0,0-4.24,4.16l-.2,19.69,10.45.11a2.73,2.73,0,0,1,2.82-2.7A2.77,2.77,0,0,1,954.34,576.73Z"/><path class="cls-11" d="M876.77,551.61c2.11,3.73,6,4,10,4.43,4.31.4,8.32-.38,11.57-3.35,1.43-1.31-.69-3.42-2.12-2.12-2.46,2.24-5.56,2.75-8.79,2.53-2.85-.19-6.53-.3-8.06-3a1.5,1.5,0,0,0-2.59,1.52Z"/><path class="cls-11" d="M943,554c2.1,3.73,6,4.06,10,4.43,4.32.4,8.32-.38,11.58-3.35,1.43-1.3-.7-3.42-2.12-2.12-2.46,2.24-5.56,2.75-8.79,2.53-2.86-.19-6.53-.29-8.06-3A1.5,1.5,0,0,0,943,554Z"/><ellipse class="cls-12" cx="917.68" cy="50.65" rx="26.42" ry="26.52"/><ellipse class="cls-12" cx="943.84" cy="47.42" rx="22.36" ry="22.44"/><ellipse class="cls-12" cx="888.6" cy="54.43" rx="22.36" ry="22.44"/><ellipse class="cls-12" cx="971.68" cy="51.2" rx="22.36" ry="22.44"/><ellipse class="cls-12" cx="987.44" cy="72.05" rx="21.49" ry="21.56"/><ellipse class="cls-12" cx="950.29" cy="69.92" rx="27.87" ry="27.97"/><ellipse class="cls-12" cx="905.8" cy="76.76" rx="25.84" ry="25.93"/><rect class="cls-12" x="883.19" y="88.56" width="15.68" height="27.39" rx="7.84" transform="translate(1.09 -9.06) rotate(0.58)"/><ellipse class="cls-12" cx="876.42" cy="82.58" rx="20.9" ry="20.98"/><path class="cls-6" d="M955.2,153.9l5.28.06,9.29.09,6.73-1a3.63,3.63,0,0,0,1.52-.59h0a21.18,21.18,0,0,0,7.54-9.35h0l1.13-7.42c.07-.48.13-1,.17-1.47l.49-6a21.74,21.74,0,0,0,0-2.91l-.4-6.71-.53-5.83-.49-8.75-.5-7.58,0-2.91-5.8-1.23-5.19-3-4.61-3.54L964.71,80l-1.21,4.65-2.36,3.47-2.34,2.31-3.51,2.3-3.5,1.71-4.65.53-4.65,0-4.64-.63-4-2.38L930.94,89l-2.87-3.52-2.87-3.53-1.79,4.64-1.79,4.65-2.35,2.89-2.34,1.72L914,97.53l-2.92,1.72-2.91.55-3.48,0-3.49,0-2.31-1.19-1.72-1.76-.07,6.41-.09,8.74-11-.11.12-11.66-1.75,1.15-2.92,1.14-3.07.58a17.33,17.33,0,0,1-5.52.15l-1.87-.26-.07,7.42a8.14,8.14,0,0,0,.39,2.59h0a12.22,12.22,0,0,0,4.74,6.36h0l4.63,2.38,4.05,1.21,5.65.57a2,2,0,0,1,1.24.6h0a2.18,2.18,0,0,1,.63,1.56l0,3.76,0,1.8a4.83,4.83,0,0,0,.48,2.11l1.22,2.51,1.56,3.21a3,3,0,0,0,.36.57l2.45,3a4.78,4.78,0,0,0,.45.45l5.29,4.33a3.08,3.08,0,0,0,.48.32l4.36,2.24,4.06,1.21,2,.81a5.4,5.4,0,0,0,1.93.42l9.45.3"/><path d="M946.44,109.78l-11.6-1.34a3,3,0,0,1-2.65-3.34l0-.21a3,3,0,0,1,3.33-2.66l11.6,1.34a3,3,0,0,1,2.65,3.35l0,.21A3,3,0,0,1,946.44,109.78Z"/><rect x="963.6" y="100.76" width="20.32" height="5.83" rx="2.9" transform="matrix(1, 0.01, -0.01, 1, 1.11, -9.9)"/><ellipse cx="940.96" cy="112.38" rx="4.37" ry="4.17" transform="translate(819.78 1052.25) rotate(-89.46)"/><ellipse cx="975.8" cy="112.73" rx="4.37" ry="4.17" transform="translate(853.94 1087.44) rotate(-89.46)"/><ellipse class="cls-13" cx="958.9" cy="137.62" rx="1.17" ry="11.61" transform="translate(811.53 1095.07) rotate(-89.42)"/><path class="cls-14" d="M958,117.1c.7,2,2,3.26,3.12,5,.7,1.12,1.28,2.6.15,3.66s-3,.9-4.38.8c-1.93-.15-1.92,2.85,0,3,3.07.23,6.92-.47,7.9-3.92,1.1-3.89-2.75-6.12-3.9-9.34-.64-1.8-3.54-1-2.89.8Z"/><path class="cls-14" d="M927.36,176l-.56-1.75a11.13,11.13,0,0,1-.46-3.6l.1-17.1a.81.81,0,0,1,.83-.83l20.27.52a.23.23,0,0,1,.09.43l-5.6,2.64a6.45,6.45,0,0,1-1.21.43l-9.9,2.49L930.31,180"/><path class="cls-14" d="M892.86,125.56c-1.24,7.82,3.47,14.91,9.55,19.46,1.55,1.15,3.05-1.45,1.52-2.59-2.18-1.63-3.76-3.92-5.5-6a12.45,12.45,0,0,1-2.67-10.07c.29-1.89-2.6-2.71-2.9-.8Z"/><path class="cls-14" d="M893.34,126.27c.93,11.25,10.19,17.61,19.2,22.77a1.5,1.5,0,0,0,1.52-2.59c-7.94-4.55-16.89-10.14-17.72-20.18-.15-1.91-3.16-1.93-3,0Z"/><path class="cls-14" d="M895.23,134.52c.39,1.69,1.72,3.14,2.65,4.6a20.84,20.84,0,0,0,4.26,4.91,36.54,36.54,0,0,0,11.73,6.08c1.83.63,2.61-2.26.8-2.89a32.83,32.83,0,0,1-10.4-5.31,17.48,17.48,0,0,1-3.52-3.87c-.73-1.1-2.34-3-2.63-4.32-.44-1.88-3.33-1.08-2.89.8Z"/><path class="cls-14" d="M903.28,145c.41.15.77.66,1.12.92a7.67,7.67,0,0,0,1.38.81c1.09.5,2.2.95,3.3,1.42,1.76.76,3.29-1.82,1.52-2.59-1.22-.52-2.49-1-3.67-1.59s-1.72-1.46-2.86-1.86c-1.82-.64-2.61,2.25-.79,2.89Z"/><path class="cls-14" d="M902.5,144.63l2.37,1.29a1.5,1.5,0,1,0,1.52-2.59L904,142a1.5,1.5,0,1,0-1.51,2.59Z"/><path class="cls-14" d="M904.11,145.55a1.5,1.5,0,0,0,0-3,1.5,1.5,0,0,0,0,3Z"/><path class="cls-14" d="M901.92,143.45c.77,2.1,2.63,2.93,4.49,4a48.49,48.49,0,0,0,7.13,2.87c1.82.64,2.61-2.25.8-2.9a50.7,50.7,0,0,1-5.36-2c-1.07-.52-3.74-1.54-4.17-2.73-.66-1.8-3.56-1-2.89.8Z"/><path class="cls-14" d="M900.11,142.11a23.83,23.83,0,0,0,14.44,8.79c1.88.36,2.69-2.53.79-2.89-4.62-.88-9.86-3.62-12.63-7.41-1.13-1.54-3.74,0-2.6,1.51Z"/><path class="cls-14" d="M912.24,149.14l5.55,2.35a1.56,1.56,0,0,0,2.05-.54,1.5,1.5,0,0,0-.53-2l-5.55-2.36a1.58,1.58,0,0,0-2.06.54,1.53,1.53,0,0,0,.54,2.06Z"/><path class="cls-14" d="M915.06,150.75a3.47,3.47,0,0,1,1.2.06v-2.89a1.5,1.5,0,0,1-.63.05,1.5,1.5,0,0,0-.8,2.89,25.13,25.13,0,0,0,3.21.81,1.55,1.55,0,0,0,1.85-1,1.51,1.51,0,0,0-1-1.84,25.13,25.13,0,0,1-3.21-.81l-.8,2.89a5.09,5.09,0,0,0,2.23-.05,1.51,1.51,0,0,0,0-2.89,6.14,6.14,0,0,0-2-.17,1.54,1.54,0,0,0-1.5,1.5,1.5,1.5,0,0,0,1.5,1.5Z"/><path class="cls-6" d="M876.13,104.1c-.16,3.21-.2,6.78,1.73,9.53s5.71,4.07,8.95,4.67c1.89.36,2.7-2.53.8-2.89-2.66-.5-6.07-1.37-7.54-3.88-1.27-2.18-1.06-5-.94-7.43.09-1.93-2.91-1.93-3,0Z"/><path class="cls-14" d="M880.24,106.07a5.17,5.17,0,0,0,.78,4.78,4,4,0,0,0,4.51,1.33,1.54,1.54,0,0,0,1.05-1.85,1.52,1.52,0,0,0-1.85-1c-1.52.57-2-1.27-1.6-2.42.61-1.84-2.29-2.62-2.89-.8Z"/><path class="cls-14" d="M875.29,104.44c.13,1.53-.44,3-.31,4.53a7,7,0,0,0,1.51,3.65c1.85,2.4,4.75,3.33,7.62,3.83,1.89.34,2.7-2.55.8-2.89-2.24-.4-4.85-1-6.22-3s-.22-4-.4-6.15c-.16-1.91-3.16-1.93-3,0Z"/><path class="cls-14" d="M876.66,105.85a1.5,1.5,0,0,0,0-3,1.5,1.5,0,0,0,0,3Z"/><path class="cls-5" d="M969.93,558.43c3-.08,6.16-.21,9.06.78s5.44,3.12,7.82,5.11c1.47,1.24,3.6-.88,2.12-2.12-2.49-2.09-5-4.24-8.1-5.48-3.48-1.41-7.21-1.39-10.9-1.29-1.93.05-1.94,3.05,0,3Z"/><path class="cls-5" d="M908.48,557.16a18.82,18.82,0,0,1,14.29,7c1.24,1.49,3.35-.65,2.12-2.12a21.7,21.7,0,0,0-16.41-7.83c-1.93,0-1.93,3,0,3Z"/><line class="cls-15" x1="929.58" y1="194.15" x2="916.63" y2="212.08"/><line class="cls-16" x1="951.65" y1="194.37" x2="964.25" y2="211.99"/><path class="cls-14" d="M922,62a24.51,24.51,0,0,1-4.8,20.3c-1.18,1.52,1.43,3,2.59,1.51a27.42,27.42,0,0,0,5.11-22.61c-.39-1.89-3.28-1.09-2.9.8Z"/><path class="cls-14" d="M991.39,55.22c7,2.6,16.14,20.1,5.7,24.09-1.78.68-1,3.59.8,2.89,13.38-5.11,4.4-26.1-5.7-29.87-1.81-.68-2.59,2.22-.8,2.89Z"/><path class="cls-14" d="M957.52,49.05c5.07-2.53,10.52,1.19,12.68,5.81s2,9.75,1.91,14.68c0,1.93,3,1.93,3,0,.13-6.73.14-14.62-4.75-19.88-3.74-4-9.33-5.71-14.35-3.2-1.73.86-.22,3.44,1.51,2.59Z"/><path class="cls-14" d="M925.44,42.1c9.15-.13,9.19,11.24,8.82,17.62-.11,1.93,2.89,1.92,3,0,.48-8.22-.83-20.78-11.82-20.62-1.93,0-1.93,3,0,3Z"/><path class="cls-14" d="M881.29,56.36a27.85,27.85,0,0,0-6.45,34.57c.93,1.7,3.52.19,2.59-1.51a24.87,24.87,0,0,1,6-30.94c1.49-1.23-.65-3.35-2.12-2.12Z"/><ellipse class="cls-6" cx="1099.72" cy="334.03" rx="16.62" ry="16.56" transform="translate(138.52 964.15) rotate(-50.14)"/><rect class="cls-6" x="1110.93" y="306.42" width="8.49" height="22.16" rx="4.25" transform="translate(595.61 -719.07) rotate(47.49)"/><ellipse class="cls-17" cx="1117.86" cy="310.31" rx="2.98" ry="0.85" transform="translate(24.82 699.11) rotate(-35.1)"/><rect class="cls-6" x="1108.05" y="340.32" width="31.86" height="6.82" rx="3.4" transform="translate(481.45 -640.46) rotate(39.86)"/><rect class="cls-6" x="1103.69" y="340.86" width="22.93" height="7.67" rx="3.82" transform="translate(480.02 -634.58) rotate(39.86)"/><rect class="cls-6" x="1097.36" y="344.46" width="22.93" height="7.67" rx="3.82" transform="translate(480.85 -629.69) rotate(39.86)"/><rect class="cls-6" x="1090.03" y="346.16" width="20.38" height="7.67" rx="3.82" transform="translate(479.94 -623.78) rotate(39.86)"/><ellipse class="cls-17" cx="1113.9" cy="344.2" rx="2.56" ry="3.4" transform="translate(135.81 978.7) rotate(-50.14)"/><ellipse class="cls-17" cx="1108.78" cy="347.7" rx="2.56" ry="3.4" transform="translate(131.28 976.01) rotate(-50.14)"/><ellipse class="cls-17" cx="1100.98" cy="349.52" rx="2.13" ry="2.83" transform="translate(127.09 970.69) rotate(-50.14)"/><line class="cls-19" x1="1128.02" y1="360.43" x2="1127.47" y2="361.08"/><line class="cls-18" x1="1116.04" y1="340.99" x2="1125.16" y2="348.61"/><line class="cls-18" x1="1109.06" y1="344.04" x2="1118.19" y2="351.66"/><line class="cls-18" x1="1100.12" y1="345.47" x2="1109.25" y2="353.09"/><rect class="cls-5" x="1077.94" y="321.05" width="23.55" height="5.77" transform="translate(132.3 936.93) rotate(-49.19)"/><path d="M1095.23,313.31l4.18,3.61-15.23,17.64L1080,331l15.22-17.64m0-.35-15.56,18,4.56,3.94,15.56-18-4.56-3.94Z"/><path d="M1286.15,173.1c-10,5.91-17.73,16.39-25.07,25.09-8,9.45-18,19.45-23.32,30.66-4.68,9.78-7.47,20.32-5.16,31.12.83,3.91,2.61,7.62,4.28,11.23.31.68,2.3,4.95,1.06,2.16,1.07,2.42,2,4.89,3.11,7.32,6.11,14,12.89,27.78,19.8,41.43,7.27,14.35,14.72,28.65,22.77,42.58,8.7,15,32.05,1.46,23.32-13.63-13.83-23.9-26.37-48.71-38-73.77q-2-4.29-3.91-8.62l-1.61-3.71c1.12,2.57.34.79.11.25-.68-1.62-1.35-3.25-2.08-4.86-.59-1.31-1.25-2.6-1.83-3.92.89,2,0,0-.11-.38-.26-.86-.53-1.71-.77-2.58,0,0-.33-2.19-.22-1,.13,1.46.06-1.68.09-1.94a31.59,31.59,0,0,1,1.42-5.28c2.82-8.69,10.54-16.53,17-24.29,4.5-5.4,9-10.77,13.82-15.93,2-2.15,4-4.28,6.12-6.29.8-.76,1.7-1.45,2.47-2.24,1.06-1.08-2.7,1.68.3-.1,14.92-8.87,1.36-32.22-13.63-23.31Z"/><path class="cls-1" d="M1357.16,381.28l-40-.41a40.58,40.58,0,0,1-40-40.94l1.26-125c.12-11.83,3.79-29,12-36.33,7.26-6.5,18.65-3.89,29.08-3.79l39.75.41c9.66.1,20.08-2.62,27,3.19,9,7.54,13.11,25.15,13,37.75l-1.26,125A40.58,40.58,0,0,1,1357.16,381.28Z"/><path class="cls-2" d="M1298,185.93c-3.46-5.49,1.14-12.19,8.3-12.07l33.39.53,32.89.53c7.39.12,11.91,7.17,8.16,12.72l-42.25,62.56Z"/><polygon class="cls-3" points="1350.85 231.68 1338.47 250.2 1327.05 231.44 1339.53 203 1350.85 231.68"/><path class="cls-4" d="M1301.7,326.18c13.12,98.5-10.27,211.46-19.25,238.18"/><path class="cls-4" d="M1368.47,326.86c13.12,98.5-10.26,211.46-19.24,238.18"/><ellipse class="cls-5" cx="1338.17" cy="279.92" rx="4.06" ry="4.08"/><ellipse class="cls-5" cx="1337.88" cy="309.06" rx="4.06" ry="4.08"/><ellipse class="cls-5" cx="1337.55" cy="341.7" rx="4.06" ry="4.08"/><polygon class="cls-3" points="1339.56 203.18 1350.96 193.4 1345.38 183.54 1334.07 183.46 1328.35 193.24 1339.56 203.18"/><rect class="cls-6" x="1325.13" y="140.35" width="29.03" height="44.29" rx="14.52" transform="translate(1.72 -13.62) rotate(0.58)"/><path class="cls-7" d="M1294.12,338.3a9.9,9.9,0,0,1-10,9.81c-5.45-.06-10.16-.75-10.1-6.22"/><path class="cls-8" d="M1379.42,335.42a9.9,9.9,0,0,0,9.77,10c5.45.05,10.17-.55,10.22-6"/><rect class="cls-9" x="1362.92" y="241.84" width="24.97" height="4.08" transform="translate(2.55 -13.98) rotate(0.58)"/><polygon class="cls-5" points="1272.69 340.84 1283.13 333.38 1284.33 335.08 1273.9 342.54 1272.69 340.84"/><path d="M1283.1,333.56l1.06,1.49-10.23,7.31-1.06-1.49,10.23-7.31m.06-.35-10.64,7.6,1.35,1.9,10.64-7.6-1.35-1.9Z"/><path class="cls-10" d="M1281.88,331.89a11.22,11.22,0,0,0,4.8,5.07"/><path class="cls-1" d="M1287.75,574.31a3.46,3.46,0,0,1,.7.07c3.89.85,8.08,1.25,12,2.4l29.53.3A23.84,23.84,0,0,0,1306.38,553l-28.91-.3a4.2,4.2,0,0,0-4.23,4.17l-.2,19.69,10.44.1a2.74,2.74,0,0,1,2.83-2.7A2.8,2.8,0,0,1,1287.75,574.31Z"/><path class="cls-1" d="M1353.34,576.73a3.39,3.39,0,0,1,.7.07c3.89.84,8.08,1.25,12,2.4l29.53.3A23.86,23.86,0,0,0,1372,555.36l-28.9-.29a4.21,4.21,0,0,0-4.24,4.16l-.2,19.69,10.45.11a2.73,2.73,0,0,1,2.82-2.7A2.77,2.77,0,0,1,1353.34,576.73Z"/><path class="cls-11" d="M1275.77,551.61c2.11,3.73,6,4,10,4.43,4.31.4,8.32-.38,11.57-3.35,1.43-1.31-.69-3.42-2.12-2.12-2.46,2.24-5.56,2.75-8.79,2.53-2.85-.19-6.53-.3-8.06-3a1.5,1.5,0,0,0-2.59,1.52Z"/><path class="cls-11" d="M1342,554c2.1,3.73,6,4.06,10,4.43,4.32.4,8.32-.38,11.58-3.35,1.43-1.3-.7-3.42-2.12-2.12-2.46,2.24-5.56,2.75-8.79,2.53-2.86-.19-6.53-.29-8.06-3A1.5,1.5,0,0,0,1342,554Z"/><ellipse class="cls-12" cx="1316.68" cy="50.65" rx="26.42" ry="26.52"/><ellipse class="cls-12" cx="1342.84" cy="47.42" rx="22.36" ry="22.44"/><ellipse class="cls-12" cx="1287.6" cy="54.43" rx="22.36" ry="22.44"/><ellipse class="cls-12" cx="1370.68" cy="51.2" rx="22.36" ry="22.44"/><ellipse class="cls-12" cx="1386.44" cy="72.05" rx="21.49" ry="21.56"/><ellipse class="cls-12" cx="1349.29" cy="69.92" rx="27.87" ry="27.97"/><ellipse class="cls-12" cx="1304.8" cy="76.76" rx="25.84" ry="25.93"/><rect class="cls-12" x="1282.19" y="88.56" width="15.68" height="27.39" rx="7.84" transform="translate(1.11 -13.12) rotate(0.58)"/><ellipse class="cls-12" cx="1275.42" cy="82.58" rx="20.9" ry="20.98"/><path class="cls-6" d="M1354.2,153.9l5.28.06,9.29.09,6.73-1a3.63,3.63,0,0,0,1.52-.59h0a21.18,21.18,0,0,0,7.54-9.35h0l1.13-7.42c.07-.48.13-1,.17-1.47l.49-6a21.74,21.74,0,0,0,0-2.91l-.4-6.71-.53-5.83-.49-8.75-.5-7.58,0-2.91-5.8-1.23-5.19-3-4.61-3.54L1363.71,80l-1.21,4.65-2.36,3.47-2.34,2.31-3.51,2.3-3.5,1.71-4.65.53-4.65,0-4.64-.63-4-2.38L1329.94,89l-2.87-3.52-2.87-3.53-1.79,4.64-1.79,4.65-2.35,2.89-2.34,1.72L1313,97.53l-2.92,1.72-2.91.55-3.48,0-3.49,0-2.31-1.19-1.72-1.76-.07,6.41-.09,8.74-11-.11.12-11.66-1.75,1.15-2.92,1.14-3.07.58a17.33,17.33,0,0,1-5.52.15l-1.87-.26-.07,7.42a8.14,8.14,0,0,0,.39,2.59h0a12.22,12.22,0,0,0,4.74,6.36h0l4.63,2.38,4,1.21,5.65.57a2,2,0,0,1,1.24.6h0a2.18,2.18,0,0,1,.63,1.56l0,3.76,0,1.8a4.83,4.83,0,0,0,.48,2.11l1.22,2.51,1.56,3.21a3,3,0,0,0,.36.57l2.45,3a4.78,4.78,0,0,0,.45.45l5.29,4.33a3.08,3.08,0,0,0,.48.32l4.36,2.24,4.06,1.21,2,.81a5.4,5.4,0,0,0,1.93.42l9.45.3"/><path d="M1345,110.34l-11.39-2.57a3,3,0,0,1-2.28-3.61l0-.2a3,3,0,0,1,3.6-2.29l11.4,2.57a3,3,0,0,1,2.27,3.61l0,.21A3,3,0,0,1,1345,110.34Z"/><rect x="1362.6" y="100.76" width="20.32" height="5.83" rx="2.9" transform="translate(1.13 -13.96) rotate(0.58)"/><ellipse cx="1339.96" cy="112.38" rx="4.37" ry="4.17" transform="translate(1215.04 1451.23) rotate(-89.46)"/><ellipse cx="1374.8" cy="112.73" rx="4.37" ry="4.17" transform="translate(1249.2 1486.42) rotate(-89.46)"/><ellipse class="cls-13" cx="1357.9" cy="137.62" rx="1.17" ry="11.61" transform="translate(1206.47 1494.05) rotate(-89.42)"/><path class="cls-14" d="M1357,117.1c.7,2,2,3.26,3.12,5,.7,1.12,1.28,2.6.15,3.66s-3,.9-4.38.8c-1.93-.15-1.92,2.85,0,3,3.07.23,6.92-.47,7.9-3.92,1.1-3.89-2.75-6.12-3.9-9.34-.64-1.8-3.54-1-2.89.8Z"/><path class="cls-14" d="M1326.36,176l-.56-1.75a11.13,11.13,0,0,1-.46-3.6l.1-17.1a.81.81,0,0,1,.83-.83l20.27.52a.23.23,0,0,1,.09.43l-5.6,2.64a6.45,6.45,0,0,1-1.21.43l-9.9,2.49-.61,20.78"/><path class="cls-14" d="M1291.86,125.56c-1.24,7.82,3.47,14.91,9.55,19.46,1.55,1.15,3-1.45,1.52-2.59-2.18-1.63-3.76-3.92-5.5-6a12.45,12.45,0,0,1-2.67-10.07c.29-1.89-2.6-2.71-2.9-.8Z"/><path class="cls-14" d="M1292.34,126.27c.93,11.25,10.19,17.61,19.2,22.77a1.5,1.5,0,0,0,1.52-2.59c-7.94-4.55-16.89-10.14-17.72-20.18-.15-1.91-3.16-1.93-3,0Z"/><path class="cls-14" d="M1294.23,134.52c.39,1.69,1.72,3.14,2.65,4.6a20.84,20.84,0,0,0,4.26,4.91,36.54,36.54,0,0,0,11.73,6.08c1.83.63,2.61-2.26.8-2.89a32.83,32.83,0,0,1-10.4-5.31,17.48,17.48,0,0,1-3.52-3.87c-.73-1.1-2.34-3-2.63-4.32-.44-1.88-3.33-1.08-2.89.8Z"/><path class="cls-14" d="M1302.28,145c.41.15.77.66,1.12.92a7.67,7.67,0,0,0,1.38.81c1.09.5,2.2.95,3.3,1.42,1.76.76,3.29-1.82,1.52-2.59-1.22-.52-2.49-1-3.67-1.59s-1.72-1.46-2.86-1.86c-1.82-.64-2.61,2.25-.79,2.89Z"/><path class="cls-14" d="M1301.5,144.63l2.37,1.29a1.5,1.5,0,1,0,1.52-2.59L1303,142a1.5,1.5,0,1,0-1.51,2.59Z"/><path class="cls-14" d="M1303.11,145.55a1.5,1.5,0,0,0,0-3,1.5,1.5,0,0,0,0,3Z"/><path class="cls-14" d="M1300.92,143.45c.77,2.1,2.63,2.93,4.49,4a48.49,48.49,0,0,0,7.13,2.87c1.82.64,2.61-2.25.8-2.9a50.7,50.7,0,0,1-5.36-2c-1.07-.52-3.74-1.54-4.17-2.73-.66-1.8-3.56-1-2.89.8Z"/><path class="cls-14" d="M1299.11,142.11a23.83,23.83,0,0,0,14.44,8.79c1.88.36,2.69-2.53.79-2.89-4.62-.88-9.86-3.62-12.63-7.41-1.13-1.54-3.74,0-2.6,1.51Z"/><path class="cls-14" d="M1311.24,149.14l5.55,2.35a1.56,1.56,0,0,0,2-.54,1.5,1.5,0,0,0-.53-2l-5.55-2.36a1.58,1.58,0,0,0-2.06.54,1.53,1.53,0,0,0,.54,2.06Z"/><path class="cls-14" d="M1314.06,150.75a3.47,3.47,0,0,1,1.2.06v-2.89a1.5,1.5,0,0,1-.63.05,1.5,1.5,0,0,0-.8,2.89,25.13,25.13,0,0,0,3.21.81,1.55,1.55,0,0,0,1.85-1,1.51,1.51,0,0,0-1.05-1.84,25.13,25.13,0,0,1-3.21-.81l-.8,2.89a5.09,5.09,0,0,0,2.23-.05,1.51,1.51,0,0,0,0-2.89,6.14,6.14,0,0,0-2-.17,1.54,1.54,0,0,0-1.5,1.5,1.5,1.5,0,0,0,1.5,1.5Z"/><path class="cls-6" d="M1275.13,104.1c-.16,3.21-.2,6.78,1.73,9.53s5.71,4.07,9,4.67c1.89.36,2.7-2.53.8-2.89-2.66-.5-6.07-1.37-7.54-3.88-1.27-2.18-1.06-5-.94-7.43.09-1.93-2.91-1.93-3,0Z"/><path class="cls-14" d="M1279.24,106.07a5.17,5.17,0,0,0,.78,4.78,4,4,0,0,0,4.51,1.33,1.54,1.54,0,0,0,1-1.85,1.52,1.52,0,0,0-1.85-1c-1.52.57-2-1.27-1.6-2.42.61-1.84-2.29-2.62-2.89-.8Z"/><path class="cls-14" d="M1274.29,104.44c.13,1.53-.44,3-.31,4.53a7,7,0,0,0,1.51,3.65c1.85,2.4,4.75,3.33,7.62,3.83,1.89.34,2.7-2.55.8-2.89-2.24-.4-4.85-1-6.22-3s-.22-4-.4-6.15c-.16-1.91-3.16-1.93-3,0Z"/><path class="cls-14" d="M1275.66,105.85a1.5,1.5,0,0,0,0-3,1.5,1.5,0,0,0,0,3Z"/><path class="cls-5" d="M1368.93,558.43c3-.08,6.16-.21,9.06.78s5.44,3.12,7.82,5.11c1.47,1.24,3.6-.88,2.12-2.12-2.49-2.09-5-4.24-8.1-5.48-3.48-1.41-7.21-1.39-10.9-1.29-1.93.05-1.94,3.05,0,3Z"/><path class="cls-5" d="M1307.48,557.16a18.82,18.82,0,0,1,14.29,7c1.24,1.49,3.35-.65,2.12-2.12a21.7,21.7,0,0,0-16.41-7.83c-1.93,0-1.93,3,0,3Z"/><line class="cls-15" x1="1328.58" y1="194.15" x2="1315.63" y2="212.08"/><line class="cls-16" x1="1350.65" y1="194.37" x2="1363.25" y2="211.99"/><path class="cls-14" d="M1321,62a24.51,24.51,0,0,1-4.8,20.3c-1.18,1.52,1.43,3,2.59,1.51a27.42,27.42,0,0,0,5.11-22.61c-.39-1.89-3.28-1.09-2.9.8Z"/><path class="cls-14" d="M1390.39,55.22c7,2.6,16.14,20.1,5.7,24.09-1.78.68-1,3.59.8,2.89,13.38-5.11,4.4-26.1-5.7-29.87-1.81-.68-2.59,2.22-.8,2.89Z"/><path class="cls-14" d="M1356.52,49.05c5.07-2.53,10.52,1.19,12.68,5.81s2,9.75,1.91,14.68c0,1.93,3,1.93,3,0,.13-6.73.14-14.62-4.75-19.88-3.74-4-9.33-5.71-14.35-3.2-1.73.86-.22,3.44,1.51,2.59Z"/><path class="cls-14" d="M1324.44,42.1c9.15-.13,9.19,11.24,8.82,17.62-.11,1.93,2.89,1.92,3,0,.48-8.22-.83-20.78-11.82-20.62-1.93,0-1.93,3,0,3Z"/><path class="cls-14" d="M1280.29,56.36a27.85,27.85,0,0,0-6.45,34.57c.93,1.7,3.52.19,2.59-1.51a24.87,24.87,0,0,1,6-30.94c1.49-1.23-.65-3.35-2.12-2.12Z"/><ellipse class="cls-6" cx="650.27" cy="344.42" rx="16.62" ry="16.56" transform="translate(-78.25 240.82) rotate(-19.81)"/><rect class="cls-6" x="662.71" y="331.88" width="8.49" height="22.16" rx="4.25" transform="translate(1381.07 113.86) rotate(135)"/><ellipse class="cls-17" cx="673.91" cy="345.11" rx="0.85" ry="2.98" transform="translate(-55.24 549.05) rotate(-42.74)"/><rect class="cls-6" x="646.74" y="357.58" width="22.93" height="7.67" rx="3.82" transform="translate(775.11 -380.33) rotate(70.19)"/><rect class="cls-6" x="653.74" y="354.58" width="22.93" height="7.67" rx="3.82" transform="translate(776.92 -388.9) rotate(70.19)"/><rect class="cls-6" x="639.46" y="357.5" width="22.93" height="7.67" rx="3.82" transform="translate(770.22 -373.54) rotate(70.19)"/><rect class="cls-6" x="632.45" y="354.62" width="20.38" height="7.67" rx="3.82" transform="translate(762.03 -367.65) rotate(70.19)"/><ellipse class="cls-17" cx="657.38" cy="360.37" rx="2.56" ry="3.4" transform="translate(-83.24 244.17) rotate(-19.81)"/><ellipse class="cls-17" cx="664.38" cy="357.37" rx="2.56" ry="3.4" transform="translate(-81.8 246.37) rotate(-19.81)"/><ellipse class="cls-17" cx="651.19" cy="360.79" rx="2.56" ry="3.4" transform="translate(-83.75 242.1) rotate(-19.81)"/><ellipse class="cls-17" cx="643.54" cy="358.43" rx="2.13" ry="2.83" transform="translate(-83.4 239.37) rotate(-19.81)"/><line class="cls-19" x1="661.37" y1="381.5" x2="660.56" y2="381.79"/><line class="cls-18" x1="660.84" y1="358.67" x2="664.87" y2="369.85"/><line class="cls-18" x1="653.27" y1="357.78" x2="657.3" y2="368.97"/><line class="cls-18" x1="644.84" y1="354.5" x2="648.87" y2="365.69"/><rect class="cls-5" x="627.13" y="330.37" width="27.75" height="5.77" transform="translate(-80.75 365.15) rotate(-30)"/><path d="M651.53,324l2.76,4.79-23.82,13.75-2.76-4.79L651.53,324m.09-.34-24.25,14,3,5.22,24.25-14-3-5.22Z"/></svg>