<svg id="Layer_1" data-name="Layer 1" xmlns="http://www.w3.org/2000/svg" width="1920" height="1080" viewBox="0 0 1920 1080"><defs><style>.cls-1{fill:#009245;}.cls-2{fill:#b3b3b3;}.cls-3{fill:#e6e6e6;}.cls-4{fill:#ccc;}</style></defs><title>start_baggrund_final</title><rect class="cls-1" x="-0.5" y="-1" width="1920" height="1080"/><rect class="cls-2" x="207.5" y="121" width="1452" height="881" rx="329.04"/><rect class="cls-3" x="233.5" y="101" width="1452" height="881" rx="329.04"/><path class="cls-3" d="M1764.5,1078.5A155.5,155.5,0,0,1,1920,923l-1,155.5Z"/><path class="cls-3" d="M155.5,1078.5A155.5,155.5,0,0,0,0,923l1,155.5Z"/><path class="cls-3" d="M155.5-.5A155.5,155.5,0,0,1,0,155L1-.5Z"/><path class="cls-3" d="M1764,0a155.5,155.5,0,0,0,155.5,155.5L1918.5,0Z"/><path class="cls-4" d="M437,861.45,595.5,962h-80c-35.84-3.28-83.37-35.19-115.16-52.06l-.84.06a283.65,283.65,0,0,1-84.14-68.67h0A268.4,268.4,0,0,1,260.77,733h0A467.72,467.72,0,0,1,247.5,622.4V533.67q0-15.17,1.08-30.31L257.5,378.5l36,215.07q2,11.92,5.1,23.62h0c26.9,127.31,48.31,176.2,104.9,222.31Z"/><path d="M460.05,176l35.77,45.11,34.46-35.62,35.77,98.4-35.19,28.76L515,265.17l-19.86,34.75-23.94-36.79L457,306.34l-34-22Z"/><path d="M649.12,252a45.27,45.27,0,0,1-1,18.76,42,42,0,0,1-7.74,15.33,43,43,0,0,1-13.28,10.95,51.21,51.21,0,0,1-17.74,5.62,54.42,54.42,0,0,1-18.69-.58,43.09,43.09,0,0,1-15.91-6.79,41.14,41.14,0,0,1-11.68-12.56,44.77,44.77,0,0,1-6-17.73,45.33,45.33,0,0,1,1-18.77,42.12,42.12,0,0,1,21-26.42,51.21,51.21,0,0,1,17.74-5.62,54,54,0,0,1,18.62.58,43.29,43.29,0,0,1,15.84,6.79A41.08,41.08,0,0,1,643,234.22,47.21,47.21,0,0,1,649.12,252ZM587.8,264.44a12.66,12.66,0,0,0,7.88,7.45q5.4,1.75,12.27-1.17,6.7-2.93,9.27-8a12.39,12.39,0,0,0,.22-10.73,13,13,0,0,0-7.89-7.37q-5.4-1.83-12.11,1.09-6.87,2.92-9.42,8A12.21,12.21,0,0,0,587.8,264.44Z"/><path d="M682.7,227.21h.58q4.82-6.57,9.86-8.9a25.84,25.84,0,0,1,11-2.34,25.15,25.15,0,0,1,10.8,2.19,22.1,22.1,0,0,1,7.89,6.13,27.88,27.88,0,0,1,4.89,9.2,37.2,37.2,0,0,1,1.68,11.39v56.5L697.88,304l.44-53.15a5.06,5.06,0,0,0-2-4.38,7.69,7.69,0,0,0-5-1.75,8.21,8.21,0,0,0-5,1.68A5.39,5.39,0,0,0,684,251l.59,52.71-31.1-2.19-1.17-83.08L682.7,216Z"/><path d="M817.75,291.45a62.23,62.23,0,0,1-18.25,9.27A73.7,73.7,0,0,1,778,303.57a47,47,0,0,1-18.17-3.43,44.85,44.85,0,0,1-14.24-9.27,42.16,42.16,0,0,1-9.34-13.65,41.49,41.49,0,0,1-3.36-16.57,51.72,51.72,0,0,1,3.5-19.57,43.66,43.66,0,0,1,9.49-14.6,40.47,40.47,0,0,1,14-9.12,45.75,45.75,0,0,1,17-3.14q14.6,0,25.33,7.44a45,45,0,0,1,16,19.86l-43.65,32.85a11.73,11.73,0,0,0,4.23,1.17,45.21,45.21,0,0,0,4.82.29,24.14,24.14,0,0,0,11.32-2.41,42.33,42.33,0,0,0,8.39-5.77ZM786.5,243.56a10.44,10.44,0,0,0-4.45-3.35,15.83,15.83,0,0,0-5.48-.88,11.39,11.39,0,0,0-5.32,1.24,13.27,13.27,0,0,0-4.17,3.36,16.11,16.11,0,0,0-2.7,4.74,15.93,15.93,0,0,0-1,5.41,13.24,13.24,0,0,0,.37,3.72,16.85,16.85,0,0,0,1,2.26Z"/><path d="M857.75,248.53l7.15-32.12L895,219,863.74,329.12l-33-2.63,12.55-34.31-27.44-71.83,31.82-3.94,9.79,32.12Z"/><path d="M941,188.08,984.91,182l-3.79,82.2,35.77-7.45,1.75,41L942,305.47Z"/><path d="M1067.84,292.33h-.29a20.72,20.72,0,0,1-10,7.74,38.19,38.19,0,0,1-13.07,2.19,29.5,29.5,0,0,1-11.1-2.12,27.16,27.16,0,0,1-9.19-6.06,29.22,29.22,0,0,1-6.28-9.49,31.63,31.63,0,0,1-2.34-12.41,25.8,25.8,0,0,1,2.34-11,27.53,27.53,0,0,1,6.35-8.76,29.24,29.24,0,0,1,9.49-5.84,32.72,32.72,0,0,1,11.9-2.12,28.79,28.79,0,0,1,11.31,2,35.68,35.68,0,0,1,7.81,4.45v-4.38q0-6.71-4.38-8.9T1049,235.39a52.09,52.09,0,0,0-12,1.31c-3.71.88-7.45,1.9-11.25,3.07l5.7-23.22a82.91,82.91,0,0,1,14.6-2.84,145.75,145.75,0,0,1,15.47-.81,58.79,58.79,0,0,1,14,1.68,33.69,33.69,0,0,1,12,5.48,27.3,27.3,0,0,1,8.25,9.78q3.08,6,2.92,14.75l-1.6,55.18-29.35,2.49Zm-18.54-27a16.07,16.07,0,0,0-8.18,3.43q-3.21,2.7-2.77,6.06a6.69,6.69,0,0,0,4.16,5q3.57,1.68,9.27.81t8.47-3.65a6.55,6.55,0,0,0,2.19-6q-.43-2.77-3.72-4.74T1049.3,265.32Z"/><path d="M1157.78,289.41h-.3q-2.91,8-9.12,11.39a30.18,30.18,0,0,1-14.53,3.35q-10.95,0-17.74-6.49t-6.79-18.91V217.43l32.56-2.63-.87,54q-.15,3.51,1.53,5t5.18,1.53a7.34,7.34,0,0,0,4.75-1.46c1.21-1,1.77-2.63,1.68-5l-.88-51.54,33.58-2.63-2.19,86.87-26.86,1.17Z"/><path d="M1225.66,227.21h.59q4.82-6.57,9.85-8.9a25.85,25.85,0,0,1,11-2.34,25.22,25.22,0,0,1,10.8,2.19,22.16,22.16,0,0,1,7.88,6.13,28.08,28.08,0,0,1,4.9,9.2,37.51,37.51,0,0,1,1.67,11.39v56.5L1240.85,304l.44-53.15a5.11,5.11,0,0,0-2-4.38,7.73,7.73,0,0,0-5-1.75,8.26,8.26,0,0,0-5,1.68A5.41,5.41,0,0,0,1227,251l.58,52.71-31.1-2.19-1.16-83.08,30.36-2.48Z"/><path d="M1365.38,301.23l-28.61,1.9v-8.32h-.29a19.73,19.73,0,0,1-9.57,6.79,36.77,36.77,0,0,1-12.19,2.12,35.86,35.86,0,0,1-14.38-3,37.61,37.61,0,0,1-12.34-8.61,41.6,41.6,0,0,1-8.61-13.8,50.41,50.41,0,0,1-3.21-18.54,56.19,56.19,0,0,1,2.7-17.59,44,44,0,0,1,7.81-14.46,36.46,36.46,0,0,1,12.63-9.78,39.52,39.52,0,0,1,17.15-3.58,35.49,35.49,0,0,1,9.35,1.24,19.87,19.87,0,0,1,7.88,4.17L1332.39,185l33.58-2.63Zm-40.44-28.9a16.38,16.38,0,0,0,5.4-3.14,15.59,15.59,0,0,0,3.44-4.38,12.58,12.58,0,0,0,1.38-5,12.9,12.9,0,0,0-.73-5.11,12.11,12.11,0,0,0-2.7-4.23,13.36,13.36,0,0,0-4.31-3,15.33,15.33,0,0,0-5.47-1.24,16.12,16.12,0,0,0-6.21,1,15.31,15.31,0,0,0-5.54,3.22,16.07,16.07,0,0,0-3.43,4.45,12.34,12.34,0,0,0-1.39,5.11,12.18,12.18,0,0,0,.73,5,11.22,11.22,0,0,0,2.7,4.3,14,14,0,0,0,4.31,2.92,14.26,14.26,0,0,0,5.47,1.17A18,18,0,0,0,1324.94,272.33Z"/><path d="M1408,215v16.2h.3q3.8-16.2,21.9-16.2a58.5,58.5,0,0,1,7.44.44l-7.59,31.09a16.69,16.69,0,0,0-2.19-.14H1425a15.27,15.27,0,0,0-10.58,4q-4.45,4-4.46,12.63V300.5l-30.66,2.63-.87-85.55Z"/><path d="M1475.17,248.53l7.16-32.12,30.08,2.63-31.25,110.08-33-2.63,12.55-34.31-27.45-71.83,31.83-3.94,9.78,32.12Z"/></svg>