<svg id="Layer_1" data-name="Layer 1" xmlns="http://www.w3.org/2000/svg" viewBox="0 0 130 142"><defs><style>.cls-1{fill:#ffd950;}.cls-2,.cls-3,.cls-6{fill:none;}.cls-2,.cls-5{stroke:#ff931e;}.cls-2,.cls-3,.cls-5{stroke-miterlimit:10;}.cls-2,.cls-3,.cls-5,.cls-6{stroke-width:2px;}.cls-3{stroke:#fbb03b;}.cls-3,.cls-5,.cls-6{stroke-linecap:round;}.cls-4,.cls-5{fill:#f7931e;}.cls-6{stroke:#f7931e;stroke-linejoin:round;}</style></defs><title>time</title><circle class="cls-1" cx="63.5" cy="77.5" r="61.5"/><circle class="cls-2" cx="63.71" cy="75.86" r="52.14"/><path class="cls-3" d="M67,123c-28.8,0-51-22.2-51-51"/><rect class="cls-1" x="55" y="3" width="16" height="16"/><rect class="cls-1" x="37" y="11" width="15" height="8" rx="4" transform="translate(42.63 61.92) rotate(-106.35)"/><rect class="cls-1" x="74" y="11" width="15" height="8" rx="4" transform="translate(43.65 88.72) rotate(-73.25)"/><circle class="cls-4" cx="64" cy="76" r="6"/><circle class="cls-1" cx="64" cy="76" r="3"/><line class="cls-5" x1="64" y1="42" x2="64" y2="71"/><polygon class="cls-6" points="64.17 35.9 66.08 38.95 68 42 64.17 42 60.33 42 62.25 38.95 64.17 35.9"/><line class="cls-5" x1="41.51" y1="74.41" x2="59" y2="75.52"/><polygon class="cls-6" points="37.84 74.08 39.75 73.04 41.66 72 41.52 74.31 41.37 76.62 39.6 75.35 37.84 74.08"/></svg>
