<svg id="Layer_1" data-name="Layer 1" xmlns="http://www.w3.org/2000/svg" viewBox="0 0 1165 250"><title>toerresnor</title><path d="M11.77,109.07c73.77,15.53,147,33.39,220.76,49.1,36,7.68,72.43,15.57,109.37,16.83,38,1.29,76,.21,114-1.89,19.4-1.08,39.08-.24,58.51-.12q28.7.18,57.39.51c38.63.41,77.26.86,115.9.81s77.43-.6,116.12-2.17c37.67-1.53,75.08-5.08,112.59-8.83A912,912,0,0,0,1127,116.24q12.88-4.55,25.63-9.51c7.11-2.77,4-14.38-3.2-11.57-66.83,26-136.75,42.71-207.61,53.19-18.32,2.71-36.87,4.08-55.31,5.75s-37,3.76-55.58,4.76c-38.33,2.06-76.71,3-115.09,3.31-76.53.64-153-1.17-229.58-1.29-38.09-.06-76.09,2.8-114.2,2.67-18.56-.07-37.29-.14-55.74-2.33s-36.94-5.67-55.24-9.35C188,137.18,115.76,118.61,42.82,103.31Q28.89,100.4,15,97.5c-7.54-1.58-10.76,10-3.19,11.57Z"/></svg>
