<svg id="Layer_1" data-name="Layer 1" xmlns="http://www.w3.org/2000/svg" width="500" height="100" viewBox="0 0 500 100"><defs><style>.cls-1{fill:none;}.cls-2{fill:#ff931e;}.cls-3{fill:#ffd950;}</style></defs><title>Toggle_sprite</title><rect class="cls-1" width="100" height="100"/><rect class="cls-1" x="100" width="100" height="100"/><rect class="cls-1" x="200" width="100" height="100"/><rect class="cls-1" x="300" width="100" height="100"/><rect class="cls-1" x="400" width="100" height="100"/><rect class="cls-2" x="13" y="37" width="73.72" height="25" rx="12"/><rect class="cls-3" x="16.61" y="41.01" width="27.24" height="17.23" rx="8.61"/><rect class="cls-2" x="113" y="37" width="73.72" height="25" rx="12"/><rect class="cls-3" x="124.35" y="41.01" width="27.24" height="17.23" rx="8.61"/><rect class="cls-2" x="213" y="37" width="73.72" height="25" rx="12"/><rect class="cls-2" x="313" y="37" width="73.72" height="25" rx="12"/><rect class="cls-2" x="413" y="37" width="73.72" height="25" rx="12"/><rect class="cls-3" x="236.35" y="41.01" width="27.24" height="17.23" rx="8.61"/><rect class="cls-3" x="347.35" y="41.01" width="27.24" height="17.23" rx="8.61"/><rect class="cls-3" x="456.35" y="41.01" width="27.24" height="17.23" rx="8.61"/><path d="M63.73,48.63a5,5,0,0,1-.11,2.06,4.57,4.57,0,0,1-.85,1.69,4.8,4.8,0,0,1-1.46,1.2,5.58,5.58,0,0,1-1.94.61,5.84,5.84,0,0,1-2-.06,4.67,4.67,0,0,1-1.75-.75A4.43,4.43,0,0,1,54.29,52a5.53,5.53,0,0,1-.56-4,4.72,4.72,0,0,1,.85-1.69A4.66,4.66,0,0,1,56,45.1a5.58,5.58,0,0,1,2-.62,6,6,0,0,1,2,.07,4.68,4.68,0,0,1,1.74.74,4.5,4.5,0,0,1,1.28,1.39A5.08,5.08,0,0,1,63.73,48.63ZM57,50a1.4,1.4,0,0,0,.86.81,1.86,1.86,0,0,0,1.35-.13,1.94,1.94,0,0,0,1-.87,1.39,1.39,0,0,0,0-1.18,1.45,1.45,0,0,0-.87-.81,1.86,1.86,0,0,0-1.33.12,2,2,0,0,0-1,.89A1.3,1.3,0,0,0,57,50Z"/><path d="M67.41,45.91h.07a2.93,2.93,0,0,1,1.08-1,2.86,2.86,0,0,1,1.21-.26,2.59,2.59,0,0,1,1.18.25,2.39,2.39,0,0,1,.87.67,3.25,3.25,0,0,1,.54,1,4.15,4.15,0,0,1,.18,1.25v6.2l-3.46.29,0-5.84a.55.55,0,0,0-.22-.48.87.87,0,0,0-.55-.19.84.84,0,0,0-.55.19.58.58,0,0,0-.25.5l.06,5.79-3.41-.24L64.08,45l3.33-.28Z"/><path d="M434.61,49.16a5,5,0,0,1-.1,2.06,4.58,4.58,0,0,1-2.31,2.88,5.38,5.38,0,0,1-1.95.62,5.85,5.85,0,0,1-2.05-.06,4.81,4.81,0,0,1-1.75-.75,4.46,4.46,0,0,1-1.28-1.38,5.43,5.43,0,0,1-.55-4,4.62,4.62,0,0,1,2.31-2.9,5.59,5.59,0,0,1,1.94-.62,6.08,6.08,0,0,1,2.05.06,4.72,4.72,0,0,1,1.73.75,4.53,4.53,0,0,1,1.29,1.39A5.18,5.18,0,0,1,434.61,49.16Zm-6.73,1.36a1.39,1.39,0,0,0,.86.82,1.86,1.86,0,0,0,1.35-.13,1.94,1.94,0,0,0,1-.87,1.39,1.39,0,0,0,0-1.18,1.43,1.43,0,0,0-.86-.81,1.85,1.85,0,0,0-1.33.12,2,2,0,0,0-1,.88A1.37,1.37,0,0,0,427.88,50.52Z"/><path d="M435.81,48.2h-1.1l.51-2.76h.59a5.18,5.18,0,0,1,.23-1.57,3,3,0,0,1,1.84-1.95,4.7,4.7,0,0,1,1.68-.27,2.43,2.43,0,0,1,.49,0l.46.07.41,2.66h-.54a1.13,1.13,0,0,0-.81.27,1,1,0,0,0-.28.75h1.38V48.2h-1.38l.09,6.35-3.58.28Z"/><path d="M442.48,48.2h-1.11l.51-2.76h.6a5.18,5.18,0,0,1,.22-1.57,3,3,0,0,1,1.84-1.95,4.79,4.79,0,0,1,1.69-.27,2.49,2.49,0,0,1,.49,0l.45.07.42,2.66H447a1.09,1.09,0,0,0-.8.27,1,1,0,0,0-.28.75h1.37V48.2H446l.09,6.35-3.59.28Z"/></svg>