<svg id="Layer_1" data-name="Layer 1" xmlns="http://www.w3.org/2000/svg" viewBox="0 0 1920 1080"><defs><style>.cls-1{opacity:0.51;}.cls-2{fill:#ff5eac;}.cls-18,.cls-19,.cls-3{fill:#fff;}.cls-14,.cls-4,.cls-6,.cls-8,.cls-9{fill:none;}.cls-10,.cls-11,.cls-14,.cls-4{stroke:#000;}.cls-10,.cls-11,.cls-14,.cls-18,.cls-19,.cls-4,.cls-6,.cls-8,.cls-9{stroke-miterlimit:10;}.cls-4{stroke-width:2px;opacity:0.49;}.cls-18,.cls-21,.cls-5,.cls-8,.cls-9{opacity:0.55;}.cls-6,.cls-8,.cls-9{stroke:#0027c9;}.cls-6,.cls-8{stroke-width:10px;}.cls-7{fill:#b3b3b3;}.cls-10,.cls-14,.cls-9{stroke-width:7px;}.cls-10,.cls-11{fill:#749fff;}.cls-10,.cls-11,.cls-12,.cls-14{opacity:0.38;}.cls-11{stroke-width:6px;}.cls-13{fill:gray;}.cls-15,.cls-17{fill:#ff1d25;}.cls-15,.cls-23{opacity:0.91;}.cls-16{fill:#ed1c24;}.cls-18{stroke:#fff;}.cls-19{stroke:#ccc;}.cls-20{fill:#ff931e;opacity:0.62;}.cls-21,.cls-22{fill:#0027c9;}.cls-24{fill:#e6e6e6;}.cls-25{fill:#ccc;}</style></defs><title>gameover_baggrund</title><path d="M1778,129a1.5,1.5,0,0,0,0-3,1.5,1.5,0,0,0,0,3Z"/><path d="M1234.41,108.93a1.5,1.5,0,0,0,0-3,1.5,1.5,0,0,0,0,3Z"/><g class="cls-1"><rect class="cls-2" x="6.5" y="413.24" width="1919" height="664.13"/></g><rect class="cls-3" x="4.5" y="627.64" width="1435" height="445.61"/><path d="M1438.5,628.64v443.61H5.5V628.64h1433m2-2H3.5v447.61h1437V626.64Z"/><polyline class="cls-4" points="1441.5 626.12 3.5 626.64 4.5 524.83"/><g class="cls-5"><line class="cls-6" x1="312.5" y1="626.64" x2="314.5" y2="1080.5"/></g><g class="cls-5"><polyline class="cls-6" points="1399.5 590.21 2.5 586.04 1.5 626.64 1440.5 626.64"/><polyline class="cls-7" points="1399.5 590.21 2.5 586.04 1.5 626.64 1440.5 626.64"/></g><line class="cls-8" x1="687.5" y1="626.64" x2="689.5" y2="1074.25"/><line class="cls-8" x1="1065.5" y1="626.64" x2="1063.5" y2="1074.25"/><line class="cls-9" x1="1395" y1="586.56" x2="1440.5" y2="626.64"/><line class="cls-8" x1="1440.5" y1="626.64" x2="1440.5" y2="1074.25"/><ellipse class="cls-10" cx="103.5" cy="850.45" rx="77.5" ry="80.67"/><ellipse class="cls-10" cx="497" cy="847.84" rx="77.5" ry="80.67"/><ellipse class="cls-10" cx="877" cy="849.93" rx="77.5" ry="80.67"/><ellipse class="cls-11" cx="1251" cy="847.84" rx="77.5" ry="80.67"/><g class="cls-12"><path d="M182.63,990.73a1.5,1.5,0,0,0,0-3,1.5,1.5,0,0,0,0,3Z"/></g><g class="cls-12"><path d="M124.3,990.73a1.5,1.5,0,0,0,0-3,1.5,1.5,0,0,0,0,3Z"/></g><g class="cls-12"><path d="M119.81,990.73a1.5,1.5,0,0,0,0-3,1.5,1.5,0,0,0,0,3Z"/></g><g class="cls-12"><path d="M119.81,990.73a1.5,1.5,0,0,0,0-3,1.5,1.5,0,0,0,0,3Z"/></g><rect class="cls-13" x="3.5" y="402.83" width="1920.5" height="14.57"/><ellipse class="cls-14" cx="103" cy="847.84" rx="102" ry="106.18"/><ellipse class="cls-14" cx="497" cy="850.97" rx="102" ry="106.18"/><ellipse class="cls-14" cx="877" cy="849.93" rx="102" ry="106.18"/><ellipse class="cls-14" cx="1251" cy="850.97" rx="102" ry="106.18"/><path class="cls-15" d="M1250.5,925.4c-40.87,0-74-34.49-74-77Z"/><path class="cls-16" d="M1239.77,892.36c-3.51-8.79-12.91-13.08-19.25-19.93-2.81-3-5-6.62-7.71-9.79a40.46,40.46,0,0,0-35.39-14l74.19,75.72a21.17,21.17,0,0,1-1.41-7.76,34.15,34.15,0,0,0,0-5.54,15.13,15.13,0,0,0-1-3.35,34.6,34.6,0,0,0-6.26-9.81c-1.37-1.49-3-3.28-2.56-5.29"/><path class="cls-17" d="M1241.07,891.6c-2.59-5.84-7.22-9.74-12.09-13.68-6.23-5-10.37-11-15.62-16.92a42.25,42.25,0,0,0-35.94-13.87,1.52,1.52,0,0,0-1.06,2.56l64.85,66.19,9.34,9.53a1.51,1.51,0,0,0,2.51-1.46c-1.89-5.51-.36-11.27-2.49-16.65a32,32,0,0,0-2.88-5.54c-1.63-2.56-5.84-6.3-5.88-9.16,0-1.93-3-1.94-3,0,.07,5.08,5.28,8.59,7.57,12.83,3.34,6.17,1.56,12.83,3.78,19.32l2.51-1.46-64.85-66.19-9.33-9.53-1.07,2.56c14.85-1.58,27.95,5.07,36.84,16.78a69.94,69.94,0,0,0,12,12.69c4.84,3.9,9.6,7.69,12.18,13.51.78,1.76,3.36.24,2.59-1.51Z"/><path class="cls-18" d="M1252,924.26c42,0,74-36,74-79.54l-33,12.49-35,25-15,15.61,6,7.29,3,7.28v11.88Z"/><rect class="cls-19" x="1353" y="239.92" width="204" height="81.2"/><rect class="cls-19" x="1626" y="2.58" width="204" height="81.2"/><rect class="cls-19" x="1072" y="58.79" width="204" height="81.2"/><rect class="cls-19" x="852" y="280.52" width="204" height="81.2"/><rect class="cls-19" x="537" y="43.18" width="204" height="81.2"/><rect class="cls-19" x="124" y="0.5" width="204" height="81.2"/><rect class="cls-19" x="148" y="258.66" width="204" height="81.2"/><path class="cls-20" d="M174.5,850.45c-.06,40.45-32,73.64-70.75,73.65C65.22,924.1,33.33,891.22,33,851l28.88,8.84a26.31,26.31,0,0,0,10.43,1L98,858.25,116.77,856a12.24,12.24,0,0,1,11.51,5.26h0a8.05,8.05,0,0,0,9.62,3l7.1-2.84Z"/><path class="cls-3" d="M823,807.81l-2.76,3.35a25,25,0,0,0-4.26,7.55l-2.37,6.7a55.24,55.24,0,0,0-3.15,18.39l.42,13.43a31.47,31.47,0,0,0,.57,5.12l2,10.53,0,.11c2.47,6.64,4.46,12.85,9.1,17.68l6.82,7.1.08.07,12.09,9a.65.65,0,0,0,1-.8l-15-36.2a.75.75,0,0,1,0-.26v-30a.28.28,0,0,1,0-.09L829.79,822a31.77,31.77,0,0,1,3.14-10.19l6.89-13.62a.66.66,0,0,0-.74-1h0A32.22,32.22,0,0,0,823,807.81Z"/><path class="cls-3" d="M444,807.81l-2.76,3.35a25,25,0,0,0-4.26,7.55l-2.37,6.7a55.24,55.24,0,0,0-3.15,18.39l.42,13.43a31.47,31.47,0,0,0,.57,5.12l2,10.53,0,.11c2.47,6.64,4.46,12.85,9.1,17.68l6.82,7.1.08.07,12.09,9a.65.65,0,0,0,1-.8l-15-36.2a.75.75,0,0,1-.05-.26v-30a.28.28,0,0,1,0-.09L450.79,822a31.77,31.77,0,0,1,3.14-10.19l6.89-13.62a.66.66,0,0,0-.74-1h0A32.22,32.22,0,0,0,444,807.81Z"/><rect class="cls-21" x="720.5" y="650.58" width="91" height="41.64" rx="12"/><rect class="cls-21" x="334.5" y="650.58" width="91" height="41.64" rx="12"/><rect class="cls-21" x="-33.5" y="651.62" width="91" height="41.64" rx="12"/><rect class="cls-21" x="1094.5" y="651.62" width="91" height="41.64" rx="12"/><g class="cls-5"><rect class="cls-22" x="1377.5" y="650.58" width="35" height="36.43" rx="12"/></g><g class="cls-5"><rect class="cls-22" x="1002.5" y="650.58" width="35" height="36.43" rx="12"/></g><g class="cls-5"><rect class="cls-22" x="621.5" y="653.7" width="35" height="36.43" rx="12"/></g><g class="cls-5"><rect class="cls-22" x="249.5" y="653.7" width="35" height="36.43" rx="12"/></g><g class="cls-23"><rect class="cls-24" x="235.5" y="97.5" width="1452" height="881" rx="329.04"/></g><path class="cls-16" d="M630.78,267.51a13.61,13.61,0,0,0-6.5-7.23,21.89,21.89,0,0,0-10-2.26A30.16,30.16,0,0,0,603,260.36a36.7,36.7,0,0,0-10.66,6.57,34.66,34.66,0,0,0-8,10.36,30.06,30.06,0,0,0-3.14,13.87q-.15,7.15,2.26,11.46a14.71,14.71,0,0,0,6.14,6.21,16.14,16.14,0,0,0,8.25,1.68,24.6,24.6,0,0,0,8.9-2.19,30,30,0,0,0,8-5.26,21.12,21.12,0,0,0,5.33-7.52l-20.74,3.95L601.72,276l63.66-8a48.76,48.76,0,0,1-.81,18.18,74.68,74.68,0,0,1-5.84,16.42,108.51,108.51,0,0,1-7.81,13.36,100.65,100.65,0,0,1-6.79,9q-2.7,3.06-3,3.36a52.22,52.22,0,0,1-12.77,9.2,69.24,69.24,0,0,1-16.14,6,70,70,0,0,1-17.81,1.83A55.32,55.32,0,0,1,576.9,342a48.29,48.29,0,0,1-15.4-9.12A45,45,0,0,1,550,317a63,63,0,0,1-5.7-21.83,68.73,68.73,0,0,1,1.76-21A68,68,0,0,1,554.05,255a76.8,76.8,0,0,1,13.14-16.28,80.54,80.54,0,0,1,17.16-12.34,73.44,73.44,0,0,1,20-7.3c.19,0,1.24-.12,3.14-.37a49.9,49.9,0,0,1,8.25-.07,59.07,59.07,0,0,1,12.12,2.12,68.7,68.7,0,0,1,14.6,6.13,71.72,71.72,0,0,1,15.62,11.9Z"/><path class="cls-16" d="M715,330h-.3a20.68,20.68,0,0,1-10,7.74,38.13,38.13,0,0,1-13.06,2.19,29.43,29.43,0,0,1-11.1-2.12,27.3,27.3,0,0,1-9.2-6.06,29.38,29.38,0,0,1-6.28-9.49,31.81,31.81,0,0,1-2.33-12.41,26,26,0,0,1,2.33-11,27.84,27.84,0,0,1,6.35-8.76,29.41,29.41,0,0,1,9.49-5.84,32.76,32.76,0,0,1,11.9-2.12,28.84,28.84,0,0,1,11.32,2,35.69,35.69,0,0,1,7.81,4.46v-4.38q0-6.72-4.38-8.91t-11.39-2.19a52.21,52.21,0,0,0-12,1.31q-5.55,1.32-11.24,3.07l5.69-23.22a83.09,83.09,0,0,1,14.6-2.84,145.82,145.82,0,0,1,15.48-.8,59.15,59.15,0,0,1,14,1.67,33.91,33.91,0,0,1,12,5.48,27.5,27.5,0,0,1,8.25,9.78q3.06,6,2.92,14.75l-1.61,55.19L715,339.93Zm-18.55-27a16,16,0,0,0-8.17,3.43q-3.21,2.7-2.78,6.06a6.74,6.74,0,0,0,4.16,5c2.39,1.12,5.48,1.38,9.28.8s6.61-1.8,8.46-3.65a6.54,6.54,0,0,0,2.19-6c-.29-1.84-1.53-3.43-3.72-4.74S700.56,302.31,696.47,303Z"/><path class="cls-16" d="M847.58,288a5.67,5.67,0,0,0-2-4.52,8,8,0,0,0-5.4-1.76,7.22,7.22,0,0,0-5.55,2.19,6.6,6.6,0,0,0-2.05,4.53l.88,49.93L801.74,341l.58-52.71a5.49,5.49,0,0,0-2-4.74,9.13,9.13,0,0,0-10.88-.07,5.43,5.43,0,0,0-2.26,5l1.46,52.71-30.66-2.63-1.75-83.08L786,252.77V266.2h.29a37.51,37.51,0,0,1,10.59-9.86,27,27,0,0,1,14.23-3.57,27.38,27.38,0,0,1,11.46,2.11,24.21,24.21,0,0,1,8.4,6.65,31.42,31.42,0,0,1,8.61-6.36,23.61,23.61,0,0,1,10.66-2.4A28.07,28.07,0,0,1,861.82,255a23.5,23.5,0,0,1,8.47,6.35,29.15,29.15,0,0,1,5.25,9.56,39.58,39.58,0,0,1,2,11.76l.88,55.62L846.71,341Z"/><path class="cls-16" d="M965.4,329.12a61.75,61.75,0,0,1-18.25,9.27,73.62,73.62,0,0,1-21.46,2.85,46.84,46.84,0,0,1-18.18-3.43,44.8,44.8,0,0,1-14.23-9.27,42.09,42.09,0,0,1-12.7-30.22,51.72,51.72,0,0,1,3.5-19.57,43.76,43.76,0,0,1,9.49-14.6A40.52,40.52,0,0,1,907.51,255a46,46,0,0,1,17-3.14q14.61,0,25.33,7.45a44.88,44.88,0,0,1,16,19.85L922.19,312a11.53,11.53,0,0,0,4.23,1.17,42.59,42.59,0,0,0,4.82.29,24.1,24.1,0,0,0,11.31-2.41,41.66,41.66,0,0,0,8.4-5.76Zm-31.24-47.88a10.51,10.51,0,0,0-4.45-3.36,15.83,15.83,0,0,0-5.48-.88,11.56,11.56,0,0,0-5.33,1.24,13.35,13.35,0,0,0-4.16,3.36,15.61,15.61,0,0,0-2.7,4.75,15.83,15.83,0,0,0-.95,5.4,12.87,12.87,0,0,0,.37,3.72,16.33,16.33,0,0,0,.95,2.26Z"/><path class="cls-16" d="M1100.45,289.7a45.27,45.27,0,0,1-1,18.76,41.89,41.89,0,0,1-7.74,15.33,42.91,42.91,0,0,1-13.28,10.95,51.22,51.22,0,0,1-17.74,5.63,54.66,54.66,0,0,1-18.69-.59,43.09,43.09,0,0,1-15.91-6.79,41.11,41.11,0,0,1-11.68-12.55,44.81,44.81,0,0,1-6-17.74,45.27,45.27,0,0,1,.95-18.76,42.1,42.1,0,0,1,21-26.43,51.42,51.42,0,0,1,17.74-5.62,54,54,0,0,1,18.62.58,43.29,43.29,0,0,1,15.84,6.79,41.08,41.08,0,0,1,11.68,12.63A47.21,47.21,0,0,1,1100.45,289.7Zm-61.32,12.41a12.66,12.66,0,0,0,7.88,7.45q5.4,1.76,12.27-1.17,6.71-2.91,9.27-8a12.39,12.39,0,0,0,.22-10.73,13,13,0,0,0-7.89-7.37q-5.4-1.83-12.11,1.1-6.87,2.91-9.42,8A12.19,12.19,0,0,0,1039.13,302.11Z"/><path class="cls-16" d="M1127.75,251.89l8.32,57.67h.29l9.64-57.67,31.68,2.48-20.15,84.24-42,2.49-19.13-86.73Z"/><path class="cls-16" d="M1257.69,329.12a61.87,61.87,0,0,1-18.25,9.27,73.67,73.67,0,0,1-21.46,2.85,46.84,46.84,0,0,1-18.18-3.43,44.85,44.85,0,0,1-14.24-9.27,42.05,42.05,0,0,1-9.34-13.65,41.49,41.49,0,0,1-3.36-16.57,51.53,51.53,0,0,1,3.51-19.57,43.45,43.45,0,0,1,9.49-14.6A40.43,40.43,0,0,1,1199.8,255a46,46,0,0,1,17-3.14q14.6,0,25.33,7.45a45,45,0,0,1,16,19.85L1214.47,312a11.53,11.53,0,0,0,4.24,1.17,42.43,42.43,0,0,0,4.81.29,24.14,24.14,0,0,0,11.32-2.41,41.87,41.87,0,0,0,8.39-5.76Zm-31.25-47.88a10.39,10.39,0,0,0-4.45-3.36,15.81,15.81,0,0,0-5.47-.88,11.53,11.53,0,0,0-5.33,1.24,13.12,13.12,0,0,0-4.16,3.36,16,16,0,0,0-3.65,10.15,13.33,13.33,0,0,0,.36,3.72,16.33,16.33,0,0,0,1,2.26Z"/><path class="cls-16" d="M1291.56,252.62v16.21h.29q3.8-16.22,21.9-16.21a60.57,60.57,0,0,1,7.45.44l-7.6,31.1a15.07,15.07,0,0,0-2.19-.15h-2.92a15.31,15.31,0,0,0-10.58,4q-4.46,4-4.45,12.63v37.53l-30.66,2.62-.88-85.55Z"/><path class="cls-16" d="M1324.85,335.4l1-12.41,15.33.88-2.92,15.33Z"/><path class="cls-16" d="M1356.82,335.4l1-12.41,15.33.88-2.92,15.33Z"/><path class="cls-16" d="M1388.79,335.4l1-12.41,15.33.88-2.92,15.33Z"/><path class="cls-25" d="M447,860,605.5,960.5h-80c-35.84-3.28-83.37-35.19-115.16-52.06l-.84.06a283.65,283.65,0,0,1-84.14-68.67h0A268.4,268.4,0,0,1,270.77,731.5h0A467.72,467.72,0,0,1,257.5,620.9V532.17q0-15.17,1.08-30.31L267.5,377l36,215.07q2,11.92,5.1,23.62h0C335.5,743,356.91,791.89,413.5,838Z"/><path d="M536,423.84l44.95,68.35L553,502.78l-7.48-12.46-18.69.62-3.65,13.35-26.78-8.72Zm-4.54,53L542,474.92l-4.45-12.1Z"/><path d="M634.67,469.85a3.47,3.47,0,0,0-1.25-2.76,4.88,4.88,0,0,0-3.29-1.07,4.41,4.41,0,0,0-3.38,1.34,4,4,0,0,0-1.25,2.76l.54,30.43-19.32,1.61.36-32.13a3.37,3.37,0,0,0-1.25-2.9,5.24,5.24,0,0,0-3.47-1.11,5.3,5.3,0,0,0-3.16,1.07,3.31,3.31,0,0,0-1.38,3l.89,32.12L580,500.64,579,450l18.15-1.6v8.19h.18a23,23,0,0,1,6.45-6,16.52,16.52,0,0,1,8.68-2.18,16.72,16.72,0,0,1,7,1.29,14.72,14.72,0,0,1,5.11,4.05,19.29,19.29,0,0,1,5.26-3.87,14.27,14.27,0,0,1,6.49-1.47,17.13,17.13,0,0,1,7.08,1.38,14.3,14.3,0,0,1,5.16,3.87,17.72,17.72,0,0,1,3.2,5.83,24.08,24.08,0,0,1,1.21,7.16l.53,33.91-19.31,1.61Z"/><path d="M711.21,470.92a27.62,27.62,0,0,1-.58,11.43,25.72,25.72,0,0,1-4.72,9.35,26.18,26.18,0,0,1-8.09,6.67A31.22,31.22,0,0,1,687,501.8a33.27,33.27,0,0,1-11.39-.36,26.29,26.29,0,0,1-9.7-4.14,25,25,0,0,1-7.12-7.65,27.2,27.2,0,0,1-3.65-10.81,27.66,27.66,0,0,1,.58-11.44,25.71,25.71,0,0,1,12.81-16.11,31.21,31.21,0,0,1,10.82-3.42,32.78,32.78,0,0,1,11.35.35,26.34,26.34,0,0,1,9.65,4.14,25,25,0,0,1,7.12,7.7A28.61,28.61,0,0,1,711.21,470.92Zm-37.38,7.56a7.7,7.7,0,0,0,4.81,4.54,10.52,10.52,0,0,0,7.47-.71,10.82,10.82,0,0,0,5.65-4.85,7.52,7.52,0,0,0,.14-6.54,7.91,7.91,0,0,0-4.81-4.5,10.1,10.1,0,0,0-7.39.67A10.78,10.78,0,0,0,674,472,7.44,7.44,0,0,0,673.83,478.48Z"/><path d="M742.89,493.7h-.18a12.19,12.19,0,0,1-5.56,6.94,18.25,18.25,0,0,1-8.85,2.05,15,15,0,0,1-10.82-4q-4.14-4-4.14-11.53V449.82l19.85-1.6-.53,32.93a3.76,3.76,0,0,0,.93,3.07,4.54,4.54,0,0,0,3.16.94,4.49,4.49,0,0,0,2.89-.89,3.46,3.46,0,0,0,1-3l-.54-31.42,20.47-1.6-1.33,53-16.38.71Z"/><path d="M784.28,455.79h.35a16.45,16.45,0,0,1,6-5.43,15.79,15.79,0,0,1,6.72-1.43,15.39,15.39,0,0,1,6.59,1.34,13.44,13.44,0,0,1,4.8,3.74,16.8,16.8,0,0,1,3,5.6,22.5,22.5,0,0,1,1,6.95V501l-19.23,1.6.27-32.39a3.08,3.08,0,0,0-1.2-2.67,4.63,4.63,0,0,0-3.07-1.07,5,5,0,0,0-3.07,1,3.3,3.3,0,0,0-1.38,2.8l.35,32.13-18.95-1.33-.71-50.64,18.51-1.52Z"/><path d="M842.44,502.38c-.86,0-1.8,0-2.81,0q-8.53,0-13.3-3.87T821.57,486V464.87l-4.9.08.54-15.39h4.18v-5.88L840.7,435v14.6l7.21-1.07-1,16.38h-6v15.57c0,1.78.25,3,.76,3.56s1.64.89,3.42.89a15.51,15.51,0,0,0,1.87-.09,8.82,8.82,0,0,0,1.34-.27l-3.12,17.63C844.2,502.27,843.3,502.35,842.44,502.38Z"/><path d="M849.51,498.77l.54-7.56,9.34.53-1.78,9.35ZM853,468.16l.63-8.37,10.32.62-2,10.33Z"/><path d="M930.41,467.57a24.24,24.24,0,0,1,8.55,7.79,21.25,21.25,0,0,1,3.2,8.46,24,24,0,0,1-.18,7.78,27.1,27.1,0,0,1-1.6,5.65c-.59,1.34-.92,2.07-1,2.18a26.08,26.08,0,0,1-5,5.57,26.69,26.69,0,0,1-6.86,3.74,25.7,25.7,0,0,1-10.23,1.42,48.44,48.44,0,0,1-14-3,82.39,82.39,0,0,1-18-9.56l13.08-18.69A47.59,47.59,0,0,0,908.79,485a16.67,16.67,0,0,0,6.23,1.34,5.55,5.55,0,0,0,3.82-1.83,8,8,0,0,1,.36-1,4.89,4.89,0,0,0,.18-2.36,4.5,4.5,0,0,0-1.47-2.67,9.21,9.21,0,0,0-4.49-1.91,31.53,31.53,0,0,0-8.9-.14l1-15.22q6.06.54,8.59-.31t3.12-2.13c.38-.86.22-2-.49-3.52a7,7,0,0,0-4.14-2,17.42,17.42,0,0,0-6.14.89,35.54,35.54,0,0,0-9.66,5.12L888.05,443a53.86,53.86,0,0,1,16.2-8.23,38.75,38.75,0,0,1,13.08-1.69,29.67,29.67,0,0,1,9.66,2.13,26.54,26.54,0,0,1,6,3.29c1.28,1,2,1.62,2.09,1.74s.51.61,1.34,1.65a21.13,21.13,0,0,1,2.53,4.4,16.78,16.78,0,0,1,1.43,6.32,14.17,14.17,0,0,1-2.05,7.39Q936.12,463.93,930.41,467.57Z"/><path d="M972.15,459.3a28.27,28.27,0,0,1,9.88,2.58,22,22,0,0,1,7.66,5.87,15.44,15.44,0,0,1,3.47,9.08v2a24.53,24.53,0,0,1-.67,4.89,33.83,33.83,0,0,1-2.27,6.68,27.89,27.89,0,0,1-4.76,7.07,29.38,29.38,0,0,1-8.19,6.19,42.78,42.78,0,0,1-12.59,4,72.29,72.29,0,0,1-17.89.54l-4-20.83a40.36,40.36,0,0,0,11.71,1.11,20,20,0,0,0,7.56-1.87,14,14,0,0,0,4.36-3.33,11.11,11.11,0,0,0,2-3.16c.29-.86.44-1.32.44-1.38a2.8,2.8,0,0,0-.67-2.72,6.3,6.3,0,0,0-2.93-1.51,19.32,19.32,0,0,0-4.45-.53,40.31,40.31,0,0,0-5.21.26,37.24,37.24,0,0,0-5.34,1,33.71,33.71,0,0,0-4.72,1.6l3-38.36,42.27-2.05.45,17.71-27.06-.26L962,460.19A28.6,28.6,0,0,1,972.15,459.3Z"/><path d="M1043.8,499.08a27.81,27.81,0,0,1-6,5.78,29.75,29.75,0,0,1-7.79,4.05,30.19,30.19,0,0,1-8.77,1.65,24.23,24.23,0,0,1-8.85-1.29,22.82,22.82,0,0,1-8-4.81,27,27,0,0,1-6.28-8.94A45.43,45.43,0,0,1,994.4,483a44.47,44.47,0,0,1,8.68-33.33,43.31,43.31,0,0,1,7.83-7.83,36.18,36.18,0,0,1,9.48-5.25,21.41,21.41,0,0,1,9.21-1.56,23.26,23.26,0,0,1,8,1.92,22.07,22.07,0,0,1,6.23,4.14,19,19,0,0,1,4,5.2,51.1,51.1,0,0,1,4.14,11.35,50.2,50.2,0,0,1,1.38,13.31,52.67,52.67,0,0,1-2.4,14.15A48,48,0,0,1,1043.8,499.08Zm-12.55-36.22q-1.7-3.92-4.67-4.41a7.25,7.25,0,0,0-5.83,1.78,17.35,17.35,0,0,0-4.85,7,24.69,24.69,0,0,0-1.56,11.35c.24,4.09,1,7,2.4,8.77a5.85,5.85,0,0,0,4.63,2.62,8.06,8.06,0,0,0,5.21-2.13,13.66,13.66,0,0,0,3.87-5.52,36.8,36.8,0,0,0,1.87-6.37,27,27,0,0,0,.49-5.29,22,22,0,0,0-.49-4.36A22.69,22.69,0,0,0,1031.25,462.86Z"/><path d="M1057.06,505.4l.62-7.57,9.35.54-1.78,9.34Z"/><path d="M1123.45,499.08a27.81,27.81,0,0,1-6,5.78,29.6,29.6,0,0,1-7.79,4.05,30.19,30.19,0,0,1-8.76,1.65,24.28,24.28,0,0,1-8.86-1.29,22.82,22.82,0,0,1-8-4.81,27.24,27.24,0,0,1-6.28-8.94,45.4,45.4,0,0,1-3.73-12.51,43.72,43.72,0,0,1-.09-12.19,44.67,44.67,0,0,1,8.76-21.14,43,43,0,0,1,7.84-7.83,36,36,0,0,1,9.47-5.25,21.43,21.43,0,0,1,9.22-1.56,23.26,23.26,0,0,1,8,1.92,22.07,22.07,0,0,1,6.23,4.14,19,19,0,0,1,4,5.2A51.79,51.79,0,0,1,1133,471a52.69,52.69,0,0,1-2.41,14.15A48,48,0,0,1,1123.45,499.08Zm-12.55-36.22q-1.68-3.92-4.67-4.41a7.25,7.25,0,0,0-5.83,1.78,17.44,17.44,0,0,0-4.85,7,25,25,0,0,0-1.56,11.35c.24,4.09,1,7,2.41,8.77A5.82,5.82,0,0,0,1101,490a8.06,8.06,0,0,0,5.21-2.13,13.66,13.66,0,0,0,3.87-5.52A35.93,35.93,0,0,0,1112,476a26.22,26.22,0,0,0,.49-5.29,21.27,21.27,0,0,0-.49-4.36A21.62,21.62,0,0,0,1110.9,462.86Z"/><path d="M1183.62,499.08a28.1,28.1,0,0,1-6,5.78,29.69,29.69,0,0,1-7.78,4.05,30.26,30.26,0,0,1-8.77,1.65,24.28,24.28,0,0,1-8.86-1.29,22.82,22.82,0,0,1-8-4.81,27.07,27.07,0,0,1-6.27-8.94,45.09,45.09,0,0,1-3.74-12.51,44,44,0,0,1,3-23.49,43.91,43.91,0,0,1,5.7-9.84,42.68,42.68,0,0,1,7.83-7.83,36.18,36.18,0,0,1,9.48-5.25,21.36,21.36,0,0,1,9.21-1.56,23.32,23.32,0,0,1,8,1.92,22.21,22.21,0,0,1,6.23,4.14,19,19,0,0,1,4,5.2,51.1,51.1,0,0,1,4.14,11.35,50.2,50.2,0,0,1,1.38,13.31,52.67,52.67,0,0,1-2.4,14.15A48.25,48.25,0,0,1,1183.62,499.08Zm-12.55-36.22q-1.69-3.92-4.68-4.41a7.26,7.26,0,0,0-5.83,1.78,17.54,17.54,0,0,0-4.85,7,24.83,24.83,0,0,0-1.55,11.35c.23,4.09,1,7,2.4,8.77a5.84,5.84,0,0,0,4.63,2.62,8,8,0,0,0,5.2-2.13,13.68,13.68,0,0,0,3.88-5.52,35.84,35.84,0,0,0,1.86-6.37,26.22,26.22,0,0,0,.49-5.29,21.27,21.27,0,0,0-.49-4.36A21.66,21.66,0,0,0,1171.07,462.86Z"/><path d="M1243.78,499.08a27.81,27.81,0,0,1-6,5.78,29.75,29.75,0,0,1-7.79,4.05,30.19,30.19,0,0,1-8.77,1.65,24.23,24.23,0,0,1-8.85-1.29,22.82,22.82,0,0,1-8-4.81,27,27,0,0,1-6.28-8.94,45.43,45.43,0,0,1-3.74-12.51,44.47,44.47,0,0,1,8.68-33.33,43,43,0,0,1,7.83-7.83,36.18,36.18,0,0,1,9.48-5.25,21.41,21.41,0,0,1,9.21-1.56,23.32,23.32,0,0,1,8,1.92,22.07,22.07,0,0,1,6.23,4.14,19,19,0,0,1,4,5.2,51.1,51.1,0,0,1,4.14,11.35A50.2,50.2,0,0,1,1253.3,471a52.67,52.67,0,0,1-2.4,14.15A48,48,0,0,1,1243.78,499.08Zm-12.55-36.22q-1.7-3.92-4.67-4.41a7.25,7.25,0,0,0-5.83,1.78,17.35,17.35,0,0,0-4.85,7,24.69,24.69,0,0,0-1.56,11.35c.24,4.09,1,7,2.4,8.77a5.85,5.85,0,0,0,4.63,2.62,8.06,8.06,0,0,0,5.21-2.13,13.66,13.66,0,0,0,3.87-5.52,36.8,36.8,0,0,0,1.87-6.37,27,27,0,0,0,.49-5.29,22,22,0,0,0-.49-4.36A22.69,22.69,0,0,0,1231.23,462.86Z"/><path d="M1257,505.4l.62-7.57,9.35.54-1.78,9.34Z"/><path d="M1323.43,499.08a27.81,27.81,0,0,1-6,5.78,29.75,29.75,0,0,1-7.79,4.05,30.19,30.19,0,0,1-8.76,1.65,24.28,24.28,0,0,1-8.86-1.29,22.82,22.82,0,0,1-8-4.81,27.24,27.24,0,0,1-6.28-8.94A45.4,45.4,0,0,1,1274,483a44,44,0,0,1,3-23.49,44.26,44.26,0,0,1,5.69-9.84,43,43,0,0,1,7.84-7.83,36,36,0,0,1,9.47-5.25,21.43,21.43,0,0,1,9.22-1.56,23.26,23.26,0,0,1,8,1.92,22.07,22.07,0,0,1,6.23,4.14,19,19,0,0,1,4,5.2A51.79,51.79,0,0,1,1333,471a53.09,53.09,0,0,1-2.41,14.15A48,48,0,0,1,1323.43,499.08Zm-12.55-36.22c-1.13-2.61-2.68-4.08-4.67-4.41a7.25,7.25,0,0,0-5.83,1.78,17.44,17.44,0,0,0-4.85,7,24.82,24.82,0,0,0-1.56,11.35c.24,4.09,1,7,2.41,8.77A5.82,5.82,0,0,0,1301,490a8.06,8.06,0,0,0,5.21-2.13,13.66,13.66,0,0,0,3.87-5.52A36.8,36.8,0,0,0,1312,476a26.22,26.22,0,0,0,.49-5.29,21.27,21.27,0,0,0-.49-4.36A21.62,21.62,0,0,0,1310.88,462.86Z"/><path d="M1383.59,499.08a27.81,27.81,0,0,1-6,5.78,29.6,29.6,0,0,1-7.79,4.05,30.13,30.13,0,0,1-8.76,1.65,24.28,24.28,0,0,1-8.86-1.29,22.82,22.82,0,0,1-8-4.81,27.07,27.07,0,0,1-6.27-8.94A45.09,45.09,0,0,1,1334.2,483a44,44,0,0,1,3-23.49,43.91,43.91,0,0,1,5.7-9.84,42.68,42.68,0,0,1,7.83-7.83,36.18,36.18,0,0,1,9.48-5.25,21.36,21.36,0,0,1,9.21-1.56,23.32,23.32,0,0,1,8,1.92,22,22,0,0,1,6.22,4.14,18.81,18.81,0,0,1,4,5.2,51.1,51.1,0,0,1,4.14,11.35,50.2,50.2,0,0,1,1.38,13.31,52.3,52.3,0,0,1-2.41,14.15A47.76,47.76,0,0,1,1383.59,499.08Zm-12.54-36.22q-1.69-3.92-4.68-4.41a7.25,7.25,0,0,0-5.83,1.78,17.44,17.44,0,0,0-4.85,7,24.83,24.83,0,0,0-1.55,11.35c.23,4.09,1,7,2.4,8.77a5.84,5.84,0,0,0,4.63,2.62,8,8,0,0,0,5.2-2.13,13.78,13.78,0,0,0,3.88-5.52,36.7,36.7,0,0,0,1.86-6.37,26.22,26.22,0,0,0,.49-5.29,21.27,21.27,0,0,0-.49-4.36A21.66,21.66,0,0,0,1371.05,462.86Z"/><path d="M1443.76,499.08a27.64,27.64,0,0,1-6,5.78,29.54,29.54,0,0,1-7.78,4.05,30.19,30.19,0,0,1-8.77,1.65,24.19,24.19,0,0,1-8.85-1.29,22.82,22.82,0,0,1-8-4.81,27,27,0,0,1-6.28-8.94,45.43,45.43,0,0,1-3.74-12.51,44.34,44.34,0,0,1,8.68-33.33,43,43,0,0,1,7.83-7.83,36.18,36.18,0,0,1,9.48-5.25,21.36,21.36,0,0,1,9.21-1.56,23.32,23.32,0,0,1,8,1.92,22.07,22.07,0,0,1,6.23,4.14,19,19,0,0,1,4,5.2,51.1,51.1,0,0,1,4.14,11.35,50.2,50.2,0,0,1,1.38,13.31,52.67,52.67,0,0,1-2.4,14.15A48.25,48.25,0,0,1,1443.76,499.08Zm-12.55-36.22q-1.7-3.92-4.67-4.41a7.25,7.25,0,0,0-5.83,1.78,17.35,17.35,0,0,0-4.85,7,24.69,24.69,0,0,0-1.56,11.35c.24,4.09,1,7,2.4,8.77a5.85,5.85,0,0,0,4.63,2.62,8.06,8.06,0,0,0,5.21-2.13,13.66,13.66,0,0,0,3.87-5.52,36.8,36.8,0,0,0,1.87-6.37,27,27,0,0,0,.49-5.29,22,22,0,0,0-.49-4.36A22.69,22.69,0,0,0,1431.21,462.86Z"/></svg>