<svg id="Layer_1" data-name="Layer 1" xmlns="http://www.w3.org/2000/svg" viewBox="0 0 450 430"><defs><style>.cls-1{fill:#e6e6e6;}.cls-2,.cls-3,.cls-4{fill:#ffd950;}.cls-2,.cls-3,.cls-4,.cls-7,.cls-8{stroke:#ff931e;}.cls-2,.cls-3,.cls-4,.cls-5,.cls-7{stroke-miterlimit:10;}.cls-2{stroke-width:2px;}.cls-3,.cls-5{stroke-width:6px;}.cls-4{stroke-width:4px;}.cls-5,.cls-7{fill:none;}.cls-5{stroke:#fff;}.cls-5,.cls-8{stroke-linecap:round;}.cls-6,.cls-8{fill:#ff931e;}.cls-7{stroke-width:5px;}.cls-8{stroke-linejoin:round;stroke-width:17px;}.cls-9{fill:#fbb03b;}</style></defs><title>play</title><ellipse class="cls-1" cx="170.83" cy="371.91" rx="120.33" ry="17.09"/><circle class="cls-2" cx="236.47" cy="210.15" r="171.01"/><circle class="cls-3" cx="249.62" cy="204.01" r="171.01"/><circle class="cls-4" cx="249.03" cy="203.61" r="155.49"/><path class="cls-5" d="M198.22,340.77a147.21,147.21,0,0,1-86-189.56"/><path class="cls-6" d="M96.82,119.43a1.5,1.5,0,0,0,0-3,1.5,1.5,0,0,0,0,3Z"/><path class="cls-6" d="M99.33,119.93a1.5,1.5,0,0,0,0-3,1.5,1.5,0,0,0,0,3Z"/><path class="cls-6" d="M94.85,119.68a43.5,43.5,0,0,0,5.1-.31,1.55,1.55,0,0,0,1.5-1.5,1.5,1.5,0,0,0-1.5-1.5,43.5,43.5,0,0,1-5.1.31,1.5,1.5,0,0,0,0,3Z"/><path class="cls-6" d="M84.64,135.75H92.3a1.5,1.5,0,0,0,0-3H84.64a1.5,1.5,0,0,0,0,3Z"/><path class="cls-6" d="M73.92,264.56a32,32,0,0,0,10.73-2.08c1.79-.68,1-3.58-.8-2.89a29.59,29.59,0,0,1-9.93,2c-1.92.05-1.93,3.05,0,3Z"/><path class="cls-6" d="M70.92,252.56a32,32,0,0,0,10.73-2.08c1.79-.68,1-3.58-.8-2.89a29.59,29.59,0,0,1-9.93,2c-1.92.05-1.93,3.05,0,3Z"/><path class="cls-6" d="M68.92,239.56a32,32,0,0,0,10.73-2.08c1.79-.68,1-3.58-.8-2.89a29.59,29.59,0,0,1-9.93,2c-1.92.05-1.93,3.05,0,3Z"/><path class="cls-6" d="M80.92,278.56a32,32,0,0,0,10.73-2.08c1.79-.68,1-3.58-.8-2.89a29.59,29.59,0,0,1-9.93,2c-1.92.05-1.93,3.05,0,3Z"/><path class="cls-6" d="M85.38,289.25a8.72,8.72,0,0,0,5-.61c1.92-.79,3.68-2.08,5.81-2.21,1.92-.12,1.93-3.12,0-3a11.77,11.77,0,0,0-4.34,1.2c-1.78.83-3.58,2.07-5.63,1.72-1.89-.32-2.7,2.57-.8,2.9Z"/><path class="cls-6" d="M94.49,304.22c1.67-.14,2.94-1.06,4.35-1.89l5.12-3.05a1.5,1.5,0,0,0-1.51-2.59l-4,2.37c-1.13.67-2.64,2.05-4,2.16-1.91.15-1.92,3.15,0,3Z"/><path class="cls-6" d="M102.82,316.38a9.16,9.16,0,0,0,4.67-2.07l5.32-3.78c1.56-1.11.06-3.72-1.52-2.59l-4.13,2.94c-1.27.91-2.73,2.36-4.34,2.5-1.91.17-1.93,3.17,0,3Z"/><path class="cls-6" d="M114,327.58a41.78,41.78,0,0,0,9.24-4.79c1.57-1.1.08-3.7-1.52-2.59a38.74,38.74,0,0,1-8.52,4.49c-1.79.66-1,3.56.8,2.89Z"/><path class="cls-6" d="M122.58,336.59a9.94,9.94,0,0,0,4.34-2.33,40.46,40.46,0,0,1,5.21-3.49,1.5,1.5,0,0,0-1.51-2.59,40.27,40.27,0,0,0-4.56,2.94c-1.35,1.05-2.54,2.25-4.28,2.57-1.9.36-1.09,3.25.8,2.9Z"/><path class="cls-6" d="M143.21,340.91a68.59,68.59,0,0,1-5.68,6.13c-1.4,1.34.73,3.46,2.12,2.12a68.59,68.59,0,0,0,5.68-6.13c1.21-1.48-.9-3.62-2.12-2.12Z"/><path class="cls-6" d="M155.42,349.37q-1.92,3.22-3.69,6.53c-.92,1.7,1.67,3.22,2.59,1.51,1.18-2.2,2.41-4.38,3.69-6.52a1.5,1.5,0,0,0-2.59-1.52Z"/><path class="cls-6" d="M168.9,358.39c-.79,2-1.65,4-2.58,5.9-.84,1.74,1.75,3.26,2.59,1.52q1.56-3.26,2.88-6.63c.71-1.79-2.19-2.57-2.89-.79Z"/><path class="cls-6" d="M183.74,364c-.68,1.85-1.39,3.69-2.16,5.5a1.55,1.55,0,0,0,.53,2.05,1.52,1.52,0,0,0,2.06-.53c.87-2.06,1.7-4.13,2.46-6.22.67-1.82-2.23-2.6-2.89-.8Z"/><path class="cls-6" d="M198.09,369.61a10.84,10.84,0,0,1-1.21,4.12c-.89,1.71,1.7,3.23,2.59,1.52a14.88,14.88,0,0,0,1.62-5.64c.17-1.93-2.83-1.91-3,0Z"/><path class="cls-6" d="M213.44,374a15,15,0,0,1-.58,2.74c-.56,1.86,2.33,2.65,2.89.8a19.27,19.27,0,0,0,.69-3.54,1.51,1.51,0,0,0-1.5-1.5,1.53,1.53,0,0,0-1.5,1.5Z"/><path class="cls-6" d="M214.08,379.76a1.5,1.5,0,0,0,0-3,1.5,1.5,0,0,0,0,3Z"/><path class="cls-6" d="M235,379.34a1.5,1.5,0,0,0,0-3,1.5,1.5,0,0,0,0,3Z"/><path class="cls-6" d="M235.24,377.87a1.5,1.5,0,0,0,0-3,1.5,1.5,0,0,0,0,3Z"/><path class="cls-6" d="M235,381.84a1.5,1.5,0,0,0,0-3,1.5,1.5,0,0,0,0,3Z"/><circle class="cls-7" cx="248.44" cy="203.88" r="89.71"/><polygon class="cls-8" points="301.12 213.02 222.09 255.83 222.09 164.72 301.12 213.02"/><rect class="cls-9" x="218.68" y="214.12" width="12.82" height="41.3" rx="4.5"/><path class="cls-6" d="M67.77,227.42a24.37,24.37,0,0,0,9.93-1c1.84-.57,1-3.47-.8-2.89a22.21,22.21,0,0,1-9.13.86c-1.92-.21-1.9,2.79,0,3Z"/><path class="cls-6" d="M66.34,214.71H76.48a1.5,1.5,0,0,0,0-3H66.34a1.5,1.5,0,0,0,0,3Z"/><path class="cls-6" d="M67.15,201.4l9.53-.21c1.93-.05,1.94-3.05,0-3l-9.53.21c-1.93,0-1.93,3,0,3Z"/><path class="cls-6" d="M68.57,188.18a38.59,38.59,0,0,1,8.32.35c1.89.29,2.7-2.6.79-2.9a42.07,42.07,0,0,0-9.11-.45c-1.92.13-1.93,3.13,0,3Z"/><path class="cls-6" d="M70.8,174.38c2.84-.08,5.68,0,8.52.07,1.93.08,1.93-2.92,0-3-2.84-.12-5.68-.15-8.52-.07-1.93.05-1.93,3.05,0,3Z"/><path class="cls-6" d="M73.84,161.52l10.55.2c1.93,0,1.93-3,0-3l-10.55-.2c-1.93,0-1.93,3,0,3Z"/><path class="cls-6" d="M79.12,148.34l8.11.21c1.93.06,1.93-2.94,0-3l-8.11-.21c-1.94-.05-1.93,2.95,0,3Z"/><path class="cls-6" d="M89.46,126.91h7.09a1.5,1.5,0,0,0,0-3H89.46a1.5,1.5,0,0,0,0,3Z"/><path class="cls-6" d="M102,107.85h4.86a1.5,1.5,0,0,0,0-3H102a1.5,1.5,0,0,0,0,3Z"/><path class="cls-6" d="M111.36,98.12h4.25a1.5,1.5,0,0,0,0-3h-4.25a1.5,1.5,0,0,0,0,3Z"/><path class="cls-6" d="M119.67,89.4a1.5,1.5,0,0,0,0-3,1.5,1.5,0,0,0,0,3Z"/><path class="cls-6" d="M111,98.12a1.5,1.5,0,0,0,0-3,1.5,1.5,0,0,0,0,3Z"/></svg>